<svg width="428" height="106" viewBox="0 0 428 106" fill="none" xmlns="http://www.w3.org/2000/svg">
<g clip-path="url(#clip0)">
<path d="M120.88 25.77L114.64 9.16003H94.25L101.26 25.77H120.88Z" fill="white"/>
<path d="M144.52 9.16002L129.65 49.1L123.91 33.83L122.32 29.6H102.88L105.95 36.89L121.38 73.46H137.77L165.04 9.15002L144.52 9.16002Z" fill="white"/>
<path d="M159.77 41.11C159.77 20.86 174.92 7.78003 193.09 7.78003C211.26 7.78003 226.6 20.86 226.6 41.11C226.6 61.36 211.27 74.6 193.09 74.6C174.91 74.6 159.77 61.35 159.77 41.11ZM207.69 41.11C207.69 37.2565 206.159 33.5607 203.434 30.8358C200.709 28.1109 197.014 26.58 193.16 26.58C189.306 26.58 185.611 28.1109 182.886 30.8358C180.161 33.5607 178.63 37.2565 178.63 41.11C178.63 50.06 185.25 55.84 193.09 55.84C200.93 55.84 207.69 50.06 207.69 41.11V41.11Z" fill="white"/>
<path d="M250.9 105.01H230.65L246.07 66.86L221.29 9.16003H241.67L255.85 45.65L270.17 9.16003H290.6L250.9 105.01Z" fill="white"/>
<path d="M318.95 88.35C333.55 88.35 337.55 78.29 336.72 65.48C333.72 71.41 325.43 74.85 317.44 74.85C300.92 74.85 285.35 61.76 285.35 41.5201C285.35 20.8601 300.92 7.78003 317.44 7.78003C325.44 7.78003 333.55 11.23 336.72 17.15V9.15004H355.31V64.51C355.31 92.19 341.82 105.51 318.95 105.51C304.77 105.51 292.65 97.51 287.28 85.51C292.1 83.17 297.89 80.28 302.71 77.94C304.91 83.94 312.48 88.35 318.95 88.35ZM320.74 25.96C312.62 25.96 305.32 32.02 305.32 41.11C305.252 43.1665 305.602 45.2153 306.349 47.1323C307.097 49.0493 308.225 50.7947 309.667 52.2626C311.109 53.7306 312.834 54.8905 314.737 55.6722C316.64 56.4538 318.682 56.8409 320.74 56.81C324.884 56.7862 328.85 55.1204 331.769 52.1775C334.687 49.2346 336.32 45.2547 336.31 41.11C336.31 31.47 328.73 25.96 320.74 25.96Z" fill="white"/>
<path d="M360.86 41.11C360.86 20.86 376.01 7.78003 394.19 7.78003C412.37 7.78003 427.65 20.86 427.65 41.11C427.65 61.36 412.37 74.6 394.19 74.6C376.01 74.6 360.86 61.35 360.86 41.11ZM408.79 41.11C408.79 39.2019 408.414 37.3125 407.684 35.5497C406.954 33.7868 405.883 32.185 404.534 30.8358C403.185 29.4865 401.583 28.4163 399.82 27.6861C398.057 26.9559 396.168 26.58 394.26 26.58C392.352 26.58 390.462 26.9559 388.699 27.6861C386.937 28.4163 385.335 29.4865 383.986 30.8358C382.636 32.185 381.566 33.7868 380.836 35.5497C380.106 37.3125 379.73 39.2019 379.73 41.11C379.73 50.06 386.34 55.84 394.19 55.84C402.04 55.84 408.79 50.06 408.79 41.11V41.11Z" fill="white"/>
<path d="M82.3798 39.7701C82.1506 32.8143 80.1546 26.0313 76.5798 20.0601C76.0727 23.6069 75.3817 27.1249 74.5098 30.6001C77.3261 33.4856 79.9548 36.5486 82.3798 39.7701V39.7701Z" fill="white"/>
<path d="M35.8499 6.5C37.4499 4.28 39.1399 2.11333 40.9199 0C35.2166 0.04023 29.584 1.2662 24.3799 3.60001C28.2601 4.326 32.0909 5.29456 35.8499 6.5V6.5Z" fill="white"/>
<path d="M45.7296 0.25C43.5629 2.68333 41.5196 5.20335 39.5996 7.81001C51.3884 12.1939 62.1829 18.8881 71.3496 27.5C72.259 23.5106 72.9269 19.4699 73.3496 15.4C69.9668 11.1841 65.7863 7.67613 61.0471 5.07661C56.308 2.4771 51.103 0.836974 45.7296 0.25V0.25Z" fill="white"/>
<path d="M45.9997 74.52C37.1174 73.4234 28.4368 71.0664 20.2197 67.52C20.2197 70.69 20.3797 73.85 20.6797 76.97C25.8853 79.9741 31.6903 81.7908 37.6797 82.29C39.9731 80.37 42.1864 78.3467 44.3197 76.22C44.9197 75.6 45.4597 75.08 45.9997 74.52Z" fill="white"/>
<path d="M21.8498 33.82C17.8613 26.7709 14.8025 19.2349 12.7498 11.4C7.41728 16.4951 3.5487 22.9271 1.54716 30.0257C-0.454372 37.1242 -0.515604 44.6297 1.36984 51.76C6.10119 55.5459 11.2039 58.8427 16.5998 61.6C17.0859 52.1453 18.852 42.8001 21.8498 33.82V33.82Z" fill="white"/>
<path d="M18.9197 6.54004C17.9197 7.20004 16.9197 7.89004 15.9697 8.63004C17.679 15.7199 20.241 22.5765 23.5997 29.05C26.2455 22.2926 29.5974 15.8335 33.5997 9.78003C28.8043 8.29624 23.8942 7.21254 18.9197 6.54004V6.54004Z" fill="white"/>
<path d="M69.9998 70.67C76.7689 64.0713 81.0564 55.3409 82.1398 45.95C79.4958 42.039 76.5537 38.338 73.3398 34.88C70.0634 45.9087 64.9665 56.312 58.2598 65.66C61.5503 67.6127 64.9642 69.3497 68.4798 70.86L69.9998 70.67Z" fill="white"/>
<path d="M57.9397 75.26C55.533 75.26 53.1363 75.17 50.7497 74.99C49.5497 76.31 48.3197 77.61 47.0597 78.87C45.7997 80.13 44.6497 81.22 43.4097 82.35C51.0686 81.9506 58.4619 79.4111 64.7497 75.02C62.4963 75.18 60.2263 75.26 57.9397 75.26Z" fill="white"/>
<path d="M60.7996 71.42C59.1696 70.57 57.5596 69.68 55.9796 68.73C55.2896 69.62 54.5896 70.5 53.8696 71.37C55.2296 71.43 56.5796 71.46 57.9396 71.46C58.8996 71.46 59.8496 71.44 60.7996 71.42Z" fill="white"/>
<path d="M16.6599 74.3C16.5099 71.96 16.4199 69.59 16.4199 67.22C16.4199 66.73 16.4199 66.22 16.4199 65.75C11.9726 63.5821 7.70277 61.0677 3.6499 58.23C6.55574 64.6019 11.0324 70.1315 16.6599 74.3V74.3Z" fill="white"/>
<path d="M37.4198 54.25C32.5177 49.3686 28.159 43.9704 24.4198 38.15C21.9675 46.3424 20.5695 54.8141 20.2598 63.36C29.3897 67.5077 39.1464 70.1066 49.1298 71.05C50.3698 69.63 51.5631 68.18 52.7098 66.7C47.1966 63.0895 42.0725 58.9172 37.4198 54.25V54.25Z" fill="white"/>
<path d="M55.0298 63.66C61.978 54.0158 67.1428 43.2051 70.2798 31.74C60.9282 22.5315 49.6895 15.4621 37.3398 11.02C32.6327 17.9749 28.8257 25.4982 26.0098 33.41C33.2236 45.5878 43.1471 55.939 55.0098 63.66H55.0298Z" fill="white"/>
</g>
<defs>
<clipPath id="clip0">
<rect width="427.65" height="105.56" fill="white"/>
</clipPath>
</defs>
</svg>
