<?xml version="1.0" encoding="UTF-8"?>
<svg width="84px" height="55px" viewBox="0 0 84 55" version="1.1" xmlns="http://www.w3.org/2000/svg" xmlns:xlink="http://www.w3.org/1999/xlink">
    <!-- Generator: Sketch 61.2 (89653) - https://sketch.com -->
    <title>Image</title>
    <desc>Created with Sketch.</desc>
    <defs>
        <linearGradient x1="50%" y1="0%" x2="50%" y2="100%" id="linearGradient-1">
            <stop stop-color="#288EC7" offset="0%"></stop>
            <stop stop-color="#1F4D9B" offset="100%"></stop>
        </linearGradient>
        <rect id="path-2" x="0" y="0" width="82" height="53.3" rx="4.1"></rect>
    </defs>
    <g id="Private-CPO" stroke="none" stroke-width="1" fill="none" fill-rule="evenodd">
        <g id="3-Card-Detail-CPO" transform="translate(-774.000000, -174.000000)">
            <g id="Content" transform="translate(39.000000, 80.000000)">
                <g id="Image" transform="translate(736.000000, 95.000000)">
                    <mask id="mask-3" fill="white">
                        <use xlink:href="#path-2"></use>
                    </mask>
                    <use id="Mask" stroke="#1F4D9B" stroke-width="0.5" fill="url(#linearGradient-1)" xlink:href="#path-2"></use>
                    <circle id="Fx" fill="#288EC7" opacity="0.2" mask="url(#mask-3)" cx="18.45" cy="51.25" r="26.65"></circle>
                    <g id="Logo" mask="url(#mask-3)">
                        <g transform="translate(35.260000, 4.100000)">
                            <path d="M24.3880235,3.26233615 C24.5557944,3.26233615 24.7232958,3.30424518 24.8652946,3.38415533 L24.8652946,3.38415533 L24.8652946,3.29100543 L25.4766813,3.29100543 L25.4766813,5.52491844 C25.4766813,5.91036024 25.3781412,6.11128103 25.1106511,6.25368414 C24.9306511,6.35070826 24.6764008,6.40087108 24.3798708,6.40087108 C24.1470803,6.40087108 23.9579843,6.37152802 23.5008592,6.27096656 L23.5008592,6.27096656 L23.5008592,5.90261179 C23.7257665,5.95715417 24.0179506,5.99043883 24.2333913,5.99043883 C24.7101908,5.99043883 24.8484165,5.88091612 24.8484165,5.5000897 L24.8484165,5.5000897 L24.8484165,5.32366077 C24.5172543,5.45831543 24.3798708,5.49587859 24.2375351,5.49587859 C23.6865863,5.49587859 23.3423865,5.08524421 23.3423865,4.43097148 C23.3423865,3.74897276 23.7767716,3.26233615 24.3880235,3.26233615 Z M8.80379358,3.20604195 C9.10712871,3.20604195 9.39456267,3.31408235 9.50391694,3.36033725 L9.50391694,3.36033725 L9.54629762,3.37819238 L9.54016623,3.79219566 C9.54016623,3.79219566 9.23144087,3.66801826 9.22480415,3.66579479 C9.22375979,3.66542421 9.10850996,3.62203287 8.92817311,3.62203287 C8.57036297,3.62203287 8.38965555,3.87463247 8.38965555,4.37326234 C8.38965555,4.69563172 8.48068304,5.07998873 8.91904341,5.07998873 C9.07744876,5.07998873 9.27095798,5.04714203 9.49374288,4.98212239 L9.49374288,4.98212239 L9.56071648,4.96278494 L9.65295677,5.27252097 L9.59619092,5.29741709 C9.24178337,5.44982582 9.00309729,5.50905096 8.74369252,5.50905096 C8.14756689,5.50905096 7.7479151,5.05425039 7.7479151,4.37717026 C7.7479151,3.66643488 8.16232264,3.20604195 8.80379358,3.20604195 Z M10.8457134,3.20600826 C11.5363365,3.20600826 11.9480489,3.63591271 11.9480489,4.35597992 C11.9480489,5.0676249 11.5253876,5.50905096 10.8457134,5.50905096 C10.152631,5.50905096 9.73903199,5.07971922 9.73903199,4.36035948 C9.73903199,3.64820917 10.1632767,3.20600826 10.8457134,3.20600826 Z M26.8324587,3.20600826 C27.5230818,3.20600826 27.9349626,3.63591271 27.9349626,4.35597992 C27.9349626,5.0676249 27.5120655,5.50905096 26.8324587,5.50905096 C26.1402522,5.50905096 25.7268553,5.07971922 25.7268553,4.36035948 C25.7268553,3.64820917 26.1501904,3.20600826 26.8324587,3.20600826 Z M22.0318197,3.20600826 C22.7225102,3.20600826 23.1342563,3.63591271 23.1342563,4.35597992 C23.1342563,5.0676249 22.7121677,5.50905096 22.0318197,5.50905096 C21.3396469,5.50905096 20.9258795,5.07971922 20.9258795,4.36035948 C20.9258795,3.64820917 21.3495515,3.20600826 22.0318197,3.20600826 Z M28.8184548,2.69066868 L28.8184548,3.27628337 L29.4268769,3.27628337 L29.4268769,3.65312775 L28.8184548,3.65312775 C28.8184548,3.72832144 28.8181487,4.15682073 28.8179131,4.47970096 L28.8178885,4.92287869 C28.818758,5.02624834 28.8222673,5.03955079 28.8330758,5.05802355 C28.8487075,5.08147105 28.8743448,5.1065693 28.9701224,5.1065693 L28.9701224,5.1065693 L29.4011723,5.04128015 L29.4934126,5.33501394 L29.4328399,5.35910153 C29.1888983,5.45588983 28.9656755,5.50463771 28.7710882,5.50463771 C28.5589827,5.50463771 28.41567,5.45097124 28.3227896,5.33565403 C28.2232388,5.21922508 28.2039014,5.07082534 28.2039014,4.83800114 L28.2039014,4.83800114 L28.2039014,2.74248226 L28.7421831,2.69710327 L28.8184548,2.69066868 Z M30.6003972,3.27624968 C30.7646644,3.27624968 30.9284937,3.31836084 31.0675616,3.39715925 L31.0675616,3.39715925 L31.0675616,3.3053906 L31.6661465,3.3053906 L31.6661465,5.03002805 L31.9136928,5.03002805 L31.9136928,5.39410433 L31.050616,5.48105546 L31.050616,5.27905663 C30.7724128,5.4386074 30.5918065,5.50147095 30.4527049,5.50147095 C29.9129072,5.50147095 29.5761526,5.0925547 29.5761526,4.44077496 C29.5761526,3.76093233 30.001509,3.27624968 30.6003972,3.27624968 Z M3.82645616,3.27624968 C3.99028543,3.27624968 4.15421577,3.31836084 4.29358688,3.39715925 L4.29358688,3.39715925 L4.29358688,3.3053906 L4.89230656,3.3053906 L4.89230656,5.03002805 L5.13998758,5.03002805 L5.13998758,5.39410433 L4.28887043,5.47991003 L4.27654028,5.48105546 L4.27654028,5.27905663 C3.99853922,5.4386074 3.81789917,5.50147095 3.67859544,5.50147095 C3.13878422,5.50147095 2.80226549,5.0925547 2.80226549,4.44077496 C2.80226549,3.76093233 3.22762193,3.27624968 3.82645616,3.27624968 Z M16.3409507,3.20519972 C16.38067,3.20644621 17.2845777,3.18326823 17.2845777,4.2172489 C17.2845777,4.26784967 17.2819163,4.3191916 17.2771998,4.37174634 L17.2771998,4.37174634 L17.2755491,4.39694566 L17.0969303,4.39694566 L15.9077448,4.37349816 C15.9085196,4.55444141 15.9262737,4.78133636 16.055875,4.93189219 C16.2958412,5.21083654 16.670159,5.06220098 16.9610629,4.98192026 L16.9610629,4.98192026 L17.1623879,4.91828186 L17.2642633,5.23054457 L17.2448247,5.24061756 C16.8857681,5.43638393 16.3193224,5.57023006 15.9321019,5.44702964 C15.4946848,5.30779328 15.2190756,4.88425604 15.2324501,4.36857958 C15.244915,3.79900082 15.4993339,3.40457082 15.9493506,3.25785552 C16.0739996,3.21752987 16.20067,3.20028114 16.3409507,3.20519972 Z M14.8842414,2.24172999 C14.8842414,2.24172999 14.8638053,4.5561317 14.8598618,5.01869515 L14.8592105,5.0977428 L15.1205355,5.0977428 L15.1205355,5.37055576 L14.3046907,5.4781919 C14.3046907,5.4781919 14.2998395,5.34158328 14.2979529,5.29795612 C14.0745616,5.40488478 13.6732253,5.51642883 13.3706651,5.41718124 C12.9587168,5.28178543 12.7003227,4.87020776 12.7123497,4.37016296 C12.7243092,3.81746236 12.9631301,3.43526143 13.3866673,3.29279094 C13.6947189,3.18875953 14.0297216,3.25869775 14.2697889,3.33965225 C14.2697889,3.30074153 14.2699337,3.05206458 14.2700423,2.8590122 L14.2701595,2.62891687 L13.9724167,2.62891687 L13.9724167,2.35697982 L14.7804121,2.25382431 L14.8531128,2.24513257 Z M1.30993553,2.38661462 C1.72235533,2.39083179 1.88158669,2.41366706 2.05024096,2.48311118 C2.32062832,2.59226331 2.47596798,2.84334692 2.47596798,3.17100546 C2.47596798,3.50765895 2.34195341,3.71733885 2.06095404,3.8337678 C2.40781527,3.94359371 2.58606341,4.18568237 2.58606341,4.58371709 C2.58606341,4.92565974 2.41037563,5.20332391 2.10326734,5.34535644 C1.90116744,5.4386074 1.71402543,5.4656933 1.26805136,5.4656933 L1.26805136,5.4656933 L0.359090315,5.4656933 L0.359090315,2.765795 C0.276619812,2.75356592 0,2.71293706 0,2.71293706 L0,2.71293706 L0,2.38585123 Z M19.3524729,2.38661462 C19.7644532,2.39083179 19.9241204,2.41366706 20.0921458,2.48311118 C20.3630048,2.59226331 20.5182434,2.84334692 20.5182434,3.17100546 C20.5182434,3.50765895 20.384431,3.71733885 20.1031621,3.8337678 C20.4500907,3.94359371 20.6288442,4.18568237 20.6288442,4.58371709 C20.6288442,4.92565974 20.4528195,5.20332391 20.1461492,5.34535644 C19.9442514,5.4386074 19.756503,5.4656933 19.3102594,5.4656933 L19.3102594,5.4656933 L18.4018037,5.4656933 L18.4018037,2.765795 C18.3191311,2.75356592 18.0425786,2.71293706 18.0425786,2.71293706 L18.0425786,2.71293706 L18.0425786,2.38585123 Z M6.83673059,3.20600826 C7.07787595,3.20600826 7.25922347,3.28339173 7.37571979,3.43522774 C7.48157041,3.57176898 7.49649461,3.68203285 7.49649461,4.01760829 L7.49649461,4.01760829 L7.49649461,5.4656933 L6.88241278,5.4656933 L6.88362558,4.05025287 C6.88450149,3.91573297 6.88554585,3.79960722 6.82709555,3.74038208 C6.78902706,3.70201039 6.72292938,3.68381837 6.62563574,3.68381837 C6.43394573,3.68381837 6.23871837,3.74341409 6.15486662,3.7725887 C6.15486662,3.85285679 6.15076552,5.08893893 6.14974025,5.39670528 L6.14951008,5.4656933 L5.54182915,5.4656933 L5.54182915,3.65312775 L5.20103192,3.65312775 L5.20103192,3.32829908 L6.12687112,3.21072471 C6.12687112,3.21072471 6.13569762,3.33473366 6.13967292,3.38540182 C6.41110463,3.27274603 6.65002653,3.20600826 6.83673059,3.20600826 Z M22.0318197,3.60896156 C21.8024992,3.60896156 21.5674178,3.69857412 21.5674178,4.36035948 C21.5674178,5.03346432 21.830461,5.11121837 22.0275749,5.11121837 C22.2578051,5.11121837 22.4927853,5.02160582 22.4927853,4.35597992 C22.4927853,3.6864461 22.2299106,3.60896156 22.0318197,3.60896156 Z M26.8324587,3.60896156 C26.6027339,3.60896156 26.3681578,3.69857412 26.3681578,4.36035948 C26.3681578,5.03346432 26.6296176,5.11121837 26.827877,5.11121837 C27.0578376,5.11121837 27.2933569,5.02160582 27.2933569,4.35597992 C27.2933569,3.6864461 27.0301116,3.60896156 26.8324587,3.60896156 Z M10.8457134,3.60896156 C10.6165613,3.60896156 10.3809746,3.69857412 10.3809746,4.36035948 C10.3809746,5.03346432 10.6436472,5.11121837 10.8418055,5.11121837 C11.0715303,5.11121837 11.3065779,5.02160582 11.3065779,4.35597992 C11.3065779,3.6864461 11.0431979,3.60896156 10.8457134,3.60896156 Z M14.2865323,3.70895031 C14.051451,3.59925915 13.7297554,3.55704692 13.5418048,3.76874816 C13.423085,3.90245953 13.3612658,4.05153305 13.3559093,4.28391929 C13.3559093,4.30797319 13.3548986,4.33206078 13.3548986,4.35597992 C13.3548986,4.56694 13.3775713,4.77412693 13.4929559,4.91235261 C13.6906088,5.1503986 13.995999,5.0947108 14.2713049,5.02079728 C14.2713049,4.97700167 14.2865323,3.70895031 14.2865323,3.70895031 Z M19.0436115,4.05432923 L19.0436115,5.06678267 L19.1577833,5.06678267 C19.4223088,5.06678267 19.6365367,5.05802355 19.7802537,4.94941044 C19.8942907,4.86397531 19.9595125,4.71449752 19.9595125,4.5401573 C19.9595125,4.37717026 19.9047006,4.24170706 19.8056888,4.15940501 C19.6866322,4.06440222 19.5007029,4.05682221 19.2695632,4.05682221 L19.2695632,4.05682221 L19.0590074,4.05682221 C19.0590074,4.05682221 19.0474184,4.05520514 19.0436115,4.05432923 L19.0436115,4.05432923 Z M1.00126872,4.05432923 L1.00126872,5.06678267 L1.11550788,5.06678267 C1.37966279,5.06678267 1.59405915,5.05802355 1.73730448,4.94941044 C1.8516784,4.86397531 1.91716968,4.71449752 1.91716968,4.5401573 C1.91716968,4.37717026 1.86158295,4.24170706 1.76368291,4.15940501 C1.64445779,4.06440222 1.45795587,4.05682221 1.22647922,4.05682221 L1.22647922,4.05682221 L1.01605816,4.05682221 C1.01605816,4.05682221 1.0046713,4.05520514 1.00126872,4.05432923 L1.00126872,4.05432923 Z M4.06197547,3.64972517 C3.65363194,3.64972517 3.41986445,3.91667626 3.41986445,4.37892208 C3.41986445,4.82344752 3.62664711,5.06540143 4.00470429,5.06540143 C4.10647855,5.06540143 4.18126798,5.05674337 4.29530501,5.03949464 L4.29530501,5.03949464 L4.29530501,3.67202724 C4.19403608,3.65370046 4.13659646,3.64972517 4.06197547,3.64972517 Z M30.8358154,3.64972517 C30.427135,3.64972517 30.1936707,3.91667626 30.1936707,4.37892208 C30.1936707,4.82344752 30.400925,5.06540143 30.7784095,5.06540143 C30.8804196,5.06540143 30.9548047,5.05674337 31.0688754,5.03949464 L31.0688754,5.03949464 L31.0688754,3.67202724 C30.9679097,3.65370046 30.9107059,3.64972517 30.8358154,3.64972517 Z M24.6203424,3.64800703 C24.2201179,3.64800703 23.9919091,3.91189243 23.9919091,4.36878171 C23.9919091,4.80852333 24.1941437,5.0478158 24.564284,5.0478158 C24.6639696,5.0478158 24.7368387,5.03875348 24.8484165,5.02217853 L24.8484165,5.02217853 L24.8484165,3.66892786 C24.7494384,3.65167913 24.6935485,3.64800703 24.6203424,3.64800703 Z M16.3426015,3.58349273 C15.9450721,3.58349273 15.9292046,4.02936573 15.9231406,4.06753529 L15.9231406,4.06753529 L16.7585587,4.06753529 C16.7528316,4.01902323 16.7473403,3.58349273 16.3426015,3.58349273 Z M19.334796,2.78402508 L19.0436115,2.78391964 L19.0436115,3.87813612 C19.0436115,3.87813612 19.1622639,3.67650787 19.1622639,3.67879872 L19.1622639,3.67879872 L19.4213992,3.65167913 C19.7825782,3.61566566 19.8765367,3.49428444 19.8765367,3.18855739 C19.8765367,3.055823 19.8343244,2.946873 19.7572778,2.88097745 C19.6434429,2.78267315 19.4570084,2.78317849 19.2210511,2.78391964 Z M1.29226372,2.78402508 L1.00126872,2.78391964 L1.00126872,3.87813612 C1.00126872,3.87813612 1.12022433,3.67650787 1.12022433,3.67879872 C1.12022433,3.67879872 1.37754039,3.65167913 1.37925852,3.65167913 C1.74067337,3.61566566 1.83416016,3.49428444 1.83416016,3.18855739 C1.83416016,3.055823 1.79150997,2.946873 1.71476659,2.88097745 C1.60079693,2.78267315 1.41496879,2.78317849 1.17823667,2.78391964 Z M31.2408237,2.28653627 L31.3862589,2.75292583 L30.3049789,2.97800157 L30.2212956,2.70013527 L31.1770169,2.3123083 L31.2408237,2.28653627 Z" id="Lettering" fill="#FFFFFF"></path>
                            <g id="Emblem" stroke-width="1" fill="none" transform="translate(34.030000, 0.000000)">
                                <path d="M4.29287861,0.000403592962 C1.99017795,0.0385179033 0.0864491895,1.58332041 0.00286587394,3.70702658 C-0.0799826432,5.83060662 1.64361554,7.61781715 3.85276063,7.69717362 C4.97744827,7.73849145 6.01151953,7.32884459 6.76691851,6.63680879 C7.49447387,5.9696444 7.46484575,4.79624831 6.88598209,5.32863787 C6.24980415,5.9134693 5.3605669,6.26290513 4.39076425,6.22910422 C2.54159165,6.16541221 1.09842139,4.73023563 1.16820099,3.02386982 C1.23249585,1.44037283 2.86529658,0.187216685 4.32775529,0.111618678 L4.36593856,0 C4.341559,0 4.3177043,0 4.29287861,0.000403592962" id="Fill" fill="#FFFFFF"></path>
                                <path d="M4.61422169,0.11240064 C6.47273673,0.220386982 8.00237701,1.74218469 2.59454962,3.26216624 C3.97206039,3.5222819 4.98970366,4.14320967 4.98970366,4.14320967 C9.61935333,1.88071798 6.98586218,-0.00787006275 4.36593856,5.59040185e-07 L4.32775529,0.111618678 C4.42417134,0.106699889 4.51959015,0.106699889 4.61422169,0.11240064" id="Fill" fill="#FFFFFF"></path>
                                <path d="M2.33660914,0.907882367 C2.91830703,0.442035191 3.64216216,0.147488003 4.32772905,0.111618678 C4.42414509,0.106725114 4.51959015,0.106725114 4.61419545,0.11240064 C5.52524046,0.165624462 6.35753084,0.557664575 6.33160296,1.12395595 L6.78681055,0.608542513 C6.17821379,0.221244617 5.27144635,-0.00249723145 4.36591232,2.52245601e-05 C4.341559,2.52245601e-05 4.3177043,2.52245601e-05 4.29287861,0.000428817522 C3.43956775,0.0145293466 2.64191787,0.235925311 1.97149308,0.616059432 L2.33660914,0.907882367 Z" id="Fill" fill="#FFFFFF"></path>
                                <path d="M6.59573673,6.00278947 C6.59445083,5.98253415 6.51916024,5.4790267 6.51916024,5.4790267 C6.33186538,4.28459333 6.59374228,3.12570137 8.49563667,3.03093269 C5.73691488,1.75628522 3.90272692,2.97654854 2.55878068,3.26216624 C3.78190507,3.40884705 6.36023385,4.73734896 6.59573673,6.00278947" id="Fill" fill="#FFFFFF"></path>
                                <path d="M7.51182037,3.38243694 C6.33687776,3.84788052 6.45638747,5.13741048 6.56962514,5.89288606 C6.5916691,5.95385382 6.70997163,6.42494771 6.43804375,6.9157672 C6.10011522,7.46841208 5.5538976,7.88471822 4.49998678,8.15615971 C7.20123684,8.27539621 10.2926648,5.78167097 7.51182037,3.38243694" id="Fill" fill="#FFFFFF"></path>
                            </g>
                        </g>
                    </g>
                </g>
            </g>
        </g>
    </g>
</svg>