<svg xmlns="http://www.w3.org/2000/svg" xmlns:xlink="http://www.w3.org/1999/xlink" width="200" height="130" viewBox="0 0 200 130">
  <defs>
    <style>
      .cls-1 {
        fill: url(#linear-gradient);
      }

      .cls-2 {
        fill: #005aa9;
      }

      .cls-3 {
        fill: #64bbdc;
      }
    </style>
    <linearGradient id="linear-gradient" x1="0.5" x2="0.5" y2="1" gradientUnits="objectBoundingBox">
      <stop offset="0" stop-color="#0aa4da"/>
      <stop offset="1" stop-color="#005aa9"/>
    </linearGradient>
  </defs>
  <g id="Card" transform="translate(-3164 -879)">
    <path id="Mask" class="cls-1" d="M10,0H190a10,10,0,0,1,10,10V120a10,10,0,0,1-10,10H10A10,10,0,0,1,0,120V10A10,10,0,0,1,10,0Z" transform="translate(3164 879)"/>
    <path id="Trazado_227" data-name="Trazado 227" class="cls-2" d="M184.125,2.6H11.1A9.719,9.719,0,0,0,4.1,5.451h0a9.222,9.222,0,0,0-2.851,6.924L1,84.224l.163-.081L4.421,12.375A6.343,6.343,0,0,1,6.376,7.732,6.266,6.266,0,0,1,11.02,5.858H184.043a6.6,6.6,0,0,1,4.643,1.874,6.343,6.343,0,0,1,1.955,4.643l3.1,65.25.163-65.25a9.3,9.3,0,0,0-2.933-6.924A9.092,9.092,0,0,0,184.125,2.6Z" transform="translate(3167.243 879.794)"/>
    <path id="e0dc" class="cls-3" d="M36.95,2.286a3.245,3.245,0,0,1,2.372.98,3.2,3.2,0,0,1,.986,2.358V30.992a3.2,3.2,0,0,1-.986,2.358,3.245,3.245,0,0,1-2.372.98H3.36a3.245,3.245,0,0,1-2.372-.98A3.2,3.2,0,0,1,0,30.992V5.624A3.2,3.2,0,0,1,.987,3.266a3.245,3.245,0,0,1,2.372-.98H36.95ZM3.359,4.956a.648.648,0,0,0-.473.2.64.64,0,0,0-.2.47V10.3H37.62V5.624a.64.64,0,0,0-.2-.47.648.648,0,0,0-.473-.2H3.358ZM36.95,31.66a.648.648,0,0,0,.473-.2.64.64,0,0,0,.2-.47V18.308H2.689V30.992a.64.64,0,0,0,.2.47.648.648,0,0,0,.473.2h33.59ZM5.374,28.99V26.319h5.374V28.99Zm8.063,0V26.319H21.5V28.99H13.437Z" transform="translate(3243.845 925.644)"/>
  </g>
</svg>
