<svg id="Logo" xmlns="http://www.w3.org/2000/svg" viewBox="0 0 144.09 19.91"><defs><style>.cls-1{fill:#0f265c}</style></defs><path id="Lettering" class="cls-1" d="M38.3 18.52a4.57 4.57 0 0 1-4.62-4.82 4.63 4.63 0 1 1 9.25 0 4.57 4.57 0 0 1-4.62 4.82zm0-8.43c-1.94 0-3.25 1.45-3.25 3.61a3.27 3.27 0 1 0 6.51 0 3.3 3.3 0 0 0-3.25-3.6zm-22.18 8.43a4.57 4.57 0 0 1-4.63-4.82 4.63 4.63 0 1 1 9.25 0 4.57 4.57 0 0 1-4.62 4.82zm0-8.43c-1.95 0-3.26 1.45-3.26 3.61a3.27 3.27 0 1 0 6.51 0 3.3 3.3 0 0 0-3.25-3.6zm85.4 8.26h-1.33V9.04h1.31l.03.04 5.08 6.9V9.03h1.33v9.31h-1.24l-.03-.04-5.15-7.04v7.08zm-23.78 0h-1.33V9.04h1.79l.02.06 2.75 6.65 2.78-6.71h1.79v9.31h-1.33v-7.12l-2.94 7.12h-.6l-.02-.05-2.9-7.06v7.12zm-76.15 0H.26V9.04h1.31l.03.04 5.08 6.9V9.03H8v9.31H6.77l-.03-.04-5.15-7.03v7.07zm114.06 0h-1.33v-8.1h-2.88V9.03h7.1v1.2h-2.9v8.11zm-45.46 0h-1.33v-3.92l-3.68-5.39h1.56l2.78 4.16 2.78-4.16h1.56l-3.67 5.4v3.91zm25.92 0h-6.17V9.04h6.17v1.2h-4.84v2.75h4.75v1.2h-4.75v2.95h4.84v1.2zm-39.44 0h-1.5l3.74-9.31h1.54l3.75 9.31h-1.5l-.8-2.02h-4.42l-.8 2.02zm3.01-7.78l-1.8 4.56h3.6zm-31.7 7.78h-1.53l-.02-.05-3.72-9.26h1.5l.03.06 2.98 7.65 3.02-7.71h1.5L28 18.35zm20.06 0h-1.32v-9.3h3.76a2.78 2.78 0 0 1 2.96 2.84 2.77 2.77 0 0 1-2.96 2.84h-2.43v3.62zm0-8.1v3.28h2.3a1.64 1.64 0 1 0 0-3.29zm-12.3-3.87a1.39 1.39 0 0 1-.22-.02 1.62 1.62 0 0 1-.21-.03l.11-.7a.64.64 0 0 0 .3.06.63.63 0 0 0 .32-.07.5.5 0 0 0 .2-.24l.18-.4-1.48-3.62h.83l1.04 2.67 1.05-2.67h.83l-1.72 4.21a1.23 1.23 0 0 1-.48.62 1.46 1.46 0 0 1-.75.19zM33.1 5.02a1.4 1.4 0 0 1-.64-.15 1.44 1.44 0 0 1-.5-.43v.49h-.78V0h.77v1.85a1.4 1.4 0 0 1 1.15-.58 1.5 1.5 0 0 1 .82.23 1.56 1.56 0 0 1 .56.65 2.3 2.3 0 0 1 .2 1 2.29 2.29 0 0 1-.2 1 1.53 1.53 0 0 1-.56.64 1.46 1.46 0 0 1-.82.23zm-.23-3.06a1.03 1.03 0 0 0-.52.14 1.04 1.04 0 0 0-.4.35v1.4a.9.9 0 0 0 .4.34 1.13 1.13 0 0 0 .52.14.92.92 0 0 0 .74-.33 1.29 1.29 0 0 0 .28-.85 1.3 1.3 0 0 0-.28-.86.91.91 0 0 0-.74-.33zm-6.52 3.06a1.49 1.49 0 0 1-.82-.23 1.51 1.51 0 0 1-.56-.64 2.29 2.29 0 0 1-.2-1 2.3 2.3 0 0 1 .2-1 1.55 1.55 0 0 1 .56-.65 1.51 1.51 0 0 1 .82-.23 1.45 1.45 0 0 1 .64.15 1.51 1.51 0 0 1 .5.43V0h.79v4.93h-.78v-.49a1.48 1.48 0 0 1-.5.43 1.4 1.4 0 0 1-.65.15zm.23-3.06a.9.9 0 0 0-.74.33 1.31 1.31 0 0 0-.27.86 1.3 1.3 0 0 0 .27.85.9.9 0 0 0 .74.33 1.15 1.15 0 0 0 .53-.13.98.98 0 0 0 .4-.34V2.44a1.02 1.02 0 0 0-.4-.34 1.12 1.12 0 0 0-.54-.14zM22.5 5.02a1.96 1.96 0 0 1-.96-.24 1.7 1.7 0 0 1-.67-.66 1.96 1.96 0 0 1-.24-.98 1.94 1.94 0 0 1 .23-.94 1.77 1.77 0 0 1 1.58-.93 1.66 1.66 0 0 1 1.54.94 2.21 2.21 0 0 1 .22 1v.19h-2.76a1.08 1.08 0 0 0 .35.7 1.12 1.12 0 0 0 .79.28 1.61 1.61 0 0 0 .55-.1A1.29 1.29 0 0 0 23.6 4l.35.51a1.8 1.8 0 0 1-.64.38 2.46 2.46 0 0 1-.8.14zm-.06-3.11a.92.92 0 0 0-.72.28 1.1 1.1 0 0 0-.29.66h2.01a1.1 1.1 0 0 0-.11-.45.91.91 0 0 0-.34-.35 1 1 0 0 0-.55-.14zM15.83 5a1.96 1.96 0 0 1-.96-.23 1.7 1.7 0 0 1-.67-.66 1.96 1.96 0 0 1-.24-.98 1.93 1.93 0 0 1 .23-.94 1.79 1.79 0 0 1 .65-.68 1.77 1.77 0 0 1 .93-.25 1.71 1.71 0 0 1 .92.25 1.68 1.68 0 0 1 .62.7 2.19 2.19 0 0 1 .22 1v.18h-2.76a1.07 1.07 0 0 0 .35.7 1.12 1.12 0 0 0 .79.28 1.65 1.65 0 0 0 .55-.1 1.28 1.28 0 0 0 .46-.29l.35.51a1.8 1.8 0 0 1-.64.39 2.49 2.49 0 0 1-.8.13zm-.06-3.1a.93.93 0 0 0-.72.28 1.1 1.1 0 0 0-.29.66h2.01a1 1 0 0 0-.11-.45.9.9 0 0 0-.34-.35.98.98 0 0 0-.55-.14zM5.98 5a1.84 1.84 0 0 1-.96-.24 1.72 1.72 0 0 1-.65-.68 2 2 0 0 1-.22-.95 1.98 1.98 0 0 1 .23-.94 1.72 1.72 0 0 1 .64-.68 1.84 1.84 0 0 1 .96-.25 1.86 1.86 0 0 1 .97.25 1.73 1.73 0 0 1 .65.68 1.97 1.97 0 0 1 .23.94 2 2 0 0 1-.23.95 1.72 1.72 0 0 1-.64.68 1.86 1.86 0 0 1-.98.25zm0-3.05a.92.92 0 0 0-.75.34 1.3 1.3 0 0 0-.28.84 1.31 1.31 0 0 0 .28.85.92.92 0 0 0 .75.34.92.92 0 0 0 .76-.34 1.31 1.31 0 0 0 .28-.85 1.3 1.3 0 0 0-.28-.84.92.92 0 0 0-.76-.34zm4.08 2.97h-.81l-1.1-3.57h.8l.75 2.6.85-2.6h.68l.85 2.6.75-2.6h.8l-1.1 3.57h-.81l-.83-2.62-.83 2.62zm9.01 0h-.77V1.36h.78v.53a1.66 1.66 0 0 1 .51-.44 1.36 1.36 0 0 1 .65-.17v.77a1.05 1.05 0 0 0-.25-.02 1.14 1.14 0 0 0-.52.14 1 1 0 0 0-.4.33v2.43zm-18.2 0H0V0h2.17a1.72 1.72 0 0 1 .86.2 1.42 1.42 0 0 1 .55.57 1.61 1.61 0 0 1 .2.78 1.61 1.61 0 0 1-.2.77 1.4 1.4 0 0 1-.55.56 1.73 1.73 0 0 1-.86.21H.87v1.84zm0-4.17v1.57h1.18a.87.87 0 0 0 .6-.22.73.73 0 0 0 .24-.57.73.73 0 0 0-.24-.56.87.87 0 0 0-.6-.22z" transform="translate(25.54 1.389)"/><path id="Emblem" class="cls-1" d="M19.64 19.91H.37a.39.39 0 0 1-.37-.4V14.7h20.02v4.81a.39.39 0 0 1-.38.4zm.37-6.42H0V9.08h20.01v4.41zm0-5.62H0V4.22h20.01v3.65zm0-4.85H0V.4A.39.39 0 0 1 .37 0h19.27a.39.39 0 0 1 .38.4v2.62z"/></svg>