<?xml version="1.0" encoding="utf-8"?>
<!-- Generator: Adobe Illustrator 24.3.0, SVG Export Plug-In . SVG Version: 6.00 Build 0)  -->
<svg version="1.1" id="Capa_1" xmlns="http://www.w3.org/2000/svg" xmlns:xlink="http://www.w3.org/1999/xlink" x="0px" y="0px"
	 viewBox="0 0 200 124" style="enable-background:new 0 0 200 124;" xml:space="preserve">
<style type="text/css">
	.st0{clip-path:url(#SVGID_2_);fill:#194D8B;}
	.st1{clip-path:url(#SVGID_2_);}
</style>
<g>
	<defs>
		<path id="SVGID_1_" d="M195.08,114.31c0,3.85-3.16,6.97-7.05,6.97H11.98c-3.9,0-7.05-3.12-7.05-6.97V9.69
			c0-3.85,3.16-6.97,7.05-6.97h176.05c3.9,0,7.05,3.12,7.05,6.97V114.31z"/>
	</defs>
	<clipPath id="SVGID_2_">
		<use xlink:href="#SVGID_1_"  style="overflow:visible;"/>
	</clipPath>
	<path class="st0" d="M206.26,125.49c0,3.85-3.16,6.97-7.05,6.97H0.79c-3.9,0-7.05-3.12-7.05-6.97V-1.5c0-3.85,3.16-6.97,7.05-6.97
		h198.42c3.9,0,7.05,3.12,7.05,6.97V125.49z"/>
	<rect x="-6.26" y="11.66" class="st1" width="212.53" height="25.02"/>
</g>
</svg>
