<?xml version="1.0" encoding="UTF-8"?>
<svg width="10px" height="7px" viewBox="0 0 10 7" version="1.1" xmlns="http://www.w3.org/2000/svg" xmlns:xlink="http://www.w3.org/1999/xlink">
    <!-- Generator: Sketch 52.5 (67469) - http://www.bohemiancoding.com/sketch -->
    <title>Icon</title>
    <desc>Created with Sketch.</desc>
    <g id="Private-CEO" stroke="none" stroke-width="1" fill="none" fill-rule="evenodd">
        <g id="3-Dashboard-CEO" transform="translate(-1371.000000, -40.000000)" fill="#FFCC00">
            <g id="Header">
                <g id="Main-Menu" transform="translate(1240.000000, 30.000000)">
                    <path d="M139.260083,13.1558333 L134.760083,8.40583333 C134.714833,8.36083333 136.319,8.33333333 134.583333,8.33333333 C134.445083,8.33333333 132.666667,8.44583333 132.666667,8.58333333 C132.666667,8.65333333 132.694667,8.71583333 132.739917,8.76083333 L137.072417,13.3333333 L132.739917,17.9058333 C132.694667,17.9508333 132.666667,18.0133333 132.666667,18.0833333 C132.666667,18.2208333 134.445083,18.3333333 134.583333,18.3333333 C134.652333,18.3333333 134.714833,18.3058333 134.760083,18.2608333 L139.260083,13.5108333 C139.305333,13.4658333 139.333333,13.4033333 139.333333,13.3333333 C139.333333,13.2633333 139.305333,13.2008333 139.260083,13.1558333 Z" id="Icon" transform="translate(136.000000, 13.333333) rotate(90.000000) translate(-136.000000, -13.333333) "></path>
                </g>
            </g>
        </g>
    </g>
</svg>