<?xml version="1.0" encoding="UTF-8"?>
<svg width="18px" height="24px" viewBox="0 0 18 24" version="1.1" xmlns="http://www.w3.org/2000/svg" xmlns:xlink="http://www.w3.org/1999/xlink">
    <!-- Generator: Sketch 52.5 (67469) - http://www.bohemiancoding.com/sketch -->
    <title>Icon</title>
    <desc>Created with Sketch.</desc>
    <g id="Private-CPO" stroke="none" stroke-width="1" fill="none" fill-rule="evenodd">
        <g id="1--Sign-In-Person" transform="translate(-655.000000, -533.000000)" fill="#FFCC00">
            <g id="Content" transform="translate(40.000000, 0.000000)">
                <g id="Form" transform="translate(550.000000, 340.000000)">
                    <g id="Button" transform="translate(20.000000, 185.000000)">
                        <path d="M61.3636364,29.8181818 C61.3636364,30.4203636 60.8749091,30.9090909 60.2727273,30.9090909 L47.1818182,30.9090909 C46.5796364,30.9090909 46.0909091,30.4203636 46.0909091,29.8181818 L46.0909091,20 C46.0909091,19.3978182 46.5796364,18.9090909 47.1818182,18.9090909 L60.2727273,18.9090909 C60.8749091,18.9090909 61.3636364,19.3978182 61.3636364,20 L61.3636364,29.8181818 Z M48.2727273,14.5454545 C48.2727273,11.5334545 50.7147273,9.09090909 53.7272727,9.09090909 C56.7398182,9.09090909 59.1818182,11.5334545 59.1818182,14.5454545 L59.1818182,17.8181818 L48.2727273,17.8181818 L48.2727273,14.5454545 Z M60.2727273,17.8181818 L60.2727273,14.5454545 C60.2727273,10.9307273 57.342,8 53.7272727,8 C50.1125455,8 47.1818182,10.9307273 47.1818182,14.5454545 L47.1818182,17.8181818 C45.9769091,17.8181818 45,18.7950909 45,20 L45,29.8181818 C45,31.0230909 45.9769091,32 47.1818182,32 L60.2727273,32 C61.4776364,32 62.4545455,31.0230909 62.4545455,29.8181818 L62.4545455,20 C62.4545455,18.7950909 61.4776364,17.8181818 60.2727273,17.8181818 Z M54.2727273,25.3035091 L54.2727273,26 C54.2727273,26.3017455 54.0283636,26.5454545 53.7272727,26.5454545 C53.4261818,26.5454545 53.1818182,26.3017455 53.1818182,26 L53.1818182,25.3035091 C52.8572727,25.1141818 52.6363636,24.7660727 52.6363636,24.3636364 C52.6363636,23.7614545 53.1250909,23.2727273 53.7272727,23.2727273 C54.3294545,23.2727273 54.8181818,23.7614545 54.8181818,24.3636364 C54.8181818,24.7660727 54.5972727,25.1147273 54.2727273,25.3035091 Z M53.7272727,22.1818182 C52.5223636,22.1818182 51.5454545,23.1587273 51.5454545,24.3636364 C51.5454545,24.9237636 51.7625455,25.4295091 52.1094545,25.8156909 C52.1023636,25.8766727 52.0909091,25.9371636 52.0909091,26 C52.0909091,26.9039273 52.8234545,27.6363636 53.7272727,27.6363636 C54.6310909,27.6363636 55.3636364,26.9039273 55.3636364,26 C55.3636364,25.9371636 55.3516364,25.8766727 55.3450909,25.8156909 C55.692,25.4289636 55.9090909,24.9237636 55.9090909,24.3636364 C55.9090909,23.1587273 54.9321818,22.1818182 53.7272727,22.1818182 Z" id="Icon"></path>
                    </g>
                </g>
            </g>
        </g>
    </g>
</svg>