<?xml version="1.0" encoding="UTF-8"?>
<svg width="84px" height="55px" viewBox="0 0 84 55" version="1.1" xmlns="http://www.w3.org/2000/svg" xmlns:xlink="http://www.w3.org/1999/xlink">
    <!-- Generator: Sketch 58 (84663) - https://sketch.com -->
    <title>Image</title>
    <desc>Created with Sketch.</desc>
    <defs>
        <linearGradient x1="50%" y1="0%" x2="50%" y2="100%" id="linearGradient-1">
            <stop stop-color="#FFFFFF" offset="0%"></stop>
            <stop stop-color="#BBBBBB" offset="100%"></stop>
        </linearGradient>
        <rect id="path-2" x="0" y="0" width="82" height="53" rx="4.09860004"></rect>
        <path d="M4.15230349,0.00398585037 C1.93397304,0.0422432005 0.100210295,1.58136058 0.0194939001,3.6978812 C-0.060023397,5.81397938 1.60028132,7.59487095 3.72850816,7.67400882 C4.81146454,7.71526407 5.8074007,7.30707212 6.53542421,6.6173156 C7.23603977,5.95232586 7.20726143,4.78342925 6.65019498,5.31381989 C6.03728483,5.89652396 5.18078659,6.24499629 4.2461757,6.21130393 C2.46500195,6.14770066 1.0750766,4.71716875 1.14222606,3.01691399 C1.20389393,1.43913045 2.77676731,0.190298805 4.18587822,0.114737983 L4.22253635,0.0036111123 C4.1992396,0.0036111123 4.17594284,0.0036111123 4.15230349,0.00398585037 Z" id="path-4"></path>
        <linearGradient x1="31.9453378%" y1="44.3971956%" x2="81.3583054%" y2="57.3653944%" id="linearGradient-6">
            <stop stop-color="#E30513" offset="0%"></stop>
            <stop stop-color="#890F01" offset="100%"></stop>
        </linearGradient>
        <path d="M2.33824021,0.0036111123 C2.31494346,0.0036111123 2.2916467,0.0036111123 2.26800735,0.00398585037 C1.44542644,0.0180214944 0.677661412,0.238980687 0.0315191354,0.617568338 L0.383368615,0.908228811 C0.943861066,0.444132746 1.64105064,0.150542502 2.30158208,0.114737983 C2.39442649,0.110002657 2.48624311,0.110002657 2.57737452,0.115623728 C3.45511392,0.168632131 4.25679628,0.559483937 4.23178653,1.12363507 L4.66997103,0.610175778 C4.08720963,0.226069257 3.2197482,0.0035770452 2.35262938,0.0035770452 C2.34783299,0.0035770452 2.3430366,0.0035770452 2.33824021,0.0036111123 Z" id="path-7"></path>
        <linearGradient x1="10.3257257%" y1="49.9969585%" x2="88.6542581%" y2="49.9969585%" id="linearGradient-9">
            <stop stop-color="#E30513" offset="0%"></stop>
            <stop stop-color="#FFCC00" offset="100%"></stop>
        </linearGradient>
        <path d="M0.0147317698,0.801428461 C1.19327336,0.947712577 3.67677567,2.27173031 3.903919,3.53271028 C3.9025486,3.51244036 3.82991755,3.01078191 3.82991755,3.01078191 C3.64971032,1.82051161 3.90152081,0.665637012 5.73408445,0.57130522 C4.85565985,0.151428247 4.07419085,0.00320230714 3.37563088,0.00313417294 C1.95966799,0.00306603875 0.881507994,0.611095589 0.0147317698,0.801428461 Z" id="path-10"></path>
        <linearGradient x1="50%" y1="-0.782768665%" x2="50%" y2="35.65796%" id="linearGradient-12">
            <stop stop-color="#E39A00" offset="0%"></stop>
            <stop stop-color="#FFCC00" offset="100%"></stop>
        </linearGradient>
        <path d="M1.99427051,2.50327074 C2.01585427,2.56404644 2.12959724,3.03349104 1.86716617,3.52283083 C1.54238204,4.07366172 1.01614952,4.48839456 0.000685198596,4.75868291 C2.60272687,4.87740674 5.58025737,2.39260037 2.90147346,0.00190775744 C1.76986797,0.465765353 1.88532394,1.75077626 1.99427051,2.50327074 Z" id="path-13"></path>
        <linearGradient x1="31.4291158%" y1="25.490131%" x2="50%" y2="50%" id="linearGradient-15">
            <stop stop-color="#E49B00" offset="0%"></stop>
            <stop stop-color="#FFCC00" offset="100%"></stop>
        </linearGradient>
    </defs>
    <g id="Private-CEO" stroke="none" stroke-width="1" fill="none" fill-rule="evenodd">
        <g id="5-Products-CEO" transform="translate(-77.000000, -465.000000)">
            <g id="Product" transform="translate(44.000000, 454.000000)">
                <g id="Image" transform="translate(34.000000, 12.000000)">
                    <mask id="mask-3" fill="white">
                        <use xlink:href="#path-2"></use>
                    </mask>
                    <use id="Mask" stroke="#CCCCCC" stroke-width="0.5" fill="url(#linearGradient-1)" xlink:href="#path-2"></use>
                    <ellipse id="Fx" fill="#E1E1E1" opacity="0.2" mask="url(#mask-3)" cx="18.45" cy="50.9615385" rx="26.65" ry="26.5"></ellipse>
                    <g id="Logo" mask="url(#mask-3)">
                        <g transform="translate(34.850000, 4.076923)">
                            <path d="M24.3880235,3.24397403 C24.5138517,3.24397403 24.6395283,3.26741518 24.754408,3.31265809 L24.8652946,3.36510755 L24.8652946,3.27248195 L25.4766813,3.27248195 L25.4766813,5.49382134 C25.4766813,5.87709367 25.3781412,6.07688357 25.1106511,6.21848516 C24.9306511,6.31496318 24.6764008,6.36484366 24.3798708,6.36484366 C24.1761791,6.36484366 24.0059411,6.34250433 23.6603261,6.26993036 L23.5008592,6.23567031 L23.5008592,5.86938883 C23.7257665,5.92362422 24.0179506,5.95672154 24.2333913,5.95672154 C24.6704575,5.95672154 24.8230276,5.86521003 24.8454208,5.55827583 L24.8484165,5.46913235 L24.8484165,5.29369645 C24.5172543,5.4275932 24.3798708,5.46494494 24.2375351,5.46494494 C23.6865863,5.46494494 23.3423865,5.05662182 23.3423865,4.40603168 C23.3423865,3.7278716 23.7767716,3.24397403 24.3880235,3.24397403 Z M8.80379358,3.18799668 C9.06379512,3.18799668 9.31211417,3.26692653 9.44662081,3.31844242 L9.50391694,3.34142353 L9.54629762,3.35917817 L9.54016623,3.77085122 C9.54016623,3.77085122 9.23144087,3.64737275 9.22480415,3.6451618 C9.22375979,3.6447933 9.10850996,3.60164619 8.92817311,3.60164619 C8.57036297,3.60164619 8.38965555,3.85282403 8.38965555,4.34864735 C8.38965555,4.66920227 8.48068304,5.05139593 8.91904341,5.05139593 C9.03784742,5.05139593 9.17639736,5.03302365 9.33223446,4.99656174 L9.49374288,4.95408042 L9.56071648,4.93485182 L9.65295677,5.2428445 L9.59619092,5.26760049 C9.24178337,5.41915138 9.00309729,5.47804317 8.74369252,5.47804317 C8.14756689,5.47804317 7.7479151,5.02580245 7.7479151,4.35253327 C7.7479151,3.64579828 8.16232264,3.18799668 8.80379358,3.18799668 Z M10.8457134,3.18796318 C11.5363365,3.18796318 11.9480489,3.61544791 11.9480489,4.33146221 C11.9480489,5.03910168 11.5253876,5.47804317 10.8457134,5.47804317 C10.152631,5.47804317 9.73903199,5.05112793 9.73903199,4.33581712 C9.73903199,3.62767516 10.1632767,3.18796318 10.8457134,3.18796318 Z M26.8324587,3.18796318 C27.5230818,3.18796318 27.9349626,3.61544791 27.9349626,4.33146221 C27.9349626,5.03910168 27.5120655,5.47804317 26.8324587,5.47804317 C26.1402522,5.47804317 25.7268553,5.05112793 25.7268553,4.33581712 C25.7268553,3.62767516 26.1501904,3.18796318 26.8324587,3.18796318 Z M22.0318197,3.18796318 C22.7225102,3.18796318 23.1342563,3.61544791 23.1342563,4.33146221 C23.1342563,5.03910168 22.7121677,5.47804317 22.0318197,5.47804317 C21.3396469,5.47804317 20.9258795,5.05112793 20.9258795,4.33581712 C20.9258795,3.62767516 21.3495515,3.18796318 22.0318197,3.18796318 Z M28.8184548,2.6755242 L28.8184548,3.25784275 L29.4268769,3.25784275 L29.4268769,3.63256606 L28.8184548,3.63256606 L28.8180765,4.22989362 C28.8180489,4.26824974 28.8180211,4.30656123 28.8179937,4.3442021 L28.8178885,4.89517018 C28.818758,4.99795801 28.8222673,5.01118558 28.8330758,5.02955437 C28.8447996,5.04704102 28.8621515,5.06545098 28.9105009,5.07356305 L28.9701224,5.07782688 L29.4011723,5.01290522 L29.4934126,5.30498572 L29.4328399,5.32893773 C29.1888983,5.42518125 28.9656755,5.47365476 28.7710882,5.47365476 C28.5589827,5.47365476 28.41567,5.42029035 28.3227896,5.30562221 C28.2398306,5.20914419 28.2125753,5.09058919 28.2057947,4.91977294 L28.2039014,4.81077037 L28.2039014,2.72704615 L28.7421831,2.68192257 L28.8184548,2.6755242 Z M30.6003972,3.25780925 C30.7235976,3.25780925 30.8465517,3.28136345 30.9589979,3.32619653 L31.0675616,3.37803828 L31.0675616,3.28678616 L31.6661465,3.28678616 L31.6661465,5.00171645 L31.9136928,5.00171645 L31.9136928,5.36374351 L31.050616,5.45020524 L31.050616,5.24934336 C30.7724128,5.4079961 30.5918065,5.47050582 30.4527049,5.47050582 C29.9129072,5.47050582 29.5761526,5.06389117 29.5761526,4.41577998 C29.5761526,3.73976386 30.001509,3.25780925 30.6003972,3.25780925 Z M3.82645616,3.25780925 C3.94932811,3.25780925 4.07225692,3.28136345 4.18483901,3.32619653 L4.29358688,3.37803828 L4.29358688,3.28678616 L4.89230656,3.28678616 L4.89230656,5.00171645 L5.13998758,5.00171645 L5.13998758,5.36374351 L4.28887043,5.44906626 L4.27654028,5.45020524 L4.27654028,5.24934336 C3.99853922,5.4079961 3.81789917,5.47050582 3.67859544,5.47050582 C3.13878422,5.47050582 2.80226549,5.06389117 2.80226549,4.41577998 C2.80226549,3.73976386 3.22762193,3.25780925 3.82645616,3.25780925 Z M16.3409507,3.1871592 C16.38067,3.18839868 17.2845777,3.16535115 17.2845777,4.19351204 C17.2845777,4.24382801 17.2819163,4.29488096 17.2771998,4.34713989 L17.2771998,4.34713989 L17.2755491,4.37219737 L17.0969303,4.37219737 L15.9077448,4.34888185 C15.9085196,4.52880666 15.9262737,4.75442452 16.055875,4.90413295 C16.2958412,5.18150725 16.670159,5.03370829 16.9610629,4.95387943 L16.9610629,4.95387943 L17.1623879,4.89059923 L17.2642633,5.20110435 L17.2448247,5.21112065 C16.8857681,5.40578515 16.3193224,5.53887792 15.9321019,5.41637093 C15.4946848,5.27791828 15.2190756,4.85676492 15.2324501,4.34399095 C15.244915,3.77761808 15.4993339,3.38540813 15.9493506,3.23951863 C16.0739996,3.19941995 16.20067,3.1822683 16.3409507,3.1871592 Z M14.8531128,2.2324958 L14.8842414,2.22911237 C14.8842414,2.22911237 14.8638053,4.53048743 14.8598618,4.99044734 L14.8592105,5.06905006 L15.1205355,5.06905006 L15.1205355,5.34032749 L14.3046907,5.4473578 C14.3046907,5.4473578 14.2998395,5.31151809 14.2979529,5.26813648 C14.0745616,5.37446329 13.6732253,5.48537952 13.3706651,5.38669054 C12.9587168,5.25205681 12.7003227,4.84279571 12.7123497,4.34556542 C12.7243092,3.7959757 12.9631301,3.415926 13.3866673,3.27425741 C13.6947189,3.17081154 14.0297216,3.24035611 14.2697889,3.32085496 L14.269994,2.92780829 C14.2700105,2.89889637 14.2700268,2.87034389 14.2700423,2.8429202 L14.2701595,2.61411997 L13.9724167,2.61411997 L13.9724167,2.34371352 L14.7804121,2.24113862 L14.8531128,2.2324958 L14.8842414,2.22911237 Z M6.83673059,3.18796318 C7.07787595,3.18796318 7.25922347,3.2649111 7.37571979,3.4158925 C7.46833909,3.53469363 7.49134284,3.63348938 7.4956466,3.87987604 L7.49649461,3.99499511 L7.49649461,5.43492955 L6.88241278,5.43492955 L6.88362558,4.02745595 C6.88450149,3.89369319 6.88554585,3.77822107 6.82709555,3.71932927 C6.78902706,3.68117356 6.72292938,3.66308393 6.62563574,3.66308393 C6.43394573,3.66308393 6.23871837,3.72234421 6.15486662,3.75135462 L6.15402966,4.05289606 C6.15277422,4.45817362 6.15047259,5.14773406 6.14974025,5.36632983 L6.14951008,5.43492955 L5.54182915,5.43492955 L5.54182915,3.63256606 L5.20103192,3.63256606 L5.20103192,3.30956569 L6.12687112,3.19265309 C6.12687112,3.19265309 6.13569762,3.31596406 6.13967292,3.36634702 C6.41110463,3.25432532 6.65002653,3.18796318 6.83673059,3.18796318 Z M19.1856441,2.37242243 C19.724667,2.37242243 19.9031172,2.39145004 20.0921458,2.46913494 C20.3630048,2.57767271 20.5182434,2.82734309 20.5182434,3.1531574 C20.5182434,3.48791603 20.384431,3.69641574 20.1031621,3.81218937 C20.4500907,3.92139713 20.6288442,4.16212318 20.6288442,4.55791756 C20.6288442,4.89793558 20.4528195,5.17403691 20.1461492,5.31527001 C19.9694886,5.39640534 19.8036612,5.42716818 19.4660163,5.43359115 L19.3102594,5.43492955 L18.4018037,5.43492955 L18.4018037,2.75022767 C18.3309414,2.7398046 18.1176369,2.70863383 18.0581389,2.69994061 L18.0425786,2.69766725 L18.0425786,2.37242243 L19.1856441,2.37242243 Z M1.14289698,2.37242243 C1.68269472,2.37242243 1.8605049,2.39145004 2.05024096,2.46913494 C2.32062832,2.57767271 2.47596798,2.82734309 2.47596798,3.1531574 C2.47596798,3.48791603 2.34195341,3.69641574 2.06095404,3.81218937 C2.40781527,3.92139713 2.58606341,4.16212318 2.58606341,4.55791756 C2.58606341,4.89793558 2.41037563,5.17403691 2.10326734,5.31527001 C1.92642993,5.39640534 1.76104465,5.42716818 1.42369363,5.43359115 L1.26805136,5.43492955 L0.359090315,5.43492955 L0.359090315,2.75022767 C0.288401313,2.7398046 0.0750720013,2.70863383 0.0155634021,2.69994061 L2.84217094e-14,2.69766725 L2.84217094e-14,2.37242243 L1.14289698,2.37242243 Z M22.0318197,3.58864846 C21.8024992,3.58864846 21.5674178,3.67775663 21.5674178,4.33581712 C21.5674178,5.00513338 21.830461,5.08244979 22.0275749,5.08244979 C22.2578051,5.08244979 22.4927853,4.99334162 22.4927853,4.33146221 C22.4927853,3.66569688 22.2299106,3.58864846 22.0318197,3.58864846 Z M26.8324587,3.58864846 C26.6027339,3.58864846 26.3681578,3.67775663 26.3681578,4.33581712 C26.3681578,5.00513338 26.6296176,5.08244979 26.827877,5.08244979 C27.0578376,5.08244979 27.2933569,4.99334162 27.2933569,4.33146221 C27.2933569,3.66569688 27.0301116,3.58864846 26.8324587,3.58864846 Z M10.8457134,3.58864846 C10.6165613,3.58864846 10.3809746,3.67775663 10.3809746,4.33581712 C10.3809746,5.00513338 10.6436472,5.08244979 10.8418055,5.08244979 C11.0715303,5.08244979 11.3065779,4.99334162 11.3065779,4.33146221 C11.3065779,3.66569688 11.0431979,3.58864846 10.8457134,3.58864846 Z M13.5418048,3.7475357 C13.423085,3.88049447 13.3612658,4.02872892 13.3559093,4.25980718 C13.3559093,4.28372569 13.3548986,4.3076777 13.3548986,4.33146221 C13.3548986,4.5412349 13.3775713,4.74725567 13.4929559,4.88470335 C13.6906088,5.12140949 13.995999,5.06603513 14.2713049,4.99253763 C14.2713049,4.94898853 14.2865323,3.68807442 14.2865323,3.68807442 C14.051451,3.57900066 13.7297554,3.53702602 13.5418048,3.7475357 Z M1.00126872,4.03150937 L1.00126872,5.0382642 L1.11550788,5.0382642 C1.37966279,5.0382642 1.59405915,5.02955437 1.73730448,4.92155259 C1.8516784,4.83659834 1.91716968,4.68796189 1.91716968,4.51460295 C1.91716968,4.35253327 1.86158295,4.21783254 1.76368291,4.13599372 C1.66830281,4.06041927 1.52986556,4.04048048 1.35978982,4.03552794 L1.22647922,4.03398831 L1.01605816,4.03398831 C1.01605816,4.03398831 1.0046713,4.03238035 1.00126872,4.03150937 Z M19.0436115,4.03150937 L19.0436115,5.0382642 L19.1577833,5.0382642 C19.4223088,5.0382642 19.6365367,5.02955437 19.7802537,4.92155259 C19.8942907,4.83659834 19.9595125,4.68796189 19.9595125,4.51460295 C19.9595125,4.35253327 19.9047006,4.21783254 19.8056888,4.13599372 C19.7104435,4.06041927 19.5723997,4.04048048 19.4026485,4.03552794 L19.2695632,4.03398831 L19.0590074,4.03398831 C19.0590074,4.03398831 19.0474184,4.03238035 19.0436115,4.03150937 Z M30.8358154,3.62918263 C30.427135,3.62918263 30.1936707,3.89463118 30.1936707,4.35427524 C30.1936707,4.79629866 30.400925,5.03689072 30.7784095,5.03689072 C30.8464162,5.03689072 30.9021452,5.03306436 30.9655403,5.02543148 L31.0688754,5.01112975 L31.0688754,3.65135917 C30.9679097,3.63313554 30.9107059,3.62918263 30.8358154,3.62918263 Z M4.06197547,3.62918263 C3.65363194,3.62918263 3.41986445,3.89463118 3.41986445,4.35427524 C3.41986445,4.79629866 3.62664711,5.03689072 4.00470429,5.03689072 C4.0725538,5.03689072 4.12841005,5.03306436 4.19189746,5.02543148 L4.29530501,5.01112975 L4.29530501,3.65135917 C4.19403608,3.63313554 4.13659646,3.62918263 4.06197547,3.62918263 Z M24.6203424,3.62747416 C24.2201179,3.62747416 23.9919091,3.88987427 23.9919091,4.34419195 C23.9919091,4.78145847 24.1941437,5.01940408 24.564284,5.01940408 C24.6307411,5.01940408 24.6852797,5.01539905 24.7473147,5.00784558 L24.8484165,4.99391111 L24.8484165,3.64827723 C24.7494384,3.63112559 24.6935485,3.62747416 24.6203424,3.62747416 Z M16.3426015,3.56332298 C15.9450721,3.56332298 15.9292046,4.00668637 15.9231406,4.0446411 L15.9231406,4.0446411 L16.7585587,4.0446411 C16.7528316,3.99640209 16.7473403,3.56332298 16.3426015,3.56332298 Z M1.29226372,2.76835514 L1.00126872,2.7682503 L1.00126872,3.85630796 C1.00126872,3.85630796 1.12022433,3.65581458 1.12022433,3.65809253 C1.12022433,3.65809253 1.37754039,3.63112559 1.37925852,3.63112559 C1.74067337,3.59531482 1.83416016,3.4746168 1.83416016,3.17061054 C1.83416016,3.03862325 1.79150997,2.93028647 1.71476659,2.86476182 C1.63878682,2.79959449 1.53086994,2.77809538 1.39722471,2.77122181 L1.29226372,2.76835514 Z M19.334796,2.76835514 L19.0436115,2.7682503 L19.0436115,3.85630796 C19.0436115,3.85630796 19.1195491,3.7279922 19.1499241,3.6778322 L19.1622639,3.65809253 L19.4213992,3.63112559 C19.7825782,3.59531482 19.8765367,3.4746168 19.8765367,3.17061054 C19.8765367,3.03862325 19.8343244,2.93028647 19.7572778,2.86476182 C19.6813879,2.79959449 19.5732315,2.77809538 19.4396461,2.77122181 L19.334796,2.76835514 Z M31.2408237,2.27366646 L31.3862589,2.73743093 L30.3049789,2.96123984 L30.2212956,2.68493751 L31.1770169,2.29929343 L31.2408237,2.27366646 Z" id="Lettering" fill="#002C76"></path>
                            <g id="Emblem" stroke-width="1" fill="none" transform="translate(34.088630, 0.000000)">
                                <g id="Group-17" transform="translate(0.000000, 0.000000)">
                                    <mask id="mask-5" fill="white">
                                        <use xlink:href="#path-4"></use>
                                    </mask>
                                    <g id="Clip-16"></g>
                                    <path d="M4.15230349,0.00398585037 C1.93397304,0.0422432005 0.100210295,1.58136058 0.0194939001,3.6978812 C-0.060023397,5.81397938 1.60028132,7.59487095 3.72850816,7.67400882 C4.81146454,7.71526407 5.8074007,7.30707212 6.53542421,6.6173156 C7.23603977,5.95232586 7.20726143,4.78342925 6.65019498,5.31381989 C6.03728483,5.89652396 5.18078659,6.24499629 4.2461757,6.21130393 C2.46500195,6.14770066 1.0750766,4.71716875 1.14222606,3.01691399 C1.20389393,1.43913045 2.77676731,0.190298805 4.18587822,0.114737983 L4.22253635,0.0036111123 C4.1992396,0.0036111123 4.17594284,0.0036111123 4.15230349,0.00398585037 Z" id="Fill-15" fill="url(#linearGradient-6)" mask="url(#mask-5)"></path>
                                </g>
                                <path d="M4.46167066,0.115589661 C6.25175199,0.223139487 7.72527157,1.73984072 2.51639184,3.25422539 C3.84327893,3.5136804 4.82345552,4.13230482 4.82345552,4.13230482 C9.28307058,1.87764213 6.74646538,-0.00419025295 4.22219375,0.00355308611 L4.18587822,0.114703916 C4.27872263,0.10996859 4.37053925,0.10996859 4.46167066,0.115589661" id="Fill-18" fill="#FFCC00"></path>
                                <g id="Group-21" transform="translate(1.884296, -0.000000)">
                                    <mask id="mask-8" fill="white">
                                        <use xlink:href="#path-7"></use>
                                    </mask>
                                    <g id="Clip-20"></g>
                                    <path d="M2.33824021,0.0036111123 C2.31494346,0.0036111123 2.2916467,0.0036111123 2.26800735,0.00398585037 C1.44542644,0.0180214944 0.677661412,0.238980687 0.0315191354,0.617568338 L0.383368615,0.908228811 C0.943861066,0.444132746 1.64105064,0.150542502 2.30158208,0.114737983 C2.39442649,0.110002657 2.48624311,0.110002657 2.57737452,0.115623728 C3.45511392,0.168632131 4.25679628,0.559483937 4.23178653,1.12363507 L4.66997103,0.610175778 C4.08720963,0.226069257 3.2197482,0.0035770452 2.35262938,0.0035770452 C2.34783299,0.0035770452 2.3430366,0.0035770452 2.33824021,0.0036111123 Z" id="Fill-19" fill="url(#linearGradient-9)" mask="url(#mask-8)"></path>
                                </g>
                                <g id="Group-24" transform="translate(2.466715, 2.452831)">
                                    <mask id="mask-11" fill="white">
                                        <use xlink:href="#path-10"></use>
                                    </mask>
                                    <g id="Clip-23"></g>
                                    <path d="M0.0147317698,0.801428461 C1.19327336,0.947712577 3.67677567,2.27173031 3.903919,3.53271028 C3.9025486,3.51244036 3.82991755,3.01078191 3.82991755,3.01078191 C3.64971032,1.82051161 3.90152081,0.665637012 5.73408445,0.57130522 C4.85565985,0.151428247 4.07419085,0.00320230714 3.37563088,0.00313417294 C1.95966799,0.00306603875 0.881507994,0.611095589 0.0147317698,0.801428461 Z" id="Fill-22" fill="url(#linearGradient-12)" mask="url(#mask-11)"></path>
                                </g>
                                <g id="Group-27" transform="translate(4.351011, 3.372643)">
                                    <mask id="mask-14" fill="white">
                                        <use xlink:href="#path-13"></use>
                                    </mask>
                                    <g id="Clip-26"></g>
                                    <path d="M1.99427051,2.50327074 C2.01585427,2.56404644 2.12959724,3.03349104 1.86716617,3.52283083 C1.54238204,4.07366172 1.01614952,4.48839456 0.000685198596,4.75868291 C2.60272687,4.87740674 5.58025737,2.39260037 2.90147346,0.00190775744 C1.76986797,0.465765353 1.88532394,1.75077626 1.99427051,2.50327074 Z" id="Fill-25" fill="url(#linearGradient-15)" mask="url(#mask-14)"></path>
                                </g>
                            </g>
                        </g>
                    </g>
                </g>
            </g>
        </g>
    </g>
</svg>