<?xml version="1.0" encoding="UTF-8"?>
<svg width="150px" height="200px" viewBox="0 0 150 200" version="1.1" xmlns="http://www.w3.org/2000/svg" xmlns:xlink="http://www.w3.org/1999/xlink">
    <!-- Generator: Sketch 52.5 (67469) - http://www.bohemiancoding.com/sketch -->
    <title>logo-bancobogota-compact-white</title>
    <desc>Created with Sketch.</desc>
    <defs>
        <path d="M54.7575368,0.0527937162 C25.5038197,0.559523146 1.32149996,20.9455685 0.257071274,48.979483 C-0.791544591,77.0078024 21.1033378,100.596215 49.1688344,101.644419 C63.4500698,102.190856 76.5837463,96.7842382 86.1843871,87.6482179 C95.4235919,78.8402407 95.0440842,63.3578742 87.6978998,70.3830483 C79.6152898,78.1011286 68.3204184,82.7167434 55.9954547,82.2704785 C32.50664,81.4280352 14.1773226,62.4802351 15.0628406,39.9598797 C15.8760713,19.0616902 36.6179732,2.52056153 55.2002957,1.51973706 L55.6837162,0.0478302044 C55.3764957,0.0478302044 55.0692752,0.0478302044 54.7575368,0.0527937162 Z" id="path-1"></path>
        <linearGradient x1="28.6013088%" y1="44.3971956%" x2="87.1663943%" y2="57.3653944%" id="linearGradient-3">
            <stop stop-color="#E30513" offset="0%"></stop>
            <stop stop-color="#890F01" offset="100%"></stop>
        </linearGradient>
        <path d="M30.834999,0.0478302044 C30.5277785,0.0478302044 30.220558,0.0478302044 29.9088196,0.0527937162 C19.061225,0.238699794 8.93650229,3.16536683 0.415651269,8.17986742 L5.05558446,12.0297476 C12.4469483,5.88266392 21.6409737,1.99397805 30.3515785,1.51973706 C31.5759426,1.45701632 32.7867528,1.45701632 33.9885271,1.531469 C45.5635114,2.2335803 56.1355111,7.41052309 55.8057008,14.8828645 L61.5841571,8.08195087 C53.8991265,2.99435129 42.4596807,0.0473789761 31.0247529,0.0473789761 C30.9615016,0.0473789761 30.8982503,0.0473789761 30.834999,0.0478302044 Z" id="path-4"></path>
        <linearGradient x1="10.3257257%" y1="49.9969585%" x2="88.6542581%" y2="49.9969585%" id="linearGradient-6">
            <stop stop-color="#E30513" offset="0%"></stop>
            <stop stop-color="#FFCC00" offset="100%"></stop>
        </linearGradient>
        <path d="M0.194271789,10.6151468 C15.7360149,12.5527213 48.4866241,30.0897109 51.482024,46.7917475 C51.4639522,46.5232667 50.5061471,39.8786586 50.5061471,39.8786586 C48.1297062,24.1131915 51.4503984,8.81655061 75.6169053,7.56709933 C64.0328852,2.00570999 53.7274445,0.0424154643 44.5153473,0.0415130076 C25.8426659,0.0406105509 11.6246817,8.09413403 0.194271789,10.6151468 Z" id="path-7"></path>
        <linearGradient x1="50%" y1="-0.782768665%" x2="50%" y2="35.65796%" id="linearGradient-9">
            <stop stop-color="#E39A00" offset="0%"></stop>
            <stop stop-color="#FFCC00" offset="100%"></stop>
        </linearGradient>
        <path d="M26.2989787,33.1565294 C26.5836094,33.9615208 28.0835684,40.1794474 24.6228197,46.6608913 C20.3398045,53.9568024 13.4002355,59.4500563 0.00903589716,63.0301019 C34.3228553,64.6026327 73.5883464,31.690669 38.2625065,0.0252687873 C23.3397224,6.16919392 24.862271,23.189527 26.2989787,33.1565294 Z" id="path-10"></path>
        <linearGradient x1="23.063681%" y1="25.490131%" x2="50%" y2="50%" id="linearGradient-12">
            <stop stop-color="#E49B00" offset="0%"></stop>
            <stop stop-color="#FFCC00" offset="100%"></stop>
        </linearGradient>
    </defs>
    <g id="logo-bancobogota-compact-white" stroke="none" stroke-width="1" fill="none" fill-rule="evenodd">
        <path d="M31.114262,187.49728 C32.0820896,186.772239 32.63466,185.512206 32.63466,184.032935 C32.63466,182.654163 32.1679934,181.511542 31.3271973,180.818673 C30.3208955,180.013698 28.7470978,179.95068 26.7892206,179.95068 L25.0187396,179.95068 C25.0187396,179.95068 24.914262,179.932769 24.8890547,179.925141 L24.8890547,188.486335 L25.8538972,188.486335 C28.0873964,188.486335 29.9023217,188.409718 31.114262,187.49728 Z M24.8890547,169.187828 L24.8890547,178.435257 C24.8890547,178.435257 25.8946932,176.73476 25.8946932,176.755323 L28.0807629,176.521824 C31.1358209,176.217347 31.9281924,175.194129 31.9281924,172.611708 C31.9281924,171.486335 31.5739635,170.561957 30.9202322,170.008723 C29.9524046,169.177877 28.3829187,169.182852 26.3832504,169.187828 L24.8890547,169.187828 Z M33.8492537,178.059138 C36.7771144,178.990481 38.2908789,181.038574 38.2908789,184.402421 C38.2908789,187.293964 36.7966833,189.638905 34.2074627,190.839237 C32.4940299,191.625638 30.9145937,191.858806 27.141791,191.858806 L19.4572139,191.858806 L19.4572139,169.034925 C18.7587065,168.929121 16.4266998,168.590481 16.4266998,168.590481 L16.4266998,165.822222 L26.0814262,165.822222 C30.6442786,165.822222 32.1477612,165.982421 33.7537313,166.644544 C36.041791,167.565605 37.3456053,169.691973 37.3456053,172.458143 C37.3456053,175.302919 36.225539,177.076716 33.8492537,178.059138 Z M90.6898839,188.862587 C92.6381426,188.862587 94.6242123,188.101725 94.6242123,182.480166 C94.6242123,176.818143 92.4,176.161095 90.7313433,176.161095 C88.7794362,176.161095 86.8029851,176.920299 86.8029851,182.514328 C86.8029851,188.202886 89.0179104,188.862587 90.6898839,188.862587 Z M90.7313433,172.755456 C96.5661692,172.755456 100.043449,176.391609 100.043449,182.480166 C100.043449,188.489784 96.4739635,192.224776 90.7313433,192.224776 C84.8709784,192.224776 81.3774461,188.595257 81.3774461,182.514328 C81.3774461,176.496418 84.9598673,172.755456 90.7313433,172.755456 Z M112.436816,188.268491 L113.220896,190.754063 L112.713101,190.958375 C110.64743,191.77529 108.759536,192.183914 107.116086,192.183914 C105.329685,192.183914 104.11476,191.732836 103.327363,190.75738 C102.484245,189.776617 102.31874,188.520232 102.31874,186.552405 L102.31874,168.836318 L106.871642,168.455887 L107.516086,168.404809 L107.516086,173.352073 L112.662687,173.352073 L112.662687,176.533831 L107.516086,176.533831 C107.516086,177.56733 107.509784,186.489386 107.509784,186.649585 C107.509784,188.096352 107.529022,188.224046 107.636484,188.409784 C107.778773,188.609121 107.992371,188.825041 108.794693,188.825041 L112.436816,188.268491 Z M50.1131012,188.862587 C52.0580431,188.862587 54.0444444,188.101725 54.0444444,182.480166 C54.0444444,176.818143 51.8172471,176.161095 50.1452736,176.161095 C48.2102819,176.161095 46.2235489,176.920299 46.2235489,182.514328 C46.2235489,188.202886 48.4414594,188.862587 50.1131012,188.862587 Z M50.1452736,172.755456 C55.9893864,172.755456 59.46733,176.391609 59.46733,182.480166 C59.46733,188.489784 55.9011609,192.224776 50.1452736,192.224776 C44.2941957,192.224776 40.7950249,188.595257 40.7950249,182.514328 C40.7950249,176.496418 44.3804312,172.755456 50.1452736,172.755456 Z M73.9525705,188.108458 L73.9525705,176.665672 C73.118408,176.521725 72.652073,176.491211 72.0271973,176.491211 C68.6437811,176.491211 66.7140962,178.721393 66.7140962,182.585738 C66.7140962,186.302156 68.4268657,188.326368 71.5558872,188.326368 C72.3923715,188.326368 73.0112769,188.249751 73.9525705,188.108458 Z M74.0951907,174.261028 L74.0951907,173.478939 L79.26733,173.478939 L79.26733,192.357546 C79.26733,195.617579 78.4298507,197.315091 76.1741294,198.522056 C74.6547264,199.34262 72.4935323,199.764842 69.99801,199.764842 C68.0311774,199.764842 66.4351575,199.516086 62.5641791,198.665008 L62.5641791,195.549585 C64.4643449,196.01592 66.9300166,196.295191 68.7575456,196.295191 C72.7850746,196.295191 73.9525705,195.369154 73.9525705,192.148259 L73.9525705,190.657048 C71.1555556,191.795688 69.99801,192.112438 68.7860697,192.112438 C64.1373134,192.112438 61.2278607,188.643118 61.2278607,183.111774 C61.2278607,177.345937 64.8958541,173.232836 70.0636816,173.232836 C71.4865672,173.232836 72.8965174,173.583416 74.0951907,174.261028 Z M126.541294,188.253167 L126.541294,176.693964 C125.687231,176.539071 125.19602,176.508226 124.567496,176.508226 C121.112438,176.508226 119.141294,178.763947 119.141294,182.66743 C119.141294,186.428292 120.889221,188.477711 124.084577,188.477711 C124.944942,188.477711 125.572471,188.403085 126.541294,188.253167 Z M131.589386,173.597114 L131.589386,188.176551 L133.682919,188.176551 L133.682919,191.254494 L126.385406,191.991476 L126.385406,190.280697 C124.031177,191.625638 122.508126,192.160299 121.328027,192.160299 C116.765174,192.160299 113.92869,188.702587 113.92869,183.195456 C113.92869,177.444544 117.513765,173.352007 122.587396,173.352007 C123.970813,173.352007 125.35058,173.704577 126.52471,174.371907 L126.52471,173.597114 L131.589386,173.597114 Z M129.221559,168.925871 L120.080597,170.829022 L119.376119,168.481426 L127.454063,165.206302 L128,164.985075 L129.221559,168.925871 Z M82.2500829,151.500166 L82.8212272,151.33665 L83.5953566,153.954229 L83.1167496,154.164511 C80.1207297,155.458375 78.106136,155.953566 75.9104478,155.953566 C70.8703151,155.953566 67.4912106,152.111443 67.4912106,146.383748 C67.4912106,140.3801 70.9973466,136.488226 76.4179104,136.488226 C78.9824212,136.488226 81.4159204,137.399005 82.3379768,137.789055 L82.6978441,137.945605 L82.6437811,141.440796 C82.6437811,141.440796 80.0358209,140.395357 79.9817579,140.369818 C79.971476,140.369818 78.9946932,140.002322 77.4689884,140.002322 C74.4484245,140.002322 72.9187396,142.140299 72.9187396,146.358872 C72.9187396,149.07927 73.6898839,152.329353 77.3956882,152.329353 C78.7349917,152.329353 80.3718076,152.050746 82.2500829,151.500166 Z M16.6839138,151.225871 C17.6543947,150.501493 18.2036484,149.240796 18.2036484,147.764179 C18.2036484,146.383416 17.7306799,145.242123 16.9021559,144.547264 C15.8998342,143.743947 14.3230514,143.67927 12.3681592,143.67927 L10.5883914,143.67927 C10.5883914,143.67927 10.4935323,143.660365 10.4587065,143.658706 L10.4587065,152.214925 L11.4258706,152.214925 C13.6630182,152.214925 15.4713101,152.143615 16.6839138,151.225871 Z M10.4587065,132.91675 L10.4587065,142.169154 C10.4587065,142.169154 11.4640133,140.46335 11.4640133,140.483914 C11.4640133,140.483914 13.640796,140.250415 13.6570481,140.250415 C16.7121061,139.950912 17.505141,138.926036 17.505141,136.341957 C17.505141,135.214925 17.1439469,134.292206 16.4965174,133.737313 C15.5253731,132.908126 13.961194,132.911443 11.9562189,132.91675 L10.4587065,132.91675 Z M19.4222222,141.793035 C22.3535655,142.719071 23.866335,144.767164 23.866335,148.13267 C23.866335,151.023217 22.372471,153.372471 19.7771144,154.569486 C18.0676617,155.355887 16.480597,155.589055 12.7167496,155.589055 L5.03615257,155.589055 L5.03615257,132.763516 C4.33797678,132.663682 2,132.32073 2,132.32073 L2,129.556219 L11.6610282,129.556219 C16.227529,129.556219 17.7270315,129.712769 19.3233831,130.373134 C21.6175788,131.301161 22.9243781,133.420564 22.9243781,136.188723 C22.9243781,139.031509 21.7946932,140.805638 19.4222222,141.793035 Z M59.7970149,136.488226 C61.8278607,136.488226 63.3635158,137.140962 64.3499171,138.422222 C65.2447761,139.579768 65.371476,140.511111 65.371476,143.343947 L65.371476,155.589055 L60.1774461,155.589055 L60.1837479,143.624544 C60.1970149,142.485904 60.2036484,141.508789 59.7144279,141.005638 C59.3834163,140.68126 58.8325041,140.526368 58.0076285,140.526368 C56.3887231,140.526368 54.7333333,141.031841 54.025539,141.276285 C54.025539,142.051741 53.9807629,155.589055 53.9807629,155.589055 L48.8444444,155.589055 L48.8444444,140.264345 L45.9631841,140.264345 L45.9631841,137.521725 L53.7936982,136.527363 C53.7936982,136.527363 53.8666667,137.576119 53.9008292,138.003317 C56.1953566,137.048425 58.2202322,136.488226 59.7970149,136.488226 Z M93.6467662,152.594693 C95.5883914,152.594693 97.5721393,151.829519 97.5721393,146.210614 C97.5721393,140.546932 95.3542289,139.892206 93.6855721,139.892206 C91.746932,139.892206 89.7512438,140.650746 89.7512438,146.244776 C89.7512438,151.931675 91.9751244,152.594693 93.6467662,152.594693 Z M93.6855721,136.488226 C99.5200663,136.488226 103.000663,140.120398 103.000663,146.210614 C103.000663,152.220232 99.4281924,155.953566 93.6855721,155.953566 C87.8185738,155.953566 84.3286899,152.325705 84.3286899,146.244776 C84.3286899,140.226866 87.9137645,136.488226 93.6855721,136.488226 Z M38.3074627,151.983748 L38.3074627,140.425207 C37.4490879,140.267993 36.9681592,140.238806 36.3432836,140.238806 C32.8814925,140.238806 30.9076949,142.495522 30.9076949,146.401658 C30.9076949,150.159536 32.659602,152.206633 35.8547264,152.206633 C36.7114428,152.206633 37.3426202,152.136982 38.3074627,151.983748 Z M43.3519071,137.326036 L43.3519071,151.908126 L45.4461028,151.908126 L45.4461028,154.988391 L38.2560531,155.711774 L38.1485904,155.720398 L38.1485904,154.011277 C35.8036484,155.356219 34.274859,155.894196 33.0901161,155.894196 C28.5315755,155.894196 25.6921061,152.436484 25.6921061,146.925705 C25.6921061,141.173466 29.2798342,137.080929 34.3471642,137.080929 C35.7306799,137.080929 37.1170813,137.433167 38.2912106,138.100498 L38.2912106,137.326036 L43.3519071,137.326036 Z M122.638143,151.826866 C122.638143,151.459038 122.768491,140.739303 122.768491,140.739303 C120.785075,139.811277 118.068988,139.45539 116.472968,141.244776 C115.470647,142.375124 114.941294,143.633167 114.905473,145.597015 C114.905473,145.805638 114.890216,146.00796 114.890216,146.210614 C114.890216,147.992371 115.086899,149.744942 116.064345,150.912769 C117.72869,152.928358 120.315755,152.4534 122.638143,151.826866 Z M127.8199,128.337313 C127.8199,128.337313 127.60995,152.012604 127.606965,152.478939 L129.814925,152.478939 L129.814925,154.78408 L122.927032,155.694859 C122.927032,155.694859 122.878939,154.539635 122.866335,154.171808 C120.972471,155.071642 117.58408,156.016584 115.025871,155.173798 C111.545937,154.034826 109.359867,150.558541 109.457711,146.329685 C109.562521,141.656716 111.587065,138.422222 115.162852,137.216915 C117.764511,136.345274 120.594693,136.93267 122.628856,137.618574 C122.628856,137.090216 122.635158,132.022886 122.635158,131.609287 L120.116086,131.609287 L120.116086,129.307463 L126.943947,128.434163 L127.559204,128.362852 L127.8199,128.337313 Z M136.60199,143.769486 L143.661028,143.769486 C143.617579,143.362521 143.568823,139.68126 140.1466,139.68126 C136.79204,139.68126 136.653068,143.447761 136.60199,143.769486 Z M140.133665,136.476617 C140.472968,136.493532 148.113433,136.294196 148.113433,145.033499 C148.113433,145.461692 148.087894,145.895854 148.049751,146.338308 L148.036816,146.558209 L146.529685,146.558209 L136.474959,146.358872 C136.481592,147.885904 136.633167,149.804643 137.728027,151.077944 C139.75257,153.435821 142.919403,152.177778 145.374793,151.500166 L147.07927,150.963847 L147.93864,153.599005 L147.773466,153.684245 C144.740299,155.338972 139.952239,156.474627 136.681592,155.430846 C132.978441,154.256385 130.652405,150.672637 130.760862,146.316418 C130.868325,141.499502 133.023217,138.170481 136.824544,136.926036 C137.877944,136.58806 138.949917,136.439138 140.133665,136.476617 Z" id="Lettering" fill="#FFFFFF"></path>
        <g id="Emblem" transform="translate(20.000000, 0.000000)">
            <g id="Group-17" transform="translate(0.000000, 0.000000)">
                <mask id="mask-2" fill="white">
                    <use xlink:href="#path-1"></use>
                </mask>
                <g id="Clip-16"></g>
                <path d="M54.7575368,0.0527937162 C25.5038197,0.559523146 1.32149996,20.9455685 0.257071274,48.979483 C-0.791544591,77.0078024 21.1033378,100.596215 49.1688344,101.644419 C63.4500698,102.190856 76.5837463,96.7842382 86.1843871,87.6482179 C95.4235919,78.8402407 95.0440842,63.3578742 87.6978998,70.3830483 C79.6152898,78.1011286 68.3204184,82.7167434 55.9954547,82.2704785 C32.50664,81.4280352 14.1773226,62.4802351 15.0628406,39.9598797 C15.8760713,19.0616902 36.6179732,2.52056153 55.2002957,1.51973706 L55.6837162,0.0478302044 C55.3764957,0.0478302044 55.0692752,0.0478302044 54.7575368,0.0527937162 Z" id="Fill-15" fill="url(#linearGradient-3)" mask="url(#mask-2)"></path>
            </g>
            <path d="M58.8372443,1.53101777 C82.4435256,2.95554565 101.875222,23.0446827 33.1843323,43.1031363 C50.6823471,46.5396914 63.608198,54.7335469 63.608198,54.7335469 C122.418335,24.8699014 88.9674434,-0.0555010863 55.6791983,0.0473789761 L55.2002957,1.51928583 C56.4246598,1.45656509 57.63547,1.45656509 58.8372443,1.53101777" id="Fill-18" fill="#FFCC00"></path>
            <g id="Group-21" transform="translate(24.848717, -0.000000)">
                <mask id="mask-5" fill="white">
                    <use xlink:href="#path-4"></use>
                </mask>
                <g id="Clip-20"></g>
                <path d="M30.834999,0.0478302044 C30.5277785,0.0478302044 30.220558,0.0478302044 29.9088196,0.0527937162 C19.061225,0.238699794 8.93650229,3.16536683 0.415651269,8.17986742 L5.05558446,12.0297476 C12.4469483,5.88266392 21.6409737,1.99397805 30.3515785,1.51973706 C31.5759426,1.45701632 32.7867528,1.45701632 33.9885271,1.531469 C45.5635114,2.2335803 56.1355111,7.41052309 55.8057008,14.8828645 L61.5841571,8.08195087 C53.8991265,2.99435129 42.4596807,0.0473789761 31.0247529,0.0473789761 C30.9615016,0.0473789761 30.8982503,0.0473789761 30.834999,0.0478302044 Z" id="Fill-19" fill="url(#linearGradient-6)" mask="url(#mask-5)"></path>
            </g>
            <g id="Group-24" transform="translate(32.529230, 32.488441)">
                <mask id="mask-8" fill="white">
                    <use xlink:href="#path-7"></use>
                </mask>
                <g id="Clip-23"></g>
                <path d="M0.194271789,10.6151468 C15.7360149,12.5527213 48.4866241,30.0897109 51.482024,46.7917475 C51.4639522,46.5232667 50.5061471,39.8786586 50.5061471,39.8786586 C48.1297062,24.1131915 51.4503984,8.81655061 75.6169053,7.56709933 C64.0328852,2.00570999 53.7274445,0.0424154643 44.5153473,0.0415130076 C25.8426659,0.0406105509 11.6246817,8.09413403 0.194271789,10.6151468 Z" id="Fill-22" fill="url(#linearGradient-9)" mask="url(#mask-8)"></path>
            </g>
            <g id="Group-27" transform="translate(57.377947, 44.671606)">
                <mask id="mask-11" fill="white">
                    <use xlink:href="#path-10"></use>
                </mask>
                <g id="Clip-26"></g>
                <path d="M26.2989787,33.1565294 C26.5836094,33.9615208 28.0835684,40.1794474 24.6228197,46.6608913 C20.3398045,53.9568024 13.4002355,59.4500563 0.00903589716,63.0301019 C34.3228553,64.6026327 73.5883464,31.690669 38.2625065,0.0252687873 C23.3397224,6.16919392 24.862271,23.189527 26.2989787,33.1565294 Z" id="Fill-25" fill="url(#linearGradient-12)" mask="url(#mask-11)"></path>
            </g>
        </g>
    </g>
</svg>