<?xml version="1.0" encoding="UTF-8"?>
<svg width="68px" height="23px" viewBox="0 0 68 23" version="1.1" xmlns="http://www.w3.org/2000/svg" xmlns:xlink="http://www.w3.org/1999/xlink">
    <!-- Generator: Sketch 58 (84663) - https://sketch.com -->
    <title>Brand</title>
    <desc>Created with Sketch.</desc>
    <defs>
        <linearGradient x1="0.0248048%" y1="49.9782014%" x2="100.025605%" y2="49.9782014%" id="linearGradient-1">
            <stop stop-color="#241F5C" offset="0%"></stop>
            <stop stop-color="#034EA1" offset="100%"></stop>
        </linearGradient>
    </defs>
    <g id="Private-CEO" stroke="none" stroke-width="1" fill="none" fill-rule="evenodd">
        <g id="5-Products-CEO" transform="translate(-183.000000, -394.000000)" fill="url(#linearGradient-1)">
            <path d="M218.166608,401.353026 C218.13016,404.557228 220.894768,406.342499 222.977472,407.407622 C225.117024,408.498384 225.834832,409.197166 225.826944,410.171701 C225.810896,411.664982 224.1196,412.323313 222.53792,412.348952 C219.776032,412.393961 218.172048,411.566987 216.894464,410.94398 L215.900032,415.818365 C217.182784,416.435675 219.552992,416.973507 222.009696,417 C227.782624,417 231.557984,414.014863 231.57648,409.388313 C231.600688,403.518597 223.825024,403.194132 223.878064,400.571062 C223.895744,399.77343 224.620624,398.925377 226.20856,398.708307 C226.995184,398.600627 229.166832,398.517445 231.625712,399.702498 L232.591312,394.98593 C231.268304,394.483422 229.568032,394 227.45024,394 C222.01976,394 218.1968,397.023879 218.166608,401.353026 Z M241.874944,394.407077 C240.81904,394.407077 239.930144,395.048886 239.5352,396.038519 L231.290336,416.65303 L237.059728,416.65303 L238.205664,413.328899 L245.254272,413.328899 L245.917952,416.65303 L251,416.65303 L246.563952,394.407077 L241.874944,394.407077 Z M242.679792,400.417233 L244.344432,408.770148 L239.787072,408.770148 L242.679792,400.417233 Z M211.176208,394.407077 L206.630816,416.65303 L212.125488,416.65303 L216.669248,394.407077 L211.176208,394.407077 Z M203.045856,394.407077 L197.327056,409.547839 L195.013968,396.674346 C194.743056,395.236899 193.67056,394.407077 192.479744,394.407077 L183.129744,394.407077 L183,395.051735 C184.91896,395.489293 187.099856,396.193773 188.42096,396.944971 C189.229344,397.404749 189.460544,397.806128 189.726288,398.899169 L194.10712,416.65303 L199.915136,416.65303 L208.817424,394.407077 L203.045856,394.407077 Z" id="Brand"></path>
        </g>
    </g>
</svg>