<?xml version="1.0" encoding="utf-8"?> <!-- Generator: IcoMoon.io --> <!DOCTYPE svg PUBLIC "-//W3C//DTD SVG 1.1//EN" "http://www.w3.org/Graphics/SVG/1.1/DTD/svg11.dtd"> <svg fill="#333333" xmlns:xlink="http://www.w3.org/1999/xlink" xmlns="http://www.w3.org/2000/svg" width="32" height="32" viewBox="0 0 32 32"><g><path d="M 8.804,8.625q 0.286,0 0.491-0.205t 0.205-0.491t-0.205-0.491t-0.491-0.205t-0.482,0.205t-0.196,0.491t 0.196,0.491t 0.482,0.205zM 16.339,8.625q 0.286,0 0.482-0.205t 0.196-0.491t-0.196-0.491t-0.482-0.205t-0.491,0.205t-0.205,0.491t 0.205,0.491t 0.491,0.205zM 1.839,11.911q 0.75,0 1.286,0.536t 0.536,1.286l0,7.679 q0,0.768 -0.527,1.304t-1.295,0.536 t-1.304-0.536t-0.536-1.304l0-7.679 q0-0.75 0.536-1.286t 1.304-0.536zM 20.768,12.25l0,11.893 q0,0.821 -0.571,1.393t-1.375,0.571l-1.339,0 l0,4.054 q0,0.768 -0.536,1.304t-1.304,0.536t-1.304-0.536t-0.536-1.304l0-4.054 l-2.464,0 l0,4.054 q0,0.768 -0.536,1.304t-1.304,0.536q-0.75,0 -1.286-0.536t-0.536-1.304l-0.018-4.054l-1.321,0 q-0.821,0 -1.393-0.571t-0.571-1.393l0-11.893 l 16.393,0 zM 16.625,5.018q 1.911,0.982 3.054,2.741t 1.143,3.848 l-16.518,0 q0-2.089 1.143-3.848t 3.071-2.741l-1.268-2.339q-0.125-0.232 0.089-0.357q 0.232-0.107 0.357,0.107l 1.286,2.357q 1.696-0.75 3.589-0.75t 3.589,0.75l 1.286-2.357q 0.125-0.214 0.357-0.107q 0.214,0.125 0.089,0.357zM 25.143,13.732l0,7.679 q0,0.768 -0.536,1.304t-1.304,0.536q-0.75,0 -1.286-0.536t-0.536-1.304l0-7.679 q0-0.768 0.536-1.295t 1.286-0.527q 0.768,0 1.304,0.527t 0.536,1.295z"></path></g></svg>