<?xml version="1.0" encoding="utf-8"?> <!-- Generator: IcoMoon.io --> <!DOCTYPE svg PUBLIC "-//W3C//DTD SVG 1.1//EN" "http://www.w3.org/Graphics/SVG/1.1/DTD/svg11.dtd"> <svg fill="#333333" xmlns:xlink="http://www.w3.org/1999/xlink" xmlns="http://www.w3.org/2000/svg" width="32" height="32" viewBox="0 0 32 32"><g><path d="M 24.875,21.696q-0.696,2.232 -2.196,4.464q-2.304,3.5 -4.589,3.5q-0.875,0 -2.5-0.571q-1.536-0.571 -2.696-0.571q-1.089,0 -2.536,0.589q-1.446,0.607 -2.357,0.607q-2.714,0 -5.375-4.625q-2.625-4.661 -2.625-8.982q0-4.071 2.018-6.679q 2-2.571 5.071-2.571q 1.286,0 3.161,0.536q 1.857,0.536 2.464,0.536q 0.804,0 2.554-0.607q 1.821-0.607 3.089-0.607q 2.125,0 3.804,1.161 q 0.929,0.643 1.857,1.786q-1.411,1.196 -2.036,2.107q-1.161,1.679 -1.161,3.696q0,2.214 1.232,3.982t 2.821,2.25zM 18.161,0.75q0,1.089 -0.518,2.429q-0.536,1.339 -1.661,2.464q-0.964,0.964 -1.929,1.286q-0.661,0.196 -1.857,0.304q 0.054-2.661 1.393-4.589q 1.321-1.911 4.464-2.643q 0.018,0.054 0.045,0.196t 0.045,0.196q0,0.071 0.009,0.179t 0.009,0.179z"></path></g></svg>