<?xml version="1.0" encoding="utf-8"?> <!-- Generator: IcoMoon.io --> <!DOCTYPE svg PUBLIC "-//W3C//DTD SVG 1.1//EN" "http://www.w3.org/Graphics/SVG/1.1/DTD/svg11.dtd"> <svg fill="#333333" xmlns:xlink="http://www.w3.org/1999/xlink" xmlns="http://www.w3.org/2000/svg" width="32" height="32" viewBox="0 0 32 32"><g><path d="M 28.768,14.857q0,0.946 -0.661,1.607l-11.625,11.643q-0.696,0.661 -1.625,0.661q-0.946,0 -1.607-0.661l-11.625-11.643q-0.679-0.643 -0.679-1.607q0-0.946 0.679-1.625l 1.321-1.339q 0.696-0.661 1.625-0.661q 0.946,0 1.607,0.661l 5.25,5.25l0-12.571 q0-0.929 0.679-1.607t 1.607-0.679l 2.286,0 q 0.929,0 1.607,0.679t 0.679,1.607l0,12.571 l 5.25-5.25q 0.661-0.661 1.607-0.661q 0.929,0 1.625,0.661l 1.339,1.339q 0.661,0.696 0.661,1.625z"></path></g></svg>