<?xml version="1.0" encoding="utf-8"?> <!-- Generator: IcoMoon.io --> <!DOCTYPE svg PUBLIC "-//W3C//DTD SVG 1.1//EN" "http://www.w3.org/Graphics/SVG/1.1/DTD/svg11.dtd"> <svg fill="#333333" xmlns:xlink="http://www.w3.org/1999/xlink" xmlns="http://www.w3.org/2000/svg" width="32" height="32" viewBox="0 0 32 32"><g><path d="M 27.429,16l0,2.286 q0,0.946 -0.58,1.616t-1.509,0.67l-12.571,0 l 5.232,5.25q 0.679,0.643 0.679,1.607t-0.679,1.607l-1.339,1.357q-0.661,0.661 -1.607,0.661q-0.929,0 -1.625-0.661l-11.625-11.643q-0.661-0.661 -0.661-1.607q0-0.929 0.661-1.625l 11.625-11.607q 0.679-0.679 1.625-0.679q 0.929,0 1.607,0.679l 1.339,1.321q 0.679,0.679 0.679,1.625t-0.679,1.625l-5.232,5.232l 12.571,0 q 0.929,0 1.509,0.67 t 0.58,1.616z"></path></g></svg>