<?xml version="1.0" encoding="utf-8"?> <!-- Generator: IcoMoon.io --> <!DOCTYPE svg PUBLIC "-//W3C//DTD SVG 1.1//EN" "http://www.w3.org/Graphics/SVG/1.1/DTD/svg11.dtd"> <svg fill="#333333" xmlns:xlink="http://www.w3.org/1999/xlink" xmlns="http://www.w3.org/2000/svg" width="32" height="32" viewBox="0 0 32 32"><g><path d="M 26.464,18.75q 0.821,0.464 1.063,1.384t-0.223,1.741l-1.143,1.964q-0.464,0.821 -1.384,1.063t-1.741-0.223l-4.75-2.732l0,5.482 q0,0.929 -0.679,1.607t-1.607,0.679l-2.286,0 q-0.929,0 -1.607-0.679t-0.679-1.607l0-5.482 l-4.75,2.732q-0.821,0.464 -1.741,0.223t-1.384-1.063l-1.143-1.964q-0.464-0.821 -0.223-1.741t 1.063-1.384l 4.75-2.75l-4.75-2.75 q-0.821-0.464 -1.063-1.384t 0.223-1.741l 1.143-1.964q 0.464-0.821 1.384-1.063t 1.741,0.223l 4.75,2.732l0-5.482 q0-0.929 0.679-1.607t 1.607-0.679l 2.286,0 q 0.929,0 1.607,0.679t 0.679,1.607l0,5.482 l 4.75-2.732q 0.821-0.464 1.741-0.223t 1.384,1.063l 1.143,1.964q 0.464,0.821 0.223,1.741t-1.063,1.384l-4.75,2.75z"></path></g></svg>