<?xml version="1.0" encoding="utf-8"?> <!-- Generator: IcoMoon.io --> <!DOCTYPE svg PUBLIC "-//W3C//DTD SVG 1.1//EN" "http://www.w3.org/Graphics/SVG/1.1/DTD/svg11.dtd"> <svg fill="#333333" xmlns:xlink="http://www.w3.org/1999/xlink" xmlns="http://www.w3.org/2000/svg" width="32" height="32" viewBox="0 0 32 32"><g><path d="M0,29.333c0,1.473, 1.193,2.667, 2.667,2.667l 26.667,0 c 1.473,0, 2.667-1.193, 2.667-2.667L 32,12.667 c0-1.473-1.193-2.667-2.667-2.667l-2.667,0 l0-3 C 26.667,3.133, 23.533,0, 19.667,0c-1.58,0-3.033,0.52-4.2,1.4C 14.52,0.933, 13.46,0.667, 12.333,0.667C 8.467,0.667, 5.333,3.8, 5.333,7.667L 5.34,10L 2.667,10 c-1.473,0-2.667,1.193-2.667,2.667L0,29.333 z M 23.333,10L 16.007,10 L 16,7C 16,4.973, 17.64,3.333, 19.667,3.333S 23.333,4.973, 23.333,7L 23.333,10 z M 12.673,10l-4,0 L 8.667,7.667C 8.667,5.64, 10.307,4, 12.333,4 c 0.327,0, 0.647,0.041, 0.947,0.126C 12.887,5, 12.667,5.973, 12.667,7L 12.673,10z M 12.667,14.333c0-0.92, 0.747-1.667, 1.667-1.667s 1.667,0.747, 1.667,1.667 S 15.253,16, 14.333,16S 12.667,15.253, 12.667,14.333z M 23.333,14.333c0-0.92, 0.747-1.667, 1.667-1.667s 1.667,0.747, 1.667,1.667S 25.92,16, 25,16S 23.333,15.253, 23.333,14.333z M 6,14.667 l0,12.667 c0,0.733-0.6,1.333-1.333,1.333s-1.333-0.6-1.333-1.333L 3.333,14.667 c0-0.733, 0.6-1.333, 1.333-1.333S 6,13.933, 6,14.667z"></path></g></svg>