<?xml version="1.0" encoding="utf-8"?> <!-- Generator: IcoMoon.io --> <!DOCTYPE svg PUBLIC "-//W3C//DTD SVG 1.1//EN" "http://www.w3.org/Graphics/SVG/1.1/DTD/svg11.dtd"> <svg fill="#333333" xmlns:xlink="http://www.w3.org/1999/xlink" xmlns="http://www.w3.org/2000/svg" width="32" height="32" viewBox="0 0 32 32"><g><path d="M 23.429,15.946q0-2.875 -1.554-5.268l-13.464,13.446q 2.446,1.589 5.304,1.589q 1.982,0 3.777-0.777t 3.098-2.080t 2.071-3.116t 0.768-3.795zM 5.589,21.286l 13.482-13.464q-2.411-1.625 -5.357-1.625q-2.643,0 -4.875,1.304t-3.536,3.554t-1.304,4.893q0,2.893 1.589,5.339zM 27.429,15.946q0,2.804 -1.089,5.357t-2.92,4.393t-4.375,2.929t-5.33,1.089t-5.33-1.089 t-4.375-2.929t-2.92-4.393t-1.089-5.357t 1.089-5.348t 2.92-4.384t 4.375-2.929t 5.33-1.089t 5.33,1.089t 4.375,2.929t 2.92,4.384t 1.089,5.348z"></path></g></svg>