<?xml version="1.0" encoding="utf-8"?> <!-- Generator: IcoMoon.io --> <!DOCTYPE svg PUBLIC "-//W3C//DTD SVG 1.1//EN" "http://www.w3.org/Graphics/SVG/1.1/DTD/svg11.dtd"> <svg fill="#333333" xmlns:xlink="http://www.w3.org/1999/xlink" xmlns="http://www.w3.org/2000/svg" width="32" height="32" viewBox="0 0 32 32"><g><path d="M 9,12L 3,12 c-0.55,0-1,0.45-1,1l0,18 c0,0.55, 0.45,1, 1,1l 6,0 c 0.55,0, 1-0.45, 1-1L 10,13 C 10,12.45, 9.55,12, 9,12z M 9,30 L 3,30 L 3,22 l 6,0 L 9,30 zM 19,8l-6,0 c-0.55,0-1,0.45-1,1l0,22 c0,0.55, 0.45,1, 1,1l 6,0 c 0.55,0, 1-0.45, 1-1L 20,9 C 20,8.45, 19.55,8, 19,8z M 19,30l-6,0 L 13,20 l 6,0 L 19,30 zM 29,4l-6,0 c-0.55,0-1,0.45-1,1l0,26 c0,0.55, 0.45,1, 1,1l 6,0 c 0.55,0, 1-0.45, 1-1L 30,5 C 30,4.45, 29.55,4, 29,4z M 29,30l-6,0 L 23,18 l 6,0 L 29,30 z"></path></g></svg>