<?xml version="1.0" encoding="utf-8"?> <!-- Generator: IcoMoon.io --> <!DOCTYPE svg PUBLIC "-//W3C//DTD SVG 1.1//EN" "http://www.w3.org/Graphics/SVG/1.1/DTD/svg11.dtd"> <svg fill="#333333" xmlns:xlink="http://www.w3.org/1999/xlink" xmlns="http://www.w3.org/2000/svg" width="32" height="32" viewBox="0 0 32 32"><g><path d="M 15.143,30.286q0-0.286 -0.286-0.286q-1.054,0 -1.813-0.759t-0.759-1.813q0-0.286 -0.286-0.286t-0.286,0.286q0,1.304 0.92,2.223t 2.223,0.92q 0.286,0 0.286-0.286zM 29.714,25.143q0,0.929 -0.679,1.607t-1.607,0.679l-8,0 q0,1.893 -1.339,3.232t-3.232,1.339t-3.232-1.339t-1.339-3.232l-8,0 q-0.929,0 -1.607-0.679t-0.679-1.607q 3.393-2.875 5.125-7.098t 1.732-8.902 q0-2.946 1.714-4.679t 4.714-2.089q-0.143-0.321 -0.143-0.661q0-0.714 0.5-1.214t 1.214-0.5t 1.214,0.5t 0.5,1.214q0,0.339 -0.143,0.661q 3,0.357 4.714,2.089t 1.714,4.679q0,4.679 1.732,8.902t 5.125,7.098z"></path></g></svg>