<?xml version="1.0" encoding="utf-8"?> <!-- Generator: IcoMoon.io --> <!DOCTYPE svg PUBLIC "-//W3C//DTD SVG 1.1//EN" "http://www.w3.org/Graphics/SVG/1.1/DTD/svg11.dtd"> <svg fill="#333333" xmlns:xlink="http://www.w3.org/1999/xlink" xmlns="http://www.w3.org/2000/svg" width="32" height="32" viewBox="0 0 32 32"><g><path d="M 15.667,21.313c-0.747-0.947-1.4-1.413-3.020-1.573c-0.293-0.053-0.507-0.307-0.507-0.607 c0-0.22, 0.72-0.88, 0.713-0.887C 13.6,17.493, 14,16.273, 14,15.333c0-1.459-1.293-2.667-3-2.667c-1.74,0-3,1.207-3,2.667 c0,0.947, 0.393,2.173, 1.14,2.927c0,0, 0.72,0.653, 0.72,0.873c0,0.313-0.24,0.58-0.56,0.62c-1.587,0.16-2.227,0.627-2.967,1.56 c-0.207,0.273-0.327,0.813-0.333,1.1l0,1.253 c0,0.553, 0.459,1, 1.027,1l 7.947,0 c 0.567,0, 1.027-0.447, 1.027-1l0-1.253 C 15.993,22.126, 15.879,21.587, 15.667,21.313z M 23.667,14l-3.333,0 c-0.92,0-1.667,0.747-1.667,1.667s 0.747,1.667, 1.667,1.667l 3.333,0 c 0.92,0, 1.667-0.747, 1.667-1.667 S 24.587,14, 23.667,14z M 23.667,20l-3.333,0 c-0.92,0-1.667,0.747-1.667,1.667s 0.747,1.667, 1.667,1.667l 3.333,0 c 0.92,0, 1.667-0.747, 1.667-1.667S 24.587,20, 23.667,20z M0,28 c0,1.473, 1.193,2.667, 2.667,2.667l 26.667,0 c 1.473,0, 2.667-1.193, 2.667-2.667L 32,6.667 c0-1.473-1.193-2.667-2.667-2.667L 21.333,4 L 21.333,2.8 C 21.333,1.987, 20.68,1.333, 19.867,1.333L 12.133,1.333 C 11.32,1.333, 10.667,1.987, 10.667,2.8L 10.667,4 L 2.667,4 c-1.473,0-2.667,1.193-2.667,2.667L0,28 z M 4.8,7.333L 10.667,7.333 l0,1.2 c0,0.813, 0.653,1.467, 1.467,1.467l 7.733,0 c 0.813,0, 1.467-0.653, 1.467-1.467L 21.333,7.333 l 5.867,0 c 0.813,0, 1.467,0.653, 1.467,1.467l0,17.067 c0,0.813-0.653,1.467-1.467,1.467L 4.8,27.333 C 3.987,27.333, 3.333,26.68, 3.333,25.867L 3.333,8.8 C 3.333,7.987, 3.987,7.333, 4.8,7.333z"></path></g></svg>