<?xml version="1.0" encoding="utf-8"?> <!-- Generator: IcoMoon.io --> <!DOCTYPE svg PUBLIC "-//W3C//DTD SVG 1.1//EN" "http://www.w3.org/Graphics/SVG/1.1/DTD/svg11.dtd"> <svg fill="#333333" xmlns:xlink="http://www.w3.org/1999/xlink" xmlns="http://www.w3.org/2000/svg" width="34.28515625" height="32" viewBox="0 0 34.28515625 32"><g><path d="M 17.143,12q 2.125,0 3.634,1.509t 1.509,3.634t-1.509,3.634t-3.634,1.509t-3.634-1.509t-1.509-3.634t 1.509-3.634t 3.634-1.509zM 29.714,4.571q 1.893,0 3.232,1.339t 1.339,3.232l0,16 q0,1.893 -1.339,3.232t-3.232,1.339l-25.143,0 q-1.893,0 -3.232-1.339t-1.339-3.232l0-16 q0-1.893 1.339-3.232t 3.232-1.339l 4,0 l 0.911-2.429 q 0.339-0.875 1.241-1.509t 1.848-0.634l 9.143,0 q 0.946,0 1.848,0.634t 1.241,1.509l 0.911,2.429l 4,0 zM 17.143,25.143q 3.304,0 5.652-2.348t 2.348-5.652t-2.348-5.652t-5.652-2.348t-5.652,2.348t-2.348,5.652t 2.348,5.652t 5.652,2.348z"></path></g></svg>