<?xml version="1.0" encoding="utf-8"?> <!-- Generator: IcoMoon.io --> <!DOCTYPE svg PUBLIC "-//W3C//DTD SVG 1.1//EN" "http://www.w3.org/Graphics/SVG/1.1/DTD/svg11.dtd"> <svg fill="#333333" xmlns:xlink="http://www.w3.org/1999/xlink" xmlns="http://www.w3.org/2000/svg" width="34.28515625" height="32" viewBox="0 0 34.28515625 32"><g><path d="M 32,17.714l0-14.857 q0-0.232 -0.17-0.402t-0.402-0.17l-28.571,0 q-0.232,0 -0.402,0.17t-0.17,0.402l0,14.857 q0,0.232 0.17,0.402t 0.402,0.17l 28.571,0 q 0.232,0 0.402-0.17t 0.17-0.402zM 34.286,2.857l0,19.429 q0,1.179 -0.839,2.018t-2.018,0.839l-9.714,0 q0,0.661 0.286,1.384t 0.571,1.268t 0.286,0.777q0,0.464 -0.339,0.804t-0.804,0.339l-9.143,0 q-0.464,0 -0.804-0.339 t-0.339-0.804q0-0.25 0.286-0.786t 0.571-1.25t 0.286-1.393l-9.714,0 q-1.179,0 -2.018-0.839t-0.839-2.018l0-19.429 q0-1.179 0.839-2.018t 2.018-0.839l 28.571,0 q 1.179,0 2.018,0.839t 0.839,2.018z"></path></g></svg>