<?xml version="1.0" encoding="utf-8"?> <!-- Generator: IcoMoon.io --> <!DOCTYPE svg PUBLIC "-//W3C//DTD SVG 1.1//EN" "http://www.w3.org/Graphics/SVG/1.1/DTD/svg11.dtd"> <svg fill="#333333" xmlns:xlink="http://www.w3.org/1999/xlink" xmlns="http://www.w3.org/2000/svg" width="32" height="32" viewBox="0 0 32 32"><g><path d="M 32,21.143l0,3.429 q0,0.232 -0.17,0.402t-0.402,0.17l-24.571,0 l0,3.429 q0,0.232 -0.17,0.402t-0.402,0.17q-0.214,0 -0.429-0.179l-5.696-5.714q-0.161-0.161 -0.161-0.393q0-0.25 0.161-0.411l 5.714-5.714q 0.161-0.161 0.411-0.161q 0.232,0 0.402,0.17t 0.17,0.402l0,3.429 l 24.571,0 q 0.232,0 0.402,0.17t 0.17,0.402zM 32,11.429q0,0.25 -0.161,0.411l-5.714,5.714q-0.161,0.161 -0.411,0.161 q-0.232,0 -0.402-0.17t-0.17-0.402l0-3.429 l-24.571,0 q-0.232,0 -0.402-0.17t-0.17-0.402l0-3.429 q0-0.232 0.17-0.402t 0.402-0.17l 24.571,0 l0-3.429 q0-0.25 0.161-0.411t 0.411-0.161q 0.214,0 0.429,0.179l 5.696,5.696q 0.161,0.161 0.161,0.411z"></path></g></svg>