<?xml version="1.0" encoding="utf-8"?> <!-- Generator: IcoMoon.io --> <!DOCTYPE svg PUBLIC "-//W3C//DTD SVG 1.1//EN" "http://www.w3.org/Graphics/SVG/1.1/DTD/svg11.dtd"> <svg fill="#333333" xmlns:xlink="http://www.w3.org/1999/xlink" xmlns="http://www.w3.org/2000/svg" width="32" height="32" viewBox="0 0 32 32"><g><path d="M 29.714,17.143q-2.714-4.214 -6.804-6.304q 1.089,1.857 1.089,4.018q0,3.304 -2.348,5.652t-5.652,2.348t-5.652-2.348t-2.348-5.652q0-2.161 1.089-4.018q-4.089,2.089 -6.804,6.304q 2.375,3.661 5.955,5.83t 7.759,2.17t 7.759-2.17t 5.955-5.83zM 16.857,10.286q0-0.357 -0.25-0.607t-0.607-0.25q-2.232,0 -3.83,1.598 t-1.598,3.83q0,0.357 0.25,0.607t 0.607,0.25t 0.607-0.25t 0.25-0.607q0-1.536 1.089-2.625t 2.625-1.089q 0.357,0 0.607-0.25t 0.25-0.607zM 32,17.143q0,0.607 -0.357,1.232q-2.5,4.107 -6.723,6.58t-8.92,2.473t-8.92-2.482t-6.723-6.571q-0.357-0.625 -0.357-1.232t 0.357-1.232q 2.5-4.089 6.723-6.571t 8.92-2.482t 8.92,2.482t 6.723,6.571q 0.357,0.625 0.357,1.232z"></path></g></svg>