<?xml version="1.0" encoding="utf-8"?> <!-- Generator: IcoMoon.io --> <!DOCTYPE svg PUBLIC "-//W3C//DTD SVG 1.1//EN" "http://www.w3.org/Graphics/SVG/1.1/DTD/svg11.dtd"> <svg fill="#333333" xmlns:xlink="http://www.w3.org/1999/xlink" xmlns="http://www.w3.org/2000/svg" width="32" height="32" viewBox="0 0 32 32"><g><path d="M 22.857,18.857q0,0.714 -0.5,1.214t-1.214,0.5q-0.911,0 -1.429-0.768l-4.054-6.089l-0.804,0 l0,2.357 l 4.411,7.339q 0.161,0.268 0.161,0.589q0,0.464 -0.339,0.804t-0.804,0.339l-3.429,0 l0,4.857 q0,0.821 -0.589,1.411t-1.411,0.589l-2.857,0 q-0.821,0 -1.411-0.589t-0.589-1.411l0-4.857 l-3.429,0 q-0.464,0 -0.804-0.339t-0.339-0.804q0-0.321 0.161-0.589l 4.411-7.339l0-2.357 l-0.804,0 l-4.054,6.089q-0.518,0.768 -1.429,0.768 q-0.714,0 -1.214-0.5t-0.5-1.214q0-0.518 0.286-0.946l 4.571-6.857q 1.304-1.911 3.143-1.911l 6.857,0 q 1.839,0 3.143,1.911l 4.571,6.857q 0.286,0.429 0.286,0.946zM 15.429,4.571q0,1.661 -1.17,2.83t-2.83,1.17t-2.83-1.17t-1.17-2.83t 1.17-2.83t 2.83-1.17t 2.83,1.17t 1.17,2.83z"></path></g></svg>