<?xml version="1.0" encoding="utf-8"?> <!-- Generator: IcoMoon.io --> <!DOCTYPE svg PUBLIC "-//W3C//DTD SVG 1.1//EN" "http://www.w3.org/Graphics/SVG/1.1/DTD/svg11.dtd"> <svg fill="#333333" xmlns:xlink="http://www.w3.org/1999/xlink" xmlns="http://www.w3.org/2000/svg" width="32" height="32" viewBox="0 0 32 32"><g><path d="M 6,16l 6,0 l0,2 L 6,18 L 6,16 z M 6,20l 6,0 l0,2 L 6,22 L 6,20 z M 6,24l 6,0 l0,2 L 6,26 L 6,24 z M 28.232,6.232l-4.465-4.464 C 22.796,0.795, 20.875,0, 19.5,0L 4.5,0 C 3.125,0, 2,1.125, 2,2.5l0,27 c0,1.375, 1.125,2.5, 2.5,2.5l 23,0 c 1.375,0, 2.5-1.125, 2.5-2.5L 30,10.5 C 30,9.125, 29.204,7.204, 28.232,6.232z M 26.818,7.646c 0.098,0.098, 0.195,0.218, 0.29,0.354L 22,8 L 22,2.892 c 0.136,0.095, 0.256,0.192, 0.354,0.29L 26.818,7.646z M 28,29.5c0,0.271-0.229,0.5-0.5,0.5L 4.5,30 c-0.271,0-0.5-0.229-0.5-0.5L 4,2.5 c0-0.271, 0.229-0.5, 0.5-0.5 l 15,0 c 0.151,0, 0.32,0.019, 0.5,0.053L 20,10 l 7.947,0 c 0.034,0.18, 0.053,0.349, 0.053,0.5L 28,29.5 zM 18,22 L 23.9,22 C 23.436,24.282 21.419,26 19,26 C 16.239,26 14,23.761 14,21 C 14,18.581 15.718,16.564 18,16.1 L 18,22 ZM 21,14 C 23.761,14 26,16.239 26,19 C 26,19.342 25.965,19.677 25.9,20 L 20,20 L 20,14.1 C 20.323,14.035 20.658,14 21,14 Z"></path></g></svg>