<?xml version="1.0" encoding="utf-8"?> <!-- Generator: IcoMoon.io --> <!DOCTYPE svg PUBLIC "-//W3C//DTD SVG 1.1//EN" "http://www.w3.org/Graphics/SVG/1.1/DTD/svg11.dtd"> <svg fill="#333333" xmlns:xlink="http://www.w3.org/1999/xlink" xmlns="http://www.w3.org/2000/svg" width="32" height="32" viewBox="0 0 32 32"><g><path d="M 13,4L 16,4L 16,6L 13,6zM 10,6L 13,6L 13,8L 10,8zM 13,8L 16,8L 16,10L 13,10zM 10,10L 13,10L 13,12L 10,12zM 13,12L 16,12L 16,14L 13,14zM 10,14L 13,14L 13,16L 10,16zM 13,16l0,2 l-3,0 l0,7 c0,0.552, 0.448,1, 1,1l 4,0 c 0.552,0, 1-0.448, 1-1L 16,16 L 13,16 z M 15,24l-4,0 l0-2 l 4,0 L 15,24 zM 28.232,6.232l-4.465-4.464C 22.796,0.795, 20.875,0, 19.5,0L 4.5,0 C 3.125,0, 2,1.125, 2,2.5l0,27 c0,1.375, 1.125,2.5, 2.5,2.5l 23,0 c 1.375,0, 2.5-1.125, 2.5-2.5L 30,10.5 C 30,9.125, 29.204,7.204, 28.232,6.232z M 26.818,7.646c 0.098,0.098, 0.195,0.218, 0.29,0.354L 22,8 L 22,2.892 c 0.136,0.095, 0.256,0.192, 0.354,0.29L 26.818,7.646z M 28,29.5c0,0.271-0.229,0.5-0.5,0.5L 4.5,30 c-0.271,0-0.5-0.229-0.5-0.5L 4,2.5 c0-0.271, 0.229-0.5, 0.5-0.5l 15,0 c 0.151,0, 0.32,0.019, 0.5,0.053L 20,10 l 7.947,0 c 0.034,0.18, 0.053,0.349, 0.053,0.5L 28,29.5 z"></path></g></svg>