<?xml version="1.0" encoding="utf-8"?> <!-- Generator: IcoMoon.io --> <!DOCTYPE svg PUBLIC "-//W3C//DTD SVG 1.1//EN" "http://www.w3.org/Graphics/SVG/1.1/DTD/svg11.dtd"> <svg fill="#333333" xmlns:xlink="http://www.w3.org/1999/xlink" xmlns="http://www.w3.org/2000/svg" width="33.5546875" height="32" viewBox="0 0 33.5546875 32"><g><path d="M 33.554,17q0,0.554 -0.554,1.179l-6,7.071q-0.768,0.911 -2.152,1.545t-2.563,0.634l-19.429,0 q-0.607,0 -1.080-0.232t-0.473-0.768q0-0.554 0.554-1.179l 6-7.071q 0.768-0.911 2.152-1.545t 2.563-0.634l 19.429,0 q 0.607,0 1.080,0.232t 0.473,0.768zM 27.429,10.857l0,2.857 l-14.857,0 q-1.679,0 -3.518,0.848t-2.929,2.134l-6.018,7.071l-0.089,0.107q0-0.071 -0.009-0.223 t-0.009-0.223l0-17.143 q0-1.643 1.179-2.821t 2.821-1.179l 5.714,0 q 1.643,0 2.821,1.179t 1.179,2.821l0,0.571 l 9.714,0 q 1.643,0 2.821,1.179t 1.179,2.821z"></path></g></svg>