<?xml version="1.0" encoding="utf-8"?> <!-- Generator: IcoMoon.io --> <!DOCTYPE svg PUBLIC "-//W3C//DTD SVG 1.1//EN" "http://www.w3.org/Graphics/SVG/1.1/DTD/svg11.dtd"> <svg fill="#333333" xmlns:xlink="http://www.w3.org/1999/xlink" xmlns="http://www.w3.org/2000/svg" width="32" height="32" viewBox="0 0 32 32"><g><path d="M 11.429,1.143l0,11.429 q0,1.089 -0.634,1.982t-1.652,1.25l0,13.911 q0,0.929 -0.679,1.607t-1.607,0.679l-2.286,0 q-0.929,0 -1.607-0.679t-0.679-1.607l0-13.911 q-1.018-0.357 -1.652-1.25t-0.634-1.982l0-11.429 q0-0.464 0.339-0.804t 0.804-0.339t 0.804,0.339t 0.339,0.804l0,7.429 q0,0.464 0.339,0.804t 0.804,0.339t 0.804-0.339t 0.339-0.804l0-7.429 q0-0.464 0.339-0.804t 0.804-0.339t 0.804,0.339t 0.339,0.804l0,7.429 q0,0.464 0.339,0.804 t 0.804,0.339t 0.804-0.339t 0.339-0.804l0-7.429 q0-0.464 0.339-0.804t 0.804-0.339t 0.804,0.339t 0.339,0.804zM 25.143,1.143l0,28.571 q0,0.929 -0.679,1.607t-1.607,0.679l-2.286,0 q-0.929,0 -1.607-0.679t-0.679-1.607l0-9.143 l-4,0 q-0.232,0 -0.402-0.17t-0.17-0.402l0-14.286 q0-2.357 1.679-4.036t 4.036-1.679l 4.571,0 q 0.464,0 0.804,0.339t 0.339,0.804z"></path></g></svg>