<?xml version="1.0" encoding="utf-8"?> <!-- Generator: IcoMoon.io --> <!DOCTYPE svg PUBLIC "-//W3C//DTD SVG 1.1//EN" "http://www.w3.org/Graphics/SVG/1.1/DTD/svg11.dtd"> <svg fill="#333333" xmlns:xlink="http://www.w3.org/1999/xlink" xmlns="http://www.w3.org/2000/svg" width="32" height="32" viewBox="0 0 32 32"><g><path d="M 13.714,2.286q 3.732,0 6.884,1.839t 4.991,4.991t 1.839,6.884t-1.839,6.884t-4.991,4.991t-6.884,1.839t-6.884-1.839t-4.991-4.991t-1.839-6.884t 1.839-6.884t 4.991-4.991t 6.884-1.839zM 18.607,11.589q-0.036,0.018 -0.17,0.17t-0.241,0.17q 0.036,0 0.080-0.089t 0.089-0.196t 0.063-0.125q 0.107-0.125 0.393-0.268q 0.25-0.107 0.929-0.214q 0.607-0.143 0.911,0.196 q-0.036-0.036 0.17-0.232t 0.259-0.214q 0.054-0.036 0.268-0.080t 0.268-0.134l 0.036-0.393q-0.214,0.018 -0.313-0.125t-0.116-0.375q0,0.036 -0.107,0.143q0-0.125 -0.080-0.143t-0.205,0.018t-0.161,0.018q-0.179-0.054 -0.268-0.134t-0.143-0.295t-0.071-0.268q-0.036-0.089 -0.17-0.188t-0.17-0.188q-0.018-0.036 -0.045-0.098t-0.054-0.116t-0.071-0.098t-0.098-0.045t-0.125,0.089t-0.134,0.179t-0.080,0.089q-0.054-0.036 -0.107-0.027t-0.080,0.018t-0.080,0.054t-0.089,0.063 q-0.054,0.036 -0.152,0.054t-0.152,0.036q 0.268-0.089 -0.018-0.196q-0.179-0.071 -0.286-0.054q 0.161-0.071 0.134-0.214t-0.152-0.25l 0.089,0 q-0.018-0.071 -0.152-0.152t-0.313-0.152t-0.232-0.107q-0.143-0.089 -0.607-0.17t-0.589-0.009q-0.089,0.107 -0.080,0.188t 0.071,0.25t 0.063,0.223q 0.018,0.107 -0.098,0.232t-0.116,0.214q0,0.125 0.25,0.277t 0.179,0.384q-0.054,0.143 -0.286,0.286t-0.286,0.214q-0.089,0.143 -0.027,0.33t 0.188,0.295 q 0.036,0.036 0.027,0.071t-0.063,0.080t-0.098,0.071t-0.116,0.063l-0.054,0.036q-0.196,0.089 -0.366-0.107t-0.241-0.464q-0.125-0.446 -0.286-0.536q-0.411-0.143 -0.518,0.018q-0.089-0.232 -0.732-0.464q-0.446-0.161 -1.036-0.071q 0.107-0.018 0-0.268q-0.125-0.268 -0.339-0.214q 0.054-0.107 0.071-0.313t 0.018-0.241q 0.054-0.232 0.214-0.411q 0.018-0.018 0.125-0.152t 0.17-0.241t 0.009-0.107q 0.625,0.071 0.893-0.196q 0.089-0.089 0.205-0.304t 0.188-0.304q 0.161-0.107 0.25-0.098t 0.259,0.098 t 0.259,0.089q 0.25,0.018 0.277-0.196t-0.134-0.357q 0.214,0.018 0.054-0.304q-0.089-0.125 -0.143-0.161q-0.214-0.071 -0.482,0.089q-0.143,0.071 0.036,0.143q-0.018-0.018 -0.17,0.188t-0.295,0.313t-0.286-0.089q-0.018-0.018 -0.098-0.241t-0.17-0.241q-0.143,0 -0.286,0.268q 0.054-0.143 -0.196-0.268t-0.429-0.143q 0.339-0.214 -0.143-0.482q-0.125-0.071 -0.366-0.089t-0.348,0.071q-0.089,0.125 -0.098,0.205t 0.089,0.143t 0.188,0.098t 0.205,0.071t 0.152,0.054 q 0.25,0.179 0.143,0.25q-0.036,0.018 -0.152,0.063t-0.205,0.080t-0.107,0.071q-0.054,0.071 0,0.25t-0.036,0.25q-0.089-0.089 -0.161-0.313t-0.125-0.295q 0.125,0.161 -0.446,0.107l-0.179-0.018q-0.071,0 -0.286,0.036t-0.366,0.018t-0.241-0.143q-0.071-0.143 0-0.357q 0.018-0.071 0.071-0.036q-0.071-0.054 -0.196-0.17t-0.179-0.152q-0.821,0.268 -1.679,0.732q 0.107,0.018 0.214-0.018q 0.089-0.036 0.232-0.116t 0.179-0.098q 0.607-0.25 0.75-0.125l 0.089-0.089q 0.25,0.286 0.357,0.446 q-0.125-0.071 -0.536-0.018q-0.357,0.107 -0.393,0.214q 0.125,0.214 0.089,0.321q-0.071-0.054 -0.205-0.179t-0.259-0.196t-0.268-0.089q-0.286,0 -0.393,0.018q-2.607,1.429 -4.196,3.964q 0.125,0.125 0.214,0.143q 0.071,0.018 0.089,0.161t 0.045,0.196t 0.205-0.054q 0.161,0.143 0.054,0.339q 0.018-0.018 0.786,0.482q 0.339,0.304 0.375,0.375q 0.054,0.196 -0.179,0.321q-0.018-0.036 -0.161-0.161t-0.161-0.071q-0.054,0.089 0.009,0.33t 0.188,0.223q-0.125,0 -0.17,0.286t-0.045,0.634 t-0.018,0.42l 0.036,0.018q-0.054,0.214 0.098,0.616t 0.384,0.348q-0.232,0.054 0.357,0.768q 0.107,0.143 0.143,0.161q 0.054,0.036 0.214,0.134t 0.268,0.179t 0.179,0.188q 0.071,0.089 0.179,0.402t 0.25,0.42q-0.036,0.107 0.17,0.357t 0.188,0.411q-0.018,0 -0.045,0.018t-0.045,0.018q 0.054,0.125 0.277,0.25t 0.277,0.232q 0.018,0.054 0.036,0.179t 0.054,0.196t 0.143,0.036q 0.036-0.357 -0.429-1.107q-0.268-0.446 -0.304-0.518q-0.054-0.089 -0.098-0.277 t-0.080-0.259q 0.036,0 0.107,0.027t 0.152,0.063t 0.134,0.071t 0.036,0.054q-0.054,0.125 0.036,0.313t 0.214,0.33t 0.304,0.339t 0.214,0.232q 0.107,0.107 0.25,0.348t0,0.241q 0.161,0 0.357,0.179t 0.304,0.357q 0.089,0.143 0.143,0.464t 0.089,0.429q 0.036,0.125 0.152,0.241t 0.223,0.17l 0.286,0.143t 0.232,0.125q 0.089,0.036 0.33,0.188t 0.384,0.205q 0.179,0.071 0.286,0.071t 0.259-0.045t 0.241-0.063q 0.268-0.036 0.518,0.268t 0.375,0.375 q 0.643,0.339 0.982,0.196q-0.036,0.018 0.009,0.134t 0.143,0.277t 0.161,0.259t 0.098,0.152q 0.089,0.107 0.321,0.268t 0.321,0.268q 0.107-0.071 0.125-0.161q-0.054,0.143 0.125,0.357t 0.321,0.179q 0.25-0.054 0.25-0.571q-0.554,0.268 -0.875-0.321q0-0.018 -0.045-0.098t-0.071-0.152t-0.045-0.152t0-0.134t 0.089-0.054q 0.161,0 0.179-0.063t-0.036-0.223t-0.071-0.232q-0.018-0.143 -0.196-0.357t-0.214-0.268q-0.089,0.161 -0.286,0.143t-0.286-0.161q0,0.018 -0.027,0.098t-0.027,0.116 q-0.232,0 -0.268-0.018q 0.018-0.054 0.045-0.313t 0.063-0.402q 0.018-0.071 0.098-0.214t 0.134-0.259t 0.071-0.223t-0.080-0.17t-0.313-0.045q-0.339,0.018 -0.464,0.357q-0.018,0.054 -0.054,0.188t-0.089,0.205t-0.161,0.125q-0.125,0.054 -0.429,0.036t-0.429-0.089q-0.232-0.143 -0.402-0.518t-0.17-0.661q0-0.179 0.045-0.473t 0.054-0.446t-0.098-0.438q 0.054-0.036 0.161-0.17t 0.179-0.188q 0.036-0.018 0.080-0.027t 0.080,0t 0.071-0.027t 0.054-0.107q-0.018-0.018 -0.071-0.054 q-0.054-0.054 -0.071-0.054q 0.125,0.054 0.509-0.027t 0.491,0.027q 0.268,0.196 0.393-0.036q0-0.018 -0.045-0.17t-0.009-0.241q 0.089,0.482 0.518,0.161q 0.054,0.054 0.277,0.089t 0.313,0.089q 0.054,0.036 0.125,0.098t 0.098,0.080t 0.089-0.009t 0.152-0.116q 0.179,0.25 0.214,0.429q 0.196,0.714 0.339,0.786q 0.125,0.054 0.196,0.036t 0.080-0.17t0-0.25t-0.027-0.223l-0.018-0.143l0-0.321 l-0.018-0.143q-0.268-0.054 -0.33-0.214t 0.027-0.33t 0.268-0.33q 0.018-0.018 0.143-0.063 t 0.277-0.116t 0.223-0.143q 0.375-0.339 0.268-0.625q 0.125,0 0.196-0.161q-0.018,0 -0.089-0.054t-0.134-0.089t-0.080-0.036q 0.161-0.089 0.036-0.286q 0.089-0.054 0.134-0.196t 0.134-0.179q 0.161,0.214 0.375,0.036q 0.125-0.143 0.018-0.286q 0.089-0.125 0.366-0.188t 0.33-0.17q 0.125,0.036 0.143-0.036t 0.018-0.214t 0.054-0.214q 0.071-0.089 0.268-0.161t 0.232-0.089l 0.304-0.196q 0.054-0.071 0-0.071q 0.321,0.036 0.554-0.196q 0.179-0.196 -0.107-0.357q 0.054-0.107 -0.054-0.17t-0.268-0.098q 0.054-0.018 0.205-0.009t 0.188-0.027 q 0.268-0.179 -0.125-0.286q-0.304-0.089 -0.768,0.214zM 15.696,27.25q 3.679-0.643 6.268-3.375q-0.054-0.054 -0.223-0.080t-0.223-0.063q-0.321-0.125 -0.429-0.143q 0.018-0.125 -0.045-0.232t-0.143-0.161t-0.223-0.143t-0.196-0.125q-0.036-0.036 -0.125-0.107t-0.125-0.098t-0.134-0.080t-0.152-0.036t-0.179,0.018l-0.054,0.018q-0.054,0.018 -0.098,0.045t-0.098,0.054t-0.071,0.054t0,0.045q-0.375-0.304 -0.643-0.393q-0.089-0.018 -0.196-0.098t-0.188-0.125t-0.179-0.027t-0.205,0.125 q-0.089,0.089 -0.107,0.268t-0.036,0.232q-0.125-0.089 0-0.313t 0.036-0.33q-0.054-0.107 -0.188-0.080t-0.214,0.080t-0.205,0.152t-0.161,0.116t-0.152,0.098t-0.152,0.134q-0.054,0.071 -0.107,0.214t-0.089,0.196q-0.036-0.071 -0.205-0.116t-0.17-0.098q 0.036,0.179 0.071,0.625t 0.089,0.679q 0.125,0.554 -0.214,0.857q-0.482,0.446 -0.518,0.714q-0.071,0.393 0.214,0.464q0,0.125 -0.143,0.366t-0.125,0.384q0,0.107 0.036,0.286z"></path></g></svg>