<?xml version="1.0" encoding="utf-8"?> <!-- Generator: IcoMoon.io --> <!DOCTYPE svg PUBLIC "-//W3C//DTD SVG 1.1//EN" "http://www.w3.org/Graphics/SVG/1.1/DTD/svg11.dtd"> <svg fill="#333333" xmlns:xlink="http://www.w3.org/1999/xlink" xmlns="http://www.w3.org/2000/svg" width="32" height="32" viewBox="0 0 32 32"><g><path d="M 4.571,24q0-0.464 -0.339-0.804t-0.804-0.339t-0.804,0.339t-0.339,0.804t 0.339,0.804t 0.804,0.339t 0.804-0.339t 0.339-0.804zM 29.714,13.714q0-0.911 -0.696-1.598t-1.589-0.688l-10.286,0 q0-0.357 0.268-0.866t 0.589-0.982t 0.589-1.214t 0.268-1.509q0-1.196 -0.795-1.741t-2.063-0.545q-0.429,0 -1.607,2.482q-0.429,0.786 -0.661,1.161q-0.714,1.143 -2,2.589q-1.268,1.446 -1.804,1.893 q-1.232,1.018 -2.5,1.018l-0.571,0 l0,11.429 l 0.571,0 q 1.286,0 2.982,0.571t 3.455,1.143t 3.205,0.571q 3.375,0 3.375-2.982q0-0.464 -0.089-1q 0.536-0.286 0.848-0.938t 0.313-1.313t-0.321-1.232q 0.946-0.893 0.946-2.125q0-0.446 -0.179-0.991t-0.446-0.848l 5.911,0 q 0.929,0 1.607-0.679t 0.679-1.607zM 32,13.696q0,1.875 -1.348,3.232t-3.223,1.357l-3.018,0 q-0.071,1.107 -0.661,2.125q 0.054,0.375 0.054,0.768 q0,1.804 -1.071,3.179q 0.018,2.482 -1.518,3.92t-4.054,1.438q-2.375,0 -5.75-1.232q-2.929-1.054 -3.982-1.054l-5.143,0 q-0.946,0 -1.616-0.67t-0.67-1.616l0-11.429 q0-0.946 0.67-1.616t 1.616-0.67l 5.143,0 q 0.179,0 0.384-0.080t 0.42-0.25t 0.402-0.321t 0.429-0.402t 0.366-0.384t 0.339-0.384t 0.25-0.304q 1.161-1.321 1.786-2.304q 0.232-0.375 0.589-1.107t 0.661-1.286t 0.723-1.125t 0.982-0.884 t 1.241-0.313q 2.232,0 3.688,1.196t 1.455,3.375q0,1.214 -0.393,2.286l 6.679,0 q 1.857,0 3.214,1.357t 1.357,3.196z"></path></g></svg>