<?xml version="1.0" encoding="utf-8"?> <!-- Generator: IcoMoon.io --> <!DOCTYPE svg PUBLIC "-//W3C//DTD SVG 1.1//EN" "http://www.w3.org/Graphics/SVG/1.1/DTD/svg11.dtd"> <svg fill="#333333" xmlns:xlink="http://www.w3.org/1999/xlink" xmlns="http://www.w3.org/2000/svg" width="32" height="32" viewBox="0 0 32 32"><g><path d="M 22.857,28.571q0-0.464 -0.339-0.804t-0.804-0.339t-0.804,0.339t-0.339,0.804t 0.339,0.804t 0.804,0.339t 0.804-0.339t 0.339-0.804zM 25.143,14.929q0-3.375 -2.982-3.375q-0.464,0 -1,0.089q-0.286-0.536 -0.938-0.848t-1.313-0.313t-1.232,0.321q-0.893-0.946 -2.125-0.946q-0.446,0 -0.991,0.179t-0.848,0.446l0-5.911 q0-0.929 -0.679-1.607t-1.607-0.679q-0.911,0 -1.598,0.696t-0.688,1.589l0,10.286 q-0.357,0 -0.866-0.268t-0.982-0.589t-1.214-0.589t-1.509-0.268q-1.196,0 -1.741,0.795t-0.545,2.063q0,0.429 2.482,1.607q 0.786,0.429 1.161,0.661q 1.143,0.714 2.589,2q 1.446,1.268 1.893,1.804q 1.018,1.232 1.018,2.5l0,0.571 l 11.429,0 l0-0.571 q0-1.286 0.571-2.982t 1.143-3.455t 0.571-3.205zM 27.429,14.839q0,2.375 -1.232,5.75q-1.054,2.929 -1.054,3.982l0,5.143 q0,0.946 -0.67,1.616 t-1.616,0.67l-11.429,0 q-0.946,0 -1.616-0.67t-0.67-1.616l0-5.143 q0-0.179 -0.080-0.384t-0.25-0.42t-0.321-0.402t-0.402-0.429t-0.384-0.366t-0.384-0.339t-0.304-0.25q-1.321-1.161 -2.304-1.786q-0.375-0.232 -1.107-0.589t-1.286-0.661t-1.125-0.723t-0.884-0.982t-0.313-1.241q0-2.232 1.196-3.688t 3.375-1.455q 1.214,0 2.286,0.393l0-6.679 q0-1.857 1.357-3.214t 3.196-1.357 q 1.875,0 3.232,1.348t 1.357,3.223l0,3.018 q 1.107,0.071 2.125,0.661q 0.375-0.054 0.768-0.054q 1.804,0 3.179,1.071q 2.482-0.018 3.92,1.518t 1.438,4.054z"></path></g></svg>