<?xml version="1.0" encoding="utf-8"?> <!-- Generator: IcoMoon.io --> <!DOCTYPE svg PUBLIC "-//W3C//DTD SVG 1.1//EN" "http://www.w3.org/Graphics/SVG/1.1/DTD/svg11.dtd"> <svg fill="#333333" xmlns:xlink="http://www.w3.org/1999/xlink" xmlns="http://www.w3.org/2000/svg" width="32" height="32" viewBox="0 0 32 32"><g><path d="M 24.321,25.464l0-11.571 l-2.411,0 q 0.357,1.125 0.357,2.339q0,2.25 -1.143,4.152t-3.107,3.009t-4.286,1.107q-3.518,0 -6.018-2.42t-2.5-5.848q0-1.214 0.357-2.339l-2.518,0 l0,11.571 q0,0.464 0.313,0.777t 0.777,0.313l 19.089,0 q 0.446,0 0.768-0.313t 0.321-0.777zM 19.25,15.946q0-2.214 -1.616-3.777t-3.902-1.563q-2.268,0 -3.884,1.563t-1.616,3.777 t 1.616,3.777t 3.884,1.563q 2.286,0 3.902-1.563t 1.616-3.777zM 24.321,9.518l0-2.946 q0-0.5 -0.357-0.866t-0.875-0.366l-3.107,0 q-0.518,0 -0.875,0.366t-0.357,0.866l0,2.946 q0,0.518 0.357,0.875t 0.875,0.357l 3.107,0 q 0.518,0 0.875-0.357t 0.357-0.875zM 27.429,5.804l0,20.393 q0,1.446 -1.036,2.482t-2.482,1.036l-20.393,0 q-1.446,0 -2.482-1.036t-1.036-2.482l0-20.393 q0-1.446 1.036-2.482 t 2.482-1.036l 20.393,0 q 1.446,0 2.482,1.036t 1.036,2.482z"></path></g></svg>