<?xml version="1.0" encoding="utf-8"?> <!-- Generator: IcoMoon.io --> <!DOCTYPE svg PUBLIC "-//W3C//DTD SVG 1.1//EN" "http://www.w3.org/Graphics/SVG/1.1/DTD/svg11.dtd"> <svg fill="#333333" xmlns:xlink="http://www.w3.org/1999/xlink" xmlns="http://www.w3.org/2000/svg" width="34.28515625" height="32" viewBox="0 0 34.28515625 32"><g><path d="M 7.429,22.857q-1.179,0 -2.018-0.839t-0.839-2.018l0-12.571 q0-1.179 0.839-2.018t 2.018-0.839l 19.429,0 q 1.179,0 2.018,0.839t 0.839,2.018l0,12.571 q0,1.179 -0.839,2.018t-2.018,0.839l-19.429,0 zM 6.857,7.429l0,12.571 q0,0.232 0.17,0.402t 0.402,0.17l 19.429,0 q 0.232,0 0.402-0.17t 0.17-0.402l0-12.571 q0-0.232 -0.17-0.402t-0.402-0.17l-19.429,0 q-0.232,0 -0.402,0.17t-0.17,0.402z M 31.429,24l 2.857,0 l0,1.714 q0,0.714 -0.839,1.214t-2.018,0.5l-28.571,0 q-1.179,0 -2.018-0.5t-0.839-1.214l0-1.714 l 2.857,0 l 28.571,0 zM 18.571,25.714q 0.286,0 0.286-0.286t-0.286-0.286l-2.857,0 q-0.286,0 -0.286,0.286t 0.286,0.286l 2.857,0 z"></path></g></svg>