<?xml version="1.0" encoding="utf-8"?> <!-- Generator: IcoMoon.io --> <!DOCTYPE svg PUBLIC "-//W3C//DTD SVG 1.1//EN" "http://www.w3.org/Graphics/SVG/1.1/DTD/svg11.dtd"> <svg fill="#333333" xmlns:xlink="http://www.w3.org/1999/xlink" xmlns="http://www.w3.org/2000/svg" width="32" height="32" viewBox="0 0 32 32"><g><path d="M 4.232,25.25l 4.125,0 l0-12.393 l-4.125,0 l0,12.393 zM 8.625,9.036q-0.018-0.929 -0.643-1.536t-1.661-0.607t-1.688,0.607t-0.652,1.536q0,0.911 0.634,1.527t 1.652,0.616l 0.018,0 q 1.054,0 1.696-0.616t 0.643-1.527zM 19.071,25.25l 4.125,0 l0-7.107 q0-2.75 -1.304-4.161t-3.446-1.411q-2.429,0 -3.732,2.089l 0.036,0 l0-1.804 l-4.125,0 q 0.054,1.179 0,12.393l 4.125,0 l0-6.929 q0-0.679 0.125-1q 0.268-0.625 0.804-1.063t 1.321-0.438 q 2.071,0 2.071,2.804l0,6.625 zM 27.429,7.429l0,17.143 q0,2.125 -1.509,3.634t-3.634,1.509l-17.143,0 q-2.125,0 -3.634-1.509t-1.509-3.634l0-17.143 q0-2.125 1.509-3.634t 3.634-1.509l 17.143,0 q 2.125,0 3.634,1.509t 1.509,3.634z"></path></g></svg>