<?xml version="1.0" encoding="utf-8"?> <!-- Generator: IcoMoon.io --> <!DOCTYPE svg PUBLIC "-//W3C//DTD SVG 1.1//EN" "http://www.w3.org/Graphics/SVG/1.1/DTD/svg11.dtd"> <svg fill="#333333" xmlns:xlink="http://www.w3.org/1999/xlink" xmlns="http://www.w3.org/2000/svg" width="32" height="32" viewBox="0 0 32 32"><g><path d="M 11.839,7.339q-0.196,0.018 -0.277,0.188t-0.152,0.17q-0.089,0.018 -0.089-0.089q0-0.214 0.339-0.268l 0.179,0 zM 13.393,7.589q-0.071,0.018 -0.205-0.116t-0.313-0.080q 0.429-0.196 0.571,0.036q 0.054,0.107 -0.054,0.161zM 7.125,15.214q-0.071-0.018 -0.107,0.054t-0.080,0.223t-0.098,0.241t-0.179,0.232q-0.125,0.179 -0.018,0.214q 0.071,0.018 0.223-0.125t 0.223-0.321q 0.018-0.054 0.036-0.125t 0.036-0.107t 0.027-0.080t 0.009-0.071l0-0.054 t-0.018-0.045t-0.054-0.036z M 22.393,21.625q0-0.321 -0.982-0.75q 0.071-0.268 0.134-0.491t 0.089-0.464t 0.054-0.384t 0.009-0.402t-0.018-0.348t-0.063-0.393t-0.071-0.366t-0.089-0.446t-0.098-0.473q-0.179-0.857 -0.839-1.839t-1.286-1.339q 0.429,0.357 1.018,1.482q 1.554,2.893 0.964,4.964q-0.196,0.714 -0.893,0.75q-0.554,0.071 -0.688-0.33t-0.143-1.491t-0.205-1.911q-0.161-0.696 -0.348-1.232t-0.348-0.813t-0.277-0.438t-0.232-0.268t-0.134-0.125 q-0.25-1.107 -0.554-1.839t-0.527-1t-0.42-0.589t-0.268-0.714q-0.071-0.375 0.107-0.955t 0.080-0.884t-0.795-0.446q-0.268-0.054 -0.795-0.321t-0.634-0.286q-0.143-0.018 -0.196-0.464t 0.143-0.911t 0.643-0.482q 0.661-0.054 0.911,0.536t 0.071,1.036q-0.196,0.339 -0.036,0.473t 0.536,0.009q 0.232-0.071 0.232-0.643l0-0.661 q-0.089-0.536 -0.241-0.893t-0.375-0.545t-0.42-0.268t-0.482-0.134q-1.911,0.143 -1.589,2.393q0,0.268 -0.018,0.268 q-0.161-0.161 -0.527-0.188t-0.589,0.009t-0.277-0.089q 0.018-1.018 -0.286-1.607t-0.804-0.607q-0.482-0.018 -0.741,0.491t-0.295,1.063q-0.018,0.268 0.063,0.661t 0.232,0.67t 0.277,0.241q 0.179-0.054 0.286-0.25q 0.071-0.161 -0.125-0.143q-0.125,0 -0.277-0.259t-0.17-0.598q-0.018-0.393 0.161-0.661t 0.607-0.25q 0.304,0 0.482,0.375t 0.17,0.696t-0.027,0.393q-0.393,0.268 -0.554,0.518q-0.143,0.214 -0.491,0.42 t-0.366,0.223q-0.232,0.25 -0.277,0.482t 0.134,0.321q 0.25,0.143 0.446,0.348t 0.286,0.339t 0.33,0.232t 0.634,0.116q 0.839,0.036 1.821-0.268q 0.036-0.018 0.411-0.125t 0.616-0.188t 0.527-0.232t 0.375-0.313q 0.161-0.25 0.357-0.143q 0.089,0.054 0.116,0.152t-0.054,0.214t-0.295,0.17q-0.357,0.107 -1.009,0.384t-0.813,0.348q-0.786,0.339 -1.25,0.411q-0.446,0.089 -1.411-0.036q-0.179-0.036 -0.161,0.036t 0.304,0.339 q 0.446,0.411 1.196,0.393q 0.304-0.018 0.643-0.125t 0.643-0.25t 0.598-0.313t 0.536-0.304t 0.438-0.214t 0.313-0.045t 0.152,0.196q0,0.036 -0.018,0.080t-0.071,0.089t-0.107,0.080t-0.152,0.089t-0.161,0.080t-0.179,0.089t-0.17,0.080q-0.5,0.25 -1.205,0.786t-1.188,0.768t-0.875,0.018q-0.375-0.196 -1.125-1.304q-0.393-0.554 -0.446-0.393q-0.018,0.054 -0.018,0.179q0,0.446 -0.268,1.009t-0.527,0.991t-0.375,1.036t 0.205,1.125 q-0.411,0.107 -1.116,1.607t-0.848,2.518q-0.036,0.321 -0.027,1.232t-0.098,1.054q-0.143,0.429 -0.518,0.054q-0.571-0.554 -0.643-1.679q-0.036-0.5 0.071-1q 0.071-0.339 -0.018-0.321l-0.071,0.089q-0.643,1.161 0.179,2.964q 0.089,0.214 0.446,0.5t 0.429,0.357q 0.357,0.411 1.857,1.616t 1.661,1.366q 0.286,0.268 0.313,0.679t-0.25,0.768t-0.813,0.411q 0.143,0.268 0.518,0.795t 0.5,0.964t 0.125,1.259q 0.821-0.429 0.125-1.643 q-0.071-0.143 -0.188-0.286t-0.17-0.214t-0.036-0.107q 0.054-0.089 0.232-0.17t 0.357,0.045q 0.821,0.929 2.964,0.643q 2.375-0.268 3.161-1.554q 0.411-0.679 0.607-0.536q 0.214,0.107 0.179,0.929q-0.018,0.446 -0.411,1.643q-0.161,0.411 -0.107,0.67t 0.429,0.277q 0.054-0.339 0.259-1.375t 0.241-1.607q 0.036-0.375 -0.116-1.313t-0.134-1.732t 0.411-1.259q 0.268-0.321 0.911-0.321q 0.018-0.661 0.616-0.946t 1.295-0.188t 1.071,0.402zM 11.179,6.857 q 0.054-0.304 -0.045-0.536t-0.205-0.268q-0.161-0.036 -0.161,0.125q 0.036,0.089 0.089,0.107q 0.179,0 0.125,0.268q-0.054,0.357 0.143,0.357q 0.054,0 0.054-0.054zM 18.661,10.375q-0.036-0.143 -0.116-0.205t-0.232-0.089t-0.259-0.098q-0.089-0.054 -0.17-0.143t-0.125-0.143t-0.098-0.116t-0.071-0.071t-0.071,0.027q-0.25,0.286 0.125,0.777t 0.696,0.563q 0.161,0.018 0.259-0.143t 0.063-0.357zM 15.482,6.571q0-0.196 -0.089-0.348t-0.196-0.223t-0.161-0.054q-0.25,0.018 -0.125,0.125l 0.071,0.036 q 0.25,0.071 0.321,0.554q0,0.054 0.143-0.036zM 16.446,2.411q0-0.036 -0.045-0.089t-0.161-0.125t-0.17-0.107q-0.268-0.268 -0.429-0.268q-0.161,0.018 -0.205,0.134t-0.018,0.232t-0.009,0.223q-0.018,0.071 -0.107,0.188t-0.107,0.161t 0.054,0.152q 0.071,0.054 0.143,0t 0.196-0.161t 0.268-0.161q 0.018-0.018 0.161-0.018t 0.268-0.036t 0.161-0.125zM 26.536,26.357q 0.357,0.214 0.554,0.438t 0.214,0.429t-0.045,0.402t-0.277,0.393t-0.42,0.348t-0.536,0.33 t-0.563,0.295t-0.571,0.277t-0.482,0.232q-0.679,0.339 -1.527,1t-1.348,1.143q-0.304,0.286 -1.214,0.348t-1.589-0.259q-0.321-0.161 -0.527-0.42t-0.295-0.455t-0.393-0.348t-0.839-0.17q-0.786-0.018 -2.321-0.018q-0.339,0 -1.018,0.027t-1.036,0.045q-0.786,0.018 -1.42,0.268t-0.955,0.536t-0.777,0.509t-0.955,0.205q-0.518-0.018 -1.982-0.554t-2.607-0.768q-0.339-0.071 -0.911-0.17 t-0.893-0.161t-0.705-0.17t-0.598-0.259t-0.304-0.348q-0.179-0.411 0.125-1.188t 0.321-0.973q 0.018-0.286 -0.071-0.714t-0.179-0.759t-0.080-0.652t 0.188-0.482q 0.25-0.214 1.018-0.25t 1.071-0.214q 0.536-0.321 0.75-0.625t 0.214-0.911q 0.375,1.304 -0.571,1.893q-0.571,0.357 -1.482,0.268q-0.607-0.054 -0.768,0.179q-0.232,0.268 0.089,1.018q 0.036,0.107 0.143,0.321t 0.152,0.321t 0.080,0.304t 0.018,0.393q0,0.268 -0.304,0.875t-0.25,0.857 q 0.054,0.304 0.661,0.464q 0.357,0.107 1.509,0.33t 1.777,0.366q 0.429,0.107 1.321,0.393t 1.473,0.411t 0.991,0.071q 0.768-0.107 1.152-0.5t 0.411-0.857t-0.134-1.045t-0.339-0.929t-0.357-0.652q-2.161-3.393 -3.018-4.321q-1.214-1.321 -2.018-0.714q-0.196,0.161 -0.268-0.268q-0.054-0.286 -0.036-0.679q 0.018-0.518 0.179-0.929t 0.429-0.839t 0.393-0.75q 0.143-0.375 0.473-1.286t 0.527-1.393t 0.536-1.089t 0.696-0.964q 1.964-2.554 2.214-3.482 q-0.214-2 -0.286-5.536q-0.036-1.607 0.429-2.705t 1.893-1.866q 0.696-0.375 1.857-0.375q 0.946-0.018 1.893,0.241t 1.589,0.741q 1.018,0.75 1.634,2.17t 0.527,2.634q-0.089,1.696 0.536,3.821q 0.607,2.018 2.375,3.893q 0.982,1.054 1.777,2.911t 1.063,3.411q 0.143,0.875 0.089,1.509t-0.214,0.991t-0.357,0.393q-0.179,0.036 -0.42,0.339t-0.482,0.634t-0.723,0.598t-1.089,0.25 q-0.321-0.018 -0.563-0.089t-0.402-0.241t-0.241-0.277t-0.205-0.366t-0.161-0.348q-0.393-0.661 -0.732-0.536t-0.5,0.875t 0.125,1.732q 0.357,1.25 0.018,3.482q-0.179,1.161 0.321,1.795t 1.304,0.589t 1.518-0.634q 1.054-0.875 1.598-1.188t 1.848-0.759q 0.946-0.321 1.375-0.652t 0.33-0.616t-0.446-0.509t-0.92-0.42q-0.589-0.196 -0.884-0.857t-0.268-1.295t 0.277-0.848q 0.018,0.554 0.143,1.009 t 0.259,0.723t 0.366,0.509t 0.375,0.339t 0.384,0.232t 0.295,0.17z"></path></g></svg>