<?xml version="1.0" encoding="utf-8"?> <!-- Generator: IcoMoon.io --> <!DOCTYPE svg PUBLIC "-//W3C//DTD SVG 1.1//EN" "http://www.w3.org/Graphics/SVG/1.1/DTD/svg11.dtd"> <svg fill="#333333" xmlns:xlink="http://www.w3.org/1999/xlink" xmlns="http://www.w3.org/2000/svg" width="32" height="32" viewBox="0 0 32 32"><g><path d="M 18.286,12.571l0,7.429 q0,0.714 -0.5,1.214t-1.214,0.5t-1.214-0.5t-0.5-1.214l0-6.286 l-1.143,0 l0,16.286 q0,0.821 -0.589,1.411t-1.411,0.589t-1.411-0.589t-0.589-1.411l0-8.286 l-1.143,0 l0,8.286 q0,0.821 -0.589,1.411t-1.411,0.589t-1.411-0.589t-0.589-1.411l0-16.286 l-1.143,0 l0,6.286 q0,0.714 -0.5,1.214t-1.214,0.5t-1.214-0.5t-0.5-1.214l0-7.429 q0-1.429 1-2.429t 2.429-1l 11.429,0 q 1.429,0 2.429,1t 1,2.429z M 13.143,4.571q0,1.661 -1.17,2.83t-2.83,1.17t-2.83-1.17t-1.17-2.83t 1.17-2.83t 2.83-1.17t 2.83,1.17t 1.17,2.83z"></path></g></svg>