<?xml version="1.0" encoding="utf-8"?> <!-- Generator: IcoMoon.io --> <!DOCTYPE svg PUBLIC "-//W3C//DTD SVG 1.1//EN" "http://www.w3.org/Graphics/SVG/1.1/DTD/svg11.dtd"> <svg fill="#333333" xmlns:xlink="http://www.w3.org/1999/xlink" xmlns="http://www.w3.org/2000/svg" width="32" height="32" viewBox="0 0 32 32"><g><path d="M 22.857,20l0-3.429 q0-0.25 -0.161-0.411t-0.411-0.161l-4,0 l0-4 q0-0.25 -0.161-0.411t-0.411-0.161l-3.429,0 q-0.25,0 -0.411,0.161t-0.161,0.411l0,4 l-4,0 q-0.25,0 -0.411,0.161t-0.161,0.411l0,3.429 q0,0.25 0.161,0.411t 0.411,0.161l 4,0 l0,4 q0,0.25 0.161,0.411t 0.411,0.161l 3.429,0 q 0.25,0 0.411-0.161t 0.161-0.411l0-4 l 4,0 q 0.25,0 0.411-0.161t 0.161-0.411zM 11.429,6.857l 9.143,0 l0-2.286 l-9.143,0 l0,2.286 zM 4.571,6.857l0,22.857 l-0.571,0 q-1.643,0 -2.821-1.179t-1.179-2.821l0-14.857 q0-1.643 1.179-2.821t 2.821-1.179l 0.571,0 zM 25.714,6.857l0,22.857 l-19.429,0 l0-22.857 l 2.857,0 l0-2.857 q0-0.714 0.5-1.214t 1.214-0.5l 10.286,0 q 0.714,0 1.214,0.5t 0.5,1.214l0,2.857 l 2.857,0 zM 32,10.857l0,14.857 q0,1.643 -1.179,2.821t-2.821,1.179l-0.571,0 l0-22.857 l 0.571,0 q 1.643,0 2.821,1.179t 1.179,2.821z"></path></g></svg>