<?xml version="1.0" encoding="utf-8"?> <!-- Generator: IcoMoon.io --> <!DOCTYPE svg PUBLIC "-//W3C//DTD SVG 1.1//EN" "http://www.w3.org/Graphics/SVG/1.1/DTD/svg11.dtd"> <svg fill="#333333" xmlns:xlink="http://www.w3.org/1999/xlink" xmlns="http://www.w3.org/2000/svg" width="32" height="32" viewBox="0 0 32 32"><g><path d="M0,18.333C0,25.88, 6.12,32, 13.667,32C 21.213,32, 27.333,25.88, 27.333,18.333 c0-2.58-1.107-5.86-2-7.253c-0.773-1.193-1.041-1.96-1.041-3.080c0-2.333, 2.46-4.667, 5.041-4.667l 0.333,0 C 30.587,3.333, 31.333,2.587, 31.333,1.667S 30.587,0, 29.667,0L 29.333,0 c-4.1,0-7.607,2.187-8.44,6.667C 19.186,5.373, 16.533,4.667, 13.667,4.667C 6.12,4.667,0,10.787,0,18.333z M 12,18.333c0-0.92, 0.747-1.667, 1.667-1.667s 1.667,0.747, 1.667,1.667 S 14.587,20, 13.667,20S 12,19.253, 12,18.333z M 3.333,18.333C 3.333,16.673, 4.673,15.333, 6.333,15.333s 3,1.34, 3,3S 7.993,21.333, 6.333,21.333S 3.333,19.993, 3.333,18.333z M 18,18.333 c0-1.66, 1.34-3, 3-3s 3,1.34, 3,3S 22.66,21.333, 21,21.333S 18,19.993, 18,18.333z M 10.667,25.667c0-1.66, 1.34-3, 3-3s 3,1.34, 3,3 S 15.327,28.667, 13.667,28.667S 10.667,27.327, 10.667,25.667z M 10.667,11c0-1.66, 1.34-3, 3-3s 3,1.34, 3,3S 15.327,14, 13.667,14S 10.667,12.66, 10.667,11z"></path></g></svg>