<?xml version="1.0" encoding="utf-8"?> <!-- Generator: IcoMoon.io --> <!DOCTYPE svg PUBLIC "-//W3C//DTD SVG 1.1//EN" "http://www.w3.org/Graphics/SVG/1.1/DTD/svg11.dtd"> <svg fill="#333333" xmlns:xlink="http://www.w3.org/1999/xlink" xmlns="http://www.w3.org/2000/svg" width="32" height="32" viewBox="0 0 32 32"><g><path d="M 27.429,16q0,2.786 -1.089,5.321t-2.929,4.375t-4.375,2.929t-5.321,1.089t-5.321-1.089t-4.375-2.929t-2.929-4.375t-1.089-5.321q0-3.25 1.438-6.125t 4.045-4.821q 0.768-0.571 1.705-0.446t 1.491,0.893q 0.571,0.75 0.438,1.688t-0.884,1.509q-1.75,1.321 -2.705,3.232t-0.955,4.071q0,1.857 0.723,3.545t 1.955,2.92t 2.92,1.955 t 3.545,0.723t 3.545-0.723t 2.92-1.955t 1.955-2.92t 0.723-3.545q0-2.161 -0.955-4.071t-2.705-3.232q-0.75-0.571 -0.884-1.509t 0.438-1.688q 0.554-0.768 1.5-0.893t 1.696,0.446q 2.607,1.946 4.045,4.821t 1.438,6.125zM 16,2.286l0,11.429 q0,0.929 -0.679,1.607t-1.607,0.679t-1.607-0.679t-0.679-1.607l0-11.429 q0-0.929 0.679-1.607t 1.607-0.679t 1.607,0.679t 0.679,1.607z"></path></g></svg>