<?xml version="1.0" encoding="utf-8"?> <!-- Generator: IcoMoon.io --> <!DOCTYPE svg PUBLIC "-//W3C//DTD SVG 1.1//EN" "http://www.w3.org/Graphics/SVG/1.1/DTD/svg11.dtd"> <svg fill="#333333" xmlns:xlink="http://www.w3.org/1999/xlink" xmlns="http://www.w3.org/2000/svg" width="32" height="32" viewBox="0 0 32 32"><g><path d="M 6.482,27.429l 1.625-1.625l-4.196-4.196l-1.625,1.625l0,1.911 l 2.286,0 l0,2.286 l 1.911,0 zM 15.821,10.857q0-0.393 -0.393-0.393q-0.179,0 -0.304,0.125l-9.679,9.679q-0.125,0.125 -0.125,0.304q0,0.393 0.393,0.393q 0.179,0 0.304-0.125l 9.679-9.679q 0.125-0.125 0.125-0.304zM 14.857,7.429l 7.429,7.429l-14.857,14.857l-7.429,0 l0-7.429 zM 27.054,9.143q0,0.946 -0.661,1.607l-2.964,2.964l-7.429-7.429l 2.964-2.946q 0.643-0.679 1.607-0.679 q 0.946,0 1.625,0.679l 4.196,4.179q 0.661,0.696 0.661,1.625z"></path></g></svg>