<?xml version="1.0" encoding="utf-8"?> <!-- Generator: IcoMoon.io --> <!DOCTYPE svg PUBLIC "-//W3C//DTD SVG 1.1//EN" "http://www.w3.org/Graphics/SVG/1.1/DTD/svg11.dtd"> <svg fill="#333333" xmlns:xlink="http://www.w3.org/1999/xlink" xmlns="http://www.w3.org/2000/svg" width="32" height="32" viewBox="0 0 32 32"><g><path d="M 24.571,2.857q 0.786,0.929 0.214,2.643t-1.929,3.071l-2.875,2.875l 2.857,12.429q 0.089,0.339 -0.214,0.589l-2.286,1.714q-0.125,0.107 -0.339,0.107q-0.071,0 -0.125-0.018q-0.268-0.054 -0.375-0.286l-4.982-9.071l-4.625,4.625l 0.946,3.464q 0.089,0.304 -0.143,0.554l-1.714,1.714q-0.161,0.161 -0.411,0.161l-0.036,0 q-0.268-0.036 -0.429-0.232l-3.375-4.5l-4.5-3.375q-0.196-0.125 -0.232-0.411q-0.018-0.232 0.161-0.446l 1.714-1.732q 0.161-0.161 0.411-0.161 q 0.107,0 0.143,0.018l 3.464,0.946l 4.625-4.625l-9.071-4.982q-0.25-0.143 -0.304-0.429q-0.036-0.286 0.161-0.482l 2.286-2.286q 0.25-0.232 0.536-0.143l 11.875,2.839l 2.857-2.857q 1.357-1.357 3.071-1.929t 2.643,0.214z"></path></g></svg>