<?xml version="1.0" encoding="utf-8"?> <!-- Generator: IcoMoon.io --> <!DOCTYPE svg PUBLIC "-//W3C//DTD SVG 1.1//EN" "http://www.w3.org/Graphics/SVG/1.1/DTD/svg11.dtd"> <svg fill="#333333" xmlns:xlink="http://www.w3.org/1999/xlink" xmlns="http://www.w3.org/2000/svg" width="32" height="32" viewBox="0 0 32 32"><g><path d="M 6.857,27.429l 16,0 l0-4.571 l-16,0 l0,4.571 zM 6.857,16l 16,0 l0-6.857 l-2.857,0 q-0.714,0 -1.214-0.5t-0.5-1.214l0-2.857 l-11.429,0 l0,11.429 zM 27.429,17.143q0-0.464 -0.339-0.804t-0.804-0.339t-0.804,0.339t-0.339,0.804t 0.339,0.804t 0.804,0.339t 0.804-0.339t 0.339-0.804zM 29.714,17.143l0,7.429 q0,0.232 -0.17,0.402t-0.402,0.17l-4,0 l0,2.857 q0,0.714 -0.5,1.214t-1.214,0.5l-17.143,0 q-0.714,0 -1.214-0.5t-0.5-1.214 l0-2.857 l-4,0 q-0.232,0 -0.402-0.17t-0.17-0.402l0-7.429 q0-1.411 1.009-2.42t 2.42-1.009l 1.143,0 l0-9.714 q0-0.714 0.5-1.214t 1.214-0.5l 12,0 q 0.714,0 1.571,0.357t 1.357,0.857l 2.714,2.714q 0.5,0.5 0.857,1.357t 0.357,1.571l0,4.571 l 1.143,0 q 1.411,0 2.42,1.009t 1.009,2.42z"></path></g></svg>