<?xml version="1.0" encoding="utf-8"?> <!-- Generator: IcoMoon.io --> <!DOCTYPE svg PUBLIC "-//W3C//DTD SVG 1.1//EN" "http://www.w3.org/Graphics/SVG/1.1/DTD/svg11.dtd"> <svg fill="#333333" xmlns:xlink="http://www.w3.org/1999/xlink" xmlns="http://www.w3.org/2000/svg" width="32" height="32" viewBox="0 0 32 32"><g><path d="M 29.714,19.607q0,1.446 -0.795,2.411t-2.205,0.964q-0.732,0 -1.384-0.313t-1.054-0.679t-1.009-0.679t-1.268-0.313q-1.964,0 -1.964,2.214q0,0.696 0.286,2.054t 0.268,2.054l0,0.089 q-0.393,0 -0.589,0.018q-0.607,0.054 -1.741,0.205t-2.063,0.241t-1.75,0.089q-1.089,0 -1.839-0.473t-0.75-1.491q0-0.661 0.313-1.268t 0.679-1.009t 0.679-1.054t 0.313-1.384q0-1.411 -0.964-2.205 t-2.411-0.795q-1.5,0 -2.554,0.813t-1.054,2.277q0,0.768 0.268,1.482t 0.598,1.152t 0.598,0.946t 0.268,0.902q0,0.804 -0.821,1.589q-0.661,0.625 -2.089,0.625q-1.696,0 -4.375-0.429q-0.161-0.036 -0.491-0.071t-0.491-0.071l-0.232-0.036q-0.018,0 -0.054-0.018q-0.036,0 -0.036-0.018l0-18.286 q 0.036,0.018 0.313,0.063t 0.607,0.089t 0.384,0.063q 2.679,0.429 4.375,0.429q 1.429,0 2.089-0.625q 0.821-0.786 0.821-1.589 q0-0.393 -0.268-0.902t-0.598-0.946t-0.598-1.152t-0.268-1.482q0-1.464 1.054-2.277t 2.571-0.813q 1.429,0 2.393,0.795t 0.964,2.205q0,0.732 -0.313,1.384t-0.679,1.054t-0.679,1.009t-0.313,1.268q0,1.018 0.75,1.491t 1.839,0.473q 1.143,0 3.214-0.268t 2.911-0.304l0,0.036 q-0.018,0.036 -0.063,0.313t-0.089,0.607t-0.063,0.384q-0.429,2.679 -0.429,4.375q0,1.429 0.625,2.089 q 0.786,0.821 1.589,0.821q 0.393,0 0.902-0.268t 0.946-0.598t 1.152-0.598t 1.482-0.268q 1.464,0 2.277,1.054t 0.813,2.554z"></path></g></svg>