<?xml version="1.0" encoding="utf-8"?> <!-- Generator: IcoMoon.io --> <!DOCTYPE svg PUBLIC "-//W3C//DTD SVG 1.1//EN" "http://www.w3.org/Graphics/SVG/1.1/DTD/svg11.dtd"> <svg fill="#333333" xmlns:xlink="http://www.w3.org/1999/xlink" xmlns="http://www.w3.org/2000/svg" width="32" height="32" viewBox="0 0 32 32"><g><path d="M 16,24.571l0-3.429 q0-0.25 -0.161-0.411t-0.411-0.161l-3.429,0 q-0.25,0 -0.411,0.161t-0.161,0.411l0,3.429 q0,0.25 0.161,0.411t 0.411,0.161l 3.429,0 q 0.25,0 0.411-0.161t 0.161-0.411zM 20.571,12.571q0-1.571 -0.991-2.911t-2.473-2.071t-3.036-0.732q-4.339,0 -6.625,3.804q-0.268,0.429 0.143,0.75l 2.357,1.786q 0.125,0.107 0.339,0.107q 0.286,0 0.446-0.214q 0.946-1.214 1.536-1.643q 0.607-0.429 1.536-0.429q 0.857,0 1.527,0.464t 0.67,1.054 q0,0.679 -0.357,1.089t-1.214,0.804q-1.125,0.5 -2.063,1.545t-0.938,2.241l0,0.643 q0,0.25 0.161,0.411t 0.411,0.161l 3.429,0 q 0.25,0 0.411-0.161t 0.161-0.411q0-0.339 0.384-0.884t 0.973-0.884q 0.571-0.321 0.875-0.509t 0.821-0.625t 0.795-0.857t 0.5-1.080t 0.223-1.446zM 27.429,16q0,3.732 -1.839,6.884t-4.991,4.991t-6.884,1.839t-6.884-1.839t-4.991-4.991 t-1.839-6.884t 1.839-6.884t 4.991-4.991t 6.884-1.839t 6.884,1.839t 4.991,4.991t 1.839,6.884z"></path></g></svg>