<?xml version="1.0" encoding="utf-8"?> <!-- Generator: IcoMoon.io --> <!DOCTYPE svg PUBLIC "-//W3C//DTD SVG 1.1//EN" "http://www.w3.org/Graphics/SVG/1.1/DTD/svg11.dtd"> <svg fill="#333333" xmlns:xlink="http://www.w3.org/1999/xlink" xmlns="http://www.w3.org/2000/svg" width="32" height="32" viewBox="0 0 32 32"><g><path d="M 13.714,17.143l0,6.857 q0,1.429 -1,2.429t-2.429,1l-6.857,0 q-1.429,0 -2.429-1t-1-2.429l0-12.571 q0-1.857 0.723-3.545t 1.955-2.92t 2.92-1.955t 3.545-0.723l 1.143,0 q 0.464,0 0.804,0.339t 0.339,0.804l0,2.286 q0,0.464 -0.339,0.804t-0.804,0.339l-1.143,0 q-1.893,0 -3.232,1.339t-1.339,3.232l0,0.571 q0,0.714 0.5,1.214t 1.214,0.5l 4,0 q 1.429,0 2.429,1t 1,2.429z M 29.714,17.143l0,6.857 q0,1.429 -1,2.429t-2.429,1l-6.857,0 q-1.429,0 -2.429-1t-1-2.429l0-12.571 q0-1.857 0.723-3.545t 1.955-2.92t 2.92-1.955t 3.545-0.723l 1.143,0 q 0.464,0 0.804,0.339t 0.339,0.804l0,2.286 q0,0.464 -0.339,0.804t-0.804,0.339l-1.143,0 q-1.893,0 -3.232,1.339t-1.339,3.232l0,0.571 q0,0.714 0.5,1.214t 1.214,0.5l 4,0 q 1.429,0 2.429,1t 1,2.429z"></path></g></svg>