<?xml version="1.0" encoding="utf-8"?> <!-- Generator: IcoMoon.io --> <!DOCTYPE svg PUBLIC "-//W3C//DTD SVG 1.1//EN" "http://www.w3.org/Graphics/SVG/1.1/DTD/svg11.dtd"> <svg fill="#333333" xmlns:xlink="http://www.w3.org/1999/xlink" xmlns="http://www.w3.org/2000/svg" width="32" height="32" viewBox="0 0 32 32"><g><path d="M 26.982,18.857q0,0.089 -0.018,0.125q-1.143,4.786 -4.786,7.759t-8.536,2.973q-2.607,0 -5.045-0.982t-4.348-2.804l-2.304,2.304q-0.339,0.339 -0.804,0.339t-0.804-0.339t-0.339-0.804l0-8 q0-0.464 0.339-0.804t 0.804-0.339l 8,0 q 0.464,0 0.804,0.339t 0.339,0.804t-0.339,0.804l-2.446,2.446q 1.268,1.179 2.875,1.821t 3.339,0.643q 2.393,0 4.464-1.161t 3.321-3.196q 0.196-0.304 0.946-2.089 q 0.143-0.411 0.536-0.411l 3.429,0 q 0.232,0 0.402,0.17t 0.17,0.402zM 27.429,4.571l0,8 q0,0.464 -0.339,0.804t-0.804,0.339l-8,0 q-0.464,0 -0.804-0.339t-0.339-0.804t 0.339-0.804l 2.464-2.464q-2.643-2.446 -6.232-2.446q-2.393,0 -4.464,1.161t-3.321,3.196q-0.196,0.304 -0.946,2.089q-0.143,0.411 -0.536,0.411l-3.554,0 q-0.232,0 -0.402-0.17t-0.17-0.402l0-0.125 q 1.161-4.786 4.821-7.759t 8.571-2.973 q 2.607,0 5.071,0.991t 4.375,2.795l 2.321-2.304q 0.339-0.339 0.804-0.339t 0.804,0.339t 0.339,0.804z"></path></g></svg>