<?xml version="1.0" encoding="utf-8"?> <!-- Generator: IcoMoon.io --> <!DOCTYPE svg PUBLIC "-//W3C//DTD SVG 1.1//EN" "http://www.w3.org/Graphics/SVG/1.1/DTD/svg11.dtd"> <svg fill="#333333" xmlns:xlink="http://www.w3.org/1999/xlink" xmlns="http://www.w3.org/2000/svg" width="32" height="32" viewBox="0 0 32 32"><g><path d="M 23.179,23.607q0,0.714 -0.5,1.214l-2.429,2.429q-0.5,0.5 -1.214,0.5t-1.214-0.5l-5.25-5.25l-5.25,5.25q-0.5,0.5 -1.214,0.5t-1.214-0.5l-2.429-2.429q-0.5-0.5 -0.5-1.214t 0.5-1.214l 5.25-5.25l-5.25-5.25q-0.5-0.5 -0.5-1.214t 0.5-1.214l 2.429-2.429q 0.5-0.5 1.214-0.5t 1.214,0.5l 5.25,5.25l 5.25-5.25q 0.5-0.5 1.214-0.5t 1.214,0.5l 2.429,2.429q 0.5,0.5 0.5,1.214 t-0.5,1.214l-5.25,5.25l 5.25,5.25q 0.5,0.5 0.5,1.214z"></path></g></svg>