<?xml version="1.0" encoding="utf-8"?> <!-- Generator: IcoMoon.io --> <!DOCTYPE svg PUBLIC "-//W3C//DTD SVG 1.1//EN" "http://www.w3.org/Graphics/SVG/1.1/DTD/svg11.dtd"> <svg fill="#333333" xmlns:xlink="http://www.w3.org/1999/xlink" xmlns="http://www.w3.org/2000/svg" width="32" height="32" viewBox="0 0 32 32"><g><path d="M 27.429,4.571l0,8 q0,0.464 -0.339,0.804t-0.804,0.339l-8,0 q-0.75,0 -1.054-0.714q-0.304-0.696 0.25-1.232l 2.464-2.464q-2.643-2.446 -6.232-2.446q-1.857,0 -3.545,0.723t-2.92,1.955t-1.955,2.92t-0.723,3.545t 0.723,3.545t 1.955,2.92t 2.92,1.955t 3.545,0.723q 2.125,0 4.018-0.929t 3.196-2.625q 0.125-0.179 0.411-0.214q 0.25,0 0.446,0.161 l 2.446,2.464q 0.161,0.143 0.17,0.366t-0.134,0.402q-1.946,2.357 -4.714,3.652t-5.839,1.295q-2.786,0 -5.321-1.089t-4.375-2.929t-2.929-4.375t-1.089-5.321t 1.089-5.321t 2.929-4.375t 4.375-2.929t 5.321-1.089q 2.625,0 5.080,0.991t 4.366,2.795l 2.321-2.304q 0.518-0.554 1.25-0.25q 0.696,0.304 0.696,1.054z"></path></g></svg>