<?xml version="1.0" encoding="utf-8"?> <!-- Generator: IcoMoon.io --> <!DOCTYPE svg PUBLIC "-//W3C//DTD SVG 1.1//EN" "http://www.w3.org/Graphics/SVG/1.1/DTD/svg11.dtd"> <svg fill="#333333" xmlns:xlink="http://www.w3.org/1999/xlink" xmlns="http://www.w3.org/2000/svg" width="32" height="32" viewBox="0 0 32 32"><g><path d="M 9.143,22.857q0-0.946 -0.67-1.616t-1.616-0.67t-1.616,0.67t-0.67,1.616t 0.67,1.616t 1.616,0.67t 1.616-0.67t 0.67-1.616zM 15.411,24.536q-0.232-4.143 -3.161-7.071t-7.071-3.161q-0.25-0.018 -0.429,0.161t-0.179,0.411l0,2.286 q0,0.232 0.152,0.393t 0.384,0.179q 2.75,0.196 4.714,2.161t 2.161,4.714q 0.018,0.232 0.179,0.384t 0.393,0.152l 2.286,0 q 0.232,0 0.411-0.179 t 0.161-0.429zM 22.268,24.554q-0.089-2.75 -1-5.313t-2.491-4.643t-3.661-3.661t-4.643-2.491t-5.313-1q-0.25-0.018 -0.411,0.161q-0.179,0.179 -0.179,0.411l0,2.286 q0,0.232 0.161,0.393t 0.393,0.179q 3.643,0.125 6.75,1.991t 4.973,4.973t 1.991,6.75q 0.018,0.232 0.179,0.393t 0.393,0.161l 2.286,0 q 0.232,0 0.411-0.179q 0.196-0.161 0.161-0.411zM 27.429,7.429l0,17.143 q0,2.125 -1.509,3.634 t-3.634,1.509l-17.143,0 q-2.125,0 -3.634-1.509t-1.509-3.634l0-17.143 q0-2.125 1.509-3.634t 3.634-1.509l 17.143,0 q 2.125,0 3.634,1.509t 1.509,3.634z"></path></g></svg>