<?xml version="1.0" encoding="utf-8"?> <!-- Generator: IcoMoon.io --> <!DOCTYPE svg PUBLIC "-//W3C//DTD SVG 1.1//EN" "http://www.w3.org/Graphics/SVG/1.1/DTD/svg11.dtd"> <svg fill="#333333" xmlns:xlink="http://www.w3.org/1999/xlink" xmlns="http://www.w3.org/2000/svg" width="32" height="32" viewBox="0 0 32 32"><g><path d="M 19.429,17.143l0-11.429 l-8,0 l0,20.304 q 2.125-1.125 3.804-2.446q 4.196-3.286 4.196-6.429zM 22.857,3.429l0,13.714 q0,1.536 -0.598,3.045t-1.482,2.679t-2.107,2.277t-2.259,1.839t-2.161,1.384t-1.598,0.884t-0.759,0.357q-0.214,0.107 -0.464,0.107t-0.464-0.107q-0.286-0.125 -0.759-0.357t-1.598-0.884t-2.161-1.384t-2.259-1.839t-2.107-2.277t-1.482-2.679 t-0.598-3.045l0-13.714 q0-0.464 0.339-0.804t 0.804-0.339l 20.571,0 q 0.464,0 0.804,0.339t 0.339,0.804z"></path></g></svg>