<?xml version="1.0" encoding="utf-8"?> <!-- Generator: IcoMoon.io --> <!DOCTYPE svg PUBLIC "-//W3C//DTD SVG 1.1//EN" "http://www.w3.org/Graphics/SVG/1.1/DTD/svg11.dtd"> <svg fill="#333333" xmlns:xlink="http://www.w3.org/1999/xlink" xmlns="http://www.w3.org/2000/svg" width="32" height="32" viewBox="0 0 32 32"><g><path d="M 16,0 C 7.289,0 0.204,6.961 0.005,15.624 C 0.19,8.066 5.937,2 13,2 C 20.18,2 26,8.268 26,16 C 26,17.657 27.343,19 29,19 C 30.657,19 32,17.657 32,16 C 32,7.163 24.837,0 16,0 ZM 16,32 C 24.711,32 31.796,25.039 31.995,16.376 C 31.81,23.934 26.063,30 19,30 C 11.82,30 6,23.732 6,16 C 6,14.343 4.657,13 3,13 C 1.343,13 0,14.343 0,16 C 0,24.837 7.163,32 16,32 Z"></path></g></svg>