<?xml version="1.0" encoding="utf-8"?> <!-- Generator: IcoMoon.io --> <!DOCTYPE svg PUBLIC "-//W3C//DTD SVG 1.1//EN" "http://www.w3.org/Graphics/SVG/1.1/DTD/svg11.dtd"> <svg fill="#333333" xmlns:xlink="http://www.w3.org/1999/xlink" xmlns="http://www.w3.org/2000/svg" width="32" height="32" viewBox="0 0 32 32"><g><path d="M 32,16c-0.040-2.089-0.493-4.172-1.331-6.077c-0.835-1.906-2.046-3.633-3.533-5.060 c-1.486-1.428-3.248-2.557-5.156-3.302C 20.075,0.814, 18.025,0.457, 16,0.5c-2.025,0.040-4.042,0.48-5.885,1.292 c-1.845,0.809-3.517,1.983-4.898,3.424c-1.382,1.44-2.474,3.147-3.193,4.994C 1.301,12.056, 0.957,14.039, 1,16 c 0.040,1.961, 0.468,3.911, 1.254,5.694c 0.784,1.784, 1.921,3.401, 3.316,4.736c 1.394,1.336, 3.046,2.391, 4.832,3.085 C 12.187,30.212, 14.103,30.543, 16,30.5c 1.897-0.040, 3.78-0.455, 5.502-1.216c 1.723-0.759, 3.285-1.859, 4.574-3.208 c 1.29-1.348, 2.308-2.945, 2.977-4.67c 0.407-1.046, 0.684-2.138, 0.829-3.244c 0.039,0.002, 0.078,0.004, 0.118,0.004 c 1.105,0, 2-0.895, 2-2c0-0.056-0.003-0.112-0.007-0.167L 32,16 z M 28.822,21.311c-0.734,1.663-1.796,3.169-3.099,4.412 c-1.302,1.244-2.844,2.225-4.508,2.868C 19.552,29.237, 17.769,29.543, 16,29.5c-1.769-0.041-3.519-0.429-5.119-1.14 c-1.602-0.708-3.053-1.734-4.25-2.991c-1.198-1.256-2.142-2.743-2.76-4.346C 3.25,19.421, 2.957,17.704, 3,16 c 0.041-1.705, 0.416-3.388, 1.102-4.928c 0.683-1.541, 1.672-2.937, 2.883-4.088c 1.21-1.152, 2.642-2.058, 4.184-2.652 C 12.71,3.737, 14.36,3.457, 16,3.5c 1.641,0.041, 3.257,0.404, 4.736,1.064c 1.48,0.658, 2.821,1.609, 3.926,2.774 c 1.106,1.164, 1.975,2.54, 2.543,4.021C 27.776,12.841, 28.042,14.424, 28,16l 0.007,0 c-0.004,0.055-0.007,0.111-0.007,0.167 c0,1.032, 0.781,1.88, 1.784,1.988C 29.589,19.243, 29.267,20.305, 28.822,21.311z"></path></g></svg>