<?xml version="1.0" encoding="utf-8"?> <!-- Generator: IcoMoon.io --> <!DOCTYPE svg PUBLIC "-//W3C//DTD SVG 1.1//EN" "http://www.w3.org/Graphics/SVG/1.1/DTD/svg11.dtd"> <svg fill="#333333" xmlns:xlink="http://www.w3.org/1999/xlink" xmlns="http://www.w3.org/2000/svg" width="32" height="32" viewBox="0 0 32 32"><g><path d="M 29.714,11.554q0,0.393 -0.464,0.857l-6.482,6.321l 1.536,8.929q 0.018,0.125 0.018,0.357q0,0.375 -0.188,0.634t-0.545,0.259q-0.339,0 -0.714-0.214l-8.018-4.214l-8.018,4.214q-0.393,0.214 -0.714,0.214q-0.375,0 -0.563-0.259t-0.188-0.634q0-0.107 0.036-0.357l 1.536-8.929l-6.5-6.321q-0.446-0.482 -0.446-0.857q0-0.661 1-0.821l 8.964-1.304l 4.018-8.125q 0.339-0.732 0.875-0.732t 0.875,0.732l 4.018,8.125 l 8.964,1.304q 1,0.161 1,0.821z"></path></g></svg>