<?xml version="1.0" encoding="utf-8"?> <!-- Generator: IcoMoon.io --> <!DOCTYPE svg PUBLIC "-//W3C//DTD SVG 1.1//EN" "http://www.w3.org/Graphics/SVG/1.1/DTD/svg11.dtd"> <svg fill="#333333" xmlns:xlink="http://www.w3.org/1999/xlink" xmlns="http://www.w3.org/2000/svg" width="32" height="32" viewBox="0 0 32 32"><g><path d="M 4,28 L 32,28 L 32,32 L 0,32 L 0,0 L 4,0 ZM 9,26 C 7.343,26 6,24.657 6,23 C 6,21.343 7.343,20 9,20 C 9.088,20 9.176,20.005 9.262,20.012 L 12.487,14.637 C 12.179,14.167 12,13.604 12,13 C 12,11.343 13.343,10 15,10 C 16.657,10 18,11.343 18,13 C 18,13.604 17.821,14.167 17.513,14.637 L 20.738,20.012 C 20.824,20.005 20.912,20 21,20 C 21.067,20 21.133,20.003 21.198,20.007 L 26.522,10.691 C 26.193,10.209 26,9.627 26,9 C 26,7.343 27.343,6 29,6 C 30.657,6 32,7.343 32,9 C 32,10.657 30.657,12 29,12 C 28.933,12 28.867,11.997 28.802,11.993 L 23.478,21.309 C 23.807,21.791 24,22.373 24,23 C 24,24.657 22.657,26 21,26 C 19.343,26 18,24.657 18,23 C 18,22.396 18.179,21.833 18.487,21.362 L 15.262,15.988 C 15.176,15.995 15.088,16 15,16 C 14.912,16 14.824,15.995 14.738,15.988 L 11.513,21.363 C 11.821,21.833 12,22.396 12,23 C 12,24.657 10.657,26 9,26 Z"></path></g></svg>