<?xml version="1.0" encoding="utf-8"?> <!-- Generator: IcoMoon.io --> <!DOCTYPE svg PUBLIC "-//W3C//DTD SVG 1.1//EN" "http://www.w3.org/Graphics/SVG/1.1/DTD/svg11.dtd"> <svg fill="#333333" xmlns:xlink="http://www.w3.org/1999/xlink" xmlns="http://www.w3.org/2000/svg" width="32" height="32" viewBox="0 0 32 32"><g><path d="M 11.429,25.143q0-0.464 -0.339-0.804t-0.804-0.339t-0.804,0.339t-0.339,0.804t 0.339,0.804t 0.804,0.339t 0.804-0.339t 0.339-0.804zM 18.286,22.286l0-17.143 q0-0.232 -0.17-0.402t-0.402-0.17l-14.857,0 q-0.232,0 -0.402,0.17t-0.17,0.402l0,17.143 q0,0.232 0.17,0.402t 0.402,0.17l 14.857,0 q 0.232,0 0.402-0.17t 0.17-0.402zM 20.571,5.143l0,19.429 q0,1.179 -0.839,2.018t-2.018,0.839l-14.857,0 q-1.179,0 -2.018-0.839t-0.839-2.018l0-19.429 q0-1.179 0.839-2.018t 2.018-0.839l 14.857,0 q 1.179,0 2.018,0.839t 0.839,2.018z"></path></g></svg>