<?xml version="1.0" encoding="utf-8"?> <!-- Generator: IcoMoon.io --> <!DOCTYPE svg PUBLIC "-//W3C//DTD SVG 1.1//EN" "http://www.w3.org/Graphics/SVG/1.1/DTD/svg11.dtd"> <svg fill="#333333" xmlns:xlink="http://www.w3.org/1999/xlink" xmlns="http://www.w3.org/2000/svg" width="32" height="32" viewBox="0 0 32 32"><g><path d="M 9.143,22.286l0,3.429 q0,0.714 -0.5,1.214t-1.214,0.5l-5.714,0 q-0.714,0 -1.214-0.5t-0.5-1.214l0-3.429 q0-0.714 0.5-1.214t 1.214-0.5l 5.714,0 q 0.714,0 1.214,0.5t 0.5,1.214zM 9.143,13.143l0,3.429 q0,0.714 -0.5,1.214t-1.214,0.5l-5.714,0 q-0.714,0 -1.214-0.5t-0.5-1.214l0-3.429 q0-0.714 0.5-1.214t 1.214-0.5l 5.714,0 q 0.714,0 1.214,0.5t 0.5,1.214zM 32,22.286l0,3.429 q0,0.714 -0.5,1.214t-1.214,0.5l-17.143,0 q-0.714,0 -1.214-0.5t-0.5-1.214l0-3.429 q0-0.714 0.5-1.214t 1.214-0.5l 17.143,0 q 0.714,0 1.214,0.5t 0.5,1.214zM 9.143,4l0,3.429 q0,0.714 -0.5,1.214t-1.214,0.5l-5.714,0 q-0.714,0 -1.214-0.5t-0.5-1.214l0-3.429 q0-0.714 0.5-1.214t 1.214-0.5l 5.714,0 q 0.714,0 1.214,0.5t 0.5,1.214zM 32,13.143l0,3.429 q0,0.714 -0.5,1.214t-1.214,0.5l-17.143,0 q-0.714,0 -1.214-0.5t-0.5-1.214l0-3.429 q0-0.714 0.5-1.214t 1.214-0.5 l 17.143,0 q 0.714,0 1.214,0.5t 0.5,1.214zM 32,4l0,3.429 q0,0.714 -0.5,1.214t-1.214,0.5l-17.143,0 q-0.714,0 -1.214-0.5t-0.5-1.214l0-3.429 q0-0.714 0.5-1.214t 1.214-0.5l 17.143,0 q 0.714,0 1.214,0.5t 0.5,1.214z"></path></g></svg>