<?xml version="1.0" encoding="utf-8"?> <!-- Generator: IcoMoon.io --> <!DOCTYPE svg PUBLIC "-//W3C//DTD SVG 1.1//EN" "http://www.w3.org/Graphics/SVG/1.1/DTD/svg11.dtd"> <svg fill="#333333" xmlns:xlink="http://www.w3.org/1999/xlink" xmlns="http://www.w3.org/2000/svg" width="32" height="32" viewBox="0 0 32 32"><g><path d="M 4.571,8q0-0.464 -0.339-0.804t-0.804-0.339t-0.804,0.339t-0.339,0.804t 0.339,0.804t 0.804,0.339t 0.804-0.339t 0.339-0.804zM 25.143,18.286q0-0.625 -0.384-1.446t-0.955-0.839q 0.268-0.304 0.446-0.848t 0.179-0.991q0-1.232 -0.946-2.125q 0.321-0.571 0.321-1.232t-0.313-1.313t-0.848-0.938q 0.089-0.536 0.089-1q0-1.518 -0.875-2.25t-2.429-0.732l-2.286,0 q-2.339,0 -6.107,1.304q-0.089,0.036 -0.518,0.188 t-0.634,0.223t-0.625,0.205t-0.679,0.196t-0.589,0.116t-0.563,0.054l-0.571,0 l0,11.429 l 0.571,0 q 0.286,0 0.634,0.161t 0.714,0.482t 0.688,0.634t 0.714,0.786t 0.616,0.759t 0.563,0.732t 0.411,0.536q 0.982,1.214 1.375,1.625q 0.732,0.768 1.063,1.955t 0.545,2.241t 0.679,1.518q 1.714,0 2.286-0.839t 0.571-2.589q0-1.054 -0.857-2.866t-0.857-2.848l 6.286,0 q 0.893,0 1.589-0.688t 0.696-1.598z M 27.429,18.304q0,1.839 -1.357,3.196t-3.214,1.357l-3.143,0 q 0.857,1.768 0.857,3.429q0,2.107 -0.625,3.321q-0.625,1.232 -1.821,1.813t-2.696,0.58q-0.911,0 -1.607-0.661q-0.607-0.589 -0.964-1.464t-0.455-1.616t-0.313-1.509t-0.554-1.143q-0.857-0.893 -1.911-2.268q-1.804-2.339 -2.446-2.768l-4.893,0 q-0.946,0 -1.616-0.67t-0.67-1.616l0-11.429 q0-0.946 0.67-1.616t 1.616-0.67 l 5.143,0 q 0.393,0 2.464-0.714q 2.286-0.786 3.982-1.179t 3.571-0.393l 2,0 q 2.5,0 4.045,1.411t 1.527,3.857l0,0.089 q 1.071,1.375 1.071,3.179q0,0.393 -0.054,0.768q 0.679,1.196 0.679,2.571q0,0.643 -0.161,1.232q 0.875,1.321 0.875,2.911z"></path></g></svg>