<?xml version="1.0" encoding="utf-8"?> <!-- Generator: IcoMoon.io --> <!DOCTYPE svg PUBLIC "-//W3C//DTD SVG 1.1//EN" "http://www.w3.org/Graphics/SVG/1.1/DTD/svg11.dtd"> <svg fill="#333333" xmlns:xlink="http://www.w3.org/1999/xlink" xmlns="http://www.w3.org/2000/svg" width="32" height="32" viewBox="0 0 32 32"><g><path d="M 4.571,24q0-0.464 -0.339-0.804t-0.804-0.339t-0.804,0.339t-0.339,0.804t 0.339,0.804t 0.804,0.339t 0.804-0.339t 0.339-0.804zM 25.143,13.714q0-0.911 -0.696-1.598t-1.589-0.688l-6.286,0 q0-1.036 0.857-2.848t 0.857-2.866q0-1.75 -0.571-2.589t-2.286-0.839q-0.464,0.464 -0.679,1.518t-0.545,2.241t-1.063,1.955q-0.393,0.411 -1.375,1.625q-0.071,0.089 -0.411,0.536t-0.563,0.732t-0.616,0.759 t-0.714,0.786t-0.688,0.634t-0.714,0.482t-0.634,0.161l-0.571,0 l0,11.429 l 0.571,0 q 0.232,0 0.563,0.054t 0.589,0.116t 0.679,0.196t 0.625,0.205t 0.634,0.223t 0.518,0.188q 3.768,1.304 6.107,1.304l 2.161,0 q 3.429,0 3.429-2.982q0-0.464 -0.089-1q 0.536-0.286 0.848-0.938t 0.313-1.313t-0.321-1.232q 0.946-0.893 0.946-2.125q0-0.446 -0.179-0.991t-0.446-0.848q 0.571-0.018 0.955-0.839t 0.384-1.446zM 27.429,13.696 q0,1.589 -0.875,2.911q 0.161,0.589 0.161,1.232q0,1.375 -0.679,2.571q 0.054,0.375 0.054,0.768q0,1.804 -1.071,3.179q 0.018,2.482 -1.518,3.92t-4.054,1.438l-0.643,0 l-1.661,0 q-1.714,0 -3.384-0.402t-3.866-1.17q-2.071-0.714 -2.464-0.714l-5.143,0 q-0.946,0 -1.616-0.67t-0.67-1.616l0-11.429 q0-0.946 0.67-1.616t 1.616-0.67l 4.893,0 q 0.643-0.429 2.446-2.768q 1.036-1.339 1.911-2.286 q 0.429-0.446 0.634-1.527t 0.545-2.259t 1.107-1.929q 0.696-0.661 1.607-0.661q 1.5,0 2.696,0.58t 1.821,1.813t 0.625,3.321q0,1.661 -0.857,3.429l 3.143,0 q 1.857,0 3.214,1.357t 1.357,3.196z"></path></g></svg>