<?xml version="1.0" encoding="utf-8"?> <!-- Generator: IcoMoon.io --> <!DOCTYPE svg PUBLIC "-//W3C//DTD SVG 1.1//EN" "http://www.w3.org/Graphics/SVG/1.1/DTD/svg11.dtd"> <svg fill="#333333" xmlns:xlink="http://www.w3.org/1999/xlink" xmlns="http://www.w3.org/2000/svg" width="32" height="32" viewBox="0 0 32 32"><g><path d="M 9.143,13.143l0,10.286 q0,0.25 -0.161,0.411t-0.411,0.161l-1.143,0 q-0.25,0 -0.411-0.161t-0.161-0.411l0-10.286 q0-0.25 0.161-0.411t 0.411-0.161l 1.143,0 q 0.25,0 0.411,0.161t 0.161,0.411zM 13.714,13.143l0,10.286 q0,0.25 -0.161,0.411t-0.411,0.161l-1.143,0 q-0.25,0 -0.411-0.161t-0.161-0.411l0-10.286 q0-0.25 0.161-0.411t 0.411-0.161l 1.143,0 q 0.25,0 0.411,0.161t 0.161,0.411zM 18.286,13.143l0,10.286 q0,0.25 -0.161,0.411t-0.411,0.161l-1.143,0 q-0.25,0 -0.411-0.161t-0.161-0.411l0-10.286 q0-0.25 0.161-0.411t 0.411-0.161l 1.143,0 q 0.25,0 0.411,0.161t 0.161,0.411zM 20.571,26.071l0-16.929 l-16,0 l0,16.929 q0,0.393 0.125,0.723t 0.259,0.482t 0.188,0.152l 14.857,0 q 0.054,0 0.188-0.152t 0.259-0.482t 0.125-0.723zM 8.571,6.857l 8,0 l-0.857-2.089q-0.125-0.161 -0.304-0.196l-5.661,0 q-0.179,0.036 -0.304,0.196zM 25.143,7.429l0,1.143 q0,0.25 -0.161,0.411t-0.411,0.161l-1.714,0 l0,16.929 q0,1.482 -0.839,2.563t-2.018,1.080l-14.857,0 q-1.179,0 -2.018-1.045t-0.839-2.527l0-17 l-1.714,0 q-0.25,0 -0.411-0.161t-0.161-0.411l0-1.143 q0-0.25 0.161-0.411t 0.411-0.161l 5.518,0 l 1.25-2.982q 0.268-0.661 0.964-1.125t 1.411-0.464l 5.714,0 q 0.714,0 1.411,0.464t 0.964,1.125l 1.25,2.982l 5.518,0 q 0.25,0 0.411,0.161t 0.161,0.411z"></path></g></svg>