<?xml version="1.0" encoding="utf-8"?> <!-- Generator: IcoMoon.io --> <!DOCTYPE svg PUBLIC "-//W3C//DTD SVG 1.1//EN" "http://www.w3.org/Graphics/SVG/1.1/DTD/svg11.dtd"> <svg fill="#333333" xmlns:xlink="http://www.w3.org/1999/xlink" xmlns="http://www.w3.org/2000/svg" width="32" height="32" viewBox="0 0 32 32"><g><path d="M 18.857,13.714q 0.714,0 1.214,0.5t 0.5,1.214l0,10.286 q0,0.714 -0.5,1.214t-1.214,0.5l-17.143,0 q-0.714,0 -1.214-0.5t-0.5-1.214l0-10.286 q0-0.714 0.5-1.214t 1.214-0.5l 0.571,0 l0-5.714 q0-3.304 2.348-5.652t 5.652-2.348t 5.652,2.348t 2.348,5.652q0,0.464 -0.339,0.804t-0.804,0.339l-1.143,0 q-0.464,0 -0.804-0.339t-0.339-0.804q0-1.893 -1.339-3.232t-3.232-1.339t-3.232,1.339t-1.339,3.232 l0,5.714 l 13.143,0 z"></path></g></svg>