<?xml version="1.0" encoding="utf-8"?> <!-- Generator: IcoMoon.io --> <!DOCTYPE svg PUBLIC "-//W3C//DTD SVG 1.1//EN" "http://www.w3.org/Graphics/SVG/1.1/DTD/svg11.dtd"> <svg fill="#333333" xmlns:xlink="http://www.w3.org/1999/xlink" xmlns="http://www.w3.org/2000/svg" width="32" height="32" viewBox="0 0 32 32"><g><path d="M 22.857,26.286q0-0.464 -0.339-0.804t-0.804-0.339t-0.804,0.339t-0.339,0.804t 0.339,0.804t 0.804,0.339t 0.804-0.339t 0.339-0.804zM 27.429,26.286q0-0.464 -0.339-0.804t-0.804-0.339t-0.804,0.339t-0.339,0.804t 0.339,0.804t 0.804,0.339t 0.804-0.339t 0.339-0.804zM 29.714,22.286l0,5.714 q0,0.714 -0.5,1.214t-1.214,0.5l-26.286,0 q-0.714,0 -1.214-0.5t-0.5-1.214l0-5.714 q0-0.714 0.5-1.214t 1.214-0.5l 7.625,0 q 0.375,1 1.259,1.643 t 1.973,0.643l 4.571,0 q 1.089,0 1.973-0.643t 1.259-1.643l 7.625,0 q 0.714,0 1.214,0.5t 0.5,1.214zM 23.911,10.714q-0.304,0.714 -1.054,0.714l-4.571,0 l0,8 q0,0.464 -0.339,0.804t-0.804,0.339l-4.571,0 q-0.464,0 -0.804-0.339t-0.339-0.804l0-8 l-4.571,0 q-0.75,0 -1.054-0.714q-0.304-0.696 0.25-1.232l 8-8q 0.321-0.339 0.804-0.339t 0.804,0.339l 8,8q 0.554,0.536 0.25,1.232z"></path></g></svg>