<?xml version="1.0" encoding="utf-8"?> <!-- Generator: IcoMoon.io --> <!DOCTYPE svg PUBLIC "-//W3C//DTD SVG 1.1//EN" "http://www.w3.org/Graphics/SVG/1.1/DTD/svg11.dtd"> <svg fill="#333333" xmlns:xlink="http://www.w3.org/1999/xlink" xmlns="http://www.w3.org/2000/svg" width="32" height="32" viewBox="0 0 32 32"><g><path d="M 27.793,23.060c-0.78-1.019-1.653-1.84-2.7-2.486 C 23.473,24.167, 19.86,26.667, 15.667,26.667s-7.807-2.5-9.427-6.093c-1.040,0.647-1.919,1.467-2.699,2.486C 2.987,23.78, 2.686,25.227, 2.667,26 c 0.007,0.2,0,3.333,0,3.333c0,1.473, 1.193,2.667, 2.667,2.667l 20.667,0 c 1.473,0, 2.667-1.193, 2.667-2.667c0,0-0.007-3.133,0-3.333C 28.647,25.227, 28.347,23.78, 27.793,23.060z M 12.046,18.833 c-0.559,0.060-1.093,0.133-1.599,0.22c-0.58,0.147-1.020,0.673-1.020,1.3c0,0.26, 0.073,0.493, 0.2,0.7C 11.027,22.847, 13.213,24, 15.667,24 c 2.393,0, 4.527-1.093, 5.933-2.807c 0.186-0.227, 0.293-0.52, 0.293-0.84c0-0.653-0.473-1.2-1.1-1.313c-0.519-0.094-1.067-0.174-1.653-0.234 C 18.387,18.667, 17.82,18.133, 17.82,17.333c0-0.733, 0.546-1.293, 1.28-1.387c 0.073-0.013, 0.246-0.019, 0.246-0.019 c 3.587-0.254, 6.027-0.981, 7.633-2.367C 27.2,13.327, 27.333,13.013, 27.333,12.667c0-0.693-0.527-1.26-1.2-1.327C 24.153,10.94, 22.667,9.3, 22.667,7.333l0-0.28 C 22.667,3.16, 19.533,0, 15.667,0S 8.667,3.16, 8.667,7.053L 8.667,7.333 c0,1.967-1.487,3.607-3.467,4.007C 4.527,11.407, 4,11.973, 4,12.667c0,0.347, 0.133,0.66, 0.353,0.893 c 1.614,1.387, 4.053,2.113, 7.647,2.367c 0.107,0, 0.207,0.007, 0.3,0.019c 0.746,0.107, 1.213,0.64, 1.213,1.387 C 13.513,18.187, 12.874,18.733, 12.046,18.833z"></path></g></svg>