<?xml version="1.0" encoding="utf-8"?> <!-- Generator: IcoMoon.io --> <!DOCTYPE svg PUBLIC "-//W3C//DTD SVG 1.1//EN" "http://www.w3.org/Graphics/SVG/1.1/DTD/svg11.dtd"> <svg fill="#333333" xmlns:xlink="http://www.w3.org/1999/xlink" xmlns="http://www.w3.org/2000/svg" width="32.0390625" height="32" viewBox="0 0 32.0390625 32"><g><path d="M 18.286,24.554l0-3.393 q0-0.25 -0.17-0.42t-0.402-0.17l-3.429,0 q-0.232,0 -0.402,0.17t-0.17,0.42l0,3.393 q0,0.25 0.17,0.42t 0.402,0.17l 3.429,0 q 0.232,0 0.402-0.17t 0.17-0.42zM 18.25,17.875l 0.321-8.196q0-0.214 -0.179-0.339q-0.232-0.196 -0.429-0.196l-3.929,0 q-0.196,0 -0.429,0.196q-0.179,0.125 -0.179,0.375l 0.304,8.161q0,0.179 0.179,0.295t 0.429,0.116l 3.304,0 q 0.25,0 0.42-0.116t 0.188-0.295zM 18,1.196l 13.714,25.143q 0.625,1.125 -0.036,2.25q-0.304,0.518 -0.83,0.821t-1.134,0.304l-27.429,0 q-0.607,0 -1.134-0.304t-0.83-0.821q-0.661-1.125 -0.036-2.25l 13.714-25.143q 0.304-0.554 0.839-0.875t 1.161-0.321t 1.161,0.321t 0.839,0.875z"></path></g></svg>