<?xml version="1.0" encoding="utf-8"?> <!-- Generator: IcoMoon.io --> <!DOCTYPE svg PUBLIC "-//W3C//DTD SVG 1.1//EN" "http://www.w3.org/Graphics/SVG/1.1/DTD/svg11.dtd"> <svg fill="#333333" xmlns:xlink="http://www.w3.org/1999/xlink" xmlns="http://www.w3.org/2000/svg" width="32" height="32" viewBox="0 0 32 32"><g><path d="M 22.857,16q0-0.661 -0.536-0.964l-9.143-5.714q-0.554-0.357 -1.161-0.036q-0.589,0.321 -0.589,1l0,11.429 q0,0.679 0.589,1q 0.286,0.143 0.554,0.143q 0.357,0 0.607-0.179l 9.143-5.714q 0.536-0.304 0.536-0.964zM 32,16q0,1.714 -0.018,2.679t-0.152,2.438t-0.402,2.634q-0.286,1.304 -1.232,2.196t-2.214,1.036q-3.964,0.446 -11.982,0.446t-11.982-0.446q-1.268-0.143 -2.223-1.036t-1.241-2.196 q-0.25-1.161 -0.384-2.634t-0.152-2.438t-0.018-2.679t 0.018-2.679t 0.152-2.438t 0.402-2.634q 0.286-1.304 1.232-2.196t 2.214-1.036q 3.964-0.446 11.982-0.446t 11.982,0.446q 1.268,0.143 2.223,1.036t 1.241,2.196q 0.25,1.161 0.384,2.634t 0.152,2.438t 0.018,2.679z"></path></g></svg>