<?xml version="1.0" standalone="no"?>
<!DOCTYPE svg PUBLIC "-//W3C//DTD SVG 1.1//EN" "http://www.w3.org/Graphics/SVG/1.1/DTD/svg11.dtd" >
<svg xmlns="http://www.w3.org/2000/svg">
<metadata>
This is a custom SVG font generated by IcoMoon.
<iconset grid="16"></iconset>
</metadata>
<defs>
<font id="icomoon" horiz-adv-x="512" >
<font-face units-per-em="512" ascent="480" descent="-32" />
<missing-glyph horiz-adv-x="512" />
<glyph unicode="&#xe000;" d="M 232.649,331.776c0.00,4.763, 3.867,8.649, 8.722,8.649c 3.301,0.00, 6.098-1.938, 7.607-4.626l 11.154,0.00 l0.00,5.76 l 14.757,0.00 l0.00-19.648 l-14.757,0.00 L 260.133,327.68 
				l-11.154,0.00 c-1.509-2.715-4.297-4.709-7.607-4.709C 236.517,322.971, 232.649,326.921, 232.649,331.776zM 259.675,353.298c0.00-4.837-3.941-8.722-8.731-8.722c-3.273,0.00-6.117,1.911-7.625,4.654l-11.127,0.00 l0.00-5.76 l-14.793,0.00 l0.00,19.675 l 14.793,0.00 
				l0.00-5.751 l 11.127,0.00 c 1.509,2.679, 4.352,4.635, 7.625,4.635C 255.735,362.03, 259.675,358.135, 259.675,353.298zM 232.649,288.613c0.00,4.782, 3.867,8.677, 8.722,8.677c 3.301,0.00, 6.098-1.947, 7.607-4.654l 11.154,0.00 l0.00,5.778 l 14.757,0.00 l0.00-19.648 l-14.757,0.00 l0.00,5.76 
				l-11.154,0.00 c-1.509-2.715-4.297-4.681-7.607-4.681C 236.517,279.835, 232.649,283.758, 232.649,288.613zM 259.675,310.135c0.00-4.837-3.941-8.704-8.731-8.704c-3.273,0.00-6.117,1.893-7.625,4.654l-11.127,0.00 l0.00-5.778 l-14.793,0.00 l0.00,19.703 l 14.793,0.00 
				l0.00-5.778 l 11.127,0.00 c 1.509,2.679, 4.352,4.626, 7.625,4.626C 255.735,318.857, 259.675,314.971, 259.675,310.135zM 259.675,266.99c0.00-4.864-3.941-8.722-8.731-8.722c-3.273,0.00-6.117,1.893-7.625,4.654l-11.127,0.00 l0.00-5.76 l-14.793,0.00 L 217.399,276.846 l 14.793,0.00 l0.00-5.787 
				l 11.127,0.00 c 1.509,2.688, 4.352,4.635, 7.625,4.635C 255.735,275.694, 259.675,271.808, 259.675,266.99zM 232.649,374.921c0.00,4.763, 3.867,8.704, 8.722,8.704c 3.301,0.00, 6.098-1.92, 7.607-4.69l 11.154,0.00 l0.00,5.815 l 14.757,0.00 l0.00-19.675 l-14.757,0.00 l0.00,5.76 
				l-11.154,0.00 c-1.509-2.715-4.297-4.654-7.607-4.654C 236.517,366.171, 232.649,370.085, 232.649,374.921zM 259.675,396.462c0.00-4.837-3.941-8.704-8.731-8.704c-3.273,0.00-6.117,1.893-7.625,4.654l-11.127,0.00 l0.00-5.778 l-14.793,0.00 L 217.399,406.336 l 14.793,0.00 l0.00-5.778 
				l 11.127,0.00 c 1.509,2.679, 4.352,4.635, 7.625,4.635C 255.735,405.193, 259.675,401.298, 259.675,396.462zM 232.649,418.066c0.00,4.782, 3.867,8.722, 8.722,8.722c 3.301,0.00, 6.098-1.92, 7.607-4.681l 11.154,0.00 L 260.133,427.913 l 14.757,0.00 l0.00-19.675 l-14.757,0.00 L 260.133,414.016 
				l-11.154,0.00 c-1.509-2.743-4.297-4.654-7.607-4.654C 236.517,409.362, 232.649,413.248, 232.649,418.066zM 253.385,214.857L 265.143,215.141L 265.143,251.429 l-36.571,0.00 l0.00-36.571 l 12.562,0.00 c-6.437-18.286-10.99-41.417-10.99-49.664c0.00-11.41, 8.448-21.797, 18.935-21.797
				c 10.441,0.00, 18.898,10.935, 18.898,22.345C 267.986,173.979, 259.611,196.571, 253.385,214.857z M 249.152,145.445c-5.275,0.00-9.646,4.361-9.646,9.719
				c0.00,5.349, 4.379,9.728, 9.646,9.728c 5.367,0.00, 9.746-4.379, 9.746-9.728C 258.898,149.806, 254.528,145.445, 249.152,145.445zM 432.777,348.334l 8.704-9.947L 344.247,452.571L 333.989,452.571 l-5.029,0.00 c-1.938,0.00-3.813,0.00-5.742,0.00l-176.00,0.00 
			C 100.041,452.571, 73.143,413.87, 73.143,385.454l0.00-312.475 C 73.143,10.048, 118.848-4.571, 147.227-4.571l 252.37,0.00 C 455.753,4.571, 457.143,44.553, 457.143,72.978L 457.143,320.192 L 432.777,348.334z
			 M 429.714,73.152C 429.714,50.075, 422.117,22.857, 398.455,22.857L 147.977,22.857 C 124.251,22.857, 100.571,50.075, 100.571,73.152L 100.571,385.527 c0.00,23.141, 21.477,42.048, 45.184,42.048
			l 174.949-0.686c-0.549-5.413-0.859-12.087-1.262-16.85l 2.103-71.397c 0.503-17.545, 15.259-32.119, 32.869-32.384l 66.048-1.033
			c 5.961,0.00, 9.253,0.512, 9.253,1.335L 429.714,73.152 z"  />
<glyph unicode="&#xe001;" d="M 310.857,242.286L 325.056,242.286L 292.571,184.393L 292.571,269.714L 232.549,269.714L 182.857,172.087L 182.857,242.286L 201.143,242.286L 201.143,269.714L 118.857,269.714L 118.857,242.286L 137.143,242.286L 137.143,86.857L 197.193,86.857L 237.714,164.974L 237.714,86.857L 294.162,86.857L 373.403,242.286L 393.143,242.286L 393.143,269.714L 310.857,269.714 		zM 423.058,346.048l 8.421-8.805L 333.961,452.571l-10.258,0.00 l-5.029,0.00 c-1.938,0.00-3.813,0.00-5.742,0.00l-176.00,0.00 C 89.755,452.571, 64.00,411.584, 64.00,383.168l0.00-312.475 
			C 64.00,7.762, 108.562-4.571, 136.942-4.571L 389.303-4.571 c 56.165,9.143, 58.697,46.839, 58.697,75.264L 448.00,317.906 L 423.058,346.048z M 420.571,70.866
			C 420.571,47.79, 411.831,22.857, 388.169,22.857L 137.691,22.857 C 113.966,22.857, 91.429,47.79, 91.429,70.866L 91.429,383.241 c0.00,23.141, 20.901,42.048, 44.617,42.048l 174.665-0.686
			c-0.549-5.413-0.997-12.087-1.399-16.85l 2.039-71.397c 0.503-17.545, 15.223-32.119, 32.832-32.384l 66.597-1.024
			c 5.961,0.00, 9.801,0.503, 9.801,1.335L 420.581,70.866 z"  />
<glyph unicode="&#xe002;" d="M 237.714,386.149L 237.714,224.00L 466.286,224.00L 466.286,419.675 		zM 54.857,224.00L 219.429,224.00L 219.429,383.799L 54.857,359.451 		zM 54.857,61.824L 219.429,37.193L 219.429,205.714L 54.857,205.714 		zM 237.714,34.798L 466.286,0.905L 466.286,205.714L 237.714,205.714 		z"  />
<glyph unicode="&#xe003;" d="M 251.566,288.00L 228.571,288.00 l0.00,25.445 c0.00,13.531-13.888,24.512-27.383,24.512c-13.531,0.00-27.474-10.981-27.474-24.512L 173.714,288.00 l-20.169,0.00 
			c-13.522,0.00-24.539-9.335-24.539-22.857s 11.017-22.857, 24.539-22.857L 173.714,242.286 l0.00-26.907 c0.00-13.522, 13.934-24.521, 27.474-24.521c 13.504,0.00, 27.383,10.99, 27.383,24.521
			L 228.571,242.286 l 22.994,0.00 c 13.522,0.00, 24.521,9.335, 24.521,22.857S 265.088,288.00, 251.566,288.00zM 460.763,61.294L 348.224,173.815c 16.393,26.277, 25.893,57.362, 25.893,90.597c0.00,94.793-76.745,171.557-171.529,171.557
			C 107.767,435.968, 30.994,359.205, 30.994,264.411c0.00-94.793, 76.763-171.566, 171.593-171.566c 33.307,0.00, 64.293,9.499, 90.597,25.865l 112.622-112.539
			c 15.095-15.214, 39.808-15.214, 54.958,0.00C 476.023,21.358, 476.023,46.089, 460.763,61.294z M 202.587,141.861
			c-67.648,0.00-122.587,54.903-122.587,122.551c0.00,67.648, 54.93,122.523, 122.587,122.523c 67.621,0.00, 122.496-54.875, 122.496-122.523
			C 325.083,196.763, 270.208,141.861, 202.587,141.861z"  />
<glyph unicode="&#xe004;" d="M 448.037,143.387c-4.965,0.00-9.179-4.014-9.179-8.905L 438.857,114.286 l-45.714,0.00 l0.00-2.222 c 9.143-17.49, 9.143-35.63, 9.143-54.263L 402.286,41.143 l 54.857,0.00 L 457.143,134.482 
			C 457.143,139.365, 452.873,143.387, 448.037,143.387zM 233.125,315.328l 10.057-4.946l-0.649-1.298l-4.827-9.938c-1.719-3.538-0.192-7.781, 3.31-9.49
			c 3.511-1.719, 7.753-0.283, 9.499,3.255l 4.773,9.829l 0.731,1.408l 7.698-3.675c 5.952-2.889, 13.147-0.393, 16.064,5.614
			c 2.944,6.007, 0.421,13.202-5.586,16.119l-30.565,14.802c-6.007,2.944-13.285,0.393-16.146-5.586
			C 224.558,325.413, 227.054,318.162, 233.125,315.328zM 320.411,257.408l-1.426-1.518l-7.415-7.333c-2.734-2.816-2.734-7.305,0.00-10.057c 2.779-2.779, 7.296-2.779, 10.057,0.00
			l 7.214,7.195l 1.664,1.627l 6.007-6.043c 4.69-4.718, 12.361-4.718, 17.07,0.00c 4.727,4.718, 4.727,12.389,0.00,17.106l-24.009,24.009
			c-4.754,4.718-12.379,4.718-17.106,0.00c-4.718-4.69-4.718-12.306,0.00-17.079L 320.411,257.408zM 402.066,155.968c 5.952,2.889, 8.539,10.085, 5.586,16.101l-14.857,30.555c-2.862,6.007-10.112,8.512-16.128,5.614
			c-5.979-2.917-8.485-10.139-5.586-16.146l 4.891-10.139l-2.496-1.179l-8.741-4.242c-3.566-1.664-5.001-5.925-3.282-9.463
			c 1.691-3.575, 5.952-5.029, 9.463-3.319l 8.576,4.133l 2.725,1.298l 3.73-7.671C 388.855,155.52, 396.05,153.015, 402.066,155.968zM 173.714,302.382l0.00,28.901 l0.00,42.862 C 173.714,385.847, 162.853,397.714, 151.168,397.714L 69.55,397.714 C 57.838,397.714, 45.714,385.847, 45.714,374.135L 45.714,59.429 l 328.064,0.00 
			C 372.818,178.286, 283.429,280.137, 173.714,302.382z M 146.286,310.437c0.00-4.946-4.224-8.905-9.143-8.905c-4.891,0.00-9.143,3.959-9.143,8.905l0.00,54.208 
			c0.00,4.919, 4.251,8.905, 9.143,8.905c 4.919,0.00, 9.143-3.995, 9.143-8.905L 146.286,310.437 zM 59.941,24.091C 62.839,22.638, 66.066,22.857, 69.55,22.857l 18.853,0.00 l 62.775,0.00 L 374.857,22.857 l0.00,18.286 L 48.347,41.143 
			C 48.622,32.00, 53.257,27.547, 59.941,24.091z"  />
<glyph unicode="&#xe005;" d="M 154.386,249.627c-1.051,0.558-2.039,1.289-2.962,2.158l-43.794,43.813c-8.018,7.954-5.339,33.856, 16.969,56.146
			c 15.515,15.579, 32.539,21.147, 43.31,21.147c 3.95,0.00, 9.472-0.777, 12.818-4.16l 43.877-43.867c 0.622-0.603, 1.088-1.527, 1.609-2.386
			l 59.648-59.675c 7.488,16.283, 11.538,33.061, 11.538,49.161c0.00,23.241-8.091,44.974-24.393,61.358l-43.776,43.813
			c-15.671,15.643-37.394,24.192-61.321,24.192c-32.174,0.00-65.627-15.022-91.721-41.143c-47.735-47.653-55.113-114.871-16.987-152.997l 43.794-43.877
			c 15.625-15.543, 37.385-24.119, 61.239-24.119c 16.494,0.00, 33.189,4.087, 49.234,11.447L 154.386,249.627zM 448.32,198.007l-43.776,43.877c-27.803,27.694-70.857,31.195-110.555,12.791l 52.782-52.782
			c 1.792-1.755, 3.246-3.776, 4.663-5.787c 1.911-0.631, 3.493-1.527, 4.663-2.661l 43.849-43.785c 7.945-8.018, 5.321-33.883-17.024-56.229
			c-15.543-15.515-32.539-21.056-43.273-21.056c-3.986,0.00-9.435,0.777-12.919,4.023l-43.776,43.895c-1.189,1.161-2.039,2.761-2.697,4.562
			c-1.938,1.481-3.913,2.953-5.806,4.736l-52.754,52.763c-18.405-39.726-14.921-82.779, 12.846-110.482l 43.776-43.785
			c 15.607-15.607, 37.367-24.247, 61.33-24.247c 32.137,0.00, 65.554,15.031, 91.712,41.152c 27.145,27.246, 41.317,60.791, 41.317,91.739
			C 472.667,159.973, 464.649,181.669, 448.32,198.007zM 155.767,320.613c-14.72-14.857-14.72-38.848,0.00-53.577l 128.101-128.101c 14.757-14.738, 38.811-14.738, 53.568,0.00
			c 14.784,14.784, 14.784,38.875,0.00,53.531L 209.362,320.613C 194.615,335.314, 170.56,335.314, 155.767,320.613z"  />
<glyph unicode="&#xe006;" d="M 256.027,428.325c-79.113,0.00-145.426-62.885-145.426-140.571C 110.61,193.481, 219.429,120.997, 228.571,12.608l0.00-4.599 
			c0.00-12.763, 14.665-23.113, 27.419-23.113c 12.727,0.00, 27.438,10.359, 27.438,23.113l0.00,4.599 c 9.143,108.389, 117.915,180.873, 117.915,275.145
			C 401.344,365.431, 335.067,428.325, 256.027,428.325z M 256.027,188.151c-53.632,0.00-96.997,43.438-96.997,96.997s 43.374,96.997, 96.997,96.997
			c 53.522,0.00, 96.969-43.438, 96.969-96.997S 309.55,188.151, 256.027,188.151zM 256.027,345.207c-33.17,0.00-60.023-26.907-60.023-60.059c0.00-33.179, 26.853-60.023, 60.023-60.023
			c 33.115,0.00, 60.023,26.853, 60.023,60.023C 316.05,318.299, 289.143,345.207, 256.027,345.207z M 256.027,262.071c-12.763,0.00-23.077,10.331-23.077,23.086
			c0.00,12.727, 10.322,23.122, 23.077,23.122c 12.718,0.00, 23.095-10.395, 23.095-23.122C 279.122,272.393, 268.754,262.071, 256.027,262.071z"  />
<glyph unicode="&#xe007;" d="M 459.035,138.386l-3.438,3.237L 325.723,271.634l 33.362,33.262
		c 10.432,10.505, 10.432,27.52,0.00,38.062c-10.533,10.432-27.566,10.432-38.062,0.00l-33.353-33.189L 153.81,443.584c-4.014,3.922-9.39,6.281-15.36,6.281
		c-9.728,0.00-18.039-6.418-20.80-15.195l-1.115-3.913c-8.073-25.225-12.535-51.968-12.535-79.963c0.00-65.143, 23.744-124.745, 62.912-170.597
		l-4.151-5.477c-19.246-19.145-30.327-43.493-33.061-68.581c-36.91-9.591-66.258-37.01-77.842-72.229c0.00,0.00-2.533-4.562-2.533-9.527
		C 49.335,12.315, 59.365,4.571, 71.753,4.571l 174.135,0.00 c 12.361,0.00, 22.464,7.744, 22.464,19.803c0.00,6.921-3.081,12.105-3.081,12.105
		c-12.251,35.355-42.414,61.97-80.00,70.857c 2.432,10.734, 7.799,20.645, 16.174,28.983l 5.029,6.418c 44.343-34.277, 99.95-54.674, 160.43-54.674
		c 27.52,0.00, 53.961,4.096, 78.885,12.005c 1.152,0.366, 5.531,2.139, 5.531,2.139c 8.375,3.109, 14.382,11.063, 14.382,20.48
		C 465.719,128.805, 463.159,134.40, 459.035,138.386z"  />
<glyph unicode="&#xe008;" d="M 226.478,233.143l-48.704,0.00 c-4.087,82.286, 25.902,153.134, 91.776,180.27C 182.181,421.623, 103.177,342.857, 87.488,233.143L 37.358,233.143 
			c-15.625,0.00-20.891-13.029-11.767-26.642l 89.92-124.078c 9.216-13.605, 24.192-14.062, 33.353-0.366l 89.39,124.626
			C 247.461,220.343, 242.139,233.143, 226.478,233.143zM 486.373,241.49l-89.957,124.059c-9.152,13.641-24.192,14.098-33.298,0.439l-89.426-124.672
			C 264.622,227.666, 269.87,214.857, 285.541,214.857l 48.649,0.00 c 4.142-82.286-25.856-153.106-91.776-180.306C 329.847,26.377, 408.777,105.143, 424.576,214.857l 50.075,0.00 
			C 490.295,214.857, 495.534,227.877, 486.373,241.49z"  />
<glyph unicode="&#xe009;" d="M 443.429,345.115
			l0.00-0.494 L 341.193,457.143l 0.265,0.00 l-11.493,0.00 l-5.513,0.00 c-2.112,0.00-4.169,0.00-6.29,0.00L 125.541,457.143 C 94.482,457.143, 59.429,425.993, 59.429,394.889l0.00-342.007 
			c0.00-31.113, 35.054-62.025, 66.112-62.025l 276.224,0.00 c 31.049,0.00, 59.95,30.912, 59.95,62.025L 461.714,323.456 L 443.429,345.115z M 400.53,9.143L 126.363,9.143 
			c-25.957,0.00-48.649,18.661-48.649,43.931L 77.714,394.971 c0.00,25.335, 21.888,46.025, 47.835,46.025l 191.259-0.75c 1.298,4.059, 2.898,5.659, 4.818,5.65
			c-1.737-0.192-3.209-1.847-4.416-5.65c-1.234-3.831-2.194-9.618-2.944-18.441l 2.194-78.135c 0.549-19.209, 16.649-35.154, 35.922-35.447
			l 76.599-1.125c 6.528,0.00, 11.09,0.558, 14.446,1.454l0.00-255.479 C 443.429,27.803, 426.432,9.143, 400.53,9.143zM 364.846,274.286
			L 138.011,274.286 c-3.008,0.00-5.44-2.048-5.44-4.571s 2.432-4.571, 5.44-4.571l 226.843,0.00 c 2.999,0.00, 5.44,2.048, 5.44,4.571S 367.845,274.286, 364.846,274.286zM 364.846,228.571
			L 138.011,228.571 c-3.008,0.00-5.44-2.048-5.44-4.571s 2.432-4.571, 5.44-4.571l 226.843,0.00 c 2.999,0.00, 5.44,2.048, 5.44,4.571S 367.845,228.571, 364.846,228.571zM 364.846,182.857
			L 138.011,182.857 c-3.008,0.00-5.44-2.048-5.44-4.571s 2.432-4.571, 5.44-4.571l 226.843,0.00 c 2.999,0.00, 5.44,2.048, 5.44,4.571S 367.845,182.857, 364.846,182.857zM 364.846,137.143
			L 138.011,137.143 c-3.008,0.00-5.44-2.048-5.44-4.571s 2.432-4.571, 5.44-4.571l 226.843,0.00 c 2.999,0.00, 5.44,2.048, 5.44,4.571S 367.845,137.143, 364.846,137.143z"  />
<glyph unicode="&#xe00a;" d="M 421.394,50.286L 413.531,50.286 c 0.055,0.00, 0.283,0.594, 0.283,1.152c0.00,60.727-30.427,115.621-79.442,143.589
			c-14.875,8.494-23.36,20.178-23.36,32.283c0.00,12.151, 8.485,22.967, 23.36,31.461C 382.336,286.135, 412.27,342.857, 413.586,397.714l 7.808,0.00 
			c 12.087,0.00, 21.897,10.743, 21.897,22.857S 433.481,443.429, 421.394,443.429L 106.834,443.429 C 94.72,443.429, 84.919,432.686, 84.919,420.571S 94.72,397.714, 106.834,397.714l 7.753,0.00 
			c 1.381-54.857, 31.314-111.634, 79.278-138.999c 14.839-8.43, 23.351-19.813, 23.351-31.963c0.00-12.142-8.521-23.68-23.351-32.174
			c-48.987-27.977-79.451-82.533-79.451-143.259c0.00-0.558, 0.238-1.042, 0.293-1.042l-7.872,0.00 c-12.114,0.00-21.915-10.743-21.915-22.83
			c0.00-12.142, 9.801-22.885, 21.915-22.885L 421.394,4.562 c 12.087,0.00, 21.897,10.743, 21.897,22.885C 443.282,39.543, 433.481,50.286, 421.394,50.286z M 372.215,50.286l-10.377,0.00 
			L 166.391,50.286 l-14.043,0.00 l-9.893,0.00 c 0.055,0.00, 0.32,0.594, 0.32,1.152c0.00,50.533, 24.987,96.009, 65.17,118.949c 23.936,13.577, 37.659,34.313, 37.659,56.933
			c0.00,22.629-13.723,42.487-37.659,56.128C 168.814,305.765, 144.293,352.00, 143.013,397.714l 242.185,0.00 c-1.289-45.714-25.783-92.005-64.914-114.322
			c-23.927-13.641-37.623-34.002-37.623-56.631c0.00-22.592, 13.696-43.209, 37.623-56.814c 40.183-22.939, 65.179-68.078, 65.179-118.619
			c0.00-0.558, 0.265-1.042, 0.32-1.042L 372.215,50.286 zM 264.101,270.72c 2.523,0.00, 4.919,1.024, 6.665,2.816l 29.678,29.851c 2.606,2.67, 3.429,4.763, 1.966,8.21
			C 300.983,315.145, 297.554,315.429, 293.714,315.429l-59.227,0.00 c-3.803,0.00-7.195-0.283-8.658-3.831c-1.463-3.447-0.64-6.528, 2.021-9.198l 29.65-29.358
			C 259.246,271.259, 261.623,270.72, 264.101,270.72zM 270.747,152.201c-1.765,1.755-4.123,2.752-6.647,2.752c-2.478,0.00-4.919-0.987-6.665-2.752l-65.262-65.49
			c-2.633-2.67-3.447-6.729-1.984-10.249c 1.463-3.511, 4.855-5.797, 8.658-5.797l 130.459,0.037c 3.803,0.00, 7.232,2.277, 8.695,5.824
			c 1.426,3.483, 0.658,7.552-2.002,10.213L 270.747,152.201z"  />
<glyph unicode="&#xe00b;" d="M 349.586,397.714L 237.714,397.714 L 237.714,445.559 C 237.714,453.458, 228.462,461.714, 220.59,461.714l-12.791,0.00 C 199.899,461.714, 192.00,453.458, 192.00,445.559l0.00-46.446 
		c-18.286-1.17-45.714-21.184-45.714-45.806l0.00-319.177 C 146.286,8.731, 170.359-13.714, 195.758-13.714l 153.829,0.00 C 374.949-13.714, 393.143,8.731, 393.143,34.13l0.00,319.177 
		C 393.143,378.642, 374.949,397.714, 349.586,397.714z M 237.714,28.873C 237.714,25.554, 234.999,22.857, 231.653,22.857l-15.314,0.00 C 213.001,22.857, 210.286,25.554, 210.286,28.873l0.00,15.397 
		C 210.286,47.589, 213.001,50.286, 216.347,50.286l 15.314,0.00 C 234.999,50.286, 237.714,47.589, 237.714,44.27L 237.714,28.873 z M 237.714,74.597C 237.714,71.269, 234.999,68.571, 231.653,68.571l-15.314,0.00 
		C 213.001,68.571, 210.286,71.269, 210.286,74.597l0.00,15.378 C 210.286,93.303, 213.001,96.00, 216.347,96.00l 15.314,0.00 C 234.999,96.00, 237.714,93.303, 237.714,89.975L 237.714,74.597 z M 237.714,120.238
		C 237.714,116.955, 234.999,114.286, 231.653,114.286l-15.314,0.00 C 213.001,114.286, 210.286,116.955, 210.286,120.238l0.00,15.515 C 210.286,139.045, 213.001,141.714, 216.347,141.714l 15.314,0.00 
		C 234.999,141.714, 237.714,139.045, 237.714,135.762L 237.714,120.238 z M 237.714,156.837C 237.714,153.536, 234.999,150.857, 231.653,150.857l-15.314,0.00 C 213.001,150.857, 210.286,153.536, 210.286,156.837l0.00,15.461 
		C 210.286,175.607, 213.001,178.286, 216.347,178.286l 15.314,0.00 C 234.999,178.286, 237.714,175.607, 237.714,172.306L 237.714,156.837 z M 283.429,28.873C 283.429,25.554, 280.75,22.857, 277.44,22.857l-15.442,0.00 
		C 258.679,22.857, 256.00,25.554, 256.00,28.873l0.00,15.397 C 256.00,47.589, 258.679,50.286, 261.989,50.286l 15.442,0.00 C 280.75,50.286, 283.429,47.589, 283.429,44.27L 283.429,28.873 z M 283.429,74.597
		C 283.429,71.269, 280.75,68.571, 277.44,68.571l-15.442,0.00 C 258.679,68.571, 256.00,71.269, 256.00,74.597l0.00,15.378 C 256.00,93.303, 258.679,96.00, 261.989,96.00l 15.442,0.00 
		C 280.75,96.00, 283.429,93.303, 283.429,89.975L 283.429,74.597 z M 283.429,120.238C 283.429,116.955, 280.75,114.286, 277.44,114.286l-15.442,0.00 C 258.679,114.286, 256.00,116.955, 256.00,120.238l0.00,15.515 
		C 256.00,139.045, 258.679,141.714, 261.989,141.714l 15.442,0.00 C 280.75,141.714, 283.429,139.045, 283.429,135.762L 283.429,120.238 z M 283.429,156.837C 283.429,153.536, 280.75,150.857, 277.44,150.857l-15.442,0.00 
		C 258.679,150.857, 256.00,153.536, 256.00,156.837l0.00,15.461 C 256.00,175.607, 258.679,178.286, 261.989,178.286l 15.442,0.00 C 280.75,178.286, 283.429,175.607, 283.429,172.306L 283.429,156.837 z M 329.143,28.873
		C 329.143,25.554, 326.446,22.857, 323.127,22.857l-15.397,0.00 C 304.411,22.857, 301.714,25.554, 301.714,28.873l0.00,15.397 C 301.714,47.589, 304.411,50.286, 307.73,50.286l 15.397,0.00 
		C 326.446,50.286, 329.143,47.589, 329.143,44.27L 329.143,28.873 z M 329.143,74.597C 329.143,71.269, 326.446,68.571, 323.127,68.571l-15.397,0.00 C 304.411,68.571, 301.714,71.269, 301.714,74.597l0.00,15.378 
		C 301.714,93.303, 304.411,96.00, 307.73,96.00l 15.397,0.00 C 326.446,96.00, 329.143,93.303, 329.143,89.975L 329.143,74.597 z M 329.143,120.238C 329.143,116.955, 326.446,114.286, 323.127,114.286l-15.397,0.00 
		C 304.411,114.286, 301.714,116.955, 301.714,120.238l0.00,15.515 C 301.714,139.045, 304.411,141.714, 307.73,141.714l 15.397,0.00 C 326.446,141.714, 329.143,139.045, 329.143,135.762L 329.143,120.238 z M 329.143,156.837
		C 329.143,153.536, 326.446,150.857, 323.127,150.857l-15.397,0.00 C 304.411,150.857, 301.714,153.536, 301.714,156.837l0.00,15.461 C 301.714,175.607, 304.411,178.286, 307.73,178.286l 15.397,0.00 
		C 326.446,178.286, 329.143,175.607, 329.143,172.306L 329.143,156.837 z M 365.714,252.16c0.00-18.917-16.192-37.303-35.191-37.303L 214.747,214.857 C 195.758,214.857, 182.857,233.243, 182.857,252.16l0.00,68.80 
		c0.00,10.99, 3.895,19.099, 11.867,25.371c 5.915,4.645, 12.014,5.669, 20.014,5.669l 20.123,0.00 l 95.653,0.00 C 349.522,352.00, 365.714,339.95, 365.714,320.96L 365.714,252.16 z"  />
<glyph unicode="&#xe00c;" d="M 474.13,167.799l-80.933,66.688
		c-3.365,2.779-7.643,4.434-12.379,4.434c-5.303,0.00-10.112-2.066-13.65-5.394c-1.344-1.381-13.513-13.851-13.513-13.851
		c-8.421-8.439-22.071-8.439-30.491,0.00l-82.56,82.715c-8.457,8.393-8.457,22.153,0.00,30.555l 13.403,13.458c 3.502,3.557, 5.55,8.439, 5.55,13.742
		s-2.057,9.993-5.376,13.531l-69.358,83.776c-3.611,4.315-9.088,7.141-15.177,7.141c-6.51,0.00-12.169-3.145-15.845-7.927l-1.198-1.591
		c-15.067-20.379-34.734-52.791-34.734-83.182c0.00-83.776, 186.725-270.235, 269.714-270.235c 1.627,0.00, 3.145,0.11, 4.635,0.11
		c 1.445-15.424-3.675-31.323-15.497-43.191c-21.083-21.065-55.25-21.065-76.37,0.00L 164.919,197.806c-28.754,28.754-75.282,28.754-103.991,0.00
		c-28.718-28.745-28.718-75.218,0.00-103.973l 44.462-43.84c 9.618-9.518, 25.115-9.518, 34.734,0.00c 9.518,9.618, 9.518,25.088,0.00,34.715l-44.553,43.73
		c-9.518,9.627-9.518,25.134,0.00,34.743c 9.637,9.509, 25.134,9.509, 34.715,0.00l 135.506-139.173c 40.21-40.338, 105.335-40.338, 145.554,0.00
		c 25.006,24.987, 34.514,59.63, 28.37,92.005c 10.606,5.376, 20.05,11.648, 28.05,17.545c 0.85,0.704, 4.763,3.447, 5.723,4.224
		c 4.453,3.639, 7.287,9.106, 7.287,15.305C 480.777,158.949, 478.199,164.233, 474.13,167.799z"  />
<glyph unicode="&#xe00d;" d="M 259.136,428.562c-75.895,0.00-151.945-13.568-179.52-40.631
		c-22.903-22.427-30.519-62.126-33.115-87.214c0.00,0.00-0.357-2.496-0.357-3.557c0.00-9.856, 8.00-17.755, 17.755-17.755
		c 1.152,0.00, 43.831,3.483, 69.55,5.595c 0.603,0.101, 1.243,0.192, 1.856,0.32c 9.60,0.32, 17.307,8.128, 17.307,17.783l 0.091,34.971
		c0.00,10.816, 8.768,19.511, 19.648,19.511l 173.477,0.00 c 10.871,0.00, 19.666-8.704, 19.666-19.511l 0.073-34.971c0.00-9.664, 7.707-17.472, 17.307-17.783
		c 0.603-0.128, 1.253-0.219, 1.819-0.32c 25.755-2.112, 68.471-5.595, 69.586-5.595c 9.792,0.00, 17.755,7.899, 17.755,17.755
		c0.00,1.061-0.347,3.557-0.347,3.557c-2.597,25.088-10.24,64.786-33.115,87.214C 411.045,414.994, 334.958,428.562, 259.136,428.562z M 259.136,197.879
		c-19.621,0.00-35.511-15.89-35.511-35.474c0.00-19.648, 15.899-35.52, 35.511-35.52c 19.611,0.00, 35.483,15.863, 35.483,35.52
		C 294.619,181.979, 278.738,197.879, 259.136,197.879z M 232.448,277.733l0.00,22.171 c0.00,12.251-9.92,22.199-22.171,22.199
		c-12.224,0.00-22.135-9.947-22.135-22.199l0.00-22.171 L 68.379,149.861c-8.192-8.064-13.339-19.319-13.339-31.744l0.00-35.611 
		c0.00-19.621, 15.835-35.483, 35.483-35.483l 8.832,0.00 l0.00-22.171 c0.00-12.261, 9.947-22.208, 22.235-22.208c 12.251,0.00, 22.171,9.947, 22.171,22.208l0.00,22.171 l 230.674,0.00 l0.00-22.171 
		c0.00-12.261, 9.957-22.208, 22.208-22.208s 22.208,9.947, 22.208,22.208l0.00,22.171 l 8.859,0.00 c 19.584,0.00, 35.456,15.863, 35.456,35.483l0.00,35.611 
		c0.00,12.416-5.129,23.68-13.339,31.744L 330.094,277.733l0.00,22.171 c0.00,12.251-9.957,22.199-22.208,22.199c-12.261,0.00-22.171-9.947-22.171-22.199l0.00-22.171 
		L 232.448,277.733 z M 259.136,233.362c 39.186,0.00, 70.967-31.735, 70.967-70.958c0.00-39.259-31.781-71.003-70.967-71.003c-39.259,0.00-70.994,31.744-70.994,71.003
		C 188.142,201.627, 219.877,233.362, 259.136,233.362z"  />
<glyph unicode="&#xe00e;" d="M 465.984,312.969L 357.934,420.983c-13.422,13.486-35.282,13.486-48.841,0.00
		L 205.339,317.422l-22.144,22.089l-79.031-79.241C 95.625,251.721, 91.429,240.603, 91.429,229.138l0.00-103.845 l 0.229-0.192l-24.869-25.079
		c-13.522-13.541-13.495-35.346, 0.018-48.869l 29.349-29.33c 13.458-13.522, 35.328-13.522, 48.85,0.00l 25.079,26.862L 170.277,50.286l 104.073,0.00 
		c 11.191,0.00, 22.528,2.258, 31.095,10.862l 78.93,78.171l-21.925,21.477l 103.534,103.552C 479.497,277.888, 479.497,299.52, 465.984,312.969z
		 M 339.785,322.432l-8.411-8.448c-6.994-6.967-18.139-6.967-25.143,0.00l-8.375,8.448c-7.003,6.93-7.003,18.149,0.00,25.115l 8.375,8.411
		c 7.003,6.994, 18.149,6.994, 25.143,0.00l 8.411-8.411C 346.789,340.571, 346.789,329.353, 339.785,322.432z M 400.978,261.202l-8.448-8.384
		c-6.967-6.967-18.149-6.967-25.115,0.00l-8.439,8.384c-6.967,7.031-6.967,18.185,0.00,25.179l 8.439,8.384c 6.967,7.031, 18.149,7.031, 25.115,0.00
		l 8.448-8.384C 407.936,279.387, 407.936,268.233, 400.978,261.202z"  />
<glyph unicode="&#xe00f;" d="M 396.809,182.171l-48.165-49.957l-37.239,85.394L 25.042,217.463
			l 0.018-112.969c0.00-20.187, 16.43-36.581, 36.654-36.608l 324.617,0.174c 20.215,0.00, 36.608,16.421, 36.654,36.69l-0.027,50.898L 396.809,182.171zM 266.734,324.425L 59.648,324.352c-20.206-0.037-36.635-16.457-36.645-36.681
			l-0.174-10.926l 263.744,0.101L 266.734,324.425zM 485.102,243.374l-40.457,40.091l 40.00,40.393
			c0.00,0.00-152.53,64.119-158.729,66.386c-3.291,1.207-6.821,1.911-10.405,1.874c-16.183-0.082-29.038-13.019-28.928-28.974
			c0.00-3.813, 0.759-7.241, 2.03-10.414c 2.313-5.906, 68.306-158.226, 68.306-158.226l 39.872,40.576l 40.594-40.064
			c 13.349-13.221, 34.789-13.129, 48.064,0.265C 498.615,208.64, 498.432,230.171, 485.102,243.374z"  />
<glyph unicode="&#xe010;" d="M 476.48,195.63l-0.878,0.613l-5.513,5.467L 310.235,361.893c-6.921,6.967-16.238,10.651-25.353,10.651
			c-9.253,0.00-18.386-3.675-25.518-10.651l-83.73-83.858c 8.393-1.957, 16.448-4.773, 24.101-8.347l 31.113,31.15l 99.09-99.118l 85.449-85.44
			c-14.354-14.327-56.603-56.64-56.603-56.64c-2.505-2.469-5.861-3.721-9.179-3.721s-6.638,1.262-9.143,3.721l-71.433,71.442
			c-1.81-8.503-4.535-16.649-7.991-24.421l 63.241-63.232c 6.93-7.003, 16.192-10.395, 25.335-10.395c 9.271,0.00, 18.414,3.392, 25.353,10.395
			l 101.522,101.522c 1.883,1.755, 3.465,3.749, 4.791,5.915c 3.785,5.915, 5.641,12.617, 5.641,19.438
			C 486.921,179.447, 483.456,188.718, 476.48,195.63z M 460.242,161.198c0.00,0.00-3.017-3.045-5.339-5.394l-45.906,45.906L 270.418,340.379l 5.339,5.321
			c 2.432,2.478, 5.632,3.758, 9.115,3.758c 3.474,0.00, 6.683-1.28, 9.115-3.758l 143.991-143.991l 22.263-22.272l 0.174-0.155
			c 2.331-2.35, 3.63-5.669, 3.63-8.978C 464.046,166.802, 462.738,163.657, 460.242,161.198zM 147.401,250.505c-51.657,0.00-93.477-41.847-93.477-93.504c0.00-51.675, 41.819-93.531, 93.477-93.531
			c 51.675,0.00, 93.531,41.856, 93.531,93.531C 240.933,208.658, 199.077,250.505, 147.401,250.505z M 81.774,157.001c0.00,18.13, 7.278,34.478, 19.173,46.40
			c 11.931,11.941, 28.352,19.255, 46.455,19.255c 13.102,0.00, 25.307-3.831, 35.547-10.478l-90.752-90.725C 85.577,131.685, 81.774,143.845, 81.774,157.001z
			 M 193.847,110.583c-11.931-11.959-28.27-19.246-46.446-19.246c-13.102,0.00-25.28,3.849-35.52,10.469l 90.77,90.734
			c 6.565-10.267, 10.423-22.40, 10.423-35.529C 213.074,138.798, 205.769,122.505, 193.847,110.583z"  />
<glyph unicode="&#xe011;" d="M 493.12,225.271c-1.17,8.137-5.431,15.936-12.489,21.239l-0.85,0.448l-5.577,4.178L 311.616,373.605
			c-7.058,5.33-15.808,7.406-23.909,6.235c-8.256-1.143-15.918-5.559-21.403-12.672l-23.223-28.965C 246.418,328.887, 246.857,318.894, 246.857,308.434
			c0.00-0.037,0.00-0.082,0.00-0.128l 101.029-74.862l 87.579-65.307c-10.953-14.601-42.917-57.591-42.917-57.591c-1.865-2.487-4.517-4.069-7.479-4.498
			c-2.935-0.411-5.943,0.32-8.512,2.185l-82.88,62.373c 7.881-10.441, 11.237-25.335, 12.306-35.017l 58.295-43.822
			c 7.031-5.376, 15.707-7.214, 23.854-6.071c 8.283,1.17, 15.982,5.339, 21.275,12.434l 77.614,103.232c 1.445,1.792, 2.642,3.767, 3.502,5.906
			C 493.147,213.01, 493.979,219.20, 493.12,225.271z M 470.501,213.815c0.00,0.00-2.286-3.118-4.069-5.504l-46.665,35.109L 278.821,349.413l 4.096,5.422
			c 1.902,2.523, 4.581,4.023, 7.671,4.498c 3.063,0.411, 6.098-0.293, 8.585-2.213l 146.368-110.043l 22.665-17.033l 0.165-0.128
			c 2.359-1.792, 3.968-4.571, 4.407-7.525C 473.207,219.273, 472.421,216.274, 470.501,213.815zM 161.902,217.71c 42.377,0.00, 66.057,53.961, 66.057,90.734c0.00,36.709-29.55,66.523-66.057,66.523
			s-66.085-29.815-66.085-66.523C 95.817,271.671, 118.711,217.71, 161.902,217.71zM 224.21,192.165l-21.449-75.127c0.00-6.921-7.607-12.562-14.537-12.562c-6.903,0.00-14.51,5.641-14.51,12.562l0.00,59.776 
			c0.00,8.704-5.019,15.717-13.714,15.717c-8.75,0.00-13.714-7.013-13.714-15.717l0.00-59.776 c0.00-6.921-5.705-12.562-12.663-12.562
			c-6.93,0.00-12.617,5.641-12.617,12.562l-21.458,75.127c-22.903-6.382-38.912-17.536-52.069-34.77c-5.166-6.793-9.426-20.434-9.582-27.749
			C 37.943,127.771, 36.571,125.559, 36.571,123.346l0.00-12.562 l0.00-12.562 C 36.571,84.279, 50.459,68.571, 64.393,68.571l 194.999,0.00 C 273.326,68.571, 283.429,84.279, 283.429,98.222l0.00,12.562 l0.00,12.562 
			c0.00,2.213, 0.485,4.416, 0.576,6.29c-0.21,7.314-2.816,20.955-7.954,27.749C 262.83,174.629, 247.122,185.829, 224.21,192.165z"  />
<glyph unicode="&#xe012;" d="M 314.469,368.457c 0.75,0.00, 1.481-0.082, 2.231-0.11c-0.128,1.125-0.101,2.267-0.366,3.365
			c-1.426,6.363-4.507,11.858-8.933,16.283c-5.906,5.87-14.181,9.746-23.159,9.746L 283.301,397.714l-7.131,0.00 L 68.709,397.742
			c-8.96,0.064-16.951-3.675-22.885-9.60C 39.854,382.153, 36.571,373.815, 36.571,364.69l0.00-6.107 l 245.147-0.658C 291.118,364.544, 302.135,368.457, 314.469,368.457zM 262.318,238.464l 20.782,3.703c 2.469,0.037, 4.288,0.192, 6.053,0.192c-20.379,13.166-31.433,41.198-32.485,64.165
			L 35.822,306.569l 0.064-73.353c-0.018-9.042, 3.529-17.253, 9.60-23.342c 5.888-5.87, 14.217-11.41, 23.223-11.392L 79.04,196.571L 219.611,196.571 
			c 0.183,0.00, 0.302,3.017, 0.576,3.785l 1.938,5.568C 226.505,215.031, 237.44,231.323, 262.318,238.464zM 268.178,310.153c0.00-25.737, 16.064-63.497, 46.29-63.497c 29.669,0.00, 46.254,37.76, 46.254,63.497
			c0.00,25.71-20.69,46.61-46.254,46.61S 268.178,335.854, 268.178,310.153zM 349.413,181.769c 0.165,0.64, 0.494,1.408, 0.832,2.359l 1.481,3.41c 3.218,6.711, 11.301,18.359, 29.641,23.616
			l 8.558,1.262C 382.391,220.645, 365.714,229.157, 347.429,230.629l-64.238,1.234c-35.319-2.377-47.579-22.363-51.264-31.113
			c0.00-0.018-0.037-0.329-0.037-0.366c-1.033-2.533-1.408-4.261-1.408-4.279c-1.189-3.968-1.838-8.21-1.911-11.054
			C 228.599,183.726, 228.571,182.107, 228.571,180.571l0.00-8.805 l0.00-8.823 C 228.571,153.234, 236.443,141.714, 246.181,141.714l 104.229,0.00 C 348.855,150.857, 347.429,158.418, 347.429,162.002l0.00,9.179 
			C 347.429,174.574, 348.379,178.377, 349.413,181.769zM 419.767,216.823c 21.815,0.00, 34.039,27.803, 34.039,46.738c0.00,18.944-15.232,34.313-34.039,34.313
			c-18.843,0.00-34.094-15.369-34.094-34.313C 385.682,244.626, 397.522,216.823, 419.767,216.823zM 483.785,167.003c-0.448,2.816-1.326,5.925-2.176,8.859c-0.037,0.11-0.521,1.627-1.198,3.337
			c-0.055,0.128-1.755,3.355-1.792,3.465c-2.761,6.464-13.559,20.699-40.987,22.382l-0.064-0.073c-0.201,0.018-0.375,0.064-0.576,0.073
			l-40.238,0.311c-26.002-1.755-35.035-16.183-37.733-22.629c0.00-0.018-0.027-0.101-0.027-0.119c-0.768-1.856-1.042-3.081-1.042-3.099
			c-0.878-2.907-1.344-5.979-1.399-8.091C 356.59,170.469, 356.571,169.289, 356.571,168.183l0.00-6.464 l0.00-6.501 c0.00-0.21, 0.018-0.421, 0.037-0.631
			c-0.238-4.297-0.347-12.864, 5.824-12.005l 11.995-0.338c 5.358-0.293, 8.046-0.421, 9.618-0.475L 384.00,141.714c0.00,0.00, 1.161,0.00, 2.368,0.00l 83.657,0.00 
			C 477.157,141.714, 484.571,142.427, 484.571,152.101l0.00,4.471 l0.00,5.568 C 484.571,163.246, 483.749,166.034, 483.785,167.003z"  />
<glyph unicode="&#xe013;" d="M 480.622,188.014c-1.39,0.448-2.807,0.567-4.187,0.466c-0.439-0.018-0.841-0.101-1.271-0.174
			c-0.777-0.146-1.527-0.366-2.258-0.658c-1.106-0.411-2.075-0.997-3.008-1.719c-0.128-0.091-0.238-0.183-0.357-0.274
			c-0.978-0.823-1.783-1.783-2.478-2.907c-0.238-0.384-0.457-0.777-0.649-1.179c-0.201-0.457-0.558-1.17-0.704-1.655L 444.80,114.286l-49.993,0.00 
			c-3.977,0.00-7.735-1.627-9.911-4.965c-1.161-1.719-1.774-3.511-1.902-5.522c-0.174-1.893, 0.137-3.749, 0.942-5.595l 20.974-48.567
			c 4.215-8.75, 12.773-14.071, 21.952-14.071c 9.198,0.00, 17.701,5.431, 21.723,13.678c 0.247,0.503, 0.448,1.042, 0.585,1.554l 39.159,122.267
			c 0.503,1.563, 0.658,3.154, 0.521,4.69C 488.448,182.363, 485.321,186.496, 480.622,188.014zM 141.659,225.161c 37.632,0.00, 58.624,47.881, 58.624,80.494c0.00,32.64-26.213,59.099-58.624,59.099
			c-32.402,0.00-58.67-26.469-58.67-59.099C 82.99,273.042, 103.314,225.161, 141.659,225.161zM 298.597,225.161c 37.632,0.00, 58.624,47.881, 58.624,80.494c0.00,32.64-26.24,59.099-58.624,59.099
			c-32.421,0.00-58.67-26.469-58.67-59.099C 239.927,273.042, 260.251,225.161, 298.597,225.161zM 411.429,130.203L 411.429,141.349 c0.00,1.975-0.073,3.246,0.00,4.937c-1.253,8.046-5.687,19.237-10.258,25.289
			c-11.776,15.323-26.432,25.253-46.775,30.894l-19.246-66.688c0.00-6.144-5.998-11.191-12.16-11.191c-6.126,0.00-12.123,5.047-12.123,11.191l0.00,53.065 
			c0.00,7.698-5.998,13.961-13.678,13.961c-7.771,0.00-13.751-6.272-13.751-13.961l0.00-53.065 c0.00-6.144-4.416-11.191-10.597-11.191
			c-6.126,0.00-9.435,5.047-9.435,11.191L 246.857,199.79L 246.857,205.714 l-49.893,0.00 l-19.008-68.315c0.00-6.144-5.129-12.005-11.273-12.005
			c-6.135,0.00-11.246,4.233-11.246,10.377l0.00,53.065 c0.00,7.698-5.998,13.961-13.696,13.961c-7.762,0.00-13.733-6.272-13.733-13.961l0.00-53.065 
			c0.00-6.144-5.166-11.191-11.355-11.191c-5.769,0.00-11.255,4.873-11.255,11.191l-19.072,66.688c-20.297-5.687-34.56-15.57-46.254-30.894
			c-4.599-6.043-4.306-18.13-4.453-24.631C 35.666,145.253, 36.571,139.685, 36.571,137.71l0.00-7.433 l 0.951-11.264C 37.522,106.688, 42.743,96.00, 55.104,96.00l 156.91,0.00 
			l 16.174,0.00 l 141.714,0.00 C 368.768,96.00, 365.714,129.143, 411.429,130.203z"  />
<glyph unicode="&#xe014;" d="M 273.902,320.475c0.00,32.494-12.645,63.077-35.639,86.08c-35.474,35.511-87.534,44.352-131.383,26.843l 73.17-73.17
			c-3.045-14.857-11.081-30.153-23.927-43.026c-12.846-12.846-28.197-20.882-43.026-23.899l-73.435,73.408c-5.989-14.766-9.033-30.482-9.033-46.199
			c0.00-31.214, 11.813-62.345, 35.547-86.016c 23.003-22.994, 53.513-35.675, 86.043-35.675s 63.049,12.681, 86.043,35.675
			C 261.257,257.463, 273.902,288.046, 273.902,320.475zM 462.839,112.21L 305.536,269.449c-7.013-23.461-19.721-44.946-37.55-62.747c-14.665-14.693-31.872-25.874-50.606-33.262
			l 153.298-153.353c 24.75-24.722, 64.869-24.722, 89.618,0.00l 2.551,2.514C 487.589,47.351, 487.525,87.488, 462.839,112.21z M 413.623,41.024
			c-15.616,0.00-28.261,12.645-28.297,28.27c 0.037,15.616, 12.681,28.297, 28.297,28.297s 28.261-12.718, 28.261-28.297
			C 441.883,53.669, 429.239,41.024, 413.623,41.024z"  />
<glyph unicode="&#xe015;" d="M 334.583,434.286l-23.433,0.00 C 302.071,434.286, 292.571,423.616, 292.571,414.427L 292.571,388.571 L 168.695,388.571 C 150.482,388.571, 137.143,374.629, 137.143,356.416l0.00-321.865 
		C 137.143,16.283, 150.482,4.571, 168.695,4.571l 149.266,0.00 C 336.192,4.571, 347.429,16.283, 347.429,34.551L 347.429,178.075 L 347.429,356.416 L 347.429,414.427 C 347.429,423.616, 343.68,434.286, 334.583,434.286z M 201.143,32.00l-36.571,0.00 
		l0.00,45.714 l 36.571,0.00 L 201.143,32.00 z M 201.143,96.00l-36.571,0.00 l0.00,36.571 l 36.571,0.00 L 201.143,96.00 z M 265.143,32.00l-45.714,0.00 l0.00,45.714 l 45.714,0.00 L 265.143,32.00 z M 265.143,96.00l-45.714,0.00 l0.00,36.571 l 45.714,0.00 L 265.143,96.00 z M 320.00,32.00l-36.571,0.00 l0.00,45.714 l 36.571,0.00 L 320.00,32.00 z M 320.00,96.00l-36.571,0.00 l0.00,36.571 l 36.571,0.00 L 320.00,96.00 z M 320.00,176.558
		c0.00-9.143-7.433-16.558-16.594-16.558L 172.023,160.00 C 162.862,160.00, 155.429,167.415, 155.429,176.558L 155.429,335.442 c0.00,9.143, 7.433,16.558, 16.594,16.558l 131.374,0.00 
		C 312.576,352.00, 320.00,344.585, 320.00,335.442L 320.00,176.558 z"  />
<glyph unicode="&#xe016;" d="M 338.121,404.142c-34.496,0.00-79.305-20.379-88.128-54.656
		c-8.768,34.277-53.568,54.656-88.101,54.656c-68.178,0.00-123.365-52.891-123.365-123.429c0.00-132.133, 125.641-167.369, 193.874-246.674
		c 0.576-0.914, 1.335-1.627, 2.103-2.395c 8.658-8.585, 22.546-8.585, 31.177,0.00c 0.795,0.768, 1.362,1.481, 1.957,2.395
		c 68.297,79.47, 193.847,113.975, 193.847,246.674C 461.495,351.25, 406.272,404.142, 338.121,404.142z M 399.863,271.954
		c-8.713,0.00-15.881,6.263-17.417,14.51c-4.361,17.765-19.557,33.929-38.601,38.345c-8.256,1.509-14.519,8.741-14.519,17.335
		c0.00,9.737, 7.936,17.929, 17.618,17.929c 14.034,0.00, 31.003-9.966, 45.294-24.082c 14.51-14.464, 25.243-33.755, 25.243-46.427
		C 417.481,279.89, 409.518,271.954, 399.863,271.954z"  />
<glyph unicode="&#xe017;" d="M 250.67,334.949c0.00,0.759-0.265,1.463-0.677,2.021l-43.895,43.301c-0.485,0.475-1.161,0.768-1.893,0.768
			c-1.463-0.018-2.642-1.216-2.624-2.67l 0.101-16.283l-48.576-0.32c-4.297-0.027-7.717-3.511-7.689-7.781l 0.128-19.73l 0.11-16.814
			c 0.009-1.435, 0.439-2.789, 1.143-3.931c 1.134-1.856, 2.99-3.218, 5.221-3.621c 0.457-0.082, 0.923-0.146, 1.417-0.146l 48.603,0.338
			l 0.128-19.20l0.00,0.009c 0.018-1.481, 1.207-2.651, 2.67-2.642c 0.731,0.00, 1.381,0.302, 1.865,0.777l 43.328,43.886
			C 250.432,333.477, 250.67,334.19, 250.67,334.949zM 284.965,270.135l 48.192-0.329c 0.503-0.009, 0.759,0.046, 1.207,0.128c 2.24,0.402, 4.005,1.755, 5.138,3.621
			c 0.695,1.152, 1.051,2.487, 1.079,3.922l 0.091,16.814l 0.101,19.739c 0.073,4.261-3.401,7.753-7.707,7.781l-48.576,0.329l 0.101,16.283
			c 0.037,1.463-1.152,2.651-2.615,2.67c-0.713,0.00-1.399-0.302-1.883-0.768l-43.886-43.291c-0.43-0.576-0.686-1.28-0.686-2.03
			c-0.009-0.759, 0.238-1.472, 0.649-2.03l 43.328-43.886c 0.485-0.485, 0.85-0.786, 1.563-0.786c 2.185-0.009, 2.377-0.421, 2.377,3.063l0.00,0.018 
			c0.00,1.097, 0.329,2.615, 0.329,4.599L 284.965,270.135zM 107.173,188.078c 32.439,0.00, 50.551,41.298, 50.551,69.413c0.00,28.123-22.629,50.926-50.551,50.926c-27.913,0.00-50.56-22.811-50.56-50.926
			C 56.613,229.376, 74.139,188.078, 107.173,188.078zM 154.587,168.558l-16.256-57.499c0.00-5.303-4.434-9.637-9.746-9.637c-5.285,0.00-9.719,4.334-9.719,9.637l0.00,45.742 
			c0.00,6.638-7.067,12.032-13.714,12.032c-6.674,0.00-13.714-5.403-13.714-12.032l0.00-45.742 c0.00-5.303-2.469-9.637-7.79-9.637
			c-5.303,0.00-8.731,4.334-8.731,9.637l-15.918,57.499c-17.499-4.937-29.531-13.44-39.607-26.624c-3.995-5.211-8.174-15.625-8.293-21.248
			C 11.145,119.259, 9.143,117.568, 9.143,115.886l0.00-9.627 l0.00-9.646 C 9.143,85.979, 21.906,77.714, 32.567,77.714l 149.211,0.00 C 192.402,77.714, 201.143,85.979, 201.143,96.613l0.00,9.646 l0.00,9.627 
			c0.00,1.691-0.101,3.374-0.046,4.791c-0.146,5.623-2.359,16.037-6.336,21.248C 184.649,155.118, 172.114,163.694, 154.587,168.558zM 401.938,188.078c 32.439,0.00, 50.542,41.298, 50.542,69.413c0.00,28.123-22.629,50.926-50.542,50.926c-27.913,0.00-50.551-22.811-50.551-50.926
			C 351.387,229.376, 368.905,188.078, 401.938,188.078zM 488.951,141.925c-10.112,13.184-22.08,21.769-39.607,26.624l-16.256-57.499c0.00-5.303-5.531-9.637-10.843-9.637
			c-5.285,0.00-10.825,4.334-10.825,9.637l0.00,45.742 c0.00,6.638-7.067,12.032-13.714,12.032c-6.674,0.00-13.714-5.403-13.714-12.032l0.00-45.742 
			c0.00-5.303-1.371-9.637-6.693-9.637c-5.303,0.00-8.183,4.334-8.183,9.637l-15.643,57.499c-17.499-4.937-29.403-13.44-39.461-26.624
			c-3.995-5.211-4.626-15.625-4.754-21.248C 309.321,119.259, 310.857,117.568, 310.857,115.886l0.00-9.627 l0.00-9.646 C 310.857,85.979, 316.681,77.714, 327.342,77.714l 149.202,0.00 
			C 487.168,77.714, 493.714,85.979, 493.714,96.613l0.00,9.646 l0.00,9.627 c0.00,1.691, 0.997,3.374, 1.042,4.791C 494.619,126.299, 492.928,136.713, 488.951,141.925z"  />
<glyph unicode="&#xe018;" d="M 437.038,397.714L 84.105,397.714 C 78.053,397.714, 73.143,392.805, 73.143,386.752l0.00-352.933 C 73.143,27.767, 78.053,22.857, 84.105,22.857l 352.933,0.00 C 443.09,22.857, 448.00,27.767, 448.00,33.819
			L 448.00,386.752 C 448.00,392.805, 443.09,397.714, 437.038,397.714z M 411.429,68.571c0.00-5.056-4.087-9.143-9.143-9.143L 118.857,59.429 c-5.047,0.00-9.143,4.087-9.143,9.143L 109.714,352.00 c0.00,5.047, 4.096,9.143, 9.143,9.143l 283.429,0.00 
			c 5.056,0.00, 9.143-4.096, 9.143-9.143L 411.429,68.571 zM 283.429,333.714L 228.571,333.714L 228.571,233.143L 137.143,233.143L 137.143,178.286L 228.571,178.286L 228.571,77.714L 283.429,77.714L 283.429,178.286L 384.00,178.286L 384.00,233.143L 283.429,233.143 		z"  />
<glyph unicode="&#xe019;" d="M 136.823,272.064c 0.018-3.264, 0.997-6.373, 2.615-8.987c 2.597-4.251, 6.848-7.351, 11.959-8.256
			c 1.015-0.201, 2.085-0.329, 3.227-0.329l 110.053,0.759l-0.878-43.904c0.00-3.383, 3.922-6.089, 7.278-6.043c 1.673,0.00, 3.758,0.677, 4.855,1.774
			l 99.419,100.416c 0.942,1.289, 1.774,2.944, 1.774,4.663c0.00,1.737-0.613,3.346-1.554,4.617L 275.118,415.845
			C 274.011,416.951, 272.457,417.609, 270.802,417.609c-3.328-0.037-6.025-2.779-5.989-6.107l 0.201-37.266l-111.141-0.731
			c-9.847-0.064-17.673-8.027-17.609-17.792l 0.283-45.147L 136.823,272.064zM 263.799,211.301L 263.799,211.337L 263.799,211.337 		zM 359.506,185.216l-111.141,0.731l 0.201,37.266c 0.046,3.328-2.651,6.071-5.979,6.107c-1.664,0.00-3.209-0.649-4.315-1.755
			L 137.819,128.475c-0.942-1.262-1.554-2.871-1.554-4.617c0.00-1.719,0.00-3.365, 0.942-4.654l 98.578-100.416
			c 1.106-1.097, 3.493-1.774, 5.166-1.774C 244.306,16.96, 246.857,19.657, 246.857,23.049l0.00-0.037 l 0.494,43.95l 112.421-0.759
			c 1.143,0.00, 1.719,0.128, 2.734,0.329c 5.111,0.896, 9.106,4.005, 11.703,8.247c 1.618,2.615, 2.478,5.723, 2.487,8.987l 0.201,38.491
			l 0.247,45.147C 377.207,177.179, 369.353,185.152, 359.506,185.216z"  />
<glyph unicode="&#xe01a;" d="M 283.429,417.865L 283.429,422.482 c0.00,12.626-10.203,22.903-22.83,22.903
		C 247.945,445.394, 237.714,435.109, 237.714,422.482l0.00-4.626 c-9.143-109.998-118.034-174.126-118.034-272.987c0.00-77.047, 64.155-139.483, 142.619-139.483
		c 78.409,0.00, 141.129,62.437, 141.129,139.483C 403.429,243.739, 292.571,307.858, 283.429,417.865z M 332.827,76.297c-14.839-14.738-32.53-25.088-47.058-25.088
		c-10.149,0.00-18.35,8.494-18.35,18.642c0.00,8.951, 6.446,16.53, 15.067,18.011c 19.831,4.635, 35.602,21.495, 40.165,39.963
		c 1.554,8.567, 9.061,15.067, 18.085,15.067c 10.048,0.00, 18.35-8.256, 18.35-18.35C 359.077,111.333, 347.941,91.264, 332.827,76.297z"  />
<glyph unicode="&#xe01b;" d="M 434.167,402.286c-3.273,2.359-7.214,3.045-11.109,1.737c-16.101-5.367-32.686-8.027-49.765-8.027
			c-40.622,0.00-79.131,15.415-108.48,43.465c-4.855,4.681-12.571,4.681-17.49,0.00c-29.349-28.05-67.877-43.465-108.434-43.465
			c-17.152,0.00-33.92,2.67-49.984,8.027C 85.047,405.33, 81.298,404.645, 77.952,402.286C 74.633,399.89, 73.143,396.133, 73.143,391.963L 73.143,275.109 
			c0.00-122.395, 67.849-231.835, 177.911-285.659c 3.483-1.774, 6.784-1.774, 10.277,0.00C 371.346,43.264, 438.857,152.713, 438.857,275.109L 438.857,391.963 
			C 438.857,396.133, 437.486,399.89, 434.167,402.286z M 411.429,275.109c0.00-110.51-57.518-209.463-155.447-259.931C 158.053,65.646, 100.571,164.599, 100.571,275.109L 100.571,375.424 
			c 9.143-3.182, 25.847-4.891, 39.817-4.891c 43.255,0.00, 83.657,15.342, 116.498,43.054c 32.832-27.712, 71.991-43.054, 115.282-43.054
			c 13.97,0.00, 30.117,1.71, 39.259,4.891L 411.429,275.109 zM 256.146,50.304c 71.378,42.441, 117.157,112.832, 126.665,193.435L 217.39,78.318
			C 229.321,67.977, 242.231,58.606, 256.146,50.304zM 256.146,377.07c-35.337-23.616-75.447-36.462-117.038-36.462c0.00,0.00-11.109,0.475-11.109,0.786c0.00-13.943,0.00-66.286,0.00-66.286
			c0.00-38.747, 8.174-75.758, 23.579-109.312l 179.383,179.429C 304.622,350.894, 279.241,361.655, 256.146,377.07zM 187.374,108.389L 384.00,305.344c0.00,12.955,0.00,26.725,0.00,34.039L 172.462,127.771
			C 177.106,121.134, 182.144,114.679, 187.374,108.389z"  />
<glyph unicode="&#xe01c;" d="M 425.417,342.857L 356.571,342.857 L 356.571,395.319 C 356.571,414.391, 340.955,434.286, 321.883,434.286L 183.817,434.286 
		C 164.718,434.286, 146.286,414.391, 146.286,395.319L 146.286,342.857 L 80.256,342.857 C 61.157,342.857, 45.714,328.091, 45.714,308.992l0.00-258.834 C 45.714,31.086, 61.157,13.714, 80.256,13.714L 425.417,13.714 
		c 19.099,0.00, 31.726,17.371, 31.726,36.443l0.00,258.834 C 457.143,328.091, 444.517,342.857, 425.417,342.857z M 192.00,367.662C 192.00,378.176, 200.905,388.571, 211.447,388.571l 82.816,0.00 
		C 304.777,388.571, 310.857,378.176, 310.857,367.662L 310.857,342.857 L 192.00,342.857 L 192.00,367.662 z M 356.571,155.438C 356.571,144.951, 347.895,132.571, 337.435,132.571L 292.571,132.571 l0.00-37.522 C 292.571,84.535, 287.506,77.714, 276.992,77.714
		l-48.311,0.00 C 218.167,77.714, 210.286,84.535, 210.286,95.049L 210.286,132.571 l-42.021,0.00 C 157.787,132.571, 146.286,144.951, 146.286,155.438l0.00,48.338 C 146.286,214.235, 157.787,224.00, 168.265,224.00L 210.286,224.00 l0.00,40.137 
		c0.00,10.578, 7.881,14.72, 18.395,14.72l 48.311,0.00 C 287.506,278.857, 292.571,274.706, 292.571,264.137L 292.571,224.00 l 44.864,0.00 C 347.895,224.00, 356.571,214.235, 356.571,203.776L 356.571,155.438 z"  />
<glyph unicode="&#xe01d;" d="M 432.082,134.016l-0.613,36.379c-0.101,5.55-4.663,10.706-10.139,11.465l-4.727,0.677
			c-5.449,0.75-9.829-3.118-9.765-8.667l 0.585-34.523l-20.736-18.359c-3.813-3.374-3.675-9.801, 0.265-14.19l 3.365-3.849
			c 3.941-4.462, 10.267-5.312, 14.071-1.975l 25.024,22.144c 2.578,2.277, 3.365,5.934, 2.359,9.417C 431.881,133.019, 432.137,133.467, 432.082,134.016
			zM 408.073,225.947c-46.61,0.00-84.379-37.769-84.379-84.325c0.00-46.61, 37.769-84.379, 84.379-84.379
			c 46.546,0.00, 84.343,37.769, 84.343,84.379C 492.407,188.178, 454.619,225.947, 408.073,225.947z M 407.598,85.906c-30.738,0.00-55.653,24.896-55.653,55.717
			c0.00,30.766, 24.914,55.698, 55.653,55.698s 55.735-24.933, 55.735-55.698C 463.333,110.802, 438.336,85.906, 407.598,85.906zM 45.714,132.571L 45.714,324.571 l 347.429,0.00 l0.00-79.387 c 5.979,1.061, 12.078,1.701, 18.286,1.71l0.00,63.479 c0.00,6.053-3.319,10.322-5.769,15.305
			C 403.456,336.21, 393.938,342.857, 384.201,342.857l-8.393,0.00 L 54.875,342.857 L 46.482,342.857 c-9.719,0.00-15.141-6.647-17.353-17.179C 26.624,320.695, 27.429,316.425, 27.429,310.373l0.00-164.242 
			c0.00-6.025-0.805-10.03, 1.701-14.976C 31.342,120.613, 36.763,114.286, 46.482,114.286l 8.393,0.00 l 253.065,0.00 c-1.902,6.107-2.469,12.023-2.661,18.286L 45.714,132.571 zM 365.714,236.389L 365.714,297.143 L 237.376,297.143 C 262.738,282.395, 274.286,246.912, 274.286,219.319c0.00-22.848-7.918-51.026-24.969-68.462l 56.219,0.00 
			C 308.407,188.946, 332.754,220.754, 365.714,236.389zM 213.632,152.896c 30.473,0.00, 42.478,42.048, 42.478,66.432c0.00,24.311-12.005,66.386-42.478,66.386
			c-30.437,0.00-42.514-42.075-42.514-66.386C 171.118,194.935, 183.195,152.896, 213.632,152.896zM 189.851,297.143L 73.143,297.143 l0.00-146.286 l 104.805,0.00 c-17.033,17.435-24.933,45.614-24.933,68.462C 153.015,246.894, 164.498,282.423, 189.851,297.143z"  />
<glyph unicode="&#xe01e;" d="M 245.477,160.00c 26.295,15.973, 38.29,53.147, 38.29,82.176c0.00,29.111-12.114,66.533-38.711,82.395L 374.857,324.571 l0.00-44.059 
			c 9.143,0.786, 12.005,1.335, 17.509,1.335c 2.898,0.00, 9.92-0.21, 9.92-0.439L 402.286,342.857 L 36.571,342.857 l0.00-201.143 l 254.866,0.00 c-2.569,9.143-4.187,18.286-4.855,18.286L 245.477,160.00 z
			 M 264.494,242.176c0.00-25.911-12.809-70.592-45.166-70.592c-32.338,0.00-45.166,44.681-45.166,70.592c0.00,25.829, 12.827,70.546, 45.166,70.546
			C 251.675,312.722, 264.494,267.995, 264.494,242.176z M 64.00,324.571l 129.545,0.00 c-26.578-15.845-38.647-53.303-38.647-82.395c0.00-29.029, 11.95-66.203, 38.263-82.176
			L 64.00,160.00 L 64.00,324.571 zM 395.301,263.461c-50.103,0.00-90.734-40.622-90.734-90.706c0.00-50.121, 40.622-90.734, 90.734-90.734c 50.075,0.00, 90.715,40.603, 90.715,90.734
			C 486.016,222.839, 445.376,263.461, 395.301,263.461z M 394.807,112.823c-33.07,0.00-59.877,26.807-59.877,59.931c0.00,33.088, 26.807,59.895, 59.877,59.895
			s 59.913-26.807, 59.913-59.895C 454.711,139.621, 427.877,112.823, 394.807,112.823zM 421.147,165.504l-0.695,39.122c-0.073,5.97-4.983,11.511-10.889,12.334l-5.074,0.704c-5.842,0.823-10.569-3.337-10.514-9.307
			l 0.622-37.138l-22.272-19.739c-4.105-3.639-3.95-10.551, 0.283-15.287l 3.611-4.105c 4.233-4.80, 11.054-5.733, 15.141-2.121l 26.907,23.808
			c 2.77,2.45, 3.611,6.373, 2.533,10.139C 420.91,164.407, 421.175,164.91, 421.147,165.504z"  />
<glyph unicode="&#xe01f;" d="M 467.31,225.234c-4.178,1.17-8.448-1.207-9.591-5.321c-0.101-0.247-6.903-22.985-28.151-32.357
			c-7.945,72.009-83.867,128.503-176.448,128.503c-30.171,0.00-58.514-5.998-83.337-16.549l-40.777,37.221l 6.272-55.333C 107.383,261.605, 87.433,233.143, 79.616,205.714
			l-45.623,0.00 C 27.941,205.714, 27.429,198.638, 27.429,192.585l0.00-67.246 C 27.429,119.296, 27.941,114.286, 33.993,114.286l 59.337,0.00 L 137.143,68.882l0.00-46.985 C 137.143,15.881, 141.705,13.714, 147.785,13.714l 37.458,0.00 
			C 191.25,13.714, 192.00,15.881, 192.00,21.906l0.00,19.749 c 18.286-4.809, 38.912-7.461, 58.825-7.461c 23.835,0.00, 50.889,3.73, 69.175,10.505l0.00-22.793 
			C 320.00,15.881, 325.312,13.714, 331.355,13.714l 37.495,0.00 C 374.866,13.714, 384.00,15.881, 384.00,21.906L 384.00,76.709 c 27.429,24.539, 47.003,57.746, 48.265,94.51
			c 32.229,10.386, 40.969,42.926, 41.408,44.453C 474.853,219.785, 471.406,224.055, 467.31,225.234z M 147.09,204.873
			c-11.401,0.00-20.681,9.243-20.681,20.672c0.00,11.429, 9.28,20.672, 20.681,20.672c 11.456,0.00, 20.672-9.243, 20.672-20.672
			C 167.762,214.117, 158.546,204.873, 147.09,204.873zM 253.129,344.503c 20.763,0.00, 40.53-2.971, 59.045-8.165c 5.193,9.307, 8.201,20.005, 8.201,31.433
			c0.00,35.712-28.974,64.64-64.658,64.64c-35.712,0.00-64.649-28.928-64.649-64.64c0.00-10.871, 2.688-21.12, 7.47-30.107
			C 215.698,342.098, 234.066,344.503, 253.129,344.503z"  />
<glyph unicode="&#xe020;" d="M 366.363,160.00l-48.667,0.00 c-13.477,0.00-24.439-9.326-24.439-22.793S 304.219,114.286, 317.696,114.286l 48.667,0.00 
			c 13.504,0.00, 24.393,9.445, 24.393,22.921S 379.867,160.00, 366.363,160.00zM 205.266,165.403c-4.352,0.814-7.479,4.48-7.479,8.905c0.00,3.227, 10.569,12.855, 10.505,12.955
			c 10.889,10.99, 16.759,28.846, 16.759,42.615c0.00,21.367-18.953,39.003-43.931,39.003c-25.426,0.00-43.867-17.637-43.867-39.003
			c0.00-13.833, 5.769-31.744, 16.667-42.807c0.00,0.00, 10.505-9.536, 10.505-12.763c0.00-4.581-3.447-8.485-8.155-9.061
			c-23.241-2.35-31.744-9.216-42.569-22.811C 110.702,138.432, 109.714,130.56, 109.714,126.309l0.00-18.313 C 109.714,99.95, 114.761,96.00, 123.072,96.00l 116.224,0.00 
			C 247.525,96.00, 256.00,99.95, 256.00,107.995l0.00,18.313 c0.00,4.251-2.578,12.114-5.705,16.119C 239.369,156.288, 228.891,163.054, 205.266,165.403zM 366.363,251.429l-48.667,0.00 c-13.477,0.00-24.439-13.943-24.439-27.419c0.00-13.467, 10.962-27.438, 24.439-27.438l 48.667,0.00 
			c 13.504,0.00, 24.393,13.97, 24.393,27.438C 390.757,237.486, 379.867,251.429, 366.363,251.429zM 449.298,397.714L 329.143,397.714 L 329.143,413.166 C 329.143,425.097, 322.725,434.286, 310.83,434.286L 197.723,434.286 C 185.829,434.286, 173.714,425.097, 173.714,413.166L 173.714,397.714 L 59.227,397.714 
			C 37.723,397.714, 18.286,378.231, 18.286,356.635l0.00-312.064 C 18.286,23.067, 37.723,4.571, 59.227,4.571l 390.071,0.00 C 470.83,4.571, 484.571,23.067, 484.571,44.571L 484.571,356.635 
			C 484.571,378.231, 470.83,397.714, 449.298,397.714z M 438.857,75.803C 438.857,63.909, 430.016,50.286, 418.066,50.286L 90.523,50.286 C 78.601,50.286, 73.143,63.909, 73.143,75.803L 73.143,325.44 
			C 73.143,337.335, 78.601,342.857, 90.523,342.857L 173.714,342.857 l0.00-13.55 C 173.714,317.44, 185.829,306.286, 197.723,306.286l 113.106,0.00 C 322.725,306.286, 329.143,317.44, 329.143,329.307L 329.143,342.857 l 88.923,0.00 
			C 430.016,342.857, 438.857,337.335, 438.857,325.44L 438.857,75.803 z"  />
<glyph unicode="&#xe021;" d="M 484.571,383.726C 484.571,391.451, 476.992,397.714, 467.63,397.714L 35.227,397.714 C 25.874,397.714, 18.286,391.451, 18.286,383.726l0.00-17.728 C 18.286,358.263, 25.874,352.00, 35.227,352.00
			l 432.411,0.00 C 476.992,352.00, 484.571,358.263, 484.571,365.989L 484.571,383.726 zM 54.857,68.571l 186.469,0.00 L 254.171,68.571 L 448.00,68.571 L 448.00,306.286 L 54.857,306.286 L 54.857,68.571 z M 329.143,258.624C 329.143,263.013, 336.43,269.714, 340.297,269.714l 30.016,0.00 
			C 374.181,269.714, 374.857,263.013, 374.857,258.624L 374.857,123.429 l-45.714,0.00 L 329.143,258.624 z M 265.143,200.018C 265.143,204.087, 269.714,205.714, 273.563,205.714l 30.034,0.00 C 307.493,205.714, 310.857,204.087, 310.857,200.018L 310.857,123.429 l-45.714,0.00 
			L 265.143,200.018 z M 201.143,173.897c0.00,3.95, 2.258,4.389, 6.126,4.389l 30.034,0.00 C 241.143,178.286, 246.857,177.838, 246.857,173.897L 246.857,123.429 l-45.714,0.00 L 201.143,173.897 z M 137.143,154.679
			C 137.143,158.693, 136.64,160.00, 140.453,160.00l 30.034,0.00 C 174.363,160.00, 173.714,158.693, 173.714,154.679L 173.714,123.429 l-36.571,0.00 L 137.143,154.679 z M 100.571,264.073c0.00,3.593, 0.631,6.519, 4.443,6.519
			c 4.096,0.00, 4.699-2.926, 4.699-6.519L 109.714,105.143 l 285.742,0.00 c 3.639,0.00, 6.601-0.96, 6.601-4.837c0.00-4.032-2.953-5.714-6.601-5.714L 105.335,96.00l-0.247,0.00 
			C 101.275,96.00, 100.571,98.158, 100.571,101.705L 100.571,264.073 z"  />
<glyph unicode="&#xe022;" d="M 363.118,121.783l 110.51-82.368c 4.352,6.373, 6.93,14.181, 6.93,22.473l-0.32,171.474
			c0.00,6.181-1.509,12.069-4.142,17.49L 289.71,111.287c-0.146-0.082-0.229-0.082-0.347-0.192c-9.518-7.369-21.294-11.52-33.353-11.52
			c-11.858,0.00-23.031,3.739-32.457,10.761c-0.119,0.091-0.229,0.091-0.384,0.146L 35.712,251.035c-2.67-5.486-4.261-11.429-4.261-17.664
			l 0.32-171.529c0.00-8.64, 2.816-16.585, 7.488-23.205l 110.473,83.154c 2.551,1.893, 6.144,1.39, 8.064-1.125
			c 1.911-2.551, 1.39-6.153-1.134-8.101l-109.321-81.646C 54.126,25.554, 62.629,22.857, 71.963,22.857l 368.329,0.00 c 9.691,0.00, 18.478,3.017, 25.408,8.731
			l-109.495,81.271c-2.523,1.947-3.045,5.394-1.161,7.909C 356.965,123.319, 360.585,123.675, 363.118,121.783zM 109.714,270.583C 109.714,286.446, 122.03,297.143, 137.893,297.143l 41.015,0.00 c 1.015,0.00, 1.71,5.897, 3.017,8.155
			c 4.809,8.64, 11.575,16.814, 19.895,22.958c 1.655,1.243, 3.392,2.679, 5.248,3.813l 0.119,1.143c 1.536,17.518, 16.613,31.36, 35.008,32.229
			c 6.409-0.347, 12.041-1.097, 16.942-3.191c 4.837,2.231, 10.203,3.438, 15.689,3.438c 20.224-0.814, 35.328-14.693, 36.699-32.302l 0.174-2.057
			c 7.223-4.498, 13.147-10.88, 17.81-17.033C 333.147,309.559, 335.991,306.286, 338.286,297.143l 35.822,0.00 C 389.97,297.143, 402.286,286.446, 402.286,270.583l0.00-25.847 l 48.759,36.279
			c 1.134,1.454, 2.752,2.414, 4.315,3.136l 4.626,3.365L 288.951,396.635c-0.091,0.055-0.165,0.055-0.274,0.119
			c-9.426,7.049-20.873,11.045-32.677,11.045c-11.602,0.00-22.501-3.621-31.79-10.35c-0.082-0.027-0.192-0.027-0.311-0.091L 52.133,287.634
			L 109.714,244.681L 109.714,270.583 zM 274.304,124.05c 5.221,0.146, 9.60,3.675, 9.893,7.881l 1.006,15.141c 2.322,0.786, 4.709,1.189, 6.903,2.139
			c 9.289,4.151, 16.594,9.582, 22.043,16.512c 5.367,7.159, 8.475,14.674, 9.335,22.949c 0.933,8.32-0.256,15.534-3.675,21.486
			c-3.429,5.897-8.704,10.597-15.863,13.778c-3.365,1.481-8.101,3.163-13.979,5.111l-0.869,43.218c 2.889-3.511, 5.184-7.369, 6.208-12.937
			c 0.283-7.689, 6.409-14.043, 13.595-14.245c 6.903-0.146, 11.986,5.568, 11.749,12.846c-2.231,10.386-5.806,20.416-10.496,26.478
			c-4.699,6.181-11.776,11.191-21.23,14.994c-0.521,0.256-1.161,0.347-1.719,0.521l-1.335,17.81c-0.347,4.407-5.111,8.293-10.642,8.494
			c-5.595,0.201-9.984-3.273-9.947-7.771l 0.229-14.098c-3.337,0.256-6.528,0.722-10.158,0.722c-1.335,0.00-2.67-0.256-3.95-0.32
			l 0.347,13.632c 0.055,4.498-4.288,7.918-9.829,7.689c-5.568-0.32-10.24-4.123-10.642-8.613l-1.426-16.878
			c-6.263-2.267-11.374-4.782-15.195-7.653c-5.513-4.032-10.011-9.051-13.367-15.086c-3.456-6.007-5.339-12.498-5.687-19.611
			c-0.402-7.826, 1.079-15.049, 4.645-21.806c 3.447-6.729, 9.015-12.16, 16.503-16.366c 2.606-1.417, 6.235-2.953, 10.377-4.581l 2.99-46.354
			c-6.208,5.083-10.359,10.587-12.507,19.813c-0.576,6.967-6.693,13.312-13.458,13.842c-6.619,0.549-11.227-4.617-10.533-11.374
			c 4.261-15.314, 11.813-28.37, 22.19-36.261c 4.553-3.218, 10.039-5.833, 16.21-7.881l 1.161-15.195c 0.293-4.206, 4.645-7.781, 9.865-7.945
			c 5.193-0.155, 9.399,3.127, 9.317,7.278l-0.32,12.178c 2.761-0.146, 5.394-0.347, 8.411-0.347c 1.591,0.00, 3.045,0.265, 4.635,0.293
			l-0.119-12.215C 264.878,127.214, 269.083,123.941, 274.304,124.05z M 288.896,197.467c 0.75-0.347, 1.655-0.603, 2.112-0.96
			c 5.221-3.127, 7.451-7.534, 6.967-13.019c-0.503-6.29-3.895-11.712-10.039-16.384c-0.384-0.201-0.905-0.293-1.161-0.503L 288.896,197.467z
			 M 226.853,249.088c-1.591,1.161-2.926,2.496-3.941,3.977c-2.203,2.935-3.136,6.272-2.926,9.893c 0.256,5.367, 3.127,10.176, 8.146,14.327
			L 226.853,249.088z M 250.898,284.416c 2.176,0.229, 3.822,0.667, 6.29,0.667c 3.282,0.027, 5.833-0.521, 8.667-0.933l 0.347-48.091
			c-1.938,0.521-3.675,0.987-5.733,1.536c-3.803,1.042-7.195,1.947-10.185,2.816L 250.898,284.416z M 260.261,160.046
			c-3.273,0.00-5.833,0.603-8.677,0.933l-1.042,46.903c 3.474-0.978, 6.958-1.856, 10.935-2.816c 1.655-0.439, 2.99-0.786, 4.526-1.097
			l-0.603-43.456C 263.598,160.393, 262.235,160.046, 260.261,160.046z"  />
<glyph unicode="&#xe023;" d="M 429.458,196.571l-46.071,0.00 c-15.031,0.00-26.45-12.727-28.023-21.33
		c-8.869-46.427-49.765-82.542-98.944-82.542c-55.625,0.00-100.571,44.334-100.571,99.922C 155.831,247.945, 201.143,292.187, 256.00,292.48l0.00-35.63 
		c0.00-10.569, 8.878-19.145, 19.986-19.145c 4.325,0.00, 8.448,1.39, 11.712,3.73l 105.289,78.482c 12.142,12.114, 12.142,24.366,0.00,36.489L 287.68,434.853
		c-3.264,2.441-7.378,3.794-11.685,3.794C 264.878,438.647, 256.00,430.053, 256.00,419.438l0.00-35.63 C 146.286,383.579, 64.238,297.783, 64.238,192.055
		c0.00-105.984, 86.144-191.835, 192.192-191.835c 98.578,0.00, 179.822,73.856, 190.985,169.051c 0.073,0.338, 0.402,5.495, 0.402,6.793
		C 447.808,186.085, 439.607,196.571, 429.458,196.571z"  />
<glyph unicode="&#xe024;" d="M 411.767,359.872c-33.765,36.215-93.65,26.075-119.515,0.896
		c-9.929-9.691-35.84-13.44-35.84-13.44s-25.938,3.749-35.858,13.44c-25.746,25.179-85.714,35.319-119.543-0.896
		c-33.088-35.319-59.822-120.53-59.822-200.869c0.00-96.933, 81.28-109.961, 125.559-62.354C 192.411,124.251, 194.798,132.571, 211.566,150.857l 89.701,0.00 
		c 16.859-18.286, 19.145-26.606, 44.791-54.217c 44.334-47.607, 125.531-34.368, 125.531,62.565C 471.589,239.543, 444.873,324.553, 411.767,359.872z M 210.688,242.286L 182.857,242.286 l0.00-28.608 
		c0.00-10.377-8.402-18.816-18.286-18.816s-18.286,8.439-18.286,18.816L 146.286,242.286 l-23.497,0.00 c-10.395,0.00-18.843,8.421-18.843,18.295c0.00,9.829, 8.439,18.277, 18.843,18.277L 146.286,278.857 
		l0.00,22.72 c0.00,10.405, 8.402,18.843, 18.286,18.843s 18.286-8.439, 18.286-18.843L 182.857,278.857 l 27.831,0.00 c 10.377,0.00, 18.843-8.448, 18.843-18.277C 229.522,250.706, 221.065,242.286, 210.688,242.286
		z M 324.37,196.041c-16.695,0.00-30.235,13.522-30.235,30.254c0.00,10.405, 5.559,19.099, 13.531,24.549c 4.05,4.178, 9.691,6.821, 15.982,6.821
		c 3.995,0.00, 7.525-1.326, 10.779-3.136c 11.694-4.178, 20.187-15.086, 20.187-28.224C 354.615,209.573, 341.083,196.041, 324.37,196.041z M 372.279,259.045
		c-16.722,0.00-30.254,13.531-30.254,30.254c0.00,16.713, 13.522,30.254, 30.254,30.254c 16.686,0.00, 30.226-13.531, 30.226-30.254
		C 402.496,272.576, 388.965,259.045, 372.279,259.045z"  />
<glyph unicode="&#xe025;" d="M 399.314,380.379l-279.131,0.00 c-6.738,0.00-12.069-5.403-12.069-12.032c0.00-6.656, 5.33-12.023, 12.069-12.023l 279.131,0.00 
			c 10.139,0.00, 18.277-8.274, 18.277-18.368l0.00-199.881 c0.00-6.647, 5.431-12.059, 12.069-12.059c 6.665,0.00, 12.069,5.422, 12.069,12.059L 441.728,337.957 
			C 441.728,361.371, 422.665,380.379, 399.314,380.379zM 456.585,434.194L 177.518,434.194 c-6.738,0.00-12.069-5.376-12.069-12.069c0.00-6.693, 5.33-12.041, 12.069-12.041l 279.077,0.00 
			c 10.094,0.00, 18.368-8.238, 18.368-18.377l0.00-199.881 c0.00-6.656, 5.385-12.069, 11.986-12.069c 6.729,0.00, 12.151,5.422, 12.151,12.069L 499.099,391.707 
			C 499.09,415.141, 479.982,434.194, 456.585,434.194zM 345.271,323.63l-0.11,0.00 L 66.066,323.63 L 65.947,323.63 c-19.602,0.00-35.611-15.954-35.611-35.639l0.00-196.105 
			c0.00-2.149, 0.695-4.05, 1.051-6.071c 1.024,4.882, 2.706,10.194, 5.221,13.449c 9.984,13.065, 22.126,21.495, 39.488,26.359l 16.238-56.942
			c0.00-5.257, 4.288-9.545, 9.545-9.545s 9.545,4.288, 9.545,9.545l0.00,45.303 c0.00,6.565, 5.285,11.941, 11.922,11.941
			c 6.574,0.00, 11.895-5.376, 11.895-11.941l0.00-45.303 c0.00-5.257, 4.325-9.545, 9.554-9.545c 5.257,0.00, 9.545,4.288, 9.545,9.545l 16.247,56.942
			c 17.381-4.809, 29.467-13.294, 39.497-26.359c 3.941-5.166, 6.107-15.488, 6.272-21.074c-0.064-1.39,0.00-3.072,0.00-4.754l0.00-9.545 l0.00-7.726 l 62.958,0.00 l 65.938,0.00 
			c 19.602,0.00, 35.602,15.982, 35.602,35.712L 380.855,288.00 C 380.864,307.685, 364.864,323.63, 345.271,323.63z M 123.365,144.978
			c-32.722,0.00-50.094,40.933-50.094,68.782c0.00,27.84, 22.446,50.441, 50.094,50.441c 27.685,0.00, 50.075-22.601, 50.075-50.441
			C 173.44,185.911, 155.502,144.978, 123.365,144.978z M 332.242,194.606L 237.531,194.606 c-5.851,0.00-10.587,4.718-10.587,10.569
			c0.00,5.842, 4.745,10.578, 10.587,10.578l 94.702,0.00 c 5.861,0.00, 10.597-4.745, 10.597-10.578C 342.839,199.323, 338.094,194.606, 332.242,194.606z
			 M 332.242,239.909L 237.531,239.909 c-5.851,0.00-10.587,4.754-10.587,10.587c0.00,5.842, 4.745,10.587, 10.587,10.587l 94.702,0.00 c 5.861,0.00, 10.597-4.745, 10.597-10.587
			C 342.839,244.663, 338.094,239.909, 332.242,239.909z"  />
<glyph unicode="&#xe026;" d="M 463.077,269.714l-72.521,0.00 c 23.918,0.00, 47.451,10.341, 65.691,28.562
		c 36.489,36.379, 36.489,96.165,0.00,132.562c-36.389,36.471-94.848,36.151-131.301-0.384l-65.317-65.17l-65.381,65.39
		C 157.723,467.20, 99.319,467.849, 62.894,431.378c-36.489-36.389-36.489-96.75,0.00-133.129C 81.088,280.037, 104.786,269.714, 128.494,269.714l-72.411,0.00 
		C 44.681,269.714, 36.571,262.912, 36.571,251.511l0.00-42.898 C 36.571,197.221, 44.681,187.429, 56.082,187.429L 73.143,187.429 l0.00-139.401 C 73.143,27.374, 89.637,13.714, 110.217,13.714L 408.96,13.714 
		c 20.581,0.00, 39.04,13.659, 39.04,34.313L 448.00,187.429 l 15.077,0.00 C 474.478,187.429, 484.571,197.221, 484.571,208.603l0.00,42.898 C 484.571,262.912, 474.478,269.714, 463.077,269.714z M 196.599,315.429l-67.739,0.00 
		c-11.886,0.00-23.845,6.272-32.997,15.278c-18.231,18.295-18.231,48.64,0.00,66.935c 18.286,18.194, 47.799,18.606, 66.094,0.411l 47.762-47.598l 0.101,0.018
		c 3.365-3.447, 5.449-9.664, 5.449-14.775C 215.269,325.422, 206.83,315.429, 196.599,315.429z M 301.714,77.897c0.00-11.346-4.617-18.469-16.018-18.469l-52.197,0.00 
		C 222.062,59.429, 210.286,66.542, 210.286,77.897L 210.286,269.714 l 91.429,0.00 L 301.714,77.897 z M 322.395,315.429c-10.222,0.00-18.706,10.048-18.706,20.325c0.00,4.489, 1.655,9.298, 4.279,12.581
		l 49.271,49.719c 18.295,18.194, 47.762,18.405, 66.057,0.21c 18.231-18.295, 18.231-49.362,0.00-67.657C 414.181,321.591, 402.231,315.429, 390.235,315.429L 322.395,315.429 z"  />
<glyph unicode="&#xe027;" d="M 479.077,245.193l-11.739,11.749L 295.104,429.184c-6.665,6.729-15.451,10.094-24.229,10.094s-17.573-3.355-24.229-10.094l-5.44-5.312
			l 166.848-166.921l 65.554-65.60l 5.477,5.477C 492.379,210.03, 492.379,231.945, 479.077,245.193zM 312.128,95.68l 8.667-8.686c 13.33-13.367, 35.173-13.367, 48.539,0.00l 54.537,54.528l-32.969,32.951L 312.128,95.68zM 96.146,381.358l-61.001-61.111c-7.534-7.451-11.419-17.298-11.419-27.282c0.00-9.902, 3.877-19.886, 11.419-27.392l 8.558-8.558
			l 170.725-170.734c 7.451-7.497, 17.463-11.218, 27.31-11.218c 10.002,0.00, 19.822,3.712, 27.328,11.218l 61.083,61.083L 96.146,381.358zM 378.542,195.813c 2.039,1.865, 3.739,4.041, 5.166,6.354c 4.069,6.40, 6.107,13.605, 6.107,20.946c0.00,9.847-3.767,19.831-11.273,27.328
			l-0.942,0.64l-5.934,5.934L 199.269,429.723c-7.451,7.515-17.518,11.438-27.337,11.438c-9.984,0.00-19.822-3.931-27.502-11.438L 139.337,424.64
			l 233.426-234.633L 378.542,195.813zM 303.506,128.302"  />
<glyph unicode="&#xe028;" d="M 413.623,269.714L 384.00,269.714 l0.00,68.699 c0.00,70.693-57.307,127.973-127.963,127.973
		C 185.307,466.386, 128.00,409.115, 128.00,338.414L 128.00,269.714 l-29.55,0.00 C 76.681,269.714, 54.857,251.813, 54.857,230.043l0.00-196.928 C 54.857,11.31, 76.681-4.571, 98.45-4.571L 413.623-4.571 
		c 21.687,0.00, 43.52,15.881, 43.52,37.687L 457.143,230.043 C 457.143,251.813, 435.31,269.714, 413.623,269.714z M 285.541,75.794c0.00-8.192-6.574-16.366-14.811-16.366l-29.467,0.00 
		c-8.165,0.00-14.775,8.174-14.775,16.366l 8.174,51.438c-10.862,7.04-18.039,19.575-18.039,33.527c0.00,21.696, 17.609,39.543, 39.415,39.543
		c 21.733,0.00, 39.342-17.545, 39.342-39.241c0.00-13.952-7.205-26.853-18.039-33.883C 277.339,127.177, 281.253,103.214, 285.541,75.794z M 338.286,269.714L 173.714,269.714 l0.00,68.699 
		c0.00,43.538, 38.72,78.757, 82.322,78.757c 43.502,0.00, 82.249-35.227, 82.249-78.757L 338.286,269.714 z"  />
<glyph unicode="&#xe029;" d="M 423.287,261.733c0.00,30.894-24.869,55.982-55.589,55.982c-30.674,0.00-55.57-25.088-55.57-55.982s 19.291-76.279, 55.57-76.279
				C 403.346,185.454, 423.287,230.848, 423.287,261.733zM 468.517,124.617c 1.408-4.80, 2.267-9.801, 2.359-13.211c-0.073-1.609,0.00-3.429,0.00-5.285l0.00-10.587 l0.00-10.569 
				c0.00-11.657-9.499-21.175-21.166-21.175L 285.733,63.79 c-11.694,0.00-21.193,9.518-21.193,21.175l0.00,10.569 l0.00,10.587 c0.00,1.856, 0.055,3.675,0.00,5.285
				c 0.091,3.41, 0.914,8.411, 2.313,13.157c0.00,0.055, 0.457,1.929, 1.719,4.965c0.00,0.018, 0.018,0.018, 0.018,0.073
				c 4.434,10.496, 19.182,33.801, 61.577,36.626l-0.073,0.11l 1.856,0.00 c 4.187,0.183, 8.64,0.183, 13.413,0.00l 44.681,0.00 c 4.763,0.183, 9.198,0.183, 13.44,0.00
				l 1.426,0.00 l0.00-0.11 c 42.533-2.679, 57.307-25.911, 61.833-36.498c 0.073-0.146, 0.128-0.247, 0.174-0.411
				C 468.069,126.473, 468.471,124.745, 468.517,124.617zM 364.727,331.438c 1.006,0.00, 1.984-0.11, 2.981-0.155c-0.155,1.371-0.393,2.725-0.722,4.059
			c-1.719,7.625-5.431,14.272-10.743,19.529C 349.166,361.975, 341.641,370.286, 330.862,370.286l-3.529,0.00 l-8.576,0.00 L 69.632,368.466
			c-10.789,0.073-22.199-5.339-29.294-12.48C 33.143,348.782, 27.429,337.847, 27.429,326.912l0.00-7.36 l 296.21-0.75
			C 334.93,326.747, 349.934,331.438, 364.727,331.438zM 251.538,132.571L 251.429,132.571 l 2.441,4.763c 5.239,10.962, 18.359,29.961, 48.256,38.546l 24.987,4.169c 2.926,0.073, 5.12,1.792, 7.241,1.792
			C 309.888,197.687, 296.603,233.143, 295.351,260.571L 30.117,260.571 l 0.046-89.838c-0.027-10.843, 4.233-21.605, 11.529-28.846c 7.077-7.122, 17.106-10.414, 27.941-10.368
			L 82.021,132.571l 168.814,0.00 C 251.045,132.571, 251.20,132.571, 251.538,132.571z"  />
<glyph unicode="&#xe02a;" d="M 397.522,445.257c-9.554,0.00-19.785-1.829-27.118-10.971L 144.457,434.286 
		c-7.333,9.143-17.518,10.971-27.118,10.971c-39.945,0.00-71.387-31.634-71.387-71.954C 45.952,314.999, 109.714,295.195, 146.286,266.45l0.00-13.541 c0.00-54.711, 36.571-100.261, 91.429-110.747
		l0.00-65.509 C 237.714,66.697, 226.679,59.429, 216.759,59.429l-49.701,0.00 c-12.48,0.00-22.601-10.405-22.601-22.875S 154.578,13.714, 167.058,13.714l 180.745,0.00 
		c 12.471,0.00, 22.61,10.368, 22.61,22.839S 360.274,59.429, 347.803,59.429l-49.701,0.00 C 288.201,59.429, 283.429,66.697, 283.429,76.654l0.00,65.509 c 45.714,10.478, 91.429,56.037, 91.429,110.747
		l0.00,13.541 c 36.571,28.745, 97.189,48.549, 97.189,106.853C 472.046,413.623, 437.495,445.257, 397.522,445.257z M 146.286,318.693c-27.429,16.411-55.15,27.392-55.15,55.589
		c0.00,15.067, 12.581,27.392, 27.575,27.392c 15.003,0.00, 27.584-12.325, 27.584-27.392L 146.295,318.693 z M 228.571,266.45c0.00-9.947-8.347-18.085-18.295-18.085
		c-9.902,0.00-18.277,8.137-18.277,18.085L 192.00,374.903 c0.00,9.957, 8.375,18.066, 18.277,18.066c 9.957,0.00, 18.295-8.11, 18.295-18.066L 228.571,266.45 z M 374.857,318.693
		l0.00,55.589 c0.00,15.067, 9.874,27.392, 24.896,27.392s 28.197-12.325, 28.197-27.392C 427.95,346.085, 393.143,335.104, 374.857,318.693z"  />
<glyph unicode="&#xe02b;" d="M 440.53,434.286L 70.647,434.286 C 42.542,434.286, 18.286,418.24, 18.286,389.952l0.00-220.178 C 18.286,141.687, 42.542,114.286, 70.647,114.286L 173.714,114.286 l0.00-123.538 L 303.534,114.286l 136.987,0.00 
		C 468.681,114.286, 484.571,141.687, 484.571,169.774L 484.571,389.952 C 484.571,418.24, 468.681,434.286, 440.53,434.286z M 129.006,233.335c-24.091,0.00-43.694,19.566-43.694,43.657
		c0.00,24.165, 19.602,43.721, 43.694,43.721c 24.128,0.00, 43.639-19.557, 43.639-43.721C 172.645,252.891, 153.134,233.335, 129.006,233.335z M 255.543,233.335
		c-24.128,0.00-43.63,19.566-43.63,43.657c0.00,24.165, 19.502,43.721, 43.63,43.721c 24.155,0.00, 43.749-19.557, 43.749-43.721
		C 299.282,252.891, 279.698,233.335, 255.543,233.335z M 382.19,233.335c-24.165,0.00-43.739,19.566-43.739,43.657c0.00,24.165, 19.584,43.721, 43.739,43.721
		c 24.082,0.00, 43.621-19.557, 43.621-43.721C 425.801,252.891, 406.272,233.335, 382.19,233.335z"  />
<glyph unicode="&#xe02c;" d="M 460.05,130.322c-1.445,11.785-10.295,14.363-17.454,8.613c-0.256-0.174-0.731-0.11-0.96-0.229
		c-8.741-8.073-20.379-13.083-33.289-13.083c-26.962,0.00-48.859,21.495-48.859,47.973c0.00,26.469, 21.897,47.918, 48.859,47.918
		c 11.794,0.00, 22.519-4.315, 30.958-11.136c 8.878-3.904, 18.56-3.401, 20.27,16.037c 3.237,60.818-8.658,114.048-19.621,119.653
		c-13.577,5.522-45.047-17.317-100.306-18.295c-41.819-0.731-46.354,8.951-46.153,15.067c 0.027,1.573, 0.603,2.99, 1.381,4.37
		c 10.825,10.661, 17.719,25.554, 17.719,42.222c0.00,32.183-25.353,58.331-56.549,58.331c-31.269,0.00-56.585-26.158-56.585-58.331
		c0.00-16.667, 6.83-31.561, 17.682-42.222c 0.741-1.381, 1.371-2.798, 1.408-4.37c 0.21-6.126-4.37-15.808-46.153-15.067
		c-55.314,0.978-86.784,23.808-100.325,18.295c-10.999-5.614-22.894-58.834-19.611-119.653c 1.646-19.438, 11.365-19.941, 20.206-16.037
		c 8.439,6.821, 19.163,11.136, 31.003,11.136c 26.962,0.00, 48.814-21.458, 48.814-47.918c0.00-26.478-21.851-47.973-48.814-47.973
		c-12.91,0.00-24.512,5.01-33.253,13.083c-0.265,0.128-0.741,0.064-0.978,0.229c-7.159,5.751-16.037,3.173-17.518-8.613
		c-1.445-11.794-7.296-56.238, 20.142-130.103c 44.48,0.64, 183.982,0.00, 183.982,0.00s 139.392,0.64, 183.909,0.00
		C 467.374,74.085, 461.531,118.528, 460.05,130.322z"  />
<glyph unicode="&#xe02d;" d="M 175.232,214.729c 56.21,0.00, 87.561,71.525, 87.561,120.256c0.00,48.695-39.15,88.21-87.561,88.21
			c-48.384,0.00-87.589-39.515-87.589-88.21C 87.643,286.263, 117.989,214.729, 175.232,214.729zM 257.838,180.855l-28.37-99.593c0.00-9.17-9.554-16.686-18.734-16.686c-9.17,0.00-18.734,7.515-18.734,16.686l0.00,79.232 
			c0.00,11.52-6.729,20.855-18.258,20.855c-11.593,0.00-18.313-9.335-18.313-20.855l0.00-79.232 c0.00-9.17-7.982-16.686-17.216-16.686
			c-9.17,0.00-16.951,7.515-16.951,16.686l-28.571,99.593c-30.309-8.494-51.611-23.241-69.083-46.098c-6.885-9.051-12.462-27.127-12.718-36.827
			C 10.99,95.424, 9.143,92.544, 9.143,89.60l0.00-16.658 l0.00-16.686 C 9.143,37.842, 27.547,22.857, 45.998,22.857l 211.721,0.00 l 69.239,111.872
			C 309.385,157.586, 288.21,172.462, 257.838,180.855zM 306.286,13.595c-0.914-2.039-0.475-4.297, 1.161-5.733c 0.878-0.997, 2.185-1.536, 3.538-1.536
			c 0.722,0.00, 1.499,0.165, 2.194,0.539l 64.722,30.811l-41.719,41.682L 306.286,13.595zM 430.382,173.65L 346.715,90.075L 388.617,48.174L 472.219,131.813L 451.301,152.759 		zM 487.817,189.175c-5.76,5.861-13.339,8.768-20.919,8.768c-7.607,0.00-15.186-2.907-20.946-8.768l-4.983-4.873
			l 41.902-41.838l 4.946,4.946C 499.31,158.93, 499.31,177.719, 487.817,189.175z"  />
<glyph unicode="&#xe02e;" d="M 434.478,350.619l 9.563-11.09L 347.666,452.571l-10.258,0.00 l-5.029,0.00 c-1.938,0.00-3.813,0.00-5.742,0.00l-176.00,0.00 
			C 103.461,452.571, 73.143,416.165, 73.143,387.749l0.00-312.475 C 73.143,12.343, 122.258-4.571, 150.647-4.571l 252.37,0.00 C 459.173,4.571, 457.143,46.839, 457.143,75.264L 457.143,322.478 L 434.478,350.619z
			 M 429.714,75.447C 429.714,52.361, 425.536,22.857, 401.874,22.857L 151.397,22.857 C 127.671,22.857, 100.571,52.361, 100.571,75.447L 100.571,387.813 c0.00,23.141, 23.177,42.048, 46.894,42.048
			l 176.329-0.686c 1.179,3.712, 3.447,5.166, 5.202,5.166c-1.60-0.174-2.523,6.665-3.63,3.191c-1.125-3.502-1.819-17.143-2.496-25.198
			l 2.103-71.397c 0.503-17.545, 15.259-32.119, 32.869-32.384l 64.338-1.024c 5.961,0.00, 7.534,0.503, 7.534,1.335L 429.714,75.447 zM 365.861,191.68c-12.562,0.165-27.465-0.96-43.648-3.282c-7.497,4.288-15.351,8.96-21.623,14.784
			c-15.726,14.729-29.001,35.237-37.193,58.176c 0.558,2.194, 1.179,4.352, 1.545,6.51c 2.313,10.277, 3.941,44.224, 3.941,44.224
			s-6.446-25.509-7.461-29.367c-0.658-2.423-1.463-5.047-2.432-7.753c-5.074,17.518-7.515,34.514-7.515,47.406
			c0.00,3.63, 0.338,10.688, 1.317,16.302c 0.457,3.977, 1.993,6.062, 3.438,7.067c 2.999-0.722, 6.318-5.275, 9.801-12.901
			c 2.981-6.583, 2.807-14.226, 2.807-18.953c0.00,0.00, 3.237,9.518, 2.441,16.43C 270.848,334.473, 266.853,342.857, 258.478,342.857l-0.741,0.00 l-3.721,2.24
			c-6.107,0.00-11.858-1.92-13.239-6.894c-5.138-18.981, 0.594-47.808, 10.24-84.398l-2.88-6.802c-7.36-17.911-16.558-35.685-24.631-51.538
			c-33.463-65.371-59.401-100.571-76.80-103.04l-0.046,0.695c-0.393,8.192, 14.683,29.248, 35.09,45.998c 2.139,1.682, 11.227,10.478, 11.227,10.478
			s-12.325-6.482-14.967-8.155c-25.591-15.259-38.363-30.528-40.393-40.686c-0.622-3.035-0.229-6.711, 2.478-8.229l 6.455-3.319
			c 17.847-8.878, 39.717,14.555, 68.818,65.536c 29.559,9.701, 66.469,18.825, 100.096,23.753c 30.098-17.161, 64.64-25.353, 77.861-21.824
			c 2.505,0.713, 5.157,2.624, 6.574,4.48c 1.079,1.664, 2.533,8.411, 2.533,8.411s-2.478-3.447-4.562-4.425
			c-8.375-3.986-34.935,2.642-62.025,15.927c 23.442,2.533, 43.081,2.624, 53.541-0.713c 13.257-4.251, 13.257-8.585, 13.111-9.499
			c 0.155,0.731, 0.795,3.675, 0.731,4.91c-0.283,3.182-1.353,6.034-3.73,8.338C 394.606,189.001, 382.464,191.479, 365.861,191.68z
			 M 217.966,160.978c 5.019,8.951, 10.478,18.661, 16.037,29.193c 10.816,20.425, 17.399,36.187, 22.894,51.017c 8.704-17.472, 20.69-34.094, 36.389-47.342
			c 3.511-2.981, 7.186-5.787, 11.026-8.43C 275.867,180.105, 245.87,172.645, 217.966,160.978z"  />
<glyph unicode="&#xe02f;" d="M 72.64,272.32c0.00,56.53, 22.491,106.898, 57.161,139.209C 71.47,392.741, 29.12,337.911, 29.12,273.335
				c0.00-63.369, 42.661-117.403, 99.365-137.125C 95.561,168.567, 72.64,217.545, 72.64,272.32z
				M 151.333,82.77c-11.849-11.785-11.849-30.976,0.00-42.761c 11.758-11.84, 30.976-11.84, 42.697,0.00l 8.512,8.457l 35.602-35.602
				c 6.08-6.107, 15.826-6.107, 21.906,0.00l 52.965,53.019c 6.117,6.071, 6.117,15.817,0.00,21.934l-35.566,35.529l 63.397,63.433
				c 13.541-7.031, 28.992-10.971, 45.285-10.971c 54.656,0.00, 98.962,44.288, 98.962,98.981c0.00,54.665-44.315,98.962-98.962,98.962
				c-54.683,0.00-98.99-44.297-98.99-98.962c0.00-16.283, 3.986-31.744, 10.944-45.303L 151.333,82.77z M 348.023,274.789
				c0.00,20.992, 17.051,38.08, 38.098,38.08c 21.01,0.00, 38.071-17.088, 38.071-38.08s-17.061-38.071-38.071-38.071
				C 365.083,236.718, 348.023,253.797, 348.023,274.789zM 151.333,82.77c-11.849-11.785-11.849-30.976,0.00-42.761
				c 11.758-11.84, 30.976-11.84, 42.697,0.00l 8.512,8.457l 35.602-35.602c 6.08-6.107, 15.826-6.107, 21.906,0.00l 52.965,53.019
				c 6.117,6.071, 6.117,15.817,0.00,21.934l-35.566,35.529l 63.397,63.433c 13.541-7.031, 28.992-10.971, 45.285-10.971c 54.656,0.00, 98.962,44.288, 98.962,98.981
				c0.00,54.665-44.315,98.962-98.962,98.962c-54.683,0.00-98.99-44.297-98.99-98.962c0.00-16.283, 3.986-31.744, 10.944-45.303L 151.333,82.77z
				 M 348.023,274.789c0.00,20.992, 17.051,38.08, 38.098,38.08c 21.01,0.00, 38.071-17.088, 38.071-38.08s-17.061-38.071-38.071-38.071
				C 365.083,236.718, 348.023,253.797, 348.023,274.789zM 275.968,376.384c-28.032,27.438-64.841,42.569-103.799,42.569c-0.439,0.00-0.869-0.027-1.234-0.11L 168.704,418.56
			c-0.649-0.101-1.353-0.302-2.066-0.521c-2.99-1.207-73.975-30.299-73.975-143.717c0.00-113.134, 69.257-144.128, 72.219-145.417
			c 1.115-0.466, 2.222-0.713, 3.365-0.741l 7.314-0.229c 0.155,0.00, 0.192,0.00, 0.338,0.00c 79.195,0.00, 143.707,65.307, 143.707,145.499
			C 319.598,312.21, 304.064,348.791, 275.968,376.384z M 286.455,213.934c-0.686,0.366-1.417,0.576-2.194,0.576l-40.037,0.00 
			c 4.224,14.894, 6.939,32.183, 7.525,52.279l 49.143,0.00 C 299.913,247.781, 294.811,229.888, 286.455,213.934z M 182.958,153.691l0.00,51.557 l 38.674,0.00 
			C 210.478,176.658, 193.755,161.17, 182.958,153.691z M 182.958,214.519l0.00,52.279 l 50.249,0.00 c-0.613-20.626-3.767-37.888-8.293-52.279L 182.958,214.519 z
			 M 117.897,327.845l 46.61,0.00 l0.00-51.813 l-53.394,0.00 C 111.323,296.274, 113.893,313.353, 117.897,327.845z M 223.954,337.088l-40.997,0.00 L 182.958,395.035 
			C 194.432,387.026, 212.846,369.856, 223.954,337.088z M 226.761,327.845c 3.913-14.482, 6.446-31.57, 6.565-51.813l-50.368,0.00 l0.00,51.813 L 226.761,327.845 z
			 M 111.241,266.798l 53.275,0.00 l0.00-52.279 l-45.001,0.00 C 114.999,228.974, 111.909,246.281, 111.241,266.798z M 251.84,276.032
			c-0.165,19.739-2.377,36.974-5.925,51.813l 41.335,0.00 c 0.402,0.00, 0.768,0.073, 1.207,0.174c 7.872-16.119, 12.224-33.746, 12.59-51.986L 251.84,276.032 z
			 M 283.557,337.088l-40.137,0.00 c-7.89,26.295-20.087,44.645-31.744,57.161c 18.999-6.107, 36.562-16.631, 51.301-31.022
			C 271.058,355.282, 277.915,346.496, 283.557,337.088z M 164.507,395.941l0.00-58.862 l-43.712,0.00 C 132.791,371.246, 152.914,388.471, 164.507,395.941z
			 M 122.807,205.239l 41.71,0.00 l0.00-54.994 C 153.966,157.303, 134.994,173.568, 122.807,205.239z M 208.037,150.665c 11.721,11.648, 24.558,29.083, 33.289,54.583l 40.046,0.00 
			C 264.704,178.834, 238.665,158.976, 208.037,150.665z"  />
<glyph unicode="&#xe030;" d="M 283.429,370.414c0.00,28.782, 21.486,52.352, 50.304,52.352S 384.00,399.195, 384.00,370.414
			L 384.00,324.571 l 36.571,0.00 l0.00,42.816 C 420.571,415.543, 382.537,452.571, 334.40,452.571l-3.959,0.00 C 282.304,452.571, 246.857,415.543, 246.857,367.387L 246.857,324.571 l 36.571,0.00 L 283.429,370.414 zM 298.386,171.218c-5.486,10.642-8.567,22.784-8.567,35.593
			c0.00,14.674, 4.142,28.361, 11.227,40.064L 301.714,280.658C 301.714,298.094, 297.682,315.429, 292.05,315.429L 71.616,315.429 C 65.957,315.429, 64.00,298.094, 64.00,280.658l0.00-44.562 l0.00-34.258 l0.00-44.507 
			C 64.00,139.877, 65.957,123.429, 71.616,123.429l 178.962,0.00 L 298.386,171.218z M 201.143,218.779l0.00-0.21 l0.00-45.193 c0.00-13.449-7.177-24.494-18.322-24.494S 164.571,159.927, 164.571,173.376
			l0.00,45.193 l0.00,0.21 c-9.143,5.851-18.871,16.101-18.871,27.794c0.00,18.167, 16.082,32.923, 36.864,32.923c 20.818,0.00, 36.818-14.757, 36.818-32.923
			C 219.383,234.88, 210.286,224.622, 201.143,218.779zM 379.749,283.749c-42.962,0.00-77.733-34.816-77.733-77.705
			c0.00-12.80, 3.081-24.951, 8.567-35.593L 195.328,55.241c-9.298-9.253-9.298-24.32,0.00-33.609c 9.262-9.253, 24.311-9.253, 33.545,0.00l 6.693,6.647
			l 27.95-27.913c 4.791-4.782, 12.434-4.782, 17.189,0.00l 41.618,41.609c 4.782,4.754, 4.782,12.425,0.00,17.216l-27.959,27.913l 49.819,49.819
			c 10.624-5.522, 22.775-8.603, 35.566-8.603c 42.898,0.00, 77.696,34.752, 77.696,77.733C 457.445,248.942, 422.656,283.749, 379.749,283.749z M 379.749,176.137
			c-16.53,0.00-29.934,13.376-29.934,29.906c0.00,16.485, 13.413,29.879, 29.934,29.879c 16.494,0.00, 29.879-13.394, 29.879-29.879
			C 409.627,189.513, 396.242,176.137, 379.749,176.137z"  />
<glyph unicode="&#xe031;" d="M 152.631,293.083c-2.139,0.146-3.639-1.545-3.429-3.712c 1.399-5.065, 3.858-9.353, 7.305-11.886
			c 1.445-1.088, 3.237-1.975, 5.239-2.587l 0.43-5.01c 0.073-1.371, 1.545-2.505, 3.237-2.56c 1.719-0.073, 3.045,0.96, 3.045,2.359
			l-0.119,4.005c 0.914-0.046, 1.755-0.091, 2.752-0.192c 0.558,0.00, 0.987,0.146, 1.518,0.146l-0.046-3.959
			c-0.018-1.399, 1.326-2.432, 3.063-2.432c 1.737,0.073, 3.163,1.207, 3.282,2.551l 0.311,4.992c 0.722,0.238, 1.527,0.384, 2.222,0.704
			c 3.109,1.371, 5.504,3.154, 7.186,5.403c 1.838,2.359, 2.853,4.846, 3.163,7.497c 0.293,2.752-0.119,5.138-1.225,7.067
			c-1.161,1.902-2.853,3.474-5.211,4.507c-1.088,0.439-2.606,1.042-4.608,1.664l-0.293,14.208c 0.987-1.179, 1.737-2.441, 2.075-4.325
			c 0.091-2.478, 2.121-4.535, 4.434-4.654c 2.286-0.046, 3.959,1.883, 3.858,4.242c-0.722,3.429-1.902,6.674-3.447,8.631
			c-1.573,2.094-3.84,3.712-6.976,4.965c-0.174,0.091-0.366,0.091-0.503,0.192l-0.439,5.787c-0.192,1.426-1.691,2.725-3.547,2.825
			c-1.81,0.00-3.255-1.088-3.255-2.578l 0.091-4.608c-1.033,0.091-2.139,0.174-3.328,0.174c-0.43,0.00-0.841,0.00-1.28-0.046l 0.101,4.434
			c 0.046,1.499-1.426,2.633-3.209,2.533c-1.783-0.091-3.355-1.371-3.493-2.825l-0.485-5.55c-2.03-0.722-3.712-1.536-4.946-2.432
			c-1.829-1.326-3.273-3.045-4.389-4.946c-1.106-2.002-1.719-4.169-1.856-6.464c-0.119-2.551, 0.338-4.901, 1.499-7.141
			c 1.134-2.267, 2.971-4.005, 5.431-5.349c 0.896-0.485, 2.03-0.987, 3.374-1.527l 0.987-15.122c-2.03,1.664-3.383,3.447-4.078,6.437
			C 156.873,290.789, 154.825,292.837, 152.631,293.083z M 180.389,291.319c 0.265-0.119, 0.576-0.219, 0.722-0.311
			c 1.719-1.042, 2.414-2.487, 2.249-4.315c-0.146-1.984-1.28-3.813-3.255-5.358c-0.091-0.046-0.311-0.046-0.411-0.119L 180.389,291.319z
			 M 172.699,279.214c-0.576-0.046-0.987-0.174-1.691-0.174c-1.033,0.00-1.829,0.21-2.825,0.338l-0.338,15.342
			c 1.134-0.338, 2.286-0.603, 3.566-0.923c 0.576-0.119, 0.96-0.265, 1.499-0.366L 172.699,279.214z M 167.973,319.762
			c 0.722,0.091, 1.225,0.238, 2.021,0.238c 1.088,0.018, 1.902-0.146, 2.871-0.338l 0.119-15.726c-0.649,0.192-1.225,0.366-1.902,0.558
			c-1.207,0.293-2.341,0.649-3.355,0.841L 167.973,319.762z M 160.11,308.251c-0.576,0.366-0.987,0.795-1.344,1.28
			c-0.704,1.015-0.987,2.002-0.96,3.237c 0.119,1.783, 1.033,3.301, 2.697,4.754L 160.11,308.251zM 45.906,370.286L 54.857,370.286L 57.984,370.286L 219.429,370.286L 219.429,397.714L 27.429,397.714L 27.429,306.286L 45.714,306.286 		zM 54.857,278.857L 73.143,278.857L 73.143,343.25L 73.143,352.00L 78.656,352.00L 246.857,352.00L 246.857,361.143L 54.857,361.143 		zM 82.286,331.557L 82.286,251.429 l 182.857,0.00 L 265.143,342.857 L 82.286,342.857 L 82.286,331.557 z M 170.075,339.154c 18.834,0.00, 34.085-17.563, 34.085-39.269
			c0.00-21.641-15.241-39.168-34.085-39.168c-18.816,0.00-34.057,17.527-34.057,39.168C 136.009,321.591, 151.25,339.154, 170.075,339.154zM 171.008,161.609c0.00,0.00-100.983-19.831-144.768,110.318C 24.96,275.639, 22.72,260.571, 22.885,256.686
			C 26.99,100.965, 165.943,104.75, 165.943,104.75l-3.209-36.325l 49.691,60.901l-38.062,70.656L 171.008,161.609zM 237.714,87.342C 237.714,74.112, 246.866,59.429, 260.059,59.429l 197.806,0.00 C 471.04,59.429, 484.571,74.112, 484.571,87.342L 484.571,160.00 L 237.714,160.00 L 237.714,87.342 zM 457.865,233.143L 260.059,233.143 C 246.866,233.143, 237.714,219.611, 237.714,206.464L 237.714,196.571 l 246.857,0.00 l0.00,9.893 C 484.571,219.611, 471.04,233.143, 457.865,233.143z"  />
<glyph unicode="&#xe032;" d="M 427.282,105.143l-83.173,0.00 c-6.345,0.00-11.538-2.935-11.538-9.17c0.00-6.126, 5.184-9.115, 11.538-9.115l 83.173,0.00 
			c 6.373,0.00, 11.557,2.99, 11.557,9.115C 438.839,102.208, 433.664,105.143, 427.282,105.143zM 412.827,68.571l-54.263,0.00 c-6.318,0.00-11.557-2.88-11.557-9.134c0.00-6.272, 5.23-9.152, 11.557-9.152l 54.263,0.00 
			c 6.345,0.00, 11.529,2.88, 11.529,9.152C 424.357,65.691, 419.182,68.571, 412.827,68.571zM 385.682,345.911c-52.352,0.00-94.802-42.432-94.802-94.802c0.00-30.007, 22.427-56.238, 22.427-56.238
			C 321.289,184.997, 329.143,166.546, 329.143,153.874l0.00-7.369 C 329.143,133.815, 336.969,123.429, 349.714,123.429l 70.208,0.00 C 432.64,123.429, 438.857,133.815, 438.857,146.505l0.00,5.97 
			c0.00,12.727, 8.823,31.049, 16.951,40.823c0.00,0.00, 23.717,26.834, 23.717,57.801C 479.515,303.479, 438.098,345.911, 385.682,345.911z M 453.522,242.286l-19.968,0.00 
			c 0.613,0.00-0.649,4.114-0.649,7.387c0.00,26.761-21.486,46.418-48.914,48.311l0.00,19.886 c 36.571-1.902, 68.544-30.546, 68.544-68.187
			C 452.544,246.40, 453.897,242.286, 453.522,242.286zM 250.825,152.311c0.00,0.00-88.887-19.739-143.607,80.832l 112.064,0.00 C 230.839,233.143, 237.714,240.32, 237.714,251.849L 237.714,315.429 L 27.429,315.429 l0.00-63.579 
			C 27.429,240.32, 35.081,233.143, 46.555,233.143l 41.609,0.00 c 18.99-146.286, 158.043-143.497, 158.043-143.497l-2.953-40.585l 53.687,67.621l-43.045,77.559L 250.825,152.311zM 237.714,355.877C 237.714,367.36, 230.839,379.429, 219.282,379.429L 46.555,379.429 C 35.081,379.429, 27.429,367.36, 27.429,355.877L 27.429,352.00 l 210.286,0.00 L 237.714,355.877 z"  />
<glyph unicode="&#xe033;" d="M 329.143,416.00L 173.714,416.00 c-15.15,0.00-27.429-12.279-27.429-27.429l0.00-320.00 c0.00-15.15, 12.279-27.429, 27.429-27.429l 54.857,0.00 l0.00,41.143 c0.00,12.626, 10.231,22.857, 22.857,22.857s 22.857-10.231, 22.857-22.857
		L 274.286,41.143 l 54.857,0.00 c 15.15,0.00, 27.429,12.279, 27.429,27.429L 356.571,388.571 C 356.571,403.721, 344.293,416.00, 329.143,416.00z M 214.857,123.429l-27.429,0.00 c-12.626,0.00-22.857,10.231-22.857,22.857s 10.231,22.857, 22.857,22.857l 27.429,0.00 
		c 12.626,0.00, 22.857-10.231, 22.857-22.857S 227.483,123.429, 214.857,123.429z M 214.857,196.571l-27.429,0.00 c-12.626,0.00-22.857,10.231-22.857,22.857s 10.231,22.857, 22.857,22.857l 27.429,0.00 
		c 12.626,0.00, 22.857-10.231, 22.857-22.857S 227.483,196.571, 214.857,196.571z M 214.857,269.714l-27.429,0.00 c-12.626,0.00-22.857,10.231-22.857,22.857s 10.231,22.857, 22.857,22.857l 27.429,0.00 
		c 12.626,0.00, 22.857-10.231, 22.857-22.857S 227.483,269.714, 214.857,269.714z M 214.857,342.857l-27.429,0.00 c-12.626,0.00-22.857,10.231-22.857,22.857s 10.231,22.857, 22.857,22.857l 27.429,0.00 
		c 12.626,0.00, 22.857-10.231, 22.857-22.857S 227.483,342.857, 214.857,342.857z M 315.429,123.429l-27.429,0.00 c-12.626,0.00-22.857,10.231-22.857,22.857s 10.231,22.857, 22.857,22.857l 27.429,0.00 
		c 12.626,0.00, 22.857-10.231, 22.857-22.857S 328.055,123.429, 315.429,123.429z M 315.429,196.571l-27.429,0.00 c-12.626,0.00-22.857,10.231-22.857,22.857s 10.231,22.857, 22.857,22.857l 27.429,0.00 
		c 12.626,0.00, 22.857-10.231, 22.857-22.857S 328.055,196.571, 315.429,196.571z M 315.429,269.714l-27.429,0.00 c-12.626,0.00-22.857,10.231-22.857,22.857s 10.231,22.857, 22.857,22.857l 27.429,0.00 
		c 12.626,0.00, 22.857-10.231, 22.857-22.857S 328.055,269.714, 315.429,269.714z M 315.429,342.857l-27.429,0.00 c-12.626,0.00-22.857,10.231-22.857,22.857s 10.231,22.857, 22.857,22.857l 27.429,0.00 
		c 12.626,0.00, 22.857-10.231, 22.857-22.857S 328.055,342.857, 315.429,342.857z"  />
<glyph unicode="&#xe034;" d="M 489.536,235.813c 0.137,42.981-10.834,78.153-32.905,105.509c-22.062,27.355-50.624,41.088-85.678,41.198
		c-27.118,0.082-52.197-8.85-75.237-26.798c-11.154-8.686-23.433-22.171-36.818-40.247c-32.357,43.264-67.173,66.752-104.494,70.281
		c 0.101,0.146, 0.192,0.283, 0.283,0.43l-9.682,0.027c-0.091,0.00-0.183,0.009-0.274,0.009c-0.082,0.00-0.165-0.009-0.247-0.009l-17.353,0.055
		c-0.238-0.485-0.613-0.951-0.878-1.426c-29.111-4.05-53.714-18.03-73.637-42.24c-5.55-6.738-10.395-13.97-14.674-21.605
		c-6.693-4.992-11.465-9.765-12.718-14.281c-5.851-21.147-8.823-45.285-8.914-72.393c0.00-0.759, 0.064-1.481, 0.064-2.24
		c-0.009-0.759-0.082-1.472-0.082-2.231c-0.091-27.099, 2.734-51.246, 8.457-72.439c 1.225-4.526, 5.97-9.326, 12.635-14.354
		c 4.224-7.662, 9.024-14.921, 14.537-21.687c 19.767-24.329, 44.279-38.464, 73.353-42.697c 0.265-0.485, 0.64-0.951, 0.878-1.435l 27.547-0.091
		c-0.101,0.155-0.192,0.293-0.293,0.448c 37.349,3.282, 72.32,26.542, 104.951,69.605c 13.266-18.158, 25.472-31.726, 36.562-40.475
		c 22.93-18.094, 47.954-27.191, 75.063-27.282c 35.054-0.11, 63.698,13.458, 85.934,40.658c 22.254,27.218, 33.426,62.309, 33.573,105.298
		c 0.009,1.755-0.137,3.52-0.238,5.275C 489.371,232.384, 489.527,234.094, 489.536,235.813z M 141.138,171.931
		c-12.901,0.027-23.954,6.839-33.179,20.434c-7.662,11.31-11.922,24.539-13.166,39.47c 1.335,14.939, 5.687,28.151, 13.422,39.406
		c 9.298,13.531, 20.398,20.279, 33.298,20.233c 13.221-0.037, 24.201-4.462, 32.942-13.239c 7.68-7.717, 18.322-23.305, 31.936-46.729
		c-13.769-23.333-24.503-38.857-32.229-46.537C 165.367,176.229, 154.35,171.886, 141.138,171.931z M 309.998,231.159c 11.657,20.114, 21.76,34.45, 30.281,43.072
		c 9.618,9.719, 19.721,14.555, 30.345,14.528c 12.224-0.037, 22.053-5.449, 29.504-16.219c 7.323-10.624, 10.944-24.585, 10.981-41.81
		c-0.192-17.106-3.904-30.985-11.237-41.509c-7.525-10.725-17.371-16.064-29.605-16.027c-10.624,0.037-20.699,4.937-30.263,14.72
		C 331.538,196.59, 321.527,210.971, 309.998,231.159z"  />
<glyph unicode="&#xe035;" d="M 248.923,196.571l 151.47,0.00 c 5.787,0.00, 10.45,7.854, 10.45,13.65c0.00,5.861-4.663,13.778-10.45,13.778L 248.923,224.00 
			c-5.797,0.00-10.523-7.918-10.523-13.778C 238.40,204.425, 243.127,196.571, 248.923,196.571zM 248.923,150.857l 151.47,0.00 c 5.787,0.00, 10.45,3.319, 10.45,9.143c0.00,5.787-4.663,9.143-10.45,9.143L 248.923,169.143 c-5.797,0.00-10.523-3.355-10.523-9.143
			C 238.40,154.176, 243.127,150.857, 248.923,150.857zM 478.19,312.00L 335.973,450.432C 333.239,453.193, 328.613,452.571, 324.818,452.571L 172.087,452.571 C 137.865,452.571, 109.714,428.782, 109.714,394.523l0.00-96.183 
			c0.00-7.89, 5.861-14.281, 13.678-14.281c 7.89,0.00, 13.751,6.391, 13.751,14.281L 137.143,394.523 C 137.143,413.038, 153.573,425.143, 172.087,425.143L 310.857,425.143 l0.00-76.992 
			C 310.857,313.966, 334.473,288.00, 368.658,288.00L 448.00,288.00 l0.00-212.37 C 448.00,57.161, 436.581,41.143, 418.094,41.143L 183.973,41.143 c-7.89,0.00-14.345-5.842-14.345-13.769
			c0.00-7.817, 6.464-13.659, 14.345-13.659l 234.13,0.00 C 452.416,13.714, 484.571,41.381, 484.571,75.63L 484.571,301.778 C 484.571,305.609, 480.887,309.303, 478.19,312.00z M 368.658,315.429
			C 350.089,315.429, 338.286,329.509, 338.286,348.151L 338.286,412.133 L 433.115,315.429L 368.658,315.429 zM 230.866,283.685c-0.018,11.584-6.866,22.565-18.267,27.218c-15.077,6.455-32.558-0.631-38.821-15.808l-67.383-161.024l-18.807,31.561
			c-8.457,14.217-26.67,18.743-40.713,10.313c-8.832-5.221-13.961-14.29-14.501-23.799c-0.329-5.705, 0.987-11.575, 4.151-16.887l 49.006-82.395
			c 5.76-9.591, 16.439-15.113, 27.63-14.409c 11.191,0.832, 20.974,7.817, 25.271,18.24l 90.112,215.424
			C 230.135,275.895, 230.885,279.817, 230.866,283.685z"  />
<glyph unicode="&#xe036;" d="M 429.714,177.006L 429.714,245.751L 283.429,225.536L 283.429,227.547L 377.765,353.92L 316.215,387.081L 253.614,242.286L 251.639,242.286L 188.901,386.048L 125.797,351.808L 219.429,228.544L 219.429,226.523L 73.143,245.751L 73.143,177.006L 219.429,197.221L 219.429,194.167L 125.303,70.848L 183.899,35.072L 249.582,178.286L 251.639,178.286L 313.298,36.087L 378.752,72.174L 283.429,193.189L 283.429,196.197 	z"  />
<glyph unicode="&#xe037;" d="M 397.422,129.006c 0.055-33.49, 0.137-64.027, 0.137-64.027c0.00-2.834-0.85-5.531-2.231-7.79l-61.349,45.952
			l-18.971,14.226c-2.222,1.655-5.385,1.17-7.013-1.051c-1.682-2.222-1.225-5.358, 0.987-6.985l 10.67-8.055l 67.547-50.359
			C 385.728,50.377, 384.137,50.286, 382.482,50.286L 60.571,50.286 c-1.618,0.00-3.218,0.091-4.69,0.64l 67.968,50.45l 10.706,7.954
			c 2.249,1.682, 2.697,4.791, 1.079,7.022c-1.691,2.222-4.809,2.688-7.058,1.033l-19.301-14.427l-61.504-45.797
			c-1.408,2.286-2.222,4.992-2.222,7.817L 45.275,214.857c0.00,1.079, 0.155,2.103, 0.338,3.099l 47.525-35.621l 99.593-74.706
			c 0.055-0.055, 0.155-0.091, 0.183-0.155c 3.483-2.578, 7.214-4.663, 11.145-6.199c 5.504-2.094, 11.337-3.246, 17.381-3.246
			c 5.952,0.00, 11.785,1.161, 17.289,3.246c 4.261,1.664, 8.329,3.977, 11.995,6.802c 0.027,0.119, 0.128,0.119, 0.21,0.174l 86.848,65.234
			c-8.238-1.563-16.439-2.642-24.713-2.642c-74.907,0.00-135.808,60.873-135.808,135.753c0.00,8.686, 0.905,17.143, 2.496,25.317L 37.312,241.161
			c-0.485-0.366-0.942-0.722-1.381-1.079c-0.146-0.155-0.329-0.338-0.512-0.512L 35.383,239.506C 28.80,232.887, 25.225,224.119, 25.225,214.857
			l 0.238-148.782c0.00-19.337, 15.781-34.075, 35.109-34.075l 321.911,0.00 c 19.401,0.00, 35.145,14.729, 35.145,34.075c0.00,0.00-0.027,23.168-0.091,51.685
			C 410.194,120.411, 403.493,123.867, 397.422,129.006zM 480.293,216.393l-57.664,57.737c 6.199,13.769, 9.719,29.01, 9.719,45.147c0.00,61.047-49.691,110.711-110.83,110.711
			c-61.029,0.00-110.656-49.664-110.656-110.711c0.00-61.083, 49.627-110.793, 110.656-110.793c 16.137,0.00, 31.433,3.575, 45.266,9.737l 57.691-57.719
			c 7.671-7.634, 17.755-11.538, 27.831-11.538c 10.121,0.00, 20.233,3.849, 27.986,11.538c 7.735,7.762, 11.52,17.856, 11.52,27.959
			C 491.813,198.601, 488.027,208.686, 480.293,216.393z M 321.527,247.205c-39.662,0.00-72.00,32.32-72.00,72.082c0.00,39.707, 32.338,72.055, 72.00,72.055
			c 39.799,0.00, 72.201-32.347, 72.201-72.055C 393.728,279.515, 361.326,247.205, 321.527,247.205z"  />
<glyph unicode="&#xe038;" d="M 492.251,155.419c-0.018,0.009-0.046,0.018-0.082,0.027L 492.37,271.543c0.00,11.154-4.315,23.104-12.233,31.058
		l-0.037,0.073c-0.21,0.21-0.43,0.43-0.613,0.613c-0.549,0.439-1.079,0.869-1.673,1.307l-221.605,27.666L 34.597,304.594
		c-0.585-0.43-1.134-0.859-1.673-1.307c-0.174-0.183-0.393-0.393-0.603-0.613L 32.274,302.601c-7.918-7.963-12.224-18.523-12.224-29.669
		l 0.192-117.486C 20.206,155.438, 20.187,155.429, 20.16,155.419c-0.073-34.331-0.11-67.438-0.11-67.438C 20.041,64.731, 39.003,41.143, 62.336,41.143l 387.474,0.00 
		c 21.33,0.00, 38.875,20.123, 41.691,41.088c 0.567,2.789, 0.869,6.491, 0.869,9.417C 492.37,91.648, 492.334,121.088, 492.251,155.419z M 44.571,276.663
		l 57.207-42.88l 119.872-89.911c 0.073-0.073, 0.183-0.101, 0.219-0.183c 4.187-3.109, 8.677-5.595, 13.422-7.442
		c 6.619-2.523, 13.641-3.913, 20.919-3.913s 14.29,1.381, 20.91,3.913c 4.745,1.847, 9.234,4.343, 13.431,7.442
		c 0.037,0.082, 0.146,0.11, 0.21,0.183l 119.872,89.911l 57.198,42.88c 0.21-1.198, 0.402-2.423, 0.402-3.73l-0.329-180.398
		c0.00-3.328-0.951-6.51-2.578-9.234l-73.655,55.168l-69.431,52.078c-1.381,1.015-3.026,1.335-4.59,1.079
		c-1.819-0.037-3.611-0.786-4.782-2.359c-1.966-2.67-1.417-6.427, 1.298-8.466l 59.493-44.571l 16.439-11.703l 60.142-45.979
		C 450.085,78.583, 449.947,77.714, 449.81,77.714L 62.638,77.714 l 76.114,57.582l 12.882,10.085c 16.027,12.032, 52.306,37.632, 47.909,43.657
		c-1.051,1.371, 9.106,13.961, 7.525,14.171c-1.746,0.457-61.934-46.327-63.515-47.506l-22.83-17.179l-73.655-55.186
		c-1.627,2.706-2.578,5.888-2.578,9.198L 44.178,272.933C 44.178,274.231, 44.361,275.465, 44.571,276.663z"  />
<glyph unicode="&#xe039;" d="M 465.655,434.286l-7.387,0.00 c-2.907,9.143-9.609,9.143-17.417,9.143L 50.871,443.429 C 40.485,443.429, 36.571,435.383, 36.571,424.987l0.00-314.587 
		C 36.571,100.05, 40.485,96.00, 50.871,96.00l 418.304,0.00 l 5.925,0.00 C 480.347,96.00, 484.571,95.762, 484.571,101.001l0.00,9.399 L 484.571,413.449 C 484.571,423.826, 476.05,434.286, 465.655,434.286z M 356.571,413.138
		C 356.571,414.72, 357.861,416.00, 359.433,416.00l 3.429,0.00 C 364.425,416.00, 365.714,414.72, 365.714,413.138l0.00-49.143 C 365.714,362.423, 364.425,361.143, 362.862,361.143l-3.429,0.00 
		C 357.861,361.143, 356.571,362.423, 356.571,363.995L 356.571,413.138 z M 310.857,413.138C 310.857,414.72, 312.146,416.00, 313.719,416.00l 3.429,0.00 C 318.711,416.00, 320.00,414.72, 320.00,413.138l0.00-49.143 
		C 320.00,362.423, 318.711,361.143, 317.147,361.143l-3.429,0.00 C 312.146,361.143, 310.857,362.423, 310.857,363.995L 310.857,413.138 z M 292.571,413.138C 292.571,414.72, 293.861,416.00, 295.433,416.00l 3.429,0.00 
		C 300.425,416.00, 301.714,414.72, 301.714,413.138l0.00-49.143 C 301.714,362.423, 300.425,361.143, 298.862,361.143l-3.429,0.00 C 293.861,361.143, 292.571,362.423, 292.571,363.995L 292.571,413.138 z M 246.857,413.138
		C 246.857,414.72, 248.137,416.00, 249.719,416.00l 3.429,0.00 C 254.72,416.00, 256.00,414.72, 256.00,413.138l0.00-49.143 C 256.00,362.423, 254.72,361.143, 253.147,361.143l-3.429,0.00 C 248.137,361.143, 246.857,362.423, 246.857,363.995
		L 246.857,413.138 z M 219.429,413.138C 219.429,414.72, 220.709,416.00, 222.29,416.00l 3.429,0.00 C 227.291,416.00, 228.571,414.72, 228.571,413.138l0.00-49.143 C 228.571,362.423, 227.291,361.143, 225.719,361.143l-3.429,0.00 
		C 220.709,361.143, 219.429,362.423, 219.429,363.995L 219.429,413.138 z M 192.00,413.138C 192.00,414.72, 193.28,416.00, 194.862,416.00l 3.429,0.00 C 199.863,416.00, 201.143,414.72, 201.143,413.138l0.00-49.143 
		C 201.143,362.423, 199.863,361.143, 198.29,361.143l-3.429,0.00 C 193.28,361.143, 192.00,362.423, 192.00,363.995L 192.00,413.138 z M 146.286,413.138C 146.286,414.72, 147.566,416.00, 149.147,416.00l 3.429,0.00 
		C 154.149,416.00, 155.429,414.72, 155.429,413.138l0.00-49.143 C 155.429,362.423, 154.149,361.143, 152.576,361.143l-3.429,0.00 C 147.566,361.143, 146.286,362.423, 146.286,363.995L 146.286,413.138 z M 118.857,413.138
		C 118.857,414.72, 120.137,416.00, 121.719,416.00l 3.429,0.00 C 126.72,416.00, 128.00,414.72, 128.00,413.138l0.00-49.143 C 128.00,362.423, 126.72,361.143, 125.147,361.143l-3.429,0.00 C 120.137,361.143, 118.857,362.423, 118.857,363.995
		L 118.857,413.138 z M 69.787,333.733C 69.787,337.335, 72.722,342.857, 76.325,342.857L 426.606,342.857 c 3.611,0.00, 6.519-5.522, 6.519-9.125c0.00-3.611-2.907-9.161-6.519-9.161
		L 76.325,324.571 C 72.722,324.571, 69.787,330.121, 69.787,333.733z M 254.245,132.571L 93.687,132.571 c-5.879,0.00-10.624,7.36-10.624,13.714c0.00,6.318, 4.754,13.714, 10.624,13.714l 160.558,0.00 
		c 5.879,0.00, 10.587-7.397, 10.587-13.714C 264.832,139.931, 260.114,132.571, 254.245,132.571z M 254.245,205.714L 93.687,205.714 c-5.879,0.00-10.624,7.369-10.624,13.742
		c0.00,6.327, 4.754,13.687, 10.624,13.687l 160.558,0.00 c 5.879,0.00, 10.587-7.36, 10.587-13.687C 264.832,213.083, 260.114,205.714, 254.245,205.714z M 254.245,278.857L 93.687,278.857 
		c-5.879,0.00-10.624,2.761-10.624,9.115S 87.808,297.143, 93.687,297.143l 160.558,0.00 c 5.879,0.00, 10.587-2.816, 10.587-9.17S 260.114,278.857, 254.245,278.857z M 438.857,146.56
		c0.00-2.679-2.194-4.846-4.901-4.846L 306.615,141.714 C 303.909,141.714, 301.714,143.881, 301.714,146.56L 301.714,301.44 c0.00,2.679, 2.194,4.846, 4.901,4.846l 127.342,0.00 
		C 436.663,306.286, 438.857,304.119, 438.857,301.44L 438.857,146.56 z"  />
<glyph unicode="&#xe03a;" d="M 459.465,214.857L 420.571,214.857 l0.00,42.414 c0.00,10.185-8.101,18.432-18.286,18.432c-10.176,0.00-18.286-8.247-18.286-18.432L 384.00,214.857 l-44.288,0.00 c-10.158,0.00-18.432-8.137-18.432-18.249
			c0.00-10.185, 8.265-18.322, 18.432-18.322L 384.00,178.286 l0.00-40.704 c0.00-10.121, 8.11-18.386, 18.286-18.386c 10.185,0.00, 18.286,8.256, 18.286,18.386L 420.571,178.286 l 38.894,0.00 
			c 10.13,0.00, 18.386,8.137, 18.386,18.322C 477.851,206.72, 469.595,214.857, 459.465,214.857zM 374.857,120.887L 374.857,169.143 l-42.203,0.00 c-10.944,0.00-17.225,5.998-19.858,18.094c0.00,0.00-1.829,6.162, 0.347,9.335l-15.04,0.00 
			c-5.842,0.00-11.246-0.576-15.963-2.807L 253.641,219.429l 31.561,28.416C 289.152,244.855, 293.504,242.286, 298.103,242.286l 57.051,0.00 C 373.175,242.286, 384.00,265.344, 384.00,283.365
			L 384.00,366.903 C 384.00,384.923, 373.175,397.714, 355.163,397.714l-57.051,0.00 C 280.091,397.714, 265.143,384.923, 265.143,366.903L 265.143,333.714 l-64.00,0.00 l0.00,33.189 C 201.143,384.923, 190.738,397.714, 172.754,397.714l-57.079,0.00 
			C 97.655,397.714, 82.286,384.923, 82.286,366.903l0.00-83.538 C 82.286,265.344, 97.655,242.286, 115.666,242.286l 57.079,0.00 c 3.63,0.00, 7.104,1.609, 10.35,3.749l 29.55-26.606l-27.721-24.951
			C 181.166,195.84, 177.097,196.571, 172.754,196.571l-57.079,0.00 C 97.655,196.571, 82.286,185.573, 82.286,167.552l0.00-83.547 C 82.286,65.993, 97.655,41.143, 115.666,41.143l 57.079,0.00 
			C 190.738,41.143, 201.143,65.993, 201.143,84.005L 201.143,105.143 l 64.00,0.00 l0.00-21.138 C 265.143,65.993, 280.091,41.143, 298.103,41.143l 57.051,0.00 C 373.175,41.143, 384.00,65.993, 384.00,84.005L 384.00,106.149 
			C 379.95,109.797, 374.857,115.017, 374.857,120.887z M 201.143,283.365L 201.143,306.286 l 64.00,0.00 l0.00-22.921 c0.00-4.928, 1.271-9.536, 3.291-13.714l-35.291-31.781l-33.92,30.546
			C 200.978,272.896, 201.143,277.952, 201.143,283.365z M 201.051,172.078l 32.091,28.891l 32.375-29.147C 265.317,170.423, 265.143,169.006, 265.143,167.552L 265.143,132.571 l-64.00,0.00 l0.00,34.981 
			C 201.143,169.097, 201.115,170.597, 201.051,172.078z"  />
</font>
</defs>
</svg>
