<svg xmlns="http://www.w3.org/2000/svg" xmlns:xlink="http://www.w3.org/1999/xlink" width="200" height="124.492" viewBox="0 0 200 124.492"><defs><style>.a{fill:url(#a);}.b{fill:url(#d);}.c{clip-path:url(#e);}.d{clip-path:url(#f);}.e,.k,.l{fill:none;}.f{fill:url(#i);}.g,.i,.m,.n,.o,.p,.q,.r{fill:#fff;}.h{mix-blend-mode:soft-light;isolation:isolate;clip-path:url(#o);}.i{fill-rule:evenodd;}.j{fill:#cdaf49;}.k,.l{stroke:#5e5214;stroke-linecap:round;stroke-width:0.5px;}.k{stroke-linejoin:round;}.m{opacity:0.4;}.n{opacity:0.5;}.o{opacity:0.6;}.p{opacity:0.7;}.q{opacity:0.8;}.r{opacity:0.9;}.s,.t{stroke:none;}.t{fill:rgba(111,111,111,0.94);}.u{filter:url(#l);}.v{filter:url(#j);}</style><radialGradient id="a" cx="0.644" cy="0.5" r="0.661" gradientTransform="translate(0 0)" gradientUnits="objectBoundingBox"><stop offset="0" stop-color="#076aa8"/><stop offset="1" stop-color="#113e69"/></radialGradient><radialGradient id="d" cx="0.5" cy="0.476" r="0.314" gradientTransform="translate(-0.004 0.004) rotate(-0.463)" gradientUnits="objectBoundingBox"><stop offset="0"/><stop offset="0.44"/><stop offset="1" stop-color="#73e3ff"/></radialGradient><clipPath id="e"><path class="a" d="M14.66,6.7H199.74a7.429,7.429,0,0,1,7.46,7.46h0V123.733a7.429,7.429,0,0,1-7.46,7.46H14.66a7.429,7.429,0,0,1-7.46-7.46V14.077A7.519,7.519,0,0,1,14.66,6.7Z" transform="translate(-7.2 -6.7)"/></clipPath><clipPath id="f"><rect class="a" width="210.278" height="137.091"/></clipPath><radialGradient id="i" cx="0.203" cy="0.5" r="0.716" gradientUnits="objectBoundingBox"><stop offset="0" stop-color="#0c5185"/><stop offset="1" stop-color="#0671b4"/></radialGradient><filter id="j" x="-61.05" y="-48.3" width="226.466" height="221.8" filterUnits="userSpaceOnUse"><feOffset dx="-5" input="SourceAlpha"/><feGaussianBlur stdDeviation="7.5" result="k"/><feFlood flood-opacity="0.161"/><feComposite operator="in" in2="k"/><feComposite in="SourceGraphic"/></filter><filter id="l" x="-61.05" y="-48.3" width="226.466" height="221.8" filterUnits="userSpaceOnUse"><feOffset dx="3" input="SourceAlpha"/><feGaussianBlur stdDeviation="3" result="m"/><feFlood flood-opacity="0.161" result="n"/><feComposite operator="out" in="SourceGraphic" in2="m"/><feComposite operator="in" in="n"/><feComposite operator="in" in2="SourceGraphic"/></filter><clipPath id="o"><path class="b" d="M3753.009,2607.953l-85.919-116.119,85.92-117.538,123.084,117.667Zm-67.3-116.173,69.308,93.669,99.288-93.563-99.288-94.918Z" transform="translate(50.91 282.768)"/></clipPath></defs><g transform="translate(16.8 -9.7)"><g class="c" transform="translate(-16.8 9.7)"><g transform="translate(-5.968 -5.553)"><g transform="translate(0 0.332)"><g class="d"><path class="e" d="M199.809,131.075c4.061,0,7.46-4.393,7.46-8.454V13.794a7.448,7.448,0,0,0-7.46-7.294H14.977A7.323,7.323,0,0,0,7.6,13.794V122.621c0,3.978,3.315,8.454,7.46,8.454Z" transform="translate(-1.301 -1.444)"/></g></g><path class="a" d="M14.66,6.7H199.74a7.469,7.469,0,0,1,7.46,7.539h0V124.986a7.469,7.469,0,0,1-7.46,7.539H14.66a7.469,7.469,0,0,1-7.46-7.539V14.156A7.558,7.558,0,0,1,14.66,6.7Z" transform="translate(-1.232 -1.48)"/></g><g transform="translate(-3434.35 -2423)"><g data-type="innerShadowGroup"><g class="v" transform="matrix(1, 0, 0, 1, 3434.35, 2423)"><path class="f" d="M3857.866,2485.246l-90.933-88.579-90.533,88.467,90.533,88.333Z" transform="translate(-3709.95 -2422.47)"/></g><g class="u" transform="matrix(1, 0, 0, 1, 3434.35, 2423)"><path class="g" d="M3857.866,2485.246l-90.933-88.579-90.533,88.467,90.533,88.333Z" transform="translate(-3709.95 -2422.47)"/></g></g><g class="h" transform="translate(-390.152 -289.092)"><path class="b" d="M3999.392,2554.329,3837.54,2396.666,3676.4,2554.128l161.14,157.224Z" transform="translate(-29.64 228.914)"/></g></g><g transform="translate(-3710.35 -2444)"><path class="i" d="M234.145,234.511a.9.9,0,0,1-.554-.647c-.035-.183.008-.31.271-.817a12.75,12.75,0,0,0,1.529-6.227,12.551,12.551,0,0,0-1.429-6,6.233,6.233,0,0,1-.4-.914.929.929,0,0,1,.385-.663.874.874,0,0,1,.954.066,4.485,4.485,0,0,1,.488.8,15.088,15.088,0,0,1,1.475,4.61,17.989,17.989,0,0,1,.061,3.833,15.013,15.013,0,0,1-1.4,4.7c-.436.9-.71,1.267-.94,1.267a.682.682,0,0,0-.166.025.694.694,0,0,1-.28-.032Zm-2.967-1.543a.808.808,0,0,1-.547-.925c.027-.085.206-.473.4-.865a9.6,9.6,0,0,0,.99-5.173,9.3,9.3,0,0,0-1.045-3.656c-.436-.886-.456-1.024-.2-1.381a.833.833,0,0,1,1.159-.106,10.6,10.6,0,0,1,1.164,2.416,11.419,11.419,0,0,1-.378,8.1c-.572,1.335-.973,1.747-1.539,1.583Zm-3.059-1.565a.92.92,0,0,1-.494-.6c-.034-.152.024-.321.3-.884a6.452,6.452,0,0,0,.034-6.084c-.441-.888-.451-1.064-.078-1.415a.59.59,0,0,1,.521-.2c.434,0,.659.217,1.047,1.009a7.65,7.65,0,0,1,.838,3.628,7.351,7.351,0,0,1-.867,3.631c-.365.735-.545.93-.91.979a.854.854,0,0,1-.394-.058Zm-2.855-1.458a.958.958,0,0,1-.464-.549c-.071-.246-.013-.441.268-.9a3.385,3.385,0,0,0,0-3.354,3.312,3.312,0,0,1-.273-.532.813.813,0,0,1,.647-.946c.371-.069.625.1.966.624a4.758,4.758,0,0,1,0,5.1c-.348.536-.737.725-1.144.557Z" transform="translate(3541.183 2269.867)"/><g transform="translate(0 1)"><g class="j" transform="translate(3732 2486)"><path class="s" d="M3.041,0H22.3a3.081,3.081,0,0,1,3.041,3.12V16.64A3.081,3.081,0,0,1,22.3,19.76H3.041A3.081,3.081,0,0,1,0,16.64V3.12A3.081,3.081,0,0,1,3.041,0Z"/><path class="t" d="M 3.041160583496094 0.4999961853027344 C 1.639959335327148 0.4999961853027344 0.5 1.675346374511719 0.5 3.120037078857422 L 0.5 16.64021682739258 C 0.5 18.08490753173828 1.639959335327148 19.26025772094727 3.041160583496094 19.26025772094727 L 22.30186080932617 19.26025772094727 C 23.70306015014648 19.26025772094727 24.84301948547363 18.08490753173828 24.84301948547363 16.64021682739258 L 24.84301948547363 3.120037078857422 C 24.84301948547363 1.675346374511719 23.70306015014648 0.4999961853027344 22.30186080932617 0.4999961853027344 L 3.041160583496094 0.4999961853027344 M 3.041160583496094 -3.814697265625e-06 L 22.30186080932617 -3.814697265625e-06 C 23.9814395904541 -3.814697265625e-06 25.34301948547363 1.396886825561523 25.34301948547363 3.120037078857422 L 25.34301948547363 16.64021682739258 C 25.34301948547363 18.36336708068848 23.9814395904541 19.76025772094727 22.30186080932617 19.76025772094727 L 3.041160583496094 19.76025772094727 C 1.361570358276367 19.76025772094727 0 18.36336708068848 0 16.64021682739258 L 0 3.120037078857422 C 0 1.396886825561523 1.361570358276367 -3.814697265625e-06 3.041160583496094 -3.814697265625e-06 Z"/></g><g transform="translate(1 21.743)"><path class="k" d="M3740.543,2484.45V2465.6" transform="translate(-0.668 -0.767)"/><path class="l" d="M3732,2472.115h8.375" transform="translate(-0.5 -0.537)"/><path class="l" d="M3732,2478.057h8.519" transform="translate(-0.75 -1.001)"/><path class="k" d="M3740.543,2482.4h7.374v2.423" transform="translate(-0.668 -1.341)"/><path class="k" d="M3748.542,2481.577v-9.692h8.428" transform="translate(-1.294 -0.518)"/><path class="l" d="M3748.542,2478.057h8.751" transform="translate(-1.294 -1.001)"/><path class="k" d="M3740.543,2467.789h7.585v-2.532" transform="translate(-0.668 -0.425)"/></g></g></g><g transform="translate(109.758 5.217)"><path class="m" d="M33.316,5.8c-4.669,1.689-7.948,4.073-10.034,7.351-2.98,4.57-3.378,10.729-1.391,18.577-1.291-7.947-.3-14.107,2.98-18.379S33.912,6.5,41.959,5.8H33.316Z" transform="translate(-0.136 -0.038)"/><path class="n" d="M29.633,5.293c-.4.2-.894.5-1.291.7a18.2,18.2,0,0,0-7.351,7.649C19.3,17.115,19,21.188,20,25.956a46.757,46.757,0,0,0,1.888,6.358c-2.285-7.749-2.086-13.908.7-18.577,1.987-3.278,5.265-5.861,9.736-7.749A33.575,33.575,0,0,1,38.474,4.2L29.633,5.293Z" transform="translate(-0.128 -0.028)"/><path class="o" d="M26.545,4.983c-.5.4-.993.7-1.49,1.093l-.3.2a17.241,17.241,0,0,0-5.663,7.848,17.293,17.293,0,0,0-.795,7.153,27.158,27.158,0,0,0,.993,4.768A34.212,34.212,0,0,0,22.075,32.5a36.61,36.61,0,0,1-2.086-6.358c-1.093-4.669-.894-8.842.7-12.319a18.2,18.2,0,0,1,7.153-7.848c.4-.3.795-.5,1.192-.795A39.823,39.823,0,0,1,35.387,2.4L26.545,4.983Z" transform="translate(-0.12 -0.016)"/><path class="p" d="M23.256,4.976a7.941,7.941,0,0,0-1.291,1.291l-.5.5-.1.1A16.425,16.425,0,0,0,17,14.911c-.2.993-.3,1.987-.4,2.98a15.71,15.71,0,0,0,.4,3.775,25.723,25.723,0,0,0,1.391,4.47,33.813,33.813,0,0,0,3.775,6.656,38.05,38.05,0,0,1-2.98-6.457,23.876,23.876,0,0,1-1.093-4.768,17.53,17.53,0,0,1,.6-7.153A18.464,18.464,0,0,1,24.15,6.467l.3-.3,1.49-1.192A34.369,34.369,0,0,1,32.1,1.4L23.256,4.976Z" transform="translate(-0.109 -0.009)"/><path class="q" d="M16.888,21.761a16.26,16.26,0,0,1-.4-3.775,15.162,15.162,0,0,1,.3-2.98,17.411,17.411,0,0,1,4.172-8.047l.1-.1.4-.5,1.291-1.291A42.8,42.8,0,0,1,28.611.7L20.365,5.071a17.269,17.269,0,0,0-1.291,1.49l-.3.4-.1.2-.2.2a17.068,17.068,0,0,0-3.179,7.55c0,.2-.1.4-.1.6a24.208,24.208,0,0,0-.1,2.682,20.675,20.675,0,0,0,.6,3.576,27.586,27.586,0,0,0,2.881,6.259,37.912,37.912,0,0,0,3.477,4.669,43.707,43.707,0,0,1-3.874-6.557,25.2,25.2,0,0,1-1.291-4.371" transform="translate(-0.099 -0.005)"/><path class="r" d="M15.686,21.956a15.177,15.177,0,0,1-.7-3.576,13.009,13.009,0,0,1,0-2.782l.1-.5a16.925,16.925,0,0,1,3.08-7.55l.2-.2.1-.2.3-.5c.4-.5.795-.993,1.291-1.589A42.383,42.383,0,0,1,25.422.1L17.971,4.868l-1.49,2.086c-.1.1-.1.2-.2.3a2.172,2.172,0,0,0-.3.5l-.1.2h0a17.536,17.536,0,0,0-1.788,4.47,15.562,15.562,0,0,0-.5,2.98v.795a9.673,9.673,0,0,0,.2,2.384,15.62,15.62,0,0,0,1.589,5.166,24.831,24.831,0,0,0,2.484,4.073,29.55,29.55,0,0,0,4.47,4.868,51.6,51.6,0,0,1-3.576-4.57,19.916,19.916,0,0,1-3.08-6.159" transform="translate(-0.089 -0.001)"/><path class="g" d="M17.584,27.916A24.023,24.023,0,0,1,15.1,23.942a18.543,18.543,0,0,1-1.689-5.166,19.291,19.291,0,0,1-.2-2.384V15.6a15.562,15.562,0,0,1,.5-2.98A17.536,17.536,0,0,1,15.5,8.146v-.1l.1-.2c.1-.2.2-.3.3-.5l.2-.3a13.566,13.566,0,0,1,1.49-2.086A36.139,36.139,0,0,1,22.154,0L0,16.392,22.054,32.783a41.91,41.91,0,0,1-4.47-4.868" transform="translate(0 0)"/><path class="g" d="M29.875,27.249A3.69,3.69,0,0,1,26.1,23.574v-.1A3.773,3.773,0,0,1,29.875,19.7h0a3.472,3.472,0,0,1,2.186.795.623.623,0,0,1,.2.795h0a.525.525,0,0,1-.795.1.214.214,0,0,1-.2-.2,2.75,2.75,0,0,0-1.291-.3,2.538,2.538,0,0,0-.3,5.067h.3a2.75,2.75,0,0,0,1.291-.3l.2-.2a.6.6,0,0,1,.795.1.525.525,0,0,1-.1.795h-.1a3.082,3.082,0,0,1-2.186.894m16.094,2.285V27.051a3.571,3.571,0,0,0,1.093.2,3.69,3.69,0,0,0,3.775-3.676v-.1A3.69,3.69,0,0,0,47.161,19.7a3.75,3.75,0,0,0-2.285.795.623.623,0,0,0-.2.795h0a.615.615,0,0,0,.795.1,3,3,0,0,1,1.589-.5,2.538,2.538,0,1,1,.3,5.067h-.3a2,2,0,0,1-1.093-.3v-.2a.6.6,0,1,0-1.192,0v3.974a.641.641,0,0,0,.6.6.556.556,0,0,0,.6-.5m-7.55-3.378a3.814,3.814,0,0,0,1.788.894A3.77,3.77,0,1,0,42.591,19.9c-.2-.1-.5-.1-.7-.2a4.12,4.12,0,0,0-3.378.894,3.131,3.131,0,0,0-1.689-.894,3.759,3.759,0,0,0-4.57,2.782,3.714,3.714,0,0,0,2.782,4.57h.1a2.469,2.469,0,0,0,.795.1,2.8,2.8,0,0,0,2.484-.993M36.432,21.09a2.476,2.476,0,0,1,1.888,1.788.565.565,0,0,0,.7.4.556.556,0,0,0,.5-.6v-.1a2,2,0,0,0-.4-.795,2.779,2.779,0,0,1,2.484-.7,2.554,2.554,0,0,1-1.192,4.967h0a2.439,2.439,0,0,1-1.888-1.987.6.6,0,0,0-1.192.2,3.559,3.559,0,0,0,.4,1.093,2.69,2.69,0,1,1-1.788-4.47h0c.2.1.3.1.5.2" transform="translate(-0.171 -0.129)"/><path class="g" d="M28.981,15.19a.6.6,0,0,0-.1-.4.516.516,0,0,0-.4-.2H27.093v.993h1.49c.1,0,.2-.1.3-.1,0-.1.1-.2.1-.3m0,1.788a.6.6,0,0,0-.1-.4.516.516,0,0,0-.4-.2h-1.49v.993h1.49c.1,0,.2-.1.3-.1.2-.1.2-.2.2-.3m1.192,0a.9.9,0,0,1-.4.795,1.128,1.128,0,0,1-.795.3H26.1V13.7h2.682a1.128,1.128,0,0,1,.795.3,1.226,1.226,0,0,1,.4.795v.2a1.412,1.412,0,0,1-.2.6.992.992,0,0,1-.5.4.992.992,0,0,1,.5.4.718.718,0,0,1,.4.6" transform="translate(-0.171 -0.09)"/><path class="g" d="M32.984,17.484v-.6H31.891a.365.365,0,0,0-.3.1.286.286,0,0,0-.1.2c0,.1,0,.2.1.2a.308.308,0,0,0,.2.1h1.192Zm.894.7H31.493a1.073,1.073,0,0,1-.7-.3.9.9,0,0,1-.3-.7,1.436,1.436,0,0,1,.2-.7.859.859,0,0,1,.6-.3h1.49v-.3l-.1-.1c0-.1-.1-.1-.2-.1H30.5V15h1.689a1.691,1.691,0,0,1,.7.1,1.2,1.2,0,0,1,.7.7c0,.2.1.4.1.6l.2,1.788Z" transform="translate(-0.2 -0.098)"/><path class="g" d="M37.48,18.18h-.894V15.994l-.1-.1a.365.365,0,0,0-.3-.1h-.795v2.484H34.5V15.1h1.689a1.26,1.26,0,0,1,.6.1.845.845,0,0,1,.5.3,1.436,1.436,0,0,1,.2.7Z" transform="translate(-0.226 -0.099)"/><path class="g" d="M40.98,18.178H39.59A1.467,1.467,0,0,1,38,16.788v-.2a1.909,1.909,0,0,1,.4-1.192,1.833,1.833,0,0,1,1.192-.5H40.98v.795H39.788a.859.859,0,0,0-.6.3.73.73,0,0,0-.2.6,1.065,1.065,0,0,0,.2.6.6.6,0,0,0,.6.3H41.08v.7h-.1Z" transform="translate(-0.249 -0.098)"/><path class="g" d="M44.181,16.589a1.842,1.842,0,0,0-.2-.7.9.9,0,0,0-.7-.3.708.708,0,0,0-.6.3.9.9,0,0,0-.3.7,1.321,1.321,0,0,0,.3.795.96.96,0,0,0,1.391,0,1.177,1.177,0,0,0,.1-.795m.993,0a1.889,1.889,0,0,1-.5,1.291,1.78,1.78,0,0,1-1.391.4,2.281,2.281,0,0,1-1.391-.4,1.383,1.383,0,0,1-.5-1.391A1.416,1.416,0,0,1,42,15.3a2.6,2.6,0,0,1,2.682,0,2.092,2.092,0,0,1,.5,1.291" transform="translate(-0.272 -0.098)"/><path class="g" d="M51.776,18.171H49.888a1.26,1.26,0,0,1-.6-.1,1.41,1.41,0,0,1-.894-.795,2.75,2.75,0,0,1-.3-1.291,2.645,2.645,0,0,1,.3-1.192c.2-.4.4-.7.795-.795a2.338,2.338,0,0,1,.795-.2h1.689v.795H49.888a.63.63,0,0,0-.6.5,3.53,3.53,0,0,0-.2.993,2.9,2.9,0,0,0,.2.894.618.618,0,0,0,.6.4h1.788v.795h.1Z" transform="translate(-0.316 -0.091)"/><path class="g" d="M54.982,16.589a1.842,1.842,0,0,0-.2-.7.9.9,0,0,0-.7-.3.708.708,0,0,0-.6.3.9.9,0,0,0-.3.7,1.321,1.321,0,0,0,.3.795.96.96,0,0,0,1.391,0c0-.3.1-.6.1-.795m.993,0a1.889,1.889,0,0,1-.5,1.291,2.281,2.281,0,0,1-1.391.4,2,2,0,0,1-1.291-.4,1.383,1.383,0,0,1-.5-1.391,1.416,1.416,0,0,1,.6-1.192,2,2,0,0,1,1.291-.4,2.281,2.281,0,0,1,1.391.4,2.817,2.817,0,0,1,.4,1.291" transform="translate(-0.343 -0.098)"/><path class="g" d="M59.083,16.589a1.842,1.842,0,0,0-.2-.7.847.847,0,0,0-1.291,0,.614.614,0,0,0-.2.7,2.338,2.338,0,0,0,.2.795.96.96,0,0,0,1.391,0c0-.3.1-.6.1-.795m.993,0a1.889,1.889,0,0,1-.5,1.291,2.185,2.185,0,0,1-1.291.4A2,2,0,0,1,57,17.88a1.383,1.383,0,0,1-.5-1.391,1.416,1.416,0,0,1,.6-1.192,2.6,2.6,0,0,1,2.682,0,4.127,4.127,0,0,1,.3,1.291" transform="translate(-0.371 -0.098)"/><path class="g" d="M62.984,16.59a1.073,1.073,0,0,0-.3-.7.859.859,0,0,0-.6-.3h-.7v1.888h.7a.708.708,0,0,0,.6-.3.708.708,0,0,0,.3-.6m.894-.1a1.734,1.734,0,0,1-.4,1.192,1.6,1.6,0,0,1-1.093.5h-.993v1.192H60.5V15h1.689a1.734,1.734,0,0,1,1.192.4,1.6,1.6,0,0,1,.5,1.093" transform="translate(-0.397 -0.098)"/><path class="g" d="M65.293,16.291a.759.759,0,0,1,.2-.5.365.365,0,0,1,.3-.1h.4c.1,0,.2.1.3.1a.759.759,0,0,1,.2.5Zm1.291.7h.894v-.3a1.374,1.374,0,0,0-.3-1.192,1.782,1.782,0,0,0-.7-.5H65.393a1.15,1.15,0,0,0-.7.5,1.278,1.278,0,0,0-.4,1.192,1.494,1.494,0,0,0,.4,1.093c.2.2.4.4.6.4a.365.365,0,0,1,.3.1h1.192a1.26,1.26,0,0,0,.6-.1v-.6H65.591a.347.347,0,0,1-.2-.1.286.286,0,0,1-.1-.2v-.2l1.291-.1h0Z" transform="translate(-0.422 -0.098)"/><path class="g" d="M69.588,15.7h-.993v2.583H67.7V15.1h.894v.4c0-.1.1-.2.2-.3s.2-.1.3-.2h.6l-.1.7Z" transform="translate(-0.444 -0.098)"/><path class="g" d="M72.384,17.484v-.6H71.291a.365.365,0,0,0-.3.1.286.286,0,0,0-.1.2c0,.1,0,.2.1.2a.308.308,0,0,0,.2.1h1.192Zm.894.7H70.893a1.073,1.073,0,0,1-.7-.3.9.9,0,0,1-.3-.7,1.436,1.436,0,0,1,.2-.7.859.859,0,0,1,.6-.3h1.49v-.3l-.1-.1c0-.1-.1-.1-.2-.1H70V15h1.689a1.691,1.691,0,0,1,.7.1.753.753,0,0,1,.4.2c.1.1.2.3.3.4a1.26,1.26,0,0,1,.1.6v1.888h.1Z" transform="translate(-0.459 -0.098)"/><path class="g" d="M75.785,15.588h-.894v1.49c0,.1,0,.3.1.3a.6.6,0,0,0,.4.1h.3v.6h-.795a.708.708,0,0,1-.6-.3.516.516,0,0,1-.2-.4V15.488h-.6v-.7h.6V13.7h.795v1.093h.894v.795Z" transform="translate(-0.482 -0.09)"/><path class="g" d="M77.194,18.171H76.3V14.992h.894Zm0-3.576H76.3V13.8h.894Z" transform="translate(-0.501 -0.091)"/><path class="g" d="M81.075,15l-1.391,3.179H78.591L77.3,15h.993l.894,2.186L80.082,15Z" transform="translate(-0.507 -0.098)"/><path class="g" d="M83.982,16.589a1.842,1.842,0,0,0-.2-.7.9.9,0,0,0-.7-.3.708.708,0,0,0-.6.3.9.9,0,0,0-.3.7,1.321,1.321,0,0,0,.3.795.96.96,0,0,0,1.391,0c0-.3.1-.6.1-.795m.993,0a1.889,1.889,0,0,1-.5,1.291,2.281,2.281,0,0,1-1.391.4,2,2,0,0,1-1.291-.4,1.383,1.383,0,0,1-.5-1.391,1.416,1.416,0,0,1,.6-1.192,2,2,0,0,1,1.291-.4,2.281,2.281,0,0,1,1.391.4,2.818,2.818,0,0,1,.4,1.291" transform="translate(-0.533 -0.098)"/><path class="g" d="M59.748,23.474a1.128,1.128,0,0,1,.3-.795.753.753,0,0,1,.4-.2.849.849,0,0,1,.7,0,.516.516,0,0,1,.4.2.824.824,0,0,1,.3.795H59.748Zm2.186.993h1.391v-.6a2.543,2.543,0,0,0-.4-1.888,2.572,2.572,0,0,0-1.093-.7c-.2,0-.3-.1-.5-.1h-.795a.9.9,0,0,0-.5.1,2.572,2.572,0,0,0-1.093.7,2.714,2.714,0,0,0-.795,1.888,2.394,2.394,0,0,0,.7,1.788,2.271,2.271,0,0,0,.993.7,1.26,1.26,0,0,0,.6.1H62.33a3.38,3.38,0,0,0,.993-.1v-.894H61.138a1.26,1.26,0,0,1-.6-.1.516.516,0,0,1-.4-.2c-.1-.1-.2-.2-.2-.3s-.1-.3-.1-.4h2.086Zm-4.272,1.987h-3.08A2.331,2.331,0,0,1,52.3,25.163a4.618,4.618,0,0,1-.5-2.086,4.448,4.448,0,0,1,.4-1.987A2.352,2.352,0,0,1,53.489,19.8a3.173,3.173,0,0,1,1.391-.3h2.782v1.391H54.78a.967.967,0,0,0-.993.795,4.118,4.118,0,0,0-.3,1.589,3.173,3.173,0,0,0,.3,1.391,1.2,1.2,0,0,0,.993.7h2.881Zm11.126,0H67.4V22.977c0-.1,0-.2-.1-.2a.214.214,0,0,0-.2-.2.759.759,0,0,0-.5-.2H65.311v3.974H63.92V21.189H66.6a3.38,3.38,0,0,1,.993.1,2.163,2.163,0,0,1,.795.5,2,2,0,0,1,.3,1.093l.1,3.576Zm4.073-4.073H71.47v2.384a.759.759,0,0,0,.2.5,1.436,1.436,0,0,0,.7.2h.4v.993H71.47a1.275,1.275,0,0,1-.993-.4.708.708,0,0,1-.3-.6c0-.2-.1-.5-.1-.7V22.381h-.795V21.288h.894V19.5h1.391v1.788H72.96l-.1,1.093Zm3.676,0h-1.59v4.073H73.556V21.288h1.391v.7a1.371,1.371,0,0,1,.3-.4c.1-.1.3-.2.4-.3l.2-.1h.6v1.192h.1ZM82.4,26.454H78.623a1.494,1.494,0,0,1-1.093-.4,1.6,1.6,0,0,1-.5-1.093,1.494,1.494,0,0,1,.4-1.093,1.379,1.379,0,0,1,.993-.5h2.384v-.5a.347.347,0,0,0-.1-.2c-.1-.1-.2-.2-.3-.2h-2.98V21.288h2.682a4.075,4.075,0,0,1,1.093.1c.2.1.5.2.6.4a1.006,1.006,0,0,1,.4.7,3.38,3.38,0,0,1,.1.993l.1,2.98Zm-1.49-1.093v-.993H79.219c-.2,0-.3,0-.4.1a.516.516,0,0,0-.2.4.753.753,0,0,0,.2.4.6.6,0,0,0,.4.1Zm3.874,1.093H83.391V19.5h1.391Z" transform="translate(-0.34 -0.128)"/></g><g transform="translate(152.257 103.5)"><g transform="translate(0 0)"><path class="i" d="M203.691,101.579c-.023,1.995,1.683,3.107,2.968,3.77,1.32.679,1.763,1.114,1.758,1.722-.01.93-1.053,1.339-2.029,1.355a6.8,6.8,0,0,1-3.481-.875l-.613,3.035a9.764,9.764,0,0,0,3.769.736c3.56,0,5.889-1.859,5.9-4.74.014-3.655-4.781-3.858-4.749-5.49.011-.5.458-1.025,1.437-1.16a6.086,6.086,0,0,1,3.341.619l.6-2.937A8.683,8.683,0,0,0,209.417,97C206.068,97,203.71,98.883,203.691,101.579Zm14.624-4.325a1.545,1.545,0,0,0-1.443,1.016l-5.085,12.837h3.559l.707-2.071H220.4l.409,2.071h3.134l-2.737-13.853Zm.5,3.742,1.027,5.2h-2.811ZM199.38,97.253l-2.8,13.853h3.389l2.8-13.853Zm-5.016,0-3.527,9.428-1.426-8.016a1.608,1.608,0,0,0-1.563-1.412H182.08l-.08.4a13.673,13.673,0,0,1,3.344,1.179,1.518,1.518,0,0,1,.805,1.217l2.7,11.055h3.583l5.49-13.853Z" transform="translate(-182 -97)"/></g></g></g></g></svg>