<svg xmlns="http://www.w3.org/2000/svg" xmlns:xlink="http://www.w3.org/1999/xlink" width="200" height="125.01" viewBox="0 0 200 125.01">
  <defs>
    <style>
      .cls-1 {
        fill: none;
        stroke: red;
        stroke-width: 4px;
      }

      .cls-2 {
        fill: url(#linear-gradient);
      }

      .cls-3 {
        clip-path: url(#clip-path);
      }

      .cls-4 {
        fill: #e5a33a;
      }

      .cls-5 {
        fill: #354244;
        stroke: #354244;
        stroke-width: 0.5px;
      }

      .cls-6 {
        fill: #fff;
      }

      .cls-7 {
        fill: #030303;
      }

      .cls-8 {
        filter: url(#Trazado_226);
      }

      .cls-9 {
        filter: url(#Trazado_225);
      }

      .cls-10 {
        filter: url(#Trazado_224);
      }

      .cls-11 {
        filter: url(#Trazado_223);
      }

      .cls-12 {
        filter: url(#Trazado_222);
      }

      .cls-13 {
        filter: url(#Trazado_221);
      }

      .cls-14 {
        filter: url(#Trazado_220);
      }

      .cls-15 {
        filter: url(#Trazado_219);
      }

      .cls-16 {
        filter: url(#Trazado_218);
      }

      .cls-17 {
        filter: url(#Trazado_217);
      }

      .cls-18 {
        filter: url(#Trazado_216);
      }

      .cls-19 {
        filter: url(#Trazado_215);
      }

      .cls-20 {
        filter: url(#Trazado_214);
      }

      .cls-21 {
        filter: url(#Trazado_213);
      }

      .cls-22 {
        filter: url(#Trazado_212);
      }

      .cls-23 {
        filter: url(#Trazado_211);
      }

      .cls-24 {
        filter: url(#Sustracción_1);
      }
    </style>
    <linearGradient id="linear-gradient" x1="0.5" x2="0.5" y2="1" gradientUnits="objectBoundingBox">
      <stop offset="0" stop-color="#e5be4a"/>
      <stop offset="1" stop-color="#e5ac3f"/>
    </linearGradient>
    <clipPath id="clip-path">
      <rect id="Rectángulo_116" data-name="Rectángulo 116" class="cls-1" width="191.45" height="117.267" rx="8"/>
    </clipPath>
    <filter id="Sustracción_1" x="12" y="12.5" width="32" height="32" filterUnits="userSpaceOnUse">
      <feOffset dx="1" dy="1" input="SourceAlpha"/>
      <feGaussianBlur result="blur"/>
      <feFlood flood-color="#caa846"/>
      <feComposite operator="in" in2="blur"/>
      <feComposite in="SourceGraphic"/>
    </filter>
    <filter id="Trazado_211" x="46.926" y="17.638" width="7.417" height="9.288" filterUnits="userSpaceOnUse">
      <feOffset dx="1" dy="1" input="SourceAlpha"/>
      <feGaussianBlur result="blur-2"/>
      <feFlood flood-color="#caa846"/>
      <feComposite operator="in" in2="blur-2"/>
      <feComposite in="SourceGraphic"/>
    </filter>
    <filter id="Trazado_212" x="53.574" y="17.803" width="3.295" height="8.941" filterUnits="userSpaceOnUse">
      <feOffset dx="1" dy="1" input="SourceAlpha"/>
      <feGaussianBlur result="blur-3"/>
      <feFlood flood-color="#caa846"/>
      <feComposite operator="in" in2="blur-3"/>
      <feComposite in="SourceGraphic"/>
    </filter>
    <filter id="Trazado_213" x="62.812" y="17.803" width="6.59" height="9.115" filterUnits="userSpaceOnUse">
      <feOffset dx="1" dy="1" input="SourceAlpha"/>
      <feGaussianBlur result="blur-4"/>
      <feFlood flood-color="#caa846"/>
      <feComposite operator="in" in2="blur-4"/>
      <feComposite in="SourceGraphic"/>
    </filter>
    <filter id="Trazado_214" x="70.518" y="19.282" width="5.854" height="7.58" filterUnits="userSpaceOnUse">
      <feOffset dx="1" dy="1" input="SourceAlpha"/>
      <feGaussianBlur result="blur-5"/>
      <feFlood flood-color="#caa846"/>
      <feComposite operator="in" in2="blur-5"/>
      <feComposite in="SourceGraphic"/>
    </filter>
    <filter id="Trazado_215" x="80.81" y="19.282" width="2.819" height="7.45" filterUnits="userSpaceOnUse">
      <feOffset dx="1" dy="1" input="SourceAlpha"/>
      <feGaussianBlur result="blur-6"/>
      <feFlood flood-color="#caa846"/>
      <feComposite operator="in" in2="blur-6"/>
      <feComposite in="SourceGraphic"/>
    </filter>
    <filter id="Trazado_216" x="75.733" y="20.824" width="5.396" height="6.057" filterUnits="userSpaceOnUse">
      <feOffset dx="1" dy="1" input="SourceAlpha"/>
      <feGaussianBlur result="blur-7"/>
      <feFlood flood-color="#caa846"/>
      <feComposite operator="in" in2="blur-7"/>
      <feComposite in="SourceGraphic"/>
    </filter>
    <filter id="Trazado_217" x="56.686" y="19.864" width="6.327" height="7.054" filterUnits="userSpaceOnUse">
      <feOffset dx="1" dy="1" input="SourceAlpha"/>
      <feGaussianBlur result="blur-8"/>
      <feFlood flood-color="#caa846"/>
      <feComposite operator="in" in2="blur-8"/>
      <feComposite in="SourceGraphic"/>
    </filter>
    <filter id="Trazado_218" x="47.733" y="27.888" width="7.892" height="9.169" filterUnits="userSpaceOnUse">
      <feOffset dx="1" dy="1" input="SourceAlpha"/>
      <feGaussianBlur result="blur-9"/>
      <feFlood flood-color="#caa846"/>
      <feComposite operator="in" in2="blur-9"/>
      <feComposite in="SourceGraphic"/>
    </filter>
    <filter id="Trazado_219" x="67.833" y="28.002" width="7.251" height="9.062" filterUnits="userSpaceOnUse">
      <feOffset dx="1" dy="1" input="SourceAlpha"/>
      <feGaussianBlur result="blur-10"/>
      <feFlood flood-color="#caa846"/>
      <feComposite operator="in" in2="blur-10"/>
      <feComposite in="SourceGraphic"/>
    </filter>
    <filter id="Trazado_220" x="86.687" y="28.301" width="5.25" height="8.755" filterUnits="userSpaceOnUse">
      <feOffset dx="1" dy="1" input="SourceAlpha"/>
      <feGaussianBlur result="blur-11"/>
      <feFlood flood-color="#caa846"/>
      <feComposite operator="in" in2="blur-11"/>
      <feComposite in="SourceGraphic"/>
    </filter>
    <filter id="Trazado_221" x="54.984" y="29.89" width="6.631" height="7.144" filterUnits="userSpaceOnUse">
      <feOffset dx="1" dy="1" input="SourceAlpha"/>
      <feGaussianBlur result="blur-12"/>
      <feFlood flood-color="#caa846"/>
      <feComposite operator="in" in2="blur-12"/>
      <feComposite in="SourceGraphic"/>
    </filter>
    <filter id="Trazado_222" x="61.148" y="29.881" width="6.826" height="7.062" filterUnits="userSpaceOnUse">
      <feOffset dx="1" dy="1" input="SourceAlpha"/>
      <feGaussianBlur result="blur-13"/>
      <feFlood flood-color="#caa846"/>
      <feComposite operator="in" in2="blur-13"/>
      <feComposite in="SourceGraphic"/>
    </filter>
    <filter id="Trazado_223" x="80.678" y="29.899" width="6.59" height="7.136" filterUnits="userSpaceOnUse">
      <feOffset dx="1" dy="1" input="SourceAlpha"/>
      <feGaussianBlur result="blur-14"/>
      <feFlood flood-color="#caa846"/>
      <feComposite operator="in" in2="blur-14"/>
      <feComposite in="SourceGraphic"/>
    </filter>
    <filter id="Trazado_224" x="91.05" y="29.88" width="6.633" height="7.185" filterUnits="userSpaceOnUse">
      <feOffset dx="1" dy="1" input="SourceAlpha"/>
      <feGaussianBlur result="blur-15"/>
      <feFlood flood-color="#caa846"/>
      <feComposite operator="in" in2="blur-15"/>
      <feComposite in="SourceGraphic"/>
    </filter>
    <filter id="Trazado_225" x="97.247" y="29.882" width="5.225" height="7.062" filterUnits="userSpaceOnUse">
      <feOffset dx="1" dy="1" input="SourceAlpha"/>
      <feGaussianBlur result="blur-16"/>
      <feFlood flood-color="#caa846"/>
      <feComposite operator="in" in2="blur-16"/>
      <feComposite in="SourceGraphic"/>
    </filter>
    <filter id="Trazado_226" x="74.443" y="30.003" width="6.703" height="7.062" filterUnits="userSpaceOnUse">
      <feOffset dx="1" dy="1" input="SourceAlpha"/>
      <feGaussianBlur result="blur-17"/>
      <feFlood flood-color="#caa846"/>
      <feComposite operator="in" in2="blur-17"/>
      <feComposite in="SourceGraphic"/>
    </filter>
  </defs>
  <g id="Club_del_conductor" data-name="Club del conductor" transform="translate(-1322 -225.5)">
    <g id="Grupo_370" data-name="Grupo 370" transform="translate(1322 225.5)">
      <g id="Club_del_conductor-2" data-name="Club del conductor" transform="translate(0 0)">
        <g id="Grupo_354" data-name="Grupo 354" transform="translate(0)">
          <path id="Trazado_179" data-name="Trazado 179" class="cls-2" d="M.3,7.324A7.407,7.407,0,0,1,7.707,0H192.893A7.407,7.407,0,0,1,200.3,7.324V117.686a7.353,7.353,0,0,1-7.407,7.324H7.707A7.407,7.407,0,0,1,.3,117.686V7.324Z" transform="translate(-0.3)"/>
        </g>
        <g id="Enmascarar_grupo_1" data-name="Enmascarar grupo 1" class="cls-3" transform="translate(4.527 4.527)">
          <g id="Grupo_353" data-name="Grupo 353" transform="translate(-77.181 -90.205)">
            <path id="Exclusión_4" data-name="Exclusión 4" class="cls-4" d="M122.789,248.566a121.267,121.267,0,0,1-68.653-21.226,124.435,124.435,0,0,1-51.642-78.01,126.992,126.992,0,0,1,0-50.095,124.378,124.378,0,0,1,51.642-78.01A122.34,122.34,0,0,1,74.994,9.767a121.6,121.6,0,0,1,95.59,0,122.341,122.341,0,0,1,20.857,11.459,124.436,124.436,0,0,1,51.642,78.01,126.992,126.992,0,0,1,0,50.095,124.379,124.379,0,0,1-51.642,78.01A122.342,122.342,0,0,1,170.584,238.8a121.132,121.132,0,0,1-47.795,9.767ZM121.666,16.695c-57.992,0-105.172,47.754-105.172,106.452S63.674,229.6,121.666,229.6s105.171-47.754,105.171-106.451S179.657,16.695,121.666,16.695Z" transform="translate(0 0)"/>
            <g id="Grupo_352" data-name="Grupo 352" transform="translate(43.312 49.433)">
              <path id="Exclusión_2" data-name="Exclusión 2" class="cls-4" d="M67.158,134.306a67.658,67.658,0,0,1-13.535-1.364,66.792,66.792,0,0,1-24.014-10.1A67.35,67.35,0,0,1,5.278,93.292,66.812,66.812,0,0,1,1.364,80.687a67.8,67.8,0,0,1,0-27.067A66.783,66.783,0,0,1,11.469,29.607,67.353,67.353,0,0,1,41.017,5.277,66.824,66.824,0,0,1,53.623,1.364a67.817,67.817,0,0,1,27.069,0,66.793,66.793,0,0,1,24.014,10.1,67.35,67.35,0,0,1,24.332,29.545,66.811,66.811,0,0,1,3.913,12.605,67.8,67.8,0,0,1,0,27.067A66.782,66.782,0,0,1,122.846,104.7,67.353,67.353,0,0,1,93.3,129.029a66.824,66.824,0,0,1-12.606,3.913A67.659,67.659,0,0,1,67.158,134.306Zm0-125.285a58.132,58.132,0,1,0,58.137,58.132A58.2,58.2,0,0,0,67.158,9.021Z" transform="translate(0 0)"/>
              <path id="Exclusión_3" data-name="Exclusión 3" class="cls-4" d="M52.388,104.769A52.778,52.778,0,0,1,41.83,103.7,52.1,52.1,0,0,1,23.1,95.822,52.538,52.538,0,0,1,4.117,72.775a52.118,52.118,0,0,1-3.053-9.833,52.892,52.892,0,0,1,0-21.115A52.1,52.1,0,0,1,8.947,23.1,52.54,52.54,0,0,1,32,4.117,52.128,52.128,0,0,1,41.83,1.064a52.9,52.9,0,0,1,21.116,0A52.1,52.1,0,0,1,81.679,8.946a52.538,52.538,0,0,1,18.981,23.048,52.12,52.12,0,0,1,3.053,9.833,52.892,52.892,0,0,1,0,21.115,52.1,52.1,0,0,1-7.883,18.731A52.541,52.541,0,0,1,72.78,100.652a52.127,52.127,0,0,1-9.834,3.052A52.778,52.778,0,0,1,52.388,104.769Zm0-100.559a48.179,48.179,0,1,0,48.183,48.179A48.235,48.235,0,0,0,52.392,4.21Z" transform="translate(13.361 14.057)"/>
            </g>
          </g>
          <path id="Trazado_178" data-name="Trazado 178" class="cls-4" d="M182.684,2.6H11.022A9.643,9.643,0,0,0,4.071,5.429h0A9.15,9.15,0,0,0,1.242,12.3L1,83.582l.162-.081L4.394,12.3a6.293,6.293,0,0,1,1.94-4.607,6.217,6.217,0,0,1,4.607-1.859H182.6a6.545,6.545,0,0,1,4.607,1.859,6.293,6.293,0,0,1,1.94,4.607l3.071,64.737.162-64.737a9.223,9.223,0,0,0-2.91-6.87A9.02,9.02,0,0,0,182.684,2.6Z" transform="translate(-0.934 -2.534)"/>
        </g>
      </g>
      <g id="Grupo_351" data-name="Grupo 351" transform="translate(135.421 17.1)">
        <path id="Trazado_171" data-name="Trazado 171" class="cls-5" d="M10.7,15.692h2.748a.935.935,0,1,1,0,1.856H9.828A1.105,1.105,0,0,1,8.6,16.33V9.66a1.057,1.057,0,1,1,2.1,0Z" transform="translate(-8.6 -8.5)"/>
        <path id="Trazado_172" data-name="Trazado 172" class="cls-5" d="M25.938,14.242,24.827,11.69l-1.111,2.552Zm.7,1.8H22.956l-.292.638c-.292.58-.585.928-.994.928-.819,0-1.169-.522-1.169-.928a2.639,2.639,0,0,1,.234-.87l3.04-6.671a1.093,1.093,0,0,1,1.988,0l3.1,6.671a1.719,1.719,0,0,1,.234.87,1.067,1.067,0,0,1-1.169.986c-.468,0-.76-.348-.994-.928Z" transform="translate(-13.542 -8.5)"/>
        <path id="Trazado_173" data-name="Trazado 173" class="cls-5" d="M38.253,10.656v6.032a1.074,1.074,0,0,1-1.052,1.16,1.043,1.043,0,0,1-1.052-1.16V10.656h-1.7a.935.935,0,1,1,0-1.856h5.5a.935.935,0,1,1,0,1.856Z" transform="translate(-19.033 -8.625)"/>
        <path id="Trazado_174" data-name="Trazado 174" class="cls-5" d="M48.3,13.141a2.61,2.61,0,0,0,2.631,2.61,2.611,2.611,0,1,0-2.631-2.61m7.367.058a4.737,4.737,0,1,1-4.736-4.7,4.735,4.735,0,0,1,4.736,4.7" transform="translate(-24.428 -8.5)"/>
        <path id="Trazado_175" data-name="Trazado 175" class="cls-5" d="M66,15.834h.877a3.317,3.317,0,0,0,2.28-.638,2.62,2.62,0,0,0,.819-1.914c0-1.45-1.111-2.61-3.04-2.61H66v5.162Zm-.877,1.914A1.132,1.132,0,0,1,63.9,16.53V9.918c0-.928.585-1.218,1.462-1.218h1.754A4.7,4.7,0,0,1,70.8,10.092a4.548,4.548,0,0,1,1.228,3.19,4.379,4.379,0,0,1-1.345,3.132,4.742,4.742,0,0,1-3.567,1.276H65.128Z" transform="translate(-31.869 -8.583)"/>
        <path id="Trazado_176" data-name="Trazado 176" class="cls-5" d="M81.2,13.141a2.61,2.61,0,0,0,2.631,2.61,2.611,2.611,0,0,0,.058-5.221,2.7,2.7,0,0,0-2.69,2.61m7.367.058a4.737,4.737,0,1,1-4.736-4.7,4.675,4.675,0,0,1,4.736,4.7" transform="translate(-38.277 -8.5)"/>
      </g>
    </g>
    <g id="Grupo_369" data-name="Grupo 369" transform="translate(1334 238)">
      <g id="Grupo_360" data-name="Grupo 360" transform="translate(0 0)">
        <g class="cls-24" transform="matrix(1, 0, 0, 1, -12, -12.5)">
          <path id="Sustracción_1-2" data-name="Sustracción 1" class="cls-6" d="M15.5,31A15.5,15.5,0,0,1,9.467,1.218,15.5,15.5,0,0,1,21.533,29.782,15.4,15.4,0,0,1,15.5,31ZM16.606,5.3h0a.841.841,0,0,0-.374.083c-.115.07-.119.083-.154.181-.008.021-.016.046-.028.076a5.565,5.565,0,0,0-.088.785c-.028.36-.058.731-.1.918a10.321,10.321,0,0,1-.486,1.425c-.009.019-.022.047-.037.081a7.222,7.222,0,0,1-1.49,2.179,13.866,13.866,0,0,1-2.6,1.92v8.06c.085.007,9.161.711,9.6.711h.015a.837.837,0,0,0,.361-.17,2.524,2.524,0,0,0,.24-.248,1.331,1.331,0,0,0,.235-.591,6.617,6.617,0,0,0-.146-.929,2.137,2.137,0,0,0,.544-.119.664.664,0,0,0,.345-.257l.032-.045a1.311,1.311,0,0,0,.182-.327,2.781,2.781,0,0,0,.132-.449s.038-.326.038-.434a1.23,1.23,0,0,0-.093-.461c-.068-.144-.282-.489-.291-.5a2.645,2.645,0,0,0,.481-.335c.05-.05.084-.081.112-.107a.806.806,0,0,0,.167-.2c.022-.034.04-.06.056-.082a.692.692,0,0,0,.13-.32,1.661,1.661,0,0,0,.051-.5c0-.027,0-.057,0-.089a1.352,1.352,0,0,0-.043-.434l-.008-.033a.606.606,0,0,0-.164-.343l-.022-.028a1.788,1.788,0,0,0-.352-.319.7.7,0,0,0,.352-.207,1.471,1.471,0,0,0,.186-.4,3.49,3.49,0,0,0,.05-.552,2.145,2.145,0,0,0-.039-.494l-.011-.07a2.183,2.183,0,0,0-.186-.558,2,2,0,0,0-.279-.434c-.02-.016-.036-.03-.049-.043-.057-.052-.086-.078-.31-.122a4.98,4.98,0,0,0-.75-.053h-1.4c-.014,0-.334.008-.574.008a2.409,2.409,0,0,1-.262-.008,2.162,2.162,0,0,1-.5-.186l-.119-.055a.84.84,0,0,1-.284-.193L18.651,11a1.147,1.147,0,0,1-.328-.4,1.91,1.91,0,0,1-.209-.5,1.276,1.276,0,0,1,.039-.567,1.579,1.579,0,0,1,.172-.475c.042-.083.089-.176.137-.3s.071-.179.091-.229c.039-.1.054-.134.125-.328a2.5,2.5,0,0,0,.155-.619,3.465,3.465,0,0,0,0-.867,1.088,1.088,0,0,0-.209-.6,1.906,1.906,0,0,0-.461-.422,2.369,2.369,0,0,0-.867-.317A3.485,3.485,0,0,0,16.606,5.3Z" transform="translate(12 12.5)"/>
        </g>
      </g>
      <g id="Grupo_359" data-name="Grupo 359" transform="translate(7 9)">
        <rect id="Rectángulo_118" data-name="Rectángulo 118" width="2" height="2" transform="translate(0 3)"/>
        <rect id="Rectángulo_120" data-name="Rectángulo 120" width="2" height="2" transform="translate(0 7)"/>
        <rect id="Rectángulo_122" data-name="Rectángulo 122" width="2" height="2" transform="translate(0 11)"/>
        <rect id="Rectángulo_123" data-name="Rectángulo 123" class="cls-6" width="2" height="2" transform="translate(0 13)"/>
        <rect id="Rectángulo_117" data-name="Rectángulo 117" width="2" height="2" transform="translate(2 1)"/>
        <rect id="Rectángulo_119" data-name="Rectángulo 119" width="2" height="2" transform="translate(2 5)"/>
        <rect id="Rectángulo_121" data-name="Rectángulo 121" width="2" height="2" transform="translate(2 9)"/>
        <rect id="Rectángulo_123-2" data-name="Rectángulo 123" width="2" height="2" transform="translate(2 13)"/>
      </g>
    </g>
    <g id="Grupo_368" data-name="Grupo 368" transform="translate(1368.926 243.138)">
      <g class="cls-23" transform="matrix(1, 0, 0, 1, -46.93, -17.64)">
        <path id="Trazado_211-2" data-name="Trazado 211" class="cls-7" d="M13.013-400.676c-1.673.418-3.025,2.807-2.879,5.08.133,2.031,1.182,3.164,2.922,3.164a2.881,2.881,0,0,0,2.782-1.861,3.466,3.466,0,0,0,.218-.491,2.836,2.836,0,0,0-.861-.315c-.012.018-.115.218-.23.449a3.044,3.044,0,0,1-1.188,1.261,1.9,1.9,0,0,1-1.4-.006c-1-.436-1.394-1.752-1.049-3.467.412-2.013,1.273-3.061,2.516-3.049a1.823,1.823,0,0,1,1.758,1.746l.048.291.218-.036c.121-.018.321-.067.449-.1.261-.079.279-.164.127-.746a2.416,2.416,0,0,0-1.406-1.728,1.937,1.937,0,0,0-1.134-.236A5.326,5.326,0,0,0,13.013-400.676Z" transform="translate(36.8 418.36)"/>
      </g>
      <g class="cls-22" transform="matrix(1, 0, 0, 1, -46.93, -17.64)">
        <path id="Trazado_212-2" data-name="Trazado 212" class="cls-7" d="M121.128-397.867c-.018.079-.309,1.788-.649,3.807s-.624,3.74-.643,3.831l-.036.17h.491a2.613,2.613,0,0,0,.491-.024c0-.042,1.273-7.65,1.3-7.784s.018-.133-.449-.133C121.194-398,121.158-397.988,121.128-397.867Z" transform="translate(-66.23 415.8)"/>
      </g>
      <g class="cls-21" transform="matrix(1, 0, 0, 1, -46.93, -17.64)">
        <path id="Trazado_213-2" data-name="Trazado 213" class="cls-7" d="M273.489-397.867c-.018.079-.309,1.788-.649,3.807s-.624,3.74-.643,3.831c-.03.164-.024.17.2.17s.236-.006.473-.485l.242-.491.212.315a2.1,2.1,0,0,0,1.049.788,3.456,3.456,0,0,0,.77.042,1.868,1.868,0,0,0,.867-.2,3.671,3.671,0,0,0,1.631-2.243,4.012,4.012,0,0,0,.133-1.273,2.647,2.647,0,0,0-.449-1.758,1.7,1.7,0,0,0-1.685-.746,1.869,1.869,0,0,0-1.376.661c-.206.224-.267.261-.242.158.018-.073.109-.637.212-1.255s.2-1.194.218-1.291l.036-.164H274C273.549-398,273.519-397.988,273.489-397.867Zm2.625,2.625a1.323,1.323,0,0,1,.521.576,5.015,5.015,0,0,1,.006,2.176,3.476,3.476,0,0,1-.74,1.437,1.283,1.283,0,0,1-1.782.1,1.464,1.464,0,0,1-.54-1.218,3.4,3.4,0,0,1,.412-1.867,2.541,2.541,0,0,1,.612-.9A1.333,1.333,0,0,1,276.113-395.242Z" transform="translate(-209.37 415.8)"/>
      </g>
      <g class="cls-20" transform="matrix(1, 0, 0, 1, -46.93, -17.64)">
        <path id="Trazado_214-2" data-name="Trazado 214" class="cls-6" d="M431.092-396.866c-.1.621-.2,1.134-.217,1.134a.874.874,0,0,1-.182-.217,1.142,1.142,0,0,0-.473-.375,1.147,1.147,0,0,0-.784-.138,1.461,1.461,0,0,0-.789.177,2.377,2.377,0,0,0-1.05,1.168,3.584,3.584,0,0,0-.4,1.5,2.178,2.178,0,0,0,.892,2.09,1.275,1.275,0,0,0,.72.108c.483,0,.537-.01.779-.148a2.422,2.422,0,0,0,.532-.434c.291-.31.3-.306.2.148l-.069.31h.36c.355,0,.365,0,.389-.138.015-.074.251-1.474.522-3.115s.5-3.031.518-3.1c.025-.1.015-.108-.36-.108h-.389Zm-1.257,1.065a1.181,1.181,0,0,1,.774.789,3.026,3.026,0,0,1-.961,2.8.991.991,0,0,1-1.553-.522,3.415,3.415,0,0,1,.217-2.08,1.567,1.567,0,0,1,1.01-1.025A.7.7,0,0,1,429.836-395.8Z" transform="translate(-356.67 417.28)"/>
      </g>
      <g class="cls-19" transform="matrix(1, 0, 0, 1, -46.93, -17.64)">
        <path id="Trazado_215-2" data-name="Trazado 215" class="cls-6" d="M636.527-394.836c-.291,1.745-.527,3.2-.527,3.233s.094.059.38.049l.384-.015.527-3.13c.291-1.72.527-3.169.527-3.218,0-.074-.044-.084-.379-.084h-.384Z" transform="translate(-555.19 417.28)"/>
      </g>
      <g class="cls-18" transform="matrix(1, 0, 0, 1, -46.93, -17.64)">
        <path id="Trazado_216-2" data-name="Trazado 216" class="cls-6" d="M534.853-366.679a2.388,2.388,0,0,0-1.055.656,3,3,0,0,0-.8,2.144,2,2,0,0,0,1.124,2.04,1.619,1.619,0,0,0,.813.173,2.17,2.17,0,0,0,1.617-.493,2.739,2.739,0,0,0,.586-.734,1.433,1.433,0,0,0-.33-.173l-.325-.138-.079.118a3.038,3.038,0,0,1-.291.35,1.318,1.318,0,0,1-2.016-.01,2.015,2.015,0,0,1-.31-1.01c0-.394-.148-.365,1.833-.365H537.4l-.02-.631a1.782,1.782,0,0,0-.168-.946,1.529,1.529,0,0,0-.8-.848,1.547,1.547,0,0,0-.843-.173A3.68,3.68,0,0,0,534.853-366.679Zm1.1.665A1.065,1.065,0,0,1,536.6-365v.286h-2.671l.034-.163a1.694,1.694,0,0,1,.434-.759A1.362,1.362,0,0,1,535.957-366.013Z" transform="translate(-457.27 387.54)"/>
      </g>
      <g class="cls-17" transform="matrix(1, 0, 0, 1, -46.93, -17.64)">
        <path id="Trazado_217-2" data-name="Trazado 217" class="cls-7" d="M171.76-363.836c-.212,1.037-.6,3.51-.624,3.971a1.651,1.651,0,0,0,.352,1.406,1.523,1.523,0,0,0,1.382.509,1.711,1.711,0,0,0,.782-.164,3.015,3.015,0,0,0,.982-.9c.212-.321.212-.321.091.352-.048.285-.091.521-.091.527a2.2,2.2,0,0,0,.418.018c.412,0,.424-.006.455-.17.067-.327.946-5.571.946-5.638,0-.048-.145-.073-.443-.073h-.436l-.23,1.376c-.346,2.061-.643,2.819-1.352,3.467-.582.533-1.249.612-1.667.194-.352-.352-.352-.443.036-2.716.188-1.128.358-2.11.376-2.188.03-.127.018-.133-.455-.133S171.8-364,171.76-363.836Z" transform="translate(-114.44 383.86)"/>
      </g>
      <g class="cls-16" transform="matrix(1, 0, 0, 1, -46.93, -17.64)">
        <path id="Trazado_218-2" data-name="Trazado 218" class="cls-6" d="M12.392-175.8a3.781,3.781,0,0,0-2.437,2.291,4.39,4.39,0,0,0-.455,2.279,3.31,3.31,0,0,0,.582,2.267,2.62,2.62,0,0,0,2.358,1.237,3.057,3.057,0,0,0,2.558-.9,3.286,3.286,0,0,0,.709-1.031,4.427,4.427,0,0,0,.309-.727c0-.079-.158-.121-.746-.224-.867-.158-.952-.158-.952-.061a2.617,2.617,0,0,1-.485.921,1.384,1.384,0,0,1-1.334.467c-.806-.182-1.146-.976-.976-2.261a4.489,4.489,0,0,1,.885-2.431,1.3,1.3,0,0,1,1.564-.2,1.491,1.491,0,0,1,.527,1.14v.352h.382c.212,0,.643-.018.952-.042l.558-.036-.042-.37a2.807,2.807,0,0,0-2.122-2.679A5.058,5.058,0,0,0,12.392-175.8Z" transform="translate(38.23 203.78)"/>
      </g>
      <g class="cls-15" transform="matrix(1, 0, 0, 1, -46.93, -17.64)">
        <path id="Trazado_219-2" data-name="Trazado 219" class="cls-6" d="M345.533-173.836c-.018.1-.121.685-.224,1.322s-.194,1.188-.212,1.237-.085-.03-.164-.182a1.568,1.568,0,0,0-.4-.449c-.249-.176-.291-.182-.873-.182a1.623,1.623,0,0,0-.921.152,3.461,3.461,0,0,0-1.485,2.091,5.939,5.939,0,0,0-.1,2.394,1.741,1.741,0,0,0,1.788,1.515,1.544,1.544,0,0,0,1.225-.546l.279-.3-.048.255c-.1.5-.152.467.764.467.794,0,.818-.006.849-.139.018-.073.3-1.782.637-3.8s.624-3.74.643-3.837l.036-.164h-1.758Zm-1.079,3.025a1.193,1.193,0,0,1,.376.861,9.636,9.636,0,0,1-.273,1.746,1.26,1.26,0,0,1-.655.867c-.267.133-.309.133-.509.061-.37-.145-.467-.346-.491-.994a3.805,3.805,0,0,1,.63-2.425A.676.676,0,0,1,344.454-170.811Z" transform="translate(-273.24 202)"/>
      </g>
      <g class="cls-14" transform="matrix(1, 0, 0, 1, -46.93, -17.64)">
        <path id="Trazado_220-2" data-name="Trazado 220" class="cls-6" d="M653.662-169.054c0,.012-.091.388-.194.837l-.194.818-.485.03-.479.03-.1.576c-.061.315-.109.594-.109.618s.2.048.449.048a4.535,4.535,0,0,1,.455.012c0,.012-.109.564-.242,1.231a6.223,6.223,0,0,0-.218,2.722c.242.637.776.849,2.013.812a6.105,6.105,0,0,0,.843-.055,7.463,7.463,0,0,0,.218-1.328c-.018,0-.145.03-.279.061-.564.139-1.061-.1-1.061-.5,0-.109.1-.818.224-1.582l.224-1.376h1.412l.073-.473c.042-.255.091-.54.109-.636l.03-.164h-.673c-.788,0-.727.1-.552-.909.067-.382.121-.715.121-.746A11.452,11.452,0,0,0,653.662-169.054Z" transform="translate(-565.41 197.37)"/>
      </g>
      <g class="cls-13" transform="matrix(1, 0, 0, 1, -46.93, -17.64)">
        <path id="Trazado_221-2" data-name="Trazado 221" class="cls-6" d="M131.158-142.722a2.881,2.881,0,0,0-1.667,1.509,3.51,3.51,0,0,0-.376,1.964,1.986,1.986,0,0,0,.224,1.134,2.588,2.588,0,0,0,1.2,1.212,1.944,1.944,0,0,0,1.176.194,1.884,1.884,0,0,0,1.218-.224,3.644,3.644,0,0,0,1.4-1.364,4.092,4.092,0,0,0,.406-1.77,2.617,2.617,0,0,0-1.443-2.57,1.99,1.99,0,0,0-1.073-.212A2.388,2.388,0,0,0,131.158-142.722Zm1.443,1.17a.816.816,0,0,1,.242.285,5.053,5.053,0,0,1-.285,2.831.888.888,0,0,1-1.049.54c-.63-.17-.782-.891-.485-2.358.164-.818.436-1.267.843-1.394A1,1,0,0,1,132.6-141.552Z" transform="translate(-74.13 172.74)"/>
      </g>
      <g class="cls-12" transform="matrix(1, 0, 0, 1, -46.93, -17.64)">
        <path id="Trazado_222-2" data-name="Trazado 222" class="cls-6" d="M234.3-142.855a2.416,2.416,0,0,0-.849.764l-.1.152.03-.152c.018-.085.055-.3.079-.473l.042-.315h-1.7l-.467,2.831c-.261,1.564-.485,2.9-.5,2.97l-.03.139h.885c.867,0,.885,0,.915-.133.018-.079.152-.879.3-1.776.309-1.885.394-2.194.643-2.479.406-.467,1.061-.5,1.243-.061.079.194.061.37-.249,2.273-.182,1.134-.333,2.085-.333,2.122a3.323,3.323,0,0,0,.867.055h.867l.285-1.685a12.379,12.379,0,0,0,.388-2.952,1.487,1.487,0,0,0-.5-1.061,1.37,1.37,0,0,0-1.067-.364A1.517,1.517,0,0,0,234.3-142.855Z" transform="translate(-169.65 172.88)"/>
      </g>
      <g class="cls-11" transform="matrix(1, 0, 0, 1, -46.93, -17.64)">
        <path id="Trazado_223-2" data-name="Trazado 223" class="cls-6" d="M555.218-142.651a3.339,3.339,0,0,0-2.146,2.5,2.912,2.912,0,0,0,1.291,3.37c.394.194.424.2,1.194.2h.794l.461-.23a2.6,2.6,0,0,0,1.261-1.328,3.116,3.116,0,0,0,.242-.57c0-.1-.091-.121-.746-.206-.715-.091-.685-.1-.867.3-.261.588-.691.861-1.164.733-.509-.139-.727-.63-.649-1.479.109-1.17.5-1.928,1.067-2.061a.893.893,0,0,1,.994.776l.042.273h.285c.152,0,.509-.018.788-.042l.5-.036-.03-.358a2.15,2.15,0,0,0-1.176-1.7,2,2,0,0,0-1.134-.212A4.134,4.134,0,0,0,555.218-142.651Z" transform="translate(-472.3 172.62)"/>
      </g>
      <g class="cls-10" transform="matrix(1, 0, 0, 1, -46.93, -17.64)">
        <path id="Trazado_224-2" data-name="Trazado 224" class="cls-6" d="M726.13-142.886a3.182,3.182,0,0,0-1.97,2.407,5.128,5.128,0,0,0-.018,1.691,2.737,2.737,0,0,0,1.431,1.752,3.418,3.418,0,0,0,1.994.085,3.242,3.242,0,0,0,2.049-2.3,4.77,4.77,0,0,0-.024-2.031,2.448,2.448,0,0,0-1.57-1.625A3.457,3.457,0,0,0,726.13-142.886Zm1.443,1.17c.3.188.352.358.346,1.146a3.1,3.1,0,0,1-.788,2.437.957.957,0,0,1-.843-.006c-.315-.206-.394-.43-.394-1.128a3.946,3.946,0,0,1,.606-2.334A.949.949,0,0,1,727.573-141.717Z" transform="translate(-633.03 172.91)"/>
      </g>
      <g class="cls-9" transform="matrix(1, 0, 0, 1, -46.93, -17.64)">
        <path id="Trazado_225-2" data-name="Trazado 225" class="cls-6" d="M829.767-142.883a1.657,1.657,0,0,0-.727.733c-.152.255-.158.261-.127.085.018-.1.049-.327.073-.5l.042-.315-.873.018-.867.018-.491,2.952-.5,2.958h1.843l.133-.861a10.507,10.507,0,0,1,.546-2.443,1.512,1.512,0,0,1,1.291-1.031c.17-.024.236-.067.261-.17.03-.145.152-1.322.152-1.467S830.071-143.022,829.767-142.883Z" transform="translate(-729.05 172.88)"/>
      </g>
      <g class="cls-8" transform="matrix(1, 0, 0, 1, -46.93, -17.64)">
        <path id="Trazado_226-2" data-name="Trazado 226" class="cls-6" d="M450.782-140.964c0,.018-.152.927-.333,2.025-.461,2.752-.443,3.213.115,3.68a1.5,1.5,0,0,0,1.049.321,1.659,1.659,0,0,0,1.346-.588c.309-.309.376-.352.346-.23-.024.085-.055.273-.079.424l-.036.273h1.637l.467-2.837c.261-1.558.485-2.892.5-2.97l.03-.133h-1.758l-.036.164c-.018.1-.158.9-.3,1.782s-.333,1.764-.4,1.946c-.3.812-1.158,1.158-1.4.576-.067-.164-.036-.449.267-2.279.194-1.152.346-2.116.346-2.146A10.017,10.017,0,0,0,450.782-140.964Z" transform="translate(-375.68 171)"/>
      </g>
    </g>
  </g>
</svg>
