<svg xmlns="http://www.w3.org/2000/svg" xmlns:xlink="http://www.w3.org/1999/xlink" width="200" height="124" viewBox="0 0 200 124"><defs><style>.a{clip-path:url(#a);}.b{fill:#e77032;}.c{fill:#eb8437;}.d{fill:#ed8e3b;}.dz,.e{fill:#fff;}.f{clip-path:url(#f);}.g{fill:#868485;}.h{fill:#888686;}.i{fill:#898688;}.j{fill:#8a8789;}.k{fill:#8b8889;}.l{fill:#8a898a;}.m{fill:#8a898b;}.n{fill:#8c8a8c;}.o{fill:#8c8b8c;}.p{fill:#8e8c8d;}.q{fill:#8e8c8e;}.r{fill:#8f8d8f;}.s{fill:#908e90;}.t{fill:#918f90;}.u{fill:#919092;}.v{fill:#929294;}.w{fill:#959395;}.x{fill:#959494;}.y{fill:#959595;}.z{fill:#979697;}.aa{fill:#979698;}.ab{fill:#989799;}.ac{fill:#99989a;}.ad{fill:#9a9999;}.ae{fill:#9a999a;}.af{fill:#9c9a9c;}.ag{fill:#9d9c9d;}.ah{fill:#9d9d9e;}.ai{fill:#9e9d9f;}.aj{fill:#9f9ea0;}.ak{fill:#a09fa0;}.al{fill:#a0a0a1;}.am{fill:#a19fa1;}.an{fill:#a1a0a2;}.ao{fill:#a2a1a2;}.ap{fill:#a2a2a3;}.aq{fill:#a2a1a3;}.ar{fill:#a3a2a4;}.as{fill:#a4a3a4;}.at{fill:#a6a4a5;}.au{fill:#a6a4a6;}.av{fill:#a6a5a7;}.aw{fill:#aba8a9;}.ax{fill:#acabac;}.ay{fill:#adabae;}.az{fill:#adadb0;}.ba{fill:#b3b0b2;}.bb{fill:#b4b1b1;}.bc{fill:#b4b1b3;}.bd{fill:#b4b1b4;}.be{fill:#b5b3b4;}.bf{fill:#b6b2b4;}.bg{fill:#b7b3b5;}.bh{fill:#b9b5b6;}.bi{fill:#bab6b7;}.bj{fill:#bab7b8;}.bk{fill:#bbb8b9;}.bl{fill:#bcb9ba;}.bm{fill:#bcbabb;}.bn{fill:#bbb9bc;}.bo{fill:#bbbabd;}.bp{fill:#bcbbbd;}.bq{fill:#bdbcbe;}.br{fill:#bfbec0;}.bs{fill:#c0bfc0;}.bt{fill:#c1bec1;}.bu{fill:#c2bfc1;}.bv{fill:#c3c0c2;}.bw{fill:#c3c1c3;}.bx{fill:#c3c2c4;}.by{fill:#c5c3c5;}.bz{fill:#c4c3c4;}.ca{fill:#c6c4c6;}.cb{fill:#c7c5c7;}.cc{fill:#c8c6c8;}.cd{fill:#c8c7c9;}.ce{fill:#cbc7c9;}.cf{fill:#c9c8ca;}.cg{fill:#cbc9cb;}.ch{fill:#cccacc;}.ci{fill:#cccbcd;}.cj{fill:#cdcbcd;}.ck{fill:#cdccce;}.cl{fill:#cecdce;}.cm{fill:#cececf;}.cn{fill:#cfcfcf;}.co{fill:#d0d0d0;}.cp{fill:#d1d0d0;}.cq{fill:#d2d1d1;}.cr{fill:#d2d2d3;}.cs{fill:#d4d3d5;}.ct{fill:#d7d7d6;}.cu{fill:#d6d4d6;}.cv{fill:#d8d8d8;}.cw{fill:#d8d7d9;}.cx{fill:#d8d8da;}.cy{fill:#d9d8d9;}.cz{fill:#dad9da;}.da{fill:#dbdadb;}.db{fill:#dbdadd;}.dc{fill:#dcdcdc;}.dd{fill:#dcdddd;}.de{fill:#dcdcde;}.df{fill:#dddddf;}.dg{fill:#dfdee0;}.dh{fill:#e0e0e1;}.di{fill:#e2e1e2;}.dj{fill:#e2e1e3;}.dk{fill:#e3e2e3;}.dl{fill:#e3e3e4;}.dm{fill:#e4e4e5;}.dn{fill:#e4e5e6;}.do{fill:#e6e5e7;}.dp{fill:#e6e6e7;}.dq{fill:#e6e7e8;}.dr{fill:#e7e7e8;}.ds{fill:#e8e9ea;}.dt{fill:#e9e9ea;}.du{fill:#eaeaeb;}.dv{fill:#ebebed;}.dw{fill:#ececed;}.dx{fill:#a9a7a9;}.dy{fill:#9f9ea1;}.dz{fill-rule:evenodd;}</style><clipPath id="a"><path d="M189.937,124H10.063A10.064,10.064,0,0,1,0,113.994V10.006A10.064,10.064,0,0,1,10.063,0H189.937A10.064,10.064,0,0,1,200,10.006V113.994A10.064,10.064,0,0,1,189.937,124Z"/></clipPath><clipPath id="f"><path d="M100.121,213.692a2.448,2.448,0,0,0-2.628,2.216v13.308a2.449,2.449,0,0,0,2.628,2.217h15.772a2.45,2.45,0,0,0,2.629-2.217V215.908a2.449,2.449,0,0,0-2.629-2.216Z" transform="translate(-97.493 -213.692)"/></clipPath></defs><g class="a"><path class="b" d="M179.947,110.545H-7.085a10.065,10.065,0,0,1-10.063-10.006V-13.538A10.065,10.065,0,0,1-7.085-23.544H179.946A10.065,10.065,0,0,1,190.01-13.538V100.539A10.064,10.064,0,0,1,179.947,110.545Z" transform="translate(13.718 18.862)"/></g><g class="a"><path class="c" d="M0-2.259l67.188,30.63,62.76-20.6,6.51.772,34.865,40.133,15.656-27.27L200,18.15,119.1-2.259l-37.326,24.7L84.2-2.259Z" transform="translate(0 1.81)"/><path class="d" d="M411.285-2.259l-2.431,24.7,37.326-24.7,80.9,20.409V-2.259Z" transform="translate(-327.083 1.81)"/></g><g class="a"><path class="e" d="M863.972,65.213a8.367,8.367,0,1,0,8.467,8.368,8.419,8.419,0,0,0-8.467-8.368m3.552,12.9a1.683,1.683,0,0,1-1.591,1.806s-3.4.1-4.5,0-.934-1.888-.934-1.888.032-4.738,0-5.332A9.876,9.876,0,0,1,860.35,71v-.4c.1-1.144,1.973-1.128,1.973-1.128H864.7c1.239,0,1.054,1.294,1.054,1.294v1.641c0,1.726-.876,2.135-.876,2.135h-1.989a4.78,4.78,0,0,0-1.35,2.771c0,1.412,1.3,1.524,2.508,1.534a2.194,2.194,0,0,0,2.193-1.133c.43-.855.435-2.59.595-2.59V69.625c-.159-1.617-.362-2.518.21-2.518.557-.132.6.965.6.965V71.5s.086,5.912-.118,6.606" transform="translate(-684.402 -52.244)"/><path class="e" d="M743.09,159.809v-.25a2.294,2.294,0,0,0,1.969-2.284,2.836,2.836,0,0,0-1.556-2.395,4.764,4.764,0,0,0-2.415-.422c-1.607,0-3.214,0-4.821,0l-2.36,0v2.153l1.08.022v6.746h-1.08v2.195c2.769,0,5.546.067,8.313.028a3,3,0,0,0,3.165-3.106,2.356,2.356,0,0,0-2.3-2.694m-4.591-3.093h2.018s1.208.034,1.208,1.023-1.252,1.112-1.252,1.112H738.5v-2.135Zm2.088,6.4H738.5v-2.4h2.138s1.275.041,1.275,1.151-1.325,1.25-1.325,1.25" transform="translate(-587.126 -123.74)"/><path class="e" d="M797.372,153.746v2.134h1.08v6.67h-1.08v2.4h5.671v-2.4h-1.08v-6.67h1.08v-2.134Z" transform="translate(-637.898 -123.171)"/><path class="e" d="M831.131,153.746v2.134h1.08v6.67h-1.08v2.4h10.263V160.4l-2.264-.046-.421,2.194h-2.987v-6.67h.81v-2.134Z" transform="translate(-664.905 -123.171)"/><path class="e" d="M887.845,153.746v2.134h1.08v6.67h-1.08v2.4h10.533v-4.269h-2.33l-.421,2.135H891.9v-2.4h2.432v-2.4H891.9V155.88h3.585l.716,2.134,2.181-.035v-4.233Z" transform="translate(-710.276 -123.171)"/><path class="e" d="M742.5,213.574h-2.177v.636a4.5,4.5,0,0,0-2.431-.77,4.417,4.417,0,0,0-3.943,2.175,4.9,4.9,0,0,0,0,4.248c.829,2.174,3.409,2.643,4.136,2.643s4.326-.035,4.975-3.329h-2.935a2.653,2.653,0,0,1-1.747.8c-1.008,0-1.963-.519-1.963-2.308a1.8,1.8,0,0,1,1.858-1.79s1.581.067,1.779.569v.592h2.43Z" transform="translate(-586.79 -170.994)"/><path class="e" d="M792.086,221.321l-1.59-5.336h.663v-1.867h-7.022v1.867h.647L783,221.321h-.481v1.867h4.322v-1.867h-1l.534-1.334H788.9l.475,1.332-.915.017v1.852h4.322v-1.867Zm-5.408-2.668.891-2.44.768,2.44Z" transform="translate(-626.014 -171.537)"/><path class="e" d="M846.8,221.1v-1.68a1.229,1.229,0,0,0-1.16-.916,2.541,2.541,0,0,0,1.6-2.25,2.188,2.188,0,0,0-2.367-2.335c-.349-.172-6.986,0-6.986,0v1.668l.81-.017v5.53h-.81v1.867h4.591V221.1h-.81v-1.6h1.353a1.1,1.1,0,0,1,1.052.9c.032.985,0,2.571,0,2.571h3.537V221.1Zm-3.388-3.468h-1.745v-1.867h1.671s1.125-.017,1.125.934-1.051.933-1.051.933" transform="translate(-670.306 -171.317)"/><path class="e" d="M896.816,214.044H891.9v1.868h.81v5.336h-.81v1.867h4.441s5.266.551,5.4-4.534-4.923-4.537-4.923-4.537m-1.41,7.219v-5.316c3.628.016,3.494,2.265,3.494,2.851.135,2.6-3.494,2.465-3.494,2.465" transform="translate(-713.517 -171.463)"/><path class="e" d="M741.97,82.008h-8.064V78.54h1.62V68.4h-1.62V65.2h8.077l2.936,6.8,2.952-6.8h7.91v3.2h-1.35V78.54l1.35-.268v3.735H747.95V78.273h1.89V70.525l-3.788,8.015h-2.385l-3.279-8.015V78.54h1.62Z" transform="translate(-587.125 -52.234)"/></g><g class="a"><g transform="translate(19.499 42.497)"><g class="f"><path class="g" d="M66.381,173.9l-13.091,19.7V173.9Z" transform="translate(-62.131 -181.815)"/></g><g class="f"><path class="g" d="M66.505,173.9,53.289,193.795v-.189L66.38,173.9Z" transform="translate(-62.13 -181.815)"/></g><g class="f"><path class="h" d="M66.632,173.9,53.29,193.984v-.189L66.506,173.9Z" transform="translate(-62.131 -181.815)"/></g><g class="f"><path class="h" d="M66.756,173.9l-13.467,20.27v-.189L66.631,173.9Z" transform="translate(-62.13 -181.815)"/></g><g class="f"><path class="i" d="M66.883,173.9,53.29,194.362v-.189L66.757,173.9Z" transform="translate(-62.131 -181.815)"/></g><g class="f"><path class="j" d="M67.007,173.9,53.289,194.55v-.189L66.882,173.9Z" transform="translate(-62.13 -181.815)"/></g><g class="f"><path class="k" d="M67.134,173.9,53.29,194.739v-.189L67.008,173.9Z" transform="translate(-62.131 -181.815)"/></g><g class="f"><path class="l" d="M67.258,173.9,53.289,194.929v-.189L67.133,173.9Z" transform="translate(-62.13 -181.815)"/></g><g class="f"><path class="m" d="M67.385,173.9,53.29,195.117v-.189L67.259,173.9Z" transform="translate(-62.131 -181.815)"/></g><g class="f"><path class="n" d="M67.509,173.9l-14.22,21.4v-.189l14.1-21.215Z" transform="translate(-62.13 -181.815)"/></g><g class="f"><path class="o" d="M67.636,173.9,53.29,195.495v-.189l14.22-21.4Z" transform="translate(-62.131 -181.815)"/></g><g class="f"><path class="p" d="M67.76,173.9,53.289,195.684v-.189L67.635,173.9Z" transform="translate(-62.13 -181.815)"/></g><g class="f"><path class="q" d="M67.887,173.9l-14.6,21.971v-.189L67.761,173.9Z" transform="translate(-62.131 -181.815)"/></g><g class="f"><path class="r" d="M68.011,173.9l-14.722,22.16v-.189l14.6-21.971Z" transform="translate(-62.13 -181.815)"/></g><g class="f"><path class="s" d="M68.138,173.9,53.29,196.251v-.189L68.012,173.9Z" transform="translate(-62.131 -181.815)"/></g><g class="f"><path class="t" d="M68.262,173.9,53.289,196.44v-.189L68.137,173.9Z" transform="translate(-62.13 -181.815)"/></g><g class="f"><path class="u" d="M68.389,173.9l-15.1,22.727v-.189L68.263,173.9Z" transform="translate(-62.131 -181.815)"/></g><g class="f"><path class="v" d="M68.513,173.9,53.289,196.817v-.189l15.1-22.727Z" transform="translate(-62.13 -181.815)"/></g><g class="f"><path class="w" d="M68.64,173.9l-15.35,23.1v-.189L68.514,173.9Z" transform="translate(-62.131 -181.815)"/></g><g class="f"><path class="x" d="M68.764,173.9,53.289,197.2v-.189l15.35-23.1Z" transform="translate(-62.13 -181.815)"/></g><g class="f"><path class="x" d="M68.891,173.9l-15.6,23.482V197.2L68.765,173.9Z" transform="translate(-62.131 -181.815)"/></g><g class="f"><path class="y" d="M69.015,173.9,53.289,197.573v-.189L68.89,173.9Z" transform="translate(-62.13 -181.815)"/></g><g class="f"><path class="z" d="M69.142,173.9,53.29,197.762v-.189L69.016,173.9Z" transform="translate(-62.131 -181.815)"/></g><g class="f"><path class="z" d="M69.266,173.9,53.289,197.951v-.189L69.141,173.9Z" transform="translate(-62.13 -181.815)"/></g><g class="f"><path class="aa" d="M69.393,173.9,53.29,198.14v-.189L69.267,173.9Z" transform="translate(-62.131 -181.815)"/></g><g class="f"><path class="ab" d="M69.517,173.9,53.289,198.329v-.189l16.1-24.238Z" transform="translate(-62.13 -181.815)"/></g><g class="f"><path class="ac" d="M69.644,173.9,53.29,198.518v-.189L69.518,173.9Z" transform="translate(-62.131 -181.815)"/></g><g class="f"><path class="ad" d="M69.768,173.9l-16.479,24.8v-.189L69.643,173.9Z" transform="translate(-62.13 -181.815)"/></g><g class="f"><path class="ae" d="M69.895,173.9,53.29,198.9v-.189l16.479-24.8Z" transform="translate(-62.131 -181.815)"/></g><g class="f"><path class="af" d="M70.019,173.9l-16.73,25.183V198.9l16.6-24.993Z" transform="translate(-62.13 -181.815)"/></g><g class="f"><path class="ag" d="M70.146,173.9,53.29,199.273v-.189L70.02,173.9Z" transform="translate(-62.131 -181.815)"/></g><g class="f"><path class="ag" d="M70.27,173.9l-16.981,25.56v-.189L70.145,173.9Z" transform="translate(-62.13 -181.815)"/></g><g class="f"><path class="ah" d="M70.4,173.9,53.29,199.651v-.189L70.271,173.9Z" transform="translate(-62.131 -181.815)"/></g><g class="f"><path class="ai" d="M70.521,173.9,53.289,199.84v-.189L70.4,173.9Z" transform="translate(-62.13 -181.815)"/></g><g class="f"><path class="aj" d="M70.648,173.9,53.29,200.029v-.189L70.522,173.9Z" transform="translate(-62.131 -181.815)"/></g><g class="f"><path class="ak" d="M70.772,173.9,53.289,200.218v-.189L70.647,173.9Z" transform="translate(-62.13 -181.815)"/></g><g class="f"><path class="al" d="M70.9,173.9l-17.609,26.5v-.189L70.773,173.9Z" transform="translate(-62.131 -181.815)"/></g><g class="f"><path class="am" d="M71.024,173.9,53.29,200.6v-.189L70.9,173.9Z" transform="translate(-62.131 -181.815)"/></g><g class="f"><path class="an" d="M71.15,173.9,53.29,200.785V200.6L71.025,173.9Z" transform="translate(-62.131 -181.815)"/></g><g class="f"><path class="ao" d="M71.275,173.9,53.29,200.974v-.189L71.15,173.9Z" transform="translate(-62.131 -181.815)"/></g><g class="f"><path class="ao" d="M71.4,173.9l-18.111,27.26v-.189L71.276,173.9Z" transform="translate(-62.131 -181.815)"/></g><g class="f"><path class="ap" d="M71.526,173.9,53.29,201.352v-.189L71.4,173.9Z" transform="translate(-62.131 -181.815)"/></g><g class="f"><path class="aq" d="M71.653,173.9,53.291,201.54v-.189L71.527,173.9Z" transform="translate(-62.131 -181.815)"/></g><g class="f"><path class="ar" d="M71.777,173.9,53.29,201.729v-.189L71.652,173.9Z" transform="translate(-62.131 -181.815)"/></g><g class="f"><path class="as" d="M71.9,173.9,53.291,201.918v-.189L71.778,173.9Z" transform="translate(-62.131 -181.815)"/></g><g class="f"><path class="at" d="M72.028,173.9,53.29,202.107v-.189L71.9,173.9Z" transform="translate(-62.131 -181.815)"/></g><g class="f"><path class="au" d="M72.155,173.9,53.291,202.3v-.189L72.029,173.9Z" transform="translate(-62.131 -181.815)"/></g><g class="f"><path class="av" d="M72.279,173.9,53.29,202.485V202.3L72.154,173.9Z" transform="translate(-62.131 -181.815)"/></g><g class="f"><path class="aw" d="M72.406,173.9,53.291,202.674v-.189L72.28,173.9Z" transform="translate(-62.131 -181.815)"/></g><g class="f"><path class="ax" d="M72.53,173.9,53.29,202.863v-.189L72.405,173.9Z" transform="translate(-62.131 -181.815)"/></g><g class="f"><path class="ay" d="M72.657,173.9,53.291,203.051v-.189L72.531,173.9Z" transform="translate(-62.131 -181.815)"/></g><g class="f"><path class="az" d="M72.781,173.9,53.29,203.24v-.189L72.656,173.9Z" transform="translate(-62.131 -181.815)"/></g><g class="f"><path class="ba" d="M72.908,173.9,53.291,203.43v-.189L72.782,173.9Z" transform="translate(-62.131 -181.815)"/></g><g class="f"><path class="bb" d="M73.032,173.9,53.29,203.618v-.189L72.907,173.9Z" transform="translate(-62.131 -181.815)"/></g><g class="f"><path class="bc" d="M73.159,173.9,53.291,203.807v-.189L73.033,173.9Z" transform="translate(-62.131 -181.815)"/></g><g class="f"><path class="bd" d="M73.283,173.9,53.29,204v-.189L73.158,173.9Z" transform="translate(-62.131 -181.815)"/></g><g class="f"><path class="be" d="M73.41,173.9,53.291,204.185V204L73.284,173.9Z" transform="translate(-62.131 -181.815)"/></g><g class="f"><path class="bf" d="M73.534,173.9,53.29,204.374v-.189L73.409,173.9Z" transform="translate(-62.131 -181.815)"/></g><g class="f"><path class="bg" d="M73.661,173.9l-20.37,30.661v-.189L73.535,173.9Z" transform="translate(-62.131 -181.815)"/></g><g class="f"><path class="bh" d="M73.785,173.9l-20.5,30.85v-.189L73.66,173.9Z" transform="translate(-62.131 -181.815)"/></g><g class="f"><path class="bi" d="M73.912,173.9,53.291,204.941v-.189l20.5-30.85Z" transform="translate(-62.131 -181.815)"/></g><g class="f"><path class="bj" d="M74.036,173.9,53.29,205.13v-.189L73.911,173.9Z" transform="translate(-62.131 -181.815)"/></g><g class="f"><path class="bk" d="M74.163,173.9,53.291,205.318v-.189L74.037,173.9Z" transform="translate(-62.131 -181.815)"/></g><g class="f"><path class="bl" d="M74.288,173.9l-21,31.606v-.189L74.162,173.9Z" transform="translate(-62.131 -181.815)"/></g><g class="f"><path class="bm" d="M74.414,173.9,53.291,205.7v-.189l21-31.606Z" transform="translate(-62.131 -181.815)"/></g><g class="f"><path class="bn" d="M74.539,173.9,53.29,205.885V205.7L74.413,173.9Z" transform="translate(-62.131 -181.815)"/></g><g class="f"><path class="bo" d="M74.665,173.9,53.291,206.074v-.189L74.539,173.9Z" transform="translate(-62.131 -181.815)"/></g><g class="f"><path class="bp" d="M74.79,173.9l-21.5,32.361v-.189L74.664,173.9Z" transform="translate(-62.131 -181.815)"/></g><g class="f"><path class="bq" d="M74.916,173.9l-21.625,32.55v-.189L74.79,173.9Z" transform="translate(-62.131 -181.815)"/></g><g class="f"><path class="br" d="M75.041,173.9,53.31,206.61l-.02-.01v-.148L74.915,173.9Z" transform="translate(-62.131 -181.815)"/></g><g class="f"><path class="bs" d="M75.248,173.9,53.487,206.658l-.094-.048L75.123,173.9Z" transform="translate(-62.213 -181.815)"/></g><g class="f"><path class="bt" d="M75.75,173.9,53.957,206.7l-.094-.047L75.624,173.9Z" transform="translate(-62.589 -181.815)"/></g><g class="f"><path class="bu" d="M76.251,173.9l-21.824,32.85-.094-.048,21.793-32.8Z" transform="translate(-62.965 -181.815)"/></g><g class="f"><path class="bv" d="M76.754,173.9,54.9,206.8l-.094-.047L76.629,173.9Z" transform="translate(-63.342 -181.815)"/></g><g class="f"><path class="bw" d="M77.255,173.9,55.368,206.846l-.094-.047L77.13,173.9Z" transform="translate(-63.718 -181.815)"/></g><g class="f"><path class="bx" d="M77.758,173.9,55.839,206.894l-.094-.047L77.632,173.9Z" transform="translate(-64.095 -181.815)"/></g><g class="f"><path class="by" d="M78.259,173.9l-21.95,33.039-.094-.047L78.134,173.9Z" transform="translate(-64.471 -181.815)"/></g><g class="f"><path class="bz" d="M78.762,173.9,56.781,206.988l-.094-.047L78.636,173.9Z" transform="translate(-64.848 -181.815)"/></g><g class="f"><path class="ca" d="M79.264,173.9,57.252,207.035l-.094-.047L79.139,173.9Z" transform="translate(-65.225 -181.815)"/></g><g class="f"><path class="cb" d="M79.766,173.9,57.722,207.083l-.094-.047L79.64,173.9Z" transform="translate(-65.601 -181.815)"/></g><g class="f"><path class="cc" d="M80.268,173.9,58.193,207.13l-.094-.047L80.143,173.9Z" transform="translate(-65.978 -181.815)"/></g><g class="f"><path class="cd" d="M80.77,173.9,58.663,207.177l-.094-.047L80.645,173.9Z" transform="translate(-66.354 -181.815)"/></g><g class="f"><path class="ce" d="M81.271,173.9,59.133,207.224l-.094-.047L81.146,173.9Z" transform="translate(-66.73 -181.815)"/></g><g class="f"><path class="cf" d="M81.774,173.9,59.6,207.272l-.094-.048L81.648,173.9Z" transform="translate(-67.107 -181.815)"/></g><g class="f"><path class="cg" d="M82.277,173.9l-22.2,33.417-.094-.047L82.151,173.9Z" transform="translate(-67.484 -181.815)"/></g><g class="f"><path class="ch" d="M82.779,173.9,60.547,207.366l-.094-.047,22.2-33.417Z" transform="translate(-67.861 -181.815)"/></g><g class="f"><path class="ci" d="M83.281,173.9,61.017,207.413l-.094-.048L83.155,173.9Z" transform="translate(-68.237 -181.815)"/></g><g class="f"><path class="cj" d="M83.783,173.9,61.488,207.46l-.094-.047L83.658,173.9Z" transform="translate(-68.614 -181.815)"/></g><g class="f"><path class="ck" d="M84.284,173.9l-22.3,33.568h-.1l-.019-.01L84.159,173.9Z" transform="translate(-68.99 -181.815)"/></g><g class="f"><path class="cl" d="M84.886,173.9l-22.3,33.568h-.126L84.76,173.9Z" transform="translate(-69.466 -181.815)"/></g><g class="f"><path class="cm" d="M85.513,173.9l-22.3,33.568h-.126l22.3-33.568Z" transform="translate(-69.967 -181.815)"/></g><g class="f"><path class="cn" d="M86.141,173.9,63.84,207.47h-.126l22.3-33.568Z" transform="translate(-70.47 -181.815)"/></g><g class="f"><path class="co" d="M86.769,173.9l-22.3,33.568h-.126l22.3-33.568Z" transform="translate(-70.972 -181.815)"/></g><g class="f"><path class="cp" d="M87.4,173.9l-22.3,33.568h-.126l22.3-33.568Z" transform="translate(-71.474 -181.815)"/></g><g class="f"><path class="cq" d="M88.024,173.9l-22.3,33.568H65.6L87.9,173.9Z" transform="translate(-71.976 -181.815)"/></g><g class="f"><path class="cr" d="M88.651,173.9,66.35,207.47h-.126l22.3-33.568Z" transform="translate(-72.478 -181.815)"/></g><g class="f"><path class="cs" d="M89.279,173.9l-22.3,33.568h-.126l22.3-33.568Z" transform="translate(-72.98 -181.815)"/></g><g class="f"><path class="ct" d="M89.906,173.9,67.6,207.47h-.126L89.78,173.9Z" transform="translate(-73.482 -181.815)"/></g><g class="f"><path class="cu" d="M90.534,173.9l-22.3,33.568h-.126l22.3-33.568Z" transform="translate(-73.984 -181.815)"/></g><g class="f"><path class="cv" d="M91.161,173.9,68.86,207.47h-.126l22.3-33.568Z" transform="translate(-74.486 -181.815)"/></g><g class="f"><path class="cw" d="M91.789,173.9l-22.3,33.568h-.126l22.3-33.568Z" transform="translate(-74.988 -181.815)"/></g><g class="f"><path class="cx" d="M92.416,173.9l-22.3,33.568h-.126L92.29,173.9Z" transform="translate(-75.49 -181.815)"/></g><g class="f"><path class="cy" d="M93.044,173.9l-22.3,33.568h-.126l22.3-33.568Z" transform="translate(-75.992 -181.815)"/></g><g class="f"><path class="cy" d="M93.858,173.9l-22.3,33.568h-.312l22.3-33.568Z" transform="translate(-76.494 -181.815)"/></g><g class="f"><path class="cz" d="M95.418,173.9l-22.3,33.568H72.8l22.3-33.568Z" transform="translate(-77.742 -181.815)"/></g><g class="f"><path class="da" d="M96.978,173.9l-22.3,33.568h-.313l22.3-33.568Z" transform="translate(-78.99 -181.815)"/></g><g class="f"><path class="db" d="M98.539,173.9l-22.3,33.568h-.312l22.3-33.568Z" transform="translate(-80.239 -181.815)"/></g><g class="f"><path class="dc" d="M100.1,173.9,77.8,207.47h-.313l22.3-33.568Z" transform="translate(-81.487 -181.815)"/></g><g class="f"><path class="dd" d="M101.659,173.9l-22.3,33.568h-.313l22.3-33.568Z" transform="translate(-82.735 -181.815)"/></g><g class="f"><path class="de" d="M103.22,173.9l-22.3,33.568h-.312l22.3-33.568Z" transform="translate(-83.983 -181.815)"/></g><g class="f"><path class="df" d="M104.78,173.9l-22.3,33.568h-.313l22.3-33.568Z" transform="translate(-85.231 -181.815)"/></g><g class="f"><path class="dg" d="M106.34,173.9l-22.3,33.568h-.313l22.3-33.568Z" transform="translate(-86.479 -181.815)"/></g><g class="f"><path class="dh" d="M107.9,173.9,85.6,207.47h-.313l22.3-33.568Z" transform="translate(-87.728 -181.815)"/></g><g class="f"><path class="di" d="M109.461,173.9,87.16,207.47h-.313l22.3-33.568Z" transform="translate(-88.976 -181.815)"/></g><g class="f"><path class="dj" d="M111.022,173.9,88.72,207.47h-.312l22.3-33.568Z" transform="translate(-90.225 -181.815)"/></g><g class="f"><path class="dk" d="M112.582,173.9l-22.3,33.568h-.313l22.3-33.568Z" transform="translate(-91.473 -181.815)"/></g><g class="f"><path class="dl" d="M114.142,173.9l-22.3,33.568h-.313l22.3-33.568Z" transform="translate(-92.721 -181.815)"/></g><g class="f"><path class="dm" d="M115.7,173.9,93.4,207.47h-.312l22.3-33.568Z" transform="translate(-93.971 -181.815)"/></g><g class="f"><path class="dn" d="M117.263,173.9l-22.3,33.568h-.312l22.3-33.568Z" transform="translate(-95.218 -181.815)"/></g><g class="f"><path class="do" d="M118.823,173.9l-22.3,33.568h-.313l22.3-33.568Z" transform="translate(-96.466 -181.815)"/></g><g class="f"><path class="dp" d="M120.384,173.9l-22.3,33.568H97.77l22.3-33.568Z" transform="translate(-97.715 -181.815)"/></g><g class="f"><path class="dq" d="M121.944,173.9l-22.3,33.568H99.33l22.3-33.568Z" transform="translate(-98.963 -181.815)"/></g><g class="f"><path class="dr" d="M123.5,173.9,101.2,207.47h-.312l22.3-33.568Z" transform="translate(-100.211 -181.815)"/></g><g class="f"><path class="ds" d="M125.065,173.9l-22.3,33.568h-.312l22.3-33.568Z" transform="translate(-101.459 -181.815)"/></g><g class="f"><path class="ds" d="M126.626,173.9l-22.3,33.568h-.312l22.3-33.568Z" transform="translate(-102.708 -181.815)"/></g><g class="f"><path class="dt" d="M128.186,173.9l-22.3,33.568h-.312l22.3-33.568Z" transform="translate(-103.956 -181.815)"/></g><g class="f"><path class="du" d="M129.746,173.9l-22.3,33.568h-.312l22.3-33.568Z" transform="translate(-105.204 -181.815)"/></g><g class="f"><path class="dv" d="M131.307,173.9l-22.3,33.568h-.312l22.3-33.568Z" transform="translate(-106.453 -181.815)"/></g><g class="f"><path class="dw" d="M132.867,173.9l-22.3,33.568h-.312l22.3-33.568Z" transform="translate(-107.701 -181.815)"/></g><g class="f"><path class="dw" d="M134.232,173.9l-22.3,33.568h-.117l22.3-33.568Z" transform="translate(-108.95 -181.815)"/></g><g class="f"><path class="du" d="M134.815,173.9l-22.3,33.568H112.4L134.7,173.9Z" transform="translate(-109.416 -181.815)"/></g><g class="f"><path class="dt" d="M135.4,173.9,113.1,207.47h-.117l22.3-33.568Z" transform="translate(-109.883 -181.815)"/></g><g class="f"><path class="ds" d="M135.982,173.9l-22.3,33.568h-.117l22.3-33.568Z" transform="translate(-110.35 -181.815)"/></g><g class="f"><path class="dq" d="M136.566,173.9l-22.3,33.568h-.117l22.3-33.568Z" transform="translate(-110.817 -181.815)"/></g><g class="f"><path class="dp" d="M137.149,173.9l-22.3,33.568h-.117l22.3-33.568Z" transform="translate(-111.283 -181.815)"/></g><g class="f"><path class="dn" d="M137.732,173.9l-22.3,33.568h-.117l22.3-33.568Z" transform="translate(-111.75 -181.815)"/></g><g class="f"><path class="dm" d="M138.315,173.9l-22.3,33.568H115.9L138.2,173.9Z" transform="translate(-112.216 -181.815)"/></g><g class="f"><path class="dk" d="M138.9,173.9,116.6,207.47h-.117l22.3-33.568Z" transform="translate(-112.683 -181.815)"/></g><g class="f"><path class="dj" d="M139.482,173.9l-22.3,33.568h-.117l22.3-33.568Z" transform="translate(-113.15 -181.815)"/></g><g class="f"><path class="dh" d="M140.065,173.9l-22.3,33.568h-.117l22.3-33.568Z" transform="translate(-113.616 -181.815)"/></g><g class="f"><path class="dg" d="M140.649,173.9l-22.3,33.568h-.117l22.3-33.568Z" transform="translate(-114.083 -181.815)"/></g><g class="f"><path class="df" d="M141.232,173.9l-22.3,33.568h-.117l22.3-33.568Z" transform="translate(-114.55 -181.815)"/></g><g class="f"><path class="dd" d="M141.816,173.9l-22.3,33.568H119.4L141.7,173.9Z" transform="translate(-115.017 -181.815)"/></g><g class="f"><path class="dc" d="M142.4,173.9,120.1,207.47h-.117l22.3-33.568Z" transform="translate(-115.483 -181.815)"/></g><g class="f"><path class="db" d="M142.982,173.9l-22.3,33.568h-.117l22.3-33.568Z" transform="translate(-115.95 -181.815)"/></g><g class="f"><path class="cz" d="M143.565,173.9l-22.3,33.568h-.117l22.3-33.568Z" transform="translate(-116.416 -181.815)"/></g><g class="f"><path class="cy" d="M144.149,173.9l-22.3,33.568h-.117l22.3-33.568Z" transform="translate(-116.883 -181.815)"/></g><g class="f"><path class="cw" d="M144.733,173.9l-22.3,33.568h-.117l22.3-33.568Z" transform="translate(-117.351 -181.815)"/></g><g class="f"><path class="cv" d="M145.316,173.9l-22.3,33.568H122.9L145.2,173.9Z" transform="translate(-117.817 -181.815)"/></g><g class="f"><path class="ct" d="M145.9,173.9,123.6,207.47h-.117l22.3-33.568Z" transform="translate(-118.283 -181.815)"/></g><g class="f"><path class="cs" d="M146.482,173.9l-22.3,33.568h-.117l22.3-33.568Z" transform="translate(-118.75 -181.815)"/></g><g class="f"><path class="cq" d="M147.066,173.9l-22.3,33.568h-.117l22.3-33.568Z" transform="translate(-119.217 -181.815)"/></g><g class="f"><path class="cp" d="M147.649,173.9l-22.3,33.568h-.117l22.3-33.568Z" transform="translate(-119.683 -181.815)"/></g><g class="f"><path class="co" d="M148.232,173.9l-22.3,33.568h-.117l22.3-33.568Z" transform="translate(-120.15 -181.815)"/></g><g class="f"><path class="cm" d="M148.752,173.9l.048.024L126.515,207.47H126.4L148.7,173.9Z" transform="translate(-120.617 -181.815)"/></g><g class="f"><path class="cl" d="M149.267,174.023l.087.044-22.256,33.5h-.116Z" transform="translate(-121.084 -181.912)"/></g><g class="f"><path class="cj" d="M149.821,174.243l.087.044-22.227,33.456h-.117Z" transform="translate(-121.551 -182.088)"/></g><g class="f"><path class="ci" d="M150.375,174.464l.087.044-22.2,33.412h-.117Z" transform="translate(-122.017 -182.265)"/></g><g class="f"><path class="ch" d="M150.929,174.685l.087.044L128.848,208.1h-.117Z" transform="translate(-122.483 -182.442)"/></g><g class="f"><path class="cg" d="M151.483,174.906l.087.044-22.139,33.325h-.117Z" transform="translate(-122.95 -182.619)"/></g><g class="f"><path class="ce" d="M152.039,175.127l.087.044-22.11,33.281H129.9Z" transform="translate(-123.419 -182.796)"/></g><g class="f"><path class="cd" d="M152.593,175.347l.087.044L130.6,208.628h-.116Z" transform="translate(-123.885 -182.973)"/></g><g class="f"><path class="cc" d="M153.147,175.568l.087.044-22.052,33.193h-.116Z" transform="translate(-124.351 -183.15)"/></g><g class="f"><path class="ca" d="M153.7,175.789l.087.044-22.023,33.149h-.116Z" transform="translate(-124.818 -183.327)"/></g><g class="f"><path class="bz" d="M154.255,176.009l.087.044-21.994,33.105h-.116Z" transform="translate(-125.284 -183.503)"/></g><g class="f"><path class="by" d="M154.809,176.23l.087.044-21.965,33.061h-.117Z" transform="translate(-125.751 -183.68)"/></g><g class="f"><path class="bx" d="M155.363,176.451l.087.044-21.935,33.017H133.4Z" transform="translate(-126.217 -183.857)"/></g><g class="f"><path class="bv" d="M155.917,176.672l.087.044L134.1,209.689h-.117Z" transform="translate(-126.684 -184.034)"/></g><g class="f"><path class="bu" d="M156.471,176.893l.087.044-21.877,32.93h-.117Z" transform="translate(-127.151 -184.211)"/></g><g class="f"><path class="bt" d="M157.025,177.113l.087.044-21.848,32.886h-.117Z" transform="translate(-127.617 -184.387)"/></g><g class="f"><path class="bs" d="M157.579,177.334l.087.044-21.818,32.842h-.117Z" transform="translate(-128.083 -184.564)"/></g><g class="f"><path class="br" d="M158.135,177.555l.087.044-21.789,32.8h-.117Z" transform="translate(-128.551 -184.741)"/></g><g class="f"><path class="bp" d="M158.689,177.775l.087.044-21.76,32.754H136.9Z" transform="translate(-129.018 -184.918)"/></g><g class="f"><path class="bo" d="M159.242,178l.087.044L137.6,210.75h-.117Z" transform="translate(-129.484 -185.095)"/></g><g class="f"><path class="bn" d="M159.8,178.217l.024.012v.128l-21.638,32.57h-.116Z" transform="translate(-129.951 -185.272)"/></g><g class="f"><path class="bm" d="M160.287,179.1l-21.522,32.395h-.116l21.638-32.57Z" transform="translate(-130.418 -185.836)"/></g><g class="f"><path class="bl" d="M160.753,179.98l-21.4,32.219h-.117L160.753,179.8Z" transform="translate(-130.883 -186.543)"/></g><g class="f"><path class="bk" d="M161.221,180.863l-21.288,32.043h-.116l21.4-32.219Z" transform="translate(-131.351 -187.251)"/></g><g class="f"><path class="bj" d="M161.686,181.746l-21.172,31.867H140.4l21.288-32.043Z" transform="translate(-131.817 -187.958)"/></g><g class="f"><path class="bi" d="M162.153,182.629,141.1,214.321h-.117l21.172-31.868Z" transform="translate(-132.283 -188.665)"/></g><g class="f"><path class="bh" d="M162.621,183.512l-20.938,31.516h-.116l21.055-31.692Z" transform="translate(-132.751 -189.373)"/></g><g class="f"><path class="bf" d="M163.086,184.395l-20.821,31.341h-.117l20.938-31.516Z" transform="translate(-133.217 -190.08)"/></g><g class="f"><path class="be" d="M163.554,185.278l-20.7,31.165h-.117L163.554,185.1Z" transform="translate(-133.685 -190.788)"/></g><g class="f"><path class="bd" d="M164.021,186.161l-20.588,30.989h-.116l20.7-31.165Z" transform="translate(-134.151 -191.496)"/></g><g class="f"><path class="bc" d="M164.486,187.044l-20.471,30.814H143.9l20.588-30.989Z" transform="translate(-134.617 -192.202)"/></g><g class="f"><path class="bb" d="M164.954,187.927,144.6,218.565h-.116l20.471-30.814Z" transform="translate(-135.085 -192.91)"/></g><g class="f"><path class="ba" d="M165.42,188.81l-20.238,30.463h-.117l20.355-30.638Z" transform="translate(-135.551 -193.618)"/></g><g class="f"><path class="az" d="M165.888,189.694l-20.122,30.287h-.116l20.238-30.463Z" transform="translate(-136.019 -194.325)"/></g><g class="f"><path class="ay" d="M166.354,190.576l-20,30.112h-.117L166.354,190.4Z" transform="translate(-136.484 -195.033)"/></g><g class="f"><path class="ay" d="M166.82,191.46,146.932,221.4h-.117l20.005-30.111Z" transform="translate(-136.951 -195.74)"/></g><g class="f"><path class="ax" d="M167.288,192.342,147.516,222.1H147.4l19.888-29.936Z" transform="translate(-137.419 -196.448)"/></g><g class="f"><path class="aw" d="M167.754,193.226,148.1,222.81h-.117l19.772-29.76Z" transform="translate(-137.884 -197.155)"/></g><g class="f"><path class="dx" d="M168.222,194.109l-19.538,29.409h-.116l19.655-29.585Z" transform="translate(-138.352 -197.862)"/></g><g class="f"><path class="av" d="M168.687,194.992l-19.422,29.233h-.117l19.538-29.409Z" transform="translate(-138.818 -198.57)"/></g><g class="f"><path class="au" d="M169.154,195.875l-19.3,29.058h-.117L169.154,195.7Z" transform="translate(-139.284 -199.277)"/></g><g class="f"><path class="at" d="M169.621,196.758,150.433,225.64h-.117l19.3-29.058Z" transform="translate(-139.751 -199.985)"/></g><g class="f"><path class="as" d="M170.087,197.641l-19.072,28.706H150.9l19.188-28.882Z" transform="translate(-140.218 -200.692)"/></g><g class="f"><path class="ar" d="M170.553,198.524,151.6,227.055h-.117l19.072-28.706Z" transform="translate(-140.683 -201.4)"/></g><g class="f"><path class="ar" d="M171.021,199.407l-18.838,28.355h-.116l18.955-28.531Z" transform="translate(-141.151 -202.107)"/></g><g class="f"><path class="aq" d="M171.486,200.29l-18.721,28.18h-.117l18.838-28.355Z" transform="translate(-141.617 -202.814)"/></g><g class="f"><path class="ap" d="M171.954,201.173l-18.6,28h-.117L171.954,201Z" transform="translate(-142.085 -203.522)"/></g><g class="f"><path class="ao" d="M172.421,202.056l-18.488,27.829h-.116l18.6-28Z" transform="translate(-142.551 -204.229)"/></g><g class="f"><path class="ao" d="M172.886,202.939l-18.371,27.653H154.4l18.488-27.828Z" transform="translate(-143.017 -204.937)"/></g><g class="f"><path class="an" d="M173.354,203.822,155.1,231.3h-.116l18.371-27.653Z" transform="translate(-143.485 -205.645)"/></g><g class="f"><path class="am" d="M173.82,204.705l-18.138,27.3h-.117L173.82,204.53Z" transform="translate(-143.951 -206.352)"/></g><g class="f"><path class="dy" d="M174.288,205.589l-18.021,27.126h-.117l18.138-27.3Z" transform="translate(-144.419 -207.059)"/></g><g class="f"><path class="dy" d="M174.754,206.472l-17.9,26.951h-.116L174.754,206.3Z" transform="translate(-144.885 -207.767)"/></g><g class="f"><path class="al" d="M175.22,207.355,157.432,234.13h-.117l17.9-26.951Z" transform="translate(-145.351 -208.474)"/></g><g class="f"><path class="ak" d="M175.688,208.238l-17.671,26.6H157.9l17.788-26.775Z" transform="translate(-145.819 -209.182)"/></g><g class="f"><path class="ak" d="M176.154,209.121,158.6,235.544h-.117l17.671-26.6Z" transform="translate(-146.285 -209.889)"/></g><g class="f"><path class="aj" d="M176.622,210l-17.438,26.248h-.117l17.555-26.424Z" transform="translate(-146.752 -210.596)"/></g><g class="f"><path class="ai" d="M177.088,210.887l-17.322,26.072h-.116l17.438-26.248Z" transform="translate(-147.219 -211.304)"/></g><g class="f"><path class="ai" d="M177.554,211.77l-17.2,25.9h-.117l17.322-26.072Z" transform="translate(-147.684 -212.011)"/></g><g class="f"><path class="ah" d="M178.022,212.653l-17.088,25.721h-.116l17.2-25.9Z" transform="translate(-148.152 -212.719)"/></g><g class="f"><path class="ah" d="M178.487,213.536l-16.972,25.545H161.4l17.088-25.721Z" transform="translate(-148.618 -213.426)"/></g><g class="f"><path class="ag" d="M178.954,214.419,162.1,239.788h-.117l16.972-25.545Z" transform="translate(-149.084 -214.133)"/></g><g class="f"><path class="ag" d="M179.421,215.3,162.683,240.5h-.117l16.855-25.37Z" transform="translate(-149.551 -214.842)"/></g><g class="f"><path class="ag" d="M179.887,216.185,163.266,241.2h-.117l16.738-25.194Z" transform="translate(-150.018 -215.549)"/></g><g class="f"><path class="ag" d="M180.355,217.068l-16.5,24.843h-.116l16.621-25.019Z" transform="translate(-150.486 -216.256)"/></g><g class="f"><path class="af" d="M180.821,217.952l-16.388,24.668h-.117l16.5-24.843Z" transform="translate(-150.951 -216.964)"/></g><g class="f"><path class="af" d="M181.287,218.835l-16.271,24.492H164.9l16.388-24.667Z" transform="translate(-151.418 -217.671)"/></g><g class="f"><path class="af" d="M181.754,219.718,165.6,244.034h-.117l16.271-24.492Z" transform="translate(-151.885 -218.379)"/></g><g class="f"><path class="ae" d="M182.221,220.6l-16.038,24.141h-.117l16.155-24.316Z" transform="translate(-152.351 -219.086)"/></g><g class="f"><path class="ae" d="M182.689,221.484l-15.921,23.965h-.116l16.038-24.141Z" transform="translate(-152.819 -219.793)"/></g><g class="f"><path class="ae" d="M183.154,222.367l-15.8,23.789h-.117l15.921-23.965Z" transform="translate(-153.285 -220.501)"/></g><g class="f"><path class="ad" d="M183.621,223.25l-15.688,23.614h-.117l15.8-23.79Z" transform="translate(-153.751 -221.208)"/></g><g class="f"><path class="ad" d="M184.088,224.133l-15.571,23.438H168.4l15.688-23.614Z" transform="translate(-154.219 -221.916)"/></g><g class="f"><path class="ad" d="M184.554,225.016,169.1,248.278h-.117l15.571-23.438Z" transform="translate(-154.685 -222.623)"/></g><g class="f"><path class="ad" d="M185.022,225.9l-15.338,23.087h-.116l15.454-23.263Z" transform="translate(-155.153 -223.33)"/></g><g class="f"><path class="ac" d="M185.488,226.782l-15.221,22.911h-.117l15.338-23.087Z" transform="translate(-155.619 -224.038)"/></g><g class="f"><path class="ac" d="M185.954,227.665,170.85,250.4h-.117l15.221-22.911Z" transform="translate(-156.085 -224.746)"/></g><g class="f"><path class="ac" d="M171.317,251.108l15.1-22.736v22.736Z" transform="translate(-156.552 -225.453)"/></g></g><path class="az" d="M115.594,231.238H99.821a2.522,2.522,0,0,1-2.7-2.282V215.648a2.521,2.521,0,0,1,2.7-2.281h15.772a2.521,2.521,0,0,1,2.7,2.281v13.308a2.521,2.521,0,0,1-2.7,2.282M99.821,213.5a2.382,2.382,0,0,0-2.554,2.152v13.308a2.383,2.383,0,0,0,2.554,2.154h15.772a2.383,2.383,0,0,0,2.554-2.154V215.648a2.382,2.382,0,0,0-2.554-2.152Z" transform="translate(-77.695 -170.935)"/><path class="ac" d="M111.989,240.63h-5.278l-1.356-2.26H98.434v-.161h7.034l1.355,2.26h5.166Z" transform="translate(-78.747 -190.837)"/><path class="ac" d="M151.718,256.824H146.95l-2.434-2.052h-5.3v-4.633h.185v4.472h5.186l2.434,2.052h4.693Z" transform="translate(-111.376 -200.394)"/><path class="ac" d="M165.612,245.292h-.186v-4.553l2.763-2.332h4.494v.161h-4.419l-2.653,2.239Z" transform="translate(-132.341 -190.995)"/><rect class="ac" width="7.225" height="0.161" transform="translate(33.178 51.443)"/><rect class="ac" width="8.208" height="0.161" transform="translate(19.709 51.65)"/><path class="ac" d="M103.978,274.719H97.855v-.161h6.05l2.252-1.825.127.118Z" transform="translate(-78.284 -218.495)"/><path class="az" d="M111.328,239.321H106.05l-1.356-2.261h-6.7V236.9h6.814l1.356,2.261h5.165Z" transform="translate(-78.394 -189.787)"/><path class="az" d="M150.441,255.522h-5.033l-.027-.023-2.407-2.031h-5.3v-4.63h.185v4.469h5.186l.027.023,2.407,2.031h4.958Z" transform="translate(-110.142 -199.351)"/><path class="az" d="M164.069,243.976h-.185v-4.552l2.763-2.333h4.759v.161h-4.684l-2.653,2.24Z" transform="translate(-131.107 -189.941)"/><rect class="az" width="7.49" height="0.161" transform="translate(32.87 51.183)"/><rect class="az" width="7.962" height="0.161" transform="translate(19.665 51.388)"/><path class="az" d="M103.318,273.405h-5.9v-.161h5.83l2.252-1.826.127.118Z" transform="translate(-77.932 -217.442)"/><rect class="ac" width="0.185" height="5.394" transform="translate(30.36 54.629)"/><rect class="az" width="0.185" height="5.407" transform="translate(30.778 54.614)"/><rect class="ac" width="0.185" height="6.412" transform="translate(30.36 42.734)"/><rect class="az" width="0.185" height="6.43" transform="translate(30.778 42.717)"/></g><g class="a"><path class="dz" d="M234.915,235.773a.976.976,0,0,1-.6-.7c-.037-.2.008-.335.294-.884a13.8,13.8,0,0,0,1.655-6.738,13.581,13.581,0,0,0-1.546-6.491,6.742,6.742,0,0,1-.43-.989,1.006,1.006,0,0,1,.416-.717.946.946,0,0,1,1.033.072,4.855,4.855,0,0,1,.529.863,16.326,16.326,0,0,1,1.6,4.989,19.463,19.463,0,0,1,.066,4.148,16.245,16.245,0,0,1-1.513,5.085c-.472.971-.769,1.371-1.017,1.371a.738.738,0,0,0-.18.027.751.751,0,0,1-.3-.034Zm-3.21-1.67a.874.874,0,0,1-.591-1c.029-.091.223-.512.432-.935a10.387,10.387,0,0,0,1.071-5.6,10.058,10.058,0,0,0-1.131-3.956c-.472-.959-.494-1.108-.219-1.494a.9.9,0,0,1,1.254-.115,11.467,11.467,0,0,1,1.259,2.615,12.357,12.357,0,0,1-.409,8.77c-.618,1.444-1.053,1.891-1.666,1.713Zm-3.31-1.694a1,1,0,0,1-.534-.653c-.036-.165.026-.347.329-.957a6.982,6.982,0,0,0,.037-6.583c-.477-.961-.488-1.152-.084-1.531a.638.638,0,0,1,.564-.22c.469,0,.713.234,1.132,1.091a8.278,8.278,0,0,1,.907,3.926,7.954,7.954,0,0,1-.939,3.929c-.395.8-.59,1.006-.985,1.06a.925.925,0,0,1-.427-.063Zm-3.089-1.577a1.037,1.037,0,0,1-.5-.594c-.077-.266-.014-.477.29-.973a3.663,3.663,0,0,0,0-3.629,3.584,3.584,0,0,1-.3-.576.879.879,0,0,1,.7-1.024c.4-.075.677.1,1.046.676a5.149,5.149,0,0,1,0,5.517c-.377.579-.8.785-1.238.6Z" transform="translate(-179.817 -175.555)"/></g></svg>