<svg xmlns="http://www.w3.org/2000/svg" xmlns:xlink="http://www.w3.org/1999/xlink" width="186.415" height="123.804" viewBox="0 0 186.415 123.804"><defs><style>.a{fill:#fbe706;}.b{clip-path:url(#a);}.c{fill:#848485;}.d{fill:#868586;}.e{fill:#888688;}.f{fill:#898688;}.g{fill:#8a8788;}.h{fill:#878889;}.i{fill:#89888a;}.j{fill:#8b898b;}.k{fill:#8b8a8b;}.l{fill:#8d8b8c;}.m{fill:#8b8a8d;}.n{fill:#8e8c8d;}.o{fill:#8f8c8f;}.p{fill:#8f8d8f;}.q{fill:#8f8f90;}.r{fill:#919092;}.s{fill:#928f92;}.t{fill:#949394;}.u{fill:#969596;}.v{fill:#979697;}.w{fill:#979798;}.x{fill:#989799;}.y{fill:#99989a;}.z{fill:#9a9898;}.aa{fill:#9a9999;}.ab{fill:#9c999b;}.ac{fill:#9d9c9c;}.ad{fill:#9c9c9e;}.ae{fill:#9f9c9e;}.af{fill:#9f9d9e;}.ag{fill:#a09e9e;}.ah{fill:#a09f9e;}.ai{fill:#a19e9e;}.aj{fill:#a29fa1;}.ak{fill:#a19fa0;}.al{fill:#a3a0a1;}.am{fill:#a4a1a0;}.an{fill:#a6a2a3;}.ao{fill:#a5a4a5;}.ap{fill:#aaa5a6;}.aq{fill:#a9a9aa;}.ar{fill:#adaaad;}.as{fill:#adadb0;}.at{fill:#b2b1b3;}.au{fill:#b3b1b1;}.av{fill:#b3b2b2;}.aw{fill:#b3b1b4;}.ax{fill:#b6b4b5;}.ay{fill:#b6b2b4;}.az{fill:#b7b4b5;}.ba{fill:#b9b6b7;}.bb{fill:#b9b7b7;}.bc{fill:#bbb8b9;}.bd{fill:#bbb9ba;}.be{fill:#bab7ba;}.bf{fill:#bab9bc;}.bg{fill:#bbbabc;}.bh{fill:#bcbbbd;}.bi{fill:#bfbdbe;}.bj{fill:#bfbdbd;}.bk{fill:#bfbdc0;}.bl{fill:#c1bec0;}.bm{fill:#c2bfc2;}.bn{fill:#c3c2c4;}.bo{fill:#c4c2c5;}.bp{fill:#c6c4c8;}.bq{fill:#c6c3c4;}.br{fill:#c7c4c8;}.bs{fill:#c8c5c8;}.bt{fill:#cac6c8;}.bu{fill:#cac7c9;}.bv{fill:#cbc6c8;}.bw{fill:#cac8ca;}.bx{fill:#ccc9cb;}.by{fill:#cccacb;}.bz{fill:#cccacc;}.ca{fill:#cdccce;}.cb{fill:#ceccce;}.cc{fill:#cecdcf;}.cd{fill:#cfcecd;}.ce{fill:#cfced0;}.cf{fill:#d0ced0;}.cg{fill:#d2d0d0;}.ch{fill:#d1d1d1;}.ci{fill:#d4d3d5;}.cj{fill:#d8d8d7;}.ck{fill:#d7d5d6;}.cl{fill:#d7d8d8;}.cm{fill:#d7d8da;}.cn{fill:#d8d8d9;}.co{fill:#dbd9da;}.cp{fill:#dbdadb;}.cq{fill:#dbdadc;}.cr{fill:#dcdcdc;}.cs{fill:#dbdcdc;}.ct{fill:#dbdcde;}.cu{fill:#deddde;}.cv{fill:#dfdedf;}.cw{fill:#e2dfdf;}.cx{fill:#e0dfe0;}.cy{fill:#e1e0e0;}.cz{fill:#e3e2e2;}.da{fill:#e3e3e2;}.db{fill:#e3e4e5;}.dc{fill:#e6e4e6;}.dd{fill:#e7e5e6;}.de{fill:#e7e7e9;}.df{fill:#e7e7e8;}.dg{fill:#e8e9ea;}.dh{fill:#e8e8e9;}.di{fill:#eaeaeb;}.dj{fill:#ebeaec;}.dk{fill:#edeced;}.dl{fill:#a8a5a6;}.dm{fill:#9e9da0;}.dn,.do{fill:#114687;}.dn{fill-rule:evenodd;}.dp{fill:none;stroke:#114687;stroke-miterlimit:3.864;stroke-width:0.788px;}.dq{clip-path:url(#hy);}.dr{fill:#f5ea61;}</style><clipPath id="a"><path d="M202.852,84.169A2.038,2.038,0,0,0,201,81.985H189.875a2.04,2.04,0,0,0-1.853,2.184V97.277a2.04,2.04,0,0,0,1.853,2.185H201a2.039,2.039,0,0,0,1.853-2.185Z" transform="translate(-188.022 -81.985)"/></clipPath><clipPath id="hy"><rect width="123.804" height="99.945"/></clipPath></defs><g transform="translate(0 123.804) rotate(-90)"><path class="a" d="M6.66,186.415a6.154,6.154,0,0,1-6.117-6.187V6.187A6.154,6.154,0,0,1,6.66,0H118.049a6.153,6.153,0,0,1,6.117,6.187V180.228a6.153,6.153,0,0,1-6.117,6.187H6.66Z" transform="translate(-0.381 0)"/><g transform="translate(56.219 24.379)"><g transform="translate(0.054 0.062)"><g class="b"><path class="c" d="M221.176,68.219l-16.469-10.88h16.469Z" transform="translate(-199.733 -64.687)"/></g><g class="b"><path class="c" d="M220.8,68.323,204.177,57.339h.158L220.8,68.219Z" transform="translate(-199.361 -64.687)"/></g><g class="b"><path class="d" d="M220.433,68.427,203.648,57.339h.158l16.627,10.984Z" transform="translate(-198.99 -64.687)"/></g><g class="b"><path class="d" d="M220.061,68.532,203.118,57.339h.158l16.785,11.088Z" transform="translate(-198.617 -64.687)"/></g><g class="b"><path class="e" d="M219.689,68.636l-17.1-11.3h.158l16.943,11.192Z" transform="translate(-198.245 -64.687)"/></g><g class="b"><path class="f" d="M219.318,68.74l-17.259-11.4h.158l17.1,11.3Z" transform="translate(-197.874 -64.687)"/></g><g class="b"><path class="g" d="M218.946,68.845,201.529,57.339h.158l17.259,11.4Z" transform="translate(-197.502 -64.687)"/></g><g class="b"><path class="h" d="M218.574,68.949,201,57.339h.158l17.417,11.505Z" transform="translate(-197.13 -64.687)"/></g><g class="b"><path class="i" d="M218.2,69.053,200.47,57.339h.158L218.2,68.949Z" transform="translate(-196.759 -64.687)"/></g><g class="b"><path class="j" d="M217.83,69.158,199.94,57.339h.158L217.83,69.054Z" transform="translate(-196.387 -64.687)"/></g><g class="b"><path class="k" d="M217.459,69.262,199.411,57.339h.158l17.89,11.818Z" transform="translate(-196.016 -64.687)"/></g><g class="b"><path class="l" d="M217.086,69.366,198.88,57.339h.158l18.048,11.923Z" transform="translate(-195.643 -64.687)"/></g><g class="b"><path class="m" d="M216.715,69.47,198.351,57.339h.158l18.206,12.027Z" transform="translate(-195.272 -64.687)"/></g><g class="b"><path class="n" d="M216.344,69.575,197.822,57.339h.158L216.344,69.47Z" transform="translate(-194.9 -64.687)"/></g><g class="b"><path class="o" d="M215.972,69.679l-18.68-12.34h.158l18.522,12.236Z" transform="translate(-194.528 -64.687)"/></g><g class="b"><path class="p" d="M215.6,69.783,196.762,57.339h.158l18.68,12.34Z" transform="translate(-194.156 -64.687)"/></g><g class="b"><path class="q" d="M215.229,69.888l-19-12.549h.158l18.838,12.444Z" transform="translate(-193.785 -64.687)"/></g><g class="b"><path class="r" d="M214.857,69.992,195.7,57.339h.158l19,12.549Z" transform="translate(-193.413 -64.687)"/></g><g class="b"><path class="s" d="M214.485,70.1,195.174,57.339h.158l19.154,12.653Z" transform="translate(-193.042 -64.687)"/></g><g class="b"><path class="t" d="M214.113,70.2l-19.47-12.862h.158L214.113,70.1Z" transform="translate(-192.669 -64.687)"/></g><g class="b"><path class="t" d="M213.741,70.305,194.114,57.339h.158L213.741,70.2Z" transform="translate(-192.298 -64.687)"/></g><g class="b"><path class="u" d="M213.37,70.409l-19.785-13.07h.158L213.37,70.305Z" transform="translate(-191.927 -64.687)"/></g><g class="b"><path class="v" d="M213,70.513,193.054,57.339h.158L213,70.409Z" transform="translate(-191.554 -64.687)"/></g><g class="b"><path class="v" d="M212.626,70.618l-20.1-13.279h.158l19.943,13.174Z" transform="translate(-191.183 -64.687)"/></g><g class="b"><path class="w" d="M212.254,70.722,191.995,57.339h.158l20.1,13.279Z" transform="translate(-190.811 -64.687)"/></g><g class="b"><path class="x" d="M211.883,70.826,191.466,57.339h.158l20.259,13.383Z" transform="translate(-190.439 -64.687)"/></g><g class="b"><path class="y" d="M211.511,70.931,190.936,57.339h.158l20.417,13.487Z" transform="translate(-190.067 -64.687)"/></g><g class="b"><path class="z" d="M211.139,71.035l-20.733-13.7h.158l20.575,13.592Z" transform="translate(-189.695 -64.687)"/></g><g class="b"><path class="aa" d="M210.767,71.139l-20.891-13.8h.158l20.733,13.7Z" transform="translate(-189.324 -64.687)"/></g><g class="b"><path class="ab" d="M210.395,71.244l-21.049-13.9h.158l20.89,13.8Z" transform="translate(-188.951 -64.687)"/></g><g class="b"><path class="ac" d="M210.023,71.348,188.817,57.339h.158l21.049,13.9Z" transform="translate(-188.58 -64.687)"/></g><g class="b"><path class="ac" d="M209.652,71.452,188.288,57.339h.158l21.206,14.009Z" transform="translate(-188.209 -64.687)"/></g><g class="b"><path class="ad" d="M209.28,71.557,187.758,57.339h.158L209.28,71.453Z" transform="translate(-187.837 -64.687)"/></g><g class="b"><path class="ae" d="M208.908,71.661l-21.68-14.322h.158l21.522,14.218Z" transform="translate(-187.465 -64.687)"/></g><g class="b"><path class="af" d="M208.537,71.765,186.7,57.339h.158l21.68,14.322Z" transform="translate(-187.093 -64.687)"/></g><g class="b"><path class="ag" d="M208.165,71.87l-22-14.531h.158l21.838,14.427Z" transform="translate(-186.721 -64.687)"/></g><g class="b"><path class="ah" d="M207.794,71.974,185.64,57.339h.158l22,14.53Z" transform="translate(-186.35 -64.687)"/></g><g class="b"><path class="ai" d="M207.421,72.078,185.109,57.339h.158l22.154,14.635Z" transform="translate(-185.977 -64.687)"/></g><g class="b"><path class="ah" d="M207.05,72.183,184.58,57.339h.158L207.05,72.078Z" transform="translate(-185.606 -64.687)"/></g><g class="b"><path class="aj" d="M206.678,72.287,184.051,57.339h.158l22.47,14.843Z" transform="translate(-185.235 -64.687)"/></g><g class="b"><path class="aj" d="M206.306,72.392,183.521,57.34h.158l22.627,14.947Z" transform="translate(-184.863 -64.687)"/></g><g class="b"><path class="ak" d="M205.934,72.5,182.991,57.339h.158l22.785,15.052Z" transform="translate(-184.491 -64.687)"/></g><g class="b"><path class="aj" d="M205.563,72.6l-23.1-15.26h.158L205.563,72.5Z" transform="translate(-184.12 -64.687)"/></g><g class="b"><path class="al" d="M205.191,72.7,181.932,57.339h.158l23.1,15.261Z" transform="translate(-183.748 -64.687)"/></g><g class="b"><path class="am" d="M204.819,72.809,181.4,57.34h.158L204.819,72.7Z" transform="translate(-183.376 -64.687)"/></g><g class="b"><path class="an" d="M204.448,72.913,180.873,57.339h.158l23.417,15.469Z" transform="translate(-183.004 -64.687)"/></g><g class="b"><path class="an" d="M204.076,73.018,180.343,57.34h.158l23.575,15.574Z" transform="translate(-182.632 -64.687)"/></g><g class="b"><path class="ao" d="M203.7,73.121,179.814,57.339h.158L203.7,73.017Z" transform="translate(-182.261 -64.687)"/></g><g class="b"><path class="ap" d="M203.332,73.226,179.283,57.34h.158l23.891,15.782Z" transform="translate(-181.888 -64.687)"/></g><g class="b"><path class="aq" d="M202.961,73.33,178.754,57.339h.158l24.049,15.887Z" transform="translate(-181.517 -64.687)"/></g><g class="b"><path class="ar" d="M202.589,73.435,178.225,57.34h.158l24.207,15.991Z" transform="translate(-181.146 -64.687)"/></g><g class="b"><path class="as" d="M202.217,73.538,177.7,57.339h.158l24.364,16.1Z" transform="translate(-180.774 -64.687)"/></g><g class="b"><path class="at" d="M201.845,73.644l-24.68-16.3h.158l24.522,16.2Z" transform="translate(-180.402 -64.687)"/></g><g class="b"><path class="au" d="M201.473,73.747,176.635,57.339h.158l24.68,16.3Z" transform="translate(-180.03 -64.687)"/></g><g class="b"><path class="av" d="M201.1,73.852l-25-16.512h.158L201.1,73.748Z" transform="translate(-179.658 -64.687)"/></g><g class="b"><path class="aw" d="M200.73,73.956,175.576,57.339h.158l25,16.513Z" transform="translate(-179.286 -64.687)"/></g><g class="b"><path class="ax" d="M200.358,74.061,175.046,57.34h.158l25.154,16.616Z" transform="translate(-178.914 -64.687)"/></g><g class="b"><path class="ay" d="M199.987,74.165l-25.47-16.826h.158L199.987,74.06Z" transform="translate(-178.543 -64.687)"/></g><g class="b"><path class="ay" d="M199.615,74.269,173.987,57.34h.158l25.47,16.825Z" transform="translate(-178.171 -64.687)"/></g><g class="b"><path class="az" d="M199.243,74.373,173.457,57.339h.158l25.628,16.93Z" transform="translate(-177.799 -64.687)"/></g><g class="b"><path class="ba" d="M198.871,74.478,172.928,57.34h.158l25.786,17.034Z" transform="translate(-177.428 -64.687)"/></g><g class="b"><path class="ba" d="M198.5,74.582,172.4,57.339h.158L198.5,74.478Z" transform="translate(-177.056 -64.687)"/></g><g class="b"><path class="bb" d="M198.128,74.687,171.869,57.34h.158l26.1,17.242Z" transform="translate(-176.685 -64.687)"/></g><g class="b"><path class="bc" d="M197.756,74.79,171.339,57.339h.158l26.259,17.347Z" transform="translate(-176.313 -64.687)"/></g><g class="b"><path class="bd" d="M197.384,74.9,170.809,57.34h.158l26.417,17.451Z" transform="translate(-175.941 -64.687)"/></g><g class="b"><path class="be" d="M197.013,75,170.28,57.339h.158l26.575,17.555Z" transform="translate(-175.569 -64.687)"/></g><g class="b"><path class="bf" d="M196.64,75.1,169.749,57.34h.158L196.64,75Z" transform="translate(-175.197 -64.687)"/></g><g class="b"><path class="bg" d="M196.269,75.207,169.22,57.339h.158L196.269,75.1Z" transform="translate(-174.825 -64.687)"/></g><g class="b"><path class="bh" d="M195.9,75.312,168.691,57.34h.158L195.9,75.208Z" transform="translate(-174.454 -64.687)"/></g><g class="b"><path class="bi" d="M195.586,75.416l-27.339-18.06.009-.017h.124l27.207,17.973Z" transform="translate(-174.142 -64.687)"/></g><g class="b"><path class="bj" d="M195.493,75.56,168.114,57.474l.04-.078,27.339,18.06Z" transform="translate(-174.049 -64.727)"/></g><g class="b"><path class="bk" d="M195.4,75.849,167.982,57.737l.039-.078L195.4,75.745Z" transform="translate(-173.956 -64.911)"/></g><g class="b"><path class="bl" d="M195.307,76.138,167.849,58l.04-.078,27.418,18.112Z" transform="translate(-173.863 -65.095)"/></g><g class="b"><path class="bm" d="M195.215,76.426l-27.5-18.164.039-.078,27.458,18.139Z" transform="translate(-173.771 -65.279)"/></g><g class="b"><path class="bn" d="M195.121,76.714,167.585,58.523l.04-.078,27.5,18.164Z" transform="translate(-173.678 -65.463)"/></g><g class="b"><path class="bo" d="M195.029,77,167.453,58.786l.039-.078L195.029,76.9Z" transform="translate(-173.585 -65.647)"/></g><g class="b"><path class="bp" d="M194.935,77.291,167.32,59.048l.04-.078,27.576,18.217Z" transform="translate(-173.492 -65.831)"/></g><g class="b"><path class="bq" d="M194.843,77.58,167.188,59.311l.039-.078,27.615,18.243Z" transform="translate(-173.399 -66.016)"/></g><g class="b"><path class="br" d="M194.749,77.869l-27.694-18.3.04-.078,27.655,18.269Z" transform="translate(-173.306 -66.201)"/></g><g class="b"><path class="bs" d="M194.656,78.157,166.922,59.836l.04-.078,27.694,18.294Z" transform="translate(-173.212 -66.384)"/></g><g class="b"><path class="bt" d="M194.564,78.445,166.791,60.1l.039-.078,27.734,18.321Z" transform="translate(-173.12 -66.568)"/></g><g class="b"><path class="bu" d="M194.471,78.734,166.658,60.36l.04-.078,27.773,18.347Z" transform="translate(-173.027 -66.752)"/></g><g class="b"><path class="bv" d="M194.378,79.022l-27.852-18.4.039-.079,27.813,18.373Z" transform="translate(-172.934 -66.936)"/></g><g class="b"><path class="bw" d="M194.285,79.311,166.393,60.885l.04-.078,27.852,18.4Z" transform="translate(-172.841 -67.121)"/></g><g class="b"><path class="bx" d="M194.192,79.6,166.261,61.148l.039-.078L194.192,79.5Z" transform="translate(-172.748 -67.305)"/></g><g class="b"><path class="by" d="M194.1,79.889,166.128,61.411l.04-.078L194.1,79.784Z" transform="translate(-172.655 -67.49)"/></g><g class="b"><path class="bz" d="M194.005,80.177l-28.01-18.5.04-.078,27.971,18.477Z" transform="translate(-172.562 -67.674)"/></g><g class="b"><path class="bz" d="M193.913,80.465,165.864,61.935l.039-.078,28.01,18.5Z" transform="translate(-172.47 -67.858)"/></g><g class="b"><path class="ca" d="M193.894,80.753,165.837,62.218v-.083l.008-.016,28.049,18.53Z" transform="translate(-172.451 -68.042)"/></g><g class="b"><path class="cb" d="M193.894,81.09,165.837,62.556v-.1l28.057,18.535Z" transform="translate(-172.451 -68.275)"/></g><g class="b"><path class="cc" d="M193.894,81.44,165.837,62.906v-.1l28.057,18.535Z" transform="translate(-172.451 -68.52)"/></g><g class="b"><path class="cd" d="M193.894,81.79,165.837,63.256v-.1l28.057,18.535Z" transform="translate(-172.451 -68.766)"/></g><g class="b"><path class="ce" d="M193.894,82.14,165.837,63.606v-.1l28.057,18.535Z" transform="translate(-172.451 -69.012)"/></g><g class="b"><path class="cf" d="M193.894,82.49,165.837,63.955v-.1l28.057,18.535Z" transform="translate(-172.451 -69.257)"/></g><g class="b"><path class="cg" d="M193.894,82.84,165.837,64.305v-.1l28.057,18.535Z" transform="translate(-172.451 -69.503)"/></g><g class="b"><path class="ch" d="M193.894,83.19,165.837,64.655v-.1l28.057,18.535Z" transform="translate(-172.451 -69.749)"/></g><g class="b"><path class="ci" d="M193.894,83.539,165.837,65v-.1l28.057,18.535Z" transform="translate(-172.451 -69.993)"/></g><g class="b"><path class="cj" d="M193.894,83.889,165.837,65.355v-.1l28.057,18.535Z" transform="translate(-172.451 -70.239)"/></g><g class="b"><path class="ck" d="M193.894,84.239,165.837,65.7v-.1l28.057,18.535Z" transform="translate(-172.451 -70.485)"/></g><g class="b"><path class="cl" d="M193.894,84.589,165.837,66.055v-.1l28.057,18.535Z" transform="translate(-172.451 -70.73)"/></g><g class="b"><path class="cm" d="M193.894,84.939,165.837,66.4v-.1l28.057,18.535Z" transform="translate(-172.451 -70.976)"/></g><g class="b"><path class="cm" d="M193.894,85.289,165.837,66.754v-.1l28.057,18.535Z" transform="translate(-172.451 -71.222)"/></g><g class="b"><path class="cn" d="M193.894,85.639,165.837,67.1V67l28.057,18.535Z" transform="translate(-172.451 -71.467)"/></g><g class="b"><path class="cn" d="M193.894,86.143,165.837,67.609v-.26l28.057,18.535Z" transform="translate(-172.451 -71.712)"/></g><g class="b"><path class="co" d="M193.894,87.014,165.837,68.479v-.26l28.057,18.535Z" transform="translate(-172.451 -72.323)"/></g><g class="b"><path class="cp" d="M193.894,87.884,165.837,69.349v-.26l28.057,18.535Z" transform="translate(-172.451 -72.934)"/></g><g class="b"><path class="cq" d="M193.894,88.754,165.837,70.219v-.26l28.057,18.535Z" transform="translate(-172.451 -73.544)"/></g><g class="b"><path class="cr" d="M193.894,89.624,165.837,71.089v-.26l28.057,18.535Z" transform="translate(-172.451 -74.155)"/></g><g class="b"><path class="cs" d="M193.894,90.494,165.837,71.959V71.7l28.057,18.535Z" transform="translate(-172.451 -74.766)"/></g><g class="b"><path class="cr" d="M193.894,91.364,165.837,72.829v-.26L193.894,91.1Z" transform="translate(-172.451 -75.376)"/></g><g class="b"><path class="ct" d="M193.894,92.234,165.837,73.7v-.26l28.057,18.535Z" transform="translate(-172.451 -75.987)"/></g><g class="b"><path class="cu" d="M193.894,93.1,165.837,74.569v-.26l28.057,18.535Z" transform="translate(-172.451 -76.597)"/></g><g class="b"><path class="cv" d="M193.894,93.974,165.837,75.439v-.26l28.057,18.535Z" transform="translate(-172.451 -77.208)"/></g><g class="b"><path class="cw" d="M193.894,94.844,165.837,76.309v-.26l28.057,18.535Z" transform="translate(-172.451 -77.819)"/></g><g class="b"><path class="cx" d="M193.894,95.714,165.837,77.179v-.26l28.057,18.535Z" transform="translate(-172.451 -78.429)"/></g><g class="b"><path class="cy" d="M193.894,96.584,165.837,78.049v-.26l28.057,18.535Z" transform="translate(-172.451 -79.04)"/></g><g class="b"><path class="cz" d="M193.894,97.453,165.837,78.919v-.26l28.057,18.535Z" transform="translate(-172.451 -79.651)"/></g><g class="b"><path class="da" d="M193.894,98.324,165.837,79.789V79.53l28.057,18.535Z" transform="translate(-172.451 -80.262)"/></g><g class="b"><path class="db" d="M193.894,99.194,165.837,80.659V80.4l28.057,18.535Z" transform="translate(-172.451 -80.872)"/></g><g class="b"><path class="dc" d="M193.894,100.064,165.837,81.529v-.26L193.894,99.8Z" transform="translate(-172.451 -81.482)"/></g><g class="b"><path class="dd" d="M193.894,100.934,165.837,82.4v-.26l28.057,18.535Z" transform="translate(-172.451 -82.093)"/></g><g class="b"><path class="de" d="M193.894,101.8,165.837,83.269v-.26l28.057,18.535Z" transform="translate(-172.451 -82.704)"/></g><g class="b"><path class="df" d="M193.894,102.674,165.837,84.139v-.26l28.057,18.535Z" transform="translate(-172.451 -83.314)"/></g><g class="b"><path class="dg" d="M193.894,103.544,165.837,85.009v-.26l28.057,18.535Z" transform="translate(-172.451 -83.925)"/></g><g class="b"><path class="dg" d="M193.894,104.414,165.837,85.879v-.26l28.057,18.535Z" transform="translate(-172.451 -84.536)"/></g><g class="b"><path class="dh" d="M193.894,105.284,165.837,86.749v-.26l28.057,18.535Z" transform="translate(-172.451 -85.146)"/></g><g class="b"><path class="di" d="M193.894,106.154,165.837,87.619v-.26l28.057,18.535Z" transform="translate(-172.451 -85.757)"/></g><g class="b"><path class="dj" d="M193.894,107.024,165.837,88.489v-.26l28.057,18.535Z" transform="translate(-172.451 -86.368)"/></g><g class="b"><path class="dk" d="M193.894,107.894,165.837,89.359V89.1l28.057,18.535Z" transform="translate(-172.451 -86.978)"/></g><g class="b"><path class="dk" d="M193.894,108.6,165.837,90.067v-.1L193.894,108.5Z" transform="translate(-172.451 -87.589)"/></g><g class="b"><path class="di" d="M193.894,108.927,165.837,90.392v-.1l28.057,18.535Z" transform="translate(-172.451 -87.818)"/></g><g class="b"><path class="dh" d="M193.894,109.252,165.837,90.717v-.1l28.057,18.535Z" transform="translate(-172.451 -88.046)"/></g><g class="b"><path class="dg" d="M193.894,109.577,165.837,91.042v-.1l28.057,18.535Z" transform="translate(-172.451 -88.274)"/></g><g class="b"><path class="de" d="M193.894,109.9,165.837,91.368v-.1l28.057,18.535Z" transform="translate(-172.451 -88.503)"/></g><g class="b"><path class="dd" d="M193.894,110.228,165.837,91.693v-.1l28.057,18.535Z" transform="translate(-172.451 -88.731)"/></g><g class="b"><path class="db" d="M193.894,110.553,165.837,92.018v-.1l28.057,18.535Z" transform="translate(-172.451 -88.959)"/></g><g class="b"><path class="da" d="M193.894,110.878,165.837,92.343v-.1l28.057,18.535Z" transform="translate(-172.451 -89.187)"/></g><g class="b"><path class="cy" d="M193.894,111.2,165.837,92.669v-.1l28.057,18.535Z" transform="translate(-172.451 -89.416)"/></g><g class="b"><path class="cx" d="M193.894,111.529,165.837,92.994v-.1l28.057,18.535Z" transform="translate(-172.451 -89.644)"/></g><g class="b"><path class="cv" d="M193.894,111.854,165.837,93.319v-.1l28.057,18.535Z" transform="translate(-172.451 -89.872)"/></g><g class="b"><path class="cu" d="M193.894,112.179,165.837,93.644v-.1l28.057,18.535Z" transform="translate(-172.451 -90.1)"/></g><g class="b"><path class="ct" d="M193.894,112.5,165.837,93.97v-.1l28.057,18.535Z" transform="translate(-172.451 -90.329)"/></g><g class="b"><path class="cs" d="M193.894,112.83,165.837,94.3v-.1l28.057,18.535Z" transform="translate(-172.451 -90.557)"/></g><g class="b"><path class="cr" d="M193.894,113.155,165.837,94.62v-.1l28.057,18.535Z" transform="translate(-172.451 -90.785)"/></g><g class="b"><path class="cq" d="M193.894,113.481,165.837,94.946v-.1l28.057,18.535Z" transform="translate(-172.451 -91.014)"/></g><g class="b"><path class="co" d="M193.894,113.806,165.837,95.271v-.1l28.057,18.535Z" transform="translate(-172.451 -91.242)"/></g><g class="b"><path class="cn" d="M193.894,114.131,165.837,95.6v-.1l28.057,18.535Z" transform="translate(-172.451 -91.47)"/></g><g class="b"><path class="cm" d="M193.894,114.456,165.837,95.921v-.1l28.057,18.535Z" transform="translate(-172.451 -91.698)"/></g><g class="b"><path class="cl" d="M193.894,114.781,165.837,96.246v-.1l28.057,18.535Z" transform="translate(-172.451 -91.926)"/></g><g class="b"><path class="cj" d="M193.894,115.107,165.837,96.572v-.1l28.057,18.535Z" transform="translate(-172.451 -92.155)"/></g><g class="b"><path class="ci" d="M193.894,115.432,165.837,96.9v-.1l28.057,18.535Z" transform="translate(-172.451 -92.383)"/></g><g class="b"><path class="cg" d="M193.894,115.757,165.837,97.222v-.1l28.057,18.535Z" transform="translate(-172.451 -92.611)"/></g><g class="b"><path class="cf" d="M193.894,116.082,165.837,97.547v-.1l28.057,18.535Z" transform="translate(-172.451 -92.84)"/></g><g class="b"><path class="ce" d="M193.894,116.408,165.837,97.873v-.1l28.057,18.535Z" transform="translate(-172.451 -93.068)"/></g><g class="b"><path class="cc" d="M193.894,116.68l-.02.039L165.837,98.2v-.1l28.057,18.535Z" transform="translate(-172.451 -93.296)"/></g><g class="b"><path class="cb" d="M193.874,116.949l-.037.073-28-18.5v-.1Z" transform="translate(-172.45 -93.525)"/></g><g class="b"><path class="bz" d="M193.838,117.249l-.037.072L165.837,98.849v-.1Z" transform="translate(-172.451 -93.753)"/></g><g class="b"><path class="bz" d="M193.8,117.55l-.037.072L165.836,99.174v-.1Z" transform="translate(-172.45 -93.981)"/></g><g class="b"><path class="by" d="M193.764,117.851l-.037.072L165.836,99.5v-.1Z" transform="translate(-172.45 -94.21)"/></g><g class="b"><path class="bx" d="M193.728,118.152l-.037.072-27.854-18.4v-.1Z" transform="translate(-172.451 -94.438)"/></g><g class="b"><path class="bv" d="M193.69,118.454l-.036.072-27.818-18.376v-.1Z" transform="translate(-172.45 -94.667)"/></g><g class="b"><path class="bu" d="M193.653,118.755l-.036.073-27.781-18.352v-.1Z" transform="translate(-172.45 -94.895)"/></g><g class="b"><path class="bt" d="M193.617,119.056l-.036.072L165.836,100.8v-.1Z" transform="translate(-172.45 -95.123)"/></g><g class="b"><path class="br" d="M193.581,119.357l-.037.072-27.707-18.3v-.1Z" transform="translate(-172.451 -95.352)"/></g><g class="b"><path class="bq" d="M193.543,119.657l-.037.073-27.671-18.279v-.1Z" transform="translate(-172.45 -95.58)"/></g><g class="b"><path class="bp" d="M193.507,119.958l-.037.073-27.634-18.255v-.1Z" transform="translate(-172.45 -95.808)"/></g><g class="b"><path class="bo" d="M193.471,120.259l-.037.073-27.6-18.231V102Z" transform="translate(-172.451 -96.036)"/></g><g class="b"><path class="bm" d="M193.433,120.56l-.037.073-27.561-18.206v-.1Z" transform="translate(-172.45 -96.264)"/></g><g class="b"><path class="bl" d="M193.4,120.861l-.037.073-27.524-18.182v-.1Z" transform="translate(-172.45 -96.493)"/></g><g class="b"><path class="bk" d="M193.36,121.162l-.037.073-27.487-18.158v-.1Z" transform="translate(-172.45 -96.721)"/></g><g class="b"><path class="bj" d="M193.324,121.463l-.037.072L165.837,103.4v-.1Z" transform="translate(-172.451 -96.949)"/></g><g class="b"><path class="bi" d="M193.286,121.765l-.036.072-27.414-18.109v-.1Z" transform="translate(-172.45 -97.178)"/></g><g class="b"><path class="bg" d="M193.25,122.066l-.037.073-27.377-18.085v-.1Z" transform="translate(-172.45 -97.406)"/></g><g class="b"><path class="bf" d="M193.214,122.366l-.036.072-27.34-18.061v-.1Z" transform="translate(-172.451 -97.634)"/></g><g class="b"><path class="be" d="M193.176,122.668l-.01.02h-.107L165.836,104.7v-.1Z" transform="translate(-172.45 -97.863)"/></g><g class="b"><path class="bd" d="M192.913,122.916l-27.077-17.887v-.1l27.224,17.984Z" transform="translate(-172.45 -98.091)"/></g><g class="b"><path class="bc" d="M192.766,123.143l-26.93-17.79v-.1l27.077,17.887Z" transform="translate(-172.45 -98.318)"/></g><g class="b"><path class="bb" d="M192.62,123.372l-26.783-17.693v-.1l26.93,17.79Z" transform="translate(-172.451 -98.547)"/></g><g class="b"><path class="ba" d="M192.473,123.6,165.837,106v-.1L192.62,123.6Z" transform="translate(-172.451 -98.775)"/></g><g class="b"><path class="ba" d="M192.326,123.828l-26.49-17.5v-.1l26.636,17.6Z" transform="translate(-172.45 -99.003)"/></g><g class="b"><path class="az" d="M192.179,124.057l-26.343-17.4v-.1l26.49,17.5Z" transform="translate(-172.45 -99.232)"/></g><g class="b"><path class="ay" d="M192.032,124.285l-26.2-17.3v-.1l26.343,17.4Z" transform="translate(-172.45 -99.46)"/></g><g class="b"><path class="ax" d="M191.885,124.514l-26.049-17.208v-.1l26.2,17.3Z" transform="translate(-172.45 -99.689)"/></g><g class="b"><path class="aw" d="M191.739,124.742l-25.9-17.111v-.1l26.049,17.208Z" transform="translate(-172.451 -99.917)"/></g><g class="b"><path class="av" d="M191.593,124.969l-25.756-17.014v-.1l25.9,17.111Z" transform="translate(-172.451 -100.145)"/></g><g class="b"><path class="au" d="M191.445,125.2l-25.609-16.917v-.1L191.592,125.2Z" transform="translate(-172.45 -100.373)"/></g><g class="b"><path class="at" d="M191.3,125.426l-25.462-16.82v-.1l25.609,16.917Z" transform="translate(-172.45 -100.602)"/></g><g class="b"><path class="as" d="M191.151,125.655l-25.315-16.723v-.1l25.462,16.82Z" transform="translate(-172.45 -100.83)"/></g><g class="b"><path class="ar" d="M191,125.883l-25.169-16.626v-.1l25.315,16.723Z" transform="translate(-172.45 -101.058)"/></g><g class="b"><path class="ar" d="M190.859,126.111l-25.022-16.529v-.1l25.168,16.626Z" transform="translate(-172.451 -101.287)"/></g><g class="b"><path class="aq" d="M190.712,126.34l-24.875-16.433v-.1l25.022,16.529Z" transform="translate(-172.451 -101.515)"/></g><g class="b"><path class="ap" d="M190.564,126.568l-24.728-16.335v-.1l24.875,16.433Z" transform="translate(-172.45 -101.743)"/></g><g class="b"><path class="dl" d="M190.418,126.8l-24.582-16.239v-.1L190.564,126.8Z" transform="translate(-172.45 -101.972)"/></g><g class="b"><path class="ao" d="M190.271,127.025l-24.435-16.142v-.1l24.581,16.239Z" transform="translate(-172.45 -102.2)"/></g><g class="b"><path class="an" d="M190.124,127.253l-24.288-16.044v-.1l24.435,16.142Z" transform="translate(-172.45 -102.428)"/></g><g class="b"><path class="an" d="M189.978,127.481l-24.141-15.948v-.1l24.288,16.044Z" transform="translate(-172.451 -102.657)"/></g><g class="b"><path class="am" d="M189.831,127.71l-23.994-15.851v-.1l24.141,15.948Z" transform="translate(-172.451 -102.885)"/></g><g class="b"><path class="al" d="M189.684,127.938l-23.848-15.753v-.1l23.994,15.851Z" transform="translate(-172.45 -103.113)"/></g><g class="b"><path class="al" d="M189.537,128.166l-23.7-15.657v-.1l23.848,15.753Z" transform="translate(-172.45 -103.342)"/></g><g class="b"><path class="aj" d="M189.39,128.394l-23.554-15.56v-.1l23.7,15.657Z" transform="translate(-172.45 -103.569)"/></g><g class="b"><path class="ak" d="M189.243,128.623,165.836,113.16v-.1l23.554,15.56Z" transform="translate(-172.45 -103.798)"/></g><g class="b"><path class="aj" d="M189.1,128.851l-23.26-15.366v-.1l23.407,15.463Z" transform="translate(-172.45 -104.026)"/></g><g class="b"><path class="aj" d="M188.95,129.079,165.837,113.81v-.1l23.26,15.366Z" transform="translate(-172.451 -104.254)"/></g><g class="b"><path class="ah" d="M188.8,129.308l-22.967-15.172v-.1l23.113,15.269Z" transform="translate(-172.451 -104.483)"/></g><g class="b"><path class="ai" d="M188.656,129.536l-22.82-15.075v-.1L188.8,129.536Z" transform="translate(-172.45 -104.711)"/></g><g class="b"><path class="dm" d="M188.509,129.765l-22.673-14.978v-.1l22.82,15.075Z" transform="translate(-172.45 -104.94)"/></g><g class="b"><path class="dm" d="M188.362,129.993l-22.526-14.881v-.1l22.673,14.978Z" transform="translate(-172.45 -105.168)"/></g><g class="b"><path class="ah" d="M188.216,130.22l-22.38-14.784v-.1l22.526,14.881Z" transform="translate(-172.45 -105.395)"/></g><g class="b"><path class="ag" d="M188.07,130.449l-22.233-14.687v-.1l22.379,14.784Z" transform="translate(-172.451 -105.624)"/></g><g class="b"><path class="ag" d="M187.923,130.677l-22.086-14.59v-.1l22.233,14.687Z" transform="translate(-172.451 -105.852)"/></g><g class="b"><path class="af" d="M187.775,130.906l-21.939-14.493v-.1l22.086,14.59Z" transform="translate(-172.45 -106.081)"/></g><g class="b"><path class="ae" d="M187.629,131.134l-21.793-14.4v-.1l21.939,14.493Z" transform="translate(-172.45 -106.309)"/></g><g class="b"><path class="ae" d="M187.482,131.362l-21.646-14.3v-.1l21.793,14.4Z" transform="translate(-172.45 -106.537)"/></g><g class="b"><path class="ad" d="M187.335,131.591l-21.5-14.2v-.1l21.646,14.3Z" transform="translate(-172.45 -106.766)"/></g><g class="b"><path class="ad" d="M187.189,131.819l-21.352-14.105v-.1l21.5,14.2Z" transform="translate(-172.451 -106.994)"/></g><g class="b"><path class="ac" d="M187.042,132.046l-21.2-14.008v-.1l21.352,14.105Z" transform="translate(-172.451 -107.222)"/></g><g class="b"><path class="ac" d="M186.895,132.275l-21.059-13.911v-.1l21.205,14.008Z" transform="translate(-172.45 -107.45)"/></g><g class="b"><path class="ac" d="M186.748,132.5l-20.912-13.814v-.1L186.895,132.5Z" transform="translate(-172.45 -107.679)"/></g><g class="b"><path class="ac" d="M186.6,132.732l-20.765-13.717v-.1l20.912,13.814Z" transform="translate(-172.45 -107.907)"/></g><g class="b"><path class="ab" d="M186.454,132.96,165.836,119.34v-.1L186.6,132.96Z" transform="translate(-172.45 -108.135)"/></g><g class="b"><path class="ab" d="M186.308,133.188l-20.471-13.523v-.1l20.618,13.621Z" transform="translate(-172.451 -108.363)"/></g><g class="b"><path class="ab" d="M186.161,133.417l-20.324-13.427v-.1l20.471,13.523Z" transform="translate(-172.451 -108.592)"/></g><g class="b"><path class="aa" d="M186.014,133.645l-20.178-13.329v-.1l20.325,13.427Z" transform="translate(-172.45 -108.82)"/></g><g class="b"><path class="aa" d="M185.867,133.873l-20.031-13.233v-.1l20.178,13.329Z" transform="translate(-172.45 -109.049)"/></g><g class="b"><path class="aa" d="M185.72,134.1l-19.884-13.136v-.1L185.867,134.1Z" transform="translate(-172.45 -109.277)"/></g><g class="b"><path class="z" d="M185.574,134.33l-19.738-13.038v-.1L185.72,134.33Z" transform="translate(-172.45 -109.505)"/></g><g class="b"><path class="z" d="M185.427,134.558l-19.59-12.942v-.1l19.737,13.038Z" transform="translate(-172.451 -109.734)"/></g><g class="b"><path class="z" d="M185.281,134.787l-19.444-12.844v-.1l19.59,12.942Z" transform="translate(-172.451 -109.962)"/></g><g class="b"><path class="z" d="M185.133,135.015l-19.3-12.748v-.1l19.444,12.844Z" transform="translate(-172.45 -110.191)"/></g><g class="b"><path class="y" d="M184.986,135.243l-19.15-12.651v-.1l19.3,12.748Z" transform="translate(-172.45 -110.418)"/></g><g class="b"><path class="y" d="M184.84,135.471l-19-12.554v-.1l19.15,12.651Z" transform="translate(-172.45 -110.646)"/></g><g class="b"><path class="y" d="M165.836,123.146l19,12.554h-19Z" transform="translate(-172.45 -110.875)"/></g></g><path class="as" d="M187.842,97.131V84.022a2.1,2.1,0,0,1,1.907-2.246h11.124a2.1,2.1,0,0,1,1.907,2.246V97.131a2.1,2.1,0,0,1-1.907,2.246H189.749a2.1,2.1,0,0,1-1.907-2.246m14.83-13.109a1.984,1.984,0,0,0-1.8-2.123H189.749a1.984,1.984,0,0,0-1.8,2.123V97.131a1.984,1.984,0,0,0,1.8,2.123h11.124a1.984,1.984,0,0,0,1.8-2.123Z" transform="translate(-187.842 -81.776)"/><path class="y" d="M217.306,93.776V89.389l1.889-1.127V82.51h.134v5.846l-1.889,1.126v4.294Z" transform="translate(-208.522 -82.291)"/><path class="y" d="M198.7,115.638v-3.963l1.715-2.023v-4.4h3.872v.154h-3.738v4.31l-1.715,2.023v3.9Z" transform="translate(-195.464 -98.252)"/><path class="y" d="M204.681,120.016v-.154h3.806l1.949,2.3v3.735H210.3v-3.672l-1.871-2.2Z" transform="translate(-199.661 -108.508)"/><rect class="y" width="0.135" height="6.005" transform="translate(7.27 11.431)"/><rect class="y" width="0.135" height="6.821" transform="translate(7.098 0.237)"/><path class="y" d="M199.278,87.275V82.186h.135v5.028l1.525,1.872-.1.105Z" transform="translate(-195.869 -82.064)"/><path class="as" d="M218.036,93.347V88.96l1.89-1.127V82.264h.134v5.663l-1.889,1.127v4.293Z" transform="translate(-209.034 -82.119)"/><path class="as" d="M199.428,115v-4.183l.019-.023,1.7-2v-4.4h3.87v.154H201.28v4.31l-.019.023-1.7,2V115Z" transform="translate(-195.974 -97.649)"/><path class="as" d="M205.414,119.156V119h3.8l1.95,2.3v3.956h-.134v-3.893l-1.872-2.2Z" transform="translate(-200.175 -107.904)"/><rect class="as" width="0.135" height="6.225" transform="translate(7.488 11.175)"/><rect class="as" width="0.134" height="6.617" transform="translate(7.317 0.201)"/><path class="as" d="M200.007,86.847V81.941h.135v4.845l1.526,1.872-.1.105Z" transform="translate(-196.38 -81.892)"/><rect class="y" width="4.509" height="0.154" transform="translate(0.234 9.089)"/><rect class="as" width="4.52" height="0.154" transform="translate(0.236 9.437)"/><rect class="y" width="5.359" height="0.154" transform="translate(9.325 9.089)"/><rect class="as" width="5.374" height="0.154" transform="translate(9.325 9.437)"/></g><g transform="translate(75.22 25.78)"><path class="dn" d="M259.793,100.381a.814.814,0,0,1-.5-.585c-.031-.165.007-.28.244-.739a11.587,11.587,0,0,0,1.375-5.632A11.4,11.4,0,0,0,259.63,88a5.633,5.633,0,0,1-.358-.827.841.841,0,0,1,.346-.6.783.783,0,0,1,.858.06,4.07,4.07,0,0,1,.439.721,13.7,13.7,0,0,1,1.327,4.17,16.36,16.36,0,0,1,.055,3.467,13.637,13.637,0,0,1-1.257,4.25c-.392.812-.639,1.146-.845,1.146a.6.6,0,0,0-.149.023.612.612,0,0,1-.252-.028Zm-2.668-1.4a.731.731,0,0,1-.492-.837c.024-.076.186-.428.359-.782a8.724,8.724,0,0,0,.89-4.678,8.447,8.447,0,0,0-.94-3.307c-.392-.8-.411-.926-.182-1.249a.746.746,0,0,1,1.042-.1,9.6,9.6,0,0,1,1.046,2.186,10.383,10.383,0,0,1-.34,7.33c-.514,1.207-.874,1.58-1.384,1.432Zm-2.752-1.415a.832.832,0,0,1-.444-.546c-.03-.138.022-.29.273-.8a5.865,5.865,0,0,0,.03-5.5c-.4-.8-.405-.963-.07-1.279a.529.529,0,0,1,.469-.184c.39,0,.593.2.941.912a6.951,6.951,0,0,1,.754,3.282,6.677,6.677,0,0,1-.78,3.284c-.328.665-.49.841-.819.886a.77.77,0,0,1-.355-.053Zm-2.567-1.319a.865.865,0,0,1-.417-.5c-.064-.222-.012-.4.241-.813a3.076,3.076,0,0,0,0-3.033,2.983,2.983,0,0,1-.245-.481.735.735,0,0,1,.582-.856c.334-.063.563.086.869.565a4.324,4.324,0,0,1,0,4.611c-.313.485-.662.656-1.029.5Z" transform="translate(-251.364 -86.473)"/></g><g transform="translate(13.171 162.151)"><path class="do" d="M45.731,582.524a.25.25,0,1,1,0-.5h.834a.251.251,0,0,1,.25.25v.834a.244.244,0,0,1-.075.18,1.444,1.444,0,0,1-1.059.438,1.494,1.494,0,0,1-1.5-1.5,1.5,1.5,0,0,1,2.532-1.084.232.232,0,0,1,.1.2.254.254,0,0,1-.43.179.946.946,0,0,0-.7-.3.968.968,0,0,0-.709.3A1,1,0,0,0,46.315,583v-.476h-.584Z" transform="translate(-44.18 -569.11)"/><path class="dp" d="M45.731,582.524a.25.25,0,1,1,0-.5h.834a.251.251,0,0,1,.25.25v.834a.244.244,0,0,1-.075.18,1.444,1.444,0,0,1-1.059.438,1.494,1.494,0,0,1-1.5-1.5,1.5,1.5,0,0,1,2.532-1.084.232.232,0,0,1,.1.2.254.254,0,0,1-.43.179.946.946,0,0,0-.7-.3.968.968,0,0,0-.709.3A1,1,0,0,0,46.315,583v-.476h-.584Z" transform="translate(-44.18 -569.11)"/><path class="do" d="M57.631,580.972a.25.25,0,0,1,.5,0v2.252h1.835a.25.25,0,1,1,0,.5H57.881a.251.251,0,0,1-.25-.25Z" transform="translate(-53.621 -569.109)"/><path class="dp" d="M57.631,580.972a.25.25,0,0,1,.5,0v2.252h1.835a.25.25,0,1,1,0,.5H57.881a.251.251,0,0,1-.25-.25Z" transform="translate(-53.621 -569.109)"/><path class="do" d="M69.8,582.224a1.5,1.5,0,0,1,1.5-1.5,1.51,1.51,0,0,1,1.5,1.5,1.5,1.5,0,1,1-3,0m.5,0a1,1,0,0,0,1,1,.955.955,0,0,0,.7-.292.969.969,0,0,0,.3-.709,1.012,1.012,0,0,0-1-1,.97.97,0,0,0-.709.3.958.958,0,0,0-.292.7" transform="translate(-62.16 -569.11)"/><path class="dp" d="M69.8,582.224a1.5,1.5,0,0,1,1.5-1.5,1.51,1.51,0,0,1,1.5,1.5,1.5,1.5,0,1,1-3,0Zm.5,0a1,1,0,0,0,1,1,.955.955,0,0,0,.7-.292.969.969,0,0,0,.3-.709,1.012,1.012,0,0,0-1-1,.97.97,0,0,0-.709.3A.958.958,0,0,0,70.3,582.224Z" transform="translate(-62.16 -569.11)"/><path class="do" d="M87.023,583.464a.834.834,0,0,1-.605.263H84.729a.25.25,0,0,1-.25-.25v-2.5a.251.251,0,0,1,.25-.25h1.689a53.665,53.665,0,0,0,.855,2.127.85.85,0,0,1-.25.613m-2.044-2.24v.751h1.43a.38.38,0,0,0,.363-.376.369.369,0,0,0-.376-.375Zm0,1.251v.751H86.4a.369.369,0,0,0,.376-.375.383.383,0,0,0-.363-.376Z" transform="translate(-72.465 -569.11)"/><path class="dp" d="M87.023,583.464a.834.834,0,0,1-.605.263H84.729a.25.25,0,0,1-.25-.25v-2.5a.251.251,0,0,1,.25-.25h1.689a53.665,53.665,0,0,0,.855,2.127A.85.85,0,0,1,87.023,583.464Zm-2.044-2.24v.751h1.43a.38.38,0,0,0,.363-.376.369.369,0,0,0-.376-.375Zm0,1.251v.751H86.4a.369.369,0,0,0,.376-.375.383.383,0,0,0-.363-.376Z" transform="translate(-72.465 -569.11)"/><path class="do" d="M99.519,580.84a.254.254,0,0,1,.433,0l1.447,2.511a.281.281,0,0,1,.03.121.251.251,0,0,1-.25.25.262.262,0,0,1-.234-.154l-.271-.471H98.793l-.272.471a.256.256,0,0,1-.229.154.251.251,0,0,1-.25-.25.233.233,0,0,1,.03-.121Zm.217.626-.654,1.13h1.305Z" transform="translate(-81.984 -569.106)"/><path class="dp" d="M99.519,580.84a.254.254,0,0,1,.433,0l1.447,2.511a.281.281,0,0,1,.03.121.251.251,0,0,1-.25.25.262.262,0,0,1-.234-.154l-.271-.471H98.793l-.272.471a.256.256,0,0,1-.229.154.251.251,0,0,1-.25-.25.233.233,0,0,1,.03-.121Zm.217.626-.654,1.13h1.305Z" transform="translate(-81.984 -569.106)"/><path class="do" d="M113.872,580.972a.25.25,0,0,1,.5,0v2.252h1.835a.25.25,0,1,1,0,.5h-2.085a.251.251,0,0,1-.25-.25Z" transform="translate(-93.095 -569.109)"/><path class="dp" d="M113.872,580.972a.25.25,0,0,1,.5,0v2.252h1.835a.25.25,0,1,1,0,.5h-2.085a.251.251,0,0,1-.25-.25Z" transform="translate(-93.095 -569.109)"/><path class="do" d="M126.595,582.307a1.576,1.576,0,0,1,.426-1.134,1.442,1.442,0,0,1,1.1-.45,2.2,2.2,0,0,1,.888.187.237.237,0,0,1,.155.317.245.245,0,0,1-.355.137l-.2-.075a1.614,1.614,0,0,0-.484-.067,1.013,1.013,0,0,0-.659.225.959.959,0,0,0-.342.567,1.468,1.468,0,0,1,.918-.25,1.745,1.745,0,0,1,.972.25.818.818,0,0,1,.384.73.827.827,0,0,1-.388.721,1.714,1.714,0,0,1-.967.259,1.28,1.28,0,0,1-1.439-1.418m.584.438a.406.406,0,0,0,.221.346,1.572,1.572,0,0,0,1.268,0,.405.405,0,0,0,.221-.346.393.393,0,0,0-.221-.341,1.523,1.523,0,0,0-1.268,0,.394.394,0,0,0-.221.341" transform="translate(-102.025 -569.11)"/><path class="dp" d="M126.595,582.307a1.576,1.576,0,0,1,.426-1.134,1.442,1.442,0,0,1,1.1-.45,2.2,2.2,0,0,1,.888.187.237.237,0,0,1,.155.317.245.245,0,0,1-.355.137l-.2-.075a1.614,1.614,0,0,0-.484-.067,1.013,1.013,0,0,0-.659.225.959.959,0,0,0-.342.567,1.468,1.468,0,0,1,.918-.25,1.745,1.745,0,0,1,.972.25.818.818,0,0,1,.384.73.827.827,0,0,1-.388.721,1.714,1.714,0,0,1-.967.259A1.28,1.28,0,0,1,126.595,582.307Zm.584.438a.406.406,0,0,0,.221.346,1.572,1.572,0,0,0,1.268,0,.405.405,0,0,0,.221-.346.393.393,0,0,0-.221-.341,1.523,1.523,0,0,0-1.268,0A.394.394,0,0,0,127.179,582.745Z" transform="translate(-102.025 -569.11)"/><path class="do" d="M140.16,582.307a1.576,1.576,0,0,1,.426-1.134,1.442,1.442,0,0,1,1.1-.45,2.2,2.2,0,0,1,.888.187.237.237,0,0,1,.155.317.245.245,0,0,1-.355.137l-.2-.075a1.614,1.614,0,0,0-.484-.067,1.013,1.013,0,0,0-.659.225.962.962,0,0,0-.342.567,1.468,1.468,0,0,1,.918-.25,1.744,1.744,0,0,1,.972.25.818.818,0,0,1,.384.73.827.827,0,0,1-.388.721,1.714,1.714,0,0,1-.967.259,1.28,1.28,0,0,1-1.439-1.418m.584.438a.406.406,0,0,0,.221.346,1.572,1.572,0,0,0,1.268,0,.405.405,0,0,0,.221-.346.393.393,0,0,0-.221-.341,1.523,1.523,0,0,0-1.268,0,.394.394,0,0,0-.221.341" transform="translate(-111.546 -569.11)"/><path class="dp" d="M140.16,582.307a1.576,1.576,0,0,1,.426-1.134,1.442,1.442,0,0,1,1.1-.45,2.2,2.2,0,0,1,.888.187.237.237,0,0,1,.155.317.245.245,0,0,1-.355.137l-.2-.075a1.614,1.614,0,0,0-.484-.067,1.013,1.013,0,0,0-.659.225.962.962,0,0,0-.342.567,1.468,1.468,0,0,1,.918-.25,1.744,1.744,0,0,1,.972.25.818.818,0,0,1,.384.73.827.827,0,0,1-.388.721,1.714,1.714,0,0,1-.967.259A1.28,1.28,0,0,1,140.16,582.307Zm.584.438a.406.406,0,0,0,.221.346,1.572,1.572,0,0,0,1.268,0,.405.405,0,0,0,.221-.346.393.393,0,0,0-.221-.341,1.523,1.523,0,0,0-1.268,0A.394.394,0,0,0,140.744,582.745Z" transform="translate(-111.546 -569.11)"/><path class="do" d="M78.562,546.42a5.085,5.085,0,0,0-9.221-2.5,5.034,5.034,0,0,0-.93,2.694c0,.08-.005.161-.005.241a3.221,3.221,0,0,1-3.218,3.222H65.18a3.221,3.221,0,0,1-3.218-3.222c0-.08,0-.161-.006-.241a5.094,5.094,0,0,0-5.082-4.847,5.089,5.089,0,0,0-5.068,4.652,2.4,2.4,0,0,0-.013.259.93.93,0,0,0,.925.871.952.952,0,0,0,.934-.934,3.224,3.224,0,0,1,6.43,0l.014.261a5.081,5.081,0,0,0,5.082,5.068h.008a5.081,5.081,0,0,0,5.082-5.068l.014-.261a3.224,3.224,0,0,1,6.43,0,.952.952,0,0,0,.934.934.93.93,0,0,0,.925-.871,2.431,2.431,0,0,0-.012-.259" transform="translate(-49.523 -541.768)"/></g><g transform="translate(0 31.88)"><g class="dq"><path class="dr" d="M74.039,159.129A35.538,35.538,0,0,0,7.36,160.3a34.937,34.937,0,0,0-.989,19.8c.144.54.275,1.084.432,1.621A22.394,22.394,0,0,1-8.509,209.491l-.024.007-.024.006A22.494,22.494,0,0,1-36.4,194.215c-.156-.537-.337-1.066-.5-1.6a35.056,35.056,0,0,0-11.47-16.2A35.517,35.517,0,0,0-80.4,170.082a35.386,35.386,0,0,0-24.93,40.9s.283,1.441.419,1.757a6.5,6.5,0,0,0,7.9,4.024,6.623,6.623,0,0,0,4.449-8.056A22.215,22.215,0,0,1-89.854,192.6a22.53,22.53,0,0,1,13.077-10.048,22.5,22.5,0,0,1,27.313,13.7l.606,1.716a35.11,35.11,0,0,0,11.9,17.678A35.531,35.531,0,0,0-4.93,221.97l.025-.006.024-.007a35.387,35.387,0,0,0,23.658-22.429,35,35,0,0,0,.559-21.28l-.41-1.772a22.506,22.506,0,0,1,43.106-12.461,6.652,6.652,0,0,0,8.084,4.434,6.47,6.47,0,0,0,4.512-7.612c-.057-.34-.59-1.708-.59-1.708" transform="translate(74.308 -127.426)"/></g></g></g></svg>