<svg xmlns="http://www.w3.org/2000/svg" xmlns:xlink="http://www.w3.org/1999/xlink" width="200" height="124" viewBox="0 0 200 124"><defs><style>.a{clip-path:url(#a);}.b{fill:#ec6741;}.c{fill:#fff;}</style><clipPath id="a"><path d="M200,116.706A7.36,7.36,0,0,1,192.58,124H7.418A7.358,7.358,0,0,1,0,116.706V7.292A7.358,7.358,0,0,1,7.418,0H192.58A7.359,7.359,0,0,1,200,7.292Z"/></clipPath></defs><g class="a"><rect class="b" width="213.804" height="138.04" transform="translate(-7.053 -7.019)"/></g><g class="a"><path class="c" d="M68.207,60.288h0l1.662-1.656h0l3.761-3.746a14.439,14.439,0,0,0-6.872,3.746h-10.1a.971.971,0,0,0-.973.971V71.782a.972.972,0,0,0,.973.971H68.9a.971.971,0,0,0,.973-.971V61.735l-1.662,1.657v7.7H57.353V60.288H65.3a14.338,14.338,0,0,0-2.518,5.4Z" transform="translate(-44.546 -43.967)"/><g transform="translate(36.205 17.614)"><path class="c" d="M254.176,90.174v8.845l-5.323-8.849h-1.808v10.837h1.393V92.16l5.325,8.848h1.808V90.174Z" transform="translate(-233.82 -89.844)"/><path class="c" d="M187.646,90.137v7.139a2.653,2.653,0,0,1-5.305,0V90.137h-1.393v7.139a4.047,4.047,0,0,0,8.093,0V90.137Z" transform="translate(-180.948 -89.818)"/><path class="c" d="M436.94,90.137v7.139a2.654,2.654,0,0,1-5.309,0V90.137h-1.394v7.139a4.049,4.049,0,0,0,8.1,0V90.137Z" transform="translate(-380.358 -89.818)"/><rect class="c" width="1.392" height="10.848" transform="translate(27.425 0.319)"/><path class="c" d="M502.337,91.514V90.13H496.4v10.835h5.938V99.577h-4.546V96.1h4.38V94.716h-4.38v-3.2Z" transform="translate(-433.282 -89.812)"/><path class="c" d="M358.81,98.444a5.7,5.7,0,0,0,1.806-4.168,5.777,5.777,0,1,0-3.039,5.055l2.4,1.407.705-1.194Zm-3.962-8.522a4.356,4.356,0,1,1-4.378,4.354A4.37,4.37,0,0,1,354.848,89.922Z" transform="translate(-315.437 -88.533)"/></g></g></svg>