<svg xmlns="http://www.w3.org/2000/svg" xmlns:xlink="http://www.w3.org/1999/xlink" width="200" height="124" viewBox="0 0 200 124"><defs><style>.a,.c{clip-path:url(#a);}.b{fill:#ec730a;}.c{opacity:0.2;}.d,.du{fill:#fff;}.e{clip-path:url(#d);}.f{fill:#858485;}.g{fill:#878686;}.h{fill:#898688;}.i{fill:#8a8789;}.j{fill:#8b8889;}.k{fill:#89898a;}.l{fill:#8a898b;}.m{fill:#8c8a8c;}.n{fill:#8c8b8c;}.o{fill:#8e8c8d;}.p{fill:#8d8b8e;}.q{fill:#8f8d8e;}.r{fill:#908d90;}.s{fill:#918f90;}.t{fill:#909091;}.u{fill:#929193;}.v{fill:#959294;}.w{fill:#959495;}.x{fill:#969596;}.y{fill:#979697;}.z{fill:#979798;}.aa{fill:#999799;}.ab{fill:#99989a;}.ac{fill:#9a9999;}.ad{fill:#9a999a;}.ae{fill:#9c9a9c;}.af{fill:#9d9c9d;}.ag{fill:#9d9d9e;}.ah{fill:#9f9d9f;}.ai{fill:#9f9e9f;}.aj{fill:#a09f9f;}.ak{fill:#a1a0a0;}.al{fill:#a19fa0;}.am{fill:#a1a0a1;}.an{fill:#a2a0a2;}.ao{fill:#a2a1a2;}.ap{fill:#a3a1a3;}.aq{fill:#a4a3a3;}.ar{fill:#a6a4a5;}.as{fill:#a6a5a7;}.at{fill:#aba7a8;}.au{fill:#acabac;}.av{fill:#adabae;}.aw{fill:#adadb0;}.ax{fill:#b3b1b3;}.ay{fill:#b4b1b1;}.az{fill:#b4b2b3;}.ba{fill:#b4b1b4;}.bb{fill:#b6b4b5;}.bc{fill:#b6b3b5;}.bd{fill:#b8b5b6;}.be{fill:#bab6b7;}.bf{fill:#bab7b8;}.bg{fill:#bab8b8;}.bh{fill:#bcb9ba;}.bi{fill:#bcbabb;}.bj{fill:#bbb8bb;}.bk{fill:#bbbabd;}.bl{fill:#bcbbbd;}.bm{fill:#bcbcbd;}.bn{fill:#bfbec0;}.bo{fill:#c0bfbf;}.bp{fill:#c0bec1;}.bq{fill:#c2bfc1;}.br{fill:#c3c0c3;}.bs{fill:#c3c2c3;}.bt{fill:#c3c2c4;}.bu{fill:#c6c3c6;}.bv{fill:#c4c3c4;}.bw{fill:#c6c4c7;}.bx{fill:#c7c5c7;}.by{fill:#c9c6c8;}.bz{fill:#c9c7c9;}.ca{fill:#cbc7c9;}.cb{fill:#c9c8ca;}.cc{fill:#ccc9cb;}.cd{fill:#cccacc;}.ce{fill:#cccbcd;}.cf{fill:#cdcbcd;}.cg{fill:#cdccce;}.ch{fill:#ceccce;}.ci{fill:#cececf;}.cj{fill:#cfcfce;}.ck{fill:#d0cfd0;}.cl{fill:#d1d0d0;}.cm{fill:#d2d1d1;}.cn{fill:#d2d2d3;}.co{fill:#d4d3d5;}.cp{fill:#d7d7d6;}.cq{fill:#d7d4d6;}.cr{fill:#d8d8d8;}.cs{fill:#d8d8da;}.ct{fill:#d9d9da;}.cu{fill:#dbd9da;}.cv{fill:#dbdadb;}.cw{fill:#dbdadd;}.cx{fill:#dcdcdc;}.cy{fill:#dcdddd;}.cz{fill:#dcdcdd;}.da{fill:#dcdddf;}.db{fill:#dfdedf;}.dc{fill:#e0dfe0;}.dd{fill:#e2e0e1;}.de{fill:#e1e0e2;}.df{fill:#e2e1e2;}.dg{fill:#e3e3e4;}.dh{fill:#e4e4e5;}.di{fill:#e4e5e6;}.dj{fill:#e6e5e7;}.dk{fill:#e7e6e7;}.dl{fill:#e7e8e9;}.dm{fill:#e7e7e8;}.dn{fill:#e8e9ea;}.do{fill:#e9e9ea;}.dp{fill:#eaeaeb;}.dq{fill:#ebebed;}.dr{fill:#edeced;}.ds{fill:#a8a6a8;}.dt{fill:#9f9ea1;}.du{fill-rule:evenodd;}</style><clipPath id="a"><path d="M200,116.707A7.358,7.358,0,0,1,192.581,124H7.419A7.358,7.358,0,0,1,0,116.707V7.293A7.357,7.357,0,0,1,7.419,0H192.581A7.357,7.357,0,0,1,200,7.293V116.707Z"/></clipPath><clipPath id="d"><path d="M96.271,207.4a2.448,2.448,0,0,0-2.628,2.216v13.308a2.449,2.449,0,0,0,2.628,2.217h15.772a2.45,2.45,0,0,0,2.629-2.217V209.612a2.449,2.449,0,0,0-2.629-2.216Z" transform="translate(-93.643 -207.396)"/></clipPath></defs><g class="a"><rect class="b" width="226.19" height="147.175" transform="translate(-11.647 -8.568)"/></g><g class="c"><path class="d" d="M-96.736,17.989h40.074L-96.837-21.959Zm5.23-69.293,69.687,69.293V-16.658L-56.662-51.3Z" transform="translate(77.469 41.101)"/><path class="d" d="M278.183-51.3v34.646L313.027-51.3Zm69.687,0L278.183,17.989h34.844L347.87-16.658V-51.3Z" transform="translate(-222.546 41.101)"/><path class="d" d="M-57.111,366.421h34.844V331.775Zm0-69.293L-96.7,336.5l-.7,35.338,75.131-74.706Z" transform="translate(77.919 -238.038)"/><path class="d" d="M278.183,297.128v34.646l34.843,34.647H347.87Zm69.687,0H313.027l34.844,34.646Z" transform="translate(-222.546 -238.038)"/><path class="d" d="M626.617,17.989H661.46L626.616-16.658Zm0-69.293L696.3,17.989V-16.658L661.46-51.3Z" transform="translate(-501.292 41.101)"/><path class="d" d="M974.979-51.3v34.646L1009.823-51.3Zm0,69.292" transform="translate(-779.981 41.101)"/><path class="d" d="M696.3,297.129H661.46l-34.844,34.646v34.647Zm0,69.292V331.775L661.46,366.422Z" transform="translate(-501.292 -238.039)"/><path class="d" d="M974.982,297.128v34.646l34.844,34.646m0-69.293" transform="translate(-779.984 -238.038)"/></g><g class="a"><g transform="translate(18.729 41.245)"><g class="e"><path class="f" d="M62.532,167.607l-13.09,19.7v-19.7Z" transform="translate(-58.282 -175.52)"/></g><g class="e"><path class="f" d="M62.657,167.607,49.441,187.5v-.189l13.091-19.7Z" transform="translate(-58.281 -175.52)"/></g><g class="e"><path class="g" d="M62.783,167.607,49.442,187.689V187.5l13.216-19.893Z" transform="translate(-58.282 -175.52)"/></g><g class="e"><path class="g" d="M62.908,167.607l-13.467,20.27v-.189l13.342-20.082Z" transform="translate(-58.281 -175.52)"/></g><g class="e"><path class="h" d="M63.034,167.607l-13.592,20.46v-.189l13.467-20.27Z" transform="translate(-58.282 -175.52)"/></g><g class="e"><path class="i" d="M63.159,167.607,49.441,188.255v-.189l13.593-20.46Z" transform="translate(-58.281 -175.52)"/></g><g class="e"><path class="j" d="M63.285,167.607,49.442,188.444v-.189L63.16,167.607Z" transform="translate(-58.282 -175.52)"/></g><g class="e"><path class="k" d="M63.41,167.607,49.441,188.633v-.189l13.843-20.837Z" transform="translate(-58.281 -175.52)"/></g><g class="e"><path class="l" d="M63.536,167.607,49.442,188.822v-.189l13.969-21.026Z" transform="translate(-58.282 -175.52)"/></g><g class="e"><path class="m" d="M63.661,167.607l-14.22,21.4v-.189l14.095-21.215Z" transform="translate(-58.281 -175.52)"/></g><g class="e"><path class="n" d="M63.788,167.607,49.442,189.2v-.189l14.22-21.4Z" transform="translate(-58.282 -175.52)"/></g><g class="e"><path class="o" d="M63.912,167.607,49.441,189.389V189.2l14.346-21.593Z" transform="translate(-58.281 -175.52)"/></g><g class="e"><path class="p" d="M64.039,167.607l-14.6,21.971v-.189l14.471-21.782Z" transform="translate(-58.282 -175.52)"/></g><g class="e"><path class="q" d="M64.163,167.607l-14.722,22.16v-.189l14.6-21.971Z" transform="translate(-58.281 -175.52)"/></g><g class="e"><path class="r" d="M64.29,167.607,49.442,189.956v-.189l14.722-22.16Z" transform="translate(-58.282 -175.52)"/></g><g class="e"><path class="s" d="M64.414,167.607,49.441,190.145v-.189l14.848-22.349Z" transform="translate(-58.281 -175.52)"/></g><g class="e"><path class="t" d="M64.541,167.607l-15.1,22.726v-.189l14.973-22.538Z" transform="translate(-58.282 -175.52)"/></g><g class="e"><path class="u" d="M64.665,167.607,49.441,190.522v-.189l15.1-22.726Z" transform="translate(-58.281 -175.52)"/></g><g class="e"><path class="v" d="M64.792,167.607l-15.35,23.1v-.189l15.224-22.915Z" transform="translate(-58.282 -175.52)"/></g><g class="e"><path class="w" d="M64.916,167.607,49.441,190.9v-.189l15.35-23.1Z" transform="translate(-58.281 -175.52)"/></g><g class="e"><path class="w" d="M65.043,167.607l-15.6,23.482V190.9l15.475-23.293Z" transform="translate(-58.282 -175.52)"/></g><g class="e"><path class="x" d="M65.167,167.607,49.441,191.278v-.189l15.6-23.482Z" transform="translate(-58.281 -175.52)"/></g><g class="e"><path class="y" d="M65.294,167.607l-15.852,23.86v-.189l15.726-23.671Z" transform="translate(-58.282 -175.52)"/></g><g class="e"><path class="y" d="M65.418,167.607,49.441,191.656v-.189l15.852-23.86Z" transform="translate(-58.281 -175.52)"/></g><g class="e"><path class="z" d="M65.545,167.607l-16.1,24.238v-.189l15.977-24.049Z" transform="translate(-58.282 -175.52)"/></g><g class="e"><path class="aa" d="M65.669,167.607,49.441,192.034v-.189l16.1-24.238Z" transform="translate(-58.281 -175.52)"/></g><g class="e"><path class="ab" d="M65.8,167.607,49.442,192.223v-.189L65.67,167.607Z" transform="translate(-58.282 -175.52)"/></g><g class="e"><path class="ac" d="M65.92,167.607l-16.479,24.8v-.189l16.354-24.616Z" transform="translate(-58.281 -175.52)"/></g><g class="e"><path class="ad" d="M66.047,167.607,49.442,192.6v-.189l16.479-24.8Z" transform="translate(-58.282 -175.52)"/></g><g class="e"><path class="ae" d="M66.171,167.607,49.441,192.79V192.6l16.6-24.993Z" transform="translate(-58.281 -175.52)"/></g><g class="e"><path class="af" d="M66.3,167.607,49.442,192.978v-.189l16.73-25.183Z" transform="translate(-58.282 -175.52)"/></g><g class="e"><path class="af" d="M66.422,167.607l-16.981,25.56v-.189L66.3,167.607Z" transform="translate(-58.281 -175.52)"/></g><g class="e"><path class="ag" d="M66.549,167.607,49.442,193.356v-.189l16.981-25.56Z" transform="translate(-58.282 -175.52)"/></g><g class="e"><path class="ah" d="M66.673,167.607,49.441,193.545v-.189l17.107-25.749Z" transform="translate(-58.281 -175.52)"/></g><g class="e"><path class="ai" d="M66.8,167.607,49.442,193.734v-.189l17.232-25.938Z" transform="translate(-58.282 -175.52)"/></g><g class="e"><path class="aj" d="M66.924,167.607,49.441,193.923v-.189L66.8,167.607Z" transform="translate(-58.281 -175.52)"/></g><g class="e"><path class="ak" d="M67.051,167.607l-17.609,26.5v-.189l17.483-26.316Z" transform="translate(-58.282 -175.52)"/></g><g class="e"><path class="al" d="M67.175,167.607,49.441,194.3v-.189l17.609-26.5Z" transform="translate(-58.281 -175.52)"/></g><g class="e"><path class="am" d="M67.3,167.607,49.442,194.49V194.3l17.734-26.694Z" transform="translate(-58.282 -175.52)"/></g><g class="e"><path class="an" d="M67.426,167.607,49.441,194.679v-.189L67.3,167.607Z" transform="translate(-58.281 -175.52)"/></g><g class="e"><path class="an" d="M67.553,167.607l-18.111,27.26v-.189l17.985-27.072Z" transform="translate(-58.282 -175.52)"/></g><g class="e"><path class="ao" d="M67.677,167.607,49.441,195.056v-.189l18.111-27.26Z" transform="translate(-58.281 -175.52)"/></g><g class="e"><path class="an" d="M67.8,167.607,49.442,195.245v-.189l18.236-27.449Z" transform="translate(-58.282 -175.52)"/></g><g class="e"><path class="ap" d="M67.928,167.607,49.441,195.434v-.189L67.8,167.607Z" transform="translate(-58.281 -175.52)"/></g><g class="e"><path class="aq" d="M68.055,167.607,49.442,195.623v-.189l18.487-27.827Z" transform="translate(-58.282 -175.52)"/></g><g class="e"><path class="ar" d="M68.179,167.607l-18.738,28.2v-.189l18.613-28.016Z" transform="translate(-58.281 -175.52)"/></g><g class="e"><path class="ar" d="M68.306,167.607,49.442,196v-.189l18.738-28.2Z" transform="translate(-58.282 -175.52)"/></g><g class="e"><path class="as" d="M68.43,167.607,49.441,196.19V196L68.3,167.607Z" transform="translate(-58.281 -175.52)"/></g><g class="e"><path class="at" d="M68.557,167.607,49.442,196.379v-.189l18.989-28.583Z" transform="translate(-58.282 -175.52)"/></g><g class="e"><path class="au" d="M68.681,167.607l-19.24,28.961v-.189l19.115-28.772Z" transform="translate(-58.281 -175.52)"/></g><g class="e"><path class="av" d="M68.808,167.607l-19.366,29.15v-.189l19.24-28.961Z" transform="translate(-58.282 -175.52)"/></g><g class="e"><path class="aw" d="M68.932,167.607,49.441,196.945v-.189l19.366-29.15Z" transform="translate(-58.281 -175.52)"/></g><g class="e"><path class="ax" d="M69.059,167.607,49.442,197.134v-.189l19.491-29.338Z" transform="translate(-58.282 -175.52)"/></g><g class="e"><path class="ay" d="M69.183,167.607,49.441,197.323v-.189l19.617-29.527Z" transform="translate(-58.281 -175.52)"/></g><g class="e"><path class="az" d="M69.31,167.607,49.442,197.512v-.189l19.742-29.716Z" transform="translate(-58.282 -175.52)"/></g><g class="e"><path class="ba" d="M69.434,167.607,49.441,197.7v-.189l19.868-29.905Z" transform="translate(-58.281 -175.52)"/></g><g class="e"><path class="bb" d="M69.561,167.607,49.442,197.89V197.7l19.993-30.094Z" transform="translate(-58.282 -175.52)"/></g><g class="e"><path class="bc" d="M69.685,167.607,49.441,198.079v-.189L69.56,167.607Z" transform="translate(-58.281 -175.52)"/></g><g class="e"><path class="bc" d="M69.812,167.607l-20.37,30.661v-.189l20.244-30.472Z" transform="translate(-58.282 -175.52)"/></g><g class="e"><path class="bd" d="M69.936,167.607l-20.5,30.85v-.189l20.37-30.661Z" transform="translate(-58.281 -175.52)"/></g><g class="e"><path class="be" d="M70.063,167.607,49.442,198.646v-.189l20.5-30.85Z" transform="translate(-58.282 -175.52)"/></g><g class="e"><path class="bf" d="M70.187,167.607,49.441,198.835v-.189l20.621-31.039Z" transform="translate(-58.281 -175.52)"/></g><g class="e"><path class="bg" d="M70.314,167.607,49.442,199.023v-.189l20.746-31.228Z" transform="translate(-58.282 -175.52)"/></g><g class="e"><path class="bh" d="M70.438,167.607l-21,31.606v-.189l20.872-31.416Z" transform="translate(-58.281 -175.52)"/></g><g class="e"><path class="bi" d="M70.565,167.607,49.442,199.4v-.189l21-31.606Z" transform="translate(-58.282 -175.52)"/></g><g class="e"><path class="bj" d="M70.689,167.607,49.441,199.59V199.4l21.123-31.794Z" transform="translate(-58.281 -175.52)"/></g><g class="e"><path class="bk" d="M70.816,167.607,49.442,199.779v-.189L70.69,167.607Z" transform="translate(-58.282 -175.52)"/></g><g class="e"><path class="bl" d="M70.941,167.607l-21.5,32.361v-.189l21.374-32.172Z" transform="translate(-58.281 -175.52)"/></g><g class="e"><path class="bm" d="M71.067,167.607l-21.625,32.55v-.189l21.5-32.361Z" transform="translate(-58.282 -175.52)"/></g><g class="e"><path class="bn" d="M71.192,167.607l-21.73,32.708-.02-.01v-.148l21.625-32.55Z" transform="translate(-58.281 -175.52)"/></g><g class="e"><path class="bo" d="M71.4,167.607,49.638,200.363l-.094-.048,21.73-32.708Z" transform="translate(-58.364 -175.52)"/></g><g class="e"><path class="bp" d="M71.9,167.607l-21.793,32.8-.094-.047,21.761-32.756Z" transform="translate(-58.741 -175.52)"/></g><g class="e"><path class="bq" d="M72.4,167.607l-21.824,32.85-.094-.048,21.793-32.8Z" transform="translate(-59.117 -175.52)"/></g><g class="e"><path class="br" d="M72.9,167.607,51.049,200.5l-.094-.047,21.824-32.85Z" transform="translate(-59.493 -175.52)"/></g><g class="e"><path class="bs" d="M73.407,167.607,51.52,200.551l-.094-.047,21.855-32.9Z" transform="translate(-59.869 -175.52)"/></g><g class="e"><path class="bt" d="M73.909,167.607,51.99,200.6l-.094-.047,21.887-32.944Z" transform="translate(-60.245 -175.52)"/></g><g class="e"><path class="bu" d="M74.41,167.607,52.46,200.646l-.094-.047,21.919-32.992Z" transform="translate(-60.621 -175.52)"/></g><g class="e"><path class="bv" d="M74.914,167.607,52.933,200.693l-.094-.047,21.949-33.039Z" transform="translate(-61 -175.52)"/></g><g class="e"><path class="bw" d="M75.415,167.607,53.4,200.74l-.094-.048L75.29,167.607Z" transform="translate(-61.376 -175.52)"/></g><g class="e"><path class="bx" d="M75.918,167.607,53.874,200.788l-.094-.047,22.012-33.133Z" transform="translate(-61.753 -175.52)"/></g><g class="e"><path class="by" d="M76.419,167.607,54.344,200.835l-.094-.047,22.044-33.181Z" transform="translate(-62.129 -175.52)"/></g><g class="e"><path class="bz" d="M76.921,167.607,54.814,200.882l-.094-.047L76.8,167.607Z" transform="translate(-62.505 -175.52)"/></g><g class="e"><path class="ca" d="M77.423,167.607,55.285,200.929l-.094-.047L77.3,167.607Z" transform="translate(-62.881 -175.52)"/></g><g class="e"><path class="cb" d="M77.925,167.607l-22.169,33.37-.094-.048L77.8,167.607Z" transform="translate(-63.257 -175.52)"/></g><g class="e"><path class="cc" d="M78.428,167.607l-22.2,33.416-.094-.047L78.3,167.607Z" transform="translate(-63.636 -175.52)"/></g><g class="e"><path class="cd" d="M78.931,167.607,56.7,201.071l-.094-.047,22.2-33.416Z" transform="translate(-64.013 -175.52)"/></g><g class="e"><path class="ce" d="M79.432,167.607,57.169,201.118l-.094-.048,22.232-33.464Z" transform="translate(-64.389 -175.52)"/></g><g class="e"><path class="cf" d="M79.934,167.607,57.639,201.165l-.094-.047,22.264-33.511Z" transform="translate(-64.765 -175.52)"/></g><g class="e"><path class="cg" d="M80.435,167.607l-22.3,33.568h-.1l-.019-.01L80.31,167.607Z" transform="translate(-65.141 -175.52)"/></g><g class="e"><path class="ch" d="M81.038,167.607l-22.3,33.568h-.126l22.3-33.568Z" transform="translate(-65.617 -175.52)"/></g><g class="e"><path class="ci" d="M81.665,167.607l-22.3,33.568h-.126l22.3-33.568Z" transform="translate(-66.119 -175.52)"/></g><g class="e"><path class="cj" d="M82.293,167.607l-22.3,33.568h-.126l22.3-33.568Z" transform="translate(-66.621 -175.52)"/></g><g class="e"><path class="ck" d="M82.92,167.607l-22.3,33.568h-.126l22.3-33.568Z" transform="translate(-67.123 -175.52)"/></g><g class="e"><path class="cl" d="M83.547,167.607l-22.3,33.568H61.12l22.3-33.568Z" transform="translate(-67.625 -175.52)"/></g><g class="e"><path class="cm" d="M84.175,167.607l-22.3,33.568h-.126l22.3-33.568Z" transform="translate(-68.127 -175.52)"/></g><g class="e"><path class="cn" d="M84.8,167.607,62.5,201.175h-.126l22.3-33.568Z" transform="translate(-68.629 -175.52)"/></g><g class="e"><path class="co" d="M85.43,167.607l-22.3,33.568H63l22.3-33.568Z" transform="translate(-69.131 -175.52)"/></g><g class="e"><path class="cp" d="M86.058,167.607l-22.3,33.568h-.126l22.3-33.568Z" transform="translate(-69.633 -175.52)"/></g><g class="e"><path class="cq" d="M86.685,167.607l-22.3,33.568h-.126l22.3-33.568Z" transform="translate(-70.135 -175.52)"/></g><g class="e"><path class="cr" d="M87.313,167.607l-22.3,33.568h-.126l22.3-33.568Z" transform="translate(-70.637 -175.52)"/></g><g class="e"><path class="cs" d="M87.94,167.607l-22.3,33.568h-.126l22.3-33.568Z" transform="translate(-71.139 -175.52)"/></g><g class="e"><path class="cs" d="M88.568,167.607l-22.3,33.568h-.126l22.3-33.568Z" transform="translate(-71.641 -175.52)"/></g><g class="e"><path class="ct" d="M89.195,167.607l-22.3,33.568h-.126l22.3-33.568Z" transform="translate(-72.143 -175.52)"/></g><g class="e"><path class="ct" d="M90.008,167.607l-22.3,33.568h-.312l22.3-33.568Z" transform="translate(-72.645 -175.52)"/></g><g class="e"><path class="cu" d="M91.569,167.607l-22.3,33.568h-.313l22.3-33.568Z" transform="translate(-73.893 -175.52)"/></g><g class="e"><path class="cv" d="M93.129,167.607l-22.3,33.568h-.313l22.3-33.568Z" transform="translate(-75.141 -175.52)"/></g><g class="e"><path class="cw" d="M94.689,167.607l-22.3,33.568h-.312l22.3-33.568Z" transform="translate(-76.389 -175.52)"/></g><g class="e"><path class="cx" d="M96.25,167.607l-22.3,33.568h-.313l22.3-33.568Z" transform="translate(-77.637 -175.52)"/></g><g class="e"><path class="cy" d="M97.81,167.607l-22.3,33.568H75.2l22.3-33.568Z" transform="translate(-78.886 -175.52)"/></g><g class="e"><path class="cz" d="M99.37,167.607l-22.3,33.568h-.313l22.3-33.568Z" transform="translate(-80.134 -175.52)"/></g><g class="e"><path class="da" d="M100.931,167.607l-22.3,33.568h-.313l22.3-33.568Z" transform="translate(-81.382 -175.52)"/></g><g class="e"><path class="db" d="M102.491,167.607l-22.3,33.568h-.312l22.3-33.568Z" transform="translate(-82.631 -175.52)"/></g><g class="e"><path class="dc" d="M104.051,167.607l-22.3,33.568h-.313l22.3-33.568Z" transform="translate(-83.879 -175.52)"/></g><g class="e"><path class="dd" d="M105.612,167.607l-22.3,33.568H83l22.3-33.568Z" transform="translate(-85.128 -175.52)"/></g><g class="e"><path class="de" d="M107.172,167.607l-22.3,33.568h-.312l22.3-33.568Z" transform="translate(-86.376 -175.52)"/></g><g class="e"><path class="df" d="M108.732,167.607l-22.3,33.568h-.313l22.3-33.568Z" transform="translate(-87.624 -175.52)"/></g><g class="e"><path class="dg" d="M110.293,167.607l-22.3,33.568h-.313l22.3-33.568Z" transform="translate(-88.872 -175.52)"/></g><g class="e"><path class="dh" d="M111.855,167.607l-22.3,33.568h-.312l22.3-33.568Z" transform="translate(-90.122 -175.52)"/></g><g class="e"><path class="di" d="M113.414,167.607l-22.3,33.568H90.8l22.3-33.568Z" transform="translate(-91.369 -175.52)"/></g><g class="e"><path class="dj" d="M114.974,167.607l-22.3,33.568H92.36l22.3-33.568Z" transform="translate(-92.617 -175.52)"/></g><g class="e"><path class="dk" d="M116.534,167.607l-22.3,33.568h-.312l22.3-33.568Z" transform="translate(-93.865 -175.52)"/></g><g class="e"><path class="dl" d="M118.095,167.607l-22.3,33.568h-.312l22.3-33.568Z" transform="translate(-95.113 -175.52)"/></g><g class="e"><path class="dm" d="M119.655,167.607l-22.3,33.568h-.313l22.3-33.568Z" transform="translate(-96.361 -175.52)"/></g><g class="e"><path class="dn" d="M121.215,167.607l-22.3,33.568H98.6l22.3-33.568Z" transform="translate(-97.61 -175.52)"/></g><g class="e"><path class="dn" d="M122.776,167.607l-22.3,33.568h-.313l22.3-33.568Z" transform="translate(-98.858 -175.52)"/></g><g class="e"><path class="do" d="M124.336,167.607l-22.3,33.568h-.313l22.3-33.568Z" transform="translate(-100.106 -175.52)"/></g><g class="e"><path class="dp" d="M125.9,167.607l-22.3,33.568h-.312l22.3-33.568Z" transform="translate(-101.355 -175.52)"/></g><g class="e"><path class="dq" d="M127.457,167.607l-22.3,33.568h-.313l22.3-33.568Z" transform="translate(-102.603 -175.52)"/></g><g class="e"><path class="dr" d="M129.017,167.607l-22.3,33.568H106.4l22.3-33.568Z" transform="translate(-103.852 -175.52)"/></g><g class="e"><path class="dr" d="M130.383,167.607l-22.3,33.568h-.117l22.3-33.568Z" transform="translate(-105.101 -175.52)"/></g><g class="e"><path class="dp" d="M130.966,167.607l-22.3,33.568h-.117l22.3-33.568Z" transform="translate(-105.567 -175.52)"/></g><g class="e"><path class="do" d="M131.55,167.607l-22.3,33.568h-.117l22.3-33.568Z" transform="translate(-106.034 -175.52)"/></g><g class="e"><path class="dn" d="M132.133,167.607l-22.3,33.568h-.117l22.3-33.568Z" transform="translate(-106.501 -175.52)"/></g><g class="e"><path class="dl" d="M132.716,167.607l-22.3,33.568H110.3l22.3-33.568Z" transform="translate(-106.967 -175.52)"/></g><g class="e"><path class="dk" d="M133.3,167.607,111,201.175h-.117l22.3-33.568Z" transform="translate(-107.433 -175.52)"/></g><g class="e"><path class="di" d="M133.883,167.607l-22.3,33.568h-.117l22.3-33.568Z" transform="translate(-107.901 -175.52)"/></g><g class="e"><path class="dh" d="M134.466,167.607l-22.3,33.568h-.117l22.3-33.568Z" transform="translate(-108.367 -175.52)"/></g><g class="e"><path class="df" d="M135.049,167.607l-22.3,33.568h-.117l22.3-33.568Z" transform="translate(-108.833 -175.52)"/></g><g class="e"><path class="de" d="M135.633,167.607l-22.3,33.568h-.117l22.3-33.568Z" transform="translate(-109.301 -175.52)"/></g><g class="e"><path class="dc" d="M136.216,167.607l-22.3,33.568H113.8l22.3-33.568Z" transform="translate(-109.767 -175.52)"/></g><g class="e"><path class="db" d="M136.8,167.607l-22.3,33.568h-.117l22.3-33.568Z" transform="translate(-110.233 -175.52)"/></g><g class="e"><path class="da" d="M137.383,167.607l-22.3,33.568h-.117l22.3-33.568Z" transform="translate(-110.701 -175.52)"/></g><g class="e"><path class="cy" d="M137.966,167.607l-22.3,33.568h-.117l22.3-33.568Z" transform="translate(-111.167 -175.52)"/></g><g class="e"><path class="cx" d="M138.549,167.607l-22.3,33.568h-.117l22.3-33.568Z" transform="translate(-111.633 -175.52)"/></g><g class="e"><path class="cw" d="M139.133,167.607l-22.3,33.568h-.117l22.3-33.568Z" transform="translate(-112.101 -175.52)"/></g><g class="e"><path class="cu" d="M139.716,167.607l-22.3,33.568H117.3l22.3-33.568Z" transform="translate(-112.567 -175.52)"/></g><g class="e"><path class="ct" d="M140.3,167.607,118,201.175h-.117l22.3-33.568Z" transform="translate(-113.034 -175.52)"/></g><g class="e"><path class="cs" d="M140.883,167.607l-22.3,33.568h-.117l22.3-33.568Z" transform="translate(-113.501 -175.52)"/></g><g class="e"><path class="cr" d="M141.466,167.607l-22.3,33.568h-.117l22.3-33.568Z" transform="translate(-113.967 -175.52)"/></g><g class="e"><path class="cp" d="M142.05,167.607l-22.3,33.568h-.117l22.3-33.568Z" transform="translate(-114.434 -175.52)"/></g><g class="e"><path class="co" d="M142.633,167.607l-22.3,33.568h-.117l22.3-33.568Z" transform="translate(-114.901 -175.52)"/></g><g class="e"><path class="cm" d="M143.216,167.607l-22.3,33.568H120.8l22.3-33.568Z" transform="translate(-115.367 -175.52)"/></g><g class="e"><path class="cl" d="M143.8,167.607l-22.3,33.568h-.117l22.3-33.568Z" transform="translate(-115.833 -175.52)"/></g><g class="e"><path class="ck" d="M144.383,167.607l-22.3,33.568h-.117l22.3-33.568Z" transform="translate(-116.301 -175.52)"/></g><g class="e"><path class="ci" d="M144.9,167.607l.047.024-22.285,33.544h-.116l22.3-33.568Z" transform="translate(-116.768 -175.52)"/></g><g class="e"><path class="ch" d="M145.417,167.727l.087.044-22.256,33.5h-.116Z" transform="translate(-117.234 -175.616)"/></g><g class="e"><path class="cf" d="M145.971,167.948l.087.044-22.227,33.456h-.117Z" transform="translate(-117.701 -175.793)"/></g><g class="e"><path class="ce" d="M146.525,168.169l.087.044-22.2,33.413H124.3Z" transform="translate(-118.167 -175.97)"/></g><g class="e"><path class="cd" d="M147.079,168.39l.087.044L125,201.8h-.117Z" transform="translate(-118.633 -176.147)"/></g><g class="e"><path class="cc" d="M147.633,168.611l.087.044-22.139,33.325h-.117Z" transform="translate(-119.1 -176.324)"/></g><g class="e"><path class="ca" d="M148.189,168.831l.087.044-22.11,33.281h-.116Z" transform="translate(-119.569 -176.5)"/></g><g class="e"><path class="bz" d="M148.743,169.052l.087.044-22.081,33.237h-.116Z" transform="translate(-120.035 -176.678)"/></g><g class="e"><path class="by" d="M149.3,169.273l.087.044L127.333,202.51h-.117Z" transform="translate(-120.501 -176.855)"/></g><g class="e"><path class="bw" d="M149.851,169.493l.087.044-22.023,33.149H127.8Z" transform="translate(-120.968 -177.031)"/></g><g class="e"><path class="bv" d="M150.4,169.714l.087.044L128.5,202.863h-.117Z" transform="translate(-121.434 -177.208)"/></g><g class="e"><path class="bu" d="M150.96,169.935l.087.044L129.082,203.04h-.116Z" transform="translate(-121.901 -177.385)"/></g><g class="e"><path class="bt" d="M151.513,170.156l.087.044-21.935,33.017h-.116Z" transform="translate(-122.368 -177.562)"/></g><g class="e"><path class="br" d="M152.067,170.376l.087.044-21.906,32.974h-.117Z" transform="translate(-122.834 -177.738)"/></g><g class="e"><path class="bq" d="M152.621,170.6l.087.044-21.877,32.93h-.117Z" transform="translate(-123.301 -177.915)"/></g><g class="e"><path class="bp" d="M153.175,170.818l.087.044-21.847,32.886H131.3Z" transform="translate(-123.767 -178.092)"/></g><g class="e"><path class="bo" d="M153.729,171.039l.087.044L132,203.924h-.117Z" transform="translate(-124.233 -178.269)"/></g><g class="e"><path class="bn" d="M154.285,171.26l.087.044-21.789,32.8h-.117Z" transform="translate(-124.701 -178.446)"/></g><g class="e"><path class="bl" d="M154.838,171.48l.087.044-21.76,32.754h-.117Z" transform="translate(-125.168 -178.623)"/></g><g class="e"><path class="bk" d="M155.393,171.7l.087.044-21.731,32.71h-.116Z" transform="translate(-125.635 -178.8)"/></g><g class="e"><path class="bj" d="M155.947,171.922l.024.012v.128l-21.638,32.57h-.116Z" transform="translate(-126.101 -178.977)"/></g><g class="e"><path class="bi" d="M156.437,172.8,134.915,205.2H134.8l21.638-32.57Z" transform="translate(-126.568 -179.54)"/></g><g class="e"><path class="bh" d="M156.9,173.684,135.5,205.9h-.117L156.9,173.509Z" transform="translate(-127.033 -180.248)"/></g><g class="e"><path class="bg" d="M157.371,174.567,136.083,206.61h-.117l21.4-32.219Z" transform="translate(-127.501 -180.955)"/></g><g class="e"><path class="bf" d="M157.837,175.45l-21.172,31.867h-.116l21.288-32.043Z" transform="translate(-127.968 -181.663)"/></g><g class="e"><path class="be" d="M158.3,176.334l-21.055,31.692h-.117L158.3,176.158Z" transform="translate(-128.433 -182.37)"/></g><g class="e"><path class="bd" d="M158.771,177.216l-20.938,31.516h-.116l21.055-31.692Z" transform="translate(-128.901 -183.078)"/></g><g class="e"><path class="bc" d="M159.236,178.1,138.415,209.44H138.3l20.938-31.516Z" transform="translate(-129.367 -183.785)"/></g><g class="e"><path class="bb" d="M159.7,178.983,139,210.148h-.117L159.7,178.807Z" transform="translate(-129.835 -184.493)"/></g><g class="e"><path class="ba" d="M160.171,179.865l-20.588,30.989h-.116l20.7-31.165Z" transform="translate(-130.301 -185.2)"/></g><g class="e"><path class="az" d="M160.636,180.749l-20.471,30.814h-.117l20.588-30.989Z" transform="translate(-130.767 -185.907)"/></g><g class="e"><path class="ay" d="M161.1,181.632,140.749,212.27h-.116L161.1,181.456Z" transform="translate(-131.235 -186.615)"/></g><g class="e"><path class="ax" d="M161.57,182.515l-20.238,30.463h-.117l20.355-30.638Z" transform="translate(-131.701 -187.322)"/></g><g class="e"><path class="aw" d="M162.038,183.4l-20.121,30.287H141.8l20.238-30.463Z" transform="translate(-132.169 -188.03)"/></g><g class="e"><path class="av" d="M162.5,184.281,142.5,214.392h-.116L162.5,184.1Z" transform="translate(-132.635 -188.737)"/></g><g class="e"><path class="av" d="M162.97,185.164,143.082,215.1h-.117l20-30.111Z" transform="translate(-133.1 -189.444)"/></g><g class="e"><path class="au" d="M163.438,186.047l-19.772,29.76h-.116l19.888-29.936Z" transform="translate(-133.569 -190.152)"/></g><g class="e"><path class="at" d="M163.9,186.93l-19.655,29.585h-.117l19.772-29.76Z" transform="translate(-134.034 -190.859)"/></g><g class="e"><path class="ds" d="M164.372,187.813l-19.538,29.409h-.116l19.655-29.585Z" transform="translate(-134.502 -191.566)"/></g><g class="e"><path class="as" d="M164.837,188.7,145.416,217.93H145.3l19.538-29.409Z" transform="translate(-134.968 -192.275)"/></g><g class="e"><path class="ar" d="M165.3,189.579,146,218.637h-.117L165.3,189.4Z" transform="translate(-135.434 -192.982)"/></g><g class="e"><path class="ar" d="M165.771,190.462l-19.188,28.882h-.117l19.3-29.058Z" transform="translate(-135.901 -193.689)"/></g><g class="e"><path class="aq" d="M166.237,191.345l-19.072,28.706h-.116l19.188-28.882Z" transform="translate(-136.368 -194.397)"/></g><g class="e"><path class="ap" d="M166.7,192.228l-18.955,28.531h-.117L166.7,192.053Z" transform="translate(-136.833 -195.104)"/></g><g class="e"><path class="ap" d="M167.171,193.111l-18.838,28.355h-.116l18.955-28.531Z" transform="translate(-137.301 -195.812)"/></g><g class="e"><path class="an" d="M167.636,193.995l-18.721,28.18H148.8l18.838-28.355Z" transform="translate(-137.767 -196.519)"/></g><g class="e"><path class="ao" d="M168.1,194.878l-18.6,28h-.117L168.1,194.7Z" transform="translate(-138.235 -197.226)"/></g><g class="e"><path class="an" d="M168.571,195.76l-18.488,27.829h-.116l18.6-28Z" transform="translate(-138.701 -197.934)"/></g><g class="e"><path class="an" d="M169.036,196.644,150.665,224.3h-.117l18.488-27.828Z" transform="translate(-139.167 -198.641)"/></g><g class="e"><path class="am" d="M169.5,197.526,151.249,225h-.116L169.5,197.351Z" transform="translate(-139.635 -199.349)"/></g><g class="e"><path class="al" d="M169.97,198.41l-18.138,27.3h-.117l18.255-27.477Z" transform="translate(-140.1 -200.056)"/></g><g class="e"><path class="dt" d="M170.438,199.293l-18.021,27.126H152.3l18.138-27.3Z" transform="translate(-140.568 -200.763)"/></g><g class="e"><path class="dt" d="M170.9,200.176,153,227.126h-.116L170.9,200Z" transform="translate(-141.035 -201.471)"/></g><g class="e"><path class="ak" d="M171.37,201.059l-17.788,26.775h-.117l17.9-26.951Z" transform="translate(-141.5 -202.178)"/></g><g class="e"><path class="aj" d="M171.838,201.942l-17.672,26.6h-.116l17.788-26.775Z" transform="translate(-141.968 -202.886)"/></g><g class="e"><path class="aj" d="M172.3,202.825l-17.555,26.423h-.117l17.672-26.6Z" transform="translate(-142.434 -203.593)"/></g><g class="e"><path class="ai" d="M172.772,203.708l-17.438,26.248h-.117l17.555-26.424Z" transform="translate(-142.902 -204.3)"/></g><g class="e"><path class="ah" d="M173.238,204.591l-17.322,26.072H155.8l17.438-26.248Z" transform="translate(-143.368 -205.008)"/></g><g class="e"><path class="ah" d="M173.7,205.474l-17.2,25.9h-.117L173.7,205.3Z" transform="translate(-143.834 -205.715)"/></g><g class="e"><path class="ag" d="M174.172,206.357l-17.088,25.721h-.116l17.2-25.9Z" transform="translate(-144.302 -206.423)"/></g><g class="e"><path class="ag" d="M174.637,207.24l-16.972,25.545h-.117l17.088-25.721Z" transform="translate(-144.768 -207.13)"/></g><g class="e"><path class="af" d="M175.1,208.123l-16.855,25.37h-.117L175.1,207.947Z" transform="translate(-145.234 -207.837)"/></g><g class="e"><path class="af" d="M175.571,209.006,158.833,234.2h-.117l16.855-25.37Z" transform="translate(-145.701 -208.546)"/></g><g class="e"><path class="af" d="M176.037,209.889l-16.621,25.019H159.3l16.738-25.194Z" transform="translate(-146.168 -209.253)"/></g><g class="e"><path class="af" d="M176.5,210.772,160,235.616h-.117L176.5,210.6Z" transform="translate(-146.635 -209.96)"/></g><g class="e"><path class="ae" d="M176.971,211.656l-16.388,24.667h-.116l16.5-24.843Z" transform="translate(-147.101 -210.668)"/></g><g class="e"><path class="ae" d="M177.436,212.539,161.165,237.03h-.117l16.388-24.667Z" transform="translate(-147.567 -211.375)"/></g><g class="e"><path class="ae" d="M177.9,213.421,161.75,237.738h-.117L177.9,213.246Z" transform="translate(-148.035 -212.083)"/></g><g class="e"><path class="ad" d="M178.371,214.3l-16.038,24.141h-.117l16.155-24.316Z" transform="translate(-148.501 -212.79)"/></g><g class="e"><path class="ad" d="M178.839,215.188l-15.921,23.965H162.8l16.038-24.141Z" transform="translate(-148.969 -213.497)"/></g><g class="e"><path class="ad" d="M179.3,216.071,163.5,239.86h-.117L179.3,215.9Z" transform="translate(-149.435 -214.205)"/></g><g class="e"><path class="ac" d="M179.771,216.954l-15.688,23.614h-.117l15.8-23.789Z" transform="translate(-149.901 -214.912)"/></g><g class="e"><path class="ac" d="M180.238,217.837l-15.571,23.438h-.117l15.688-23.614Z" transform="translate(-150.368 -215.62)"/></g><g class="e"><path class="ac" d="M180.7,218.72,165.25,241.982h-.117L180.7,218.544Z" transform="translate(-150.835 -216.327)"/></g><g class="e"><path class="ac" d="M181.172,219.6,165.834,242.69h-.117l15.455-23.263Z" transform="translate(-151.302 -217.034)"/></g><g class="e"><path class="ab" d="M181.638,220.486,166.416,243.4H166.3l15.338-23.087Z" transform="translate(-151.768 -217.742)"/></g><g class="e"><path class="ab" d="M182.1,221.369,167,244.1h-.117L182.1,221.193Z" transform="translate(-152.234 -218.449)"/></g><g class="e"><path class="ab" d="M167.466,244.812l15.1-22.736v22.736Z" transform="translate(-152.701 -219.157)"/></g></g><path class="aw" d="M111.745,224.943H95.973a2.522,2.522,0,0,1-2.7-2.282V209.353a2.521,2.521,0,0,1,2.7-2.281h15.772a2.521,2.521,0,0,1,2.7,2.281v13.308a2.522,2.522,0,0,1-2.7,2.282M95.973,207.2a2.382,2.382,0,0,0-2.554,2.152v13.308a2.383,2.383,0,0,0,2.554,2.154h15.772a2.383,2.383,0,0,0,2.554-2.154V209.353a2.382,2.382,0,0,0-2.554-2.152Z" transform="translate(-74.617 -165.891)"/><path class="ab" d="M108.14,234.334h-5.278l-1.356-2.261H94.585v-.161h7.034l1.355,2.261h5.166Z" transform="translate(-75.668 -185.791)"/><path class="ab" d="M147.868,250.527H143.1l-2.434-2.052h-5.3v-4.633h.185v4.472h5.186l2.434,2.052h4.693Z" transform="translate(-108.296 -195.349)"/><path class="ab" d="M161.761,239h-.185v-4.554l2.763-2.332h4.494v.161h-4.419l-2.653,2.239Z" transform="translate(-129.261 -185.95)"/><rect class="ab" width="7.225" height="0.161" transform="translate(32.408 50.192)"/><rect class="ab" width="8.207" height="0.161" transform="translate(18.94 50.398)"/><path class="ab" d="M100.128,268.422H94v-.161h6.05l2.252-1.825.127.118Z" transform="translate(-75.204 -213.45)"/><path class="aw" d="M107.479,233.024H102.2l-1.356-2.26h-6.7V230.6h6.814l1.356,2.26h5.165Z" transform="translate(-75.315 -184.743)"/><path class="aw" d="M146.591,249.225h-5.033l-.027-.023-2.407-2.031h-5.3v-4.63h.185v4.469H139.2l.027.023,2.407,2.031h4.958Z" transform="translate(-107.062 -194.307)"/><path class="aw" d="M160.219,237.68h-.185v-4.552L162.8,230.8h4.759v.161h-4.684l-2.653,2.24Z" transform="translate(-128.027 -184.897)"/><rect class="aw" width="7.49" height="0.161" transform="translate(32.1 49.932)"/><rect class="aw" width="7.962" height="0.161" transform="translate(18.895 50.137)"/><path class="aw" d="M99.468,267.108h-5.9v-.161H99.4l2.252-1.826.127.118Z" transform="translate(-74.853 -212.396)"/><rect class="ab" width="0.185" height="5.394" transform="translate(29.59 53.377)"/><rect class="aw" width="0.185" height="5.407" transform="translate(30.008 53.362)"/><rect class="ab" width="0.185" height="6.412" transform="translate(29.59 41.482)"/><rect class="aw" width="0.185" height="6.43" transform="translate(30.008 41.465)"/></g><g class="a"><path class="du" d="M241.951,224.125a.976.976,0,0,1-.6-.7c-.037-.2.008-.335.294-.884A13.8,13.8,0,0,0,243.3,215.8a13.581,13.581,0,0,0-1.546-6.492,6.743,6.743,0,0,1-.43-.989,1.006,1.006,0,0,1,.416-.717.946.946,0,0,1,1.033.072,4.856,4.856,0,0,1,.529.863,16.327,16.327,0,0,1,1.6,4.989,19.462,19.462,0,0,1,.066,4.148,16.245,16.245,0,0,1-1.513,5.085c-.472.971-.769,1.371-1.017,1.371a.738.738,0,0,0-.18.027.746.746,0,0,1-.3-.034Zm-3.21-1.67a.874.874,0,0,1-.591-1c.029-.091.223-.512.432-.935a10.387,10.387,0,0,0,1.071-5.6,10.058,10.058,0,0,0-1.131-3.956c-.472-.959-.494-1.108-.219-1.494a.9.9,0,0,1,1.254-.115,11.477,11.477,0,0,1,1.259,2.615,12.356,12.356,0,0,1-.409,8.77c-.618,1.444-1.053,1.891-1.666,1.713Zm-3.31-1.694a1,1,0,0,1-.534-.653c-.036-.165.026-.347.329-.957a6.982,6.982,0,0,0,.037-6.583c-.477-.961-.488-1.152-.084-1.531a.638.638,0,0,1,.564-.22c.469,0,.713.234,1.132,1.091a8.277,8.277,0,0,1,.907,3.926,7.953,7.953,0,0,1-.939,3.929c-.395.8-.59,1.006-.985,1.06a.927.927,0,0,1-.427-.063Zm-3.089-1.577a1.037,1.037,0,0,1-.5-.594c-.077-.266-.014-.477.29-.973a3.663,3.663,0,0,0,0-3.629,3.581,3.581,0,0,1-.3-.576.879.879,0,0,1,.7-1.024c.4-.075.677.1,1.046.676a5.148,5.148,0,0,1,0,5.517c-.377.58-.8.785-1.238.6Z" transform="translate(-185.446 -166.222)"/></g><g class="a"><path class="d" d="M530.429,3.647H521.1L478.39,101.935C471.862,116.888,465.334,124,453.024,124c-11,0-17.533-5.106-17.533-13.129,0-7.477,5.409-12.4,12.124-12.4,13.616,0,12.683,9.847,19.957,9.847,2.611,0,4.29-2.006,6.155-6.2l6.9-15.865-42.9-82.606h-7.274V0h54.09V3.647H469.437l24.993,50.694L516.44,3.647H500.586V0h29.843V3.647Z" transform="translate(-344.363)"/></g><g class="a"><g transform="translate(65.399 15.934)"><path class="d" d="M330.071,83.977h-1.878V81.323h1.878a1.328,1.328,0,1,1,0,2.655m-1.878,1.194h2.244a1.6,1.6,0,1,1,0,3.209h-2.245V85.171Zm3.716-.788a2.5,2.5,0,0,0,.7-1.736,2.534,2.534,0,0,0-2.539-2.523H326.99v9.455l3.447,0a2.82,2.82,0,0,0,2.824-2.809,2.75,2.75,0,0,0-1.352-2.385" transform="translate(-326.99 -80.124)"/></g><path class="d" d="M435.19,88.389V80.133h-1.2v9.453h5.08v-1.2Z" transform="translate(-347.189 -64.197)"/><path class="d" d="M270.369,80.137v7.745L265.7,80.133h-1.57v9.45h1.2V81.836l4.67,7.75h1.569V80.137Z" transform="translate(-211.304 -64.197)"/><path class="d" d="M206.6,80.325l-.078-.2h-1.328l-3.711,9.457h1.293l3.082-7.849,3.082,7.849h1.293Z" transform="translate(-161.185 -64.19)"/><path class="d" d="M157.522,80.133l-2.907,4.157-2.9-4.157h-1.467l3.764,5.392,0,4.061h1.2l0-4.061,3.767-5.392Z" transform="translate(-120.197 -64.197)"/><path class="d" d="M376.92,80.313l-.079-.2h-1.326l-3.71,9.457H373.1l3.081-7.849,3.007,7.655.082.194h1.286Z" transform="translate(-297.444 -64.181)"/><g transform="translate(9.847 9.827)"><path class="d" d="M60.153,54.12h0L61.6,52.677h0l3.282-3.263a12.586,12.586,0,0,0-6,3.263H50.084a.848.848,0,0,0-.85.845V64.134a.848.848,0,0,0,.85.845H60.755a.847.847,0,0,0,.85-.845V55.381l-1.451,1.443v6.712H50.685V54.12h6.932a12.47,12.47,0,0,0-2.2,4.708Z" transform="translate(-49.234 -49.414)"/></g></g></svg>