<svg xmlns="http://www.w3.org/2000/svg" xmlns:xlink="http://www.w3.org/1999/xlink" width="200" height="124" viewBox="0 0 200 124"><defs><style>.a{clip-path:url(#a);}.b{fill:#ec6741;}.c{clip-path:url(#b);}.d{fill:none;}</style><clipPath id="a"><path d="M14.66,6.7H199.74a7.414,7.414,0,0,1,7.46,7.43h0V123.27a7.414,7.414,0,0,1-7.46,7.43H14.66a7.414,7.414,0,0,1-7.46-7.43V14.048A7.5,7.5,0,0,1,14.66,6.7Z" transform="translate(-7.2 -6.7)"/></clipPath><clipPath id="b"><rect width="210.278" height="136.548"/></clipPath></defs><g transform="translate(-2696 -2072)"><g class="a" transform="translate(2696 2072)"><g transform="translate(-5.968 -5.531)"><rect class="b" width="210.278" height="136.879"/><g transform="translate(0 0.33)"><g class="c"><path class="d" d="M199.809,130.582c4.061,0,7.46-4.375,7.46-8.421V13.765a7.434,7.434,0,0,0-7.46-7.265H14.977A7.308,7.308,0,0,0,7.6,13.765v108.4c0,3.963,3.315,8.421,7.46,8.421Z" transform="translate(-1.301 -1.464)"/></g></g></g></g><rect width="200" height="24.902" transform="translate(2696 2088)"/></g></svg>