<svg id="Capa_1" data-name="Capa 1" xmlns="http://www.w3.org/2000/svg" xmlns:xlink="http://www.w3.org/1999/xlink" viewBox="0 0 200 124">
  <defs>
    <clipPath id="clip-path">
      <path d="M200,116.71a7.36,7.36,0,0,1-7.42,7.29H7.42A7.36,7.36,0,0,1,0,116.71V7.29A7.36,7.36,0,0,1,7.42,0H192.58A7.36,7.36,0,0,1,200,7.29Z" fill="none"/>
    </clipPath>
  </defs>
  <g clip-path="url(#clip-path)">
    <path d="M211.76,128.4a7.36,7.36,0,0,1-7.41,7.3H-4.35a7.36,7.36,0,0,1-7.41-7.3V-4.41A7.36,7.36,0,0,1-4.35-11.7h208.7a7.36,7.36,0,0,1,7.41,7.29Z" fill="#585b65"/>
    <rect x="-11.76" y="9.36" width="223.53" height="26.16"/>
  </g>
</svg>
