<svg width="25" height="1085" viewBox="0 0 25 1085" version="1.1" xmlns="http://www.w3.org/2000/svg" xmlns:xlink="http://www.w3.org/1999/xlink"><title>country-flags-sprite</title><desc>Created with Sketch.</desc><g id="Flags" stroke="none" stroke-width="1" fill="none" fill-rule="evenodd"><g id="country-flags-sprite"><g id="ve" transform="translate(0.000000, 1055.000000)" fill-rule="nonzero"><path d="M23.759668,17.9347656 C24.5543457,16.2914063 25,14.4478027 25,12.5 C25,10.5521973 24.5543457,8.70859375 23.759668,7.06523437 L12.5,5.97827148 L1.24033203,7.06523437 C0.445654297,8.70859375 0,10.5521973 0,12.5 C0,14.4478027 0.445654297,16.2914063 1.24033203,17.9347656 L12.5,19.0217285 L23.759668,17.9347656 Z" id="Shape" fill="#0052B4"/><path d="M12.5,25 C17.4557129,25 21.737793,22.1159668 23.759668,17.9347656 L1.24033203,17.9347656 C3.26220703,22.1159668 7.54423828,25 12.5,25 Z" id="Shape" fill="#D80027"/><polygon id="Shape" fill="#FFF" points="21.6487793 14.9537109 20.9885742 15.4696289 21.2750977 16.2567871 20.5804199 15.7883789 19.920166 16.3041992 20.1510254 15.4987793 19.4564453 15.0302246 20.2937988 15.0010254 20.5248535 14.1956055 20.8114746 14.9829102"/><polygon id="Shape" fill="#FFF" points="19.9580566 12.0254883 19.5141602 12.736084 20.0527832 13.3777832 19.2397461 13.1753418 18.7957031 13.8857422 18.7371582 13.0499512 17.9242188 12.847168 18.7011719 12.533252 18.6427734 11.6974121 19.1812988 12.3393555"/><polygon id="Shape" fill="#FFF" points="17.3678711 9.85200195 17.19375 10.671582 17.9193359 11.0905273 17.086084 11.1783691 16.9118652 11.9977051 16.5710449 11.232373 15.7376953 11.3198242 16.3604492 10.7591797 16.0196777 9.99384766 16.7452637 10.4126953"/><polygon id="Shape" fill="#FFF" points="14.1905273 8.6956543 14.3072754 9.52539062 15.1323242 9.67080078 14.3792969 10.0382812 14.4959473 10.8679687 13.913916 10.2652344 13.1606934 10.6325195 13.5541504 9.89262695 12.9720703 9.28999023 13.7972656 9.43544922"/><polygon id="Shape" fill="#FFF" points="10.8094238 8.6956543 11.202832 9.43544922 12.027832 9.28989258 11.4459473 9.89277344 11.8391602 10.6326172 11.0861328 10.2652344 10.5040039 10.8678223 10.620752 10.0382812 9.86767578 9.67099609 10.6928223 9.52539062"/><polygon id="Shape" fill="#FFF" points="7.63208008 9.85200195 8.25483398 10.4126953 8.98027344 9.99384766 8.63959961 10.7594727 9.26220703 11.3200195 8.42895508 11.232373 8.08803711 11.9977051 7.9140625 11.1782227 7.08076172 11.0907227 7.80634766 10.6716797"/><polygon id="Shape" fill="#FFF" points="5.04189453 12.0254883 5.81889648 12.3393555 6.35727539 11.6975586 6.29902344 12.5335449 7.07578125 12.8474609 6.2628418 13.0500488 6.20429688 13.8857422 5.76044922 13.1753418 4.94741211 13.3779297 5.48598633 12.736084"/><polygon id="Shape" fill="#FFF" points="3.35126953 14.9537109 4.18876953 14.9829102 4.47519531 14.1957031 4.70639648 15.0011719 5.54365234 15.0304199 4.84902344 15.4989746 5.07988281 16.3043457 4.41972656 15.7885254 3.72504883 16.2569336 4.01162109 15.4696289"/><path d="M23.759668,7.06523438 C21.737793,2.8840332 17.4557129,0 12.5,0 C7.54423828,0 3.26220703,2.8840332 1.24033203,7.06523438 L23.759668,7.06523438 Z" id="Shape" fill="#FFDA44"/></g><g id="uy" transform="translate(0.000000, 1020.000000)" fill-rule="nonzero"><circle id="Oval" fill="#FFF" cx="12.5" cy="12.5" r="12.5"/><path d="M12.5,9.23911133 L24.5693848,9.23911133 C24.255957,8.07631836 23.7795898,6.98056641 23.165332,5.97822266 L12.5,5.97822266 L12.5,9.23911133 Z" id="Shape" fill="#338AF3"/><path d="M4.71889648,22.2826172 L20.2810547,22.2826172 C21.4218262,21.3740234 22.4001465,20.2704102 23.1652832,19.0217285 L1.83466797,19.0217285 C2.59985352,20.2703613 3.57817383,21.3740234 4.71889648,22.2826172 Z" id="Shape" fill="#338AF3"/><path d="M12.5,0 C12.5,1.08696289 12.5,2.71738281 12.5,2.71738281 L20.2811035,2.71738281 C18.1458496,1.01679688 15.4418457,0 12.5,0 Z" id="Shape" fill="#338AF3"/><path d="M12.5,9.23911133 L24.5693848,9.23911133 C24.255957,8.07631836 23.7795898,6.98056641 23.165332,5.97822266 L12.5,5.97822266 L12.5,9.23911133 Z" id="Shape" fill="#338AF3"/><path d="M0,12.5 C0,13.6282715 0.150390625,14.7211426 0.430615234,15.7608887 L24.5694336,15.7608887 C24.8496094,14.7211426 25,13.6282715 25,12.5 L0,12.5 Z" id="Shape" fill="#338AF3"/><polygon id="Shape" fill="#FFDA44" points="10.8695801 7.31547852 9.34291992 8.03359375 10.1558594 9.51210937 8.49814453 9.19501953 8.28808594 10.8695801 7.13349609 9.63793945 5.97880859 10.8695801 5.76879883 9.19501953 4.11108398 9.51201172 4.92397461 8.03354492 3.39741211 7.31547852 4.92402344 6.59746094 4.11108398 5.11894531 5.76875 5.43603516 5.97885742 3.76147461 7.13349609 4.99311523 8.28813477 3.76147461 8.49814453 5.43603516 10.1559082 5.11894531 9.34296875 6.59750977"/></g><g id="us" transform="translate(0.000000, 985.000000)" fill-rule="nonzero"><circle id="Oval" fill="#FFF" cx="12.5" cy="12.5" r="12.5"/><path d="M11.956543,12.5 L25,12.5 C25,11.3717773 24.8496094,10.2788086 24.5693848,9.23911133 L11.956543,9.23911133 L11.956543,12.5 Z" id="Shape" fill="#D80027"/><path d="M11.956543,5.97827148 L23.165332,5.97827148 C22.4001465,4.72963867 21.4217773,3.62597656 20.2810547,2.71738281 L11.956543,2.71738281 L11.956543,5.97827148 Z" id="Shape" fill="#D80027"/><path d="M12.5,25 C15.4418457,25 18.1458008,23.9832031 20.2810547,22.2826172 L4.71894531,22.2826172 C6.85419922,23.9832031 9.5581543,25 12.5,25 Z" id="Shape" fill="#D80027"/><path d="M1.83466797,19.0217285 L23.165332,19.0217285 C23.7796387,18.0193359 24.2560547,16.9236328 24.5693848,15.7608398 L0.430615234,15.7608398 C0.743945313,16.9236328 1.22036133,18.0193359 1.83466797,19.0217285 Z" id="Shape" fill="#D80027"/><path d="M5.79023437,1.95205078 L6.9293457,1.95205078 L5.86977539,2.72182617 L6.27451172,3.96738281 L5.21499023,3.19760742 L4.15546875,3.96738281 L4.50507812,2.89135742 C3.57216797,3.66845703 2.75449219,4.57890625 2.08066406,5.59335938 L2.4456543,5.59335938 L1.77119141,6.08334961 C1.66611328,6.25864258 1.56533203,6.43671875 1.46875,6.61743164 L1.79082031,7.60869141 L1.18994141,7.17211914 C1.04057617,7.48857422 0.903955078,7.8121582 0.781152344,8.14248047 L1.13598633,9.23466797 L2.4456543,9.23466797 L1.38608398,10.0044434 L1.79082031,11.25 L0.731298828,10.4802246 L0.0966308594,10.9413574 C0.0331054688,11.452002 0,11.9721191 0,12.5 L12.5,12.5 C12.5,5.59648438 12.5,4.78261719 12.5,0 C10.0306641,0 7.72875977,0.716308594 5.79023437,1.95205078 Z M6.27451172,11.25 L5.21499023,10.4802246 L4.15546875,11.25 L4.56020508,10.0044434 L3.50063477,9.23466797 L4.81030273,9.23466797 L5.21499023,7.98911133 L5.61967773,9.23466797 L6.9293457,9.23466797 L5.86977539,10.0044434 L6.27451172,11.25 Z M5.86977539,6.36313477 L6.27451172,7.60869141 L5.21499023,6.83891602 L4.15546875,7.60869141 L4.56020508,6.36313477 L3.50063477,5.59335938 L4.81030273,5.59335938 L5.21499023,4.34780273 L5.61967773,5.59335938 L6.9293457,5.59335938 L5.86977539,6.36313477 Z M10.7582031,11.25 L9.69868164,10.4802246 L8.63916016,11.25 L9.04389648,10.0044434 L7.98432617,9.23466797 L9.29399414,9.23466797 L9.69868164,7.98911133 L10.1033691,9.23466797 L11.4130371,9.23466797 L10.3534668,10.0044434 L10.7582031,11.25 Z M10.3534668,6.36313477 L10.7582031,7.60869141 L9.69868164,6.83891602 L8.63916016,7.60869141 L9.04389648,6.36313477 L7.98432617,5.59335938 L9.29399414,5.59335938 L9.69868164,4.34780273 L10.1033691,5.59335938 L11.4130371,5.59335938 L10.3534668,6.36313477 Z M10.3534668,2.72182617 L10.7582031,3.96738281 L9.69868164,3.19760742 L8.63916016,3.96738281 L9.04389648,2.72182617 L7.98432617,1.95205078 L9.29399414,1.95205078 L9.69868164,0.706494141 L10.1033691,1.95205078 L11.4130371,1.95205078 L10.3534668,2.72182617 Z" id="Shape" fill="#0052B4"/></g><g id="sx" transform="translate(0.000000, 950.000000)"><circle id="Oval" fill="#FFF" fill-rule="nonzero" cx="12.5" cy="12.5" r="12.5"/><path d="M2.24609375,17.8475647 C4.5056415,14.6146012 8.25531975,12.5 12.4988896,12.5 C19.4024489,12.5 24.9988896,18.0964406 24.9988896,25 L11.782581,25 L2.24609375,17.8475647 Z" id="Shape" fill="#D80027" transform="translate(13.622492, 18.750000) scale(1, -1) translate(-13.622492, -18.750000)"/><path d="M2.24720417,5.34756473 C4.50675193,2.11460121 8.25643018,0 12.5,0 C19.4035594,0 25,5.59644063 25,12.5 L11.7836914,12.5 L2.24720417,5.34756473 Z" id="Shape" fill="#0052B4"/></g><g id="sv" transform="translate(0.000000, 915.000000)" fill-rule="nonzero"><circle id="Oval" fill="#FFF" cx="12.5" cy="12.5" r="12.5"/><path d="M12.5,0 C7.54423828,0 3.26220703,2.8840332 1.24033203,7.06523438 L23.7596191,7.06523438 C21.737793,2.8840332 17.4557129,0 12.5,0 Z" id="Shape" fill="#0052B4"/><path d="M12.5,25 C17.4557129,25 21.737793,22.1159668 23.759668,17.9347656 L1.24033203,17.9347656 C3.26220703,22.1159668 7.54423828,25 12.5,25 Z" id="Shape" fill="#0052B4"/><polygon id="Shape" fill="#FFDA44" points="9.98974609 13.043457 12.5 8.6956543 15.0102539 13.043457"/><polygon id="Shape" fill="#6DA544" points="15.7608887 14.4790527 12.5 16.1095215 9.23911133 14.4790527 9.23911133 12.3051758 15.7608887 12.3051758"/><path d="M15.5743652,8.88217773 L14.4214844,10.0350586 C14.9132324,10.5268066 15.2174316,11.2061523 15.2174316,11.956543 C15.2174316,13.4573242 14.0007812,14.6739258 12.5000488,14.6739258 C10.9993164,14.6739258 9.78266602,13.4572754 9.78266602,11.956543 C9.78266602,11.2061523 10.0868652,10.5268066 10.5786133,10.0350586 L9.42573242,8.88217773 C8.63886719,9.66889648 8.15224609,10.7558594 8.15224609,11.956543 C8.15224609,14.3578125 10.0988281,16.3043457 12.5000488,16.3043457 C14.9012695,16.3043457 16.8478516,14.3577637 16.8478516,11.956543 C16.8478027,10.7558594 16.3611816,9.66889648 15.5743652,8.88217773 Z" id="Shape" fill="#FFDA44"/></g><g id="sr" transform="translate(0.000000, 880.000000)" fill-rule="nonzero"><circle id="Oval" fill="#FFF" cx="12.5" cy="12.5" r="12.5"/><path d="M24.2224609,8.15219727 L0.777441406,8.15219727 C0.275048828,9.50639648 0,10.9709961 0,12.5 C0,14.0290039 0.275048828,15.4937012 0.777441406,16.8478027 L24.2225098,16.8478027 C24.725,15.4937012 25,14.0290039 25,12.5 C25,10.9709961 24.725,9.50639648 24.2224609,8.15219727 Z" id="Shape" fill="#A2001D"/><path d="M12.5361816,25 C16.8175293,25 20.5956543,22.8470703 22.8484863,19.5652344 L2.22392578,19.5652344 C4.47675781,22.8470703 8.25478516,25 12.5361816,25 Z" id="Shape" fill="#6DA544"/><path d="M12.5361816,9.765625e-05 C16.8175293,9.765625e-05 20.5956543,2.15302734 22.8484863,5.43486328 L2.22392578,5.43486328 C4.47675781,2.15302734 8.25478516,9.765625e-05 12.5361816,9.765625e-05 Z" id="Shape" fill="#6DA544"/><polygon id="Shape" fill="#FFDA44" points="12.5 8.15219727 13.5791504 11.4734863 17.071582 11.4734863 14.2461914 13.526416 15.3254395 16.8478027 12.5 14.7951172 9.67456055 16.8478027 10.7538574 13.526416 7.92841797 11.4734863 11.4208496 11.4734863"/></g><g id="py" transform="translate(0.000000, 845.000000)" fill-rule="nonzero"><circle id="Oval" fill="#FFF" cx="12.5" cy="12.5" r="12.5"/><path d="M12.5,0 C7.54423828,0 3.26220703,2.8840332 1.24033203,7.06523438 L23.7596191,7.06523438 C21.737793,2.8840332 17.4557129,0 12.5,0 Z" id="Shape" fill="#D80027"/><path d="M12.5,25 C17.4557129,25 21.737793,22.1159668 23.759668,17.9347656 L1.24033203,17.9347656 C3.26220703,22.1159668 7.54423828,25 12.5,25 Z" id="Shape" fill="#0052B4"/><path d="M15.5743652,8.88217773 L14.4214844,10.0350586 C14.9132324,10.5268066 15.2174316,11.2061523 15.2174316,11.956543 C15.2174316,13.4573242 14.0007812,14.6739258 12.5000488,14.6739258 C10.9993164,14.6739258 9.78266602,13.4572754 9.78266602,11.956543 C9.78266602,11.2061523 10.0868652,10.5268066 10.5786133,10.0350586 L9.42573242,8.88217773 C8.63886719,9.66889648 8.15224609,10.7558594 8.15224609,11.956543 C8.15224609,14.3578125 10.0988281,16.3043457 12.5000488,16.3043457 C14.9012695,16.3043457 16.8478516,14.3577637 16.8478516,11.956543 C16.8478027,10.7558594 16.3611816,9.66889648 15.5743652,8.88217773 Z" id="Shape" fill="#6DA544"/><polygon id="Shape" fill="#FFDA44" points="12.5 10.3260742 12.9047363 11.5716797 14.2143555 11.5716797 13.154834 12.3414063 13.5595703 13.5869629 12.5 12.8171875 11.4404297 13.5869629 11.845166 12.3414063 10.7856445 11.5716797 12.0952637 11.5716797"/></g><g id="pr" transform="translate(0.000000, 810.000000)" fill-rule="nonzero"><ellipse id="Oval" fill="#FFF" cx="12.524" cy="12.5" rx="12.476" ry="12.5"/><path d="M12.5243665,0 C8.44288499,0 4.81934698,1.96401367 2.54332359,5 L22.5054094,5 C20.229386,1.96401367 16.605848,0 12.5243665,0 Z" id="Shape" fill="#D80027"/><path d="M12.5243665,25 C16.605848,25 20.229386,23.0359863 22.5054094,20 L2.54332359,20 C4.81934698,23.0359863 8.44288499,25 12.5243665,25 Z" id="Shape" fill="#D80027"/><path d="M0.0487329435,12.5 C0.0487329435,13.3562012 0.134892788,14.1922363 0.298586745,15 L24.7502437,15 C24.9139376,14.1922363 25,13.3562012 25,12.5 C25,11.6437988 24.9138402,10.8077637 24.7501949,10 L0.298586745,10 C0.134892788,10.8077637 0.0487329435,11.6437988 0.0487329435,12.5 Z" id="Shape" fill="#D80027"/><path d="M3.70272904,3.66113281 C-1.16929825,8.54267578 -1.16929825,16.4572754 3.70272904,21.3388672 C5.71603314,19.3216309 7.65233918,17.381543 12.5243665,12.5 L3.70272904,3.66113281 Z" id="Shape" fill="#0052B4"/><polygon id="Shape" fill="#FFF" points="5.09795322 9.23911133 5.90570175 11.730127 8.52002924 11.730127 6.40511696 13.2697754 7.21281676 15.7608887 5.09795322 14.2212891 2.9829922 15.7608887 3.79088694 13.2697754 1.67597466 11.730127 4.29010721 11.730127"/></g><g id="pe" transform="translate(0.000000, 775.000000)" fill-rule="nonzero"><circle id="Oval" fill="#FFF" cx="12.5" cy="12.5" r="12.5"/><path d="M25,12.5 C25,7.12548828 21.6078125,2.54365234 16.8478027,0.777539063 L16.8478027,24.2226074 C21.6078125,22.4563477 25,17.8746094 25,12.5 Z" id="Shape" fill="#D80027"/><path d="M0,12.5 C0,17.8746094 3.3921875,22.4563477 8.15219727,24.2225586 L8.15219727,0.777539063 C3.3921875,2.54365234 0,7.12548828 0,12.5 Z" id="Shape" fill="#D80027"/></g><g id="pa" transform="translate(0.000000, 740.000000)" fill-rule="nonzero"><circle id="Oval" fill="#FFF" cx="12.5" cy="12.5" r="12.5"/><path d="M0,12.5 C0,19.4035156 5.59648438,25 12.5,25 C12.5,20.2463379 12.5,12.5 12.5,12.5 C12.5,12.5 4.34780273,12.5 0,12.5 Z" id="Shape" fill="#0052B4"/><path d="M12.5,0 C19.4035156,0 25,5.59648438 25,12.5 C20.2463379,12.5 12.5,12.5 12.5,12.5 C12.5,12.5 12.5,4.34780273 12.5,0 Z" id="Shape" fill="#D80027"/><polygon id="Shape" fill="#0052B4" points="7.44086914 4.34780273 8.25029297 6.83891602 10.8695801 6.83891602 8.75053711 8.3784668 9.55991211 10.8695801 7.44086914 9.32998047 5.32182617 10.8695801 6.13120117 8.3784668 4.0121582 6.83891602 6.63144531 6.83891602"/><polygon id="Shape" fill="#D80027" points="17.5591309 14.1304199 18.3685547 16.6215332 20.9878418 16.6215332 18.86875 18.161084 19.6781738 20.6521973 17.5591309 19.1125977 15.4400879 20.6521973 16.2494629 18.161084 14.1304199 16.6215332 16.749707 16.6215332"/></g><g id="ni" transform="translate(0.000000, 705.000000)" fill-rule="nonzero"><circle id="Oval" fill="#FFF" cx="12.5" cy="12.5" r="12.5"/><path d="M12.5,0 C7.54423828,0 3.26220703,2.8840332 1.24033203,7.06523438 L23.7596191,7.06523438 C21.737793,2.8840332 17.4557129,0 12.5,0 Z" id="Shape" fill="#338AF3"/><path d="M12.5,25 C17.4557129,25 21.737793,22.1159668 23.759668,17.9347656 L1.24033203,17.9347656 C3.26220703,22.1159668 7.54423828,25 12.5,25 Z" id="Shape" fill="#338AF3"/><path d="M12.5,8.6956543 C10.3989258,8.6956543 8.6956543,10.3989258 8.6956543,12.5 C8.6956543,14.6010742 10.3989258,16.3043457 12.5,16.3043457 C14.6010742,16.3043457 16.3043457,14.6010742 16.3043457,12.5 C16.3043457,10.3989258 14.6010742,8.6956543 12.5,8.6956543 Z M12.5,14.6739258 C11.2994141,14.6739258 10.3260742,13.7006836 10.3260742,12.5 C10.3260742,11.2993164 11.2993652,10.3260742 12.5,10.3260742 C13.7006348,10.3260742 14.6739258,11.2993164 14.6739258,12.5 C14.6739258,13.7006836 13.7005859,14.6739258 12.5,14.6739258 Z" id="Shape" fill="#FFDA44"/><polygon id="Shape" fill="#0052B4" points="14.3827148 13.043457 12.5 12.5 10.6172852 13.043457 9.98974609 14.1304199 15.0102051 14.1304199"/><polygon id="Shape" fill="#338AF3" points="12.5 9.78261719 11.244873 11.956543 12.5 12.5 13.755127 11.956543"/><polygon id="Shape" fill="#6DA544" points="10.6172852 13.043457 14.3827148 13.043457 13.755127 11.956543 11.244873 11.956543"/></g><g id="mx" transform="translate(0.000000, 670.000000)" fill-rule="nonzero"><circle id="Oval" fill="#FFF" cx="12.5" cy="12.5" r="12.5"/><path d="M25,12.5 C25,7.54423828 22.1159668,3.26220703 17.9347656,1.24033203 L17.9347656,23.7596191 C22.1159668,21.737793 25,17.4557617 25,12.5 Z" id="Shape" fill="#D80027"/><path d="M0,12.5 C0,17.4557617 2.8840332,21.737793 7.06523438,23.759668 L7.06523438,1.24033203 C2.8840332,3.26220703 0,7.54423828 0,12.5 Z" id="Shape" fill="#6DA544"/><path d="M9.23911133,12.5 C9.23911133,14.3009277 10.6990723,15.7608887 12.5,15.7608887 C14.3009277,15.7608887 15.7608887,14.3009277 15.7608887,12.5 L15.7608887,11.4130371 L9.23911133,11.4130371 L9.23911133,12.5 Z" id="Shape" fill="#6DA544"/><path d="M16.8478027,10.3260742 L13.5869141,10.3260742 C13.5869141,9.72578125 13.1002441,9.23911133 12.4999512,9.23911133 C11.8996582,9.23911133 11.4129883,9.72578125 11.4129883,10.3260742 L8.15209961,10.3260742 C8.15209961,10.926416 8.675,11.4130371 9.27524414,11.4130371 L9.2390625,11.4130371 C9.2390625,12.0133789 9.72568359,12.5 10.3260254,12.5 C10.3260254,13.1003418 10.8126465,13.5869629 11.4129883,13.5869629 L13.5869141,13.5869629 C14.1872559,13.5869629 14.673877,13.1003418 14.673877,12.5 C15.2742188,12.5 15.7608398,12.0133789 15.7608398,11.4130371 L15.7246094,11.4130371 C16.3249512,11.4130371 16.8478027,10.926416 16.8478027,10.3260742 Z" id="Shape" fill="#FF9811"/></g><g id="mq" transform="translate(0.000000, 635.000000)" fill-rule="nonzero"><circle id="Oval" fill="#FFF" cx="12.5" cy="12.5" r="12.5"/><path d="M24.8928711,10.8695312 C24.5480469,8.23349609 23.3639648,5.68632813 21.3388184,3.66118164 C19.3136719,1.63603516 16.7664551,0.451904297 14.1304199,0.107080078 L14.1304199,10.8695312 L24.8928711,10.8695312 Z" id="Shape" fill="#0052B4"/><path d="M10.8695801,0.107080078 C8.23349609,0.451904297 5.6862793,1.63598633 3.66113281,3.66113281 C1.63603516,5.68632812 0.451904297,8.23354492 0.107080078,10.8696289 L10.8695801,10.8696289 L10.8695801,0.107080078 Z" id="Shape" fill="#0052B4"/><path d="M0.107080078,14.1304688 C0.451904297,16.7665039 1.63603516,19.3137695 3.66113281,21.3388672 C5.6862793,23.3639648 8.23344727,24.5480469 10.8695801,24.8930176 L10.8695801,14.1304688 L0.107080078,14.1304688 Z" id="Shape" fill="#0052B4"/><path d="M14.1304688,24.8928711 C16.7665039,24.5480469 19.3136719,23.3639648 21.3388184,21.3388184 C23.3639648,19.3136719 24.5480469,16.7665039 24.8928711,14.1304688 L14.1304688,14.1304688 L14.1304688,24.8928711 Z" id="Shape" fill="#0052B4"/><path d="M16.767041,7.93154297 C16.767041,7.76533203 16.9021484,7.63022461 17.0684082,7.63022461 L17.7141113,7.63022461 C18.7348145,7.63022461 19.5652344,6.79985352 19.5652344,5.77919922 C19.5652344,4.75854492 18.7348633,3.928125 17.7141113,3.928125 L17.1009277,3.928125 C16.9007813,3.7777832 16.6322754,3.68505859 16.336084,3.68505859 C15.7182617,3.68505859 15.2174316,4.08569336 15.2174316,4.57993164 C15.2174316,5.06938477 15.7086914,5.46645508 16.3182617,5.47416992 L16.3179688,5.47773437 L17.7141113,5.47773437 C17.8803711,5.47773437 18.0154785,5.61289063 18.0154785,5.77910156 C18.0154785,5.9453125 17.8803711,6.08041992 17.7141113,6.08041992 L17.0684082,6.08041992 C16.0477051,6.08041992 15.2173828,6.91079102 15.2173828,7.93144531 C15.2173828,8.95209961 16.0476563,9.78251953 17.0684082,9.78251953 L19.5651855,9.78251953 L19.5651855,8.2328125 L17.0684082,8.2328125 C16.9021484,8.23286133 16.767041,8.09775391 16.767041,7.93154297 Z" id="Shape" fill="#FFF"/><path d="M6.98447266,7.93154297 C6.98447266,7.76533203 7.11958008,7.63022461 7.28583984,7.63022461 L7.93154297,7.63022461 C8.95224609,7.63022461 9.78266602,6.79985352 9.78266602,5.77919922 C9.78266602,4.75854492 8.95229492,3.928125 7.93154297,3.928125 L7.31835938,3.928125 C7.11821289,3.7777832 6.84970703,3.68505859 6.55351563,3.68505859 C5.93569336,3.68505859 5.43486328,4.08569336 5.43486328,4.57993164 C5.43486328,5.06938477 5.92612305,5.46645508 6.53569336,5.47416992 L6.53540039,5.47773437 L7.9315918,5.47773437 C8.09785156,5.47773437 8.23295898,5.61289063 8.23295898,5.77910156 C8.23295898,5.9453125 8.09785156,6.08041992 7.9315918,6.08041992 L7.28588867,6.08041992 C6.26518555,6.08041992 5.43486328,6.91079102 5.43486328,7.93144531 C5.43486328,8.95209961 6.26513672,9.78251953 7.28588867,9.78251953 L9.78261719,9.78251953 L9.78261719,8.2328125 L7.28583984,8.2328125 C7.11958008,8.23286133 6.98447266,8.09775391 6.98447266,7.93154297 Z" id="Shape" fill="#FFF"/><path d="M16.767041,19.4638672 C16.767041,19.2976563 16.9021484,19.1625488 17.0684082,19.1625488 L17.7141113,19.1625488 C18.7348145,19.1625488 19.5652344,18.3321777 19.5652344,17.3115234 C19.5652344,16.2908691 18.7348633,15.4604492 17.7141113,15.4604492 L17.1009277,15.4604492 C16.9007813,15.3101074 16.6322754,15.2173828 16.336084,15.2173828 C15.7182129,15.2173828 15.2173828,15.6180664 15.2173828,16.1122559 C15.2173828,16.601709 15.7086426,16.9987793 16.3182129,17.0064941 L16.3179199,17.0100586 L17.7140625,17.0100586 C17.8803223,17.0100586 18.0154297,17.1452148 18.0154297,17.3114258 C18.0154297,17.4776367 17.8803223,17.6127441 17.7140625,17.6127441 L17.0683594,17.6127441 C16.0476562,17.6127441 15.217334,18.4431152 15.217334,19.4637695 C15.217334,20.4844238 16.0476074,21.3148438 17.0683594,21.3148438 L19.5651855,21.3148438 L19.5651855,19.7651855 L17.0684082,19.7651855 C16.9021484,19.7652344 16.767041,19.6300293 16.767041,19.4638672 Z" id="Shape" fill="#FFF"/><path d="M6.98447266,19.4638672 C6.98447266,19.2976563 7.11958008,19.1625488 7.28583984,19.1625488 L7.93154297,19.1625488 C8.95224609,19.1625488 9.78266602,18.3321777 9.78266602,17.3115234 C9.78266602,16.2908691 8.95229492,15.4604492 7.93154297,15.4604492 L7.31835938,15.4604492 C7.11821289,15.3101074 6.84970703,15.2173828 6.55351563,15.2173828 C5.93564453,15.2173828 5.43481445,15.6180664 5.43481445,16.1122559 C5.43481445,16.601709 5.92607422,16.9987793 6.53564453,17.0064941 L6.53535156,17.0100586 L7.93154297,17.0100586 C8.09780273,17.0100586 8.23291016,17.1452148 8.23291016,17.3114258 C8.23291016,17.4776367 8.09780273,17.6127441 7.93154297,17.6127441 L7.28583984,17.6127441 C6.26513672,17.6127441 5.43481445,18.4431152 5.43481445,19.4637695 C5.43481445,20.4844238 6.26508789,21.3148438 7.28583984,21.3148438 L9.78261719,21.3148438 L9.78261719,19.7651855 L7.28583984,19.7651855 C7.11958008,19.7652344 6.98447266,19.6300293 6.98447266,19.4638672 Z" id="Shape" fill="#FFF"/></g><g id="ht" transform="translate(0.000000, 600.000000)" fill-rule="nonzero"><path d="M25,12.5 C25,19.4035156 19.4035156,25 12.5,25 C5.59648437,25 0,19.4035156 0,12.5 C0,5.59648437 12.5,0 12.5,0 C12.5,0 25,5.59648438 25,12.5 Z" id="Shape" fill="#A2001D"/><path d="M0,12.5 C0,5.59648438 5.59648438,0 12.5,0 C19.4035156,0 25,5.59648438 25,12.5" id="Shape" fill="#0052B4"/><polygon id="Shape" fill="#FFF" points="16.8478027 15.7608887 12.5 15.2173828 8.15219727 15.7608887 8.15219727 9.23911133 16.8478027 9.23911133"/><circle id="Oval" fill="#0052B4" cx="12.5" cy="13.043" r="2.174"/><circle id="Oval" fill="#A2001D" cx="12.5" cy="13.043" r="1.087"/><polygon id="Shape" fill="#6DA544" points="10.8695801 10.3260742 14.1304199 10.3260742 12.5 11.956543"/><rect id="Shape" fill="#FFDA44" x="11.957" y="11.413" width="1.087" height="3.261"/><polygon id="Shape" fill="#6DA544" points="14.2391113 14.3478027 10.760791 14.3478027 8.15219727 15.7608887 16.8478027 15.7608887"/></g><g id="hn" transform="translate(0.000000, 565.000000)" fill-rule="nonzero"><circle id="Oval" fill="#FFF" cx="12.5" cy="12.5" r="12.5"/><path d="M12.5,25 C17.4557129,25 21.737793,22.1159668 23.759668,17.9347656 L1.24033203,17.9347656 C3.26220703,22.1159668 7.54423828,25 12.5,25 Z" id="Shape" fill="#338AF3"/><path d="M12.5,0 C7.54423828,0 3.26220703,2.8840332 1.24033203,7.06523438 L23.7596191,7.06523438 C21.737793,2.8840332 17.4557129,0 12.5,0 Z" id="Shape" fill="#338AF3"/><polygon id="Shape" fill="#338AF3" points="7.69262695 8.15219727 8.09731445 9.39775391 9.40693359 9.39775391 8.34746094 10.1674805 8.75219727 11.4130371 7.69262695 10.6432617 6.63305664 11.4130371 7.03779297 10.1674805 5.97827148 9.39775391 7.28789063 9.39775391"/><polygon id="Shape" fill="#338AF3" points="7.69262695 13.5869629 8.09731445 14.8325684 9.40693359 14.8325684 8.34746094 15.6022949 8.75219727 16.8478027 7.69262695 16.0780273 6.63305664 16.8478027 7.03779297 15.6022949 5.97827148 14.8325684 7.28789063 14.8325684"/><polygon id="Shape" fill="#338AF3" points="17.307373 8.15219727 17.7121094 9.39775391 19.0217285 9.39775391 17.962207 10.1674805 18.3669434 11.4130371 17.307373 10.6432617 16.2478027 11.4130371 16.6525391 10.1674805 15.5930176 9.39775391 16.9026855 9.39775391"/><polygon id="Shape" fill="#338AF3" points="17.307373 13.5869629 17.7121094 14.8325684 19.0217285 14.8325684 17.962207 15.6022949 18.3669434 16.8478027 17.307373 16.0780273 16.2478027 16.8478027 16.6525391 15.6022949 15.5930176 14.8325684 16.9026855 14.8325684"/><polygon id="Shape" fill="#338AF3" points="12.5 10.8695801 12.9047363 12.1151855 14.2143555 12.1151855 13.154834 12.8849121 13.5595703 14.1304199 12.5 13.3606445 11.4404297 14.1304199 11.845166 12.8849121 10.7856445 12.1151855 12.0952637 12.1151855"/></g><g id="gy" transform="translate(0.000000, 530.000000)" fill-rule="nonzero"><circle id="Oval" fill="#6DA544" cx="12.5" cy="12.5" r="12.5"/><path d="M4.11768983,3.22695544 C10.9010715,5.87072927 20.1468024,9.46945999 24.9466519,11.3374204 C24.9819555,11.7202089 25,12.1079972 25,12.5 C25,12.9415074 24.9771102,13.3776687 24.9324526,13.8073617 L4.14661768,21.7991274 C1.60096949,19.5108718 1.42108547e-14,16.1923991 1.42108547e-14,12.5 C1.42108547e-14,8.82160719 1.58884665,5.5143094 4.11769077,3.2269558 L4.11768983,3.22695544 Z" id="Shape" fill="#FFF"/><path d="M3.37797475,3.95367279 C11.9935154,7.3241286 24.930409,12.4366204 24.8202083,12.51125 L3.44172841,21.1138449 C1.30897505,18.8717556 1.42108547e-14,15.8387415 1.42108547e-14,12.5 C1.42108547e-14,9.19465526 1.28291917,6.18895235 3.37797565,3.95367314 L3.37797475,3.95367279 Z" id="Shape" fill="#FFDA44"/><path d="M2.30280808,5.26865549 C6.45158141,8.7123375 11.1030208,12.5886979 11.1030208,12.5886979 L2.29108465,19.7148145 C0.848031805,17.6766186 2.84217094e-14,15.1873435 2.84217094e-14,12.5 C2.84217094e-14,9.80538722 0.852625862,7.30991589 2.30280808,5.26865549 Z" id="Shape" fill="#000"/><path d="M1.74927777,6.11874095 C5.4215937,9.14350096 9.45598958,12.6198958 9.45598958,12.6198958 L1.71871435,18.8295966 C0.626451197,16.9731394 1.42108547e-14,14.8097274 1.42108547e-14,12.5 C1.42108547e-14,10.1688141 0.638145327,7.98667499 1.74927777,6.11874095 Z" id="Shape" fill="#D80027"/></g><g id="gt" transform="translate(0.000000, 495.000000)" fill-rule="nonzero"><circle id="Oval" fill="#FFF" cx="12.5" cy="12.5" r="12.5"/><path d="M25,12.5 C25,7.54423828 22.1159668,3.26220703 17.9347656,1.24033203 L17.9347656,23.7596191 C22.1159668,21.737793 25,17.4557129 25,12.5 Z" id="Shape" fill="#338AF3"/><path d="M0,12.5 C0,17.4557129 2.8840332,21.737793 7.06523438,23.759668 L7.06523438,1.24033203 C2.8840332,3.26220703 0,7.54423828 0,12.5 Z" id="Shape" fill="#338AF3"/><polygon id="Shape" fill="#ACABB1" points="15.7665039 14.6136719 13.6529297 12.5000977 15.6647949 10.4881348 15.5736328 9.42553711 14.9976562 8.84946289 12.5 11.3471191 10.0023437 8.84946289 9.42636719 9.42553711 9.33520508 10.4881348 11.3470703 12.5000977 9.23344727 14.6136719 10.386377 15.7665039 12.5 13.6529785 14.613623 15.7665039"/><path d="M15.5743652,9.42563477 L14.4214844,10.5785156 C14.9132324,11.0702637 15.2174316,11.7496094 15.2174316,12.5 C15.2174316,14.0007813 14.0007812,15.2173828 12.5000488,15.2173828 C10.9993164,15.2173828 9.78261719,14.0007813 9.78261719,12.5 C9.78261719,11.7496094 10.0868164,11.0702637 10.5785645,10.5785156 L9.42568359,9.42563477 C8.63881836,10.2123535 8.15219727,11.2993164 8.15219727,12.5 C8.15219727,14.9012695 10.0987793,16.8478027 12.5,16.8478027 C14.9012207,16.8478027 16.8478027,14.9012207 16.8478027,12.5 C16.8478027,11.2993652 16.3611816,10.2124023 15.5743652,9.42563477 Z" id="Shape" fill="#6DA544"/></g><g id="gp" transform="translate(0.000000, 460.000000)" fill-rule="nonzero"><circle id="Oval" fill="#FFF" cx="12.5" cy="12.5" r="12.5"/><path d="M25,12.5 C25,7.12543945 21.6078125,2.54365234 16.8478027,0.777490234 L16.8478027,24.2225586 C21.6078125,22.4563477 25,17.8745605 25,12.5 Z" id="Shape" fill="#D80027"/><path d="M0,12.5 C0,17.8745605 3.39223633,22.4563477 8.15219727,24.2225098 L8.15219727,0.777490234 C3.39223633,2.54365234 0,7.12543945 0,12.5 Z" id="Shape" fill="#0052B4"/></g><g id="gf" transform="translate(0.000000, 425.000000)" fill-rule="nonzero"><circle id="Oval" fill="#FFDA44" cx="12.5" cy="12.5" r="12.5"/><path d="M22.5064479,19.9926289 L2.50528283,4.99175509 C4.78617616,1.96032829 8.41415848,0 12.5,0 C19.4035594,0 25,5.59644063 25,12.5 C25,15.3107062 24.0723232,17.9047419 22.5064479,19.9926289 Z" id="Shape" fill="#6DA544"/><polygon id="Shape" fill="#D80027" points="13 8 14.1803617 11.6327257 18 11.6327257 14.9098547 13.8778126 16.0901453 17.5105383 13 15.2653802 9.90985474 17.5105383 11.0901453 13.8778126 8 11.6327257 11.8196383 11.6327257"/></g><g id="ec" transform="translate(0.000000, 390.000000)" fill-rule="nonzero"><path d="M0,12.5 C0,5.59648437 5.59648438,0 12.5,0 C19.4035156,0 25,5.59648437 25,12.5 L12.5,13.5869629 L0,12.5 Z" id="Shape" fill="#FFDA44"/><path d="M1.67265625,18.75 C3.8340332,22.4861328 7.87329102,25 12.5,25 C17.126709,25 21.1659668,22.4861328 23.3273438,18.75 L12.5,17.9347656 L1.67265625,18.75 Z" id="Shape" fill="#D80027"/><path d="M23.3273438,18.75 C24.390918,16.9114258 25,14.7769043 25,12.5 L0,12.5 C0,14.7769043 0.609082031,16.9114258 1.67265625,18.75 L23.3273438,18.75 Z" id="Shape" fill="#0052B4"/><circle id="Oval" fill="#FFDA44" cx="12.5" cy="12.5" r="4.348"/><path d="M12.5,15.2173828 C11.0016113,15.2173828 9.78261719,13.9983398 9.78261719,12.5 L9.78261719,10.8695801 C9.78261719,9.37119141 11.0016602,8.15219727 12.5,8.15219727 C13.9983398,8.15219727 15.2173828,9.37124023 15.2173828,10.8695801 L15.2173828,12.5 C15.2173828,13.9983887 13.9983887,15.2173828 12.5,15.2173828 Z" id="Shape" fill="#338AF3"/><path d="M16.8478027,5.97827148 L13.5869141,5.97827148 C13.5869141,5.37797852 13.1002441,4.89130859 12.4999512,4.89130859 C11.8996582,4.89130859 11.4129883,5.37797852 11.4129883,5.97827148 L8.15209961,5.97827148 C8.15209961,6.57861328 8.675,7.06523438 9.27524414,7.06523438 L9.2390625,7.06523438 C9.2390625,7.66557617 9.72568359,8.15219727 10.3260254,8.15219727 C10.3260254,8.75253906 10.8126465,9.23916016 11.4129883,9.23916016 L13.5869141,9.23916016 C14.1872559,9.23916016 14.673877,8.75253906 14.673877,8.15219727 C15.2742188,8.15219727 15.7608398,7.66557617 15.7608398,7.06523438 L15.7246582,7.06523438 C16.3249512,7.06523438 16.8478027,6.57856445 16.8478027,5.97827148 Z" id="Shape" fill="#000"/></g><g id="do" transform="translate(0.000000, 355.000000)" fill-rule="nonzero"><circle id="Oval" fill="#FFF" cx="12.5" cy="12.5" r="12.5"/><path d="M0.430615234,15.7608887 C1.58481445,20.0432617 4.95673828,23.4152344 9.23916016,24.5694336 L9.23916016,15.7608887 L0.430615234,15.7608887 Z" id="Shape" fill="#D80027"/><path d="M9.23916016,0.430615234 C4.95673828,1.58476563 1.58476563,4.95673828 0.430615234,9.23911133 L9.23916016,9.23911133 L9.23916016,0.430615234 Z" id="Shape" fill="#0052B4"/><path d="M24.5693848,9.23916016 C23.4152344,4.95673828 20.0432617,1.58476563 15.7608887,0.430615234 L15.7608887,9.23916016 L24.5693848,9.23916016 Z" id="Shape" fill="#D80027"/><path d="M15.7608887,24.5693848 C20.0432617,23.4151855 23.4152344,20.0432617 24.5694336,15.7608398 L15.7608887,15.7608398 L15.7608887,24.5693848 Z" id="Shape" fill="#0052B4"/><path d="M15.7608887,12.5 C15.7608887,14.3009766 14.3009766,15.7608887 12.5,15.7608887 C10.6990723,15.7608887 9.23911133,14.3009766 9.23911133,12.5 C9.23911133,10.6990234 12.5,9.23911133 12.5,9.23911133 C12.5,9.23911133 15.7608887,10.6990234 15.7608887,12.5 Z" id="Shape" fill="#496E2D"/><path d="M9.23911133,12.5 C9.23911133,10.6990234 10.6990723,9.23911133 12.5,9.23911133 C14.3009766,9.23911133 15.7608887,10.6990234 15.7608887,12.5" id="Shape" fill="#0052B4"/><path d="M10.6657715,10.8695801 L10.6657715,12.9076172 C10.6657715,13.9206543 11.4869629,14.7418457 12.5,14.7418457 C13.5130371,14.7418457 14.3342285,13.9206543 14.3342285,12.9076172 L14.3342285,10.8695801 L10.6657715,10.8695801 Z" id="Shape" fill="#D80027"/></g><g id="cu" transform="translate(0.000000, 320.000000)" fill-rule="nonzero"><ellipse id="Oval" fill="#FFF" cx="12.476" cy="12.5" rx="12.476" ry="12.5"/><path d="M12.4756823,9.765625e-05 C8.39420078,9.765625e-05 4.7707115,1.96411133 2.49463938,5.00009766 L22.4566764,5.00009766 C20.180653,1.9640625 16.557115,9.765625e-05 12.4756823,9.765625e-05 Z" id="Shape" fill="#0052B4"/><path d="M12.4756823,24.9999512 C16.5571637,24.9999512 20.180653,23.0359375 22.4567251,19.9999512 L2.49463938,19.9999512 C4.77066277,23.0359863 8.39420078,24.9999512 12.4756823,24.9999512 Z" id="Shape" fill="#0052B4"/><path d="M4.87329435e-05,12.5000488 C4.87329435e-05,13.35625 0.086208577,14.1922852 0.249902534,15.0000488 L24.7015107,15.0000488 C24.8652047,14.1922852 24.9513158,13.35625 24.9513158,12.5000488 C24.9513158,11.6438477 24.8651559,10.8078125 24.7015107,10.0000488 L0.249902534,10.0000488 C0.086208577,10.8078125 4.87329435e-05,11.6438477 4.87329435e-05,12.5000488 Z" id="Shape" fill="#0052B4"/><path d="M3.65404483,3.66123047 C-1.21793372,8.54272461 -1.21793372,16.4573242 3.65404483,21.338916 C5.66734893,19.3216797 7.60360624,17.3815918 12.4756335,12.5000977 L3.65404483,3.66123047 Z" id="Shape" fill="#D80027"/><polygon id="Shape" fill="#FFF" points="5.04926901 9.23920898 5.85696881 11.7301758 8.4712963 11.7301758 6.35643275 13.2698242 7.16413255 15.7608398 5.04926901 14.2212891 2.93430799 15.7608398 3.74220273 13.2698242 1.62729045 11.7301758 4.241423 11.7301758"/></g><g id="cr" transform="translate(0.000000, 285.000000)" fill-rule="nonzero"><circle id="Oval" fill="#FFF" cx="12.5" cy="12.5" r="12.5"/><path d="M24.2225098,8.15219727 L0.777490234,8.15219727 C0.275048828,9.50634766 0,10.9709961 0,12.5 C0,14.0290039 0.275048828,15.4936523 0.777490234,16.8478027 L24.2225586,16.8478027 C24.725,15.4936523 25,14.0290039 25,12.5 C25,10.9709961 24.725,9.50634766 24.2225098,8.15219727 Z" id="Shape" fill="#D80027"/><path d="M12.5,0 C8.71137695,0 5.31669922,1.68574219 3.02436523,4.34780273 L21.9755859,4.34780273 C19.6833008,1.68574219 16.288623,0 12.5,0 Z" id="Shape" fill="#0052B4"/><path d="M21.9756348,20.6521973 L3.02436523,20.6521973 C5.31669922,23.3142578 8.71137695,25 12.5,25 C16.288623,25 19.6833008,23.3142578 21.9756348,20.6521973 Z" id="Shape" fill="#0052B4"/></g><g id="co" transform="translate(0.000000, 250.000000)" fill-rule="nonzero"><path d="M0,12.5 C0,5.59648437 5.59648438,0 12.5,0 C19.4035156,0 25,5.59648437 25,12.5 L12.5,13.5869629 L0,12.5 Z" id="Shape" fill="#FFDA44"/><path d="M1.67265625,18.75 C3.8340332,22.4861328 7.87329102,25 12.5,25 C17.126709,25 21.1659668,22.4861328 23.3273438,18.75 L12.5,17.9347656 L1.67265625,18.75 Z" id="Shape" fill="#D80027"/><path d="M23.3273438,18.75 C24.390918,16.9114258 25,14.7769043 25,12.5 L0,12.5 C0,14.7769043 0.609082031,16.9114258 1.67265625,18.75 L23.3273438,18.75 Z" id="Shape" fill="#0052B4"/></g><g id="cl" transform="translate(0.000000, 215.000000)" fill-rule="nonzero"><circle id="Oval" fill="#FFF" cx="12.5" cy="12.5" r="12.5"/><path d="M25,12.5 C25,19.4035156 19.4035156,25 12.5,25 C5.59648437,25 0,19.4035156 0,12.5 C0,5.59648437 12.5,12.5 12.5,12.5 C12.5,12.5 21.9609863,12.5 25,12.5 Z" id="Shape" fill="#D80027"/><path d="M0,12.5 C0,5.59648438 5.59648438,0 12.5,0 C12.5,4.75366211 12.5,12.5 12.5,12.5 C12.5,12.5 4.34780273,12.5 0,12.5 Z" id="Shape" fill="#0052B4"/><polygon id="Shape" fill="#FFF" points="7.44086914 4.34780273 8.25029297 6.83891602 10.8695801 6.83891602 8.75053711 8.3784668 9.55991211 10.8695801 7.44086914 9.32998047 5.32182617 10.8695801 6.13120117 8.3784668 4.0121582 6.83891602 6.63144531 6.83891602"/></g><g id="ca" transform="translate(0.000000, 180.000000)" fill-rule="nonzero"><circle id="Oval" fill="#FFF" cx="12.5" cy="12.5" r="12.5"/><path d="M25,12.5 C25,7.54423828 22.1159668,3.26220703 17.9347656,1.24033203 L17.9347656,23.7596191 C22.1159668,21.737793 25,17.4557617 25,12.5 Z" id="Shape" fill="#D80027"/><path d="M0,12.5 C0,17.4557617 2.8840332,21.737793 7.06523438,23.759668 L7.06523438,1.24033203 C2.8840332,3.26220703 0,7.54423828 0,12.5 Z" id="Shape" fill="#D80027"/><polygon id="Shape" fill="#D80027" points="14.6739258 14.1304199 16.8478027 13.043457 15.7608887 12.5 15.7608887 11.4130371 13.5869629 12.5 14.6739258 10.3260742 13.5869629 10.3260742 12.5 8.6956543 11.4130371 10.3260742 10.3260742 10.3260742 11.4130371 12.5 9.23911133 11.4130371 9.23911133 12.5 8.15219727 13.043457 10.3260742 14.1304199 9.78261719 15.2173828 11.956543 15.2173828 11.956543 16.8478027 13.043457 16.8478027 13.043457 15.2173828 15.2173828 15.2173828"/></g><g id="bz" transform="translate(0.000000, 145.000000)" fill-rule="nonzero"><path d="M25,12.5 C25,8.20991211 22.8384277,4.42509766 19.5452637,2.17392578 L12.5,1.63041992 L5.45473633,2.17387695 C2.16162109,4.42509766 0,8.20996094 0,12.5 C0,16.7901855 2.16162109,20.5749023 5.45473633,22.8260742 L12.5,23.3695801 L19.5452637,22.826123 C22.8384277,20.5749023 25,16.7901855 25,12.5 Z" id="Shape" fill="#0052B4"/><path d="M19.5452637,2.17392578 C17.5391602,0.802539062 15.1134766,0 12.5,0 C9.88657227,0 7.46083984,0.802539062 5.45473633,2.17392578 L19.5452637,2.17392578 Z" id="Shape" fill="#A2001D"/><path d="M5.45473633,22.8260742 C7.46079102,24.1974609 9.88657227,25 12.5,25 C15.1134766,25 17.5391602,24.1974609 19.5452637,22.8260742 L5.45473633,22.8260742 Z" id="Shape" fill="#A2001D"/><circle id="Oval" fill="#FFF" cx="12.5" cy="12.5" r="5.978"/><circle id="Oval" fill="#6DA544" cx="12.5" cy="12.5" r="4.891"/><circle id="Oval" fill="#FFF" cx="12.5" cy="12.5" r="3.261"/><polygon id="Shape" fill="#0052B4" points="12.5 11.6847656 10.7336914 12.5 10.7336914 13.8586914 12.5 14.9456543 14.2663086 13.8586914 14.2663086 12.5"/><rect id="Rectangle-path" fill="#FFDA44" x="10.734" y="10.87" width="3.533" height="1.63"/></g><g id="br" transform="translate(0.000000, 110.000000)" fill-rule="nonzero"><circle id="Oval" fill="#6DA544" cx="12.5" cy="12.5" r="12.5"/><polygon id="Shape" fill="#FFDA44" points="12.5 4.89130859 22.8260742 12.5 12.5 20.1086914 2.17392578 12.5"/><circle id="Oval" fill="#FFF" cx="12.5" cy="12.5" r="4.348"/><g id="Group" transform="translate(8.105469, 8.105469)" fill="#0052B4"><path d="M2.22060547,4.12280273 C1.46455078,4.12280273 0.734912109,4.23779297 0.0480957031,4.45117188 C0.078515625,6.82617188 2.01230469,8.74238281 4.39453125,8.74238281 C5.86757813,8.74238281 7.16855469,8.00913086 7.9550293,6.88847656 C6.60947266,5.20405273 4.53911133,4.12280273 2.22060547,4.12280273 Z" id="Shape"/><path d="M8.66176758,5.22753906 C8.71411133,4.9578125 8.74238281,4.67954102 8.74238281,4.39453125 C8.74238281,1.99326172 6.79580078,0.0467285156 4.39458008,0.0467285156 C2.60288086,0.0467285156 1.06479492,1.13076172 0.399169922,2.67851563 C0.987548828,2.5565918 1.59672852,2.49238281 2.22070312,2.49238281 C4.74594727,2.49233398 7.03041992,3.54204102 8.66176758,5.22753906 Z" id="Shape"/></g></g><g id="bo" transform="translate(0.000000, 75.000000)" fill-rule="nonzero"><path d="M25,12.5 C25,10.9709961 24.725,9.50629883 24.2225098,8.15219727 L12.5,7.60869141 L0.777490234,8.15214844 C0.275,9.50629883 0,10.9709961 0,12.5 C0,14.0290039 0.275,15.4937012 0.777490234,16.8478027 L12.5,17.3913086 L24.2225098,16.8478516 C24.725,15.4937012 25,14.0290039 25,12.5 Z" id="Shape" fill="#FFDA44"/><path d="M12.5,25 C17.8745605,25 22.4563477,21.6078125 24.2225098,16.8478027 L0.777490234,16.8478027 C2.54365234,21.6078125 7.12543945,25 12.5,25 Z" id="Shape" fill="#6DA544"/><path d="M0.777490234,8.15219727 L24.2225586,8.15219727 C22.4563477,3.3921875 17.8745605,0 12.5,0 C7.12543945,0 2.54365234,3.3921875 0.777490234,8.15219727 Z" id="Shape" fill="#D80027"/></g><g id="bl" transform="translate(0.000000, 40.000000)" fill-rule="nonzero"><circle id="Oval" fill="#FFF" cx="12.5" cy="12.5" r="12.5"/><path d="M25,12.5 C25,7.12543945 21.6078125,2.54365234 16.8478027,0.777490234 L16.8478027,24.2225586 C21.6078125,22.4563477 25,17.8745605 25,12.5 Z" id="Shape" fill="#D80027"/><path d="M0,12.5 C0,17.8745605 3.39223633,22.4563477 8.15219727,24.2225098 L8.15219727,0.777490234 C3.39223633,2.54365234 0,7.12543945 0,12.5 Z" id="Shape" fill="#0052B4"/></g><g id="ar" transform="translate(0.000000, 5.000000)" fill-rule="nonzero"><circle id="Oval" fill="#FFF" cx="12.5" cy="12.5" r="12.5"/><path d="M12.5,0 C7.54423828,0 3.26220703,2.8840332 1.24033203,7.06523438 L23.7596191,7.06523438 C21.737793,2.8840332 17.4557129,0 12.5,0 Z" id="Shape" fill="#338AF3"/><path d="M12.5,25 C17.4557129,25 21.737793,22.1159668 23.759668,17.9347656 L1.24033203,17.9347656 C3.26220703,22.1159668 7.54423828,25 12.5,25 Z" id="Shape" fill="#338AF3"/><polygon id="Shape" fill="#FFDA44" points="16.236084 12.5 14.7094727 13.2181152 15.5224121 14.696582 13.8646973 14.3794434 13.6546387 16.0540527 12.5 14.8224121 11.3453125 16.0540527 11.1353027 14.3794434 9.47758789 14.6965332 10.2904785 13.2180664 8.76391602 12.5 10.2905273 11.7818848 9.47758789 10.3034668 11.1352539 10.6205566 11.3453613 8.94594727 12.5 10.1775879 13.6546875 8.94594727 13.8646973 10.6205566 15.5224609 10.3034668 14.7095215 11.7819336"/></g></g></g></svg>