<svg xmlns="http://www.w3.org/2000/svg" width="176" height="172.838" viewBox="0 0 176 172.838">
  <defs>
    <style>
      .cls-1 {
        fill: #1ebbee;
      }
    </style>
  </defs>
  <g id="layer1" transform="translate(-318.391 -278.398)">
    <path id="svg" class="cls-1" d="M494.387,368.866a78.727,78.727,0,0,0-9.905-38.342c26.888-60.852-28.81-51.939-31.911-51.332a141.644,141.644,0,0,0-32.787,10.715c-1.485-.084-2.979-.13-4.484-.13a79.118,79.118,0,0,0-77.091,61.352c19.808-22.222,33.67-31.188,41.972-34.776q-1.988,1.776-3.9,3.587c-.425.4-.834.808-1.253,1.211-.841.809-1.681,1.619-2.5,2.437-.488.486-.963.977-1.443,1.466-.727.74-1.453,1.48-2.163,2.225-.5.529-1,1.059-1.492,1.589-.663.71-1.323,1.421-1.97,2.134-.5.554-1,1.109-1.491,1.665q-.92,1.036-1.82,2.073-.745.861-1.477,1.723-.852,1.006-1.684,2.012c-.491.594-.981,1.186-1.461,1.779-.52.641-1.028,1.282-1.536,1.921-.492.62-.984,1.239-1.464,1.858-.458.59-.9,1.177-1.35,1.765-.505.664-1.014,1.328-1.506,1.989-.352.473-.69.941-1.035,1.413-3.125,4.264-5.98,8.446-8.559,12.463l-.019.03c-.679,1.058-1.334,2.1-1.976,3.133-.034.056-.07.112-.1.169q-.964,1.556-1.869,3.065l-.065.107c-1.627,2.715-3.136,5.332-4.494,7.795a177.535,177.535,0,0,0-10.741,22.463c-22.493,80.416,47.709,46.457,57.505,41.388A79.137,79.137,0,0,0,489.838,395.35H448.283c-6.149,10.388-17.987,17.424-31.587,17.424-19.926,0-36.078-15.1-36.078-33.721H493.74a79.849,79.849,0,0,0,.651-10.186Zm-14.774-77.828c6.811,4.6,12.273,11.816,2.892,36.127a79.352,79.352,0,0,0-38.624-32.06C451.2,291.571,469.326,284.094,479.613,291.039Zm-144.74,148.61c-5.547-5.689-6.528-19.545,5.713-44.793a79.319,79.319,0,0,0,34.439,42.089C367.1,441.306,346.063,451.126,334.873,439.649Zm45.566-82.226c.632-18.1,16.385-32.594,35.741-32.594s35.108,14.493,35.741,32.594Z"/>
  </g>
</svg>
