<svg xmlns="http://www.w3.org/2000/svg" width="247" height="51.38" viewBox="0 0 247 51.38">
  <defs>
    <style>
      .cls-1 {
        fill: #fafafb;
      }

      .cls-1, .cls-2 {
        fill-rule: evenodd;
      }

      .cls-2 {
        fill: #76bc21;
      }
    </style>
  </defs>
  <g id="Grupo_1" data-name="Grupo 1" transform="translate(-18.552 -111.953)">
    <path id="path0" class="cls-1" d="M259.292,47.111l-1.649,2.022A115.816,115.816,0,0,0,249.823,60.1c-.486.768-.9,1.413-.912,1.433s-1.169.329-2.561.686c-5.5,1.41-14.919,4.468-15.495,5.032a32.88,32.88,0,0,0,3.346,2.529c2.81,1.987,5.049,3.59,7.421,5.314.225.164.21.227-.449,1.906-.95,2.425-2.162,5.7-3.088,8.348-1.175,3.36-4.393,12.988-4.342,12.988.025,0,.577-.888,1.229-1.972a226.545,226.545,0,0,1,27.3-36.628c.341-.367.827-.9,1.08-1.187l.46-.519-.519-1.362c-4.057-10.656-3.734-9.887-4.006-9.553M43.99,61.887c-.082.451-.829,4.124-1.661,8.164S40.323,79.8,39.719,82.734s-1.126,5.437-1.16,5.553c-.058.2.143.213,3.04.213h3.1l.064-.273c.036-.15.531-2.54,1.1-5.309s1.073-5.073,1.121-5.116a21.694,21.694,0,0,1,2.513-.14c3.916-.1,5.67-.7,7.586-2.63,3.377-3.394,4.222-10.044,1.579-12.431-1.531-1.383-2.424-1.533-9.139-1.533H44.139l-.149.819m61.337-.667c-.068.186-1.757,8.453-1.757,8.6,0,.254-.218.077-.28-.226-.572-2.848-5.606-3.207-8.156-.582-3.3,3.395-5.532,14.851-3.544,18.163,1.637,2.728,6.305,2.4,8.362-.594.484-.7.513-.617.222.686-.135.61-.247,1.135-.247,1.17s1.311.062,2.913.062a20,20,0,0,0,2.913-.107c0-.059,1.256-6.206,2.792-13.659s2.791-13.578,2.791-13.609a41.018,41.018,0,0,0-6.011.095m27.982.485c-.125.578-1.682,8.124-4.438,21.528-.564,2.744-1.026,5.052-1.026,5.129,0,.1.782.139,2.833.139h2.834l.218-1.062c.245-1.194.376-1.542.466-1.245.675,2.216,1.674,2.883,4.14,2.762a5.985,5.985,0,0,0,4.717-2.459c2.842-3.507,4.962-14.065,3.464-17.252-1.346-2.862-6.448-2.636-8.565.379-.438.623-.4.358.522-4.124.5-2.4.9-4.379.9-4.4s-1.333-.036-2.964-.036h-2.963l-.139.637m-80.84,4.37c2.088,1.067,1.054,6.017-1.407,6.742-.755.222-3.081.2-3.081-.032,0-.186,1.3-6.566,1.4-6.831.1-.293,2.464-.2,3.092.121m19.35,1.242a6.758,6.758,0,0,0-3.777,2.5c-.7.907-.7.908-.353-.717l.293-1.354H65.09c-2.65,0-2.9.017-2.954.213-.033.117-.912,4.363-1.952,9.437s-1.971,9.591-2.07,10.038-.18.871-.18.942a12.243,12.243,0,0,0,2.995.1l3-.032.34-1.639c.187-.9.751-3.643,1.252-6.092,1.442-7.042,1.975-7.764,5.761-7.8l1.51-.015.575-2.786c.424-2.055.537-2.811.433-2.878a4.3,4.3,0,0,0-1.975.086m9.958-.057c-4.452.564-7.119,3.534-8.552,9.527-2.159,9.023-.7,12.121,5.706,12.112,6.221-.009,9.1-3.253,10.742-12.112,1.371-7.392-1.111-10.386-7.9-9.527m96.956.06a6.776,6.776,0,0,0-3.7,2.362c-.537.69-.54.524-.034-1.666l.063-.273h-5.776l-.217,1.062c-1.328,6.483-3.987,19.317-4.037,19.482-.06.2.135.213,2.962.213h3.027l.145-.759c1.293-6.758,2.834-13.667,3.195-14.325,1.121-2.043,3.61-2.087,3.61-.063,0,.519-2.748,14.386-2.971,15-.044.119.6.151,2.95.151h3.005l.832-4.036c.458-2.22,1.214-5.866,1.681-8.1,1.159-5.55,1.167-6.914.05-8.113-.868-.932-2.931-1.332-4.785-.929m15.745-.066c-4.749.6-7.366,3.561-8.736,9.874-1.952,8.99-.293,12.1,6.308,11.818,4.025-.17,6.323-1.638,7.941-5.076a16.938,16.938,0,0,0,1.162-3.595c0-.117-.628-.151-2.735-.151-2.085,0-2.745.036-2.776.151-.023.084-.166.616-.318,1.183-.682,2.543-1.5,3.517-2.952,3.52-1.824,0-2-2.027-.667-7.89,1.028-4.537,2.108-6.213,3.8-5.9,1.261.237,1.593,1.305,1.2,3.866l-.07.457,2.772-.033,2.772-.033.114-.485a14.633,14.633,0,0,0-.1-4.641c-.866-2.335-3.922-3.551-7.714-3.07m17.778,0c-5.3.755-7.939,4.388-9.285,12.8-1.022,6.4.78,8.877,6.436,8.851,6.241-.028,9.159-3.383,10.75-12.361,1-5.623-.048-8.256-3.61-9.1a16.854,16.854,0,0,0-4.291-.186m-56.314.25a7.12,7.12,0,0,0-5.122,3.7,13.076,13.076,0,0,0-1.007,2.813c0,.017,1.2.033,2.666.033h2.665l.138-.516c.427-1.587,1.233-2.277,2.661-2.277,1.32,0,1.788.752,1.413,2.274s-.77,1.776-3.96,2.534c-3.892.925-5.141,1.519-6.264,2.979a9.343,9.343,0,0,0-1.659,7.68c.949,3,6,3.1,8.717.165l.679-.734-.085,1.17L156.7,88.5h5.846l-.132-.379c-.288-.826-.151-1.636,2.169-12.791,1.015-4.884.686-6.537-1.486-7.468a15.244,15.244,0,0,0-7.154-.358m-42.965.512c-2.65,11.288-3.655,17.922-2.917,19.254,1.387,2.505,5.9,2.336,8.51-.32l.868-.881-.223,1.063c-.122.585-.224,1.132-.226,1.216-.009.273,5.664.213,5.747-.061.036-.117.419-1.96.852-4.1s1.338-6.561,2.01-9.832,1.253-6.1,1.29-6.282l.068-.334h-5.942l-.13.577c-.072.317-.732,3.5-1.466,7.07-1.52,7.389-1.632,7.737-2.721,8.466a1.9,1.9,0,0,1-2.215.109c-.693-.6-.717-.434,1.784-12.46.4-1.9.719-3.527.719-3.611,0-.118-.669-.152-2.971-.152h-2.971l-.064.273M83.37,71.32c1,.419,1.038,2.24.123,6.68-1.132,5.489-1.859,6.858-3.646,6.858-1.646,0-1.95-1.253-1.266-5.218,1.156-6.7,2.611-9.231,4.789-8.321m130.716.192c1.3,1.221-.607,11.131-2.487,12.919a1.687,1.687,0,0,1-2.8-.681c-.439-1.609.878-8.529,2.075-10.908.781-1.552,2.308-2.183,3.216-1.33m-112.076.563c.719.72.714,2.09-.024,5.8-.964,4.856-1.9,6.615-3.514,6.615-2.018,0-2.145-2.733-.427-9.188.824-3.1,2.629-4.568,3.965-3.232m38.29-.145c.817.535.854,2.328.121,5.833-1.079,5.159-1.958,6.732-3.763,6.732s-1.936-2.2-.485-8.133c.951-3.891,2.467-5.519,4.127-4.432m125.789,1.91c-6.835,4.7-12.7,9.054-12.478,9.259.087.079.677.463,1.312.854,3.6,2.226,11.436,7.246,17.473,11.2,1.232.808,2.253,1.455,2.269,1.439s-.7-2.84-1.587-6.276-2.287-8.883-3.109-12.1c-.843-3.308-1.55-5.852-1.625-5.845s-1.087.669-2.255,1.473M158.309,78.527c0,1.536-1.183,5-1.915,5.6-1.736,1.432-3.41.5-3.067-1.716.291-1.875.922-2.553,3.123-3.357a13.917,13.917,0,0,0,1.313-.543c.47-.255.545-.252.545.017" transform="translate(-20 65)"/>
    <path id="path0-2" data-name="path0" class="cls-2" d="M348.044,63.261c-.769.023-2.6.1-4.073.168l-2.675.127-.832.819c-7.093,6.98-17.629,19.89-24.831,30.425l-1.2,1.759,2.365-2.077a250.538,250.538,0,0,1,41.8-29.835,11.712,11.712,0,0,0,2-1.242c-.092-.094-10.276-.211-12.546-.143" transform="translate(-95.04 60.503)"/>
  </g>
</svg>
