<?xml version="1.0" encoding="UTF-8"?>
<svg width="41px" height="14px" viewBox="0 0 41 14" version="1.1" xmlns="http://www.w3.org/2000/svg" xmlns:xlink="http://www.w3.org/1999/xlink">
    <!-- Generator: Sketch 58 (84663) - https://sketch.com -->
    <title>Brand</title>
    <desc>Created with Sketch.</desc>
    <g id="Private-CEO" stroke="none" stroke-width="1" fill="none" fill-rule="evenodd">
        <g id="6-Product-CEO" transform="translate(-610.000000, -369.000000)" fill="#FFFFFF">
            <g id="Content" transform="translate(40.000000, 80.000000)">
                <g id="Card" transform="translate(388.000000, 192.000000)">
                    <path d="M203.203396,101.475755 C203.18142,103.426139 204.848316,104.512825 206.104064,105.161161 C207.394088,105.825103 207.826884,106.250449 207.822128,106.843644 C207.812452,107.752598 206.7927,108.153321 205.83904,108.168927 C204.173784,108.196324 203.206676,107.692949 202.436368,107.313727 L201.836784,110.280744 C202.610208,110.656498 204.039304,110.983874 205.520552,111 C209.001288,111 211.277608,109.18296 211.28876,106.366799 C211.303356,102.793929 206.615088,102.596428 206.647068,100.999777 C206.657728,100.514262 207.094788,99.9980555 208.05222,99.865926 C208.526508,99.8003815 209.835884,99.7497492 211.318444,100.471086 L211.900644,97.6001313 C211.102948,97.2942568 210.077784,97 208.80088,97 C205.52662,97 203.2216,98.8406223 203.203396,101.475755 Z M217.498128,97.2477861 C216.86148,97.2477861 216.325528,97.6384523 216.0874,98.2408378 L211.116232,110.788801 L214.594836,110.788801 L215.285768,108.765417 L219.535664,108.765417 L219.935824,110.788801 L223,110.788801 L220.325324,97.2477861 L217.498128,97.2477861 Z M217.983404,100.906142 L218.987084,105.990525 L216.239264,105.990525 L217.983404,100.906142 Z M198.988596,97.2477861 L196.247992,110.788801 L199.560956,110.788801 L202.300576,97.2477861 L198.988596,97.2477861 Z M194.086472,97.2477861 L190.638372,106.463902 L189.243716,98.6278626 C189.080372,97.7528951 188.43372,97.2477861 187.715728,97.2477861 L182.078228,97.2477861 L182,97.6401863 C183.15702,97.906526 184.471972,98.3353398 185.26852,98.7925909 C185.755928,99.0724557 185.895328,99.3167738 186.055556,99.9821028 L188.69694,110.788801 L192.198832,110.788801 L197.566388,97.2477861 L194.086472,97.2477861 Z" id="Brand"></path>
                </g>
            </g>
        </g>
    </g>
</svg>