<svg xmlns="http://www.w3.org/2000/svg" viewBox="0 0 539.27 113.37"><defs><style>.cls-1{fill:#fd0;}.cls-2{fill:#0f265c;}</style></defs><title>logo</title><g id="Layer_2" data-name="Layer 2"><g id="DOS_LINEAS_SIN_TAGLINE" data-name="DOS LINEAS SIN TAGLINE"><path class="cls-1" d="M70.44.74H0V75.16a37.47,37.47,0,0,0,37.46,37.47h74.43V.74ZM93.27,56.6v.08H76.44V36.19H55.94V19.36H93.27Z"/><polygon class="cls-2" points="93.27 56.68 93.27 19.36 55.95 19.36 55.95 36.19 76.44 36.19 76.44 56.68 93.27 56.68"/><path class="cls-2" d="M329.34,65.48H319.4v47.15h10V65.49Zm-51.94,0h-10v47.15h10V93.12h19.77v19.51h10V65.48h-4.87a5.09,5.09,0,0,0-5.09,5.09V84H277.4Zm-72.49,0H195v47.15h10ZM166.34,74.7c6.93,0,10.23,2,10.23,6.79s-3.43,7-10.23,7H159V74.7Zm1.75-9.22H149v47.15h10V97.7h9.08c5.45,0,9.89-1.48,13.32-4.51a15.08,15.08,0,0,0,5.11-11.9q0-7.28-5-11.5c-3.37-2.9-7.8-4.31-13.39-4.31m9.4-32.27c0,4-2.89,5.44-8.46,5.44H159V28h10.28c5.45,0,8.2,1.75,8.2,5.18m-1.14-18.42c0,3.23-2.62,4.84-7.8,4.84H159V10h9.14c5.85,0,8.2,1.28,8.2,4.84m5.25,8.54a11.64,11.64,0,0,0,4.84-9.55c0-8.4-6.39-13-16.27-13H149V47.86h22.32c4.91,0,8.81-1.28,11.76-3.76a12.49,12.49,0,0,0,4.51-10c0-4.37-2-7.93-6-10.75m39,6.38h-11.7l5.85-15.39Zm7,18.15h10.35L220.77,4A5.09,5.09,0,0,0,216,.74H210L191.54,47.86h10.35l3.7-9.28h18.22Zm11.12,16.88c-7.07,0-12.92,2.22-17.62,6.73S214,81.83,214,89.16s2.36,13.11,7.07,17.55,10.76,6.66,18,6.66q11.91,0,19.17-8.88l-6.66-7.06A15.14,15.14,0,0,1,238.75,104a14.16,14.16,0,0,1-10.29-4c-2.75-2.69-4.17-6.38-4.17-11s1.42-8.2,4.17-10.82a13.72,13.72,0,0,1,9.75-4,15.35,15.35,0,0,1,9.47,3.18,5.05,5.05,0,0,0,6.68-.5l3.09-3.15a23,23,0,0,0-18.76-8.88M277.2,47.86h9.09V.74h-10V32.67L258.79,3.22A5.06,5.06,0,0,0,254.43.74h-9.15V47.86h10V16.07l17.54,29.32a5.1,5.1,0,0,0,4.36,2.47m32.63-12.64c-2.75-2.69-4.16-6.38-4.16-11s1.41-8.2,4.16-10.82a13.72,13.72,0,0,1,9.75-4,15.38,15.38,0,0,1,9.56,3.25,5,5,0,0,0,6.58-.57l3.09-3.15A23,23,0,0,0,320.05,0c-7.06,0-12.9,2.22-17.61,6.72s-7.06,10.35-7.06,17.68,2.36,13.11,7.06,17.55,10.76,6.65,17.95,6.65q11.89,0,19.16-8.87l-6.66-7.06a15.12,15.12,0,0,1-12.77,6.59,14.16,14.16,0,0,1-10.29-4m40.95,30.26h-9.15v47.15h10V80.82l17.55,29.33a5.07,5.07,0,0,0,4.36,2.48h9.09V65.48H372.7v32L355.14,68a5.08,5.08,0,0,0-4.36-2.48M383,24.27a15.41,15.41,0,0,1-3.83,10.62A12.74,12.74,0,0,1,369,39.19c-4.37,0-7.8-1.41-10.35-4.3a15.37,15.37,0,0,1-3.83-10.62,15.32,15.32,0,0,1,3.83-10.56A13.25,13.25,0,0,1,369,9.41a12.88,12.88,0,0,1,10,4.37,15.06,15.06,0,0,1,4,10.49M386,41.74a23.42,23.42,0,0,0,7.06-17.47A23.15,23.15,0,0,0,386,6.92,23.69,23.69,0,0,0,368.7,0a23.76,23.76,0,0,0-24.2,24.27A23.67,23.67,0,0,0,368.7,48.6,23.88,23.88,0,0,0,386,41.74M406.21,100C403.45,97.29,402,93.6,402,89s1.41-8.2,4.17-10.82a13.68,13.68,0,0,1,9.75-4,15.3,15.3,0,0,1,9.56,3.25,5,5,0,0,0,6.59-.57l3.09-3.15a23,23,0,0,0-18.77-8.88c-7.06,0-12.91,2.22-17.62,6.73s-7.06,10.36-7.06,17.69,2.35,13.11,7.06,17.55,10.76,6.66,18,6.66q11.89,0,19.17-8.88l-6.66-7.06A15.15,15.15,0,0,1,416.5,104a14.16,14.16,0,0,1-10.29-4m68.7,12.65h9.95V65.48H480a5.09,5.09,0,0,0-5.09,5.09V84H455.14V65.48h-10v47.15h10V93.12h19.77Zm47-18.16h-11.7l5.85-15.4Zm17.36,18.16L522.1,68.72a5.08,5.08,0,0,0-4.73-3.24h-6.08l-18.43,47.15h10.36l3.7-9.28h18.22l3.77,9.28Z"/></g></g></svg>