<svg id="Layer_1" data-name="Layer 1" xmlns="http://www.w3.org/2000/svg" viewBox="0 0 210 62.34"><defs><style>.cls-1{fill:#fd0;}.cls-2{fill:#1b2d54;}</style></defs><title>logo portal</title><path class="cls-1" d="M43.69.27V44H14.63A14.63,14.63,0,0,1,0,29.33V.27H43.69Z"/><polygon class="cls-2" points="36.42 22.08 36.42 7.54 21.84 7.54 21.84 14.11 29.84 14.11 29.84 22.08 36.42 22.08"/><path class="cls-2" d="M121.77,62.23h.74V61h-.74Zm-2.66-1a2.36,2.36,0,0,1-1.47.51c-.8,0-1.26-.4-1.26-1s.42-1.06,1.59-1.06h1.14Zm-2.49-3v-.69a6.17,6.17,0,0,1,1.18-.12c1,0,1.31.38,1.31,1.15v.6h-1.23c-1.12,0-2.24.35-2.24,1.62a1.57,1.57,0,0,0,1.76,1.5,2.53,2.53,0,0,0,1.69-.63h0v.52h1.46v-.62h-.72v-3c0-1.35-.67-1.73-1.89-1.73a10.51,10.51,0,0,0-2,.21v1.22ZM110.29,57v1.33h.61v-.75h2.6v0l-3.29,4.1v.58h4.32V60.9h-.62v.75h-2.77v0l3.27-4.1V57Zm-3.12,5.28h2.15v-.62h-.72v-3c0-1.12-.53-1.73-1.59-1.73a2.8,2.8,0,0,0-2,.87h0V57h-1.47v.62h.73v4h-.73v.62h2.15v-.62H105V58.18a2.81,2.81,0,0,1,1.67-.71c.87,0,1.16.54,1.16,1.27v2.87h-.69Zm-5.86-1a2.38,2.38,0,0,1-1.47.51c-.8,0-1.26-.4-1.26-1s.41-1.06,1.59-1.06h1.14Zm-2.5-3v-.69a6.33,6.33,0,0,1,1.19-.12c1,0,1.31.38,1.31,1.15v.6h-1.23c-1.12,0-2.24.35-2.24,1.62a1.57,1.57,0,0,0,1.76,1.5,2.53,2.53,0,0,0,1.69-.63h0v.52h1.46v-.62h-.72v-3c0-1.35-.67-1.73-1.89-1.73a10.51,10.51,0,0,0-2,.21v1.22ZM95.34,56.1h.74V54.84h-.74Zm-.73,1.47h.73v4h-.73v.62h2.2v-.62h-.73V57H94.61Zm-3.79,4.66h2.32v-.62h-.86V57.49h1.36V57H92.28v-.64c0-.65.22-.87.89-.87a3.21,3.21,0,0,1,.57.05l.08-.58a5.91,5.91,0,0,0-.81-.07c-1.08,0-1.47.4-1.47,1.39V57l-.83,0v.49h.83v4.12h-.72Zm-3,0h2.15v-.62H89.2v-3c0-1.12-.53-1.73-1.59-1.73a2.8,2.8,0,0,0-2,.87h0V57H84.16v.62h.73v4h-.73v.62h2.16v-.62h-.69V58.18a2.84,2.84,0,0,1,1.67-.71c.87,0,1.16.54,1.16,1.27v2.87h-.69Zm-7.06.11c1.72,0,2.36-1.12,2.36-2.75s-.64-2.74-2.36-2.74S78.34,58,78.34,59.59s.64,2.75,2.37,2.75m0-4.87c1.22,0,1.58,1,1.58,2.12s-.36,2.13-1.58,2.13-1.59-.95-1.59-2.13.36-2.12,1.59-2.12m-3.6.81v-1.2a6.54,6.54,0,0,0-1.76-.23c-1.87,0-2.53,1.12-2.53,2.74s.66,2.75,2.53,2.75a6.54,6.54,0,0,0,1.76-.23l-.13-.6a5.8,5.8,0,0,1-1.63.21c-1.26,0-1.74-.91-1.74-2.13s.48-2.12,1.74-2.12a4.82,4.82,0,0,1,1.15.12v.69Zm-9.75,3.95h2.15v-.62h-.72v-3c0-1.12-.53-1.73-1.59-1.73a2.8,2.8,0,0,0-2,.87h0V57H63.75v.62h.73v4h-.73v.62H65.9v-.62h-.68V58.18a2.84,2.84,0,0,1,1.67-.71c.87,0,1.16.54,1.16,1.27v2.87h-.69Zm-10-7.18v.62h.73v5.94h-.73v.62h5.25V60.82H62v.79H58.92v-2.8h3.21V58.2H58.92V55.67H62v.8h.62V55.05Z"/><path class="cls-2" d="M66.83,18.62a6.86,6.86,0,0,0,4.58-1.46,4.85,4.85,0,0,0,1.75-3.9,4.93,4.93,0,0,0-2.33-4.18,4.52,4.52,0,0,0,1.89-3.72c0-3.27-2.49-5.07-6.33-5.07H58.15V18.62Zm-4.78-7.71h4c2.12,0,3.19.68,3.19,2,0,1.54-1.13,2.12-3.3,2.12H62.05Zm3.55-7c2.28,0,3.19.5,3.19,1.88s-1,1.89-3,1.89H62.05V3.87Z"/><path class="cls-2" d="M81.45,11.56l2.28-6,2.27,6Zm4.62-10A2,2,0,0,0,84.23.29H81.87L74.7,18.62h4L80.17,15h7.09l1.46,3.61h4Z"/><path class="cls-2" d="M111.57,18.62V.29H107.7V12.71L100.87,1.25a2,2,0,0,0-1.7-1H95.61V18.62h3.9V6.25l6.83,11.41a2,2,0,0,0,1.7,1Z"/><path class="cls-2" d="M129.7,12.71a5.88,5.88,0,0,1-5,2.56,5.52,5.52,0,0,1-4-1.56,5.76,5.76,0,0,1-1.62-4.29,5.56,5.56,0,0,1,1.62-4.21,5.3,5.3,0,0,1,3.79-1.57,6,6,0,0,1,3.72,1.26,1.94,1.94,0,0,0,2.56-.22L132,3.45A8.92,8.92,0,0,0,124.71,0a9.49,9.49,0,0,0-6.86,2.62,9,9,0,0,0-2.74,6.87,9,9,0,0,0,2.74,6.83,9.86,9.86,0,0,0,7,2.59,9.16,9.16,0,0,0,7.45-3.45Z"/><path class="cls-2" d="M147.69,13.57a4.94,4.94,0,0,1-3.95,1.68,5.08,5.08,0,0,1-4-1.68,6,6,0,0,1-1.49-4.13,6,6,0,0,1,1.49-4.1,5.15,5.15,0,0,1,4-1.68,5,5,0,0,1,3.9,1.7,5.89,5.89,0,0,1,1.54,4.08,6,6,0,0,1-1.49,4.13m2.69-10.88A9.25,9.25,0,0,0,143.63,0a9.24,9.24,0,0,0-9.41,9.44,9.21,9.21,0,0,0,9.41,9.47,9.31,9.31,0,0,0,6.75-2.67,9.12,9.12,0,0,0,2.75-6.8,9,9,0,0,0-2.75-6.75"/><path class="cls-2" d="M198.7,36.76l2.27-6,2.28,6Zm4.62-10a2,2,0,0,0-1.84-1.26h-2.37l-7.17,18.34h4l1.44-3.61h7.09L206,43.82h4Z"/><path class="cls-2" d="M98.05,37.91a5.91,5.91,0,0,1-5,2.56,5.49,5.49,0,0,1-4-1.57,5.73,5.73,0,0,1-1.62-4.29,5.56,5.56,0,0,1,1.62-4.21,5.3,5.3,0,0,1,3.79-1.57,6,6,0,0,1,3.69,1.23,2,2,0,0,0,2.6-.19l1.2-1.23a8.93,8.93,0,0,0-7.3-3.45,9.48,9.48,0,0,0-6.86,2.62,9,9,0,0,0-2.75,6.88,9,9,0,0,0,2.75,6.83,9.86,9.86,0,0,0,7,2.59,9.17,9.17,0,0,0,7.46-3.45Z"/><rect class="cls-2" x="76.03" y="25.48" width="3.87" height="18.34"/><polyline class="cls-2" points="128.32 25.48 124.45 25.48 124.45 43.82 128.32 43.82 128.32 25.48 128.32 25.48"/><path class="cls-2" d="M119.68,43.82V25.48h-1.9a2,2,0,0,0-2,2v5.21h-7.69V25.48h-3.9V43.82h3.9V36.23h7.69v7.59Z"/><path class="cls-2" d="M64.9,34.43H62.05V29.06H64.9c2.7,0,4,.79,4,2.65s-1.34,2.72-4,2.72m5.89-7.28a7.73,7.73,0,0,0-5.21-1.67H58.15V43.82h3.9V38h3.53a7.51,7.51,0,0,0,5.18-1.75,5.85,5.85,0,0,0,2-4.63,5.53,5.53,0,0,0-2-4.48"/><path class="cls-2" d="M149.06,43.82V25.48h-3.87V37.91l-6.83-11.47a2,2,0,0,0-1.7-1H133.1V43.82H137V31.45l6.83,11.41a2,2,0,0,0,1.7,1Z"/><path class="cls-2" d="M167.2,37.91a5.88,5.88,0,0,1-5,2.56,5.49,5.49,0,0,1-4-1.57,5.73,5.73,0,0,1-1.62-4.29,5.56,5.56,0,0,1,1.62-4.21A5.3,5.3,0,0,1,162,28.83a6,6,0,0,1,3.72,1.26,1.94,1.94,0,0,0,2.57-.22l1.2-1.22a8.92,8.92,0,0,0-7.3-3.46,9.48,9.48,0,0,0-6.86,2.62,9,9,0,0,0-2.75,6.88,9,9,0,0,0,2.75,6.83,9.86,9.86,0,0,0,7,2.59,9.17,9.17,0,0,0,7.46-3.45Z"/><path class="cls-2" d="M188.83,43.82V25.48h-1.89a2,2,0,0,0-2,2v5.21h-7.69V25.48h-3.9V43.82h3.9V36.23H185v7.59Z"/></svg>