<svg xmlns="http://www.w3.org/2000/svg" xmlns:xlink="http://www.w3.org/1999/xlink" width="200" height="130" viewBox="0 0 200 130"><defs><style>.a{fill:#49747a;}.b{fill:url(#a);}</style><linearGradient id="a" x1="0.5" x2="0.5" y2="0.899" gradientUnits="objectBoundingBox"><stop offset="0" stop-color="#49747a" stop-opacity="0"/><stop offset="1" stop-color="#2c4144"/></linearGradient></defs><g transform="translate(-1974 -1554)"><g transform="translate(1974 1554)"><g transform="translate(0 0)"><path class="a" d="M10,0H190a10,10,0,0,1,10,10V120a10,10,0,0,1-10,10H10A10,10,0,0,1,0,120V10A10,10,0,0,1,10,0Z"/></g><path class="b" d="M10,0H190a10,10,0,0,1,10,10V120a10,10,0,0,1-10,10H10A10,10,0,0,1,0,120V10A10,10,0,0,1,10,0Z"/></g><rect width="200" height="25" transform="translate(1974 1570)"/></g></svg>