<svg xmlns="http://www.w3.org/2000/svg" xmlns:xlink="http://www.w3.org/1999/xlink" width="201" height="124" viewBox="0 0 201 124"><defs><style>.a{clip-path:url(#a);}.b{fill:#e77032;}.c{fill:#eb8437;}.d{fill:#ed8e3b;}</style><clipPath id="a"><path d="M189.937,124H10.063A10.064,10.064,0,0,1,0,113.994V10.006A10.064,10.064,0,0,1,10.063,0H189.937A10.064,10.064,0,0,1,200,10.006V113.994A10.064,10.064,0,0,1,189.937,124Z"/></clipPath></defs><g class="a" transform="translate(1)"><path class="b" d="M179.947,110.545H-7.085a10.065,10.065,0,0,1-10.063-10.006V-13.538A10.065,10.065,0,0,1-7.085-23.544H179.946A10.065,10.065,0,0,1,190.01-13.538V100.539A10.064,10.064,0,0,1,179.947,110.545Z" transform="translate(13.718 18.862)"/></g><g class="a"><path class="c" d="M0-2.259l67.188,30.63,62.76-20.6,6.51.772,34.865,40.133,15.656-27.27L200,18.15,119.1-2.259l-37.326,24.7L84.2-2.259Z" transform="translate(0 1.81)"/><path class="d" d="M411.285-2.259l-2.431,24.7,37.326-24.7,80.9,20.409V-2.259Z" transform="translate(-327.083 1.81)"/></g><rect width="200" height="25" transform="translate(1 14)"/></svg>