<svg xmlns="http://www.w3.org/2000/svg" xmlns:xlink="http://www.w3.org/1999/xlink" width="186.415" height="123.804" viewBox="0 0 186.415 123.804"><defs><style>.a{fill:#fbe706;}.b{clip-path:url(#a);}.c{fill:#f5ea61;}</style><clipPath id="a"><rect width="123.804" height="99.945"/></clipPath></defs><g transform="translate(0 123.804) rotate(-90)"><path class="a" d="M6.66,186.415a6.154,6.154,0,0,1-6.117-6.187V6.187A6.154,6.154,0,0,1,6.66,0H118.049a6.153,6.153,0,0,1,6.117,6.187V180.228a6.153,6.153,0,0,1-6.117,6.187H6.66Z" transform="translate(-0.381 0)"/><g transform="translate(0 31.88)"><g class="b"><path class="c" d="M74.039,159.129A35.538,35.538,0,0,0,7.36,160.3a34.937,34.937,0,0,0-.989,19.8c.144.54.275,1.084.432,1.621A22.394,22.394,0,0,1-8.509,209.491l-.024.007-.024.006A22.494,22.494,0,0,1-36.4,194.215c-.156-.537-.337-1.066-.5-1.6a35.056,35.056,0,0,0-11.47-16.2A35.517,35.517,0,0,0-80.4,170.082a35.386,35.386,0,0,0-24.93,40.9s.283,1.441.419,1.757a6.5,6.5,0,0,0,7.9,4.024,6.623,6.623,0,0,0,4.449-8.056A22.215,22.215,0,0,1-89.854,192.6a22.53,22.53,0,0,1,13.077-10.048,22.5,22.5,0,0,1,27.313,13.7l.606,1.716a35.11,35.11,0,0,0,11.9,17.678A35.531,35.531,0,0,0-4.93,221.97l.025-.006.024-.007a35.387,35.387,0,0,0,23.658-22.429,35,35,0,0,0,.559-21.28l-.41-1.772a22.506,22.506,0,0,1,43.106-12.461,6.652,6.652,0,0,0,8.084,4.434,6.47,6.47,0,0,0,4.512-7.612c-.057-.34-.59-1.708-.59-1.708" transform="translate(74.308 -127.426)"/></g></g></g></svg>