<svg xmlns="http://www.w3.org/2000/svg" xmlns:xlink="http://www.w3.org/1999/xlink" width="200" height="124" viewBox="0 0 200 124"><defs><style>.a,.c{clip-path:url(#a);}.b{fill:#ec730a;}.c{opacity:0.2;}.d{fill:#fff;}</style><clipPath id="a"><path d="M200,116.707A7.358,7.358,0,0,1,192.581,124H7.419A7.358,7.358,0,0,1,0,116.707V7.293A7.357,7.357,0,0,1,7.419,0H192.581A7.357,7.357,0,0,1,200,7.293V116.707Z"/></clipPath></defs><g class="a"><rect class="b" width="226.19" height="147.175" transform="translate(-11.647 -8.568)"/></g><g class="c"><path class="d" d="M-96.736,17.989h40.074L-96.837-21.959Zm5.23-69.293,69.687,69.293V-16.658L-56.662-51.3Z" transform="translate(77.469 41.101)"/><path class="d" d="M278.183-51.3v34.646L313.027-51.3Zm69.687,0L278.183,17.989h34.844L347.87-16.658V-51.3Z" transform="translate(-222.546 41.101)"/><path class="d" d="M-57.111,366.421h34.844V331.775Zm0-69.293L-96.7,336.5l-.7,35.338,75.131-74.706Z" transform="translate(77.919 -238.038)"/><path class="d" d="M278.183,297.128v34.646l34.843,34.647H347.87Zm69.687,0H313.027l34.844,34.646Z" transform="translate(-222.546 -238.038)"/><path class="d" d="M626.617,17.989H661.46L626.616-16.658Zm0-69.293L696.3,17.989V-16.658L661.46-51.3Z" transform="translate(-501.292 41.101)"/><path class="d" d="M974.979-51.3v34.646L1009.823-51.3Zm0,69.292" transform="translate(-779.981 41.101)"/><path class="d" d="M696.3,297.129H661.46l-34.844,34.646v34.647Zm0,69.292V331.775L661.46,366.422Z" transform="translate(-501.292 -238.039)"/><path class="d" d="M974.982,297.128v34.646l34.844,34.646m0-69.293" transform="translate(-779.984 -238.038)"/></g><rect width="200" height="25" transform="translate(0 15)"/></svg>