<svg xmlns="http://www.w3.org/2000/svg" width="36" height="30.948" viewBox="0 0 36 30.948">
  <defs>
    <style>
      .cls-1 {
        fill: #eb0029;
      }

      .cls-1, .cls-3 {
        fill-rule: evenodd;
      }

      .cls-2, .cls-3 {
        fill: #fff;
      }
    </style>
  </defs>
  <g id="_7-Lotes-CEO" data-name="7-Lotes-CEO" transform="translate(-1077 -145.026)">
    <g id="Warning" transform="translate(1064 129)">
      <g id="danger" transform="translate(13 16)">
        <path id="Path" class="cls-1" d="M35.683,27.592,19.889,1.1a2.193,2.193,0,0,0-3.778,0L.317,27.592A2.252,2.252,0,0,0,.285,29.84a2.2,2.2,0,0,0,1.921,1.134H33.794a2.2,2.2,0,0,0,1.921-1.134A2.252,2.252,0,0,0,35.683,27.592Z"/>
        <path id="Path-2" data-name="Path" class="cls-1" d="M18,.026A2.2,2.2,0,0,0,16.111,1.1L.317,27.592A2.252,2.252,0,0,0,.285,29.84a2.2,2.2,0,0,0,1.921,1.134H18V.026Z"/>
        <path id="Shape" class="cls-2" d="M31.312,28.07H4.719a.708.708,0,0,1-.613-.356A.724.724,0,0,1,4.1,27L17.383,3.344A.708.708,0,0,1,18,2.981h0a.708.708,0,0,1,.616.363L31.928,27a.724.724,0,0,1,0,.715A.708.708,0,0,1,31.312,28.07ZM5.937,26.635H30.092L18,5.149Z"/>
        <path id="Path-3" data-name="Path" class="cls-3" d="M18.023,26.635H5.937L18,5.149V2.981h0a.707.707,0,0,0-.616.363L4.1,27a.724.724,0,0,0,0,.715.708.708,0,0,0,.613.356h13.3V26.635Z"/>
        <path id="Shape-2" data-name="Shape" class="cls-2" d="M19.643,24.095a1.664,1.664,0,0,1-1.609,1.648,1.649,1.649,0,1,1,1.609-1.648Zm-.4-4.067c0,.664-.72.942-1.228.942-.677,0-1.249-.278-1.249-.942,0-2.547-.3-6.208-.3-8.755,0-.835.677-1.306,1.545-1.306a1.365,1.365,0,0,1,1.524,1.306C19.537,13.82,19.241,17.48,19.241,20.028Z"/>
      </g>
    </g>
  </g>
</svg>
