<svg xmlns="http://www.w3.org/2000/svg" width="639.948" height="447.9" viewBox="0 0 639.948 447.9">
  <defs>
    <style>
      .cls-1 {
        fill: #707070;
      }
    </style>
  </defs>
  <path id="icon-user" class="cls-1" d="M610.5,341.3a117.307,117.307,0,0,0,0-42.6l25.8-14.9a7.241,7.241,0,0,0,3.3-8.5,150.07,150.07,0,0,0-33.2-57.4,7.293,7.293,0,0,0-9-1.4l-25.8,14.9a117.4,117.4,0,0,0-36.9-21.3V180.3a7.281,7.281,0,0,0-5.7-7.1,150.878,150.878,0,0,0-66.2,0,7.281,7.281,0,0,0-5.7,7.1v29.8a117.4,117.4,0,0,0-36.9,21.3l-25.8-14.9a7.314,7.314,0,0,0-9,1.4,150.07,150.07,0,0,0-33.2,57.4,7.365,7.365,0,0,0,3.3,8.5l25.8,14.9a117.306,117.306,0,0,0,0,42.6l-25.8,14.9a7.241,7.241,0,0,0-3.3,8.5,150.816,150.816,0,0,0,33.2,57.4,7.293,7.293,0,0,0,9,1.4l25.8-14.9a117.4,117.4,0,0,0,36.9,21.3v29.8a7.281,7.281,0,0,0,5.7,7.1,150.878,150.878,0,0,0,66.2,0,7.281,7.281,0,0,0,5.7-7.1V429.9a117.4,117.4,0,0,0,36.9-21.3l25.8,14.9a7.314,7.314,0,0,0,9-1.4,150.071,150.071,0,0,0,33.2-57.4,7.366,7.366,0,0,0-3.3-8.5ZM496,368.5A48.5,48.5,0,1,1,544.5,320,48.5,48.5,0,0,1,496,368.5ZM96,224a64,64,0,1,0-64-64,64,64,0,0,0,64,64Zm224,32c1.9,0,3.7-.5,5.6-.6a184.35,184.35,0,0,1,36.3-59.2,39.415,39.415,0,0,1,28.9-12.6,38.437,38.437,0,0,1,19.6,5.3l7.9,4.6c.8-.5,1.6-.9,2.4-1.4a110.688,110.688,0,0,0,11.2-48A111.95,111.95,0,1,0,319.983,256ZM425.2,450.5c-2.3-1.2-4.6-2.6-6.8-3.9-8.2,4.8-15.3,9.8-27.5,9.8A39.747,39.747,0,0,1,362,443.8a182.343,182.343,0,0,1-40.2-69.6c-10.7-34.5,24.9-49.7,25.8-50.3q-.15-3.9,0-7.8l-7.9-4.6a40.734,40.734,0,0,1-9.8-8.1c-3.3.2-6.5.6-9.8.6-24.6,0-47.6-6-68.5-16h-8.3A115.251,115.251,0,0,0,128,403.2V432a48.012,48.012,0,0,0,48,48H431.4a38.5,38.5,0,0,1-6.2-20.3v-9.2ZM173.1,274.6A63.812,63.812,0,0,0,128,256H64A64.059,64.059,0,0,0,0,320v32a31.966,31.966,0,0,0,32,32H97.9a146.641,146.641,0,0,1,75.2-109.4Z" transform="translate(0 -32.1)"/>
</svg>
