<svg xmlns="http://www.w3.org/2000/svg" width="448" height="512" viewBox="0 0 448 512">
  <defs>
    <style>
      .cls-1 {
        fill: #707070;
      }
    </style>
  </defs>
  <path id="icon-building" class="cls-1" d="M436,480H416V24A24,24,0,0,0,392,0H56A24,24,0,0,0,32,24V480H12A12,12,0,0,0,0,492v20H448V492a12,12,0,0,0-12-12ZM128,76a12,12,0,0,1,12-12h40a12,12,0,0,1,12,12v40a12,12,0,0,1-12,12H140a12,12,0,0,1-12-12Zm0,96a12,12,0,0,1,12-12h40a12,12,0,0,1,12,12v40a12,12,0,0,1-12,12H140a12,12,0,0,1-12-12Zm52,148H140a12,12,0,0,1-12-12V268a12,12,0,0,1,12-12h40a12,12,0,0,1,12,12v40A12,12,0,0,1,180,320Zm76,160H192V396a12,12,0,0,1,12-12h40a12,12,0,0,1,12,12Zm64-172a12,12,0,0,1-12,12H268a12,12,0,0,1-12-12V268a12,12,0,0,1,12-12h40a12,12,0,0,1,12,12Zm0-96a12,12,0,0,1-12,12H268a12,12,0,0,1-12-12V172a12,12,0,0,1,12-12h40a12,12,0,0,1,12,12Zm0-96a12,12,0,0,1-12,12H268a12,12,0,0,1-12-12V76a12,12,0,0,1,12-12h40a12,12,0,0,1,12,12Z"/>
</svg>
