<svg xmlns="http://www.w3.org/2000/svg" width="512" height="448" viewBox="0 0 512 448">
  <defs>
    <style>
      .cls-1 {
        fill: #707070;
      }
    </style>
  </defs>
  <path id="icon-briefcase" class="cls-1" d="M320,336a16,16,0,0,1-16,16H208a16,16,0,0,1-16-16V288H0V432c0,25.6,22.4,48,48,48H464c25.6,0,48-22.4,48-48V288H320ZM464,128H384V80c0-25.6-22.4-48-48-48H176c-25.6,0-48,22.4-48,48v48H48c-25.6,0-48,22.4-48,48v80H512V176C512,150.4,489.6,128,464,128Zm-144,0H192V96H320Z" transform="translate(0 -32)"/>
</svg>
