<svg xmlns="http://www.w3.org/2000/svg" xmlns:xlink="http://www.w3.org/1999/xlink" width="200" height="124.492" viewBox="0 0 200 124.492"><defs><style>.a{clip-path:url(#a);}.b{clip-path:url(#b);}.c{fill:none;}.d{fill:url(#c);}</style><clipPath id="a"><path d="M14.66,6.7H199.74a7.429,7.429,0,0,1,7.46,7.46h0V123.733a7.429,7.429,0,0,1-7.46,7.46H14.66a7.429,7.429,0,0,1-7.46-7.46V14.077A7.519,7.519,0,0,1,14.66,6.7Z" transform="translate(2688.8 2065.3)"/></clipPath><clipPath id="b"><rect width="210.278" height="137.091"/></clipPath><radialGradient id="c" cx="0.5" cy="0.5" r="0.814" gradientTransform="translate(0 0)" gradientUnits="objectBoundingBox"><stop offset="0" stop-color="#096baf"/><stop offset="1" stop-color="#113e69"/></radialGradient></defs><g transform="translate(-2696 -2072)"><g class="a"><g transform="translate(2690.032 2066.447)"><g transform="translate(0 0.332)"><g class="b"><path class="c" d="M199.809,131.075c4.061,0,7.46-4.393,7.46-8.454V13.794a7.448,7.448,0,0,0-7.46-7.294H14.977A7.323,7.323,0,0,0,7.6,13.794V122.621c0,3.978,3.315,8.454,7.46,8.454Z" transform="translate(-1.301 -1.444)"/></g></g><path class="d" d="M14.66,6.7H199.74a7.429,7.429,0,0,1,7.46,7.46h0V123.733a7.429,7.429,0,0,1-7.46,7.46H14.66a7.429,7.429,0,0,1-7.46-7.46V14.077A7.519,7.519,0,0,1,14.66,6.7Z" transform="translate(-1.232 -0.147)"/></g></g><rect width="200" height="24.902" transform="translate(2696 2088)"/></g></svg>