<svg xmlns="http://www.w3.org/2000/svg" xmlns:xlink="http://www.w3.org/1999/xlink" width="191.54" height="123.8" viewBox="0 0 191.54 123.8"><defs><clipPath id="a"><path d="M9.577,0H181.963a9.577,9.577,0,0,1,9.577,9.577V114.223a9.577,9.577,0,0,1-9.577,9.577H9.577A9.577,9.577,0,0,1,0,114.223V9.577A9.577,9.577,0,0,1,9.577,0Z" transform="translate(88.2 95)" fill="none" stroke="#707070" stroke-width="1"/></clipPath></defs><g transform="translate(-88.2 -95)" clip-path="url(#a)"><g transform="translate(88.2 95)"><path d="M9.577,0H181.963a9.577,9.577,0,0,1,9.577,9.577V114.223a9.577,9.577,0,0,1-9.577,9.577H9.577A9.577,9.577,0,0,1,0,114.223V9.577A9.577,9.577,0,0,1,9.577,0Z" transform="translate(0 0)" fill="#fff"/></g><g transform="translate(-3632.8 -897)"><path d="M3832.333,1235l154,92H3784.25v-63.5Z" transform="translate(-63 -209)" fill="#eff0f1"/><path d="M3784.25,1263.833V1205l48.083,30Z" transform="translate(-63 -209)" fill="#dedfe0"/><path d="M3892.25,1201.5l-59.969,33.5-56.344-35Z" transform="translate(-63 -209)" fill="#eff0f1"/></g><rect width="191" height="25" transform="translate(88.2 110)"/><path d="M9.577,0H181.963a9.577,9.577,0,0,1,9.577,9.577V114.223a9.577,9.577,0,0,1-9.577,9.577H9.577A9.577,9.577,0,0,1,0,114.223V9.577A9.577,9.577,0,0,1,9.577,0Z" transform="translate(88.2 95)" fill="none" stroke="#707070" stroke-width="1"/></g></svg>