<svg xmlns="http://www.w3.org/2000/svg" xmlns:xlink="http://www.w3.org/1999/xlink" width="190.462" height="123.8" viewBox="0 0 190.462 123.8"><defs><style>.a,.c{stroke:#1f4d9b;stroke-width:0.5px;}.a{fill:url(#a);}.b{clip-path:url(#b);}.c{fill:none;}.d{clip-path:url(#c);}.e{fill:#a0408a;}.f{fill:#9f3f89;}.g{fill:#9e3f88;}.h{fill:#9d3e88;}.i{fill:#9c3e87;}.j{fill:#9b3d86;}.k{fill:#9a3d86;}.l{fill:#993c85;}.m{fill:#983c85;}.n{fill:#973b84;}.o{fill:#963b83;}.p{fill:#953a83;}.q{fill:#943a82;}.r{fill:#933981;}.s{fill:#923981;}.t{fill:#913880;}.u{fill:#903880;}.v{fill:#8f377f;}.w{fill:#8e377e;}.x{fill:#8d367e;}.y{fill:#8c367d;}.z{fill:#8b357d;}.aa{fill:#8a357c;}.ab{fill:#89347b;}.ac{fill:#88347b;}.ad{fill:#87337a;}.ae{fill:#863379;}.af{fill:#853279;}.ag{fill:#843278;}.ah{fill:#833178;}.ai{fill:#823177;}.aj{fill:#813076;}.ak{fill:#803076;}.al{fill:#7f2f75;}.am{fill:#7e2f75;}.an{fill:#7c2e74;}.ao{fill:#7b2d73;}.ap{fill:#7a2d73;}.aq{fill:#792c72;}.ar{fill:#782c71;}.as{fill:#772b71;}.at{fill:#762b70;}.au{fill:#752a70;}.av{fill:#742a6f;}.aw{fill:#73296e;}.ax{fill:#72296e;}.ay{fill:#71286d;}.az{fill:#70286c;}.ba{fill:#6f276c;}.bb{fill:#6e276b;}.bc{fill:#6d266b;}.bd{fill:#6c266a;}.be{fill:#6b2569;}.bf{fill:#6a2569;}.bg{fill:#692468;}.bh{fill:#682468;}.bi{fill:#672367;}.bj{fill:#fff;}.bk{fill:#f7931e;}</style><linearGradient id="a" x1="0.5" x2="0.5" y2="1" gradientUnits="objectBoundingBox"><stop offset="0" stop-color="#288ec7"/><stop offset="1" stop-color="#1f4d9b"/></linearGradient><clipPath id="b"><rect class="a" width="190.462" height="123.8" rx="8" transform="translate(2975.5 1379.5)"/></clipPath><clipPath id="c"><path d="M9.043-.07h108.4a8.192,8.192,0,0,1,8.193,8.193V195.931a8.192,8.192,0,0,1-8.193,8.193H9.043A8.192,8.192,0,0,1,.85,195.931V8.123A8.179,8.179,0,0,1,9.043-.07Z" transform="translate(-0.85 0.07)"/></clipPath></defs><g class="b" transform="translate(-2975.5 -1379.5)"><rect class="c" width="190.462" height="123.8" rx="4.1" transform="translate(2974.5 1379)"/><g transform="translate(2969.07 1504.637) rotate(-90)"><g transform="translate(0.85 -0.07)"><g class="d"><path class="e" d="M.84,198.02l3.336,2.092H.84Z" transform="translate(-0.85 4.082)"/></g><g class="d"><path class="f" d="M.84,193.1l11.335,7.111h-8L.84,198.12Z" transform="translate(-0.85 3.983)"/></g><g class="d"><path class="g" d="M.84,188.17l19.334,12.141h-8L.84,193.2Z" transform="translate(-0.85 3.883)"/></g><g class="d"><path class="h" d="M.84,183.24l27.333,17.171h-8L.84,188.27Z" transform="translate(-0.85 3.783)"/></g><g class="d"><path class="i" d="M.84,178.32l35.331,22.191h-8L.84,183.34Z" transform="translate(-0.85 3.683)"/></g><g class="d"><path class="j" d="M.84,173.39l43.33,27.22h-8L.84,178.42Z" transform="translate(-0.85 3.583)"/></g><g class="d"><path class="k" d="M.84,168.47l51.329,32.24h-8L.84,173.49Z" transform="translate(-0.85 3.484)"/></g><g class="d"><path class="l" d="M.84,163.54l59.328,37.27h-8L.84,168.57Z" transform="translate(-0.85 3.384)"/></g><g class="d"><path class="m" d="M.84,158.61l67.327,42.3h-8L.84,163.64Z" transform="translate(-0.85 3.284)"/></g><g class="d"><path class="n" d="M.84,153.69l75.325,47.319h-8L.84,158.71Z" transform="translate(-0.85 3.184)"/></g><g class="d"><path class="o" d="M.84,148.76l83.324,52.349h-8L.84,153.79Z" transform="translate(-0.85 3.085)"/></g><g class="d"><path class="p" d="M.84,143.83l91.323,57.379h-8L.84,148.86Z" transform="translate(-0.85 2.985)"/></g><g class="d"><path class="q" d="M.84,138.91l99.312,62.4H92.163L.84,143.93Z" transform="translate(-0.85 2.885)"/></g><g class="d"><path class="r" d="M.84,133.98l107.31,67.429h-8L.84,139.01Z" transform="translate(-0.85 2.785)"/></g><g class="d"><path class="s" d="M.84,129.06l115.309,72.448h-8L.84,134.08Z" transform="translate(-0.85 2.685)"/></g><g class="d"><path class="t" d="M.84,124.13l123.308,77.478h-8L.84,129.16Z" transform="translate(-0.85 2.586)"/></g><g class="d"><path class="u" d="M.84,119.2l124.8,78.417v1.928l-1.367,2.163h-.122L.84,124.23Z" transform="translate(-0.85 2.486)"/></g><g class="d"><path class="v" d="M.84,114.28l124.8,78.407v5.03L.84,119.3Z" transform="translate(-0.85 2.386)"/></g><g class="d"><path class="w" d="M.84,109.35l124.8,78.417v5.02L.84,114.38Z" transform="translate(-0.85 2.286)"/></g><g class="d"><path class="x" d="M.84,104.42l124.8,78.417v5.03L.84,109.45Z" transform="translate(-0.85 2.186)"/></g><g class="d"><path class="y" d="M.84,99.5l124.8,78.407v5.03L.84,104.52Z" transform="translate(-0.85 2.087)"/></g><g class="d"><path class="z" d="M.84,94.57l124.8,78.417v5.02L.84,99.6Z" transform="translate(-0.85 1.987)"/></g><g class="d"><path class="aa" d="M.84,89.65l124.8,78.407v5.03L.84,94.67Z" transform="translate(-0.85 1.887)"/></g><g class="d"><path class="ab" d="M.84,84.72l124.8,78.417v5.02L.84,89.75Z" transform="translate(-0.85 1.787)"/></g><g class="d"><path class="ac" d="M.84,79.79l124.8,78.417v5.03L.84,84.82Z" transform="translate(-0.85 1.688)"/></g><g class="d"><path class="ad" d="M.84,74.87l124.8,78.407v5.03L.84,79.89Z" transform="translate(-0.85 1.588)"/></g><g class="d"><path class="ae" d="M.84,69.94l124.8,78.417v5.02L.84,74.97Z" transform="translate(-0.85 1.488)"/></g><g class="d"><path class="af" d="M.84,65.01l124.8,78.417v5.03L.84,70.04Z" transform="translate(-0.85 1.388)"/></g><g class="d"><path class="ag" d="M.84,60.09l124.8,78.407v5.03L.84,65.11Z" transform="translate(-0.85 1.289)"/></g><g class="d"><path class="ah" d="M.84,55.16l124.8,78.417v5.02L.84,60.19Z" transform="translate(-0.85 1.189)"/></g><g class="d"><path class="ai" d="M.84,50.24l124.8,78.407v5.03L.84,55.26Z" transform="translate(-0.85 1.089)"/></g><g class="d"><path class="aj" d="M.84,45.31l124.8,78.417v5.02L.84,50.34Z" transform="translate(-0.85 0.989)"/></g><g class="d"><path class="ak" d="M.84,40.38l124.8,78.417v5.03L.84,45.41Z" transform="translate(-0.85 0.889)"/></g><g class="d"><path class="al" d="M.84,35.46l124.8,78.407v5.03L.84,40.48Z" transform="translate(-0.85 0.79)"/></g><g class="d"><path class="am" d="M.84,30.53l124.8,78.417v5.02L.84,35.56Z" transform="translate(-0.85 0.69)"/></g><g class="d"><path class="an" d="M.84,25.61l124.8,78.407v5.03L.84,30.63Z" transform="translate(-0.85 0.59)"/></g><g class="d"><path class="ao" d="M.84,20.68l124.8,78.407v5.03L.84,25.71Z" transform="translate(-0.85 0.49)"/></g><g class="d"><path class="ap" d="M.84,15.75l124.8,78.417v5.02L.84,20.78Z" transform="translate(-0.85 0.39)"/></g><g class="d"><path class="aq" d="M.84,10.83l124.8,78.407v5.03L.84,15.85Z" transform="translate(-0.85 0.291)"/></g><g class="d"><path class="ar" d="M.84,5.9l124.8,78.417v5.02L.84,10.93Z" transform="translate(-0.85 0.191)"/></g><g class="d"><path class="as" d="M.84,2.066l.5-.786,124.3,78.1v5.03L.84,5.994Z" transform="translate(-0.85 0.097)"/></g><g class="d"><path class="at" d="M1.33,1.307,2.2-.07H7.135L125.628,74.378v5.03Z" transform="translate(-0.84 0.07)"/></g><g class="d"><path class="au" d="M15.019-.07,125.512,69.358v5.02L7.02-.07Z" transform="translate(-0.725 0.07)"/></g><g class="d"><path class="av" d="M22.859-.07l102.495,64.4v5.03L14.86-.07Z" transform="translate(-0.566 0.07)"/></g><g class="d"><path class="aw" d="M30.7-.07l94.5,59.369v5.03L22.7-.07Z" transform="translate(-0.407 0.07)"/></g><g class="d"><path class="ax" d="M38.539-.07l86.5,54.349V59.3L30.54-.07Z" transform="translate(-0.249 0.07)"/></g><g class="d"><path class="ay" d="M46.379-.07l78.5,49.319v5.03L38.38-.07Z" transform="translate(-0.09 0.07)"/></g><g class="d"><path class="az" d="M54.219-.07l70.5,44.3v5.02L46.22-.07Z" transform="translate(0.069 0.07)"/></g><g class="d"><path class="ba" d="M62.059-.07l62.5,39.27v5.03L54.06-.07Z" transform="translate(0.228 0.07)"/></g><g class="d"><path class="bb" d="M69.9-.07l54.5,34.24V39.2L61.9-.07Z" transform="translate(0.387 0.07)"/></g><g class="d"><path class="bc" d="M77.739-.07l46.5,29.22v5.02L69.74-.07Z" transform="translate(0.545 0.07)"/></g><g class="d"><path class="bd" d="M85.579-.07l38.5,24.19v5.03L77.58-.07Z" transform="translate(0.704 0.07)"/></g><g class="d"><path class="be" d="M93.419-.07l30.506,19.16v5.03L85.42-.07Z" transform="translate(0.863 0.07)"/></g><g class="d"><path class="bf" d="M101.259-.07l22.507,14.141v5.02L93.26-.07Z" transform="translate(1.022 0.07)"/></g><g class="d"><path class="bg" d="M109.1-.07l14.508,9.111v5.03L101.1-.07Z" transform="translate(1.181 0.07)"/></g><g class="d"><path class="bh" d="M116.939-.07l6.509,4.091v5.02L108.94-.07Z" transform="translate(1.339 0.07)"/></g><g class="d"><path class="bi" d="M123.289,4.021,116.78-.07h6.509Z" transform="translate(1.498 0.07)"/></g></g></g><g transform="translate(2980.132 1215.195)"><g transform="translate(9.83 179.96)"><path class="bj" d="M9.83,180.337a28.6,28.6,0,0,1,4.758-.377,7.991,7.991,0,0,1,5.392,1.586,5.17,5.17,0,0,1,1.685,4.024,5.626,5.626,0,0,1-1.487,4.1,7.985,7.985,0,0,1-5.868,2.1,7.838,7.838,0,0,1-2-.178v7.691H9.83Zm2.478,9.258a8.524,8.524,0,0,0,2.062.2c2.993,0,4.817-1.447,4.817-4.1,0-2.537-1.8-3.766-4.54-3.766a10.162,10.162,0,0,0-2.339.2Z" transform="translate(-9.83 -179.96)"/><g transform="translate(13.262 5.233)"><path class="bj" d="M25.242,196.714l-.2-1.744h-.079a5.132,5.132,0,0,1-4.222,2.042,3.931,3.931,0,0,1-4.222-3.965c0-3.33,2.973-5.154,8.286-5.134v-.277a2.841,2.841,0,0,0-3.132-3.192,6.788,6.788,0,0,0-3.588,1.031l-.575-1.645a8.618,8.618,0,0,1,4.54-1.229c4.222,0,5.253,2.874,5.253,5.65V193.4a18.818,18.818,0,0,0,.238,3.311Zm-.377-7.037c-2.736-.059-5.848.436-5.848,3.112a2.224,2.224,0,0,0,2.359,2.4,3.432,3.432,0,0,0,3.33-2.3,2.78,2.78,0,0,0,.139-.793l.02-2.418Z" transform="translate(-16.52 -182.6)"/></g><g transform="translate(26.028 5.57)"><path class="bj" d="M25.7,182.77l3.013,8.147c.317.912.654,2,.892,2.815h.059c.258-.833.535-1.883.892-2.874l2.736-8.088h2.656L32.178,192.6c-1.8,4.738-3.013,7.156-4.738,8.643a6.842,6.842,0,0,1-3.073,1.626l-.634-2.1a6.565,6.565,0,0,0,2.2-1.229,7.451,7.451,0,0,0,2.1-2.8,1.7,1.7,0,0,0,.2-.595,2.16,2.16,0,0,0-.178-.654L22.96,182.79H25.7v-.02Z" transform="translate(-22.96 -182.77)"/></g></g><g transform="translate(53.184 180.594)"><path class="bk" d="M38.222,186.782v4.163H35.863v-4.163H31.7v-2.359h4.163V180.28h2.359v4.143h4.163v2.359Z" transform="translate(-31.7 -180.28)"/></g></g></g></svg>