<svg xmlns="http://www.w3.org/2000/svg" xmlns:xlink="http://www.w3.org/1999/xlink" width="191.54" height="123.8" viewBox="0 0 191.54 123.8"><defs><style>.a{fill:none;}.b{clip-path:url(#a);}.c{fill:#fff;}.d{fill:url(#b);}</style><clipPath id="a"><path class="a" d="M9.577,0H181.963a9.577,9.577,0,0,1,9.577,9.577V114.223a9.577,9.577,0,0,1-9.577,9.577H9.577A9.577,9.577,0,0,1,0,114.223V9.577A9.577,9.577,0,0,1,9.577,0Z" transform="translate(88.2 95)"/></clipPath><linearGradient id="b" x1="0.432" y1="0.942" x2="0.751" y2="-0.099" gradientUnits="objectBoundingBox"><stop offset="0" stop-color="#c1c6c9" stop-opacity="0.702"/><stop offset="0.195" stop-color="#c1c4c6" stop-opacity="0.502"/><stop offset="1" stop-color="#c2c2c2" stop-opacity="0"/></linearGradient></defs><g class="b" transform="translate(-88.2 -95)"><g transform="translate(88.2 95)"><path class="c" d="M9.577,0H181.963a9.577,9.577,0,0,1,9.577,9.577V114.223a9.577,9.577,0,0,1-9.577,9.577H9.577A9.577,9.577,0,0,1,0,114.223V9.577A9.577,9.577,0,0,1,9.577,0Z" transform="translate(0 0)"/></g><path class="d" d="M229.98,213.491h-3.2V201.933h11.731v6.183h-5.33v5.372Zm-23.193,0h-3.2V201.933h11.731v6.183h-5.33v5.372Zm-23.19,0h-3.2V201.933h11.728V191.188h17.86v5.372H198.257v11.56H186.788v5.372Zm-23.193,0h-3.2V201.933h11.731v6.183H163.6v5.372Zm-23.193,0h-3.2V201.933h11.731v6.183h-5.33v5.372Zm-23.193,0h-3.2V201.933h11.733v6.183h-5.333v5.372Zm-23.19,0h-3.2V201.933H99.359V191.188h17.86v5.372H105.5v11.56H94.031v5.372Zm-23.193,0h-3.2V201.933H76.167v6.183H70.839v5.372Zm-23.193,0h-3.2V201.933H52.974v6.183H47.646v5.372Zm173.937-5.372h-3.065V191.184h17.86v5.372H221.445v11.56Zm-46.383,0h-3.062V191.184h17.853v5.372H175.067v11.56Zm-23.193,0h-3.06V191.184H163.6v5.372H151.874v11.56Zm-23.193,0h-3.06V191.184h17.86v5.372H128.681v11.56Zm-46.383,0h-3.06V191.184H94.031v5.372H82.3v11.56Zm-23.193,0h-3.06V191.184h17.86v5.372H59.108v11.56Zm-23.193,0H29.786V191.184h17.86v5.372H35.915v11.56Zm197.129-16.937h-3.2V179.623H238.5v6.183h-5.33v5.372Zm-23.193,0h-3.2V179.623h11.731v6.183h-5.33v5.372Zm-23.19,0h-3.2V179.623h11.728V168.879H203.58V157.321h11.731V163.5h-5.33v10.745H198.257v11.56H186.788v5.372Zm-23.193,0h-3.2V179.623h11.731v6.183H163.6v5.372Zm-23.193,0H134V179.623h11.731v6.183h-5.323v5.372Zm-23.193,0h-3.2V179.623h11.74v6.183h-5.333v5.372Zm-23.19,0H87.631V179.623H99.359V168.879h17.86v5.372H105.5v11.56H94.031v5.372Zm-23.193,0h-3.2V179.623H76.16v6.183H70.839v5.372Zm-23.193,0h-3.2V179.623H52.967v6.183H47.646v5.372Zm173.937-5.372h-3.065V168.874H226.77V157.316H238.5V163.5h-5.33v10.745H221.44V185.8Zm-46.383,0h-3.055V168.874H180.4V157.316h11.728V146.571h11.462V135h11.731v6.183h-5.33v10.745H198.257v11.56H186.788V174.23H175.067v11.56Zm-23.193,0h-3.053V168.874h11.462V157.316h11.731V163.5H163.6v10.745H151.874V185.8Zm-23.193,0h-3.053V168.874h11.462V157.316h11.731V163.5h-5.333v10.745H128.681V185.8Zm-46.383,0H76.169V168.874H94.031v5.372H82.3v11.56Zm-23.193,0H52.976V168.874h17.86v5.372H59.108v11.56Zm-23.193,0H29.786V168.874h17.86v5.372H35.915v11.56Zm81.171-16.935h-3.2V157.316h11.745V163.5h-5.333v5.372Zm-23.19,0H87.631V157.316H99.359V146.571h17.86v5.372H105.5V163.5H94.031v5.372Zm-23.193,0h-3.2V157.316H76.155V163.5H70.839v5.372Zm-23.193,0h-3.2V157.316H52.962V163.5H47.646v5.372ZM218.368,163.5H215.3V146.555h11.462V135H238.5v6.183h-5.33v10.745H221.435v11.56Zm-46.383,0h-3.051V146.555H180.4V135h11.728V124.252h17.86v5.372H198.257v11.56H186.788V151.93H175.067v11.56Zm-23.193,0h-3.048V146.555h11.462V135h11.731v6.183H163.6v10.745H151.874v11.56Zm-23.193,0h-3.048V146.555h11.462V135h11.731v6.183h-5.333v10.745H128.681v11.56Zm-46.383,0H76.169V146.555H94.031v5.372H82.3v11.56Zm-23.193,0H52.976V146.555h17.86v5.372H59.108v11.56Zm-23.193,0H29.786V146.555h17.86v5.372H35.915v11.56ZM114,146.566h-3.2V135h11.749v6.183h-5.333v5.372Zm-23.19,0H87.631V135H99.359V124.252h17.86v5.372H105.5v11.56H94.031v5.372Zm-23.193,0h-3.2V135H76.15v6.183H70.839v5.372Zm-23.193,0h-3.2V135H52.957v6.183H47.646v5.372Zm173.937-5.372H215.3V124.259h17.86v5.372H221.428v11.56Zm-46.383,0h-3.046V124.259h17.853v5.372H175.067v11.56Zm-23.193,0h-3.043V124.259H163.6v5.372H151.874v11.56Zm-23.193,0h-3.043V124.259h17.86v5.372H128.681v11.56Zm-46.383,0H76.169V124.259H94.031v5.372H82.3v11.56Zm-23.193,0H52.976V124.259h17.86v5.372H59.108v11.56Zm-23.193,0H29.786V124.259h17.86v5.372H35.915v11.56Zm197.129-16.937h-3.2V112.683h11.731v6.183h-5.33v5.372Zm-23.193,0h-3.2V112.683h11.731v6.183h-5.33v5.372Zm-23.19,0h-3.2V112.683H192.1V101.938h11.462V90.371h11.731v6.183h-5.33V107.3H198.257v11.56H186.788v5.372Zm-23.193,0h-3.2V112.683h11.731v6.183H163.6v5.372Zm-23.193,0h-3.2V112.683h11.731v6.183h-5.307v5.372Zm-23.193,0h-3.2V112.683h11.757v6.183h-5.333v5.372Zm-23.19,0H87.631V112.683H99.359V101.938h17.86v5.372H105.5v11.56H94.031v5.372Zm-23.193,0h-3.2V112.683H76.143v6.183h-5.3v5.372Zm-23.193,0h-3.2V112.683H52.95v6.183h-5.3v5.372Zm173.937-5.372h-3.065V101.949h11.462V90.371h11.731v6.183h-5.33V107.3H221.424v11.56Zm-46.383,0h-3.039V101.949H180.4V90.371h11.728V79.626h11.462V68.061h11.731v6.183h-5.33V84.989H198.257v11.56H186.788v10.745H175.067v11.56Zm-23.193,0h-3.036V101.949h11.462V90.371h11.731v6.183H163.6V107.3H151.874v11.56Zm-23.193,0h-3.036V101.949h11.462V90.371h11.731v6.183h-5.333V107.3H128.681v11.56Zm-46.383,0H76.169V101.949H94.031v5.372H82.3v11.56Zm-23.193,0H52.976V101.949h17.86v5.372H59.108v11.56Zm-23.193,0H29.786V101.949h17.86v5.372H35.915v11.56Zm81.171-16.935h-3.2V90.371h11.761v6.183h-5.333v5.372Zm-23.19,0h-3.17V90.371H99.359V79.626h17.86V85H105.5v11.56H94.031v5.372Zm-23.193,0h-3.2V90.371H76.138v6.183h-5.3v5.372Zm-23.193,0h-3.2V90.371H52.946v6.183h-5.3v5.372Zm173.937-5.372h-3.065V79.642h11.462V68.061H238.48v6.183h-5.33V84.989H221.419v11.56Zm-46.383,0h-3.034V79.642H180.4V68.061h11.728V57.316h17.86v5.372H198.257v11.56H186.788V84.993H175.067v11.56Zm-23.193,0h-3.032V79.642h11.462V68.061h11.731v6.183H163.6V84.989H151.874v11.56Zm-23.193,0h-3.032V79.642h11.462V68.061h11.731v6.183h-5.333V84.989H128.681v11.56Zm-46.383,0H76.169V79.642H94.031v5.372H82.3v11.56Zm-23.193,0H52.976V79.642h17.86v5.372H59.108v11.56Zm-23.193,0H29.786V79.642h17.86v5.372H35.915v11.56Zm81.171-16.935h-3.2V68.061h11.766v6.183h-5.333v5.372Zm-23.19,0H87.631V68.061H99.359V57.316h17.86v5.372H105.5v11.56H94.031v5.372Zm-23.193,0H64.4V68.061H76.134v6.183h-5.3v5.372Zm-23.193,0h-3.2V68.061H52.941v6.183h-5.3v5.372ZM218.347,74.27h-3.065V57.335h17.86v5.372H221.412v11.56Zm-46.383,0h-3.029V57.335h17.853v5.372H175.067v11.56Zm-23.193,0h-3.027V57.335H163.6v5.372H151.874v11.56Zm-23.193,0h-3.027V57.335h17.86v5.372H128.681v11.56Zm-46.383,0H76.169V57.335H94.031v5.372H82.3v11.56ZM56,74.27H52.976V57.335h17.86v5.372H59.108v11.56Zm-23.193,0H29.786V57.335h17.86v5.372H35.915v11.56Z" transform="translate(43.432 22.071)"/><rect width="190" height="25" transform="translate(89.2 110)"/></g></svg>