<svg xmlns="http://www.w3.org/2000/svg" xmlns:xlink="http://www.w3.org/1999/xlink" width="201" height="131" viewBox="0 0 201 131">
  <defs>
    <style>
      .cls-1 {
        stroke: #58595b;
        fill: url(#linear-gradient);
      }

      .cls-2 {
        fill: #a3a5a7;
      }

      .cls-3 {
        fill: #58595b;
      }
    </style>
    <linearGradient id="linear-gradient" x1="0.5" x2="0.5" y2="1" gradientUnits="objectBoundingBox">
      <stop offset="0" stop-color="#d2d3d4"/>
      <stop offset="1" stop-color="#bcbec0"/>
    </linearGradient>
  </defs>
  <g id="Bank" transform="translate(-785.5 -878.5)">
    <path id="Mask" class="cls-1" d="M10,0H190a10,10,0,0,1,10,10V120a10,10,0,0,1-10,10H10A10,10,0,0,1,0,120V10A10,10,0,0,1,10,0Z" transform="translate(786 879)"/>
    <path id="Trazado_228" data-name="Trazado 228" class="cls-2" d="M183.272,2.6H11.054A9.674,9.674,0,0,0,4.081,5.438h0A9.179,9.179,0,0,0,1.243,12.33L1,83.844l.162-.081L4.405,12.33A6.314,6.314,0,0,1,6.351,7.708a6.237,6.237,0,0,1,4.622-1.865H183.191a6.566,6.566,0,0,1,4.622,1.865,6.314,6.314,0,0,1,1.946,4.622l3.081,64.947L193,12.33a9.253,9.253,0,0,0-2.919-6.892A9.05,9.05,0,0,0,183.272,2.6Z" transform="translate(789.223 879.779)"/>
    <path id="e0dd" class="cls-3" d="M7.008,34.508a.781.781,0,0,0,.785-.775V20.358a.781.781,0,0,0-.785-.775H4.015a.78.78,0,0,0-.785.775V33.733a.78.78,0,0,0,.785.775Zm31.851,1.3H1.254a.784.784,0,0,0-.782.778v2.02a.781.781,0,0,0,.782.778H38.859a.778.778,0,0,0,.785-.778v-2.02A.78.78,0,0,0,38.859,35.81Zm-22.147-1.3a.778.778,0,0,0,.78-.775V20.358a.78.78,0,0,0-.78-.775h-3a.78.78,0,0,0-.78.775V33.733a.777.777,0,0,0,.78.775Zm19.394,0a.783.783,0,0,0,.785-.775V20.358a.784.784,0,0,0-.785-.775h-3a.78.78,0,0,0-.78.775V33.733a.778.778,0,0,0,.78.775ZM39.1,15.215,23.068,2.02a4.948,4.948,0,0,0-6.02,0L1.021,15.215c-1.66,1.366-1.254,2.476.9,2.476H38.2C40.351,17.691,40.755,16.581,39.1,15.215Zm-19.041-.733A3.027,3.027,0,1,1,23.1,11.452,3.039,3.039,0,0,1,20.059,14.482Zm6.346,20.026a.778.778,0,0,0,.785-.775V20.358a.78.78,0,0,0-.785-.775h-3a.779.779,0,0,0-.782.775V33.733a.777.777,0,0,0,.782.775Z" transform="translate(865.941 923.838)"/>
  </g>
</svg>
