<svg xmlns="http://www.w3.org/2000/svg" xmlns:xlink="http://www.w3.org/1999/xlink" width="201" height="131" viewBox="0 0 201 131"><defs><linearGradient id="a" x1="0.5" x2="0.5" y2="1" gradientUnits="objectBoundingBox"><stop offset="0" stop-color="#d2d3d4"/><stop offset="1" stop-color="#bcbec0"/></linearGradient></defs><g transform="translate(986.5 1009.5) rotate(180)"><path d="M10,0H190a10,10,0,0,1,10,10V120a10,10,0,0,1-10,10H10A10,10,0,0,1,0,120V10A10,10,0,0,1,10,0Z" transform="translate(786 879)" stroke="#58595b" stroke-width="1" fill="url(#a)"/><path d="M183.272,2.6H11.054A9.674,9.674,0,0,0,4.081,5.438h0A9.179,9.179,0,0,0,1.243,12.33L1,83.844l.162-.081L4.405,12.33A6.314,6.314,0,0,1,6.351,7.708a6.237,6.237,0,0,1,4.622-1.865H183.191a6.566,6.566,0,0,1,4.622,1.865,6.314,6.314,0,0,1,1.946,4.622l3.081,64.947L193,12.33a9.253,9.253,0,0,0-2.919-6.892A9.05,9.05,0,0,0,183.272,2.6Z" transform="translate(789.223 879.779)" fill="#a3a5a7"/><rect width="200" height="25" transform="translate(986 992) rotate(180)"/></g></svg>