<?xml version="1.0" encoding="UTF-8"?>
<svg width="150px" height="200px" viewBox="0 0 150 200" version="1.1" xmlns="http://www.w3.org/2000/svg" xmlns:xlink="http://www.w3.org/1999/xlink">
    <!-- Generator: Sketch 52.5 (67469) - http://www.bohemiancoding.com/sketch -->
    <title>logo-bancobogota-compact-mono</title>
    <desc>Created with Sketch.</desc>
    <g id="logo-bancobogota-compact-mono" stroke="none" stroke-width="1" fill="none" fill-rule="evenodd">
        <path d="M31.1625914,187.607409 C29.9486379,188.521362 28.1306977,188.598106 25.8934884,188.598106 L24.9270432,188.598106 L24.9270432,180.022691 C24.9522924,180.030332 25.0572757,180.048272 25.0572757,180.048272 L26.8303654,180.048272 C28.791495,180.048272 30.367907,180.111395 31.3758804,180.917708 C32.2180731,181.611728 32.685515,182.756246 32.685515,184.137309 C32.685515,185.619037 32.1320266,186.881163 31.1625914,187.607409 Z M24.9270432,169.267542 L26.4237209,169.267542 C28.426711,169.262558 29.998804,169.257575 30.9682392,170.089801 C31.6230565,170.643953 31.9778738,171.569867 31.9778738,172.69711 C31.9778738,175.283821 31.1845183,176.308738 28.1240532,176.613721 L25.9343522,176.847608 C25.9343522,176.82701 24.9270432,178.530332 24.9270432,178.530332 L24.9270432,169.267542 Z M33.9021262,178.153588 C36.282392,177.169535 37.4043189,175.392791 37.4043189,172.543289 C37.4043189,169.772525 36.0983389,167.642625 33.8064452,166.720033 C32.1978073,166.056811 30.6918272,165.896346 26.1213953,165.896346 L16.4506312,165.896346 L16.4506312,168.669203 C16.4506312,168.669203 18.7865116,169.008405 19.4861794,169.114385 L19.4861794,191.976179 L27.1835216,191.976179 C30.9625914,191.976179 32.5446512,191.742625 34.2609302,190.954917 C36.854485,189.752591 38.3511628,187.403754 38.3511628,184.507409 C38.3511628,181.137973 36.8345515,179.086478 33.9021262,178.153588 Z M90.8372093,188.974983 C89.1624585,188.974983 86.9438538,188.314186 86.9438538,182.616179 C86.9438538,177.012857 88.923588,176.252392 90.8787375,176.252392 C92.5501661,176.252392 94.7780731,176.910532 94.7780731,182.58196 C94.7780731,188.212857 92.7887043,188.974983 90.8372093,188.974983 M90.8787375,172.841096 C85.0976744,172.841096 81.5093023,176.588272 81.5093023,182.616179 C81.5093023,188.707209 85.0086379,192.342757 90.8787375,192.342757 C96.630897,192.342757 100.206312,188.601561 100.206312,182.58196 C100.206312,176.483289 96.723588,172.841096 90.8787375,172.841096 M112.620266,188.3799 L108.972093,188.937375 C108.168439,188.937375 107.954485,188.721096 107.81196,188.521429 C107.704319,188.335382 107.68505,188.207475 107.68505,186.758306 C107.68505,186.597841 107.691362,177.660963 107.691362,176.625748 L112.846512,176.625748 L112.846512,173.438704 L107.691362,173.438704 L107.691362,168.483223 L107.045847,168.534385 L102.485382,168.915449 L102.485382,186.660963 C102.485382,188.63206 102.651163,189.890532 103.495681,190.872924 C104.284385,191.85 105.501329,192.301827 107.290698,192.301827 C108.936877,192.301827 110.827907,191.892525 112.89701,191.074252 L113.405648,190.869601 L112.620266,188.3799 Z M50.1930233,188.974983 C48.5182724,188.974983 46.29701,188.314186 46.29701,182.616179 C46.29701,177.012857 48.2870432,176.252392 50.2252492,176.252392 C51.9,176.252392 54.130897,176.910532 54.130897,182.58196 C54.130897,188.212857 52.141196,188.974983 50.1930233,188.974983 M50.2252492,172.841096 C44.4508306,172.841096 40.8594684,176.588272 40.8594684,182.616179 C40.8594684,188.707209 44.3644518,192.342757 50.2252492,192.342757 C55.9906977,192.342757 59.5627907,188.601561 59.5627907,182.58196 C59.5627907,176.483289 56.0790698,172.841096 50.2252492,172.841096 M74.072093,188.219601 C73.1292359,188.36113 72.5093023,188.437874 71.6714286,188.437874 C68.5372093,188.437874 66.8215947,186.410299 66.8215947,182.687708 C66.8215947,178.816944 68.754485,176.583056 72.1435216,176.583056 C72.7694352,176.583056 73.2365449,176.613621 74.072093,176.757807 L74.072093,188.219601 Z M74.2149502,174.349169 C73.0142857,173.670432 71.6019934,173.319269 70.1767442,173.319269 C65.0003322,173.319269 61.3262458,177.439203 61.3262458,183.214618 C61.3262458,188.75515 64.2405316,192.230233 68.89701,192.230233 C70.1109635,192.230233 71.2704319,191.912957 74.072093,190.772425 L74.072093,192.266113 C74.072093,195.492359 72.9023256,196.419934 68.8684385,196.419934 C67.0378738,196.419934 64.5681063,196.140199 62.6647841,195.67309 L62.6647841,198.793688 C66.5421927,199.646179 68.1408638,199.895349 70.1109635,199.895349 C72.6106312,199.895349 74.7754153,199.472425 76.2973422,198.650498 C78.5568106,197.441528 79.3956811,195.741196 79.3956811,192.475748 L79.3956811,173.565781 L74.2149502,173.565781 L74.2149502,174.349169 Z M126.748173,188.364551 C125.777741,188.514718 125.149169,188.589468 124.287375,188.589468 C121.086711,188.589468 119.33588,186.536645 119.33588,182.769535 C119.33588,178.859568 121.310299,176.6001 124.770764,176.6001 C125.400664,176.6001 125.892691,176.630997 126.748173,176.786146 L126.748173,188.364551 Z M131.804651,173.684153 L126.731561,173.684153 L126.731561,174.460233 C125.555482,173.791794 124.173422,173.438638 122.787708,173.438638 C117.705648,173.438638 114.114618,177.537973 114.114618,183.298439 C114.114618,188.814718 116.955814,192.278173 121.526246,192.278173 C122.708306,192.278173 124.233887,191.742625 126.592027,190.395449 L126.592027,192.10907 L133.901329,191.370864 L133.901329,188.287807 L131.804651,188.287807 L131.804651,173.684153 Z M129.43289,169.00515 L128.209302,165.057807 L127.662458,165.279402 L119.571096,168.559967 L120.276744,170.911462 L129.43289,169.00515 Z M82.3833887,151.550498 C80.5019934,152.101993 78.8624585,152.381063 77.5209302,152.381063 C73.8089701,152.381063 73.0365449,149.125581 73.0365449,146.400664 C73.0365449,142.175083 74.5687708,140.033555 77.5943522,140.033555 C79.1225914,140.033555 80.1009967,140.401661 80.1112957,140.401661 C80.1654485,140.427243 82.7777409,141.474419 82.7777409,141.474419 L82.8318937,137.973422 L82.4714286,137.816611 C81.5478405,137.425914 79.110299,136.513621 76.5415282,136.513621 C71.1119601,136.513621 67.6,140.41196 67.6,146.425581 C67.6,152.162791 70.9847176,156.011296 76.0332226,156.011296 C78.2325581,156.011296 80.2504983,155.515282 83.251495,154.219269 L83.730897,154.008638 L82.9554817,151.386711 L82.3833887,151.550498 Z M16.7083056,151.275748 C15.4936877,152.195017 13.682392,152.266445 11.4415282,152.266445 L10.4727575,152.266445 L10.4727575,143.696013 C10.5076412,143.697674 10.6026578,143.716611 10.6026578,143.716611 L12.3857143,143.716611 C14.3435216,143.716611 15.9229236,143.781395 16.9269103,144.586047 C17.7568106,145.28206 18.2305648,146.425249 18.2305648,147.808306 C18.2305648,149.287375 17.6803987,150.550166 16.7083056,151.275748 Z M10.4727575,132.936213 L11.9727575,132.936213 C13.9810631,132.930897 15.5478405,132.927575 16.520598,133.75814 C17.169103,134.313953 17.530897,135.238206 17.530897,136.36711 C17.530897,138.955482 16.7365449,139.98206 13.676412,140.28206 C13.6601329,140.28206 11.4797342,140.515947 11.4797342,140.515947 C11.4797342,140.495349 10.4727575,142.203987 10.4727575,142.203987 L10.4727575,132.936213 Z M19.4511628,141.827243 C21.8275748,140.838206 22.9591362,139.06113 22.9591362,136.213621 C22.9591362,133.440864 21.6501661,131.31794 19.3521595,130.388372 C17.7531561,129.72691 16.2511628,129.5701 11.6770764,129.5701 L2,129.5701 L2,132.339203 C2,132.339203 4.34186047,132.682724 5.04119601,132.782724 L5.04119601,155.646179 L12.7345515,155.646179 C16.5046512,155.646179 18.0943522,155.412625 19.8066445,154.624917 C22.4063123,153.425914 23.9026578,151.072757 23.9026578,148.177409 C23.9026578,144.806312 22.3873754,142.754817 19.4511628,141.827243 Z M59.8930233,136.513621 C58.3136213,136.513621 56.2853821,137.074751 53.9870432,138.031229 C53.9528239,137.603322 53.8797342,136.552824 53.8797342,136.552824 L46.0362126,137.548837 L46.0362126,140.296013 L48.9222591,140.296013 L48.9222591,155.646179 L54.0671096,155.646179 C54.0671096,155.646179 54.1119601,142.086379 54.1119601,141.309635 C54.8209302,141.064784 56.4790698,140.558472 58.1006645,140.558472 C58.9269103,140.558472 59.4787375,140.713621 59.810299,141.038538 C60.3003322,141.542525 60.2936877,142.521262 60.2803987,143.661794 L60.2740864,155.646179 L65.4767442,155.646179 L65.4767442,143.380731 C65.4767442,140.543189 65.3498339,139.610299 64.4534884,138.450831 C63.4654485,137.167442 61.9272425,136.513621 59.8930233,136.513621 M93.7990033,152.646844 C92.1242525,152.646844 89.89701,151.982724 89.89701,146.286379 C89.89701,140.683056 91.8960133,139.923256 93.8378738,139.923256 C95.5093023,139.923256 97.730897,140.57907 97.730897,146.252159 C97.730897,151.880399 95.7438538,152.646844 93.7990033,152.646844 M93.8378738,136.513621 C88.0564784,136.513621 84.4654485,140.258472 84.4654485,146.286379 C84.4654485,152.377409 87.9611296,156.011296 93.8378738,156.011296 C99.5900332,156.011296 103.168439,152.271761 103.168439,146.252159 C103.168439,140.151827 99.6820598,136.513621 93.8378738,136.513621 M38.3677741,152.034884 C37.4013289,152.188372 36.769103,152.25814 35.9109635,152.25814 C32.7105316,152.25814 30.9557143,150.207641 30.9557143,146.443522 C30.9557143,142.530897 32.9327907,140.270432 36.4003322,140.270432 C37.0262458,140.270432 37.5079734,140.299668 38.3677741,140.457143 L38.3677741,152.034884 Z M43.420598,137.352824 L38.351495,137.352824 L38.351495,138.128571 C37.1754153,137.460133 35.786711,137.107309 34.400897,137.107309 C29.3251495,137.107309 25.7314618,141.206645 25.7314618,146.968439 C25.7314618,152.488372 28.5756478,155.951827 33.1417608,155.951827 C34.3284718,155.951827 35.8598007,155.412957 38.2086379,154.065781 L38.2086379,155.777741 L38.3162791,155.769103 L45.5182724,155.044518 L45.5182724,151.959136 L43.420598,151.959136 L43.420598,137.352824 Z M122.838538,151.877741 C120.512292,152.505316 117.92093,152.981063 116.253821,150.962126 C115.274751,149.792359 115.077741,148.036877 115.077741,146.252159 C115.077741,146.049169 115.093023,145.846512 115.093023,145.637542 C115.128904,143.670432 115.659136,142.410299 116.663123,141.278073 C118.261794,139.485714 120.982392,139.842193 122.969103,140.771761 C122.969103,140.771761 122.838538,151.509302 122.838538,151.877741 M128.028904,128.349169 L127.767774,128.374751 L127.151495,128.446179 L120.312292,129.32093 L120.312292,131.626578 L122.835548,131.626578 C122.835548,132.040864 122.829236,137.116611 122.829236,137.645847 C120.791694,136.958804 117.956811,136.370432 115.350831,137.243522 C111.769103,138.450831 109.741196,141.690698 109.636213,146.371429 C109.538206,150.607309 111.727907,154.089369 115.213621,155.230233 C117.77608,156.074419 121.1701,155.127907 123.06711,154.226578 C123.079734,154.595017 123.127907,155.752159 123.127907,155.752159 L130.027243,154.839867 L130.027243,152.530897 L127.815615,152.530897 C127.818605,152.063787 128.028904,128.349169 128.028904,128.349169 M136.825581,143.806977 C136.876744,143.484718 137.015947,139.71196 140.37608,139.71196 C143.803987,139.71196 143.852824,143.399336 143.896346,143.806977 L136.825581,143.806977 Z M140.363123,136.501993 C139.177409,136.464452 138.103654,136.613621 137.048505,136.952159 C133.240864,138.198671 131.082392,141.533223 130.974751,146.35814 C130.866113,150.721595 133.196013,154.311296 136.905316,155.487708 C140.181395,156.533223 144.977409,155.395681 148.015615,153.738206 L148.181063,153.652824 L147.320266,151.013289 L145.612957,151.550498 C143.153488,152.229236 139.981395,153.489369 137.953488,151.127575 C136.856811,149.852159 136.704983,147.930233 136.698339,146.400664 L146.769767,146.600332 L148.279402,146.600332 L148.292359,146.380066 C148.330565,145.936877 148.356146,145.501993 148.356146,145.07309 C148.356146,136.319269 140.70299,136.518937 140.363123,136.501993 Z" id="Lettering" fill="#FFFFFF"></path>
        <g id="Emblem" transform="translate(23.596975, -0.000000)" fill="#FFFFFF">
            <path d="M54.3465469,0.00531561462 C25.1950519,0.50730897 1.09442063,20.8534884 0.0362810987,48.8242525 C-1.01255611,76.7933555 20.8076764,100.332226 48.7747861,101.377409 C63.0129921,101.921595 76.104022,96.5262458 85.6671449,87.4116279 C94.8777761,78.6245847 94.5026931,63.1700997 87.1744539,70.1820598 C79.1206333,77.8847176 67.8631582,82.4870432 55.5857495,82.0418605 C32.1757828,81.20299 13.9056831,62.3006645 14.7890718,39.8265781 C15.6030253,18.9707641 36.2737894,2.46578073 54.7880751,1.47009967 L55.2714638,7.10542736e-15 C54.9628259,7.10542736e-15 54.6608326,7.10542736e-15 54.3465469,0.00531561462" id="Fill"></path>
            <path d="M58.4146532,1.48039867 C81.9428924,2.90265781 101.307676,22.9458472 32.8462147,42.9651163 C50.2850851,46.3910299 63.1681416,54.569103 63.1681416,54.569103 C121.778108,24.7704319 88.4389057,-0.103654485 55.2714638,0.000332225914 L54.7880751,1.47009967 C56.0086731,1.40531561 57.2166465,1.40531561 58.4146532,1.48039867" id="Fill"></path>
            <path d="M29.5807661,11.9574751 C36.9448857,5.82192691 46.1086731,1.94252492 54.7877429,1.47009967 C56.0083409,1.40564784 57.2166465,1.40564784 58.414321,1.48039867 C69.9478758,2.18139535 80.4844206,7.3448505 80.1561814,14.8033223 L85.9189721,8.01495017 C78.214321,2.91395349 66.734919,-0.0328903654 55.2711316,0.000332225914 C54.9628259,0.000332225914 54.6608326,0.000332225914 54.3465469,0.00564784053 C43.5438891,0.191362126 33.4458824,3.10730897 24.958507,8.11395349 L29.5807661,11.9574751 Z" id="Fill"></path>
            <path d="M83.5000353,79.0611296 C83.4837562,78.7943522 82.5306,72.1627907 82.5306,72.1627907 C80.1595037,56.4312292 83.4747861,41.1677741 107.552195,39.9196013 C72.62761,23.1315615 49.4073442,39.2033223 32.3933907,42.9651163 C47.8777761,44.89701 80.5186399,62.3943522 83.5000353,79.0611296" id="Fill"></path>
            <path d="M95.0973774,44.5491694 C80.2229588,50.679402 81.7359157,67.6634551 83.1694705,77.6136213 C83.4485402,78.4166113 84.9462147,84.6212625 81.5036897,91.0857143 C77.2256166,98.3644518 70.3106665,103.847508 56.9684738,107.422591 C91.1654838,108.993023 130.302029,76.1488372 95.0973774,44.5491694" id="Fill"></path>
        </g>
    </g>
</svg>