<?xml version="1.0" encoding="utf-8"?>
<!-- Generator: Adobe Illustrator 22.1.0, SVG Export Plug-In . SVG Version: 6.00 Build 0)  -->
<svg version="1.1" id="Layer_1" xmlns="http://www.w3.org/2000/svg" xmlns:xlink="http://www.w3.org/1999/xlink" x="0px" y="0px"
	 viewBox="0 0 265.5 179.5" style="enable-background:new 0 0 265.5 179.5;" xml:space="preserve">
<style type="text/css">
	.st0{clip-path:url(#SVGID_2_);}
	.st1{clip-path:url(#SVGID_4_);fill:#F5F5F6;}
	.st2{clip-path:url(#SVGID_4_);}
	.st3{fill:#FFFFFF;}
	.st4{fill:#E1E1E2;}
	.st5{fill:#1B2D54;}
	.st6{fill:#696667;}
	.st7{fill:#12284C;}
	.st8{fill:#FFD100;}
	.st9{fill:url(#SVGID_5_);}
	.st10{fill:#2E2A27;}
</style>
<g>
	<g>
		<defs>
			<path id="SVGID_1_" d="M243.7,166.1H22.6c-5.5,0-9.9-4.4-9.9-9.9V22.9c0-5.5,4.4-9.9,9.9-9.9h221.1c5.5,0,9.9,4.4,9.9,9.9v133.2
				C253.6,161.6,249.2,166.1,243.7,166.1z"/>
		</defs>
		<clipPath id="SVGID_2_">
			<use xlink:href="#SVGID_1_"  style="overflow:visible;"/>
		</clipPath>
		<g class="st0">
			<defs>
				<path id="SVGID_3_" d="M22.6,173.2c-9.4,0-17-7.6-17-17V22.9c0-9.4,7.6-17,17-17h221.1c9.4,0,17,7.6,17,17v133.2
					c0,9.4-7.6,17-17,17H22.6z"/>
			</defs>
			<clipPath id="SVGID_4_">
				<use xlink:href="#SVGID_3_"  style="overflow:visible;"/>
			</clipPath>
			<path class="st1" d="M22.6,173.2c-9.4,0-17-7.6-17-17V22.9c0-9.4,7.6-17,17-17h221.1c9.4,0,17,7.6,17,17v133.2
				c0,9.4-7.6,17-17,17H22.6z"/>
			<g class="st2">
				<polygon class="st3" points="263,170.1 66.6,52.9 263,-62.3 				"/>
				<polygon class="st4" points="-3.6,11 66.6,52.9 -3.6,94 				"/>
			</g>
			<g class="st2">
				<path class="st5" d="M187.9,77.9v2.8h-1v-7h2.9c1.4,0,2.2,0.9,2.2,2.1c0,1.3-0.8,2.1-2.2,2.1H187.9z M187.9,77h1.8
					c0.8,0,1.3-0.4,1.3-1.2c0-0.8-0.5-1.2-1.3-1.2h-1.8V77z"/>
				<path class="st5" d="M197.2,80.7l-1.7-2.7h-1.5v2.7h-1v-7h2.9c1.4,0,2.2,0.9,2.2,2.1c0,1-0.5,1.8-1.6,2l1.8,2.9H197.2z
					 M194.1,77.1h1.8c0.8,0,1.3-0.4,1.3-1.3c0-0.8-0.5-1.3-1.3-1.3h-1.8V77.1z"/>
				<path class="st5" d="M203.9,74.6h-3.5v2.1h3v0.9h-3v2.3h3.6v0.9h-4.5v-7h4.5V74.6z"/>
				<path class="st5" d="M206.2,77.9v2.8h-1v-7h2.9c1.4,0,2.2,0.9,2.2,2.1c0,1.3-0.8,2.1-2.2,2.1H206.2z M206.2,77h1.8
					c0.8,0,1.3-0.4,1.3-1.2c0-0.8-0.5-1.2-1.3-1.2h-1.8V77z"/>
				<path class="st5" d="M215.4,78.9h-2.7l-0.6,1.8h-1l2.4-7.1h1.2l2.4,7.1H216L215.4,78.9z M214,74.9l-1.1,3.2h2.3L214,74.9
					L214,74.9z"/>
				<path class="st5" d="M218,77.1c0-2,0.6-3.6,3-3.6c0.8,0,1.5,0.1,2.4,0.4l-0.2,0.8c-1.1-0.3-1.5-0.3-2.1-0.3c-1.6,0-2,1.2-2,2.7
					c0,1.6,0.4,2.8,2,2.8c0.5,0,0.9-0.1,1.3-0.3V78H221v-0.9h2.3v3.2c-0.7,0.3-1.4,0.6-2.4,0.6C218.6,80.8,218,79.2,218,77.1z"/>
				<path class="st5" d="M224.6,77.1c0-2,0.6-3.6,3-3.6c2.4,0,3,1.6,3,3.6c0,2-0.6,3.7-3,3.7C225.2,80.8,224.6,79.1,224.6,77.1z
					 M225.6,77.1c0,1.5,0.3,2.8,2,2.8c1.7,0,2-1.3,2-2.8c0-1.5-0.3-2.7-2-2.7C225.9,74.4,225.6,75.6,225.6,77.1z"/>
			</g>
			<g class="st2">
				<path class="st6" d="M84,74.9c0.2,0.3,0.4,0.7,0.6,1.1c0.1,0.4,0.2,0.8,0.2,1.3s-0.1,0.9-0.2,1.3c-0.1,0.4-0.3,0.8-0.6,1.1
					c-0.3,0.4-0.2,1.1,0.2,1.4c0.4,0.3,1.1,0.2,1.4-0.2c0.4-0.5,0.7-1,0.9-1.6c0.2-0.6,0.3-1.2,0.3-1.9c0-0.7-0.1-1.3-0.3-1.9
					c-0.2-0.6-0.5-1.1-0.9-1.6c-0.3-0.4-1-0.5-1.4-0.2C83.7,73.8,83.6,74.5,84,74.9"/>
				<path class="st6" d="M87.4,73c0.8,1.2,1.2,2.7,1.2,4.2c0,1.5-0.4,3-1.2,4.2c-0.3,0.5-0.1,1.1,0.3,1.4c0.5,0.3,1.1,0.1,1.4-0.3
					c0.9-1.5,1.5-3.3,1.5-5.3c0-1.9-0.5-3.7-1.5-5.3c-0.3-0.5-0.9-0.6-1.4-0.3C87.3,71.9,87.1,72.6,87.4,73"/>
				<path class="st6" d="M91,71.1c1.1,1.8,1.7,3.9,1.7,6.1c0,2.2-0.6,4.3-1.7,6.1c-0.3,0.5-0.1,1.1,0.4,1.4c0.5,0.3,1.1,0.1,1.4-0.4
					c1.2-2.1,1.9-4.5,1.9-7.1c0-2.6-0.7-5-1.9-7.1c-0.3-0.5-0.9-0.6-1.4-0.4C90.9,70,90.8,70.6,91,71.1"/>
				<path class="st6" d="M94.7,69.2c1.3,2.4,2.1,5.1,2.1,8c0,2.9-0.8,5.7-2.1,8c-0.3,0.5-0.1,1.1,0.4,1.4c0.5,0.3,1.1,0.1,1.4-0.4
					c1.5-2.7,2.4-5.7,2.4-9c0-3.3-0.9-6.4-2.4-9c-0.3-0.5-0.9-0.7-1.4-0.4C94.6,68.1,94.4,68.7,94.7,69.2"/>
			</g>
			<g class="st2">
				<rect x="39.6" y="30.1" class="st7" width="9.8" height="9.8"/>
				<path class="st7" d="M60.9,29.3c1,0,1.4,0.2,1.4,0.9c0,0.6-0.5,0.9-1.4,0.9h-1.7v-1.7H60.9L60.9,29.3z M59.3,32.5h1.8
					c1,0,1.4,0.3,1.4,0.9c0,0.7-0.5,1-1.5,1h-1.8V32.5L59.3,32.5z M61.5,35.9c0.9,0,1.5-0.2,2.1-0.7c0.5-0.4,0.8-1,0.8-1.8
					c0-0.8-0.4-1.4-1.1-1.9c0.6-0.4,0.8-1,0.8-1.7c0-1.5-1.1-2.3-2.9-2.3h-3.7v8.3H61.5L61.5,35.9z"/>
				<path class="st7" d="M70.2,28.2c-0.1-0.3-0.5-0.6-0.8-0.6h-1.1L65,35.9h1.8l0.6-1.6h3.2l0.7,1.6h1.8L70.2,28.2L70.2,28.2z
					 M68.1,32.8l1-2.7l1,2.7H68.1L68.1,32.8z"/>
				<path class="st7" d="M81.7,35.9v-8.3h-1.7v5.6l-3.1-5.2c-0.2-0.3-0.5-0.4-0.8-0.4h-1.6v8.3h1.8v-5.6l3.1,5.2
					c0.2,0.3,0.5,0.4,0.8,0.4H81.7L81.7,35.9z"/>
				<path class="st7" d="M89.9,33.3c-0.6,0.8-1.3,1.2-2.2,1.2c-0.7,0-1.3-0.2-1.8-0.7c-0.5-0.5-0.7-1.1-0.7-1.9
					c0-0.8,0.2-1.4,0.7-1.9c0.5-0.5,1.1-0.7,1.7-0.7c0.6,0,1.2,0.2,1.7,0.6c0.3,0.3,0.8,0.2,1.2-0.1l0.5-0.6c-0.8-1-1.9-1.6-3.3-1.6
					c-1.2,0-2.3,0.4-3.1,1.2c-0.8,0.8-1.2,1.8-1.2,3.1c0,1.3,0.4,2.3,1.2,3.1c0.8,0.8,1.9,1.2,3.2,1.2c1.4,0,2.5-0.5,3.4-1.6
					L89.9,33.3L89.9,33.3z"/>
				<path class="st7" d="M99.2,28.8c-0.8-0.8-1.8-1.2-3-1.2c-1.2,0-2.2,0.4-3,1.2c-0.8,0.8-1.2,1.8-1.2,3c0,1.2,0.4,2.3,1.2,3.1
					c0.8,0.8,1.8,1.2,3,1.2c1.2,0,2.2-0.4,3-1.2c0.8-0.8,1.2-1.8,1.2-3.1C100.5,30.6,100,29.6,99.2,28.8L99.2,28.8z M98,33.7
					c-0.4,0.5-1,0.8-1.8,0.8c-0.8,0-1.4-0.2-1.8-0.8c-0.4-0.5-0.7-1.1-0.7-1.9c0-0.7,0.2-1.3,0.7-1.9c0.5-0.5,1.1-0.8,1.8-0.8
					c0.7,0,1.3,0.3,1.8,0.8c0.5,0.5,0.7,1.1,0.7,1.8C98.7,32.5,98.4,33.2,98,33.7L98,33.7z"/>
				<path class="st7" d="M123.1,39.6c-0.1-0.3-0.5-0.6-0.8-0.6h-1.1l-3.2,8.3h1.8l0.6-1.6h3.2l0.7,1.6h1.8L123.1,39.6L123.1,39.6z
					 M121,44.1l1-2.7l1,2.7H121L121,44.1z"/>
				<path class="st7" d="M75.6,44.7c-0.6,0.8-1.3,1.2-2.2,1.2c-0.7,0-1.3-0.2-1.8-0.7c-0.5-0.5-0.7-1.1-0.7-1.9
					c0-0.8,0.2-1.4,0.7-1.9c0.5-0.5,1.1-0.7,1.7-0.7c0.6,0,1.2,0.2,1.7,0.6c0.4,0.3,0.9,0.2,1.2-0.1l0.5-0.6c-0.8-1-1.9-1.6-3.3-1.6
					c-1.2,0-2.3,0.4-3.1,1.2c-0.8,0.8-1.2,1.8-1.2,3.1c0,1.3,0.4,2.3,1.2,3.1c0.8,0.8,1.9,1.2,3.2,1.2c1.4,0,2.5-0.5,3.4-1.6
					L75.6,44.7L75.6,44.7z"/>
				<polygon class="st7" points="67.4,39 65.6,39 65.6,47.3 67.4,47.3 67.4,39 				"/>
				<polygon class="st7" points="89.2,39 87.5,39 87.5,47.3 89.3,47.3 89.3,39 89.2,39 				"/>
				<path class="st7" d="M85.3,47.3V39h-0.9c-0.5,0-0.9,0.4-0.9,0.9v2.4h-3.5V39h-1.8v8.3h1.8v-3.4h3.5v3.4H85.3L85.3,47.3z"/>
				<path class="st7" d="M63.3,39.8c-0.6-0.5-1.4-0.8-2.4-0.8h-3.4v8.3h1.8v-2.6h1.6c1,0,1.7-0.3,2.3-0.8c0.6-0.5,0.9-1.2,0.9-2.1
					C64.2,41,63.9,40.3,63.3,39.8L63.3,39.8z M60.6,43.1h-1.3v-2.4h1.3c1.2,0,1.8,0.4,1.8,1.2C62.4,42.7,61.8,43.1,60.6,43.1
					L60.6,43.1z"/>
				<path class="st7" d="M98.6,47.3V39h-1.7v5.6l-3.1-5.2C93.6,39.2,93.3,39,93,39h-1.6v8.3h1.8v-5.6l3.1,5.2
					c0.2,0.3,0.5,0.4,0.8,0.4H98.6L98.6,47.3z"/>
				<path class="st7" d="M106.8,44.7c-0.6,0.8-1.3,1.2-2.2,1.2c-0.7,0-1.3-0.2-1.8-0.7c-0.5-0.5-0.7-1.1-0.7-1.9
					c0-0.8,0.2-1.4,0.7-1.9c0.5-0.5,1.1-0.7,1.7-0.7c0.6,0,1.2,0.2,1.7,0.6c0.3,0.3,0.8,0.2,1.2-0.1l0.5-0.6c-0.8-1-1.9-1.6-3.3-1.6
					c-1.2,0-2.3,0.4-3.1,1.2c-0.8,0.8-1.2,1.8-1.2,3.1c0,1.3,0.4,2.3,1.2,3.1c0.8,0.8,1.9,1.2,3.2,1.2c1.4,0,2.5-0.5,3.4-1.6
					L106.8,44.7L106.8,44.7z"/>
				<path class="st7" d="M116.6,47.3V39h-0.9c-0.5,0-0.9,0.4-0.9,0.9v2.4h-3.5V39h-1.8v8.3h1.8v-3.4h3.5v3.4H116.6L116.6,47.3z"/>
				<path class="st8" d="M43.7,27.7H31.3v13.1c0,3.6,3,6.6,6.6,6.6H51V27.7H43.7z M47.7,37.5h-3v-3.6h-3.6v-3h6.6V37.5z"/>
			</g>
		</g>
		<g class="st0">
			<g>
				<polygon class="st5" points="209.5,155.8 212.2,139.1 216.4,139.1 213.8,155.8 				"/>
				<path class="st5" d="M229.2,139.5c-0.8-0.3-2.2-0.7-3.8-0.7c-4.2,0-7.2,2.3-7.2,5.5c0,2.4,2.1,3.7,3.7,4.5
					c1.7,0.8,2.2,1.3,2.2,2.1c0,1.1-1.3,1.6-2.6,1.6c-1.7,0-2.6-0.3-4-0.9l-0.5-0.3l-0.6,3.7c1,0.5,2.8,0.9,4.7,0.9
					c4.5,0,7.4-2.2,7.4-5.7c0-1.9-1.1-3.3-3.6-4.5c-1.5-0.8-2.4-1.3-2.4-2.1c0-0.7,0.8-1.4,2.4-1.4c1.4,0,2.4,0.3,3.2,0.6l0.4,0.2
					L229.2,139.5z"/>
				<path class="st5" d="M234.9,149.9c0.4-1,1.7-4.7,1.7-4.7c0,0,0.3-1,0.6-1.6l0.3,1.4c0,0,0.8,4,1,4.8H234.9z M240.2,139.1h-3.3
					c-1,0-1.8,0.3-2.2,1.4l-6.3,15.3h4.5c0,0,0.7-2.1,0.9-2.5c0.5,0,4.8,0,5.5,0c0.1,0.6,0.5,2.5,0.5,2.5h4L240.2,139.1z"/>
				<path class="st5" d="M210.4,139.1l-6.7,16.7h-4.5l-3.8-14.5c-1.3-0.8-2.8-1.4-4.5-1.8l0.1-0.4h6.9c0.9,0,1.7,0.4,1.9,1.4
					l1.5,7.7l0.4,2.3l4.2-11.4H210.4z"/>
			</g>
		</g>
		<g id="diams_silver_1_" class="st0">
			<linearGradient id="SVGID_5_" gradientUnits="userSpaceOnUse" x1="45.0348" y1="64.8106" x2="69.3688" y2="89.1446">
				<stop  offset="0" style="stop-color:#898586"/>
				<stop  offset="0.1238" style="stop-color:#ABA8A9"/>
				<stop  offset="0.2921" style="stop-color:#D8D8DA"/>
				<stop  offset="0.3125" style="stop-color:#D3D2D5"/>
				<stop  offset="0.4258" style="stop-color:#B8B7B8"/>
				<stop  offset="0.4888" style="stop-color:#AEADAE"/>
				<stop  offset="0.5486" style="stop-color:#BBBABB"/>
				<stop  offset="0.7528" style="stop-color:#E4E3E4"/>
				<stop  offset="0.8505" style="stop-color:#C2BEBF"/>
				<stop  offset="1" style="stop-color:#898586"/>
			</linearGradient>
			<path class="st9" d="M72.1,85.1c0,1.7-1.4,3.2-3.2,3.2H45.4c-1.7,0-3.2-1.4-3.2-3.2V68.9c0-1.7,1.4-3.2,3.2-3.2H69
				c1.7,0,3.2,1.4,3.2,3.2V85.1z"/>
			<g>
				<path class="st10" d="M57.1,66.7c-0.4,0-0.7,0.3-0.7,0.7c0,0.4,0.3,0.7,0.7,0.7c0.4,0,0.7-0.3,0.7-0.7
					C57.8,67,57.5,66.7,57.1,66.7z"/>
				<path class="st10" d="M69,65.6H45.4c-1.8,0-3.2,1.4-3.2,3.2v16.2c0,1.8,1.5,3.2,3.2,3.2H69c1.8,0,3.2-1.4,3.2-3.2V68.9
					C72.2,67.1,70.7,65.6,69,65.6z M72.1,68.9v4.3H64c-1.3,0-1.6,1.2-1.6,1.3c0,0.3-0.1,0.7-0.2,1c-0.3,1.1-0.1,3.1,0.2,3.7
					c0.2,0.6,0.1,1.6-0.2,2.7c-0.1,0.2-1.7,5.4-5,5.4c-3.3,0-4.9-5.2-5-5.4c-0.3-1-0.4-2.1-0.2-2.7c0.2-0.7,0.5-2.6,0.2-3.7
					c-0.3-0.9-0.4-1.7-0.3-2.1c0.6-3.4,3.2-5.8,3.6-6.1c0.4-0.3,0.6-0.6,0.6-0.6l0-0.1V66c0.8,0,1.6,0,2.2,0v0.5c0,0,0,0.1,0,0.1
					c0,0,0.2,0.4,0.6,0.6c0.2,0.1,1.4,1.1,2.4,2.8c0.1,0.1,0.1,0.1,0.2,0.1c0,0,0.1,0,0.1,0c0.1-0.1,0.2-0.2,0.1-0.4
					c-1-1.6-2.2-2.8-2.5-3c-0.2-0.1-0.3-0.3-0.4-0.4V66c0.6,0,1,0,1,0c1.5,0,2.8,0,3,0c0.5,0,0.6,0.6,0.6,0.6h7.6
					C71.7,67.2,72.1,68,72.1,68.9z M64,80.3c0,0-0.5-0.1-0.7-0.5c-0.2-0.4-0.7-1.6-0.7-2.8c0-1.2,0.5-2.5,0.7-2.8
					c0.2-0.4,0.7-0.5,0.7-0.5h8.1v6.6H64z M72.1,80.8v4.3c0,0.9-0.4,1.7-1,2.2h-7.6c0,0-0.1,0.6-0.6,0.6c-0.2,0-1.5,0-3,0
					c-0.3,0-0.6,0-0.9,0v-0.4c0.1-0.1,0.2-0.2,0.4-0.4c0.5-0.3,2.8-2.2,3.7-5.8c0,0,0.2-0.5,0.6-0.5C63.9,80.8,72.1,80.8,72.1,80.8z
					 M50.5,73.7c0,0,0.5,0.1,0.7,0.5c0.2,0.4,0.7,1.6,0.7,2.8c0,1.2-0.5,2.5-0.7,2.8c-0.2,0.4-0.7,0.5-0.7,0.5h-8.1v-6.6H50.5z
					 M42.4,73.1v-4.3c0-0.9,0.4-1.7,1-2.2h7.6c0,0,0.1-0.6,0.6-0.6c0.2,0,1.5,0,3,0c0.3,0,0.6,0,0.9,0v0.4c-0.1,0.1-0.2,0.2-0.4,0.4
					c-0.5,0.3-2.8,2.2-3.7,5.8c0,0-0.2,0.5-0.6,0.5C50.5,73.1,42.4,73.1,42.4,73.1z M42.4,85.1v-4.3c0,0,8.2,0,8.4,0
					c0.4,0,0.6,0.5,0.6,0.5c1,3.6,3.2,5.5,3.7,5.8c0.2,0.1,0.3,0.3,0.4,0.4v0.4c-0.3,0-0.6,0-0.9,0c-1.5,0-2.8,0-3,0
					c-0.5,0-0.6-0.6-0.6-0.6h-7.6C42.7,86.8,42.4,86,42.4,85.1z"/>
			</g>
		</g>
		<use xlink:href="#SVGID_1_"  style="overflow:visible;fill:none;stroke:#76777A;stroke-width:0.5;stroke-miterlimit:10;"/>
	</g>
</g>
</svg>
