<?xml version="1.0" encoding="utf-8"?> <!-- Generator: IcoMoon.io --> <!DOCTYPE svg PUBLIC "-//W3C//DTD SVG 1.1//EN" "http://www.w3.org/Graphics/SVG/1.1/DTD/svg11.dtd"> <svg fill="#333333" version="1.1" id="Layer_1" xmlns="http://www.w3.org/2000/svg" xmlns:xlink="http://www.w3.org/1999/xlink" x="0px" y="0px" width="32.00390625" height="32" viewBox="0 0 32.00390625 32" enable-background="new 248 238.304 16 16" xml:space="preserve"> <g><g> </g><path d="M 5.59,27.878c 0.344,0, 0.626-0.278, 0.626-0.622l0-10.728 c0-0.342-0.28-0.622-0.626-0.622l-2.388,0 c-0.348,0-0.626,0.28-0.626,0.622l0,10.728 c0,0.344, 0.28,0.622, 0.626,0.622L 5.59,27.878 L 5.59,27.878zM 30.996,28.922L 1,28.922 c-0.342,0-0.624,0.282-0.624,0.624l0,1.62 c0,0.346, 0.282,0.624, 0.624,0.624l 29.996,0 c 0.348,0, 0.626-0.278, 0.626-0.624l0-1.62 C 31.622,29.202, 31.344,28.922, 30.996,28.922zM 13.33,27.878c 0.342,0, 0.622-0.278, 0.622-0.622l0-10.728 c0-0.342-0.28-0.622-0.622-0.622l-2.394,0 c-0.342,0-0.622,0.28-0.622,0.622l0,10.728 c0,0.344, 0.278,0.622, 0.622,0.622L 13.33,27.878 L 13.33,27.878zM 28.8,27.878c 0.342,0, 0.626-0.278, 0.626-0.622l0-10.728 c0-0.342-0.284-0.622-0.626-0.622l-2.396,0 c-0.342,0-0.622,0.28-0.622,0.622l0,10.728 c0,0.344, 0.28,0.622, 0.622,0.622L 28.8,27.878 L 28.8,27.878zM 31.188,12.402l-12.788-10.584c-1.322-1.092-3.48-1.092-4.802,0l-12.784,10.584c-1.324,1.096-1,1.986, 0.716,1.986l 28.94,0 C 32.186,14.388, 32.508,13.498, 31.188,12.402z M 16,11.814c-1.34,0-2.428-1.090-2.428-2.43s 1.086-2.426, 2.428-2.426 c 1.344,0, 2.428,1.086, 2.428,2.426S 17.344,11.814, 16,11.814zM 21.062,27.878c 0.348,0, 0.626-0.278, 0.626-0.622l0-10.728 c0-0.342-0.278-0.622-0.626-0.622l-2.39,0 c-0.346,0-0.624,0.28-0.624,0.622l0,10.728 c0,0.344, 0.278,0.622, 0.624,0.622L 21.062,27.878 L 21.062,27.878z"></path></g></svg>