<?xml version="1.0" encoding="utf-8"?> <!-- Generator: IcoMoon.io --> <!DOCTYPE svg PUBLIC "-//W3C//DTD SVG 1.1//EN" "http://www.w3.org/Graphics/SVG/1.1/DTD/svg11.dtd"> <svg fill="#333333" version="1.1" id="Capa_1" xmlns="http://www.w3.org/2000/svg" xmlns:xlink="http://www.w3.org/1999/xlink" x="0px" y="0px" width="32" height="32" viewBox="0 0 32 32" enable-background="new 20 20 16 16" xml:space="preserve"> <g><path d="M 21.376,8.432l-0.174,0.278l-0.364,0.404l-0.446,0.354l-0.542,0.298l-0.208,0.082l-0.686,0.2l-0.79,0.128l-0.596,0.040 l-4.886,0 L 13.944,4l 4.818,0.012l 0.646,0.076l 0.726,0.212l 0.33,0.154l 0.38,0.242l 0.226,0.186l 0.348,0.434l 0.226,0.472l 0.12,0.468 l 0.042,0.466l-0.012,0.314l-0.038,0.32l-0.164,0.624L 21.376,8.432zM 32,11.672l0,0.238 l-0.012,0.3l-0.062,0.48L 31.852,13l-0.27,0.608l-0.294,0.424l-0.25,0.266l-0.288,0.24l-0.508,0.312 l-0.61,0.25l-0.718,0.174l-0.836,0.106l-0.312,0.012L 22.88,15.392 l 1.27-6.214l 4.804,0.012L 30,9.358l 0.51,0.188l 0.424,0.246 l 0.438,0.378l 0.262,0.346l 0.218,0.45l 0.12,0.468L 32,11.672zM 9.106,15.216l 0.014,0.214l-0.012,0.326l-0.062,0.468l-0.14,0.468l-0.204,0.448l-0.292,0.422l-0.532,0.502l-0.332,0.22 l-0.584,0.27l-0.676,0.21l-0.526,0.094l-1.182,0.078L 0,18.936 l 1.27-6.23l 4.804,0.014l 0.85,0.13l 0.544,0.174l 0.446,0.216 l 0.374,0.27l 0.29,0.306l 0.282,0.434l 0.1,0.254l 0.074,0.218L 9.106,15.216zM 9.658,9.114l-0.44,0.348l-0.548,0.302l-0.644,0.224l-0.764,0.15l-0.56,0.064l-0.312,0.014l-4.898,0 L 2.762,4 l 4.804,0.012l 0.658,0.076l 0.728,0.212l 0.332,0.154l 0.382,0.234l 0.224,0.192l 0.346,0.434l 0.226,0.468l 0.122,0.474l 0.040,0.466 l-0.010,0.314l-0.038,0.32l-0.164,0.624l-0.218,0.454l-0.174,0.28L 9.658,9.114zM 18.692,24.28l0,0.392 l-0.074,0.622l-0.076,0.308l-0.268,0.616l-0.294,0.424l-0.384,0.388l-0.294,0.218l-0.76,0.38 l-0.684,0.2l-0.786,0.132L 14.472,28l-4.898,0 l 1.27-6.214l 5.032,0.024l 0.828,0.158l 0.498,0.186l 0.286,0.144l 0.48,0.376l 0.352,0.426 l 0.222,0.466l 0.122,0.474L 18.692,24.28zM 20.292,15.216l 0.014,0.214l-0.014,0.326l-0.062,0.468l-0.14,0.468l-0.204,0.448l-0.292,0.422l-0.388,0.386l-0.474,0.336 l-0.384,0.192l-0.408,0.156l-0.718,0.188l-0.834,0.090l-0.622,0.028l-4.576,0 l 1.268-6.23l 4.804,0.014l 0.852,0.13l 0.544,0.174 l 0.448,0.216l 0.372,0.27l 0.292,0.306l 0.284,0.434l 0.104,0.254l 0.070,0.218L 20.292,15.216zM 30.388,20.746l0,0.38 l-0.074,0.634l-0.138,0.47l-0.206,0.456l-0.294,0.422l-0.386,0.386l-0.294,0.22l-0.564,0.302 l-0.634,0.226l-1.034,0.186l-0.606,0.040l-4.886,0 l 1.27-6.216l 4.804,0.014l 1.034,0.166l 0.522,0.188l 0.54,0.328l 0.414,0.394 l 0.16,0.24l 0.122,0.22l 0.172,0.468l 0.054,0.234L 30.388,20.746z"></path></g></svg>