<?xml version="1.0" encoding="utf-8"?> <!-- Generator: IcoMoon.io --> <!DOCTYPE svg PUBLIC "-//W3C//DTD SVG 1.1//EN" "http://www.w3.org/Graphics/SVG/1.1/DTD/svg11.dtd"> <svg fill="#333333" xmlns:xlink="http://www.w3.org/1999/xlink" xmlns="http://www.w3.org/2000/svg" width="32" height="32" viewBox="0 0 32 32"><g><path d="M 29.268,8.536q 0.714,1.018 0.321,2.304l-4.911,16.179q-0.339,1.143 -1.366,1.92t-2.188,0.777l-16.482,0 q-1.375,0 -2.652-0.955t-1.777-2.348q-0.429-1.196 -0.036-2.268q0-0.071 0.054-0.482t 0.071-0.661q 0.018-0.143 -0.054-0.384t-0.054-0.348q 0.036-0.196 0.143-0.375t 0.295-0.42t 0.295-0.42q 0.411-0.679 0.804-1.634t 0.536-1.634q 0.054-0.179 0.009-0.536t-0.009-0.5q 0.054-0.196 0.304-0.5t 0.304-0.411 q 0.375-0.643 0.75-1.643t 0.446-1.607q 0.018-0.161 -0.045-0.571t 0.009-0.5q 0.071-0.232 0.393-0.545t 0.393-0.402q 0.339-0.464 0.759-1.509t 0.491-1.723q 0.018-0.143 -0.054-0.455t-0.036-0.473q 0.036-0.143 0.161-0.321t 0.321-0.411t 0.304-0.375q 0.143-0.214 0.295-0.545t 0.268-0.625t 0.286-0.643t 0.348-0.571t 0.473-0.42t 0.643-0.205t 0.848,0.098l-0.018,0.054q 0.679-0.161 0.911-0.161l 13.589,0 q 1.321,0 2.036,1t 0.321,2.321l-4.893,16.179 q-0.643,2.125 -1.277,2.741t-2.295,0.616l-15.518,0 q-0.482,0 -0.679,0.268q-0.196,0.286 -0.018,0.768q 0.429,1.25 2.571,1.25l 16.482,0 q 0.518,0 1-0.277t 0.625-0.741l 5.357-17.625q 0.125-0.393 0.089-1.018q 0.679,0.268 1.054,0.768zM 10.268,8.571q-0.071,0.232 0.036,0.402t 0.357,0.17l 10.857,0 q 0.232,0 0.455-0.17t 0.295-0.402l 0.375-1.143q 0.071-0.232 -0.036-0.402t-0.357-0.17l-10.857,0 q-0.232,0 -0.455,0.17 t-0.295,0.402zM 8.786,13.143q-0.071,0.232 0.036,0.402t 0.357,0.17l 10.857,0 q 0.232,0 0.455-0.17t 0.295-0.402l 0.375-1.143q 0.071-0.232 -0.036-0.402t-0.357-0.17l-10.857,0 q-0.232,0 -0.455,0.17t-0.295,0.402z"></path></g></svg>