<?xml version="1.0" encoding="utf-8"?> <!-- Generator: IcoMoon.io --> <!DOCTYPE svg PUBLIC "-//W3C//DTD SVG 1.1//EN" "http://www.w3.org/Graphics/SVG/1.1/DTD/svg11.dtd"> <svg fill="#333333" xmlns:xlink="http://www.w3.org/1999/xlink" xmlns="http://www.w3.org/2000/svg" width="32" height="32" viewBox="0 0 32 32"><g><path d="M 2.286,29.714l 25.143,0 l0-18.286 l-25.143,0 l0,18.286 zM 9.143,8l0-5.143 q0-0.25 -0.161-0.411t-0.411-0.161l-1.143,0 q-0.25,0 -0.411,0.161t-0.161,0.411l0,5.143 q0,0.25 0.161,0.411t 0.411,0.161l 1.143,0 q 0.25,0 0.411-0.161t 0.161-0.411zM 22.857,8l0-5.143 q0-0.25 -0.161-0.411t-0.411-0.161l-1.143,0 q-0.25,0 -0.411,0.161t-0.161,0.411l0,5.143 q0,0.25 0.161,0.411t 0.411,0.161l 1.143,0 q 0.25,0 0.411-0.161t 0.161-0.411zM 29.714,6.857l0,22.857 q0,0.929 -0.679,1.607t-1.607,0.679l-25.143,0 q-0.929,0 -1.607-0.679t-0.679-1.607l0-22.857 q0-0.929 0.679-1.607t 1.607-0.679l 2.286,0 l0-1.714 q0-1.179 0.839-2.018t 2.018-0.839l 1.143,0 q 1.179,0 2.018,0.839t 0.839,2.018l0,1.714 l 6.857,0 l0-1.714 q0-1.179 0.839-2.018t 2.018-0.839l 1.143,0 q 1.179,0 2.018,0.839t 0.839,2.018l0,1.714 l 2.286,0 q 0.929,0 1.607,0.679t 0.679,1.607z"></path></g></svg>