<?xml version="1.0" encoding="utf-8"?> <!-- Generator: IcoMoon.io --> <!DOCTYPE svg PUBLIC "-//W3C//DTD SVG 1.1//EN" "http://www.w3.org/Graphics/SVG/1.1/DTD/svg11.dtd"> <svg fill="#333333" xmlns:xlink="http://www.w3.org/1999/xlink" xmlns="http://www.w3.org/2000/svg" width="32" height="32" viewBox="0 0 32 32"><g><path d="M 18.667,3.333l-2,0 c-5.233,0-9.527,4.013-9.967,9.133C 3.513,14.14, 1.333,17.481, 1.333,21.333l 0.007,0.033 C 0.573,21.52,0,22.193,0,23C0,23.92, 0.747,24.667, 1.667,24.667l 2.347,0 c 0.167,2.607, 2.34,4.667, 4.987,4.667c 2.647,0, 4.82-2.060, 4.987-4.667l 4.693,0 c 0.167,2.607, 2.34,4.667, 4.987,4.667c 2.76,0, 5-2.24, 5-5c0-0.18-0.013-0.367-0.033-0.541C 30.647,22.64, 32,20.481, 32,18l0-4.533 c0-0.813-0.653-1.467-1.467-1.467l-1.953,0 C 27.927,7.107, 23.739,3.333, 18.667,3.333z M 16,6.7L 16,13.333 l-6,0 C 10,9.874, 12.633,7.033, 16,6.7z M 19.333,13.333l0-6.633 c 3.367,0.333, 6,3.174, 6,6.633L 19.333,13.333 z M 10.667,24.333c0,0.92-0.747,1.667-1.667,1.667S 7.333,25.253, 7.333,24.333s 0.747-1.667, 1.667-1.667S 10.667,23.413, 10.667,24.333z M 25.333,24.333 c0,0.92-0.747,1.667-1.667,1.667S 22,25.253, 22,24.333s 0.747-1.667, 1.667-1.667S 25.333,23.413, 25.333,24.333z"></path></g></svg>