<?xml version="1.0" encoding="utf-8"?> <!-- Generator: IcoMoon.io --> <!DOCTYPE svg PUBLIC "-//W3C//DTD SVG 1.1//EN" "http://www.w3.org/Graphics/SVG/1.1/DTD/svg11.dtd"> <svg fill="#333333" xmlns:xlink="http://www.w3.org/1999/xlink" xmlns="http://www.w3.org/2000/svg" width="32" height="32" viewBox="0 0 32 32"><g><path d="M 24.571,16l 2.464,2.411q 0.536,0.5 0.357,1.25q-0.214,0.732 -0.929,0.911l-3.357,0.857l 0.946,3.321q 0.214,0.732 -0.339,1.25q-0.518,0.554 -1.25,0.339l-3.321-0.946l-0.857,3.357q-0.179,0.714 -0.911,0.929q-0.214,0.036 -0.339,0.036q-0.554,0 -0.911-0.393l-2.411-2.464l-2.411,2.464q-0.5,0.536 -1.25,0.357q-0.732-0.196 -0.911-0.929l-0.857-3.357l-3.321,0.946q-0.732,0.214 -1.25-0.339q-0.554-0.518 -0.339-1.25 l 0.946-3.321l-3.357-0.857q-0.714-0.179 -0.929-0.911q-0.179-0.75 0.357-1.25l 2.464-2.411l-2.464-2.411q-0.536-0.5 -0.357-1.25q 0.214-0.732 0.929-0.911l 3.357-0.857l-0.946-3.321q-0.214-0.732 0.339-1.25q 0.518-0.554 1.25-0.339l 3.321,0.946l 0.857-3.357q 0.179-0.732 0.911-0.911q 0.732-0.214 1.25,0.339l 2.411,2.482l 2.411-2.482q 0.518-0.536 1.25-0.339q 0.732,0.179 0.911,0.911l 0.857,3.357l 3.321-0.946q 0.732-0.214 1.25,0.339q 0.554,0.518 0.339,1.25 l-0.946,3.321l 3.357,0.857q 0.714,0.179 0.929,0.911q 0.179,0.75 -0.357,1.25z"></path></g></svg>