<?xml version="1.0" encoding="utf-8"?> <!-- Generator: IcoMoon.io --> <!DOCTYPE svg PUBLIC "-//W3C//DTD SVG 1.1//EN" "http://www.w3.org/Graphics/SVG/1.1/DTD/svg11.dtd"> <svg fill="#333333" xmlns:xlink="http://www.w3.org/1999/xlink" xmlns="http://www.w3.org/2000/svg" width="34.28515625" height="32" viewBox="0 0 34.28515625 32"><g><path d="M 31.429,2.286q 1.179,0 2.018,0.839t 0.839,2.018l0,21.714 q0,1.179 -0.839,2.018t-2.018,0.839l-28.571,0 q-1.179,0 -2.018-0.839t-0.839-2.018l0-21.714 q0-1.179 0.839-2.018t 2.018-0.839l 28.571,0 zM 2.857,4.571q-0.232,0 -0.402,0.17t-0.17,0.402l0,4 l 29.714,0 l0-4 q0-0.232 -0.17-0.402t-0.402-0.17l-28.571,0 zM 31.429,27.429q 0.232,0 0.402-0.17t 0.17-0.402l0-10.857 l-29.714,0 l0,10.857 q0,0.232 0.17,0.402t 0.402,0.17l 28.571,0 zM 4.571,25.143l0-2.286 l 4.571,0 l0,2.286 l-4.571,0 zM 11.429,25.143l0-2.286 l 6.857,0 l0,2.286 l-6.857,0 z"></path></g></svg>