<?xml version="1.0" encoding="utf-8"?> <!-- Generator: IcoMoon.io --> <!DOCTYPE svg PUBLIC "-//W3C//DTD SVG 1.1//EN" "http://www.w3.org/Graphics/SVG/1.1/DTD/svg11.dtd"> <svg fill="#333333" xmlns:xlink="http://www.w3.org/1999/xlink" xmlns="http://www.w3.org/2000/svg" width="32" height="32" viewBox="0 0 32 32"><g><path d="M 32,12.679l0,14.179 q0,1.179 -0.839,2.018t-2.018,0.839l-26.286,0 q-1.179,0 -2.018-0.839t-0.839-2.018l0-14.179 q 0.786,0.875 1.804,1.554q 6.464,4.393 8.875,6.161q 1.018,0.75 1.652,1.17t 1.688,0.857t 1.964,0.438l 0.018,0 l 0.018,0 q 0.911,0 1.964-0.438t 1.688-0.857t 1.652-1.17q 3.036-2.196 8.893-6.161q 1.018-0.696 1.786-1.554zM 32,7.429q0,1.411 -0.875,2.696t-2.179,2.196 q-6.714,4.661 -8.357,5.804q-0.179,0.125 -0.759,0.545t-0.964,0.679t-0.929,0.58t-1.027,0.482t-0.893,0.161l-0.018,0 l-0.018,0 q-0.411,0 -0.893-0.161t-1.027-0.482t-0.929-0.58t-0.964-0.679t-0.759-0.545q-1.625-1.143 -4.679-3.259t-3.661-2.545q-1.107-0.75 -2.089-2.063t-0.982-2.438q0-1.393 0.741-2.321t 2.116-0.929l 26.286,0 q 1.161,0 2.009,0.839t 0.848,2.018z"></path></g></svg>