<?xml version="1.0" encoding="utf-8"?> <!-- Generator: IcoMoon.io --> <!DOCTYPE svg PUBLIC "-//W3C//DTD SVG 1.1//EN" "http://www.w3.org/Graphics/SVG/1.1/DTD/svg11.dtd"> <svg fill="#333333" xmlns:xlink="http://www.w3.org/1999/xlink" xmlns="http://www.w3.org/2000/svg" width="32" height="32" viewBox="0 0 32 32"><g><path d="M 13.714,2.286q 3.732,0 6.884,1.839t 4.991,4.991t 1.839,6.884t-1.839,6.884t-4.991,4.991t-6.884,1.839t-6.884-1.839t-4.991-4.991t-1.839-6.884t 1.839-6.884t 4.991-4.991t 6.884-1.839zM 16,24.554l0-3.393 q0-0.25 -0.161-0.42t-0.393-0.17l-3.429,0 q-0.232,0 -0.411,0.179t-0.179,0.411l0,3.393 q0,0.232 0.179,0.411t 0.411,0.179l 3.429,0 q 0.232,0 0.393-0.17t 0.161-0.42zM 15.964,18.411l 0.321-11.089q0-0.214 -0.179-0.321q-0.179-0.143 -0.429-0.143l-3.929,0 q-0.25,0 -0.429,0.143q-0.179,0.107 -0.179,0.321l 0.304,11.089q0,0.179 0.179,0.313t 0.429,0.134l 3.304,0 q 0.25,0 0.42-0.134t 0.188-0.313z"></path></g></svg>