<?xml version="1.0" encoding="utf-8"?> <!-- Generator: IcoMoon.io --> <!DOCTYPE svg PUBLIC "-//W3C//DTD SVG 1.1//EN" "http://www.w3.org/Graphics/SVG/1.1/DTD/svg11.dtd"> <svg fill="#333333" xmlns:xlink="http://www.w3.org/1999/xlink" xmlns="http://www.w3.org/2000/svg" width="32" height="32" viewBox="0 0 32 32"><g><path d="M 26.313,18.421c-0.426-0.42-1.372-0.643-2.812-0.662c-0.974-0.011-2.147,0.075-3.38,0.248 c-0.552-0.319-1.122-0.665-1.568-1.083c-1.202-1.122-2.205-2.68-2.83-4.394c 0.041-0.16, 0.075-0.301, 0.108-0.444 c0,0, 0.677-3.846, 0.498-5.146c-0.025-0.178-0.040-0.23-0.088-0.369l-0.059-0.151c-0.184-0.425-0.545-0.875-1.111-0.85 l-0.332-0.011l-0.009-0c-0.631,0-1.146,0.323-1.281,0.805c-0.411,1.514, 0.013,3.778, 0.781,6.711l-0.197,0.478 c-0.55,1.34-1.238,2.689-1.846,3.88l-0.079,0.155c-0.639,1.251-1.22,2.313-1.745,3.213l-0.543,0.287 c-0.040,0.021-0.97,0.513-1.188,0.645c-1.852,1.106-3.079,2.361-3.282,3.357c-0.065,0.318-0.017,0.725, 0.313,0.913 l 0.525,0.264c 0.228,0.114, 0.468,0.172, 0.714,0.172c 1.319,0, 2.85-1.643, 4.959-5.324 c 2.435-0.793, 5.208-1.452, 7.638-1.815c 1.852,1.043, 4.129,1.767, 5.567,1.767c 0.255,0, 0.475-0.024, 0.654-0.072 c 0.276-0.073, 0.508-0.23, 0.65-0.444c 0.279-0.42, 0.335-0.998, 0.26-1.59C 26.605,18.787, 26.465,18.57, 26.313,18.421z M 6.614,25.439c 0.24-0.658, 1.192-1.958, 2.6-3.111c 0.088-0.072, 0.306-0.276, 0.506-0.466 C 8.248,24.21, 7.262,25.145, 6.614,25.439z M 14.951,6.24c 0.424,0, 0.665,1.069, 0.685,2.070 c 0.020,1.002-0.214,1.705-0.505,2.225c-0.241-0.77-0.357-1.984-0.357-2.778C 14.774,7.758, 14.757,6.24, 14.951,6.24z M 12.464,19.922c 0.295-0.529, 0.603-1.086, 0.917-1.677c 0.765-1.447, 1.249-2.58, 1.609-3.511 c 0.716,1.303, 1.608,2.41, 2.656,3.297c 0.131,0.111, 0.269,0.222, 0.415,0.333C 15.928,18.785, 14.086,19.298, 12.464,19.922z M 25.903,19.802c-0.13,0.081-0.502,0.128-0.741,0.128c-0.772,0-1.727-0.353-3.066-0.927 c 0.515-0.038, 0.986-0.057, 1.409-0.057c 0.774,0, 1.004-0.003, 1.761,0.19S 26.033,19.72, 25.903,19.802zM 28.232,6.232l-4.465-4.464C 22.796,0.795, 20.875,0, 19.5,0L 4.5,0 C 3.125,0, 2,1.125, 2,2.5l0,27 c0,1.375, 1.125,2.5, 2.5,2.5l 23,0 c 1.375,0, 2.5-1.125, 2.5-2.5L 30,10.5 C 30,9.125, 29.204,7.204, 28.232,6.232z M 26.818,7.646c 0.098,0.098, 0.195,0.218, 0.29,0.354L 22,8 L 22,2.892 c 0.136,0.095, 0.256,0.192, 0.354,0.29L 26.818,7.646z M 28,29.5c0,0.271-0.229,0.5-0.5,0.5L 4.5,30 c-0.271,0-0.5-0.229-0.5-0.5L 4,2.5 c0-0.271, 0.229-0.5, 0.5-0.5l 15,0 c 0.151,0, 0.32,0.019, 0.5,0.053L 20,10 l 7.947,0 c 0.034,0.18, 0.053,0.349, 0.053,0.5L 28,29.5 z"></path></g></svg>