<?xml version="1.0" encoding="utf-8"?> <!-- Generator: IcoMoon.io --> <!DOCTYPE svg PUBLIC "-//W3C//DTD SVG 1.1//EN" "http://www.w3.org/Graphics/SVG/1.1/DTD/svg11.dtd"> <svg fill="#333333" xmlns:xlink="http://www.w3.org/1999/xlink" xmlns="http://www.w3.org/2000/svg" width="32" height="32" viewBox="0 0 32 32"><g><path d="M 16.031,24c-4.135,0-8.177-0.605-12.066-1.803l 0.633-1.898C 8.283,21.429, 12.113,22, 16.031,22 c 0.511,0, 1.020-0.010, 1.528-0.030C 17.691,19.547, 18,18, 18,18s-2,0-6,0c0-5.469, 1.869-10.314, 3.904-13.969L0,4.031 l0,23.938 l 17.693,0 c-0.146-1.428-0.197-2.777-0.192-3.995C 17.012,23.991, 16.522,24, 16.031,24z M 6,8l 2,0 l0,4 L 6,12 L 6,8 zM 32,4.031L 18.652,4.031 c-0.061,0.1-0.122,0.2-0.182,0.303c-1.2,2.018-2.154,4.086-2.835,6.147 c-0.569,1.723-0.947,3.445-1.13,5.144l 6.402,0 l-0.577,2.839c-0.010,0.051-0.255,1.339-0.381,3.342 c 2.558-0.254, 5.069-0.756, 7.516-1.507l 0.633,1.898c-2.674,0.824-5.421,1.367-8.22,1.626 c-0.001,0.137-0.002,0.275-0.001,0.415c 0.004,1.27, 0.073,2.518, 0.206,3.731L 32,27.969 L 32,4.031 z M 26,12l-2,0 l0-4 l 2,0 L 26,12 zM 18.352,32l 2.443,0 c-0.171-0.682-0.318-1.381-0.442-2.096c-0.109-0.633-0.199-1.279-0.271-1.935l-2.389,0 C 17.825,29.262, 18.035,30.619, 18.352,32zM 21.514,0l-3.012,0 c-0.805,1.090-1.717,2.449-2.598,4.031l 2.748,0 C 19.704,2.303, 20.751,0.925, 21.514,0z"></path></g></svg>