<?xml version="1.0" encoding="utf-8"?> <!-- Generator: IcoMoon.io --> <!DOCTYPE svg PUBLIC "-//W3C//DTD SVG 1.1//EN" "http://www.w3.org/Graphics/SVG/1.1/DTD/svg11.dtd"> <svg fill="#333333" xmlns:xlink="http://www.w3.org/1999/xlink" xmlns="http://www.w3.org/2000/svg" width="32" height="32" viewBox="0 0 32 32"><g><path d="M 22.286,2.286q 2.125,0 3.634,1.509t 1.509,3.634l0,17.143 q0,2.125 -1.509,3.634t-3.634,1.509l-17.143,0 q-2.125,0 -3.634-1.509t-1.509-3.634l0-17.143 q0-2.125 1.509-3.634t 3.634-1.509l 17.143,0 zM 12.464,16q0-1.571 -1.107-2.679t-2.679-1.107t-2.679,1.107t-1.107,2.679t 1.107,2.679t 2.679,1.107t 2.679-1.107t 1.107-2.679zM 22.536,16q0-1.571 -1.107-2.679 t-2.679-1.107t-2.679,1.107t-1.107,2.679t 1.107,2.679t 2.679,1.107t 2.679-1.107t 1.107-2.679z"></path></g></svg>