<?xml version="1.0" encoding="utf-8"?> <!-- Generator: IcoMoon.io --> <!DOCTYPE svg PUBLIC "-//W3C//DTD SVG 1.1//EN" "http://www.w3.org/Graphics/SVG/1.1/DTD/svg11.dtd"> <svg fill="#333333" xmlns:xlink="http://www.w3.org/1999/xlink" xmlns="http://www.w3.org/2000/svg" width="32" height="32" viewBox="0 0 32 32"><g><path d="M 16.571,24.214l0-1 l0-8.357 l0-3.429 l-5.714,0 l0,3.429 l0,8.357 l0,1 q0,0.446 0.321,0.688t 0.821,0.241l 3.429,0 q 0.5,0 0.821-0.241t 0.321-0.688zM 8.429,9.143l 3.482,0 l-2.25-2.875q-0.464-0.554 -1.232-0.554q-0.714,0 -1.214,0.5t-0.5,1.214t 0.5,1.214t 1.214,0.5zM 20.714,7.429q0-0.714 -0.5-1.214t-1.214-0.5q-0.768,0 -1.232,0.554l-2.232,2.875l 3.464,0 q 0.714,0 1.214-0.5t 0.5-1.214zM 27.429,12l0,5.714 q0,0.25 -0.161,0.411t-0.411,0.161l-1.714,0 l0,7.429 q0,0.714 -0.5,1.214t-1.214,0.5l-19.429,0 q-0.714,0 -1.214-0.5t-0.5-1.214l0-7.429 l-1.714,0 q-0.25,0 -0.411-0.161t-0.161-0.411l0-5.714 q0-0.25 0.161-0.411t 0.411-0.161l 7.857,0 q-1.661,0 -2.83-1.17t-1.17-2.83t 1.17-2.83t 2.83-1.17q 1.911,0 3,1.375l 2.286,2.946l 2.286-2.946q 1.089-1.375 3-1.375q 1.661,0 2.83,1.17t 1.17,2.83 t-1.17,2.83t-2.83,1.17l 7.857,0 q 0.25,0 0.411,0.161t 0.161,0.411z"></path></g></svg>