<?xml version="1.0" encoding="utf-8"?> <!-- Generator: IcoMoon.io --> <!DOCTYPE svg PUBLIC "-//W3C//DTD SVG 1.1//EN" "http://www.w3.org/Graphics/SVG/1.1/DTD/svg11.dtd"> <svg fill="#333333" xmlns:xlink="http://www.w3.org/1999/xlink" xmlns="http://www.w3.org/2000/svg" width="32" height="32" viewBox="0 0 32 32"><g><path d="M 12.107,28.446q0,0.679 -0.179,1.268l-6.786,0 q-1.696,0 -3.063-1.009t-1.848-2.634q 0.429-0.804 1.232-1.384t 1.786-0.884t 1.911-0.429t 1.911-0.125q 0.571,0 0.875,0.036q 0.107,0.071 0.545,0.375t 0.589,0.411t 0.554,0.411t 0.571,0.455t 0.491,0.455t 0.473,0.527t 0.375,0.545t 0.313,0.616t 0.17,0.643t 0.080,0.723zM 6.875,22.179q-4.179,0.125 -6.875,1.518l0-7.732 q 1.839,2.107 4.875,2.107 q 0.571,0 1.25-0.089q-0.375,1.089 -0.375,1.536q0,1.196 1.125,2.661zM 9.964,13.054q0,1.786 -0.777,2.866t-2.509,1.080q-0.911,0 -1.732-0.464t-1.393-1.205t-1-1.67t-0.634-1.857t-0.205-1.768q0-1.714 0.92-2.946t 2.58-1.232q 1.179,0 2.125,0.732t 1.5,1.857t 0.839,2.321t 0.286,2.286zM 27.429,11.429l0,13.143 q0,2.125 -1.509,3.634t-3.634,1.509l-8.357,0 q 0.696-1.304 0.696-2.804q0-1.179 -0.393-2.188t-0.991-1.661t-1.286-1.268t-1.286-1.063t-0.991-0.973t-0.393-1.063q0-0.643 0.411-1.214t 1-1.098t 1.17-1.152t 0.991-1.661t 0.411-2.339t-0.473-2.598t-1.348-2.116q-0.107-0.107 -0.25-0.196t-0.223-0.134t-0.179-0.17t-0.188-0.304l 2.411,0 l 2.411-1.143l-7.804,0 q-2.464,0 -4.366,0.688t-3.259,2.384q0-2.25 1.446-3.804t 3.696-1.554l 17.143,0 q 2.125,0 3.634,1.509t 1.509,3.634l0,1.714 l-4.571,0 l0-4.571 l-2.286,0 l0,4.571 l-4.571,0 l0,2.286 l 4.571,0 l0,4.571 l 2.286,0 l0-4.571 l 4.571,0 z"></path></g></svg>