<?xml version="1.0" encoding="utf-8"?> <!-- Generator: IcoMoon.io --> <!DOCTYPE svg PUBLIC "-//W3C//DTD SVG 1.1//EN" "http://www.w3.org/Graphics/SVG/1.1/DTD/svg11.dtd"> <svg fill="#333333" xmlns:xlink="http://www.w3.org/1999/xlink" xmlns="http://www.w3.org/2000/svg" width="32" height="32" viewBox="0 0 32 32"><g><path d="M 25.143,17.143q0-1.5 -0.571-3.268t-1.143-3.464t-0.571-2.982l0-0.571 l-11.429,0 l0,0.571 q0,0.625 -0.214,1.205t-0.661,1.116t-0.821,0.893t-0.964,0.875q-0.161,0.143 -0.25,0.214q-1.446,1.286 -2.589,2q-0.393,0.25 -1.214,0.679q-0.054,0.018 -0.402,0.188t-0.643,0.33t-0.634,0.357t-0.545,0.384t-0.205,0.33q0,1.268 0.545,2.063t 1.741,0.795q 0.768,0 1.509-0.268t 1.214-0.589 t 0.982-0.589t 0.866-0.268l0,10.286 q0,0.893 0.688,1.589t 1.598,0.696q 0.929,0 1.607-0.679t 0.679-1.607l0-5.911 q 0.821,0.625 1.839,0.625q 1.232,0 2.125-0.946q 0.571,0.321 1.232,0.321t 1.313-0.313t 0.938-0.848q 0.429,0.071 1,0.071q 1.518,0 2.25-0.866t 0.732-2.42zM 22.857,3.429q0-0.464 -0.339-0.804t-0.804-0.339t-0.804,0.339t-0.339,0.804t 0.339,0.804t 0.804,0.339t 0.804-0.339t 0.339-0.804zM 27.429,17.071 q0,2.536 -1.384,4.107t-3.884,1.554l-0.089-0.018q-1.357,1.089 -3.179,1.089q-0.393,0 -0.768-0.054q-0.964,0.536 -2.125,0.661l0,3.018 q0,1.875 -1.357,3.223t-3.232,1.348q-1.839,0 -3.196-1.357t-1.357-3.214l0-6.679 q-0.964,0.393 -2.286,0.393q-2.161,0 -3.366-1.455t-1.205-3.688q0-0.679 0.313-1.241t 0.884-0.982t 1.125-0.723t 1.286-0.661t 1.107-0.589q 0.982-0.625 2.304-1.786 q 0.054-0.036 0.304-0.25t 0.384-0.339t 0.384-0.366t 0.402-0.429t 0.321-0.402t 0.25-0.42t 0.080-0.384l0-5.143 q0-0.946 0.67-1.616t 1.616-0.67l 11.429,0 q 0.946,0 1.616,0.67t 0.67,1.616l0,5.143 q0,1.054 1.054,3.982q 1.232,3.393 1.232,5.661z"></path></g></svg>