<?xml version="1.0" encoding="utf-8"?> <!-- Generator: IcoMoon.io --> <!DOCTYPE svg PUBLIC "-//W3C//DTD SVG 1.1//EN" "http://www.w3.org/Graphics/SVG/1.1/DTD/svg11.dtd"> <svg fill="#333333" xmlns:xlink="http://www.w3.org/1999/xlink" xmlns="http://www.w3.org/2000/svg" width="32" height="32" viewBox="0 0 32 32"><g><path d="M 1.442,25.481c-1.034,1.033-1.034,2.713,0,3.746 c 1.033,1.034, 2.713,1.034, 3.739,0l 0.747-0.739l 3.114,3.113c 0.533,0.533, 1.386,0.533, 1.919,0l 4.641-4.641c 0.533-0.533, 0.533-1.386,0-1.919 l-3.113-3.113l 5.546-5.553C 19.223,16.987, 20.575,17.333, 22.003,17.333c 4.787,0, 8.667-3.879, 8.667-8.667c0-4.787-3.88-8.667-8.667-8.667 c-4.788,0-8.667,3.88-8.667,8.667c0,1.427, 0.347,2.78, 0.959,3.967L 1.442,25.481z M 18.669,8.667c0-1.84, 1.493-3.333, 3.333-3.333s 3.333,1.493, 3.333,3.333s-1.493,3.333-3.333,3.333 S 18.669,10.507, 18.669,8.667z"></path></g></svg>