<?xml version="1.0" encoding="utf-8"?> <!-- Generator: IcoMoon.io --> <!DOCTYPE svg PUBLIC "-//W3C//DTD SVG 1.1//EN" "http://www.w3.org/Graphics/SVG/1.1/DTD/svg11.dtd"> <svg fill="#333333" xmlns:xlink="http://www.w3.org/1999/xlink" xmlns="http://www.w3.org/2000/svg" width="32" height="32" viewBox="0 0 32 32"><g><path d="M 31.625,27.429q0,0.946 -0.661,1.607l-1.911,1.929q-0.696,0.661 -1.625,0.661q-0.946,0 -1.607-0.661l-6.482-6.5q-0.679-0.643 -0.679-1.607q0-0.946 0.768-1.714l-4.571-4.571l-2.25,2.25q-0.25,0.25 -0.607,0.25t-0.607-0.25q 0.036,0.036 0.223,0.214t 0.223,0.232t 0.179,0.205t 0.179,0.241t 0.107,0.241t 0.098,0.295t 0.027,0.321q0,0.679 -0.5,1.214q-0.054,0.054 -0.295,0.321t-0.339,0.366 t-0.33,0.295t-0.393,0.277t-0.393,0.161t-0.464,0.080q-0.714,0 -1.214-0.5l-7.286-7.286q-0.5-0.5 -0.5-1.214q0-0.232 0.080-0.464t 0.161-0.393t 0.277-0.393t 0.295-0.33t 0.366-0.339t 0.321-0.295q 0.536-0.5 1.214-0.5q 0.179,0 0.321,0.027t 0.295,0.098t 0.241,0.107t 0.241,0.179t 0.205,0.179t 0.232,0.223t 0.214,0.223q-0.25-0.25 -0.25-0.607t 0.25-0.607l 6.214-6.214q 0.25-0.25 0.607-0.25t 0.607,0.25 q-0.036-0.036 -0.223-0.214t-0.223-0.232t-0.179-0.205t-0.179-0.241t-0.107-0.241t-0.098-0.295t-0.027-0.321q0-0.679 0.5-1.214q 0.054-0.054 0.295-0.321t 0.339-0.366t 0.33-0.295t 0.393-0.277t 0.393-0.161t 0.464-0.080q 0.714,0 1.214,0.5l 7.286,7.286q 0.5,0.5 0.5,1.214q0,0.232 -0.080,0.464t-0.161,0.393t-0.277,0.393t-0.295,0.33t-0.366,0.339t-0.321,0.295q-0.536,0.5 -1.214,0.5 q-0.179,0 -0.321-0.027t-0.295-0.098t-0.241-0.107t-0.241-0.179t-0.205-0.179t-0.232-0.223t-0.214-0.223q 0.25,0.25 0.25,0.607t-0.25,0.607l-2.25,2.25l 4.571,4.571q 0.768-0.768 1.714-0.768q 0.929,0 1.625,0.661l 6.482,6.482q 0.661,0.696 0.661,1.625z"></path></g></svg>