<?xml version="1.0" encoding="utf-8"?> <!-- Generator: IcoMoon.io --> <!DOCTYPE svg PUBLIC "-//W3C//DTD SVG 1.1//EN" "http://www.w3.org/Graphics/SVG/1.1/DTD/svg11.dtd"> <svg fill="#333333" xmlns:xlink="http://www.w3.org/1999/xlink" xmlns="http://www.w3.org/2000/svg" width="32" height="32" viewBox="0 0 32 32"><g><path d="M 5.714,13.714l 9.143,0 l0-3.429 q0-1.893 -1.339-3.232t-3.232-1.339t-3.232,1.339t-1.339,3.232l0,3.429 zM 20.571,15.429l0,10.286 q0,0.714 -0.5,1.214t-1.214,0.5l-17.143,0 q-0.714,0 -1.214-0.5t-0.5-1.214l0-10.286 q0-0.714 0.5-1.214t 1.214-0.5l 0.571,0 l0-3.429 q0-3.286 2.357-5.643t 5.643-2.357t 5.643,2.357t 2.357,5.643l0,3.429 l 0.571,0 q 0.714,0 1.214,0.5t 0.5,1.214z"></path></g></svg>