<?xml version="1.0" encoding="utf-8"?> <!-- Generator: IcoMoon.io --> <!DOCTYPE svg PUBLIC "-//W3C//DTD SVG 1.1//EN" "http://www.w3.org/Graphics/SVG/1.1/DTD/svg11.dtd"> <svg fill="#333333" xmlns:xlink="http://www.w3.org/1999/xlink" xmlns="http://www.w3.org/2000/svg" width="32" height="32" viewBox="0 0 32 32"><g><path d="M 8.286,25.143q0-0.589 -0.42-1.009t-1.009-0.42t-1.009,0.42t-0.42,1.009t 0.42,1.009t 1.009,0.42t 1.009-0.42t 0.42-1.009zM 12,22.286l0-12.571 q0-0.232 -0.17-0.402t-0.402-0.17l-9.143,0 q-0.232,0 -0.402,0.17t-0.17,0.402l0,12.571 q0,0.232 0.17,0.402t 0.402,0.17l 9.143,0 q 0.232,0 0.402-0.17t 0.17-0.402zM 8.571,7.143 q0-0.286 -0.286-0.286l-2.857,0 q-0.286,0 -0.286,0.286t 0.286,0.286l 2.857,0 q 0.286,0 0.286-0.286zM 13.714,6.857l0,18.286 q0,0.929 -0.679,1.607t-1.607,0.679l-9.143,0 q-0.929,0 -1.607-0.679t-0.679-1.607l0-18.286 q0-0.929 0.679-1.607t 1.607-0.679l 9.143,0 q 0.929,0 1.607,0.679t 0.679,1.607z"></path></g></svg>