<?xml version="1.0" encoding="utf-8"?> <!-- Generator: IcoMoon.io --> <!DOCTYPE svg PUBLIC "-//W3C//DTD SVG 1.1//EN" "http://www.w3.org/Graphics/SVG/1.1/DTD/svg11.dtd"> <svg fill="#333333" xmlns:xlink="http://www.w3.org/1999/xlink" xmlns="http://www.w3.org/2000/svg" width="34.28515625" height="32" viewBox="0 0 34.28515625 32"><g><path d="M 13.714,20.571l 6.857,0 l0-1.714 l-2.286,0 l0-8 l-2.036,0 l-2.643,2.446l 1.375,1.429q 0.75-0.661 0.982-1.018l 0.036,0 l0,5.143 l-2.286,0 l0,1.714 zM 22.857,16q0,1.25 -0.375,2.536t-1.063,2.393t-1.813,1.804t-2.464,0.696t-2.464-0.696t-1.813-1.804t-1.063-2.393t-0.375-2.536t 0.375-2.536t 1.063-2.393t 1.813-1.804t 2.464-0.696t 2.464,0.696t 1.813,1.804t 1.063,2.393t 0.375,2.536zM 32,20.571 l0-9.143 q-1.893,0 -3.232-1.339t-1.339-3.232l-20.571,0 q0,1.893 -1.339,3.232t-3.232,1.339l0,9.143 q 1.893,0 3.232,1.339t 1.339,3.232l 20.571,0 q0-1.893 1.339-3.232t 3.232-1.339zM 34.286,5.714l0,20.571 q0,0.464 -0.339,0.804t-0.804,0.339l-32,0 q-0.464,0 -0.804-0.339t-0.339-0.804l0-20.571 q0-0.464 0.339-0.804t 0.804-0.339l 32,0 q 0.464,0 0.804,0.339t 0.339,0.804z"></path></g></svg>