<?xml version="1.0" encoding="utf-8"?> <!-- Generator: IcoMoon.io --> <!DOCTYPE svg PUBLIC "-//W3C//DTD SVG 1.1//EN" "http://www.w3.org/Graphics/SVG/1.1/DTD/svg11.dtd"> <svg fill="#333333" xmlns:xlink="http://www.w3.org/1999/xlink" xmlns="http://www.w3.org/2000/svg" width="32" height="32" viewBox="0 0 32 32"><g><path d="M 22.929,13.107q0-0.5 -0.321-0.821l-1.625-1.607q-0.339-0.339 -0.804-0.339t-0.804,0.339l-7.286,7.268l-4.036-4.036q-0.339-0.339 -0.804-0.339t-0.804,0.339l-1.625,1.607q-0.321,0.321 -0.321,0.821q0,0.482 0.321,0.804l 6.464,6.464q 0.339,0.339 0.804,0.339q 0.482,0 0.821-0.339l 9.696-9.696q 0.321-0.321 0.321-0.804zM 27.429,16q0,3.732 -1.839,6.884t-4.991,4.991t-6.884,1.839t-6.884-1.839 t-4.991-4.991t-1.839-6.884t 1.839-6.884t 4.991-4.991t 6.884-1.839t 6.884,1.839t 4.991,4.991t 1.839,6.884z"></path></g></svg>