<?xml version="1.0" encoding="utf-8"?> <!-- Generator: IcoMoon.io --> <!DOCTYPE svg PUBLIC "-//W3C//DTD SVG 1.1//EN" "http://www.w3.org/Graphics/SVG/1.1/DTD/svg11.dtd"> <svg fill="#333333" xmlns:xlink="http://www.w3.org/1999/xlink" xmlns="http://www.w3.org/2000/svg" width="32" height="32" viewBox="0 0 32 32"><g><path d="M 22.857,21.304q0-0.196 -0.036-0.286q-0.054-0.143 -0.688-0.527t-1.58-0.884l-0.946-0.518q-0.089-0.054 -0.339-0.232t-0.446-0.268t-0.375-0.089q-0.321,0 -0.839,0.58t-1.018,1.17t-0.786,0.589q-0.125,0 -0.295-0.063t-0.277-0.116t-0.304-0.17t-0.25-0.152q-1.768-0.982 -3.045-2.259t-2.259-3.045q-0.036-0.054 -0.152-0.25t-0.17-0.304t-0.116-0.277t-0.063-0.295q0-0.232 0.366-0.598t 0.804-0.688 t 0.804-0.705t 0.366-0.652q0-0.179 -0.089-0.375t-0.268-0.446t-0.232-0.339q-0.054-0.107 -0.268-0.509t-0.446-0.813t-0.473-0.848t-0.446-0.723t-0.295-0.321t-0.286-0.036q-0.857,0 -1.804,0.393q-0.821,0.375 -1.429,1.688t-0.607,2.33q0,0.286 0.045,0.607t 0.089,0.545t 0.161,0.589t 0.179,0.527t 0.223,0.589t 0.196,0.536q 1.071,2.929 3.866,5.723t 5.723,3.866q 0.107,0.036 0.536,0.196t 0.589,0.223 t 0.527,0.179t 0.589,0.161t 0.545,0.089t 0.607,0.045q 1.018,0 2.33-0.607t 1.688-1.429q 0.393-0.946 0.393-1.804zM 27.429,7.429l0,17.143 q0,2.125 -1.509,3.634t-3.634,1.509l-17.143,0 q-2.125,0 -3.634-1.509t-1.509-3.634l0-17.143 q0-2.125 1.509-3.634t 3.634-1.509l 17.143,0 q 2.125,0 3.634,1.509t 1.509,3.634z"></path></g></svg>