<?xml version="1.0" encoding="utf-8"?> <!-- Generator: IcoMoon.io --> <!DOCTYPE svg PUBLIC "-//W3C//DTD SVG 1.1//EN" "http://www.w3.org/Graphics/SVG/1.1/DTD/svg11.dtd"> <svg fill="#333333" xmlns:xlink="http://www.w3.org/1999/xlink" xmlns="http://www.w3.org/2000/svg" width="34.28515625" height="32" viewBox="0 0 34.28515625 32"><g><path d="M 11.429,10.286q0,1.429 -1,2.429t-2.429,1t-2.429-1t-1-2.429t 1-2.429t 2.429-1t 2.429,1t 1,2.429zM 29.714,17.143l0,8 l-25.143,0 l0-3.429 l 5.714-5.714l 2.857,2.857l 9.143-9.143zM 31.429,4.571l-28.571,0 q-0.232,0 -0.402,0.17t-0.17,0.402l0,21.714 q0,0.232 0.17,0.402t 0.402,0.17l 28.571,0 q 0.232,0 0.402-0.17t 0.17-0.402l0-21.714 q0-0.232 -0.17-0.402t-0.402-0.17zM 34.286,5.143l0,21.714 q0,1.179 -0.839,2.018t-2.018,0.839l-28.571,0 q-1.179,0 -2.018-0.839t-0.839-2.018l0-21.714 q0-1.179 0.839-2.018t 2.018-0.839l 28.571,0 q 1.179,0 2.018,0.839t 0.839,2.018z"></path></g></svg>