<?xml version="1.0" encoding="utf-8"?> <!-- Generator: IcoMoon.io --> <!DOCTYPE svg PUBLIC "-//W3C//DTD SVG 1.1//EN" "http://www.w3.org/Graphics/SVG/1.1/DTD/svg11.dtd"> <svg fill="#333333" xmlns:xlink="http://www.w3.org/1999/xlink" xmlns="http://www.w3.org/2000/svg" width="32" height="32" viewBox="0 0 32 32"><g><path d="M 22.286,2.286q 2.125,0 3.634,1.509t 1.509,3.634l0,17.143 q0,2.125 -1.509,3.634t-3.634,1.509l-12.946,0 q 1.518-2.179 1.929-3.75q 0.161-0.607 0.946-3.732q 0.375,0.696 1.313,1.196t 2.009,0.5q 3.232,0 5.277-2.634t 2.045-6.67q0-1.5 -0.625-2.902t-1.723-2.482t-2.723-1.732t-3.518-0.652q-1.857,0 -3.473,0.509t-2.732,1.366 t-1.92,1.955t-1.188,2.286t-0.384,2.366q0,1.821 0.705,3.214t 2.080,1.964q 0.232,0.089 0.42,0t 0.259-0.339q 0.179-0.786 0.268-1.089q 0.107-0.411 -0.196-0.75q-0.893-1.107 -0.893-2.679q0-2.679 1.848-4.58t 4.83-1.902q 2.661,0 4.152,1.446t 1.491,3.75q0,3 -1.205,5.107t-3.098,2.107q-1.071,0 -1.732-0.777t-0.411-1.848q 0.143-0.607 0.473-1.652 t 0.527-1.821t 0.196-1.33q0-0.875 -0.473-1.455t-1.348-0.58q-1.089,0 -1.848,1.009t-0.759,2.491q0,1.286 0.429,2.161l-1.75,7.393q-0.429,1.786 -0.125,4.536l-3.268,0 q-2.125,0 -3.634-1.509t-1.509-3.634l0-17.143 q0-2.125 1.509-3.634t 3.634-1.509l 17.143,0 z"></path></g></svg>