<?xml version="1.0" encoding="utf-8"?> <!-- Generator: IcoMoon.io --> <!DOCTYPE svg PUBLIC "-//W3C//DTD SVG 1.1//EN" "http://www.w3.org/Graphics/SVG/1.1/DTD/svg11.dtd"> <svg fill="#333333" xmlns:xlink="http://www.w3.org/1999/xlink" xmlns="http://www.w3.org/2000/svg" width="32" height="32" viewBox="0 0 32 32"><g><path d="M 8.571,15.429l0-8 q0-0.25 -0.161-0.411t-0.411-0.161t-0.411,0.161t-0.161,0.411l0,8 q0,0.25 0.161,0.411t 0.411,0.161t 0.411-0.161t 0.161-0.411zM 20.571,21.714q0,0.464 -0.339,0.804t-0.804,0.339l-7.661,0 l-0.911,8.625q-0.036,0.214 -0.188,0.366t-0.366,0.152l-0.018,0 q-0.482,0 -0.571-0.482l-1.357-8.661l-7.214,0 q-0.464,0 -0.804-0.339t-0.339-0.804q0-2.196 1.402-3.955t 3.17-1.759l0-9.143 q-0.929,0 -1.607-0.679 t-0.679-1.607t 0.679-1.607t 1.607-0.679l 11.429,0 q 0.929,0 1.607,0.679t 0.679,1.607t-0.679,1.607t-1.607,0.679l0,9.143 q 1.768,0 3.17,1.759t 1.402,3.955z"></path></g></svg>