<?xml version="1.0" encoding="utf-8"?> <!-- Generator: IcoMoon.io --> <!DOCTYPE svg PUBLIC "-//W3C//DTD SVG 1.1//EN" "http://www.w3.org/Graphics/SVG/1.1/DTD/svg11.dtd"> <svg fill="#333333" xmlns:xlink="http://www.w3.org/1999/xlink" xmlns="http://www.w3.org/2000/svg" width="32" height="32" viewBox="0 0 32 32"><g><path d="M 6.857,20.571l0,2.286 l-2.286,0 l0-2.286 l 2.286,0 zM 6.857,6.857l0,2.286 l-2.286,0 l0-2.286 l 2.286,0 zM 20.571,6.857l0,2.286 l-2.286,0 l0-2.286 l 2.286,0 zM 2.286,25.125l 6.857,0 l0-6.839 l-6.857,0 l0,6.839 zM 2.286,11.429l 6.857,0 l0-6.857 l-6.857,0 l0,6.857 zM 16,11.429l 6.857,0 l0-6.857 l-6.857,0 l0,6.857 zM 11.429,16l0,11.429 l-11.429,0 l0-11.429 l 11.429,0 zM 20.571,25.143l0,2.286 l-2.286,0 l0-2.286 l 2.286,0 zM 25.143,25.143l0,2.286 l-2.286,0 l0-2.286 l 2.286,0 z M 25.143,16l0,6.857 l-6.857,0 l0-2.286 l-2.286,0 l0,6.857 l-2.286,0 l0-11.429 l 6.857,0 l0,2.286 l 2.286,0 l0-2.286 l 2.286,0 zM 11.429,2.286l0,11.429 l-11.429,0 l0-11.429 l 11.429,0 zM 25.143,2.286l0,11.429 l-11.429,0 l0-11.429 l 11.429,0 z"></path></g></svg>