<?xml version="1.0" encoding="utf-8"?> <!-- Generator: IcoMoon.io --> <!DOCTYPE svg PUBLIC "-//W3C//DTD SVG 1.1//EN" "http://www.w3.org/Graphics/SVG/1.1/DTD/svg11.dtd"> <svg fill="#333333" xmlns:xlink="http://www.w3.org/1999/xlink" xmlns="http://www.w3.org/2000/svg" width="32" height="32" viewBox="0 0 32 32"><g><path d="M 20.571,14.857q0-3.304 -2.348-5.652t-5.652-2.348t-5.652,2.348t-2.348,5.652t 2.348,5.652t 5.652,2.348t 5.652-2.348t 2.348-5.652zM 29.714,29.714q0,0.929 -0.679,1.607t-1.607,0.679q-0.964,0 -1.607-0.679l-6.125-6.107q-3.196,2.214 -7.125,2.214q-2.554,0 -4.884-0.991t-4.018-2.679t-2.679-4.018t-0.991-4.884 t 0.991-4.884t 2.679-4.018t 4.018-2.679t 4.884-0.991t 4.884,0.991t 4.018,2.679t 2.679,4.018t 0.991,4.884q0,3.929 -2.214,7.125l 6.125,6.125q 0.661,0.661 0.661,1.607z"></path></g></svg>