<?xml version="1.0" encoding="utf-8"?> <!-- Generator: IcoMoon.io --> <!DOCTYPE svg PUBLIC "-//W3C//DTD SVG 1.1//EN" "http://www.w3.org/Graphics/SVG/1.1/DTD/svg11.dtd"> <svg fill="#333333" xmlns:xlink="http://www.w3.org/1999/xlink" xmlns="http://www.w3.org/2000/svg" width="32" height="32" viewBox="0 0 32 32"><g><path d="M 16,9.714l0,8 q0,0.25 -0.161,0.411t-0.411,0.161l-5.714,0 q-0.25,0 -0.411-0.161t-0.161-0.411l0-1.143 q0-0.25 0.161-0.411t 0.411-0.161l 4,0 l0-6.286 q0-0.25 0.161-0.411t 0.411-0.161l 1.143,0 q 0.25,0 0.411,0.161t 0.161,0.411zM 23.429,16q0-2.643 -1.304-4.875t-3.536-3.536t-4.875-1.304t-4.875,1.304t-3.536,3.536t-1.304,4.875t 1.304,4.875t 3.536,3.536t 4.875,1.304t 4.875-1.304t 3.536-3.536t 1.304-4.875zM 27.429,16 q0,3.732 -1.839,6.884t-4.991,4.991t-6.884,1.839t-6.884-1.839t-4.991-4.991t-1.839-6.884t 1.839-6.884t 4.991-4.991t 6.884-1.839t 6.884,1.839t 4.991,4.991t 1.839,6.884z"></path></g></svg>