<?xml version="1.0" encoding="utf-8"?> <!-- Generator: IcoMoon.io --> <!DOCTYPE svg PUBLIC "-//W3C//DTD SVG 1.1//EN" "http://www.w3.org/Graphics/SVG/1.1/DTD/svg11.dtd"> <svg fill="#333333" xmlns:xlink="http://www.w3.org/1999/xlink" xmlns="http://www.w3.org/2000/svg" width="32" height="32" viewBox="0 0 32 32"><g><path d="M 20.054,25.161l0-3.232 q-1.571,1 -3.107,1q-0.911,0 -1.571-0.411q-0.518-0.304 -0.696-0.804q-0.196-0.536 -0.196-2.304l0-5.268 l 4.893,0 l0-3.232 l-4.893,0 l0-5.196 l-2.929,0 q-0.196,1.607 -0.714,2.625t-1.393,1.768q-0.857,0.714 -2.071,1.125l0,2.911 l 2.268,0 l0,7.214 q0,1.393 0.304,2.161q 0.304,0.75 1.054,1.393q 0.768,0.661 1.857,1.018q 1.107,0.357 2.5,0.357q 1.196,0 2.304-0.25q 1.018-0.232 2.393-0.875zM 27.429,7.429 l0,17.143 q0,2.125 -1.509,3.634t-3.634,1.509l-17.143,0 q-2.125,0 -3.634-1.509t-1.509-3.634l0-17.143 q0-2.125 1.509-3.634t 3.634-1.509l 17.143,0 q 2.125,0 3.634,1.509t 1.509,3.634z"></path></g></svg>