<?xml version="1.0" encoding="utf-8"?> <!-- Generator: IcoMoon.io --> <!DOCTYPE svg PUBLIC "-//W3C//DTD SVG 1.1//EN" "http://www.w3.org/Graphics/SVG/1.1/DTD/svg11.dtd"> <svg fill="#333333" xmlns:xlink="http://www.w3.org/1999/xlink" xmlns="http://www.w3.org/2000/svg" width="32" height="32" viewBox="0 0 32 32"><g><path d="M 27.793,23.060c-1.933-2.527-4.427-3.833-8.639-4.253c-0.761-0.153-1.333-0.827-1.333-1.627 c0-0.586, 1.879-2.34, 1.866-2.353C 21.626,12.82, 22.667,9.56, 22.667,7.053C 22.667,3.16, 19.533,0, 15.667,0S 8.667,3.16, 8.667,7.053 c0,2.52, 1.013,5.8, 2.973,7.807c0,0, 1.873,1.734, 1.873,2.319c0,0.847-0.64,1.553-1.467,1.653c-4.127,0.433-6.593,1.733-8.507,4.227 C 2.987,23.78, 2.687,25.227, 2.667,26c 0.007,0.2,0,3.333,0,3.333c0,1.473, 1.193,2.667, 2.667,2.667l 20.667,0 c 1.473,0, 2.667-1.193, 2.667-2.667c0,0-0.007-3.133,0-3.333 C 28.647,25.227, 28.347,23.78, 27.793,23.060z"></path></g></svg>