<?xml version="1.0" encoding="utf-8"?> <!-- Generator: IcoMoon.io --> <!DOCTYPE svg PUBLIC "-//W3C//DTD SVG 1.1//EN" "http://www.w3.org/Graphics/SVG/1.1/DTD/svg11.dtd"> <svg fill="#333333" xmlns:xlink="http://www.w3.org/1999/xlink" xmlns="http://www.w3.org/2000/svg" width="32" height="32" viewBox="0 0 32 32"><g><path d="M 27.793,23.060c-1.4-1.827-3.093-3.013-5.519-3.686L 20,27.333c0,0.733-0.6,1.333-1.333,1.333s-1.333-0.6-1.333-1.333l0-6.333 c0-0.92-0.747-1.667-1.667-1.667 S 14,20.080, 14,21L 14,27.333 c0,0.733-0.6,1.333-1.333,1.333s-1.333-0.6-1.333-1.333l-2.273-7.959c-2.427,0.68-4.12,1.859-5.52,3.686C 2.987,23.78, 2.687,25.227, 2.667,26l0,3.333 c0,1.473, 1.193,2.667, 2.667,2.667l 20.667,0 c 1.473,0, 2.667-1.193, 2.667-2.667l0-3.333 C 28.647,25.227, 28.347,23.78, 27.793,23.060zM 15.667,16.667C 20.16,16.667, 22.667,10.947, 22.667,7.053S 19.533,0, 15.667,0S 8.667,3.16, 8.667,7.053S 11.093,16.667, 15.667,16.667z"></path></g></svg>