<?xml version="1.0" encoding="UTF-8"?>
<svg width="11px" height="160px" viewBox="0 0 11 160" version="1.1" xmlns="http://www.w3.org/2000/svg" xmlns:xlink="http://www.w3.org/1999/xlink">
    <!-- Generator: Sketch 52.5 (67469) - http://www.bohemiancoding.com/sketch -->
    <title>Mark</title>
    <desc>Created with Sketch.</desc>
    <g id="Private-CEO" stroke="none" stroke-width="1" fill="none" fill-rule="evenodd">
        <g id="2-Loading-in-Empresas" transform="translate(-40.000000, -824.000000)" fill="#FFFFFF">
            <g id="Footer" transform="translate(0.000000, 784.000000)">
                <path d="M48.6555412,195.921194 L42.3963489,198.330349 L42.3963489,197.437561 L46.9429777,195.816807 C47.3094635,195.687696 47.6497718,195.575067 47.9680358,195.491282 C47.6263498,195.391015 47.2860415,195.281134 46.9429777,195.153396 L42.3963489,193.469461 L42.3963489,192.628866 L48.6555412,195.062744 L48.6555412,195.921194 Z M48.6555412,189.510975 L42.3963489,189.510975 L42.3963489,188.681369 L48.6555412,188.681369 L48.6555412,189.510975 Z M46.1962284,182.077484 L45.4646345,182.077484 L45.4646345,179.434831 L47.7834151,179.434831 C48.1071902,179.841393 48.3510549,180.258943 48.515009,180.688855 C48.6775855,181.122887 48.7602514,181.563787 48.7602514,182.017049 C48.7602514,182.629639 48.6266081,183.185915 48.3648325,183.687249 C48.1030569,184.187211 47.7200379,184.567676 47.2226643,184.81903 C46.7266684,185.075878 46.1700508,185.203616 45.5569448,185.203616 C44.9465943,185.203616 44.3789546,185.075878 43.8485146,184.823151 C43.3222079,184.567676 42.9295445,184.20644 42.6746577,183.728455 C42.4197709,183.251844 42.2902609,182.703809 42.2902609,182.080231 C42.2902609,181.632463 42.3632825,181.220407 42.5107035,180.857798 C42.6567467,180.493815 42.8620339,180.208123 43.1224318,180.002095 C43.3855851,179.79332 43.7272712,179.636738 44.1488676,179.526857 L44.3541548,180.275425 C44.034513,180.367451 43.7851373,180.4842 43.6018944,180.621552 C43.4172737,180.763025 43.2739861,180.959438 43.1637647,181.219034 C43.0549212,181.474508 42.9998106,181.761574 42.9998106,182.077484 C42.9998106,182.451081 43.0549212,182.777979 43.1720313,183.054057 C43.2877637,183.328761 43.439318,183.548524 43.6294498,183.71884 C43.816826,183.88641 44.0234909,184.019641 44.2494446,184.111667 C44.6365969,184.269622 45.0568156,184.347913 45.5101007,184.347913 C46.0694739,184.347913 46.5351589,184.254513 46.9140446,184.06222 C47.2901748,183.872675 47.5698614,183.592477 47.7531043,183.228494 C47.9335917,182.861764 48.025902,182.474431 48.025902,182.062375 C48.025902,181.706633 47.9556359,181.356386 47.8164815,181.017126 C47.6773271,180.67924 47.5285284,180.421018 47.371463,180.247955 L46.1962284,180.247955 L46.1962284,182.077484 Z M48.6555412,175.841702 L42.3963489,175.841702 L42.3963489,175.013469 L48.6555412,175.013469 L48.6555412,175.841702 Z M48.6555412,171.361279 L42.3963489,171.361279 L42.3963489,170.531673 L47.9211918,170.531673 L47.9211918,167.464602 L48.6555412,167.464602 L48.6555412,171.361279 Z M48.6555412,164.929083 L42.3963489,162.535038 L42.3963489,161.627141 L48.6555412,159.084755 L48.6555412,160.025616 L46.7569792,160.746714 L46.7569792,163.375632 L48.6555412,164.052778 L48.6555412,164.929083 Z M46.0846293,163.132519 L46.0846293,161.00631 L44.3486438,161.657358 C43.822337,161.852398 43.3869629,162.002112 43.0411435,162.105126 C43.4503401,162.188911 43.8540257,162.304286 44.2494446,162.447132 L46.0846293,163.132519 Z M48.6555412,156.194868 L42.3963489,156.194868 L42.3963489,154.046683 C42.3963489,153.559083 42.4239042,153.189606 42.484526,152.932758 C42.5685697,152.577016 42.7159907,152.274841 42.9336778,152.022114 C43.2147421,151.691095 43.5674503,151.445235 44.0042022,151.281786 C44.4368208,151.119711 44.9328167,151.035926 45.4921898,151.035926 C45.9661414,151.035926 46.3877379,151.09224 46.7542237,151.203496 C47.1234651,151.312004 47.4265737,151.45485 47.666305,151.627913 C47.9087919,151.800977 48.0961681,151.991896 48.2339447,152.197924 C48.3717213,152.399832 48.4778094,152.651186 48.5480754,152.940999 C48.621097,153.232185 48.6555412,153.568697 48.6555412,153.945042 L48.6555412,156.194868 Z M47.9211918,155.368009 L47.9211918,154.037068 C47.9211918,153.625012 47.8812365,153.304982 47.8054594,153.07011 C47.7269267,152.836611 47.6194609,152.651186 47.4803066,152.51246 C47.283286,152.316047 47.0201326,152.163586 46.6853354,152.055078 C46.3546715,151.945197 45.950986,151.891629 45.4784121,151.891629 C44.8239731,151.891629 44.3210884,151.998764 43.9656247,152.211659 C43.6129166,152.425929 43.3773185,152.685524 43.2588306,152.990445 C43.1720313,153.211582 43.1306984,153.568697 43.1306984,154.057671 L43.1306984,155.368009 L47.9211918,155.368009 Z M45.6092999,147.922156 C44.5704641,147.922156 43.7589598,147.641958 43.1706536,147.084308 C42.5851029,146.529406 42.2902609,145.812429 42.2902609,144.930629 C42.2902609,144.35375 42.4307931,143.835933 42.7049686,143.371683 C42.9818996,142.911554 43.3649186,142.557186 43.858159,142.314073 C44.3513993,142.07508 44.9093946,141.95009 45.5362783,141.95009 C46.1700508,141.95009 46.7390683,142.077827 47.2364419,142.333302 C47.7365711,142.588777 48.1168346,142.952759 48.3730991,143.419756 C48.6307414,143.886753 48.7602514,144.393582 48.7602514,144.937496 C48.7602514,145.523989 48.6183415,146.048674 48.3317661,146.51155 C48.049324,146.97168 47.6607939,147.323301 47.1661758,147.563667 C46.6770688,147.798539 46.1590287,147.922156 45.6092999,147.922156 L45.6092999,147.922156 Z M45.6230776,147.066453 C46.3767157,147.066453 46.9677775,146.864545 47.4017739,146.46073 C47.8343925,146.056915 48.0520796,145.550086 48.0520796,144.93887 C48.0520796,144.319412 47.8343925,143.808463 47.394885,143.407395 C46.9608887,143.006327 46.3395161,142.804419 45.5349005,142.804419 C45.0265048,142.804419 44.5814863,142.892325 44.2039783,143.061268 C43.8237148,143.234331 43.5288728,143.485685 43.3208301,143.812583 C43.1127874,144.146349 43.0066994,144.514452 43.0066994,144.927882 C43.0066994,145.510254 43.209231,146.012963 43.610161,146.434633 C44.0124688,146.854931 44.683441,147.066453 45.6230776,147.066453 L45.6230776,147.066453 Z M40,200 L41.0595023,200 L41.0595023,140.633708 L40,140.633708 L40,200 Z M49.6071644,200 L50.6666667,200 L50.6666667,140.633708 L49.6071644,140.633708 L49.6071644,200 Z M43.20496,136.708187 L43.1567381,136.183502 C43.3702919,136.160152 43.5438905,136.102465 43.6802893,136.010439 C43.8166882,135.919786 43.9255317,135.778314 44.0095755,135.587395 C44.0922415,135.396475 44.13633,135.182206 44.13633,134.94184 C44.13633,134.728944 44.1046414,134.543519 44.0398863,134.38007 C43.9765091,134.219368 43.8897098,134.094378 43.7781107,134.017461 C43.6665117,133.936423 43.5452682,133.896591 43.4157582,133.896591 C43.2862482,133.896591 43.1705158,133.93505 43.0713166,134.01334 C42.9721175,134.088884 42.8894515,134.217995 42.8233187,134.391058 C42.7792302,134.505061 42.7117196,134.753668 42.6166538,135.139627 C42.5243434,135.52696 42.4361664,135.797543 42.3535004,135.952751 C42.2487901,136.153285 42.1165246,136.302999 41.960837,136.399145 C41.8023939,136.499412 41.6274175,136.548859 41.435908,136.548859 C41.2195987,136.548859 41.0212004,136.48705 40.8352019,136.367554 C40.6505812,136.245311 40.5114268,136.070874 40.4136054,135.838749 C40.3171618,135.606624 40.2703177,135.351149 40.2703177,135.06683 C40.2703177,134.755041 40.3199173,134.481711 40.4204943,134.242718 C40.5196934,134.005099 40.66987,133.821047 40.8655128,133.69331 C41.0611556,133.565573 41.282976,133.496897 41.5309739,133.487282 L41.5709291,134.020208 C41.306398,134.050425 41.1066219,134.146572 40.9688453,134.312768 C40.8324464,134.478964 40.7649358,134.722077 40.7649358,135.046228 C40.7649358,135.38274 40.8269353,135.627227 40.9481788,135.782434 C41.0749333,135.936269 41.223732,136.014559 41.3987083,136.014559 C41.5488849,136.014559 41.6742616,135.956871 41.7734608,135.849737 C41.8699044,135.743976 41.9704814,135.463778 42.0724361,135.01189 C42.1757685,134.557254 42.2667011,134.246839 42.3424783,134.080643 C42.4554551,133.834783 42.597365,133.653478 42.7709636,133.538102 C42.9459399,133.41998 43.1429605,133.359545 43.3702919,133.359545 C43.5962456,133.359545 43.8070438,133.425474 44.0040644,133.554585 C44.1997072,133.682322 44.3567726,133.867747 44.4669939,134.108113 C44.5772152,134.345732 44.6309481,134.614942 44.6309481,134.917117 C44.6309481,135.297582 44.5758374,135.614865 44.4642384,135.871713 C44.354017,136.128561 44.1859296,136.329095 43.9627314,136.476062 C43.7381555,136.621655 43.487402,136.698572 43.20496,136.708187 L43.20496,136.708187 Z M40.3405838,129.851574 L40.3405838,129.292551 L42.7778524,129.292551 C43.2035822,129.292551 43.5397572,129.337877 43.7891329,129.43265 C44.0385086,129.528797 44.2410402,129.70186 44.3967278,129.951841 C44.5537932,130.200448 44.6309481,130.527346 44.6309481,130.933908 C44.6309481,131.325361 44.5648153,131.645391 44.4270387,131.896746 C44.2906398,132.146726 44.0922415,132.326657 43.8359769,132.432419 C43.5769569,132.540927 43.2242487,132.590373 42.7778524,132.590373 L40.3405838,132.590373 L40.3405838,132.036845 L42.7764746,132.036845 C43.1415827,132.036845 43.4130027,132.001133 43.5866012,131.932457 C43.7615775,131.866528 43.8938431,131.751152 43.9875312,131.58633 C44.0825971,131.420134 44.1308189,131.218227 44.1308189,130.980608 C44.1308189,130.572672 44.0385086,130.281486 43.8538879,130.107049 C43.6637561,129.935359 43.3069147,129.851574 42.7764746,129.851574 L40.3405838,129.851574 Z M44.560682,128.362678 L40.3405838,128.362678 L40.3405838,126.774889 C40.3405838,126.49469 40.3529837,126.280421 40.3819168,126.133455 C40.4136054,125.927427 40.481116,125.75299 40.5775596,125.611517 C40.6740033,125.471418 40.8090244,125.360163 40.9853785,125.275005 C41.1575992,125.188473 41.3491088,125.148641 41.5571515,125.148641 C41.9153707,125.148641 42.2212348,125.261269 42.4664772,125.489274 C42.7158529,125.717278 42.8384741,126.127961 42.8384741,126.722695 L42.8384741,127.802282 L44.560682,127.802282 L44.560682,128.362678 Z M42.3452338,127.802282 L42.3452338,126.718574 C42.3452338,126.357338 42.2777232,126.10049 42.1427021,125.949403 C42.0090588,125.799689 41.8203048,125.724146 41.5750624,125.724146 C41.4000861,125.724146 41.2485318,125.766725 41.1231551,125.858751 C40.9964006,125.946656 40.9123568,126.064779 40.8737794,126.207625 C40.8503574,126.302398 40.8352019,126.475461 40.8352019,126.728189 L40.8352019,127.802282 L42.3452338,127.802282 Z M44.560682,124.431663 L40.3405838,124.431663 L40.3405838,121.393436 L40.8352019,121.393436 L40.8352019,123.87264 L42.13168,123.87264 L42.13168,121.550018 L42.6276759,121.550018 L42.6276759,123.87264 L44.0660639,123.87264 L44.0660639,121.293169 L44.560682,121.293169 L44.560682,124.431663 Z M44.560682,120.510263 L40.3405838,120.510263 L40.3405838,118.647769 C40.3405838,118.272798 40.3777835,117.985733 40.4535607,117.792066 C40.5293378,117.5984 40.6657367,117.441819 40.8544907,117.323696 C41.0487557,117.20832 41.2595539,117.147885 41.4910187,117.147885 C41.789994,117.147885 42.0421252,117.248152 42.2487901,117.441819 C42.4526996,117.632738 42.5835874,117.930792 42.638698,118.334607 C42.7103419,118.186267 42.7806079,118.076385 42.8494963,117.996721 C42.9996728,117.836019 43.1856712,117.682185 43.4116249,117.539338 L44.560682,116.811373 L44.560682,117.506374 L43.6830449,118.064023 C43.4281581,118.224725 43.2352708,118.35933 43.098872,118.462344 C42.9666064,118.568105 42.8729183,118.661505 42.8178076,118.743916 C42.7654525,118.8277 42.7268751,118.914232 42.7075863,118.999391 C42.6924309,119.062572 42.6869198,119.165586 42.6869198,119.309806 L42.6869198,119.953987 L44.560682,119.953987 L44.560682,120.510263 Z M42.2019461,119.953987 L42.2019461,118.757651 C42.2019461,118.502176 42.1757685,118.30851 42.1234134,118.161543 C42.0710583,118.018697 41.9870146,117.911562 41.8699044,117.837392 C41.754172,117.763222 41.6274175,117.727511 41.4923965,117.727511 C41.2912426,117.727511 41.1272884,117.79756 40.9991561,117.94178 C40.8696461,118.086 40.8062688,118.311257 40.8062688,118.624419 L40.8062688,119.953987 L42.2019461,119.953987 Z M44.560682,116.185048 L40.3405838,116.185048 L40.3405838,115.628772 L44.560682,115.628772 L44.560682,116.185048 Z M44.560682,114.652199 L40.3405838,114.652199 L40.3405838,114.082188 L43.6541118,111.873567 L40.3405838,111.873567 L40.3405838,111.339268 L44.560682,111.339268 L44.560682,111.910653 L41.2485318,114.1179 L44.560682,114.1179 L44.560682,114.652199 Z M44.560682,109.332555 L40.8352019,109.332555 L40.8352019,110.71981 L40.3405838,110.71981 L40.3405838,107.389024 L40.8352019,107.389024 L40.8352019,108.776279 L44.560682,108.776279 L44.560682,109.332555 Z M44.560682,106.805278 L40.3405838,106.805278 L40.3405838,103.765677 L40.8352019,103.765677 L40.8352019,106.244881 L42.13168,106.244881 L42.13168,103.923632 L42.6276759,103.923632 L42.6276759,106.244881 L44.0660639,106.244881 L44.0660639,103.664037 L44.560682,103.664037 L44.560682,106.805278 Z M44.560682,102.903107 L40.3405838,102.903107 L40.3405838,102.330349 L43.6541118,100.121728 L40.3405838,100.121728 L40.3405838,99.5874289 L44.560682,99.5874289 L44.560682,100.160187 L41.2485318,102.368807 L44.560682,102.368807 L44.560682,102.903107 Z M44.560682,98.6520616 L40.3405838,98.6520616 L40.3405838,97.2016242 C40.3405838,96.8760999 40.3598726,96.6261192 40.3998278,96.4516821 C40.4563162,96.2126896 40.5582709,96.0080351 40.7029364,95.8363451 C40.8916903,95.6138348 41.1327994,95.4476388 41.4248859,95.3391307 C41.7183501,95.2292491 42.0531473,95.1756818 42.4278998,95.1756818 C42.7475415,95.1756818 43.0313614,95.2113934 43.2807371,95.2855634 C43.5273573,95.3597335 43.7312667,95.4545064 43.8938431,95.5726292 C44.0564195,95.6893784 44.1845518,95.8171158 44.2768621,95.9544678 C44.3691725,96.0931933 44.4408163,96.2607628 44.4890381,96.4571762 C44.53726,96.6535896 44.560682,96.8802204 44.560682,97.1356952 L44.560682,98.6520616 Z M44.0660639,98.0944123 L44.0660639,97.1975036 C44.0660639,96.918679 44.0398863,96.7030363 43.9875312,96.5450815 C43.9365539,96.3871267 43.8635322,96.2607628 43.7684664,96.1659899 C43.6362008,96.036879 43.458469,95.9324915 43.2338931,95.8596949 C43.0093171,95.7855248 42.7378972,95.7498133 42.4196332,95.7498133 C41.9759924,95.7498133 41.6370619,95.8212363 41.4000861,95.965456 C41.1617325,96.1110491 41.0019117,96.2827391 40.9220012,96.4915142 C40.864135,96.6412279 40.8352019,96.8802204 40.8352019,97.2112388 L40.8352019,98.0944123 L44.0660639,98.0944123 Z M44.560682,94.3955223 L40.3405838,94.3955223 L40.3405838,91.3614161 L40.8352019,91.3614161 L40.8352019,93.8378731 L42.13168,93.8378731 L42.13168,91.5179974 L42.6276759,91.5179974 L42.6276759,93.8378731 L44.0660639,93.8378731 L44.0660639,91.2597756 L44.560682,91.2597756 L44.560682,94.3955223 Z M44.560682,90.4947248 L40.3405838,90.4947248 L40.3405838,89.9219669 L43.6541118,87.7160934 L40.3405838,87.7160934 L40.3405838,87.181794 L44.560682,87.181794 L44.560682,87.7531784 L41.2485318,89.9590519 L44.560682,89.9590519 L44.560682,90.4947248 Z M43.080961,83.2494055 L43.2214932,82.6917563 C43.6802893,82.8085055 44.0288642,83.0172806 44.2699733,83.3194551 C44.5097046,83.623003 44.6309481,83.99248 44.6309481,84.4306329 C44.6309481,84.8825211 44.5386377,85.251998 44.354017,85.5335697 C44.1693964,85.8206354 43.8993542,86.0335311 43.5507793,86.1832448 C43.1994489,86.331585 42.8219409,86.405755 42.4196332,86.405755 C41.978748,86.405755 41.5971067,86.3219703 41.2705761,86.1557744 C40.9426677,85.9854579 40.693292,85.7505859 40.5238267,85.4387968 C40.3529837,85.1297547 40.2703177,84.7904952 40.2703177,84.4237653 C40.2703177,84.0020946 40.375028,83.6463529 40.5927151,83.3620342 C40.8062688,83.0735949 41.1093774,82.8744345 41.4965298,82.7631794 L41.6274175,83.3070934 C41.3201757,83.4032398 41.0969775,83.5488329 40.9578231,83.7328847 C40.8186687,83.9183099 40.7484027,84.1518083 40.7484027,84.4306329 C40.7484027,84.7547837 40.8241798,85.0253672 40.9812452,85.2410099 C41.135555,85.4580261 41.3435977,85.6091133 41.6053733,85.6956451 C41.8685267,85.7862974 42.1385688,85.8288765 42.4168776,85.8288765 C42.7750969,85.8288765 43.0878498,85.7766828 43.3551365,85.6722952 C43.6224231,85.5706547 43.8221993,85.4058323 43.9558426,85.1901896 C44.0894859,84.9690529 44.1514854,84.7314339 44.1514854,84.4787061 C44.1514854,84.16417 44.0633084,83.9032012 43.8841987,83.686185 C43.7037114,83.4719158 43.4350469,83.3276962 43.080961,83.2494055 L43.080961,83.2494055 Z M44.560682,81.9088498 L40.3405838,81.9088498 L40.3405838,81.3512005 L44.560682,81.3512005 L44.560682,81.9088498 Z M44.560682,80.8306364 L40.3405838,79.2181236 L40.3405838,78.6055336 L44.560682,76.8913803 L44.560682,77.5273202 L43.2821149,78.0121728 L43.2821149,79.7826404 L44.560682,80.2413962 L44.560682,80.8306364 Z M42.827452,79.620565 L42.827452,78.1879834 L41.6577284,78.6261364 C41.3022647,78.7607414 41.0074227,78.8582613 40.775958,78.9296843 C41.052889,78.9859987 41.3201757,79.0629158 41.5888401,79.1618093 L42.827452,79.620565 Z M44.560682,75.1112981 L40.3405838,75.1112981 L40.3405838,72.2749788 L40.8352019,72.2749788 L40.8352019,74.5563959 L42.149591,74.5563959 L42.149591,72.5812738 L42.6455868,72.5812738 L42.6455868,74.5563959 L44.560682,74.5563959 L44.560682,75.1112981 Z M44.560682,71.4591077 L40.3405838,71.4591077 L40.3405838,70.9014585 L44.560682,70.9014585 L44.560682,71.4591077 Z M44.560682,69.9276327 L40.3405838,69.9276327 L40.3405838,69.3548747 L43.6541118,67.1462542 L40.3405838,67.1462542 L40.3405838,66.6119548 L44.560682,66.6119548 L44.560682,67.1833392 L41.2485318,69.3905862 L44.560682,69.3905862 L44.560682,69.9276327 Z M44.560682,66.1394638 L40.3405838,64.5255775 L40.3405838,63.914361 L44.560682,62.1988342 L44.560682,62.8334006 L43.2821149,63.3210003 L43.2821149,65.0914679 L44.560682,65.5474766 L44.560682,66.1394638 Z M42.827452,64.928019 L42.827452,63.4940638 L41.6577284,63.9335903 C41.3022647,64.0640747 41.0074227,64.1657152 40.775958,64.2330177 C41.052889,64.2920791 41.3201757,64.3689962 41.5888401,64.4651426 L42.827452,64.928019 Z M44.560682,61.7648018 L40.3405838,61.7648018 L40.3405838,61.1934174 L43.6541118,58.9847968 L40.3405838,58.9847968 L40.3405838,58.449124 L44.560682,58.449124 L44.560682,59.0218819 L41.2485318,61.2305025 L44.560682,61.2305025 L44.560682,61.7648018 Z M43.080961,54.518109 L43.2214932,53.9604598 C43.6802893,54.077209 44.0288642,54.2859841 44.2699733,54.5895321 C44.5097046,54.8917065 44.6309481,55.262557 44.6309481,55.6979629 C44.6309481,56.1525981 44.5386377,56.5207015 44.354017,56.8050202 C44.1693964,57.0893389 43.8993542,57.3036081 43.5507793,57.4519483 C43.1994489,57.5975414 42.8219409,57.6744585 42.4196332,57.6744585 C41.978748,57.6744585 41.5971067,57.5906738 41.2705761,57.4217308 C40.9426677,57.2555349 40.693292,57.0165423 40.5238267,56.7088738 C40.3529837,56.4025788 40.2703177,56.0591987 40.2703177,55.6924688 C40.2703177,55.2694246 40.375028,54.9136828 40.5927151,54.6279906 C40.8062688,54.3436719 41.1093774,54.145885 41.4965298,54.0318828 L41.6274175,54.5771704 C41.3201757,54.6746903 41.0969775,54.8147894 40.9578231,55.0002146 C40.8186687,55.1856398 40.7484027,55.4177648 40.7484027,55.7007099 C40.7484027,56.0221137 40.8241798,56.2940707 40.9812452,56.5083398 C41.135555,56.725356 41.3435977,56.8791903 41.6053733,56.9657221 C41.8685267,57.0550009 42.1385688,57.0989535 42.4168776,57.0989535 C42.7750969,57.0989535 43.0878498,57.0467598 43.3551365,56.9423722 C43.6224231,56.8393582 43.8221993,56.6759093 43.9558426,56.4561461 C44.0894859,56.2377564 44.1514854,56.0015109 44.1514854,55.7446626 C44.1514854,55.4328735 44.0633084,55.1705311 43.8841987,54.9548884 C43.7037114,54.7419928 43.4350469,54.5936526 43.080961,54.518109 L43.080961,54.518109 Z M44.560682,53.1789268 L40.3405838,53.1789268 L40.3405838,52.6212775 L44.560682,52.6212775 L44.560682,53.1789268 Z M44.560682,51.6282224 L40.3405838,51.6282224 L40.3405838,48.5899956 L40.8352019,48.5899956 L40.8352019,51.0691997 L42.13168,51.0691997 L42.13168,48.7479505 L42.6276759,48.7479505 L42.6276759,51.0691997 L44.0660639,51.0691997 L44.0660639,48.4883551 L44.560682,48.4883551 L44.560682,51.6282224 Z M44.560682,47.7081956 L40.3405838,47.7081956 L40.3405838,45.8443286 C40.3405838,45.4679841 40.3777835,45.1822919 40.4535607,44.9886255 C40.5293378,44.7935857 40.6657367,44.6370044 40.8544907,44.5202551 C41.0487557,44.4048794 41.2595539,44.3458181 41.4910187,44.3458181 C41.789994,44.3458181 42.0421252,44.4447115 42.2487901,44.6370044 C42.4526996,44.8292972 42.5835874,45.1259776 42.638698,45.5297925 C42.7103419,45.3828258 42.7806079,45.2729442 42.8494963,45.1946536 C42.9996728,45.0312047 43.1856712,44.8801174 43.4116249,44.7345243 L44.560682,44.0065586 L44.560682,44.7029333 L43.6830449,45.2605825 C43.4281581,45.4212844 43.2352708,45.5531424 43.098872,45.6575299 C42.9666064,45.763291 42.8729183,45.8566903 42.8178076,45.9418486 C42.7654525,46.0256333 42.7268751,46.1107916 42.7075863,46.1945763 C42.6924309,46.2563847 42.6869198,46.3607723 42.6869198,46.5049919 L42.6869198,47.1505464 L44.560682,47.1505464 L44.560682,47.7081956 Z M42.2019461,47.1505464 L42.2019461,45.9555838 C42.2019461,45.700109 42.1757685,45.5036956 42.1234134,45.3581025 C42.0710583,45.2180034 41.9870146,45.1094953 41.8699044,45.0325782 C41.754172,44.9597816 41.6274175,44.9240701 41.4923965,44.9240701 C41.2912426,44.9240701 41.1272884,44.9941196 40.9991561,45.1383392 C40.8696461,45.2825589 40.8062688,45.5091897 40.8062688,45.8209788 L40.8062688,47.1505464 L42.2019461,47.1505464 Z M44.560682,43.936509 L40.3405838,42.3253698 L40.3405838,41.7127797 L44.560682,40 L44.560682,40.6318193 L43.2821149,41.119419 L43.2821149,42.8898866 L44.560682,43.3445218 L44.560682,43.936509 Z M42.827452,42.7278112 L42.827452,41.2938561 L41.6577284,41.732009 C41.3022647,41.863867 41.0074227,41.964134 40.775958,42.0341835 C41.052889,42.0932449 41.3201757,42.1687885 41.5888401,42.2663084 L42.827452,42.7278112 Z M50.3059675,110.092112 L46.0858693,110.092112 L46.0858693,108.643048 C46.0858693,108.31615 46.1065358,108.064796 46.1451132,107.893106 C46.2016017,107.654113 46.3021786,107.446712 46.4482218,107.276395 C46.6369758,107.053885 46.8780849,106.890436 47.1660381,106.780554 C47.4622578,106.669299 47.7956773,106.615732 48.1731852,106.615732 C48.492827,106.615732 48.7766469,106.651443 49.023267,106.725614 C49.2726427,106.801157 49.4765521,106.89593 49.6377508,107.012679 C49.801705,107.129429 49.9298373,107.261286 50.0207698,107.397265 C50.1144579,107.535991 50.184724,107.702186 50.2329458,107.8986 C50.2811677,108.09364 50.3059675,108.321644 50.3059675,108.575745 L50.3059675,110.092112 Z M49.8099716,109.535836 L49.8099716,108.637554 C49.8099716,108.361476 49.7851718,108.143086 49.7328167,107.986505 C49.6818393,107.82855 49.6074399,107.702186 49.5123741,107.608787 C49.3801085,107.478303 49.2023766,107.373915 48.9778007,107.302492 C48.7518471,107.228322 48.4831826,107.189863 48.1635409,107.189863 C47.7212779,107.189863 47.3809696,107.26266 47.1439938,107.408253 C46.9056402,107.551099 46.7458193,107.72691 46.6659089,107.931564 C46.6094205,108.079905 46.5791096,108.321644 46.5791096,108.652662 L46.5791096,109.535836 L49.8099716,109.535836 Z M50.3059675,105.836946 L46.0858693,105.836946 L46.0858693,102.800093 L46.5791096,102.800093 L46.5791096,105.28067 L47.8769655,105.28067 L47.8769655,102.960795 L48.3715836,102.960795 L48.3715836,105.28067 L49.8099716,105.28067 L49.8099716,102.699826 L50.3059675,102.699826 L50.3059675,105.836946 Z M48.8234909,97.3005176 L48.9640231,96.7442419 C49.4255748,96.8596176 49.7741497,97.0697662 50.0152588,97.3705672 C50.2549901,97.6768622 50.3762335,98.0463391 50.3762335,98.4817451 C50.3762335,98.9350067 50.2839232,99.3044837 50.0979247,99.5860553 C49.9146818,99.870374 49.6446396,100.086017 49.2960648,100.234357 C48.9419788,100.381324 48.5658486,100.455494 48.1635409,100.455494 C47.7240334,100.455494 47.3410144,100.373082 47.0144838,100.206886 C46.6865754,100.039317 46.4385775,99.8003245 46.2691122,99.4912824 C46.0982692,99.1836139 46.0142254,98.8443544 46.0142254,98.4735039 C46.0142254,98.0518332 46.1216912,97.700212 46.335245,97.4131463 C46.5529321,97.1260806 46.8532851,96.9241731 47.2418152,96.812918 L47.3713252,97.3609525 C47.0654611,97.4557254 46.842263,97.597198 46.7031086,97.7826233 C46.5625764,97.9680485 46.4923103,98.204294 46.4923103,98.4817451 C46.4923103,98.8045223 46.5694653,99.0751058 46.7251528,99.292122 C46.8794627,99.5063912 47.0888831,99.6602254 47.3506587,99.7481307 C47.6124343,99.836036 47.8838543,99.8799887 48.1621631,99.8799887 C48.5190046,99.8799887 48.8317575,99.8277949 49.1004219,99.7247809 C49.3677086,99.6203933 49.5674847,99.4596915 49.6983725,99.2399282 C49.8320158,99.022912 49.8981486,98.7839195 49.8981486,98.5270712 C49.8981486,98.2166556 49.8085938,97.9543133 49.6281064,97.7400441 C49.447619,97.5230279 49.1803324,97.3760613 48.8234909,97.3005176 L48.8234909,97.3005176 Z M48.2503401,96.2236778 C47.5504349,96.2236778 47.0020839,96.036879 46.6094205,95.661908 C46.2126238,95.2855634 46.0142254,94.8020843 46.0142254,94.2087236 C46.0142254,93.8200173 46.1079135,93.4711432 46.293912,93.1579806 C46.4771549,92.847565 46.7389305,92.609946 47.0709722,92.4451236 C47.4030139,92.2816747 47.7791441,92.2020105 48.2021183,92.2020105 C48.6306036,92.2020105 49.0122449,92.2857952 49.3484199,92.4574853 C49.6859726,92.6305488 49.9422371,92.8750354 50.1158357,93.1895715 C50.290812,93.5054812 50.3762335,93.8474877 50.3762335,94.2142177 C50.3762335,94.6097915 50.2797899,94.9627862 50.0869026,95.2759488 C49.8967709,95.5849909 49.6349953,95.8239834 49.3029536,95.9846852 C48.9709119,96.1453871 48.622337,96.2236778 48.2503401,96.2236778 L48.2503401,96.2236778 Z M48.2613623,95.6467993 C48.769758,95.6467993 49.1693103,95.5121943 49.4600189,95.2429843 C49.7521054,94.9669067 49.8981486,94.6262737 49.8981486,94.2155912 C49.8981486,93.795294 49.7521054,93.4519139 49.4558856,93.1813304 C49.1610437,92.9121205 48.7435805,92.776142 48.2007405,92.776142 C47.8590545,92.776142 47.5587015,92.8352033 47.3024369,92.9492055 C47.0461724,93.0645812 46.8491518,93.2335242 46.7072419,93.4560345 C46.5680875,93.6799183 46.4978214,93.9285254 46.4978214,94.2073501 C46.4978214,94.6015504 46.6328425,94.9394363 46.9042625,95.2223815 C47.1743047,95.5080737 47.6275898,95.6467993 48.2613623,95.6467993 L48.2613623,95.6467993 Z M50.3059675,91.5070092 L46.0858693,91.5070092 L46.0858693,90.9507335 L49.8099716,90.9507335 L49.8099716,88.8822121 L50.3059675,88.8822121 L50.3059675,91.5070092 Z M48.2503401,88.3863712 C47.5504349,88.3863712 47.0020839,88.1995725 46.6094205,87.8232279 C46.2126238,87.4482569 46.0142254,86.9634043 46.0142254,86.3700435 C46.0142254,85.9827108 46.1079135,85.6324632 46.293912,85.3206741 C46.4771549,85.0075114 46.7389305,84.771266 47.0709722,84.6064435 C47.4030139,84.4429946 47.7791441,84.3633304 48.2021183,84.3633304 C48.6306036,84.3633304 49.0122449,84.4484887 49.3484199,84.6201787 C49.6859726,84.7904952 49.9422371,85.0363554 50.1158357,85.352265 C50.290812,85.6668012 50.3762335,86.0074342 50.3762335,86.3741641 C50.3762335,86.7697379 50.2797899,87.1241061 50.0869026,87.4358952 C49.8967709,87.7476843 49.6349953,87.9853033 49.3029536,88.1446317 C48.9709119,88.3053336 48.622337,88.3863712 48.2503401,88.3863712 L48.2503401,88.3863712 Z M48.2613623,87.8094927 C48.769758,87.8094927 49.1693103,87.6735142 49.4600189,87.4029307 C49.7521054,87.1282267 49.8981486,86.7889672 49.8981486,86.3769111 C49.8981486,85.9579874 49.7521054,85.6146074 49.4558856,85.3426504 C49.1610437,85.0720669 48.7435805,84.9374619 48.2007405,84.9374619 C47.8590545,84.9374619 47.5587015,84.9951498 47.3024369,85.1105255 C47.0461724,85.2272747 46.8491518,85.3948441 46.7072419,85.6173544 C46.5680875,85.8412382 46.4978214,86.0898454 46.4978214,86.3672965 C46.4978214,86.7614968 46.6328425,87.1007563 46.9042625,87.385075 C47.1743047,87.6693937 47.6275898,87.8094927 48.2613623,87.8094927 L48.2613623,87.8094927 Z M50.3059675,83.657341 L46.0858693,83.657341 L46.0858693,82.8222407 L49.0728666,81.8278121 C49.3497976,81.7357862 49.5578404,81.6684837 49.6969947,81.6259046 C49.5440627,81.5792049 49.318109,81.5036613 49.0205115,81.4006473 L46.0858693,80.3911099 L46.0858693,79.6411678 L50.3059675,79.6411678 L50.3059675,80.1782143 L46.7747524,80.1782143 L50.3059675,81.4061414 L50.3059675,81.9088498 L46.7086197,83.1230417 L50.3059675,83.1230417 L50.3059675,83.657341 Z M50.3059675,78.773103 L46.0858693,78.773103 L46.0858693,77.1949283 C46.0858693,76.8748981 46.1272023,76.6139292 46.2140015,76.4216364 C46.2994231,76.22797 46.4289331,76.0755093 46.6094205,75.9670012 C46.7857746,75.855746 46.9703952,75.7994317 47.1646603,75.7994317 C47.3451477,75.7994317 47.5132352,75.8488784 47.6744338,75.9463984 C47.8314992,76.0439183 47.9610092,76.1895115 48.0588306,76.3886719 C48.1346078,76.1318236 48.26274,75.9367837 48.4418497,75.7994317 C48.6237148,75.6634532 48.834513,75.5961507 49.0797554,75.5961507 C49.2809093,75.5961507 49.4627745,75.6373563 49.6336175,75.7225146 C49.8030828,75.8049258 49.9325928,75.9051928 50.0262809,76.0288096 C50.1172135,76.1510529 50.1861018,76.3062607 50.2329458,76.4889389 C50.2811677,76.6743641 50.3059675,76.9009949 50.3059675,77.1674579 L50.3059675,78.773103 Z M47.8604323,78.2154538 L47.8604323,77.3061834 C47.8604323,77.0575763 47.8425213,76.8803921 47.8108327,76.7746311 C47.7681219,76.634532 47.6964781,76.5273974 47.5972789,76.4559744 C47.5008353,76.3818043 47.3768363,76.3460928 47.2294153,76.3460928 C47.0888831,76.3460928 46.9648842,76.3804308 46.8587962,76.4463597 C46.7527082,76.5164093 46.6783088,76.6098087 46.6397313,76.737546 C46.5997761,76.8597893 46.5791096,77.072685 46.5791096,77.3748594 L46.5791096,78.2154538 L47.8604323,78.2154538 Z M49.8099716,78.2154538 L49.8099716,77.1674579 C49.8099716,76.9875267 49.8030828,76.8597893 49.7893051,76.7883663 C49.7658831,76.6578819 49.7286834,76.5521208 49.6735727,76.4669625 C49.6212176,76.3804308 49.5413072,76.3090077 49.4379747,76.2526934 C49.3346422,76.1963791 49.2161543,76.1702822 49.0811332,76.1702822 C48.9226901,76.1702822 48.7862912,76.2101143 48.6691811,76.293899 C48.5534487,76.3735632 48.4721605,76.4834448 48.4253165,76.6262909 C48.3770946,76.7705105 48.3536726,76.975165 48.3536726,77.241628 L48.3536726,78.2154538 L49.8099716,78.2154538 Z M50.3059675,74.7377006 L46.0858693,74.7377006 L46.0858693,74.1800513 L50.3059675,74.1800513 L50.3059675,74.7377006 Z M50.3059675,73.6608607 L46.0858693,72.0469744 L46.0858693,71.4343844 L50.3059675,69.7202311 L50.3059675,70.3547974 L49.0274003,70.8423971 L49.0274003,72.6128647 L50.3059675,73.0688735 L50.3059675,73.6608607 Z M48.5727374,72.4507893 L48.5727374,71.0182077 L47.4016361,71.4522401 C47.0461724,71.5868451 46.7527082,71.6857386 46.5198657,71.7544146 C46.7967967,71.8148495 47.0668389,71.8917666 47.3341255,71.9865395 L48.5727374,72.4507893 Z" id="Mark"></path>
            </g>
        </g>
    </g>
</svg>