<?xml version="1.0" encoding="UTF-8"?>
<svg width="207px" height="40px" viewBox="0 0 207 40" version="1.1" xmlns="http://www.w3.org/2000/svg" xmlns:xlink="http://www.w3.org/1999/xlink">
    <!-- Generator: Sketch 52.5 (67469) - http://www.bohemiancoding.com/sketch -->
    <title>Banco de Bogotá</title>
    <desc>Created with Sketch.</desc>
    <g id="Private-CEO" stroke="none" stroke-width="1" fill="none" fill-rule="evenodd">
        <g id="2-Loading-in-Empresas" transform="translate(-80.000000, -884.000000)" fill="#FFFFFF">
            <g id="Footer" transform="translate(0.000000, 784.000000)">
                <g id="Banco-de-Bogotá" transform="translate(80.000000, 100.000000)">
                    <g id="Emblem" transform="translate(166.286207, 0.000000)">
                        <path d="M20.2875436,0.00196874615 C9.4053025,0.187892211 0.408546772,7.72351421 0.0135437192,18.0830565 C-0.37798678,28.4419835 7.76749706,37.1600837 18.2076076,37.5471884 C23.522724,37.7487388 28.4096001,35.7504614 31.97951,32.374677 C35.4178348,29.1202166 35.2778165,23.3963332 32.5421878,25.9933555 C29.5356999,28.8461917 25.333289,30.5507567 20.7501374,30.3858742 C12.0112065,30.0751815 5.19098578,23.0743202 5.52075442,14.7505845 C5.82460292,7.02620893 13.5409907,0.913252123 20.4523659,0.544481358 L20.6328147,7.10542736e-15 C20.5176003,7.10542736e-15 20.4048663,7.10542736e-15 20.2875436,0.00196874615" id="Fill"></path>
                        <path d="M21.806166,0.548295804 C30.589248,1.07505845 37.818114,8.49846192 12.2614784,15.913006 C18.7714016,17.1818629 23.5806413,20.2107789 23.5806413,20.2107789 C45.4597178,9.17423403 33.0142071,-0.03839055 20.6328147,0.000123046635 L20.4523659,0.544481358 C20.9080146,0.520487265 21.3589506,0.520487265 21.806166,0.548295804" id="Fill"></path>
                        <path d="M11.0424878,4.42869448 C13.7915107,2.15626923 17.2123487,0.719453673 20.4522419,0.544481358 C20.9078906,0.520610311 21.3589506,0.520610311 21.806042,0.548295804 C26.1115133,0.807924203 30.0448011,2.720315 29.9222696,5.48271195 L32.073517,2.96850006 C29.1973738,1.07924203 24.9121178,-0.0121816168 20.6326907,0.000123046635 C20.5176003,0.000123046635 20.4048663,0.000123046635 20.2875436,0.00209179279 C16.2549159,0.0708748616 12.4853342,1.15085517 9.3170004,3.00516796 L11.0424878,4.42869448 Z" id="Fill"></path>
                        <path d="M31.1705288,29.2818998 C31.1644518,29.1830934 30.8086391,26.7269595 30.8086391,26.7269595 C29.9235098,20.9004553 31.1611033,15.2473237 40.1491901,14.7850375 C27.1118569,8.56724499 18.4437413,14.519749 12.0924394,15.913006 C17.8727541,16.6285222 30.0575752,23.1090193 31.1705288,29.2818998" id="Fill"></path>
                        <path d="M35.4998119,16.4996924 C29.9471975,18.7701489 30.5119837,25.0605389 31.0471291,28.7457857 C31.1513058,29.0431894 31.710387,31.3412083 30.4252939,33.7354497 C28.8282909,36.4312785 26.2469429,38.4620401 21.2663078,39.7861449 C34.0320376,40.3677864 48.6416937,28.203273 35.4998119,16.4996924" id="Fill"></path>
                    </g>
                    <path d="M46.3109409,24.3036098 L46.6376414,24.2092808 L47.087594,25.7201883 L46.8106874,25.8416328 C45.0818701,26.58509 43.9175478,26.8739931 42.6521587,26.8739931 C39.7442287,26.8739931 37.7947078,24.6554537 37.7947078,21.3526238 C37.7947078,17.885622 39.816208,15.6398028 42.9453345,15.6398028 C44.4250181,15.6398028 45.827135,16.1668291 46.3605704,16.3924628 L46.5673054,16.479561 L46.5373962,18.4990892 C46.5373962,18.4990892 45.0314189,17.8933458 44.9990446,17.8824996 C44.9939502,17.8806919 44.4317559,17.6690268 43.552064,17.6690268 C41.8066487,17.6690268 40.925149,18.90122 40.925149,21.3335608 C40.925149,22.9060944 41.3691856,24.7810066 43.5075288,24.7810066 C44.2802379,24.7810066 45.2241853,24.6207788 46.3109409,24.3036098 Z M8.47465601,24.1440393 C9.03257757,23.7272826 9.35204724,22.9981227 9.35204724,22.1476826 C9.35204724,21.3526238 9.08089243,20.6918278 8.60333129,20.2903543 C8.02174531,19.8269261 7.11197983,19.7899504 5.98282547,19.7899504 L4.95638126,19.7899504 C4.95638126,19.7899504 4.90083561,19.7820623 4.88423765,19.7777895 L4.88423765,24.7165868 L5.44150187,24.7165868 C6.73006239,24.7165868 7.77589828,24.6738594 8.47465601,24.1440393 Z M4.88423765,13.5806696 L4.88423765,18.918311 C4.88423765,18.918311 5.46450894,17.9347585 5.46450894,17.9459334 C5.46450894,17.9459334 6.71970921,17.8136427 6.72809036,17.8136427 C8.49108963,17.6379672 8.94712272,17.0458637 8.94712272,15.5545123 C8.94712272,14.9070275 8.73907303,14.375564 8.36471506,14.0541223 C7.80876553,13.5745892 6.90228678,13.5770542 5.74749596,13.5806696 L4.88423765,13.5806696 Z M10.0534343,18.7018801 C11.7454404,19.2376163 12.6149435,20.4185366 12.6149435,22.3601693 C12.6149435,24.0281823 11.7579299,25.3826416 10.2598407,26.0754833 C9.27398752,26.530366 8.36109966,26.6624923 6.1856164,26.6624923 L1.75166007,26.6624923 L1.75166007,13.4922567 C1.34936494,13.4326026 2.84217094e-14,13.2344131 2.84217094e-14,13.2344131 L2.84217094e-14,11.6388725 L5.57510724,11.6388725 C8.20826695,11.6388725 9.07563367,11.7322155 10.0011754,12.1133112 C11.3201382,12.6457607 12.0778926,13.8705587 12.0778926,15.4688931 C12.0778926,17.1111052 11.424163,18.133934 10.0534343,18.7018801 Z M96.4890424,24.1440393 C97.0453206,23.7272826 97.3634756,22.9981227 97.3634756,22.1476826 C97.3634756,21.3526238 97.0961005,20.6918278 96.6131163,20.2903543 C96.032352,19.8269261 95.1253802,19.7899504 93.9978692,19.7899504 L92.9707676,19.7899504 C92.9707676,19.7899504 92.914236,19.7820623 92.895666,19.7777895 L92.895666,24.7165868 L93.4526015,24.7165868 C94.7429698,24.7165868 95.787984,24.6738594 96.4890424,24.1440393 Z M92.895666,13.5806696 L92.895666,18.918311 C92.895666,18.918311 93.4744582,17.9347585 93.4744582,17.9459334 L94.7385327,17.8136427 C96.5003816,17.6379672 96.9587154,17.0458637 96.9587154,15.5545123 C96.9587154,14.9070275 96.7528021,14.375564 96.3769651,14.0541223 C95.8216729,13.5745892 94.9122361,13.5770542 93.761225,13.5806696 L92.895666,13.5806696 Z M98.0642053,18.7018801 C99.75654,19.2376163 100.628508,20.4185366 100.628508,22.3601693 C100.628508,24.0281823 99.7698513,25.3826416 98.2738984,26.0754833 C97.2890313,26.530366 96.3731853,26.6624923 94.1963874,26.6624923 L89.7648961,26.6624923 L89.7648961,13.4922567 C89.361615,13.4326026 88.0125787,13.2344131 88.0125787,13.2344131 L88.0125787,11.6388725 L93.5885076,11.6388725 C96.2178876,11.6388725 97.0883767,11.7322155 98.0104674,12.1133112 C99.3317308,12.6457607 100.088992,13.8705587 100.088992,15.4688931 C100.088992,17.1111052 99.4362487,18.133934 98.0642053,18.7018801 Z M33.3499053,15.6396385 C34.5262242,15.6396385 35.4108462,16.0171188 35.9791209,16.7577823 C36.4954654,17.4238371 36.5682664,17.9617097 36.5682664,19.598663 L36.5682664,26.6624923 L33.5727453,26.6624923 L33.5786614,19.7579049 C33.5829341,19.1017102 33.5880285,18.5352432 33.3029051,18.24634 C33.1172052,18.059161 32.7947774,17.9704195 32.3201744,17.9704195 C31.3851011,17.9704195 30.4327725,18.2611303 30.0237396,18.4034455 C30.0237396,18.8509331 29.9976102,26.6624923 29.9976102,26.6624923 L27.0333129,26.6624923 L27.0333129,17.8207092 L25.3708874,17.8207092 L25.3708874,16.236179 L29.8871762,15.6626455 C29.8871762,15.6626455 29.9302323,16.2675673 29.949624,16.514729 C31.2736811,15.9651886 32.4391538,15.6396385 33.3499053,15.6396385 Z M52.8868559,24.9333463 C54.0074648,24.9333463 55.1540388,24.4962119 55.1540388,21.2492563 C55.1540388,17.9832377 53.869258,17.6052643 52.9059189,17.6052643 C51.7881037,17.6052643 50.6389003,18.0423988 50.6389003,21.27062 C50.6389003,24.5540583 51.9202301,24.9333463 52.8868559,24.9333463 Z M52.9059189,15.6396385 C56.274812,15.6396385 58.2831653,17.7367333 58.2831653,21.2492563 C58.2831653,24.7206952 56.2214027,26.8739931 52.9059189,26.8739931 C49.5250292,26.8739931 47.5074731,24.7796919 47.5074731,21.27062 C47.5074731,17.7967161 49.5769595,15.6396385 52.9059189,15.6396385 Z M130.867693,24.9333463 C131.989452,24.9333463 133.138327,24.4962119 133.138327,21.2492563 C133.138327,17.9832377 131.854203,17.6052643 130.890042,17.6052643 C129.769433,17.6052643 128.62516,18.0423988 128.62516,21.27062 C128.62516,24.5540583 129.900574,24.9333463 130.867693,24.9333463 Z M130.890042,15.6396385 C134.258935,15.6396385 136.26811,17.7367333 136.26811,21.2492563 C136.26811,24.7206952 134.205197,26.8739931 130.890042,26.8739931 C127.513425,26.8739931 125.496855,24.7796919 125.496855,21.27062 C125.496855,17.7967161 127.561905,15.6396385 130.890042,15.6396385 Z M143.420353,24.5921843 L143.870305,26.025032 L143.574829,26.1425324 C142.38487,26.6146705 141.295978,26.852465 140.346772,26.852465 C139.312111,26.852465 138.613024,26.5906774 138.159949,26.0281544 C137.674336,25.4602083 137.580007,24.7363072 137.580007,23.6005794 L137.580007,13.378536 L140.205771,13.1571751 L140.577829,13.1257869 L140.577829,15.9824439 L143.545741,15.9824439 L143.545741,17.8207092 L140.577829,17.8207092 C140.577829,18.4167567 140.573884,23.563768 140.573884,23.655632 C140.573884,24.4939112 140.585881,24.5657261 140.64915,24.6738594 C140.725402,24.7882374 140.850462,24.9106679 141.31767,24.9106679 L143.420353,24.5921843 Z M107.451585,24.9333463 C108.574659,24.9333463 109.720904,24.4962119 109.720904,21.2492563 C109.720904,17.9832377 108.438588,17.6052643 107.472291,17.6052643 C106.353654,17.6052643 105.206916,18.0423988 105.206916,21.27062 C105.206916,24.5540583 106.490053,24.9333463 107.451585,24.9333463 Z M107.472291,15.6396385 C110.841513,15.6396385 112.850031,17.7367333 112.850031,21.2492563 C112.850031,24.7206952 110.791062,26.8739931 107.472291,26.8739931 C104.095839,26.8739931 102.077461,24.7796919 102.077461,21.27062 C102.077461,17.7967161 104.144154,15.6396385 107.472291,15.6396385 Z M121.211788,24.4990056 L121.211788,17.8977829 C120.728968,17.8136427 120.456334,17.79573 120.099231,17.79573 C118.146917,17.79573 117.033703,19.0829759 117.033703,21.3117041 C117.033703,23.4567851 118.020213,24.6240655 119.825776,24.6240655 C120.312047,24.6240655 120.667506,24.5798591 121.211788,24.4990056 Z M121.29412,16.5086485 L121.29412,16.0542588 L124.276494,16.0542588 L124.276494,26.9513955 C124.276494,28.8315994 123.795811,29.8117007 122.490981,30.5063501 C121.612932,30.9796385 120.372687,31.2243351 118.926199,31.2243351 C117.790636,31.2243351 116.868216,31.0811983 114.638338,30.5906546 L114.638338,28.793802 C115.735446,29.0598624 117.160735,29.2222266 118.211665,29.2222266 C120.537516,29.2222266 121.211788,28.6879695 121.211788,26.8302797 L121.211788,25.9696507 C119.596362,26.6265027 118.926199,26.8097376 118.231878,26.8097376 C115.544323,26.8097376 113.8653,24.8066431 113.8653,21.6150688 C113.8653,18.2882458 115.984252,15.9144087 118.965968,15.9144087 C119.784363,15.9144087 120.601443,16.118843 121.29412,16.5086485 Z M20.9527074,24.5834745 L20.9527074,17.9129018 C20.4587126,17.8235029 20.1785193,17.8041112 19.8145145,17.8041112 C17.8225948,17.8041112 16.6822656,19.1063116 16.6822656,21.3611693 C16.6822656,23.5295861 17.6909615,24.709849 19.5351429,24.709849 C20.0316027,24.709849 20.3964292,24.6676146 20.9527074,24.5834745 Z M23.86491,16.1244304 L23.86491,24.537296 L25.0731101,24.537296 L25.0731101,26.3132778 L20.9213191,26.7318422 L20.8611721,26.7374297 L20.8611721,25.7520695 C19.5050694,26.530366 18.6238984,26.8370174 17.944368,26.8370174 C15.3111426,26.8370174 13.6695878,24.842304 13.6695878,21.6628906 C13.6695878,18.3465851 15.7444972,15.9822795 18.6656398,15.9822795 C19.464807,15.9822795 20.2644672,16.1876998 20.9443262,16.5720823 L20.9443262,16.1244304 L23.86491,16.1244304 Z M151.55549,24.5834745 L151.55549,17.9129018 C151.062974,17.8235029 150.783931,17.8041112 150.418612,17.8041112 C148.425049,17.8041112 147.286199,19.1063116 147.286199,21.3611693 C147.286199,23.5295861 148.297195,24.709849 150.138583,24.709849 C150.636193,24.709849 150.999047,24.6676146 151.55549,24.5834745 Z M154.469007,16.1244304 L154.469007,24.537296 L155.67655,24.537296 L155.67655,26.3132778 L151.46642,26.7374297 L151.46642,25.7520695 C150.109331,26.530366 149.228324,26.8370174 148.54978,26.8370174 C145.91662,26.8370174 144.273915,24.842304 144.273915,21.6628906 C144.273915,18.3465851 146.348825,15.9822795 149.27023,15.9822795 C150.071534,15.9822795 150.870701,16.1876998 151.549081,16.5720823 L151.549081,16.1244304 L154.469007,16.1244304 Z M153.103702,13.4294803 L147.829166,14.5274107 L147.420954,13.1719654 L152.083009,11.2801265 L152.394262,11.1544092 L153.103702,13.4294803 Z M69.6161217,24.4922678 C69.6161217,24.2786307 69.6904016,18.0930143 69.6904016,18.0930143 C68.5436633,17.5579355 66.9744165,17.3520222 66.0575845,18.3847112 C65.4784636,19.0369617 65.1769066,19.7641496 65.1507771,20.8977411 C65.1507771,21.0150772 65.145847,21.1325776 65.145847,21.2492563 C65.145847,22.2783299 65.2564453,23.2889978 65.819297,23.9632695 C66.7834577,25.1244694 68.2731658,24.8528216 69.6161217,24.4922678 Z M72.6060554,10.935842 C72.6060554,10.935842 72.4854326,24.596457 72.4839535,24.8676118 L73.7587098,24.8676118 L73.7587098,26.1984068 L69.7789789,26.7234611 C69.7789789,26.7234611 69.7553145,26.0570776 69.7461116,25.8442622 C68.656398,26.3658654 66.6986602,26.9099827 65.2227564,26.4258481 C63.2132527,25.7653808 61.9527937,23.7576848 62.0114618,21.3184419 C62.0698011,18.6223414 63.2347808,16.7579466 65.3008161,16.0629686 C66.8035068,15.5554983 68.4376664,15.8966604 69.6087265,16.2915604 C69.6087265,15.987867 69.6105342,13.0646538 69.6105342,12.8245585 L68.1581305,12.8245585 L68.1581305,11.4980363 L72.0995711,10.9948387 L72.4542087,10.95244 L72.6060554,10.935842 Z M77.6738566,19.8422093 L81.7490669,19.8422093 C81.7211297,19.6055651 81.6943429,17.4810261 79.7200072,17.4810261 C77.7808395,17.4810261 77.7034371,19.6560164 77.6738566,19.8422093 Z M79.7119548,15.6356944 C79.9057072,15.6417748 84.3150131,15.5287115 84.3150131,20.5725196 C84.3150131,20.8193527 84.3020305,21.0698011 84.2790235,21.3261657 L84.270971,21.4490892 L83.3996602,21.4490892 L77.5987549,21.3347112 C77.6025347,22.2173611 77.6891399,23.3241658 78.3213414,24.0585845 C79.4919085,25.4192886 81.3178486,24.6942371 82.7368921,24.3026238 L83.7189655,23.9921926 L84.2159183,25.5154253 L84.1210963,25.5645619 C82.3696006,26.5195198 79.6064509,27.1724277 77.7175701,26.5714501 C75.5838282,25.8922483 74.2393933,23.826213 74.3046348,21.3107181 C74.3654393,18.5322851 75.6065066,16.6082363 77.8017102,15.8925519 C78.4097543,15.6958415 79.0276586,15.6117013 79.7119548,15.6356944 Z" id="Lettering"></path>
                </g>
            </g>
        </g>
    </g>
</svg>