<?xml version="1.0" encoding="UTF-8"?>
<svg width="228px" height="44px" viewBox="0 0 228 44" version="1.1" xmlns="http://www.w3.org/2000/svg" xmlns:xlink="http://www.w3.org/1999/xlink">
    <!-- Generator: Sketch 52.5 (67469) - http://www.bohemiancoding.com/sketch -->
    <title>Logo</title>
    <desc>Created with Sketch.</desc>
    <defs>
        <path d="M22.2806529,0.0215085511 C10.3774163,0.227953874 0.537713776,8.53337976 0.104601415,19.9546042 C-0.322076765,31.3735491 8.58687538,40.9836433 20.0066292,41.4106891 C25.8176146,41.6333118 31.1616623,39.4306156 35.0681299,35.7085332 C38.8275305,32.120098 38.6731101,25.8124673 35.683973,28.6745752 C32.3951869,31.8189783 27.7993427,33.699414 22.7843574,33.5176024 C13.2268397,33.1743847 5.76870369,25.4549106 6.12901788,16.279951 C6.45991867,7.76587377 14.899727,1.02689544 22.46081,0.619152136 L22.6575121,0.0194863796 C22.5325052,0.0194863796 22.4074982,0.0194863796 22.2806529,0.0215085511 Z" id="path-1"></path>
        <linearGradient x1="28.6013088%" y1="44.3971956%" x2="87.1663943%" y2="57.3653944%" id="linearGradient-3">
            <stop stop-color="#E30513" offset="0%"></stop>
            <stop stop-color="#890F01" offset="100%"></stop>
        </linearGradient>
        <path d="M12.5466548,0.0194863796 C12.4216478,0.0194863796 12.2966409,0.0194863796 12.1697956,0.0215085511 C7.75594674,0.0972480642 3.63623196,1.28959389 0.169127068,3.33253858 L2.05709988,4.9010083 C5.06462036,2.39664086 8.80563757,0.812361428 12.3499526,0.619152136 C12.8481422,0.593599242 13.3408167,0.593599242 13.8298145,0.623931814 C18.5396357,0.90997716 22.8413459,3.019102 22.7071472,6.06338923 L25.0583811,3.29264665 C21.9313687,1.2199209 17.2766977,0.0193025458 12.623865,0.0193025458 C12.5981282,0.0193025458 12.5723915,0.0193025458 12.5466548,0.0194863796 Z" id="path-4"></path>
        <linearGradient x1="10.3257257%" y1="49.9969585%" x2="88.6542581%" y2="49.9969585%" id="linearGradient-6">
            <stop stop-color="#E30513" offset="0%"></stop>
            <stop stop-color="#FFCC00" offset="100%"></stop>
        </linearGradient>
        <path d="M0.079048521,4.32468943 C6.4029302,5.11407164 19.7290402,12.2587711 20.9478581,19.0633046 C20.9405047,18.9539235 20.5507771,16.2468609 20.5507771,16.2468609 C19.5838115,9.82389282 20.9349897,3.59192803 30.768258,3.08289232 C26.0547602,0.817141106 21.8615119,0.0172803744 18.1131413,0.0169127068 C10.5152916,0.0165450393 4.73004289,3.29761016 0.079048521,4.32468943 Z" id="path-7"></path>
        <linearGradient x1="50%" y1="-0.782768665%" x2="50%" y2="35.65796%" id="linearGradient-9">
            <stop stop-color="#E39A00" offset="0%"></stop>
            <stop stop-color="#FFCC00" offset="100%"></stop>
        </linearGradient>
        <path d="M10.7009637,13.5082157 C10.816779,13.8361751 11.4271071,16.3694045 10.0189404,19.0099928 C8.27619631,21.982401 5.45250961,24.2203933 0.00367667539,25.6789304 C13.9658515,26.3195911 29.9428444,12.9110133 15.568882,0.0102946911 C9.49685254,2.5133753 10.1163723,9.44758509 10.7009637,13.5082157 Z" id="path-10"></path>
        <linearGradient x1="23.063681%" y1="25.490131%" x2="50%" y2="50%" id="linearGradient-12">
            <stop stop-color="#E49B00" offset="0%"></stop>
            <stop stop-color="#FFCC00" offset="100%"></stop>
        </linearGradient>
    </defs>
    <g id="Private-CEO" stroke="none" stroke-width="1" fill="none" fill-rule="evenodd">
        <g id="3-Dashboard-CEO" transform="translate(-40.000000, -18.000000)">
            <g id="Header">
                <g id="Logo" transform="translate(40.000000, 18.000000)">
                    <path d="M50.942035,26.7333396 L51.3014055,26.6295777 L51.7963534,28.291576 L51.4917562,28.4251649 C49.5900571,29.2429678 48.3093025,29.5607612 46.9173745,29.5607612 C43.7186516,29.5607612 41.5741786,27.1203679 41.5741786,23.487255 C41.5741786,19.673553 43.7978288,17.2031519 47.239868,17.2031519 C48.8675199,17.2031519 50.4098485,17.7828809 50.9966275,18.0310779 L51.224036,18.126886 L51.1911359,20.3483669 C51.1911359,20.3483669 49.5345607,19.6820492 49.4989491,19.6701184 C49.4933452,19.6681299 48.8749315,19.4352983 47.9072703,19.4352983 C45.9873135,19.4352983 45.0176639,20.7907108 45.0176639,23.4662857 C45.0176639,25.1960726 45.5061041,27.2584761 47.8582817,27.2584761 C48.7082617,27.2584761 49.7466038,27.0822255 50.942035,26.7333396 Z M9.32212161,26.5578121 C9.93583533,26.0993797 10.287252,25.2973038 10.287252,24.3618197 C10.287252,23.487255 9.98898167,22.7603794 9.46366442,22.3187586 C8.82391984,21.8089875 7.82317782,21.7683143 6.58110802,21.7683143 L5.45201939,21.7683143 C5.45201939,21.7683143 5.39091917,21.7596373 5.37266141,21.7549373 L5.37266141,27.1876143 L5.98565205,27.1876143 C7.40306863,27.1876143 8.55348811,27.1406142 9.32212161,26.5578121 Z M5.37266141,14.9381054 L5.37266141,20.8095109 C5.37266141,20.8095109 6.01095984,19.7276032 6.01095984,19.7398955 C6.01095984,19.7398955 7.39168013,19.5943758 7.40089939,19.5943758 C9.3401986,19.4011328 9.841835,18.749819 9.841835,17.1093323 C9.841835,16.397099 9.61298034,15.8124893 9.20118656,15.4589034 C8.58964208,14.9314169 7.59251546,14.9341285 6.32224556,14.9381054 L5.37266141,14.9381054 Z M11.0587778,20.571437 C12.9199844,21.1607468 13.8764378,22.4597591 13.8764378,24.5955551 C13.8764378,26.4303693 12.9337229,27.9202746 11.2858247,28.6824004 C10.2013863,29.1827714 9.19720963,29.3281104 6.80417804,29.3281104 L1.92682608,29.3281104 L1.92682608,14.8408512 C1.48430143,14.7752317 2.84217094e-14,14.5572233 2.84217094e-14,14.5572233 L2.84217094e-14,12.8021286 L6.13261796,12.8021286 C9.02909364,12.8021286 9.98319704,12.9048059 11.001293,13.3240112 C12.452152,13.9097056 13.2856819,15.2569835 13.2856819,17.0151512 C13.2856819,18.8215846 12.5665793,19.9466963 11.0587778,20.571437 Z M106.137947,26.5578121 C106.749853,26.0993797 107.099823,25.2973038 107.099823,24.3618197 C107.099823,23.487255 106.805711,22.7603794 106.274428,22.3187586 C105.635587,21.8089875 104.637918,21.7683143 103.397656,21.7683143 L102.267844,21.7683143 C102.267844,21.7683143 102.20566,21.7596373 102.185233,21.7549373 L102.185233,27.1876143 L102.797862,27.1876143 C104.217267,27.1876143 105.366782,27.1406142 106.137947,26.5578121 Z M102.185233,14.9381054 L102.185233,20.8095109 C102.185233,20.8095109 102.821904,19.7276032 102.821904,19.7398955 L104.212386,19.5943758 C106.15042,19.4011328 106.654587,18.749819 106.654587,17.1093323 C106.654587,16.397099 106.428082,15.8124893 106.014662,15.4589034 C105.40384,14.9314169 104.40346,14.9341285 103.137348,14.9381054 L102.185233,14.9381054 Z M107.870626,20.571437 C109.732194,21.1607468 110.691359,22.4597591 110.691359,24.5955551 C110.691359,26.4303693 109.746836,27.9202746 108.101288,28.6824004 C107.017934,29.1827714 106.010504,29.3281104 103.616026,29.3281104 L98.7413857,29.3281104 L98.7413857,14.8408512 C98.2977764,14.7752317 96.8138366,14.5572233 96.8138366,14.5572233 L96.8138366,12.8021286 L102.947358,12.8021286 C105.839676,12.8021286 106.797214,12.9048059 107.811514,13.3240112 C109.264904,13.9097056 110.097891,15.2569835 110.097891,17.0151512 C110.097891,18.8215846 109.379874,19.9466963 107.870626,20.571437 Z M36.6848958,17.2029711 C37.9788466,17.2029711 38.9519308,17.6181995 39.577033,18.4329294 C40.145012,19.1655897 40.225093,19.7572495 40.225093,21.5578982 L40.225093,29.3281104 L36.9300198,29.3281104 L36.9365275,21.7330642 C36.9412275,21.0112501 36.9468314,20.3881363 36.6331956,20.0703429 C36.4289257,19.864446 36.0742552,19.7668303 35.5521918,19.7668303 C34.5236112,19.7668303 33.4760498,20.0866122 33.0261136,20.2431589 C33.0261136,20.7353952 32.9973712,29.3281104 32.9973712,29.3281104 L29.7366442,29.3281104 L29.7366442,19.6021489 L27.9079762,19.6021489 L27.9079762,17.8591658 L32.8758938,17.2282789 C32.8758938,17.2282789 32.9232555,17.8936928 32.9445864,18.1655707 C34.4010492,17.5610763 35.6830692,17.2029711 36.6848958,17.2029711 Z M58.1755415,27.4260498 C59.4082112,27.4260498 60.6694426,26.9452019 60.6694426,23.3735508 C60.6694426,19.7809303 59.2561838,19.3651596 58.1965108,19.3651596 C56.9669141,19.3651596 55.7027904,19.8460075 55.7027904,23.3970509 C55.7027904,27.0088329 57.1122531,27.4260498 58.1755415,27.4260498 Z M58.1965108,17.2029711 C61.9022932,17.2029711 64.1114818,19.5097755 64.1114818,23.3735508 C64.1114818,27.1921336 61.843543,29.5607612 58.1965108,29.5607612 C54.4775322,29.5607612 52.2582204,27.25703 52.2582204,23.3970509 C52.2582204,19.5757565 54.5346555,17.2029711 58.1965108,17.2029711 Z M143.954462,27.4260498 C145.188397,27.4260498 146.452159,26.9452019 146.452159,23.3735508 C146.452159,19.7809303 145.039623,19.3651596 143.979047,19.3651596 C142.746377,19.3651596 141.487676,19.8460075 141.487676,23.3970509 C141.487676,27.0088329 142.890631,27.4260498 143.954462,27.4260498 Z M143.979047,17.2029711 C147.684829,17.2029711 149.894921,19.5097755 149.894921,23.3735508 C149.894921,27.1921336 147.625717,29.5607612 143.979047,29.5607612 C140.264768,29.5607612 138.046541,27.25703 138.046541,23.3970509 C138.046541,19.5757565 140.318095,17.2029711 143.979047,17.2029711 Z M157.762388,27.0507715 L158.257336,28.6269041 L157.932312,28.7561545 C156.623357,29.2755064 155.425576,29.5370804 154.381449,29.5370804 C153.243322,29.5370804 152.474327,29.249114 151.975944,28.6303387 C151.441769,28.005598 151.338007,27.2093067 151.338007,25.9600061 L151.338007,14.7157585 L154.226348,14.4722614 L154.635611,14.4377344 L154.635611,17.5800571 L157.900315,17.5800571 L157.900315,19.6021489 L154.635611,19.6021489 C154.635611,20.2578012 154.631273,25.9195137 154.631273,26.020564 C154.631273,26.9426712 154.644469,27.0216676 154.714066,27.1406142 C154.797943,27.26643 154.935509,27.4011036 155.449437,27.4011036 L157.762388,27.0507715 Z M118.196743,27.4260498 C119.432125,27.4260498 120.692995,26.9452019 120.692995,23.3735508 C120.692995,19.7809303 119.282447,19.3651596 118.21952,19.3651596 C116.98902,19.3651596 115.727608,19.8460075 115.727608,23.3970509 C115.727608,27.0088329 117.139059,27.4260498 118.196743,27.4260498 Z M118.21952,17.2029711 C121.925664,17.2029711 124.135034,19.5097755 124.135034,23.3735508 C124.135034,27.1921336 121.870168,29.5607612 118.21952,29.5607612 C114.505423,29.5607612 112.285207,27.25703 112.285207,23.3970509 C112.285207,19.5757565 114.558569,17.2029711 118.21952,17.2029711 Z M133.332966,26.948275 L133.332966,19.68693 C132.801865,19.5943758 132.501967,19.5746719 132.109154,19.5746719 C129.961608,19.5746719 128.737073,20.9906423 128.737073,23.4422433 C128.737073,25.8018325 129.822235,27.0858409 131.808353,27.0858409 C132.343251,27.0858409 132.734257,27.0372138 133.332966,26.948275 Z M133.423532,18.1588822 L133.423532,17.6590535 L136.704144,17.6590535 L136.704144,29.6459038 C136.704144,31.7141281 136.175392,32.7922397 134.740079,33.5563539 C133.774226,34.0769711 132.409955,34.3461375 130.818819,34.3461375 C129.569699,34.3461375 128.555038,34.1886869 126.102171,33.6490889 L126.102171,31.6725511 C127.308991,31.9652175 128.876808,32.1438181 130.032832,32.1438181 C132.591268,32.1438181 133.332966,31.5561353 133.332966,29.5126765 L133.332966,28.5659846 C131.555999,29.2885218 130.818819,29.4900802 130.055066,29.4900802 C127.098756,29.4900802 125.25183,27.2866762 125.25183,23.7759445 C125.25183,20.1164392 127.582677,17.5052184 130.862565,17.5052184 C131.762799,17.5052184 132.661587,17.7300961 133.423532,18.1588822 Z M23.0479781,27.0411907 L23.0479781,19.7035608 C22.5045839,19.605222 22.1963712,19.5838911 21.795966,19.5838911 C19.6048543,19.5838911 18.3504922,21.0163116 18.3504922,23.4966551 C18.3504922,25.8819135 19.4600577,27.1802028 21.4886572,27.1802028 C22.034763,27.1802028 22.4360721,27.1337449 23.0479781,27.0411907 Z M26.251401,17.7362423 L26.251401,26.9903944 L27.5804211,26.9903944 L27.5804211,28.9439744 L23.0134511,29.4043953 L22.9472893,29.4105415 L22.9472893,28.3266453 C21.4555763,29.1827714 20.4862882,29.520088 19.7388048,29.520088 C16.8422568,29.520088 15.0365465,27.3259033 15.0365465,23.8285485 C15.0365465,20.1806125 17.318947,17.5798763 20.5322038,17.5798763 C21.4112877,17.5798763 22.2909139,17.8058387 23.0387588,18.2286594 L23.0387588,17.7362423 L26.251401,17.7362423 Z M166.711039,27.0411907 L166.711039,19.7035608 C166.169272,19.605222 165.862324,19.5838911 165.460473,19.5838911 C163.267554,19.5838911 162.014818,21.0163116 162.014818,23.4966551 C162.014818,25.8819135 163.126915,27.1802028 165.152441,27.1802028 C165.699812,27.1802028 166.098952,27.1337449 166.711039,27.0411907 Z M169.915908,17.7362423 L169.915908,26.9903944 L171.244205,26.9903944 L171.244205,28.9439744 L166.613062,29.4105415 L166.613062,28.3266453 C165.120264,29.1827714 164.151157,29.520088 163.404758,29.520088 C160.508282,29.520088 158.701307,27.3259033 158.701307,23.8285485 C158.701307,20.1806125 160.983707,17.5798763 164.197253,17.5798763 C165.078687,17.5798763 165.957771,17.8058387 166.703989,18.2286594 L166.703989,17.7362423 L169.915908,17.7362423 Z M168.414072,14.7717971 L162.612082,15.9795206 L162.16305,14.4885307 L167.29131,12.4075079 L167.633688,12.269219 L168.414072,14.7717971 Z M76.5777338,26.9408635 C76.5777338,26.7058626 76.6594418,19.9016846 76.6594418,19.9016846 C75.3980296,19.3130979 73.6718581,19.0865932 72.663343,20.2225511 C72.02631,20.9400267 71.6945972,21.7399334 71.6658548,22.986884 C71.6658548,23.1159537 71.6604317,23.2452042 71.6604317,23.3735508 C71.6604317,24.5055317 71.7820899,25.6172664 72.4012267,26.3589652 C73.4618035,27.6362852 75.1004824,27.3374726 76.5777338,26.9408635 Z M79.8666609,12.0287951 C79.8666609,12.0287951 79.7339758,27.0554716 79.7323489,27.3537419 L81.1345808,27.3537419 L81.1345808,28.8176163 L76.7568768,29.395176 C76.7568768,29.395176 76.7308459,28.6621542 76.7207228,28.4280572 C75.5220378,29.0018208 73.3685263,29.6003498 71.745032,29.0678018 C69.534578,28.3412877 68.1480731,26.1328221 68.2126079,23.4496549 C68.2767812,20.4839443 69.5582589,18.4331101 71.8308977,17.6686343 C73.4838574,17.110417 75.2814331,17.4856952 76.5695992,17.9200852 C76.5695992,17.5860225 76.5715877,14.370488 76.5715877,14.1063832 L74.9739435,14.1063832 L74.9739435,12.6472088 L79.3095282,12.0936914 L79.6996295,12.0470528 L79.8666609,12.0287951 Z M85.4412423,21.8257991 L89.9239736,21.8257991 C89.8932427,21.5654905 89.8637772,19.2284976 87.692008,19.2284976 C85.5589235,19.2284976 85.4737808,21.6209869 85.4412423,21.8257991 Z M87.6831502,17.1986327 C87.8962779,17.2053212 92.7465144,17.0809515 92.7465144,22.6291404 C92.7465144,22.9006568 92.7322336,23.1761501 92.7069258,23.4581511 L92.6980681,23.5933669 L91.7396262,23.5933669 L85.3586304,23.4675511 C85.3627881,24.4384661 85.4580539,25.6559512 86.1534756,26.4638118 C87.4410994,27.9605863 89.4496334,27.1630296 91.0105813,26.732255 L92.0908621,26.3907807 L92.6375102,28.0663367 L92.5332059,28.1203869 C90.6065606,29.1708406 87.567096,29.8890393 85.4893271,29.2279639 C83.142211,28.480842 81.6633327,26.2082032 81.7350983,23.4411587 C81.8019832,20.3848825 83.1671573,18.2684288 85.5818812,17.481176 C86.2507298,17.2647944 86.9304245,17.1722403 87.6831502,17.1986327 Z" id="Lettering" fill="#FFFFFF"></path>
                    <g id="Emblem" transform="translate(182.914601, 0.000000)">
                        <g id="Group-17" transform="translate(0.000000, 0.000000)">
                            <mask id="mask-2" fill="white">
                                <use xlink:href="#path-1"></use>
                            </mask>
                            <g id="Clip-16"></g>
                            <path d="M22.2806529,0.0215085511 C10.3774163,0.227953874 0.537713776,8.53337976 0.104601415,19.9546042 C-0.322076765,31.3735491 8.58687538,40.9836433 20.0066292,41.4106891 C25.8176146,41.6333118 31.1616623,39.4306156 35.0681299,35.7085332 C38.8275305,32.120098 38.6731101,25.8124673 35.683973,28.6745752 C32.3951869,31.8189783 27.7993427,33.699414 22.7843574,33.5176024 C13.2268397,33.1743847 5.76870369,25.4549106 6.12901788,16.279951 C6.45991867,7.76587377 14.899727,1.02689544 22.46081,0.619152136 L22.6575121,0.0194863796 C22.5325052,0.0194863796 22.4074982,0.0194863796 22.2806529,0.0215085511 Z" id="Fill-15" fill="url(#linearGradient-3)" mask="url(#mask-2)"></path>
                        </g>
                        <path d="M23.9406718,0.623747981 C33.5459863,1.20411119 41.4526767,9.38857445 13.5025904,17.560537 C20.6224723,18.960615 25.8819564,22.2988524 25.8819564,22.2988524 C49.8115982,10.1321821 36.2005459,-0.0226115537 22.6556738,0.0193025458 L22.46081,0.618968303 C22.9589995,0.593415409 23.451674,0.593415409 23.9406718,0.623747981" id="Fill-18" fill="#FFCC00"></path>
                        <g id="Group-21" transform="translate(10.110857, -0.000000)">
                            <mask id="mask-5" fill="white">
                                <use xlink:href="#path-4"></use>
                            </mask>
                            <g id="Clip-20"></g>
                            <path d="M12.5466548,0.0194863796 C12.4216478,0.0194863796 12.2966409,0.0194863796 12.1697956,0.0215085511 C7.75594674,0.0972480642 3.63623196,1.28959389 0.169127068,3.33253858 L2.05709988,4.9010083 C5.06462036,2.39664086 8.80563757,0.812361428 12.3499526,0.619152136 C12.8481422,0.593599242 13.3408167,0.593599242 13.8298145,0.623931814 C18.5396357,0.90997716 22.8413459,3.019102 22.7071472,6.06338923 L25.0583811,3.29264665 C21.9313687,1.2199209 17.2766977,0.0193025458 12.623865,0.0193025458 C12.5981282,0.0193025458 12.5723915,0.0193025458 12.5466548,0.0194863796 Z" id="Fill-19" fill="url(#linearGradient-6)" mask="url(#mask-5)"></path>
                        </g>
                        <g id="Group-24" transform="translate(13.236031, 13.236031)">
                            <mask id="mask-8" fill="white">
                                <use xlink:href="#path-7"></use>
                            </mask>
                            <g id="Clip-23"></g>
                            <path d="M0.079048521,4.32468943 C6.4029302,5.11407164 19.7290402,12.2587711 20.9478581,19.0633046 C20.9405047,18.9539235 20.5507771,16.2468609 20.5507771,16.2468609 C19.5838115,9.82389282 20.9349897,3.59192803 30.768258,3.08289232 C26.0547602,0.817141106 21.8615119,0.0172803744 18.1131413,0.0169127068 C10.5152916,0.0165450393 4.73004289,3.29761016 0.079048521,4.32468943 Z" id="Fill-22" fill="url(#linearGradient-9)" mask="url(#mask-8)"></path>
                        </g>
                        <g id="Group-27" transform="translate(23.346889, 18.199543)">
                            <mask id="mask-11" fill="white">
                                <use xlink:href="#path-10"></use>
                            </mask>
                            <g id="Clip-26"></g>
                            <path d="M10.7009637,13.5082157 C10.816779,13.8361751 11.4271071,16.3694045 10.0189404,19.0099928 C8.27619631,21.982401 5.45250961,24.2203933 0.00367667539,25.6789304 C13.9658515,26.3195911 29.9428444,12.9110133 15.568882,0.0102946911 C9.49685254,2.5133753 10.1163723,9.44758509 10.7009637,13.5082157 Z" id="Fill-25" fill="url(#linearGradient-12)" mask="url(#mask-11)"></path>
                        </g>
                    </g>
                </g>
            </g>
        </g>
    </g>
</svg>