<?xml version="1.0" encoding="UTF-8"?>
<svg width="160px" height="23px" viewBox="0 0 160 23" version="1.1" xmlns="http://www.w3.org/2000/svg" xmlns:xlink="http://www.w3.org/1999/xlink">
    <!-- Generator: Sketch 52.5 (67469) - http://www.bohemiancoding.com/sketch -->
    <title>Engine</title>
    <desc>Created with Sketch.</desc>
    <g id="Private-CEO" stroke="none" stroke-width="1" fill="none" fill-rule="evenodd">
        <g id="2-Loading-in-Empresas" transform="translate(-1240.000000, -893.000000)" fill="#FFFFFF">
            <g id="Footer" transform="translate(0.000000, 784.000000)">
                <g id="Engine" transform="translate(1240.000000, 109.000000)">
                    <path d="M156.63294,21.9025982 L155.160664,21.9025982 L155.160664,12.9049891 L151.960348,12.9049891 L151.960348,11.5693382 L159.850744,11.5693382 L159.850744,12.9049891 L156.63294,12.9049891 L156.63294,21.9025982 Z M148.074719,21.9025982 L146.698627,21.9025982 L146.670209,21.859971 L140.959263,14.0493643 L140.959263,21.9025982 L139.485893,21.9025982 L139.485893,11.5693382 L140.935217,11.5693382 L140.968007,11.6130584 L146.603536,19.2597145 L146.603536,11.5693382 L148.074719,11.5693382 L148.074719,21.9025982 Z M134.963043,21.9025982 L128.117559,21.9025982 L128.117559,11.5693382 L134.963043,11.5693382 L134.963043,12.9049891 L129.589835,12.9049891 L129.589835,15.9566563 L134.855928,15.9566563 L134.855928,17.2901212 L129.589835,17.2901212 L129.589835,20.5680403 L134.963043,20.5680403 L134.963043,21.9025982 Z M123.231831,21.9025982 L121.759554,21.9025982 L121.759554,14.0012721 L118.490379,21.9025982 L117.833484,21.9025982 L117.807252,21.8370179 L114.581797,14.0023651 L114.581797,21.9025982 L113.107335,21.9025982 L113.107335,11.5693382 L115.09223,11.5693382 L115.119555,11.6349184 L118.161385,19.0170676 L121.249121,11.5693382 L123.231831,11.5693382 L123.231831,21.9025982 Z M106.203375,21.9025982 L104.731098,21.9025982 L104.731098,17.5513492 L100.646542,11.5693382 L102.377861,11.5693382 L105.459039,16.1894662 L108.545682,11.5693382 L110.274268,11.5693382 L106.203375,17.5513492 L106.203375,21.9025982 Z M92.5503336,18.3225728 L96.5343332,18.3225728 L94.5494379,13.2696152 L92.5503336,18.3225728 Z M99.5619544,21.902161 L97.8929372,21.902161 L96.9955809,19.6582237 L92.103295,19.6582237 L91.2081247,21.902161 L89.5369215,21.902161 L93.6881508,11.568901 L95.39433,11.568901 L99.5619544,21.902161 Z M81.6363606,16.547425 L84.185246,16.547425 C85.3274352,16.547425 86.098003,15.8151123 86.098003,14.7264803 C86.098003,13.6367553 85.3274352,12.9044426 84.185246,12.9044426 L81.6363606,12.9044426 L81.6363606,16.547425 Z M81.6363606,21.9020517 L80.1618982,21.9020517 L80.1618982,11.5687917 L84.3360805,11.5687917 C86.2652326,11.5687917 87.6129066,12.8672805 87.6129066,14.7264803 C87.6129066,16.5845871 86.2652326,17.8819829 84.3360805,17.8819829 L81.6363606,17.8819829 L81.6363606,21.9020517 Z M70.8322345,12.7379781 C68.6713656,12.7379781 67.2209492,14.349066 67.2209492,16.7438378 C67.2209492,19.1025405 68.7052487,20.7507905 70.8322345,20.7507905 C72.9570343,20.7507905 74.4435198,19.1025405 74.4435198,16.7438378 C74.4435198,14.3851351 72.9570343,12.7379781 70.8322345,12.7379781 M70.8322345,22.0853484 C67.8592636,22.0853484 65.7016737,19.8392252 65.7016737,16.7438378 C65.7016737,13.6506364 67.8592636,11.4023272 70.8322345,11.4023272 C73.8041124,11.4023272 75.9617024,13.6506364 75.9617024,16.7438378 C75.9617024,19.8392252 73.8041124,22.0853484 70.8322345,22.0853484 M59.3834547,21.9025982 L57.6761824,21.9025982 L57.6499503,21.8370179 L53.5249531,11.5693382 L55.1950633,11.5693382 L55.2223884,11.6371045 L58.5363765,20.1253736 L61.8787828,11.5693382 L63.551079,11.5693382 L59.3834547,21.9025982 Z M46.2140679,12.7379781 C44.0531989,12.7379781 42.6016896,14.349066 42.6016896,16.7438378 C42.6016896,19.1025405 44.0881751,20.7507905 46.2140679,20.7507905 C48.3399607,20.7507905 49.8242601,19.1025405 49.8242601,16.7438378 C49.8242601,14.3851351 48.3399607,12.7379781 46.2140679,12.7379781 M46.2140679,22.0853484 C43.24219,22.0853484 41.086786,19.8392252 41.086786,16.7438378 C41.086786,13.6506364 43.24219,11.4023272 46.2140679,11.4023272 C49.1848528,11.4023272 51.3435357,13.6506364 51.3435357,16.7438378 C51.3435357,19.8392252 49.1848528,22.0853484 46.2140679,22.0853484 M37.2138356,21.9025982 L35.8410226,21.9025982 L35.8082324,21.859971 L30.0983795,14.0493643 L30.0983795,21.9025982 L28.6261031,21.9025982 L28.6261031,11.5693382 L30.0754264,11.5693382 L30.1071235,11.6130584 L35.7426522,19.2597145 L35.7426522,11.5693382 L37.2138356,11.5693382 L37.2138356,21.9025982 Z M67.9636455,7.85257805 C68.1057367,7.85257805 68.2218672,7.82661946 68.3120405,7.77470151 C68.4022138,7.72278356 68.4746246,7.63397787 68.529275,7.50828178 L68.7260158,7.05741763 L67.1029048,3.0488254 L68.0210282,3.0488254 L69.1768799,6.0163313 L70.3327317,3.0488254 L71.2590526,3.0488254 L69.3490281,7.72141757 C69.2178669,8.04385536 69.0402555,8.27201767 68.8161886,8.40591133 C68.5921217,8.53980499 68.3161409,8.6094833 67.9882381,8.61494835 C67.9171924,8.61494835 67.8338517,8.60948338 67.7382134,8.59855329 C67.6425751,8.58762319 67.5646993,8.57396078 67.5045838,8.55756564 L67.6357443,7.78699781 C67.7341151,7.83071819 67.8434144,7.85257805 67.9636455,7.85257805 Z M64.2042582,6.1925782 C64.3982673,6.29368158 64.5936399,6.34423251 64.7903816,6.34423251 C65.1292145,6.34423251 65.4010965,6.22263703 65.6060358,5.97944242 C65.8109751,5.73624781 65.9134432,5.42064605 65.9134432,5.03262769 C65.9134432,4.64460932 65.8109751,4.32764133 65.6060358,4.08171419 C65.4010965,3.83578706 65.1292145,3.71282534 64.7903816,3.71282534 C64.5936399,3.71282534 64.3996336,3.76474251 64.2083569,3.86857841 C64.0170803,3.97241431 63.8722587,4.100841 63.7738878,4.25386233 L63.7738878,5.81959058 C63.8667936,5.96714686 64.010249,6.09147482 64.2042582,6.1925782 Z M62.9131472,1.54047986 L63.7738878,1.54047986 L63.7738878,3.59805992 C63.9269092,3.39038812 64.1140842,3.23053788 64.3354186,3.11850441 C64.5567531,3.00647093 64.7931128,2.95045504 65.044505,2.95045504 C65.3833379,2.95045504 65.6852773,3.035162 65.9503321,3.20457847 C66.2153869,3.37399494 66.4230556,3.61581966 66.5733444,3.93005989 C66.7236332,4.24430011 66.7987764,4.61181904 66.7987764,5.03262769 C66.7987764,5.45890139 66.7236332,5.82778655 66.5733444,6.13929425 C66.4230556,6.45080196 66.2153869,6.68989419 65.9503321,6.85657814 C65.6852773,7.02326208 65.3833379,7.10660281 65.044505,7.10660281 C64.7931128,7.10660281 64.5567531,7.05058691 64.3354186,6.93855344 C64.1140842,6.82651997 63.9269092,6.66940221 63.7738878,6.46719546 L63.7738878,7.00823245 L62.9131472,7.00823245 L62.9131472,1.54047986 Z M58.8307772,4.2456648 C58.7324063,4.09264347 58.5875847,3.96558302 58.3963081,3.86447965 C58.2050314,3.76337627 58.0082927,3.71282534 57.8060859,3.71282534 C57.467253,3.71282534 57.1967372,3.83578706 56.9945304,4.08171419 C56.7923237,4.32764133 56.6912218,4.64460932 56.6912218,5.03262769 C56.6912218,5.42064605 56.7923237,5.73624781 56.9945304,5.97944242 C57.1967372,6.22263703 57.467253,6.34423251 57.8060859,6.34423251 C58.0082927,6.34423251 58.2050314,6.29504782 58.3963081,6.19667696 C58.5875847,6.09830611 58.7324063,5.97261191 58.8307772,5.81959058 L58.8307772,4.2456648 Z M58.8307772,6.46719546 C58.6777558,6.66940221 58.4905808,6.82651997 58.2692464,6.93855344 C58.0479119,7.05058691 57.8115522,7.10660281 57.56016,7.10660281 C57.2213271,7.10660281 56.9180215,7.02326208 56.6502342,6.85657814 C56.3824468,6.68989419 56.1734119,6.45080196 56.0231231,6.13929425 C55.8728343,5.82778655 55.797691,5.45890139 55.797691,5.03262769 C55.797691,4.61181904 55.8728343,4.24430011 56.0231231,3.93005989 C56.1734119,3.61581966 56.3824468,3.37399494 56.6502342,3.20457847 C56.9180215,3.035162 57.2213271,2.95045504 57.56016,2.95045504 C57.8060871,2.95045504 58.0397144,3.00647093 58.2610488,3.11850441 C58.4823832,3.23053788 58.6722908,3.39038812 58.8307772,3.59805992 L58.8307772,1.54047986 L59.6915178,1.54047986 L59.6915178,7.00823245 L58.8307772,7.00823245 L58.8307772,6.46719546 Z M45.0318747,3.97104754 C44.8405981,4.18145186 44.7340312,4.42600907 44.7121711,4.70472648 L46.9418992,4.70472648 C46.9364342,4.53531001 46.8927145,4.36999481 46.8107388,4.20877591 C46.7287631,4.04755701 46.6058013,3.9150316 46.4418499,3.8111957 C46.2778985,3.7073598 46.0729623,3.65544263 45.8270352,3.65544263 C45.4882022,3.65544263 45.2231514,3.76064321 45.0318747,3.97104754 Z M44.0768625,3.97924507 C44.2490115,3.66500484 44.4881037,3.41498267 44.7941464,3.22917106 C45.100189,3.04335945 45.4444818,2.95045504 45.8270352,2.95045504 C46.2150535,2.95045504 46.5566139,3.04335945 46.8517264,3.22917106 C47.146839,3.41498267 47.3750013,3.67046981 47.5362202,3.99564013 C47.6974391,4.32081045 47.7780473,4.69106186 47.7780473,5.10640546 L47.7780473,5.31134371 L44.7203686,5.31134371 C44.7531589,5.62285141 44.8815856,5.88243727 45.1056525,6.09010907 C45.3297194,6.29778087 45.6220951,6.40161522 45.9827882,6.40161522 C46.184995,6.40161522 46.3885649,6.36336046 46.5935042,6.2868498 C46.7984435,6.21033913 46.9692237,6.10377231 47.1058498,5.96714612 L47.4993313,6.5327757 C47.3025896,6.71858731 47.0648636,6.86067641 46.7861462,6.95904726 C46.5074288,7.05741812 46.2095881,7.10660281 45.8926154,7.10660281 C45.499132,7.10660281 45.1452755,7.0205296 44.8310352,6.84838061 C44.516795,6.67623162 44.2695053,6.43167441 44.0891588,6.11470166 C43.9088122,5.79772891 43.8186403,5.43430871 43.8186403,5.02443016 C43.8186403,4.64187684 43.9047135,4.29348529 44.0768625,3.97924507 Z M48.6314102,3.0488254 L49.4921509,3.0488254 L49.4921509,3.63085004 C49.6451722,3.43410833 49.836446,3.27289185 50.065978,3.14719576 C50.29551,3.02149967 50.533236,2.95865257 50.7791631,2.95865257 L50.7791631,3.8111957 C50.7026524,3.79480056 50.6124805,3.78660311 50.5086446,3.78660311 C50.328298,3.78660311 50.135658,3.83988652 49.9307187,3.94645495 C49.7257794,4.05302337 49.5795916,4.17461885 49.4921509,4.31124504 L49.4921509,7.00823245 L48.6314102,7.00823245 L48.6314102,3.0488254 Z M52.4440815,3.97104754 C52.2528048,4.18145186 52.146238,4.42600907 52.1243778,4.70472648 L54.354106,4.70472648 C54.3486409,4.53531001 54.3049212,4.36999481 54.2229455,4.20877591 C54.1409698,4.04755701 54.0180081,3.9150316 53.8540566,3.8111957 C53.6901052,3.7073598 53.485169,3.65544263 53.2392419,3.65544263 C52.9004089,3.65544263 52.6353581,3.76064321 52.4440815,3.97104754 Z M51.4890692,3.97924507 C51.6612182,3.66500484 51.9003104,3.41498267 52.2063531,3.22917106 C52.5123957,3.04335945 52.8566886,2.95045504 53.2392419,2.95045504 C53.6272602,2.95045504 53.9688206,3.04335945 54.2639331,3.22917106 C54.5590457,3.41498267 54.787208,3.67046981 54.9484269,3.99564013 C55.1096458,4.32081045 55.190254,4.69106186 55.190254,5.10640546 L55.190254,5.31134371 L52.1325753,5.31134371 C52.1653656,5.62285141 52.2937923,5.88243727 52.5178592,6.09010907 C52.7419262,6.29778087 53.0343018,6.40161522 53.394995,6.40161522 C53.5972017,6.40161522 53.8007717,6.36336046 54.0057109,6.2868498 C54.2106502,6.21033913 54.3814304,6.10377231 54.5180566,5.96714612 L54.911538,6.5327757 C54.7147963,6.71858731 54.4770703,6.86067641 54.1983529,6.95904726 C53.9196355,7.05741812 53.6217949,7.10660281 53.3048221,7.10660281 C52.9113387,7.10660281 52.5574822,7.0205296 52.243242,6.84838061 C51.9290017,6.67623162 51.6817121,6.43167441 51.5013655,6.11470166 C51.3210189,5.79772891 51.230847,5.43430871 51.230847,5.02443016 C51.230847,4.64187684 51.3169202,4.29348529 51.4890692,3.97924507 Z M40.4158455,4.10630678 L39.4977221,7.00823245 L38.5959938,7.00823245 L37.3663643,3.0488254 L38.2598951,3.0488254 L39.0960432,5.92615847 L40.0387591,3.0488254 L40.7929319,3.0488254 L41.7356479,5.92615847 L42.5717959,3.0488254 L43.4653267,3.0488254 L42.2356972,7.00823245 L41.3339689,7.00823245 L40.4158455,4.10630678 Z M35.8121126,5.96304736 C36.0170519,5.70892265 36.11952,5.39605338 36.11952,5.02443016 C36.11952,4.65827198 36.0170519,4.34813519 35.8121126,4.09401049 C35.6071733,3.83988579 35.3270939,3.71282534 34.9718658,3.71282534 C34.6221027,3.71282534 34.3447557,3.83988579 34.1398165,4.09401049 C33.9348772,4.34813519 33.8324091,4.65827198 33.8324091,5.02443016 C33.8324091,5.39605338 33.9348772,5.70892265 34.1398165,5.96304736 C34.3447557,6.21717206 34.6221027,6.34423251 34.9718658,6.34423251 C35.3270939,6.34423251 35.6071733,6.21717206 35.8121126,5.96304736 Z M33.9020881,6.82788678 C33.5933129,6.64207517 33.3555869,6.39068676 33.188903,6.07371401 C33.022219,5.75674126 32.9388783,5.40698348 32.9388783,5.02443016 C32.9388783,4.64734189 33.022219,4.30031658 33.188903,3.98334383 C33.3555869,3.66637108 33.5933129,3.41498267 33.9020881,3.22917106 C34.2108633,3.04335945 34.5674523,2.95045504 34.9718658,2.95045504 C35.3817443,2.95045504 35.7410658,3.04335945 36.049841,3.22917106 C36.3586162,3.41498267 36.5963422,3.66500484 36.7630261,3.97924507 C36.92971,4.29348529 37.0130508,4.64187684 37.0130508,5.02443016 C37.0130508,5.40698348 36.92971,5.75674126 36.7630261,6.07371401 C36.5963422,6.39068676 36.3586162,6.64207517 36.049841,6.82788678 C35.7410658,7.01369839 35.3817443,7.10660281 34.9718658,7.10660281 C34.5674523,7.10660281 34.2108633,7.01369839 33.9020881,6.82788678 Z M31.2775122,2.62255383 C31.1026307,2.46406746 30.8785671,2.38482546 30.6053147,2.38482546 L29.2937099,2.38482546 L29.2937099,4.12270185 L30.6053147,4.12270185 C30.8785671,4.12270185 31.1026307,4.04345985 31.2775122,3.88497347 C31.4523937,3.7264871 31.5398332,3.51608593 31.5398332,3.25376365 C31.5398332,2.99144138 31.4523937,2.78104021 31.2775122,2.62255383 Z M28.3345989,1.54047986 L30.7364752,1.54047986 C31.1080984,1.54047986 31.4277989,1.61698938 31.6955862,1.7700107 C31.9633736,1.92303203 32.1683098,2.13070072 32.310401,2.39302299 C32.4524922,2.65534527 32.5235368,2.94225595 32.5235368,3.25376365 C32.5235368,3.56527135 32.4524922,3.85218204 32.310401,4.11450432 C32.1683098,4.37682659 31.9620073,4.58449528 31.6914875,4.7375166 C31.4209676,4.89053793 31.1026334,4.96704745 30.7364752,4.96704745 L29.2937099,4.96704745 L29.2937099,7.00823245 L28.3345989,7.00823245 L28.3345989,1.54047986 Z" id="Lettering"></path>
                    <path d="M0.000109300401,8.736709 L22.2022999,8.736709 L22.2022999,4.68712912 L0.000109300401,4.68712912 L0.000109300401,8.736709 Z M-7.10542736e-15,0.444852634 L-7.10542736e-15,3.35005731 L22.2043766,3.35005731 L22.2043766,0.444852634 C22.2043766,0.196740723 22.0185659,-7.10542736e-15 21.7923141,-7.10542736e-15 L0.412062514,-7.10542736e-15 C0.184717679,-7.10542736e-15 -7.10542736e-15,0.197833727 -7.10542736e-15,0.444852634 M0.000109300401,14.9712039 L22.2022999,14.9712039 L22.2022999,10.0712669 L0.000109300401,10.0712669 L0.000109300401,14.9712039 Z M-7.10542736e-15,16.308385 L-7.10542736e-15,21.6477096 C-7.10542736e-15,21.8925425 0.184717679,22.0914693 0.412062514,22.0914693 L21.7923141,22.0914693 C22.0185659,22.0914693 22.2043766,21.8925425 22.2043766,21.6477096 L22.2043766,16.308385 L-7.10542736e-15,16.308385 Z" id="Emblem"></path>
                </g>
            </g>
        </g>
    </g>
</svg>