<?xml version="1.0" encoding="UTF-8"?>
<svg width="118px" height="116px" viewBox="0 0 118 116" version="1.1" xmlns="http://www.w3.org/2000/svg" xmlns:xlink="http://www.w3.org/1999/xlink">
    <!-- Generator: Sketch 58 (84663) - https://sketch.com -->
    <title>Group</title>
    <desc>Created with Sketch.</desc>
    <defs>
        <path d="M58.7399031,0.0567043619 C27.358643,0.600969305 1.41760905,22.4970921 0.275767367,52.6075929 C-0.84911147,82.712084 22.638126,108.047787 52.7447496,109.173635 C68.0646204,109.760549 82.1534733,103.953441 92.4523425,94.1406785 C102.363489,84.6802585 101.956381,68.0510501 94.0759289,75.5966074 C85.4054927,83.8863974 73.2891761,88.8439095 60.0678514,88.364588 C34.8707593,87.4597415 15.2084006,67.1084006 16.1583199,42.9198708 C17.0306947,20.4736672 39.2810985,2.70726979 59.2148627,1.63231018 L59.733441,0.0513731826 C59.4038772,0.0513731826 59.0743134,0.0513731826 58.7399031,0.0567043619 Z" id="path-1"></path>
        <linearGradient x1="32.1480078%" y1="44.3971956%" x2="81.0062973%" y2="57.3653944%" id="linearGradient-3">
            <stop stop-color="#E30513" offset="0%"></stop>
            <stop stop-color="#890F01" offset="100%"></stop>
        </linearGradient>
        <path d="M33.0775444,0.0513731826 C32.7479806,0.0513731826 32.4184168,0.0513731826 32.0840065,0.0567043619 C20.447496,0.25638126 9.58642973,3.39983845 0.445880452,8.78578352 L5.42326333,12.9208401 C13.3521809,6.3184168 23.2148627,2.14168013 32.5589661,1.63231018 C33.8723748,1.56494346 35.1712439,1.56494346 36.46042,1.64491115 C48.8772213,2.39903069 60.2180937,7.95945073 59.8642973,15.9852989 L66.0630048,8.68061389 C57.819063,3.21615509 45.5476575,0.0508885299 33.2810985,0.0508885299 C33.2132472,0.0508885299 33.1453958,0.0508885299 33.0775444,0.0513731826 Z" id="path-4"></path>
        <linearGradient x1="10.3257257%" y1="49.9969585%" x2="88.6542581%" y2="49.9969585%" id="linearGradient-6">
            <stop stop-color="#E30513" offset="0%"></stop>
            <stop stop-color="#FFCC00" offset="100%"></stop>
        </linearGradient>
        <path d="M0.208400646,11.401454 C16.8804523,13.4825525 52.0129241,32.3185784 55.2261712,50.2578029 C55.2067851,49.9694346 54.1793215,42.8326333 54.1793215,42.8326333 C51.6300485,25.8993538 55.1922456,9.46962843 81.1163166,8.1276252 C68.6898223,2.1542811 57.634895,0.0455573506 47.7528271,0.0445880452 C27.7221325,0.0436187399 12.4701131,8.69369952 0.208400646,11.401454 Z" id="path-7"></path>
        <linearGradient x1="50%" y1="-0.782768665%" x2="50%" y2="35.65796%" id="linearGradient-9">
            <stop stop-color="#E39A00" offset="0%"></stop>
            <stop stop-color="#FFCC00" offset="100%"></stop>
        </linearGradient>
        <path d="M28.2116317,35.6125687 C28.5169628,36.477189 30.1260097,43.1557027 26.4135703,50.1172536 C21.819063,57.9536026 14.3747981,63.8537641 0.00969305331,67.6989984 C36.819063,69.3880129 78.9402262,34.038126 41.0452342,0.0271405493 C25.0371567,6.62617124 26.6704362,24.9072698 28.2116317,35.6125687 Z" id="path-10"></path>
        <linearGradient x1="31.6375806%" y1="25.490131%" x2="50%" y2="50%" id="linearGradient-12">
            <stop stop-color="#E49B00" offset="0%"></stop>
            <stop stop-color="#FFCC00" offset="100%"></stop>
        </linearGradient>
    </defs>
    <g id="Logos" stroke="none" stroke-width="1" fill="none" fill-rule="evenodd">
        <g id="logo-bancobogota" transform="translate(-482.000000, -2.000000)">
            <g id="Emblem" transform="translate(482.229402, 2.231664)">
                <g id="Group" transform="translate(0.000000, -0.000000)">
                    <g id="Group-17" transform="translate(0.000000, 0.000000)">
                        <mask id="mask-2" fill="white">
                            <use xlink:href="#path-1"></use>
                        </mask>
                        <g id="Clip-16"></g>
                        <path d="M58.7399031,0.0567043619 C27.358643,0.600969305 1.41760905,22.4970921 0.275767367,52.6075929 C-0.84911147,82.712084 22.638126,108.047787 52.7447496,109.173635 C68.0646204,109.760549 82.1534733,103.953441 92.4523425,94.1406785 C102.363489,84.6802585 101.956381,68.0510501 94.0759289,75.5966074 C85.4054927,83.8863974 73.2891761,88.8439095 60.0678514,88.364588 C34.8707593,87.4597415 15.2084006,67.1084006 16.1583199,42.9198708 C17.0306947,20.4736672 39.2810985,2.70726979 59.2148627,1.63231018 L59.733441,0.0513731826 C59.4038772,0.0513731826 59.0743134,0.0513731826 58.7399031,0.0567043619 Z" id="Fill-15" fill="url(#linearGradient-3)" mask="url(#mask-2)"></path>
                    </g>
                    <path d="M63.1163166,1.64442649 C88.4394184,3.17447496 109.28433,24.7516963 35.5977383,46.2959612 C54.368336,49.9870759 68.2342488,58.7878837 68.2342488,58.7878837 C131.321486,26.7121163 95.4378029,-0.0596122779 59.7285945,0.0505476778 L59.2148627,1.63182553 C60.5282714,1.5644588 61.8271405,1.5644588 63.1163166,1.64442649" id="Fill-18" fill="#FFCC00"></path>
                    <g id="Group-21" transform="translate(26.655897, 0.000000)">
                        <mask id="mask-5" fill="white">
                            <use xlink:href="#path-4"></use>
                        </mask>
                        <g id="Clip-20"></g>
                        <path d="M33.0775444,0.0513731826 C32.7479806,0.0513731826 32.4184168,0.0513731826 32.0840065,0.0567043619 C20.447496,0.25638126 9.58642973,3.39983845 0.445880452,8.78578352 L5.42326333,12.9208401 C13.3521809,6.3184168 23.2148627,2.14168013 32.5589661,1.63231018 C33.8723748,1.56494346 35.1712439,1.56494346 36.46042,1.64491115 C48.8772213,2.39903069 60.2180937,7.95945073 59.8642973,15.9852989 L66.0630048,8.68061389 C57.819063,3.21615509 45.5476575,0.0508885299 33.2810985,0.0508885299 C33.2132472,0.0508885299 33.1453958,0.0508885299 33.0775444,0.0513731826 Z" id="Fill-19" fill="url(#linearGradient-6)" mask="url(#mask-5)"></path>
                    </g>
                    <g id="Group-24" transform="translate(34.894992, 34.894992)">
                        <mask id="mask-8" fill="white">
                            <use xlink:href="#path-7"></use>
                        </mask>
                        <g id="Clip-23"></g>
                        <path d="M0.208400646,11.401454 C16.8804523,13.4825525 52.0129241,32.3185784 55.2261712,50.2578029 C55.2067851,49.9694346 54.1793215,42.8326333 54.1793215,42.8326333 C51.6300485,25.8993538 55.1922456,9.46962843 81.1163166,8.1276252 C68.6898223,2.1542811 57.634895,0.0455573506 47.7528271,0.0445880452 C27.7221325,0.0436187399 12.4701131,8.69369952 0.208400646,11.401454 Z" id="Fill-22" fill="url(#linearGradient-9)" mask="url(#mask-8)"></path>
                    </g>
                    <g id="Group-27" transform="translate(61.550889, 47.980614)">
                        <mask id="mask-11" fill="white">
                            <use xlink:href="#path-10"></use>
                        </mask>
                        <g id="Clip-26"></g>
                        <path d="M28.2116317,35.6125687 C28.5169628,36.477189 30.1260097,43.1557027 26.4135703,50.1172536 C21.819063,57.9536026 14.3747981,63.8537641 0.00969305331,67.6989984 C36.819063,69.3880129 78.9402262,34.038126 41.0452342,0.0271405493 C25.0371567,6.62617124 26.6704362,24.9072698 28.2116317,35.6125687 Z" id="Fill-25" fill="url(#linearGradient-12)" mask="url(#mask-11)"></path>
                    </g>
                </g>
            </g>
        </g>
    </g>
</svg>