<?xml version="1.0" encoding="UTF-8"?>
<svg width="150px" height="200px" viewBox="0 0 150 200" version="1.1" xmlns="http://www.w3.org/2000/svg" xmlns:xlink="http://www.w3.org/1999/xlink">
    <!-- Generator: Sketch 52.5 (67469) - http://www.bohemiancoding.com/sketch -->
    <title>logo-bancobogota-compact</title>
    <desc>Created with Sketch.</desc>
    <defs>
        <path d="M54.7575368,0.0527937162 C25.5038197,0.559523146 1.32149996,20.9455685 0.257071274,48.979483 C-0.791544591,77.0078024 21.1033378,100.596215 49.1688344,101.644419 C63.4500698,102.190856 76.5837463,96.7842382 86.1843871,87.6482179 C95.4235919,78.8402407 95.0440842,63.3578742 87.6978998,70.3830483 C79.6152898,78.1011286 68.3204184,82.7167434 55.9954547,82.2704785 C32.50664,81.4280352 14.1773226,62.4802351 15.0628406,39.9598797 C15.8760713,19.0616902 36.6179732,2.52056153 55.2002957,1.51973706 L55.6837162,0.0478302044 C55.3764957,0.0478302044 55.0692752,0.0478302044 54.7575368,0.0527937162 Z" id="path-1"></path>
        <linearGradient x1="28.6013088%" y1="44.3971956%" x2="87.1663943%" y2="57.3653944%" id="linearGradient-3">
            <stop stop-color="#E30513" offset="0%"></stop>
            <stop stop-color="#890F01" offset="100%"></stop>
        </linearGradient>
        <path d="M30.834999,0.0478302044 C30.5277785,0.0478302044 30.220558,0.0478302044 29.9088196,0.0527937162 C19.061225,0.238699794 8.93650229,3.16536683 0.415651269,8.17986742 L5.05558446,12.0297476 C12.4469483,5.88266392 21.6409737,1.99397805 30.3515785,1.51973706 C31.5759426,1.45701632 32.7867528,1.45701632 33.9885271,1.531469 C45.5635114,2.2335803 56.1355111,7.41052309 55.8057008,14.8828645 L61.5841571,8.08195087 C53.8991265,2.99435129 42.4596807,0.0473789761 31.0247529,0.0473789761 C30.9615016,0.0473789761 30.8982503,0.0473789761 30.834999,0.0478302044 Z" id="path-4"></path>
        <linearGradient x1="10.3257257%" y1="49.9969585%" x2="88.6542581%" y2="49.9969585%" id="linearGradient-6">
            <stop stop-color="#E30513" offset="0%"></stop>
            <stop stop-color="#FFCC00" offset="100%"></stop>
        </linearGradient>
        <path d="M0.194271789,10.6151468 C15.7360149,12.5527213 48.4866241,30.0897109 51.482024,46.7917475 C51.4639522,46.5232667 50.5061471,39.8786586 50.5061471,39.8786586 C48.1297062,24.1131915 51.4503984,8.81655061 75.6169053,7.56709933 C64.0328852,2.00570999 53.7274445,0.0424154643 44.5153473,0.0415130076 C25.8426659,0.0406105509 11.6246817,8.09413403 0.194271789,10.6151468 Z" id="path-7"></path>
        <linearGradient x1="50%" y1="-0.782768665%" x2="50%" y2="35.65796%" id="linearGradient-9">
            <stop stop-color="#E39A00" offset="0%"></stop>
            <stop stop-color="#FFCC00" offset="100%"></stop>
        </linearGradient>
        <path d="M26.2989787,33.1565294 C26.5836094,33.9615208 28.0835684,40.1794474 24.6228197,46.6608913 C20.3398045,53.9568024 13.4002355,59.4500563 0.00903589716,63.0301019 C34.3228553,64.6026327 73.5883464,31.690669 38.2625065,0.0252687873 C23.3397224,6.16919392 24.862271,23.189527 26.2989787,33.1565294 Z" id="path-10"></path>
        <linearGradient x1="23.063681%" y1="25.490131%" x2="50%" y2="50%" id="linearGradient-12">
            <stop stop-color="#E49B00" offset="0%"></stop>
            <stop stop-color="#FFCC00" offset="100%"></stop>
        </linearGradient>
    </defs>
    <g id="logo-bancobogota-compact" stroke="none" stroke-width="1" fill="none" fill-rule="evenodd">
        <path d="M31.0338462,187.582983 C31.9986813,186.859906 32.5493878,185.603391 32.5493878,184.128038 C32.5493878,182.753155 32.0843956,181.613752 31.2457771,180.923014 C30.2426374,180.119874 28.6730926,180.05708 26.7214443,180.05708 L24.9556672,180.05708 C24.9556672,180.05708 24.8508006,180.039184 24.8259969,180.031648 L24.8259969,188.569482 L25.7873783,188.569482 C28.0153218,188.569482 29.8250549,188.492873 31.0338462,187.582983 Z M24.8259969,169.32427 L24.8259969,178.546248 C24.8259969,178.546248 25.8288226,176.850173 25.8288226,176.870581 L28.0090424,176.637928 C31.0561381,176.334003 31.846719,175.313909 31.846719,172.738399 C31.846719,171.616264 31.4925589,170.694443 30.8404396,170.142794 C29.8752904,169.314223 28.3098273,169.319246 26.3161068,169.32427 L24.8259969,169.32427 Z M33.7613815,178.171052 C36.6819466,179.09978 38.1908948,181.142166 38.1908948,184.496641 C38.1908948,187.380157 36.7007849,189.718619 34.1186813,190.915479 C32.4102983,191.69978 30.8347881,191.932433 27.0718367,191.932433 L19.4090424,191.932433 L19.4090424,169.17168 C18.7123391,169.066185 16.3870644,168.728352 16.3870644,168.728352 L16.3870644,165.967975 L26.0150078,165.967975 C30.5657143,165.967975 32.0652433,166.127786 33.6659341,166.788069 C35.9475667,167.706436 37.2483516,169.826939 37.2483516,172.585495 C37.2483516,175.422543 36.1309262,177.19146 33.7613815,178.171052 Z M90.4452119,188.94449 C92.3874411,188.94449 94.3679749,188.18562 94.3679749,182.579969 C94.3679749,176.933501 92.1500785,176.278242 90.4860283,176.278242 C88.5400314,176.278242 86.5686028,177.035228 86.5686028,182.613878 C86.5686028,188.286719 88.7770801,188.94449 90.4452119,188.94449 Z M90.4860283,172.882009 C96.3048666,172.882009 99.7723705,176.508069 99.7723705,182.579969 C99.7723705,188.572747 96.2125589,192.297394 90.4860283,192.297394 C84.6417582,192.297394 81.1579278,188.677928 81.1579278,182.613878 C81.1579278,176.612622 84.7302983,172.882009 90.4860283,172.882009 Z M112.131868,188.352025 L112.913344,190.830832 L112.406593,191.034286 C110.346939,191.849356 108.46405,192.256892 106.824804,192.256892 C105.043956,192.256892 103.832339,191.80697 103.047096,190.833972 C102.205965,189.856264 102.04113,188.603203 102.04113,186.640879 L102.04113,168.974003 L106.58179,168.594411 L107.224176,168.543548 L107.224176,173.476986 L112.356358,173.476986 L112.356358,176.649984 L107.224176,176.649984 C107.224176,177.68044 107.217896,186.578085 107.217896,186.737582 C107.217896,188.180597 107.237049,188.307755 107.344427,188.492998 C107.48697,188.691429 107.699215,188.907127 108.499529,188.907127 L112.131868,188.352025 Z M49.9805338,188.94449 C51.9202512,188.94449 53.9007849,188.18562 53.9007849,182.579969 C53.9007849,176.933501 51.6800628,176.278242 50.0125589,176.278242 C48.0825746,176.278242 46.1014129,177.035228 46.1014129,182.613878 C46.1014129,188.286719 48.3130298,188.94449 49.9805338,188.94449 Z M50.0125589,172.882009 C55.8401884,172.882009 59.3083203,176.508069 59.3083203,182.579969 C59.3083203,188.572747 55.7519623,192.297394 50.0125589,192.297394 C44.178022,192.297394 40.6879121,188.677928 40.6879121,182.613878 C40.6879121,176.612622 44.2631083,172.882009 50.0125589,172.882009 Z M73.7538462,188.192465 L73.7538462,176.781476 C72.9215071,176.637991 72.4565149,176.607535 71.833281,176.607535 C68.4587127,176.607535 66.5350078,178.831397 66.5350078,182.685086 C66.5350078,186.391209 68.2436421,188.409733 71.3635793,188.409733 C72.1974882,188.409733 72.8141287,188.333438 73.7538462,188.192465 Z M73.8963893,174.383359 L73.8963893,173.603454 L79.0533752,173.603454 L79.0533752,192.429827 C79.0533752,195.681005 78.2188383,197.373626 75.9692308,198.577394 C74.4533752,199.395604 72.2985871,199.816641 69.8100471,199.816641 C67.8483516,199.816641 66.2568289,199.568603 62.3968603,198.719623 L62.3968603,195.613187 C64.2913658,196.078179 66.7494505,196.356672 68.5726845,196.356672 C72.589011,196.356672 73.7538462,195.432967 73.7538462,192.221036 L73.7538462,190.733752 C70.9645212,191.869702 69.8100471,192.185557 68.6012559,192.185557 C63.9654631,192.185557 61.0640502,188.725589 61.0640502,183.209733 C61.0640502,177.459655 64.721821,173.357928 69.8762951,173.357928 C71.2938776,173.357928 72.7007849,173.707692 73.8963893,174.383359 Z M126.196232,188.336703 L126.196232,176.809545 C125.344741,176.655071 124.854631,176.624301 124.228257,176.624301 C120.782418,176.624301 118.817582,178.873909 118.817582,182.766531 C118.817582,186.516923 120.560754,188.560879 123.746939,188.560879 C124.60471,188.560879 125.231083,188.486154 126.196232,188.336703 Z M131.230141,173.721319 L131.230141,188.260408 L133.318367,188.260408 L133.318367,191.329796 L126.04113,192.064804 L126.04113,190.358681 C123.693564,191.699969 122.174882,192.232779 120.997488,192.232779 C116.447096,192.232779 113.618838,188.784741 113.618838,183.293061 C113.618838,177.558053 117.193721,173.476735 122.253375,173.476735 C123.632967,173.476735 125.009419,173.828383 126.179906,174.493689 L126.179906,173.721319 L131.230141,173.721319 Z M128.869702,169.062951 L119.753532,170.960911 L119.051491,168.619937 L127.107378,165.353532 L127.651805,165.13281 L128.869702,169.062951 Z M82.0279435,151.6854 L82.5978022,151.522449 L83.3695447,154.132496 L82.8916797,154.342229 C79.9048666,155.632653 77.8963893,156.126531 75.7061224,156.126531 C70.6794349,156.126531 67.3098901,152.294819 67.3098901,146.583046 C67.3098901,140.596232 70.8062794,136.715228 76.2125589,136.715228 C78.7692308,136.715228 81.1962323,137.623548 82.1164835,138.012245 L82.4744113,138.168289 L82.4204082,141.653689 C82.4204082,141.653689 79.8197802,140.611303 79.7657771,140.585871 C79.756044,140.585871 78.7817896,140.219152 77.2599686,140.219152 C74.2474097,140.219152 72.722449,142.351648 72.722449,146.558556 C72.722449,149.271272 73.4916797,152.512088 77.1871272,152.512088 C78.522135,152.512088 80.155102,152.234537 82.0279435,151.6854 Z M16.6430141,151.412245 C17.6119309,150.689796 18.1591837,149.432653 18.1591837,147.960126 C18.1591837,146.583046 17.6875981,145.444898 16.8612245,144.752276 C15.8615385,143.95102 14.289168,143.886342 12.3403454,143.886342 L10.5648352,143.886342 C10.5648352,143.886342 10.4703297,143.867818 10.4354788,143.865934 L10.4354788,152.39843 L11.4006279,152.39843 C13.6307692,152.39843 15.4342229,152.327159 16.6430141,151.412245 Z M10.4354788,133.153532 L10.4354788,142.380534 C10.4354788,142.380534 11.4386185,140.679435 11.4386185,140.699843 C11.4386185,140.699843 13.6087912,140.46719 13.6248038,140.46719 C16.6718995,140.168289 17.4631083,139.146311 17.4631083,136.569231 C17.4631083,135.445526 17.1023548,134.525275 16.4565149,133.972057 C15.4882261,133.145055 13.9284144,133.148509 11.9284144,133.153532 L10.4354788,133.153532 Z M19.3742543,142.005338 C22.2976452,142.929042 23.8069074,144.971115 23.8069074,148.327473 C23.8069074,151.210047 22.3161695,153.552904 19.7281005,154.746625 C18.0232339,155.530926 16.4405024,155.763265 12.6882261,155.763265 L5.02794349,155.763265 L5.02794349,133.000942 C4.33186813,132.901413 2,132.559498 2,132.559498 L2,129.802512 L11.6345369,129.802512 C16.1880691,129.802512 17.6841444,129.958556 19.2759812,130.617268 C21.5632653,131.542543 22.86719,133.656201 22.86719,136.416641 C22.86719,139.251805 21.7406593,141.020722 19.3742543,142.005338 Z M59.6373626,136.715228 C61.6621664,136.715228 63.1943485,137.366405 64.178022,138.643642 C65.0703297,139.798116 65.1968603,140.726845 65.1968603,143.551648 L65.1968603,155.763265 L60.0169545,155.763265 L60.0229199,143.832025 C60.0364207,142.696075 60.0427002,141.721507 59.555102,141.220094 C59.2257457,140.896703 58.6750392,140.742229 57.8530612,140.742229 C56.2392465,140.742229 54.5877551,141.246154 53.8816327,141.489796 C53.8816327,142.263108 53.8373626,155.763265 53.8373626,155.763265 L48.7152276,155.763265 L48.7152276,140.480691 L45.8417582,140.480691 L45.8417582,137.745683 L53.6508634,136.75416 C53.6508634,136.75416 53.7233909,137.8 53.7582418,138.22606 C56.0464678,137.273783 58.0646782,136.715228 59.6373626,136.715228 Z M93.3937206,152.77708 C95.3299843,152.77708 97.3076923,152.013815 97.3076923,146.410675 C97.3076923,140.762637 95.0960754,140.109576 93.4320251,140.109576 C91.4985871,140.109576 89.5083203,140.865934 89.5083203,146.444584 C89.5083203,152.115856 91.7262166,152.77708 93.3937206,152.77708 Z M93.4320251,136.715228 C99.2508634,136.715228 102.721507,140.337206 102.721507,146.410675 C102.721507,152.403454 99.1585557,156.126531 93.4320251,156.126531 C87.5811617,156.126531 84.1010989,152.508948 84.1010989,146.444584 C84.1010989,140.443328 87.6762951,136.715228 93.4320251,136.715228 Z M38.2069074,152.167661 L38.2069074,140.64113 C37.3522763,140.484144 36.8712716,140.455259 36.2483516,140.455259 C32.7966091,140.455259 30.8286342,142.705808 30.8286342,146.600942 C30.8286342,150.348509 32.5746311,152.389953 35.7610675,152.389953 C36.6153846,152.389953 37.244898,152.320565 38.2069074,152.167661 Z M43.2376766,137.550706 L43.2376766,152.091994 L45.3259027,152.091994 L45.3259027,155.164207 L38.156044,155.885714 L38.0483516,155.894192 L38.0483516,154.189639 C35.7102041,155.530612 34.1855573,156.06719 33.0047724,156.06719 C28.4581476,156.06719 25.6264364,152.619152 25.6264364,147.123705 C25.6264364,141.387441 29.2044584,137.306122 34.2577708,137.306122 C35.6373626,137.306122 37.0200942,137.657457 38.1908948,138.323077 L38.1908948,137.550706 L43.2376766,137.550706 Z M122.304239,152.011303 C122.304239,151.644584 122.434223,140.95416 122.434223,140.95416 C120.456829,140.029199 117.747567,139.674097 116.156044,141.458399 C115.156672,142.585871 114.628571,143.840188 114.592779,145.79843 C114.592779,146.006593 114.577708,146.208477 114.577708,146.410675 C114.577708,148.187127 114.773626,149.935008 115.748195,151.099529 C117.409105,153.109576 119.988383,152.636107 122.304239,152.011303 Z M127.471586,128.586499 C127.471586,128.586499 127.261852,152.196232 127.259027,152.661538 L129.461224,152.661538 L129.461224,154.960126 L122.592465,155.868446 C122.592465,155.868446 122.545055,154.716484 122.531554,154.349765 C120.643014,155.247096 117.263736,156.189325 114.71303,155.349137 C111.242072,154.213187 109.062166,150.746625 109.16044,146.529356 C109.264678,141.869388 111.283203,138.643642 114.849294,137.441758 C117.443642,136.572684 120.266562,137.158242 122.294819,137.842386 C122.294819,137.315228 122.301099,132.262166 122.301099,131.849608 L119.789325,131.849608 L119.789325,129.554474 L126.597802,128.683516 L127.211931,128.612245 L127.471586,128.586499 Z M136.229513,143.976138 L143.270016,143.976138 C143.225432,143.570487 143.177708,139.899215 139.763579,139.899215 C136.419152,139.899215 136.280377,143.655259 136.229513,143.976138 Z M139.751334,136.703297 C140.089796,136.720251 147.708948,136.521507 147.708948,145.236735 C147.708948,145.663736 147.68383,146.096389 147.645526,146.537834 L147.632967,146.756986 L146.129984,146.756986 L136.102983,146.558242 C136.109262,148.081005 136.260911,149.994349 137.35259,151.264364 C139.371743,153.615699 142.529356,152.361068 144.978336,151.6854 L146.677551,151.150706 L147.535008,153.77865 L147.370173,153.863422 C144.345369,155.513658 139.570801,156.64584 136.308948,155.605338 C132.616013,154.433909 130.296703,150.860283 130.40471,146.515856 C130.511774,141.712402 132.660597,138.392465 136.451177,137.151334 C137.502041,136.814443 138.571115,136.665934 139.751334,136.703297 Z" id="Lettering" fill="#00407E"></path>
        <g id="Emblem" transform="translate(20.000000, 0.000000)">
            <g id="Group-17" transform="translate(0.000000, 0.000000)">
                <mask id="mask-2" fill="white">
                    <use xlink:href="#path-1"></use>
                </mask>
                <g id="Clip-16"></g>
                <path d="M54.7575368,0.0527937162 C25.5038197,0.559523146 1.32149996,20.9455685 0.257071274,48.979483 C-0.791544591,77.0078024 21.1033378,100.596215 49.1688344,101.644419 C63.4500698,102.190856 76.5837463,96.7842382 86.1843871,87.6482179 C95.4235919,78.8402407 95.0440842,63.3578742 87.6978998,70.3830483 C79.6152898,78.1011286 68.3204184,82.7167434 55.9954547,82.2704785 C32.50664,81.4280352 14.1773226,62.4802351 15.0628406,39.9598797 C15.8760713,19.0616902 36.6179732,2.52056153 55.2002957,1.51973706 L55.6837162,0.0478302044 C55.3764957,0.0478302044 55.0692752,0.0478302044 54.7575368,0.0527937162 Z" id="Fill-15" fill="url(#linearGradient-3)" mask="url(#mask-2)"></path>
            </g>
            <path d="M58.8372443,1.53101777 C82.4435256,2.95554565 101.875222,23.0446827 33.1843323,43.1031363 C50.6823471,46.5396914 63.608198,54.7335469 63.608198,54.7335469 C122.418335,24.8699014 88.9674434,-0.0555010863 55.6791983,0.0473789761 L55.2002957,1.51928583 C56.4246598,1.45656509 57.63547,1.45656509 58.8372443,1.53101777" id="Fill-18" fill="#FFCC00"></path>
            <g id="Group-21" transform="translate(24.848717, -0.000000)">
                <mask id="mask-5" fill="white">
                    <use xlink:href="#path-4"></use>
                </mask>
                <g id="Clip-20"></g>
                <path d="M30.834999,0.0478302044 C30.5277785,0.0478302044 30.220558,0.0478302044 29.9088196,0.0527937162 C19.061225,0.238699794 8.93650229,3.16536683 0.415651269,8.17986742 L5.05558446,12.0297476 C12.4469483,5.88266392 21.6409737,1.99397805 30.3515785,1.51973706 C31.5759426,1.45701632 32.7867528,1.45701632 33.9885271,1.531469 C45.5635114,2.2335803 56.1355111,7.41052309 55.8057008,14.8828645 L61.5841571,8.08195087 C53.8991265,2.99435129 42.4596807,0.0473789761 31.0247529,0.0473789761 C30.9615016,0.0473789761 30.8982503,0.0473789761 30.834999,0.0478302044 Z" id="Fill-19" fill="url(#linearGradient-6)" mask="url(#mask-5)"></path>
            </g>
            <g id="Group-24" transform="translate(32.529230, 32.488441)">
                <mask id="mask-8" fill="white">
                    <use xlink:href="#path-7"></use>
                </mask>
                <g id="Clip-23"></g>
                <path d="M0.194271789,10.6151468 C15.7360149,12.5527213 48.4866241,30.0897109 51.482024,46.7917475 C51.4639522,46.5232667 50.5061471,39.8786586 50.5061471,39.8786586 C48.1297062,24.1131915 51.4503984,8.81655061 75.6169053,7.56709933 C64.0328852,2.00570999 53.7274445,0.0424154643 44.5153473,0.0415130076 C25.8426659,0.0406105509 11.6246817,8.09413403 0.194271789,10.6151468 Z" id="Fill-22" fill="url(#linearGradient-9)" mask="url(#mask-8)"></path>
            </g>
            <g id="Group-27" transform="translate(57.377947, 44.671606)">
                <mask id="mask-11" fill="white">
                    <use xlink:href="#path-10"></use>
                </mask>
                <g id="Clip-26"></g>
                <path d="M26.2989787,33.1565294 C26.5836094,33.9615208 28.0835684,40.1794474 24.6228197,46.6608913 C20.3398045,53.9568024 13.4002355,59.4500563 0.00903589716,63.0301019 C34.3228553,64.6026327 73.5883464,31.690669 38.2625065,0.0252687873 C23.3397224,6.16919392 24.862271,23.189527 26.2989787,33.1565294 Z" id="Fill-25" fill="url(#linearGradient-12)" mask="url(#mask-11)"></path>
            </g>
        </g>
    </g>
</svg>