<svg xmlns="http://www.w3.org/2000/svg" xmlns:xlink="http://www.w3.org/1999/xlink" width="200" height="124.492" viewBox="0 0 200 124.492"><defs><style>.a{clip-path:url(#a);}.b{fill:#573488;}.c{clip-path:url(#b);}.d{fill:#6b4c96;}.e{fill:#9a85b7;}.f{fill:#fff;}.g{fill:none;}.h{opacity:0.6;fill:url(#e);}</style><clipPath id="a"><path d="M14.66,6.7H199.74a7.429,7.429,0,0,1,7.46,7.46h0V123.733a7.429,7.429,0,0,1-7.46,7.46H14.66a7.429,7.429,0,0,1-7.46-7.46V14.077A7.519,7.519,0,0,1,14.66,6.7Z" transform="translate(-7.2 -6.7)"/></clipPath><clipPath id="b"><rect width="210.278" height="137.091"/></clipPath><linearGradient id="e" x1="-9.578" y1="14.599" x2="-9.576" y2="14.599" gradientUnits="objectBoundingBox"><stop offset="0" stop-color="#fff"/><stop offset="0.05" stop-color="#f7f7f7"/><stop offset="0.13" stop-color="#e1e1e1"/><stop offset="0.24" stop-color="#bdbdbe"/><stop offset="0.35" stop-color="#8b8b8c"/><stop offset="0.48" stop-color="#4c4c4d"/><stop offset="0.48" stop-color="#49494a"/><stop offset="1" stop-color="#c7c8c7"/></linearGradient></defs><g transform="translate(16.8 -9.7)"><g class="a" transform="translate(-16.8 9.7)"><g transform="translate(-5.968 -5.553)"><rect class="b" width="210.278" height="137.422"/><g transform="translate(0 0.332)"><g class="c"><g transform="translate(43.522 28.927)"><path class="d" d="M253.362,125.53A84.172,84.172,0,0,0,241.427,85q-1.616,10.941-4.227,21.633A194.494,194.494,0,0,1,253.362,125.53Z" transform="translate(-84.121 -43.806)"/><path class="d" d="M136.539,48.644c3.315-4.559,6.714-9.034,10.443-13.344A84.4,84.4,0,0,0,113,42.677,191.924,191.924,0,0,1,136.539,48.644Z" transform="translate(-62.863 -35.3)"/><path class="d" d="M163.3,35.9c-4.476,4.973-8.62,10.112-12.6,15.5a195.084,195.084,0,0,1,65.23,40.448,194.3,194.3,0,0,0,4.061-24.865A85.212,85.212,0,0,0,163.3,35.9Z" transform="translate(-69.316 -35.403)"/><path class="d" d="M155.563,217.022A193.138,193.138,0,0,1,102.6,202.6a187.564,187.564,0,0,0,.995,19.395,83.113,83.113,0,0,0,34.977,10.941c4.724-3.978,9.283-8.123,13.676-12.516C153.325,219.343,154.486,218.182,155.563,217.022Z" transform="translate(-61.083 -63.934)"/><path class="d" d="M97.425,109.6a191.608,191.608,0,0,1-18.732-46A84.721,84.721,0,0,0,55.32,146.484a184.371,184.371,0,0,0,31.247,20.141A212.919,212.919,0,0,1,97.425,109.6Z" transform="translate(-52.51 -40.144)"/><path class="d" d="M98.151,51.5c-2.072,1.409-4.144,2.818-6.051,4.31a183.855,183.855,0,0,0,15.665,41.939A213.768,213.768,0,0,1,128.32,58.131,197.947,197.947,0,0,0,98.151,51.5Z" transform="translate(-59.286 -38.073)"/><path class="d" d="M221.019,195.318a84.521,84.521,0,0,0,24.948-50.808A176.628,176.628,0,0,0,227.9,121.8a212.855,212.855,0,0,1-31,63.241,179.218,179.218,0,0,0,21.053,10.692C218.947,195.567,220.025,195.484,221.019,195.318Z" transform="translate(-77.223 -50.105)"/><path class="d" d="M189.938,221.78c-4.973,0-9.863-.166-14.753-.58-2.487,2.735-4.973,5.387-7.542,7.957-2.487,2.487-4.973,4.807-7.542,7.128A84.231,84.231,0,0,0,203.946,221.2C199.3,221.614,194.663,221.78,189.938,221.78Z" transform="translate(-70.925 -67.118)"/><path class="d" d="M200.256,211.17q-4.973-2.611-9.946-5.47c-1.409,1.823-2.818,3.647-4.31,5.387,2.818.083,5.553.166,8.371.166C196.361,211.336,198.35,211.253,200.256,211.17Z" transform="translate(-75.357 -64.465)"/><path class="d" d="M88.289,212.688c-.332-4.807-.5-9.7-.5-14.588v-2.984A197.24,197.24,0,0,1,61.6,179.7,84.883,84.883,0,0,0,88.289,212.688Z" transform="translate(-54.066 -60.015)"/><path class="d" d="M137.943,162.971A196.325,196.325,0,0,1,111.337,129.9a203.342,203.342,0,0,0-8.537,51.8,184.026,184.026,0,0,0,59.345,15.748c2.569-2.9,4.973-5.885,7.377-8.952A195.287,195.287,0,0,1,137.943,162.971Z" transform="translate(-61.117 -51.491)"/><path class="d" d="M176.594,170.764a205.368,205.368,0,0,0,31.33-65.562,186.972,186.972,0,0,0-67.717-42.6A206.594,206.594,0,0,0,117,108.6a189.079,189.079,0,0,0,59.594,62.163Z" transform="translate(-63.548 -39.973)"/></g><g transform="translate(17.939 16.162)"><path class="e" d="M48.839,25.232,47.6,22H43.7l1.326,3.232Z" transform="translate(-25.418 -20.259)"/><path class="f" d="M53.74,22l-2.9,7.708-1.077-2.984L49.43,25.9H45.7l.58,1.409,2.984,7.128h3.15L57.718,22Z" transform="translate(-25.76 -20.259)"/><path class="f" d="M59,28.165a6.465,6.465,0,1,1,6.465,6.465A6.282,6.282,0,0,1,59,28.579Zm9.283,0a2.777,2.777,0,1,0-5.553.083,2.778,2.778,0,0,0,2.818,2.735,2.708,2.708,0,0,0,2.818-2.652h0v-.166Z" transform="translate(-28.037 -20.208)"/><path class="f" d="M79.019,40.566h-3.9l2.984-7.377L73.3,22h3.978l2.735,7.045L82.749,22h3.978Z" transform="translate(-30.484 -20.259)"/><path class="f" d="M94.714,37.3c2.818,0,3.564-1.906,3.481-4.393a4.145,4.145,0,0,1-3.73,1.823,6.465,6.465,0,0,1,0-12.93h0a4.153,4.153,0,0,1,3.73,1.823V21.964h3.564V32.656c0,5.387-2.652,7.957-7.045,7.957a6.663,6.663,0,0,1-6.133-3.9c.912-.414,2.072-.995,2.984-1.492A3.4,3.4,0,0,0,94.714,37.3Zm.332-12.1a2.984,2.984,0,1,0,0,5.968h0A2.991,2.991,0,0,0,98.029,28.1h0a2.866,2.866,0,0,0-2.818-2.9h-.166Z" transform="translate(-33 -20.224)"/><path class="f" d="M105.9,28.165a6.465,6.465,0,1,1,6.465,6.465h0a6.231,6.231,0,0,1-6.465-6.051Zm9.283,0a2.724,2.724,0,0,0-2.818-2.735,2.83,2.83,0,0,0-2.735,2.818,2.821,2.821,0,0,0,5.636.083h0v-.166Z" transform="translate(-36.064 -20.208)"/><path class="e" d="M40.458,27.53a7.73,7.73,0,0,0-1.492-3.73,17.449,17.449,0,0,1-.166,2.072A15.651,15.651,0,0,1,40.458,27.53Z" transform="translate(-24.579 -20.568)"/><path class="e" d="M28.821,21.226c.249-.414.58-.912.829-1.326a7.377,7.377,0,0,0-3.15.995A22.342,22.342,0,0,1,28.821,21.226Z" transform="translate(-22.474 -19.9)"/><path class="e" d="M31.177,19.9A10.556,10.556,0,0,0,30.1,21.475a18.967,18.967,0,0,1,6.465,3.232,21.9,21.9,0,0,0,.166-2.4A7.64,7.64,0,0,0,31.177,19.9Z" transform="translate(-23.09 -19.9)"/><path class="e" d="M32.056,37.012A20.2,20.2,0,0,1,27,36.1c.083.58.166,1.243.249,1.823a8.108,8.108,0,0,0,3.4.746,15.914,15.914,0,0,0,1.16-1.243Z" transform="translate(-22.56 -22.673)"/><path class="e" d="M25.752,27.344A19.693,19.693,0,0,1,23.6,23.2a7.885,7.885,0,0,0-1.906,5.968,16.976,16.976,0,0,0,.414,1.989,15.739,15.739,0,0,0,3.067,1.658A24.553,24.553,0,0,1,25.752,27.344Z" transform="translate(-21.643 -20.465)"/><path class="e" d="M25.2,21.9l-.5.414a22.94,22.94,0,0,0,1.823,3.813,22.546,22.546,0,0,1,1.575-3.9A16.35,16.35,0,0,0,25.2,21.9Z" transform="translate(-22.166 -20.242)"/><path class="e" d="M38.121,34.262a8.407,8.407,0,0,0,1.906-4.973A14.527,14.527,0,0,0,38.121,27.3,20.857,20.857,0,0,1,35.8,33.516a15.425,15.425,0,0,0,2.072.829Z" transform="translate(-24.066 -21.167)"/><path class="e" d="M35.335,37.066c-.5,0-.912.083-1.409.083l-.663.829a5.363,5.363,0,0,1-.663.746A7.975,7.975,0,0,0,36.578,36.9C36.164,36.983,35.75,36.983,35.335,37.066Z" transform="translate(-23.518 -22.81)"/><path class="e" d="M36.226,36.014c-.332-.166-.663-.249-.995-.414a3.6,3.6,0,0,0-.332.58l.829-.083Z" transform="translate(-23.912 -22.587)"/><path class="e" d="M25.635,37.1c-.083-.414-.083-.912-.166-1.409v-.249A14.69,14.69,0,0,1,22.9,34.2,9.155,9.155,0,0,0,25.635,37.1Z" transform="translate(-21.858 -22.348)"/><path class="e" d="M29.943,32a18.714,18.714,0,0,1-2.818-2.9,20.1,20.1,0,0,0-.332,4.973,16.953,16.953,0,0,0,5.719.995c.166-.332.414-.58.58-.912A19.307,19.307,0,0,1,29.943,32Z" transform="translate(-22.519 -21.475)"/><path class="e" d="M33.616,32.363A17.8,17.8,0,0,0,35.937,25.9a18.376,18.376,0,0,0-6.714-3.4A21.136,21.136,0,0,0,27.4,26.976a16.272,16.272,0,0,0,3.067,3.232A15.2,15.2,0,0,0,33.616,32.363Z" transform="translate(-22.628 -20.345)"/></g></g><g class="c"><path class="g" d="M199.809,131.075c4.061,0,7.46-4.393,7.46-8.454V13.794a7.448,7.448,0,0,0-7.46-7.294H14.977A7.323,7.323,0,0,0,7.6,13.794V122.621c0,3.978,3.315,8.454,7.46,8.454Z" transform="translate(-1.301 -1.444)"/></g><g class="c"><path class="h" d="M194.641,9.1H18.595A9.694,9.694,0,0,0,11.467,12h0a9.383,9.383,0,0,0-2.9,7.045L8.4,92.149l.166-.083,3.315-73.021a6.454,6.454,0,0,1,1.989-4.724,6.765,6.765,0,0,1,4.807-1.906H194.724a6.65,6.65,0,0,1,6.714,6.548h0v.083l3.15,66.39.166-66.39A9.459,9.459,0,0,0,201.769,12,9.753,9.753,0,0,0,194.641,9.1Z" transform="translate(-1.438 -1.888)"/></g></g></g></g></g></svg>