<svg xmlns="http://www.w3.org/2000/svg" xmlns:xlink="http://www.w3.org/1999/xlink" width="200" height="124.492" viewBox="0 0 200 124.492"><defs><style>.a{clip-path:url(#a);}.b{fill:#573488;}.c{clip-path:url(#b);}.d{fill:#6b4c96;}.e{fill:none;}</style><clipPath id="a"><path d="M14.66,6.7H199.74a7.429,7.429,0,0,1,7.46,7.46h0V123.733a7.429,7.429,0,0,1-7.46,7.46H14.66a7.429,7.429,0,0,1-7.46-7.46V14.077A7.519,7.519,0,0,1,14.66,6.7Z" transform="translate(2688.8 2065.3)"/></clipPath><clipPath id="b"><rect width="210.278" height="137.091"/></clipPath></defs><g transform="translate(-2696 -2072)"><g class="a"><g transform="translate(2690.032 2066.447)"><rect class="b" width="210.278" height="137.422"/><g transform="translate(0 0.332)"><g class="c"><g transform="translate(43.522 28.927)"><path class="d" d="M253.362,125.53A84.172,84.172,0,0,0,241.427,85q-1.616,10.941-4.227,21.633A194.494,194.494,0,0,1,253.362,125.53Z" transform="translate(-84.121 -43.806)"/><path class="d" d="M136.539,48.644c3.315-4.559,6.714-9.034,10.443-13.344A84.4,84.4,0,0,0,113,42.677,191.924,191.924,0,0,1,136.539,48.644Z" transform="translate(-62.863 -35.3)"/><path class="d" d="M163.3,35.9c-4.476,4.973-8.62,10.112-12.6,15.5a195.084,195.084,0,0,1,65.23,40.448,194.3,194.3,0,0,0,4.061-24.865A85.212,85.212,0,0,0,163.3,35.9Z" transform="translate(-69.316 -35.403)"/><path class="d" d="M155.563,217.022A193.138,193.138,0,0,1,102.6,202.6a187.564,187.564,0,0,0,.995,19.395,83.113,83.113,0,0,0,34.977,10.941c4.724-3.978,9.283-8.123,13.676-12.516C153.325,219.343,154.486,218.182,155.563,217.022Z" transform="translate(-61.083 -63.934)"/><path class="d" d="M97.425,109.6a191.608,191.608,0,0,1-18.732-46A84.721,84.721,0,0,0,55.32,146.484a184.371,184.371,0,0,0,31.247,20.141A212.919,212.919,0,0,1,97.425,109.6Z" transform="translate(-52.51 -40.144)"/><path class="d" d="M98.151,51.5c-2.072,1.409-4.144,2.818-6.051,4.31a183.855,183.855,0,0,0,15.665,41.939A213.768,213.768,0,0,1,128.32,58.131,197.947,197.947,0,0,0,98.151,51.5Z" transform="translate(-59.286 -38.073)"/><path class="d" d="M221.019,195.318a84.521,84.521,0,0,0,24.948-50.808A176.628,176.628,0,0,0,227.9,121.8a212.855,212.855,0,0,1-31,63.241,179.218,179.218,0,0,0,21.053,10.692C218.947,195.567,220.025,195.484,221.019,195.318Z" transform="translate(-77.223 -50.105)"/><path class="d" d="M189.938,221.78c-4.973,0-9.863-.166-14.753-.58-2.487,2.735-4.973,5.387-7.542,7.957-2.487,2.487-4.973,4.807-7.542,7.128A84.231,84.231,0,0,0,203.946,221.2C199.3,221.614,194.663,221.78,189.938,221.78Z" transform="translate(-70.925 -67.118)"/><path class="d" d="M200.256,211.17q-4.973-2.611-9.946-5.47c-1.409,1.823-2.818,3.647-4.31,5.387,2.818.083,5.553.166,8.371.166C196.361,211.336,198.35,211.253,200.256,211.17Z" transform="translate(-75.357 -64.465)"/><path class="d" d="M88.289,212.688c-.332-4.807-.5-9.7-.5-14.588v-2.984A197.24,197.24,0,0,1,61.6,179.7,84.883,84.883,0,0,0,88.289,212.688Z" transform="translate(-54.066 -60.015)"/><path class="d" d="M137.943,162.971A196.325,196.325,0,0,1,111.337,129.9a203.342,203.342,0,0,0-8.537,51.8,184.026,184.026,0,0,0,59.345,15.748c2.569-2.9,4.973-5.885,7.377-8.952A195.287,195.287,0,0,1,137.943,162.971Z" transform="translate(-61.117 -51.491)"/><path class="d" d="M176.594,170.764a205.368,205.368,0,0,0,31.33-65.562,186.972,186.972,0,0,0-67.717-42.6A206.594,206.594,0,0,0,117,108.6a189.079,189.079,0,0,0,59.594,62.163Z" transform="translate(-63.548 -39.973)"/></g></g><g class="c"><path class="e" d="M199.809,131.075c4.061,0,7.46-4.393,7.46-8.454V13.794a7.448,7.448,0,0,0-7.46-7.294H14.977A7.323,7.323,0,0,0,7.6,13.794V122.621c0,3.978,3.315,8.454,7.46,8.454Z" transform="translate(-1.301 -1.444)"/></g></g></g></g><rect width="200" height="24.902" transform="translate(2696 2088)"/></g></svg>