<?xml version="1.0" encoding="utf-8"?>
<!-- Generator: Adobe Illustrator 22.1.0, SVG Export Plug-In . SVG Version: 6.00 Build 0)  -->
<svg version="1.1" id="Layer_1" xmlns="http://www.w3.org/2000/svg" xmlns:xlink="http://www.w3.org/1999/xlink" x="0px" y="0px"
	 viewBox="0 0 179 51.4" style="enable-background:new 0 0 179 51.4;" xml:space="preserve">
<style type="text/css">
	.st0{fill:#FFFFFF;}
	.st1{fill-rule:evenodd;clip-rule:evenodd;fill:#FFFFFF;}
</style>
<g>
	<g>
		<g>
			<path class="st0" d="M49.9,50.4l2-10.5c0.2-1.2,0.4-2.6,0.6-3.6H54l-0.3,1.9h0c0.9-1.3,2.2-2.1,3.6-2.1c2.1,0,3.1,1.8,3.1,3.6
				c0,3.5-2.5,6.8-5.8,6.8c-1.1,0-1.8-0.2-2.1-0.5h0l-0.8,4.3H49.9z M52.7,44.6c0.4,0.3,1.1,0.6,1.9,0.6c2.2,0,4-2.7,4-5.4
				c0-1.1-0.5-2.3-1.9-2.3c-1.3,0-3,1.5-3.5,4.3L52.7,44.6z"/>
			<path class="st0" d="M68.7,45.7c-0.7,0.4-2,0.8-3.3,0.8c-2.6,0-3.8-1.8-3.8-4c0-3,2.2-6.4,5.4-6.4c1.9,0,2.9,1.1,2.9,2.6
				c0,2.6-3,3.3-6.6,3.2c-0.1,0.4,0,1.4,0.2,1.9c0.4,0.9,1.2,1.3,2.2,1.3c1.2,0,2.1-0.3,2.7-0.7L68.7,45.7z M68.3,38.7
				c0-0.8-0.6-1.3-1.5-1.3c-1.6,0-2.9,1.6-3.3,3.2C66.2,40.6,68.3,40.2,68.3,38.7L68.3,38.7z"/>
			<path class="st0" d="M70.6,46.3l1.2-6.4c0.2-1.3,0.4-2.6,0.5-3.5h1.5c-0.1,0.7-0.1,1.4-0.3,2.2h0.1c0.7-1.4,1.7-2.4,3.1-2.4
				c0.2,0,0.4,0,0.5,0l-0.3,1.7c-0.1,0-0.3,0-0.5,0c-1.5,0-2.8,1.8-3.2,4.1l-0.8,4.4H70.6z"/>
			<path class="st0" d="M77.1,44.6c0.5,0.3,1.3,0.6,2.1,0.6c1.2,0,1.9-0.7,1.9-1.6c0-0.8-0.4-1.3-1.4-1.9c-1.2-0.6-1.8-1.5-1.8-2.5
				c0-1.8,1.5-3.1,3.6-3.1c0.9,0,1.7,0.2,2.1,0.5l-0.5,1.3c-0.3-0.2-1-0.5-1.7-0.5c-1.1,0-1.8,0.7-1.8,1.5c0,0.7,0.5,1.2,1.4,1.7
				c1.1,0.6,1.9,1.5,1.9,2.6c0,2.1-1.7,3.3-3.8,3.3c-1.1,0-2-0.3-2.5-0.7L77.1,44.6z"/>
			<path class="st0" d="M88.5,46.5c-2.5,0-3.9-1.9-3.9-4.1c0-3.3,2.3-6.3,5.5-6.3c2.7,0,3.9,2,3.9,4.1
				C94.1,43.3,91.9,46.5,88.5,46.5L88.5,46.5z M88.7,45.1c2,0,3.5-2.6,3.5-4.9c0-1.2-0.5-2.8-2.3-2.8c-2.1,0-3.6,2.6-3.6,4.9
				C86.4,44,87.3,45.1,88.7,45.1L88.7,45.1z"/>
			<path class="st0" d="M95.1,46.3l1.3-7.1c0.2-1.1,0.4-2.1,0.5-2.9h1.5l-0.3,2h0c0.9-1.4,2.3-2.2,3.7-2.2c1.2,0,2.5,0.7,2.5,2.8
				c0,0.5-0.1,1.1-0.2,1.6l-1.1,5.8h-1.7l1.1-5.8c0.1-0.4,0.1-0.8,0.1-1.3c0-1-0.4-1.7-1.6-1.7c-1.2,0-3,1.5-3.4,3.9l-0.9,4.8H95.1z
				"/>
			<path class="st0" d="M112.5,46.3c0-0.6,0.1-1.5,0.2-2.6h0c-1.1,2.1-2.5,2.8-3.9,2.8c-1.8,0-2.9-1.4-2.9-3.3
				c0-3.5,2.6-7.1,6.9-7.1c0.9,0,2,0.2,2.7,0.4l-1,5.2c-0.3,1.7-0.5,3.5-0.4,4.6H112.5z M113.6,37.6c-0.3-0.1-0.6-0.1-1.2-0.1
				c-2.6,0-4.7,2.7-4.7,5.5c0,1.1,0.4,2.2,1.7,2.2c1.4,0,3.1-1.9,3.6-4.5L113.6,37.6z"/>
			<path class="st0" d="M116.5,44.6c0.5,0.3,1.3,0.6,2.1,0.6c1.2,0,1.9-0.7,1.9-1.6c0-0.8-0.3-1.3-1.4-1.9c-1.2-0.6-1.8-1.5-1.8-2.5
				c0-1.8,1.5-3.1,3.6-3.1c0.9,0,1.7,0.2,2.1,0.5l-0.5,1.3c-0.3-0.2-1-0.5-1.7-0.5c-1.1,0-1.8,0.7-1.8,1.5c0,0.7,0.5,1.2,1.4,1.7
				c1.1,0.6,1.9,1.5,1.9,2.6c0,2.1-1.7,3.3-3.8,3.3c-1.1,0-2-0.3-2.5-0.7L116.5,44.6z"/>
			<path class="st0" d="M131.5,46.5c-2.5,0-3.9-1.9-3.9-4.1c0-3.3,2.3-6.3,5.5-6.3c2.7,0,3.9,2,3.9,4.1
				C137,43.3,134.8,46.5,131.5,46.5L131.5,46.5z M131.7,45.1c2,0,3.5-2.6,3.5-4.9c0-1.2-0.5-2.8-2.3-2.8c-2.2,0-3.6,2.6-3.6,4.9
				C129.3,44,130.2,45.1,131.7,45.1L131.7,45.1z"/>
			<path class="st0" d="M138,46.3l1.3-7.1c0.2-1.1,0.4-2.1,0.5-2.9h1.5l-0.3,2h0c0.9-1.4,2.2-2.2,3.7-2.2c1.2,0,2.5,0.7,2.5,2.8
				c0,0.5-0.1,1.1-0.2,1.6l-1.1,5.8h-1.7l1.1-5.8c0.1-0.4,0.1-0.8,0.1-1.3c0-1-0.4-1.7-1.6-1.7c-1.2,0-3,1.5-3.4,3.9l-0.9,4.8H138z"
				/>
			<path class="st0" d="M148.8,46.3l2.8-14.7h1.7l-2.8,14.7H148.8z"/>
			<path class="st0" d="M153.3,46.3l1.9-10h1.7l-1.9,10H153.3z M156.5,34.4c-0.6,0-1-0.5-1-1.1c0-0.7,0.5-1.2,1.2-1.2
				c0.6,0,1.1,0.5,1.1,1.1C157.8,34,157.2,34.4,156.5,34.4L156.5,34.4z"/>
			<path class="st0" d="M157.9,46.3l1.3-7.1c0.2-1.1,0.4-2.1,0.5-2.9h1.6l-0.3,2h0c0.9-1.4,2.2-2.2,3.7-2.2c1.2,0,2.5,0.7,2.5,2.8
				c0,0.5-0.1,1.1-0.2,1.6l-1.1,5.8h-1.7l1.1-5.8c0.1-0.4,0.1-0.8,0.1-1.3c0-1-0.4-1.7-1.6-1.7c-1.2,0-2.9,1.5-3.4,3.9l-0.9,4.8
				H157.9z"/>
			<path class="st0" d="M175.9,45.7c-0.7,0.4-2,0.8-3.3,0.8c-2.6,0-3.8-1.8-3.8-4c0-3,2.2-6.4,5.4-6.4c1.9,0,2.9,1.1,2.9,2.6
				c0,2.6-3,3.3-6.6,3.2c-0.1,0.4,0,1.4,0.2,1.9c0.4,0.9,1.2,1.3,2.2,1.3c1.2,0,2.1-0.3,2.7-0.7L175.9,45.7z M175.5,38.7
				c0-0.8-0.6-1.3-1.5-1.3c-1.6,0-2.8,1.6-3.3,3.2C173.4,40.6,175.5,40.2,175.5,38.7L175.5,38.7z"/>
		</g>
		<g>
			<path class="st1" d="M102.7,12.9l2.9-2.1l-0.2-0.3c-1.2-1.4-2.8-2.4-4.7-2.7c-1.9-0.3-3.8,0.1-5.3,1.1L95,9.1l2.1,2.9
				c0.1-0.1,0.3-0.2,0.3-0.2c0.8-0.5,1.7-0.7,2.6-0.5c1,0.2,1.8,0.6,2.4,1.3C102.4,12.6,102.6,12.8,102.7,12.9z M107.2,9l2.9-2.1
				l-0.2-0.3c-2-2.6-5-4.5-8.5-5.1c-3.5-0.6-6.9,0.3-9.5,2.1l-0.3,0.2l2.1,2.9L94,6.6c1.9-1.3,4.4-1.9,6.9-1.5
				c2.5,0.4,4.7,1.7,6.1,3.6L107.2,9z"/>
			<g>
				<path class="st0" d="M13.3,18.9c-0.7-0.3-1.5-0.6-2.7-0.6c-2.4,0-4,1.9-4,4.8c0,2.8,1.3,4.9,4.1,4.9c1.1,0,2.3-0.4,3-0.7
					l0.2,3.3c-1.1,0.4-2.3,0.5-3.9,0.5c-5,0-7.5-3.4-7.5-8c0-4.4,2.6-7.8,7.3-7.8c1.6,0,2.7,0.2,3.8,0.5L13.3,18.9z"/>
				<path class="st0" d="M23.2,15.3c4.5,0,7.9,3,7.9,8c0,4.3-2.9,7.8-7.9,7.8c-5,0-7.9-3.5-7.9-7.8C15.3,18.3,18.7,15.3,23.2,15.3z
					 M23.2,28c3,0,3.8-2.7,3.8-5.2c0-2.3-1.2-4.5-3.8-4.5c-2.6,0-3.8,2.2-3.8,4.5C19.4,25.3,20.2,28,23.2,28z"/>
				<path class="st0" d="M33.9,15.6h3.7v2.1h0.1c1.2-1.7,2.9-2.4,5-2.4c3.6,0,5.1,2.5,5.1,5.9v9.5h-3.9v-8.1c0-1.8,0-4.3-2.6-4.3
					c-2.8,0-3.5,3.1-3.5,5v7.4h-3.9V15.6z"/>
				<path class="st0" d="M63.6,29.9c-1.4,0.8-3.1,1.2-5.2,1.2c-5,0-7.9-2.9-7.9-7.8c0-4.4,2.3-8,7-8c5.6,0,7.2,3.8,7.2,9.1H54.3
					c0.2,2.4,1.9,3.8,4.3,3.8c1.9,0,3.5-0.7,5-1.5V29.9z M61,21.7c-0.1-1.9-1-3.6-3.2-3.6c-2.2,0-3.3,1.5-3.5,3.6H61z"/>
				<path class="st0" d="M66.3,15.6h4.6l3,4.9l2.9-4.9h4.2l-4.5,7.2l5.1,7.9h-4.7l-3.4-5.6l-3.4,5.6h-4.3l5.2-7.9L66.3,15.6z"/>
				<path class="st0" d="M83.6,9.1h3.9v3.8h-3.9V9.1z M83.6,15.6h3.9v15.1h-3.9V15.6z"/>
				<path class="st0" d="M98.3,15.3c4.5,0,7.9,3,7.9,8c0,4.3-2.9,7.8-7.9,7.8c-5,0-7.9-3.5-7.9-7.8C90.4,18.3,93.9,15.3,98.3,15.3z
					 M98.3,28c3,0,3.8-2.7,3.8-5.2c0-2.3-1.2-4.5-3.8-4.5c-2.6,0-3.8,2.2-3.8,4.5C94.5,25.3,95.3,28,98.3,28z"/>
				<path class="st0" d="M109,15.6h3.7v2.1h0.1c1.2-1.7,2.9-2.4,5-2.4c3.6,0,5.1,2.5,5.1,5.9v9.5H119v-8.1c0-1.8,0-4.3-2.6-4.3
					c-2.8,0-3.5,3.1-3.5,5v7.4H109V15.6z"/>
			</g>
		</g>
	</g>
</g>
</svg>
