<svg xmlns="http://www.w3.org/2000/svg" width="200.003" height="21.67" viewBox="0 0 200.003 21.67"><g transform="translate(-7737.989 3268.999)"><path d="M115.9,18.765v8.54h-3.864V19.5a2.528,2.528,0,0,0-2.717-2.7,2.651,2.651,0,0,0-2.783,2.472v8.026h-3.931V13.757h3.667v1.252a5.774,5.774,0,0,1,4.191-1.605A5.1,5.1,0,0,1,115.9,18.765Z" transform="translate(7660.04 -3279.289)" fill="#fff"/><path d="M166.217,20.632c0-4.077,3.111-7.1,7.5-7.1,4.355,0,7.5,3.05,7.5,7.1s-3.111,7.1-7.5,7.1C169.3,27.76,166.217,24.677,166.217,20.632Zm11.067,0a3.587,3.587,0,1,0-7.171.032,3.506,3.506,0,0,0,3.6,3.724A3.544,3.544,0,0,0,177.284,20.632Z" transform="translate(7611.723 -3279.39)" fill="#fff"/><path d="M243.947,14.771l-5.075,13.548h-4.519l-5.076-13.58H233.3l3.307,9.856,3.34-9.856h4Z" transform="translate(7563.822 -3280.303)" fill="#fff"/><path d="M291.12,20.632c0-4.077,3.111-7.1,7.5-7.1,4.355,0,7.5,3.05,7.5,7.1s-3.111,7.1-7.5,7.1C294.23,27.76,291.12,24.677,291.12,20.632Zm11.1,0a3.587,3.587,0,1,0-7.171.032,3.506,3.506,0,0,0,3.6,3.724A3.544,3.544,0,0,0,302.22,20.632Z" transform="translate(7516.846 -3279.39)" fill="#fff"/><path d="M378.587,20.734a6.75,6.75,0,0,1-6.811,7.063,6.134,6.134,0,0,1-5.37-2.922v7.256h-1.735V13.96h1.637v2.889a6.088,6.088,0,0,1,5.5-3.178A6.7,6.7,0,0,1,378.587,20.734Zm-1.735,0a5.243,5.243,0,0,0-5.239-5.553c-3.077,0-5.239,2.279-5.239,5.553s2.128,5.553,5.239,5.553A5.281,5.281,0,0,0,376.852,20.734Z" transform="translate(7460.977 -3279.492)" fill="#fff"/><path d="M445.566,14.162V27.71h-1.637V24.788A5.934,5.934,0,0,1,438.46,28a6.733,6.733,0,0,1-6.779-7.1,6.68,6.68,0,0,1,6.779-6.967,5.974,5.974,0,0,1,5.468,3.146V14.13h1.637Zm-1.7,6.774c0-3.242-2.128-5.553-5.239-5.553a5.3,5.3,0,0,0-5.239,5.553,5.224,5.224,0,0,0,5.239,5.553C441.7,26.49,443.863,24.178,443.863,20.936Z" transform="translate(7410.076 -3279.694)" fill="#fff"/><path d="M512.392,14.873l-7.793,18.2h-1.735l2.03-4.623H504.5l-5.665-13.58h1.8l4.88,12.071,5.042-12.071Z" transform="translate(7359.064 -3280.405)" fill="#fff"/><path d="M586.4,19.161v8.347h-1.735V19.45a3.89,3.89,0,0,0-4.093-4.238,4.055,4.055,0,0,0-4.191,3.6v8.7h-1.768V19.45c0-2.536-1.539-4.27-4.06-4.238a4.032,4.032,0,0,0-4.191,3.6v8.7h-1.735V13.96h1.67v2.215a5.362,5.362,0,0,1,4.715-2.5,4.832,4.832,0,0,1,4.912,3.05,5.342,5.342,0,0,1,5.043-3.05A5.129,5.129,0,0,1,586.4,19.161Z" transform="translate(7309.093 -3279.492)" fill="#fff"/><path d="M674.266,26.32c2.489,0,4.06-1,4.846-2.954l1.342.8c-.982,2.279-2.98,3.66-6.189,3.66a6.778,6.778,0,0,1-6.942-7.063,6.881,6.881,0,0,1,6.843-7.1,6.5,6.5,0,0,1,6.614,6.774,5.362,5.362,0,0,1-.033.77H669.092A5.06,5.06,0,0,0,674.266,26.32Zm4.813-6.389c-.2-2.922-2.063-4.848-4.879-4.848a5.01,5.01,0,0,0-5.108,4.848Z" transform="translate(7231.081 -3279.492)" fill="#fff"/><path d="M748.255,19.39v8.219h-1.767v-7.93c0-2.761-1.6-4.4-4.322-4.366a4.193,4.193,0,0,0-4.453,3.82v8.475h-1.735V14.061h1.67V16.34a5.688,5.688,0,0,1,4.944-2.536C746.16,13.772,748.255,15.955,748.255,19.39Z" transform="translate(7178.932 -3279.592)" fill="#fff"/><path d="M797.266,13.067V5.394h-2.587V3.885h1.539c.819,0,1.178-.385,1.178-1.188V.45h1.67V3.917h4.323V5.426h-4.355v7.512a2.709,2.709,0,0,0,2.947,3.05h1.67v1.477h-1.932C798.8,17.465,797.266,15.8,797.266,13.067Z" transform="translate(7134.342 -3269.449)" fill="#fff"/><path d="M18.045,39.846H.4a.378.378,0,0,0-.361.417v3.081a.4.4,0,0,0,.361.417H18.045a.4.4,0,0,0,.361-.417V40.263a.378.378,0,0,0-.361-.417Z" transform="translate(7737.956 -3299.374)" fill="#fff"/><path d="M.4,24.12H18.05a.4.4,0,0,0,.361-.417V21.166a.4.4,0,0,0-.361-.417H.4a.4.4,0,0,0-.361.417V23.7A.4.4,0,0,0,.4,24.12Z" transform="translate(7737.951 -3284.868)" fill="#fff"/><path d="M16.972,65.575H1.451a1.384,1.384,0,0,1-1.408-1.38V61.465a.375.375,0,0,1,.393-.385H18.02a.375.375,0,0,1,.393.385v2.729A1.434,1.434,0,0,1,16.972,65.575Z" transform="translate(7737.948 -3315.504)" fill="#fff"/><path d="M18.02,7.558H.436a.375.375,0,0,1-.393-.385v-.8A1.384,1.384,0,0,1,1.451,4.989H16.972A1.384,1.384,0,0,1,18.38,6.37v.8a.349.349,0,0,1-.36.385Z" transform="translate(7737.948 -3272.897)" fill="#fff"/></g></svg>