<?xml version="1.0" encoding="UTF-8"?>
<svg width="130px" height="40px" viewBox="0 0 130 40" version="1.1" xmlns="http://www.w3.org/2000/svg" xmlns:xlink="http://www.w3.org/1999/xlink">
    <!-- Generator: Sketch 52.5 (67469) - http://www.bohemiancoding.com/sketch -->
    <title>PCI Compliance</title>
    <desc>Created with Sketch.</desc>
    <g id="Private-CEO" stroke="none" stroke-width="1" fill="none" fill-rule="evenodd">
        <g id="2-Loading-in-Empresas" transform="translate(-1060.000000, -884.000000)" fill="#FFFFFF">
            <g id="Footer" transform="translate(0.000000, 784.000000)">
                <g id="PCI-Compliance" transform="translate(1060.000000, 100.000000)">
                    <path d="M126.801939,12.862663 L127.22459,12.862663 L128.232269,15.3248302 L129.243624,12.862663 L129.634869,12.862663 L129.634869,15.6615977 L129.362234,15.6615977 L129.362234,13.1390634 L129.354215,13.1390634 L128.350545,15.6615977 L128.117669,15.6615977 L127.082258,13.1390634 L127.074574,13.1390634 L127.074574,15.6615977 L126.801939,15.6615977 L126.801939,12.862663 Z M125.289492,13.1061017 L124.463729,13.1061017 L124.463729,12.8657627 L126.391864,12.8657627 L126.391864,13.1061017 L125.566102,13.1061017 L125.566102,15.6633898 L125.289492,15.6633898 L125.289492,13.1061017 Z M129.103051,21.8261017 L129.608136,21.8261017 L129.608136,27.8389831 L129.103051,27.8389831 L129.103051,21.8261017 Z M127.002373,21.9864407 L127.507458,21.9864407 L127.507458,22.66 L127.002373,22.66 L127.002373,21.9864407 Z M127.002373,23.7501695 L127.507458,23.7501695 L127.507458,27.839322 L127.002373,27.839322 L127.002373,23.7501695 Z M125.784407,24.2952542 C125.511864,24.1752542 125.183051,24.0871186 124.910508,24.0871186 C123.924407,24.0871186 123.371186,24.800678 123.371186,25.7945763 C123.371186,26.7247458 123.932542,27.5023729 124.854576,27.5023729 C125.175254,27.5023729 125.471864,27.4301695 125.77661,27.3179661 L125.824746,27.7911864 C125.48,27.9111864 125.159322,27.9355932 124.774237,27.9355932 C123.459322,27.9355932 122.817966,26.9332203 122.817966,25.7945763 C122.817966,24.5359322 123.627797,23.6542373 124.838305,23.6542373 C125.327458,23.6542373 125.680339,23.7664407 125.824746,23.8142373 L125.784407,24.2952542 Z M118.344746,24.7125424 C118.344746,24.399661 118.344746,24.0789831 118.312542,23.7501695 L118.802034,23.7501695 L118.802034,24.479661 L118.817966,24.479661 C118.986441,24.1108475 119.290847,23.6542373 120.140678,23.6542373 C121.151186,23.6542373 121.535593,24.3274576 121.535593,25.2254237 L121.535593,27.8389831 L121.030847,27.8389831 L121.030847,25.3538983 C121.030847,24.5840678 120.757966,24.0871186 120.060678,24.0871186 C119.138644,24.0871186 118.849831,24.8969492 118.849831,25.5783051 L118.849831,27.8389831 L118.344746,27.8389831 L118.344746,24.7125424 Z M116.757627,26.8772881 C116.757627,27.1894915 116.757627,27.5105085 116.789492,27.8389831 L116.300678,27.8389831 L116.300678,27.1094915 L116.284407,27.1094915 C116.116271,27.4783051 115.811864,27.9355932 114.961695,27.9355932 C113.951525,27.9355932 113.566441,27.2616949 113.566441,26.3640678 L113.566441,23.7501695 L114.071864,23.7501695 L114.071864,26.2355932 C114.071864,27.0050847 114.344068,27.5023729 115.042034,27.5023729 C115.964068,27.5023729 116.252542,26.6928814 116.252542,26.0111864 L116.252542,23.7501695 L116.757627,23.7501695 L116.757627,26.8772881 Z M110.384407,23.6542373 C111.707119,23.6542373 112.292542,24.680339 112.292542,25.7945763 C112.292542,26.9091525 111.707119,27.9355932 110.384407,27.9355932 C109.061356,27.9355932 108.476271,26.9091525 108.476271,25.7945763 C108.476271,24.680339 109.061356,23.6542373 110.384407,23.6542373 Z M110.384407,27.5023729 C111.266102,27.5023729 111.739322,26.740678 111.739322,25.7945763 C111.739322,24.8484746 111.266102,24.0871186 110.384407,24.0871186 C109.502373,24.0871186 109.029492,24.8484746 109.029492,25.7945763 C109.029492,26.740678 109.502373,27.5023729 110.384407,27.5023729 Z M107.017627,22.8681356 C106.664746,22.6837288 106.159661,22.6277966 105.76678,22.6277966 C104.315593,22.6277966 103.497966,23.6542373 103.497966,25.0413559 C103.497966,26.4522034 104.291525,27.4542373 105.76678,27.4542373 C106.135932,27.4542373 106.696949,27.4061017 107.017627,27.2138983 L107.049492,27.6949153 C106.744746,27.879322 106.119661,27.9355932 105.76678,27.9355932 C104.003051,27.9355932 102.944746,26.7728814 102.944746,25.0413559 C102.944746,23.3413559 104.034915,22.1471186 105.76678,22.1471186 C106.095254,22.1471186 106.761017,22.2027119 107.049492,22.3552542 L107.017627,22.8681356 Z M96.82,27.2461017 C97.1247458,27.3983051 97.4932203,27.5023729 97.8864407,27.5023729 C98.3674576,27.5023729 98.7925424,27.2379661 98.7925424,26.7728814 C98.7925424,25.8027119 96.8281356,25.9552542 96.8281356,24.7684746 C96.8281356,23.9586441 97.4854237,23.6542373 98.1586441,23.6542373 C98.3752542,23.6542373 98.8081356,23.7020339 99.1691525,23.8386441 L99.1210169,24.279322 C98.8562712,24.159322 98.4955932,24.0871186 98.2149153,24.0871186 C97.6938983,24.0871186 97.3332203,24.2474576 97.3332203,24.7684746 C97.3332203,25.5301695 99.3454237,25.4338983 99.3454237,26.7728814 C99.3454237,27.6389831 98.5359322,27.9355932 97.9183051,27.9355932 C97.5254237,27.9355932 97.1325424,27.8871186 96.7718644,27.7427119 L96.82,27.2461017 Z M95.5938983,27.8389831 L95.0888136,27.8389831 L95.0888136,27.1894915 L95.0725424,27.1894915 C94.8,27.7111864 94.3833898,27.9355932 93.7979661,27.9355932 C92.6755932,27.9355932 92.1142373,27.0050847 92.1142373,25.7945763 C92.1142373,24.5518644 92.5952542,23.6542373 93.7979661,23.6542373 C94.599661,23.6542373 95.000339,24.239322 95.0725424,24.439661 L95.0888136,24.439661 L95.0888136,21.8261017 L95.5938983,21.8261017 L95.5938983,27.8389831 Z M93.8779661,27.5023729 C94.7759322,27.5023729 95.0888136,26.540339 95.0888136,25.7945763 C95.0888136,25.0491525 94.7759322,24.0871186 93.8779661,24.0871186 C92.9162712,24.0871186 92.6674576,25.0010169 92.6674576,25.7945763 C92.6674576,26.5884746 92.9162712,27.5023729 93.8779661,27.5023729 Z M89.5074576,24.6640678 C89.5074576,24.2152542 89.5074576,24.0471186 89.4752542,23.7501695 L89.980339,23.7501695 L89.980339,24.5359322 L89.9966102,24.5359322 C90.1810169,24.0789831 90.5257627,23.6542373 91.0467797,23.6542373 C91.1671186,23.6542373 91.3111864,23.6779661 91.399661,23.7020339 L91.399661,24.2315254 C91.2952542,24.199322 91.1589831,24.1830508 91.0308475,24.1830508 C90.2291525,24.1830508 90.0125424,25.0813559 90.0125424,25.8186441 L90.0125424,27.8389831 L89.5074576,27.8389831 L89.5074576,24.6640678 Z M87.5274576,27.1816949 L87.5115254,27.1816949 C87.2871186,27.6705085 86.7176271,27.9355932 86.2125424,27.9355932 C85.0501695,27.9355932 84.8657627,27.1494915 84.8657627,26.780678 C84.8657627,25.4098305 86.3250847,25.3457627 87.3830508,25.3457627 L87.479322,25.3457627 L87.479322,25.1372881 C87.479322,24.439661 87.2308475,24.0871186 86.5494915,24.0871186 C86.1244068,24.0871186 85.7237288,24.1830508 85.3467797,24.4237288 L85.3467797,23.9345763 C85.659322,23.7823729 86.1888136,23.6542373 86.5494915,23.6542373 C87.559661,23.6542373 87.9847458,24.1108475 87.9847458,25.1772881 L87.9847458,26.9813559 C87.9847458,27.3101695 87.9847458,27.5583051 88.0247458,27.8389831 L87.5274576,27.8389831 L87.5274576,27.1816949 Z M87.479322,25.7786441 L87.3352542,25.7786441 C86.4613559,25.7786441 85.4189831,25.8667797 85.4189831,26.7647458 C85.4189831,27.3016949 85.8037288,27.5023729 86.2688136,27.5023729 C87.4552542,27.5023729 87.479322,26.4681356 87.479322,26.0274576 L87.479322,25.7786441 Z M83.639661,27.8389831 L83.1345763,27.8389831 L83.1345763,27.1894915 L83.1183051,27.1894915 C82.8461017,27.7111864 82.4291525,27.9355932 81.8437288,27.9355932 C80.7213559,27.9355932 80.160339,27.0050847 80.160339,25.7945763 C80.160339,24.5518644 80.6413559,23.6542373 81.8437288,23.6542373 C82.6457627,23.6542373 83.0461017,24.239322 83.1183051,24.439661 L83.1345763,24.439661 L83.1345763,21.8261017 L83.639661,21.8261017 L83.639661,27.8389831 Z M81.9240678,27.5023729 C82.8216949,27.5023729 83.1345763,26.540339 83.1345763,25.7945763 C83.1345763,25.0491525 82.8216949,24.0871186 81.9240678,24.0871186 C80.9620339,24.0871186 80.7132203,25.0010169 80.7132203,25.7945763 C80.7132203,26.5884746 80.9620339,27.5023729 81.9240678,27.5023729 Z M75.6227119,24.7125424 C75.6227119,24.399661 75.6227119,24.0789831 75.5905085,23.7501695 L76.08,23.7501695 L76.08,24.479661 L76.0955932,24.479661 C76.2640678,24.1108475 76.5688136,23.6542373 77.4186441,23.6542373 C78.4288136,23.6542373 78.8135593,24.3274576 78.8135593,25.2254237 L78.8135593,27.8389831 L78.3088136,27.8389831 L78.3088136,25.3538983 C78.3088136,24.5840678 78.0359322,24.0871186 77.3383051,24.0871186 C76.4166102,24.0871186 76.1277966,24.8969492 76.1277966,25.5783051 L76.1277966,27.8389831 L75.6227119,27.8389831 L75.6227119,24.7125424 Z M73.6427119,27.1816949 L73.6267797,27.1816949 C73.4023729,27.6705085 72.8328814,27.9355932 72.3281356,27.9355932 C71.1654237,27.9355932 70.9813559,27.1494915 70.9813559,26.780678 C70.9813559,25.4098305 72.440339,25.3457627 73.4983051,25.3457627 L73.5945763,25.3457627 L73.5945763,25.1372881 C73.5945763,24.439661 73.3461017,24.0871186 72.6647458,24.0871186 C72.239661,24.0871186 71.8389831,24.1830508 71.4620339,24.4237288 L71.4620339,23.9345763 C71.7745763,23.7823729 72.3040678,23.6542373 72.6647458,23.6542373 C73.6749153,23.6542373 74.1,24.1108475 74.1,25.1772881 L74.1,26.9813559 C74.1,27.3101695 74.1,27.5583051 74.14,27.8389831 L73.6427119,27.8389831 L73.6427119,27.1816949 Z M73.5945763,25.7786441 L73.4505085,25.7786441 C72.5766102,25.7786441 71.5342373,25.8667797 71.5342373,26.7647458 C71.5342373,27.3016949 71.9189831,27.5023729 72.3840678,27.5023729 C73.5705085,27.5023729 73.5945763,26.4681356 73.5945763,26.0274576 L73.5945763,25.7786441 Z M70.0671186,24.1830508 L69.1372881,24.1830508 L69.1372881,26.8288136 C69.1372881,27.1979661 69.2735593,27.5023729 69.6823729,27.5023729 C69.8749153,27.5023729 70.0033898,27.4623729 70.1477966,27.4061017 L70.179322,27.8233898 C70.059322,27.8711864 69.8105085,27.9355932 69.5623729,27.9355932 C68.6644068,27.9355932 68.6322034,27.3179661 68.6322034,26.5722034 L68.6322034,24.1830508 L67.8305085,24.1830508 L67.8305085,23.7501695 L68.6322034,23.7501695 L68.6322034,22.7644068 L69.1372881,22.5877966 L69.1372881,23.7501695 L70.0671186,23.7501695 L70.0671186,24.1830508 Z M63.8783051,27.1257627 C64.2071186,27.3338983 64.5918644,27.4542373 65.1128814,27.4542373 C65.8023729,27.4542373 66.3718644,27.1016949 66.3718644,26.3077966 C66.3718644,25.2094915 63.8064407,25.0732203 63.8064407,23.6061017 C63.8064407,22.7081356 64.5918644,22.1471186 65.5779661,22.1471186 C65.8505085,22.1471186 66.2915254,22.1871186 66.6762712,22.3311864 L66.5884746,22.8362712 C66.339661,22.7 65.9467797,22.6277966 65.5701695,22.6277966 C64.9928814,22.6277966 64.359322,22.8681356 64.359322,23.5898305 C64.359322,24.7125424 66.9250847,24.720339 66.9250847,26.3562712 C66.9250847,27.4861017 65.9545763,27.9355932 65.0891525,27.9355932 C64.5437288,27.9355932 64.1186441,27.8233898 63.8220339,27.6949153 L63.8783051,27.1257627 Z M90.5898305,19.2867797 C90.3972881,19.8477966 90.1084746,20.4088136 89.539661,20.4088136 C89.3552542,20.4088136 89.1627119,20.3850847 88.9942373,20.3447458 L89.0423729,19.9122034 C89.1386441,19.9440678 89.2349153,19.9759322 89.419322,19.9759322 C89.8518644,19.9759322 89.9962712,19.6155932 90.1569492,19.0861017 L90.2613559,18.7254237 L88.8098305,14.5884746 L89.3630508,14.5884746 L90.5094915,18.0040678 L90.5013559,17.9955932 L90.5176271,17.9955932 L91.6962712,14.5884746 L92.2250847,14.5884746 L90.5898305,19.2867797 Z M88.1444068,15.0213559 L87.2145763,15.0213559 L87.2145763,17.6671186 C87.2145763,18.0359322 87.3511864,18.340678 87.76,18.340678 C87.9522034,18.340678 88.080678,18.300678 88.2250847,18.2444068 L88.2566102,18.6613559 C88.1366102,18.7094915 87.8881356,18.7735593 87.639661,18.7735593 C86.7416949,18.7735593 86.7094915,18.1562712 86.7094915,17.4105085 L86.7094915,15.0213559 L85.9077966,15.0213559 L85.9077966,14.5884746 L86.7094915,14.5884746 L86.7094915,13.6023729 L87.2145763,13.4261017 L87.2145763,14.5884746 L88.1444068,14.5884746 L88.1444068,15.0213559 Z M84.280678,12.8244068 L84.7857627,12.8244068 L84.7857627,13.4979661 L84.280678,13.4979661 L84.280678,12.8244068 Z M84.280678,14.5884746 L84.7857627,14.5884746 L84.7857627,18.6776271 L84.280678,18.6776271 L84.280678,14.5884746 Z M81.2905085,15.5023729 C81.2905085,15.0535593 81.2905085,14.8854237 81.2583051,14.5884746 L81.7633898,14.5884746 L81.7633898,15.3742373 L81.779661,15.3742373 C81.9640678,14.9169492 82.3088136,14.4922034 82.8298305,14.4922034 C82.9501695,14.4922034 83.0942373,14.5162712 83.1827119,14.540339 L83.1827119,15.0698305 C83.0783051,15.0376271 82.9420339,15.0213559 82.8138983,15.0213559 C82.0122034,15.0213559 81.7955932,15.919322 81.7955932,16.6569492 L81.7955932,18.6772881 L81.2905085,18.6772881 L81.2905085,15.5023729 Z M79.7033898,17.7152542 C79.7033898,18.0277966 79.7033898,18.3484746 79.7355932,18.6772881 L79.2464407,18.6772881 L79.2464407,17.9477966 L79.2301695,17.9477966 C79.0620339,18.3166102 78.7576271,18.7735593 77.9074576,18.7735593 C76.8976271,18.7735593 76.5125424,18.1 76.5125424,17.2023729 L76.5125424,14.5884746 L77.0176271,14.5884746 L77.0176271,17.0738983 C77.0176271,17.8433898 77.2905085,18.340678 77.9877966,18.340678 C78.9098305,18.340678 79.1986441,17.5308475 79.1986441,16.8494915 L79.1986441,14.5884746 L79.7033898,14.5884746 L79.7033898,17.7152542 Z M75.2942373,15.1335593 C75.0213559,15.0135593 74.6932203,14.9254237 74.420339,14.9254237 C73.4342373,14.9254237 72.8810169,15.6386441 72.8810169,16.6328814 C72.8810169,17.5630508 73.4420339,18.340678 74.3644068,18.340678 C74.6847458,18.340678 74.9813559,18.2684746 75.2864407,18.1562712 L75.3342373,18.6291525 C74.9898305,18.7494915 74.6688136,18.7735593 74.2840678,18.7735593 C72.9691525,18.7735593 72.3277966,17.7711864 72.3277966,16.6328814 C72.3277966,15.3742373 73.1376271,14.4922034 74.3481356,14.4922034 C74.8372881,14.4922034 75.1901695,14.6044068 75.3342373,14.6525424 L75.2942373,15.1335593 Z M71.0454237,18.5491525 C70.6925424,18.6932203 70.2355932,18.7735593 69.8589831,18.7735593 C68.5040678,18.7735593 67.9989831,17.859661 67.9989831,16.6328814 C67.9989831,15.3820339 68.6884746,14.4922034 69.7227119,14.4922034 C70.8769492,14.4922034 71.3498305,15.4223729 71.3498305,16.520678 L71.3498305,16.7772881 L68.5522034,16.7772881 C68.5522034,17.6430508 69.0172881,18.340678 69.8989831,18.340678 C70.2677966,18.340678 70.8050847,18.1884746 71.0454237,18.0359322 L71.0454237,18.5491525 Z M70.7969492,16.3440678 L68.5522034,16.3440678 C68.5522034,15.6708475 69.0091525,14.9254237 69.7545763,14.9254237 C70.5081356,14.9254237 70.7969492,15.6308475 70.7969492,16.3440678 Z M63.8783051,17.9640678 C64.2071186,18.1722034 64.5918644,18.2922034 65.1128814,18.2922034 C65.8023729,18.2922034 66.3718644,17.939661 66.3718644,17.1461017 C66.3718644,16.0474576 63.8064407,15.9115254 63.8064407,14.4444068 C63.8064407,13.5461017 64.5918644,12.9850847 65.5779661,12.9850847 C65.8505085,12.9850847 66.2915254,13.0250847 66.6762712,13.1694915 L66.5884746,13.6742373 C66.339661,13.5383051 65.9467797,13.4661017 65.5701695,13.4661017 C64.9928814,13.4661017 64.359322,13.7064407 64.359322,14.4281356 C64.359322,15.5505085 66.9250847,15.5586441 66.9250847,17.1942373 C66.9250847,18.3244068 65.9545763,18.7735593 65.0891525,18.7735593 C64.5437288,18.7735593 64.1186441,18.6613559 63.8220339,18.5328814 L63.8783051,17.9640678 Z" id="Lettering"></path>
                    <path d="M48.1589831,7.10542736e-15 L59.3911864,24.8454237 L13.4437288,39.6508475 L-7.10542736e-14,3.06305085 L48.1589831,7.10542736e-15 M44.0484746,12.3766102 L49.8620339,12.3766102 L49.8620339,28.1745763 L44.0484746,28.1745763 L44.0484746,12.3766102 Z M50.3277966,7.6820339 C50.3277966,9.59864407 48.7738983,11.1528814 46.8572881,11.1528814 C44.940339,11.1528814 43.3861017,9.59864407 43.3861017,7.6820339 C43.3861017,5.76508475 44.940339,4.21084746 46.8572881,4.21084746 C48.7738983,4.21084746 50.3277966,5.76508475 50.3277966,7.6820339 M41.0938983,17.32 C40.0416949,16.1884746 38.3325424,15.9383051 36.5708475,15.9383051 C33.4152542,15.9383051 32.0027119,17.8664407 32.0027119,20.3176271 C32.0027119,22.8115254 33.4416949,24.6128814 36.6498305,24.6128814 C38.3325424,24.6128814 40.0155932,24.5345763 41.0938983,23.5077966 L41.0938983,27.860678 C39.3844068,28.279661 38.1484746,28.5938983 36.5444068,28.5938983 C33.7837288,28.5938983 31.1538983,27.7562712 29.1027119,26.2681356 C26.92,24.6969492 25.920678,22.6433898 25.920678,20.2969492 C25.920678,18.1383051 26.9464407,16.0644068 28.84,14.5142373 C30.7857627,12.9220339 33.599322,11.9576271 36.3867797,11.9576271 C38.0433898,11.9576271 39.5688136,12.2511864 41.0938983,12.7538983 L41.0938983,17.32 M9.04542373,12.3766102 L17.1989831,12.3766102 C21.3789831,12.3766102 24.2688136,13.9481356 24.2688136,17.5732203 C24.2688136,21.3023729 21.7915254,22.9369492 17.379661,22.9369492 L14.5155932,22.9369492 L14.5155932,28.1749153 L9.04542373,28.1749153 L9.04542373,12.3766102 L9.04542373,12.3766102 Z M14.9277966,19.6264407 L15.7789831,19.6264407 C17.6111864,19.6264407 18.7983051,19.6254237 18.8623729,17.6986441 C18.9105085,16.2505085 17.740339,15.6871186 15.7789831,15.6871186 L14.9277966,15.6871186 L14.9277966,19.6264407 L14.9277966,19.6264407 Z" id="Emblem"></path>
                </g>
            </g>
        </g>
    </g>
</svg>