<svg xmlns="http://www.w3.org/2000/svg" width="200" height="27.64" viewBox="0 0 200 27.64">
  <defs>
    <style>
      .cls-1 {
        fill: #fff;
      }
    </style>
  </defs>
  <g id="Logo" transform="translate(0)">
    <path id="Lettering" class="cls-1" d="M52.926,25.714a6.294,6.294,0,0,1-4.642-1.95,6.36,6.36,0,0,1-1.748-4.742,6.434,6.434,0,0,1,3.115-5.787,6.367,6.367,0,0,1,6.547,0,6.434,6.434,0,0,1,3.115,5.787,6.36,6.36,0,0,1-1.747,4.741A6.294,6.294,0,0,1,52.926,25.714Zm0-11.7c-2.69,0-4.5,2.015-4.5,5.014a4.552,4.552,0,0,0,2.1,4.324,4.5,4.5,0,0,0,4.789,0,4.552,4.552,0,0,0,2.1-4.324,4.6,4.6,0,0,0-1.154-3.5,4.55,4.55,0,0,0-3.345-1.513Zm-30.659,11.7a6.293,6.293,0,0,1-4.64-1.951,6.358,6.358,0,0,1-1.746-4.74A6.431,6.431,0,0,1,19,13.253a6.364,6.364,0,0,1,6.534,0,6.431,6.431,0,0,1,3.119,5.77,6.36,6.36,0,0,1-1.747,4.741,6.294,6.294,0,0,1-4.641,1.95Zm0-11.7c-2.691,0-4.5,2.015-4.5,5.014a4.552,4.552,0,0,0,2.1,4.324,4.5,4.5,0,0,0,4.789,0,4.552,4.552,0,0,0,2.1-4.324,4.6,4.6,0,0,0-1.154-3.5,4.55,4.55,0,0,0-3.345-1.513ZM140.26,25.486h-1.833V12.552h1.81l.041.056,7.019,9.571V12.552h1.833V25.485h-1.71l-.039-.054-7.113-9.777v9.829Zm-32.85,0h-1.833V12.552h2.468l.033.082,3.787,9.241,3.851-9.323h2.47V25.485h-1.832v-9.89l-4.072,9.89h-.818l-.035-.075L107.411,15.6v9.889ZM2.2,25.486H.363V12.552H2.169l.039.056,7.019,9.571V12.552h1.827V25.485h-1.7l-.041-.054L2.2,15.656v9.829Zm157.584,0h-1.831V14.224h-3.985V12.552h9.826v1.666h-4.007V25.48Zm-62.8,0H95.144V20.039l-5.086-7.487h2.157l3.835,5.776,3.842-5.776h2.153l-5.068,7.487v5.444Zm35.818,0h-8.525V12.552h8.525v1.666H126.1v3.818h6.559V19.7H126.1v4.1h6.693v1.666Zm-54.492,0H76.221l5.17-12.934h2.125L88.7,25.482H86.629l-1.118-2.808H79.417L78.3,25.482Zm4.16-10.805-2.487,6.325h4.959Zm-43.8,10.805H36.542L36.51,25.4,31.371,12.552h2.081l.033.085,4.127,10.625,4.163-10.71h2.082L38.667,25.485Zm27.713,0H64.547V12.554h5.2a3.824,3.824,0,0,1,2.908,1.071,3.864,3.864,0,0,1,1.173,2.881,3.863,3.863,0,0,1-1.173,2.881,3.823,3.823,0,0,1-2.908,1.07H66.382v5.031Zm0-11.262h0v4.56h3.178a2.269,2.269,0,0,0,2.06-1.106,2.292,2.292,0,0,0,0-2.347,2.269,2.269,0,0,0-2.06-1.106ZM49.383,8.856h0a1.906,1.906,0,0,1-.312-.019,2.225,2.225,0,0,1-.292-.051l.164-.965a.878.878,0,0,0,.414.082.861.861,0,0,0,.434-.1.693.693,0,0,0,.276-.333l.245-.565L48.281,1.889h1.144L50.864,5.6,52.3,1.889h1.154L51.079,7.736a1.7,1.7,0,0,1-.665.857,2.007,2.007,0,0,1-1.031.262Zm-3.664-1.89a1.926,1.926,0,0,1-.884-.211,2,2,0,0,1-.7-.59v.678H43.063V0h1.072V2.576a1.931,1.931,0,0,1,1.583-.811,2.054,2.054,0,0,1,1.127.319,2.157,2.157,0,0,1,.776.907A3.207,3.207,0,0,1,47.9,4.373a3.193,3.193,0,0,1-.276,1.389,2.12,2.12,0,0,1-.776.9A2.007,2.007,0,0,1,45.718,6.966ZM45.4,2.719a1.419,1.419,0,0,0-.725.194,1.439,1.439,0,0,0-.542.482V5.356a1.258,1.258,0,0,0,.536.467,1.554,1.554,0,0,0,.73.19,1.264,1.264,0,0,0,1.022-.458,1.794,1.794,0,0,0,.383-1.184,1.811,1.811,0,0,0-.383-1.191,1.259,1.259,0,0,0-1.021-.46Zm-9,4.247a2.048,2.048,0,0,1-1.134-.314,2.1,2.1,0,0,1-.781-.9,3.193,3.193,0,0,1-.276-1.389,3.207,3.207,0,0,1,.276-1.382,2.151,2.151,0,0,1,.781-.907A2.083,2.083,0,0,1,36.4,1.759a1.993,1.993,0,0,1,.873.21,2.089,2.089,0,0,1,.709.6V0h1.072V6.843H37.98V6.167a2.046,2.046,0,0,1-.7.59A1.926,1.926,0,0,1,36.4,6.966ZM36.7,2.719a1.241,1.241,0,0,0-1.011.461,1.829,1.829,0,0,0-.379,1.191,1.811,1.811,0,0,0,.38,1.183,1.253,1.253,0,0,0,1.011.457,1.578,1.578,0,0,0,.738-.179,1.355,1.355,0,0,0,.542-.471V3.385a1.415,1.415,0,0,0-.542-.469,1.54,1.54,0,0,0-.739-.2ZM31.1,6.966a2.693,2.693,0,0,1-1.322-.324,2.346,2.346,0,0,1-.924-.918,2.725,2.725,0,0,1-.337-1.365,2.7,2.7,0,0,1,.321-1.307,2.439,2.439,0,0,1,2.18-1.289,2.288,2.288,0,0,1,2.129,1.308,3.087,3.087,0,0,1,.3,1.389v.26H29.638a1.5,1.5,0,0,0,.479.972,1.543,1.543,0,0,0,1.091.39,2.216,2.216,0,0,0,.761-.139,1.778,1.778,0,0,0,.637-.4l.49.708a2.484,2.484,0,0,1-.888.533A3.388,3.388,0,0,1,31.1,6.966Zm-.082-4.32a1.272,1.272,0,0,0-.989.394,1.519,1.519,0,0,0-.4.919H32.4a1.533,1.533,0,0,0-.163-.621,1.262,1.262,0,0,0-.464-.5A1.376,1.376,0,0,0,31.016,2.647Zm-9.151,4.32a2.7,2.7,0,0,1-1.322-.324,2.346,2.346,0,0,1-.924-.918,2.725,2.725,0,0,1-.337-1.365,2.685,2.685,0,0,1,.323-1.305,2.477,2.477,0,0,1,.893-.94,2.432,2.432,0,0,1,1.286-.349,2.287,2.287,0,0,1,2.129,1.308,3.049,3.049,0,0,1,.3,1.389v.258H20.407a1.5,1.5,0,0,0,.479.972,1.543,1.543,0,0,0,1.091.39,2.266,2.266,0,0,0,.761-.139,1.771,1.771,0,0,0,.638-.4l.49.708a2.484,2.484,0,0,1-.888.533A3.421,3.421,0,0,1,21.866,6.966Zm-.082-4.32a1.276,1.276,0,0,0-.989.394,1.519,1.519,0,0,0-.4.919h2.776a1.386,1.386,0,0,0-.162-.621,1.247,1.247,0,0,0-.46-.5,1.354,1.354,0,0,0-.767-.2ZM8.266,6.966a2.539,2.539,0,0,1-1.333-.349,2.386,2.386,0,0,1-.888-.944A2.788,2.788,0,0,1,5.734,4.36a2.76,2.76,0,0,1,.312-1.305,2.382,2.382,0,0,1,.888-.944,2.539,2.539,0,0,1,1.333-.349,2.557,2.557,0,0,1,1.342.349,2.392,2.392,0,0,1,.891.944,2.749,2.749,0,0,1,.312,1.307A2.788,2.788,0,0,1,10.5,5.675a2.386,2.386,0,0,1-.888.944,2.557,2.557,0,0,1-1.346.347Zm0-4.247A1.264,1.264,0,0,0,7.229,3.2,1.811,1.811,0,0,0,6.846,4.36a1.825,1.825,0,0,0,.383,1.175,1.264,1.264,0,0,0,1.038.478,1.274,1.274,0,0,0,1.046-.478A1.825,1.825,0,0,0,9.695,4.36a1.811,1.811,0,0,0-.383-1.166,1.274,1.274,0,0,0-1.046-.475ZM13.9,6.844H12.779L11.248,1.889h1.114l1.04,3.6,1.174-3.6h.94l1.174,3.6,1.04-3.6h1.114L17.313,6.843H16.189L15.046,3.212,13.9,6.843Zm12.447,0H25.284V1.889h1.072v.729a2.3,2.3,0,0,1,.716-.607,1.876,1.876,0,0,1,.888-.236V2.843a1.438,1.438,0,0,0-.337-.031,1.57,1.57,0,0,0-.72.2,1.383,1.383,0,0,0-.553.455V6.841ZM1.2,6.844H0V0H2.991A2.37,2.37,0,0,1,4.185.288a1.96,1.96,0,0,1,.765.78,2.25,2.25,0,0,1,.265,1.077A2.25,2.25,0,0,1,4.95,3.223,1.949,1.949,0,0,1,4.179,4a2.379,2.379,0,0,1-1.188.287H1.2V6.841Zm0-5.786V3.231H2.828a1.2,1.2,0,0,0,.837-.3,1.019,1.019,0,0,0,.327-.79,1.016,1.016,0,0,0-.329-.789,1.2,1.2,0,0,0-.836-.3Z" transform="translate(36.209 1.919)"/>
    <path id="Emblem" class="cls-1" d="M27.14,27.64H.514A.536.536,0,0,1,0,27.085V20.4H27.654v6.679a.536.536,0,0,1-.514.557Zm.511-8.91H0V12.6H27.651v6.128Zm0-7.8H0V5.864H27.651v5.065Zm0-6.74H0V.555A.538.538,0,0,1,.514,0H27.14a.538.538,0,0,1,.514.555V4.19Z" transform="translate(0)"/>
  </g>
</svg>
