<svg xmlns="http://www.w3.org/2000/svg" xmlns:xlink="http://www.w3.org/1999/xlink" width="82" height="53.3" viewBox="0 0 82 53.3">
  <defs>
    <style>
      .cls-1 {
        fill: url(#linear-gradient);
      }

      .cls-2 {
        clip-path: url(#clip-path);
      }

      .cls-3 {
        clip-path: url(#clip-path-2);
      }

      .cls-4, .cls-5 {
        fill: #fafafb;
        fill-rule: evenodd;
      }

      .cls-5 {
        opacity: 0.3;
      }
    </style>
    <linearGradient id="linear-gradient" x1="0.5" x2="0.5" y2="1" gradientUnits="objectBoundingBox">
      <stop offset="0" stop-color="#76bc21"/>
      <stop offset="1" stop-color="#006937"/>
    </linearGradient>
    <clipPath id="clip-path">
      <rect id="Mask" class="cls-1" width="82" height="53.3" rx="4.1" transform="translate(9216 14038)"/>
    </clipPath>
    <clipPath id="clip-path-2">
      <rect id="Mask-2" data-name="Mask" class="cls-1" width="82" height="53.3" rx="4.1"/>
    </clipPath>
  </defs>
  <g id="Enmascarar_grupo_21" data-name="Enmascarar grupo 21" class="cls-2" transform="translate(-9216 -14038)">
    <g id="Private-CPO" transform="translate(9215 14037)">
      <g id="_3-Card-Detail-CPO" data-name="3-Card-Detail-CPO" transform="translate(-774 -174)">
        <g id="Content" transform="translate(39 80)">
          <g id="Image" transform="translate(736 95)">
            <g id="Enmascarar_grupo_22" data-name="Enmascarar grupo 22" class="cls-3">
              <rect id="Mask-3" data-name="Mask" class="cls-1" width="82" height="53.3" rx="4.1"/>
            </g>
            <path id="path0" class="cls-4" d="M77.931,46.983l-.32.392A22.449,22.449,0,0,0,76.1,49.5c-.094.149-.174.274-.177.278s-.227.064-.5.133a22.7,22.7,0,0,0-3,.975,6.373,6.373,0,0,0,.649.49c.545.385.979.7,1.439,1.03.044.032.041.044-.087.369-.184.47-.419,1.105-.6,1.618-.228.651-.852,2.518-.842,2.518s.112-.172.238-.382a43.914,43.914,0,0,1,5.293-7.1c.066-.071.16-.175.209-.23l.089-.1-.1-.264c-.786-2.066-.724-1.917-.777-1.852m2.659,2.273c-.149,0-.5.019-.788.032l-.518.025-.161.158a45.913,45.913,0,0,0-4.8,5.887l-.233.34.458-.4a48.477,48.477,0,0,1,8.087-5.773,2.267,2.267,0,0,0,.386-.24c-.018-.018-1.988-.041-2.427-.028m-44.4.591c-.016.087-.161.8-.322,1.582l-.506,2.459c-.117.569-.218,1.054-.225,1.076-.011.039.028.041.589.041h.6l.012-.053c.007-.029.1-.492.213-1.029s.208-.983.217-.992a4.2,4.2,0,0,1,.487-.027,1.811,1.811,0,0,0,1.471-.51c.655-.658.818-1.947.306-2.41-.3-.268-.47-.3-1.772-.3H36.222l-.029.159m11.891-.129c-.013.036-.341,1.638-.341,1.667,0,.049-.042.015-.054-.044-.111-.552-1.087-.622-1.581-.113a4.459,4.459,0,0,0-.687,3.521,1,1,0,0,0,1.621-.115c.094-.136.1-.12.043.133-.026.118-.048.22-.048.227s.254.012.565.012a3.876,3.876,0,0,0,.565-.021c0-.011.244-1.2.541-2.648s.541-2.632.541-2.638a7.952,7.952,0,0,0-1.165.018m5.424.094c-.024.112-.326,1.575-.86,4.173-.109.532-.2.979-.2.994a1.845,1.845,0,0,0,.549.027h.549l.042-.206c.048-.231.073-.3.09-.241.131.43.325.559.8.535a1.16,1.16,0,0,0,.914-.477,4.914,4.914,0,0,0,.672-3.344c-.261-.555-1.25-.511-1.66.074-.085.121-.078.069.1-.8.1-.465.175-.849.175-.853s-.258-.007-.575-.007h-.574l-.027.124m-15.671.847c.4.207.2,1.166-.273,1.307a1.307,1.307,0,0,1-.6-.006c0-.036.253-1.273.271-1.324a1.047,1.047,0,0,1,.6.023m3.751.241a1.31,1.31,0,0,0-.732.484c-.137.176-.137.176-.068-.139l.057-.262h-.561c-.514,0-.562,0-.573.041-.006.023-.177.846-.378,1.829s-.382,1.859-.4,1.946-.035.169-.035.183a2.375,2.375,0,0,0,.581.019l.581-.006.066-.318c.036-.175.146-.706.243-1.181.28-1.365.383-1.5,1.117-1.512l.293,0,.112-.54a1.753,1.753,0,0,0,.084-.558.834.834,0,0,0-.383.017m1.93-.011c-.863.109-1.38.685-1.658,1.847-.419,1.749-.136,2.35,1.106,2.348,1.206,0,1.764-.631,2.082-2.348.266-1.433-.215-2.013-1.531-1.847m18.8.012a1.314,1.314,0,0,0-.717.458c-.1.134-.1.1-.007-.323l.012-.053h-1.12l-.042.206c-.257,1.257-.773,3.745-.783,3.776s.026.041.574.041h.587l.028-.147c.251-1.31.549-2.649.619-2.777.217-.4.7-.4.7-.012,0,.1-.533,2.789-.576,2.907-.008.023.116.029.572.029h.583l.161-.782c.089-.43.235-1.137.326-1.571.225-1.076.226-1.34.01-1.573a1.068,1.068,0,0,0-.928-.18m3.052-.013c-.921.117-1.428.69-1.694,1.914-.378,1.743-.057,2.345,1.223,2.291a1.564,1.564,0,0,0,1.54-.984,3.283,3.283,0,0,0,.225-.7c0-.023-.122-.029-.53-.029s-.532.007-.538.029l-.062.229c-.132.493-.291.682-.572.682-.354,0-.387-.393-.129-1.529.2-.88.409-1.2.736-1.143.245.046.309.253.233.749l-.014.089.537-.006.537-.006.022-.094a2.836,2.836,0,0,0-.019-.9c-.168-.453-.76-.688-1.5-.6m3.446,0c-1.028.146-1.539.851-1.8,2.481-.2,1.24.151,1.721,1.248,1.716,1.21-.006,1.776-.656,2.084-2.4.193-1.09-.009-1.6-.7-1.764a3.268,3.268,0,0,0-.832-.036M57.9,50.937a1.38,1.38,0,0,0-.993.718,2.534,2.534,0,0,0-.2.545s.233.006.517.006h.517l.027-.1c.083-.308.239-.441.516-.441.256,0,.347.146.274.441s-.149.344-.768.491c-.755.179-1,.294-1.214.577a1.811,1.811,0,0,0-.322,1.489c.184.582,1.164.6,1.69.032l.132-.142-.017.227-.017.227h1.133l-.026-.073c-.056-.16-.029-.317.421-2.479.2-.947.133-1.267-.288-1.448a2.955,2.955,0,0,0-1.387-.069m-8.329.1c-.514,2.188-.709,3.474-.566,3.732.269.486,1.143.453,1.65-.062l.168-.171-.043.206c-.024.113-.043.219-.044.236a3.924,3.924,0,0,0,1.114-.012c.007-.023.081-.38.165-.794s.259-1.272.39-1.906l.25-1.218.013-.065H51.512l-.025.112c-.014.061-.142.678-.284,1.371-.295,1.432-.316,1.5-.527,1.641a.368.368,0,0,1-.429.021c-.134-.116-.139-.084.346-2.415.077-.369.139-.684.139-.7s-.13-.03-.576-.03h-.576l-.012.053m-5.74.64c.195.081.2.434.024,1.295-.219,1.064-.36,1.329-.707,1.329-.319,0-.378-.243-.245-1.011.224-1.3.506-1.789.928-1.613m25.34.037a3.8,3.8,0,0,1-.482,2.5.327.327,0,0,1-.544-.132,5.465,5.465,0,0,1,.4-2.114c.151-.3.447-.423.623-.258m-21.727.109c.139.139.138.405,0,1.125-.187.941-.368,1.282-.681,1.282-.391,0-.416-.53-.083-1.781.16-.6.51-.885.769-.627m7.423-.028c.158.1.166.451.023,1.131-.209,1-.379,1.3-.729,1.3s-.375-.426-.094-1.576c.184-.754.478-1.07.8-.859m24.385.37a21.883,21.883,0,0,0-2.419,1.795c.017.015.131.09.254.166.7.432,2.217,1.4,3.387,2.171.239.157.437.282.44.279s-.135-.551-.308-1.217-.443-1.722-.6-2.346c-.163-.641-.3-1.134-.315-1.133s-.211.13-.437.285m-20.894.908a2.3,2.3,0,0,1-.371,1.085c-.337.278-.661.1-.594-.333.056-.364.179-.495.605-.651a2.7,2.7,0,0,0,.255-.105c.091-.049.106-.049.106,0m-23.173,3.29c-.435.16-.8,1.541-.481,1.8a.494.494,0,0,0,.574-.013l.115-.078v.069c0,.067,0,.069.118.069a.607.607,0,0,0,.118-.006s.046-.226.1-.494l.1-.488h-.575l-.016.088c-.009.048-.021.106-.027.128s.008.041.1.047l.113.007-.007.094c-.023.307-.335.517-.448.3a2.14,2.14,0,0,1,.191-1.125c.141-.25.394-.2.394.072v.081h.151c.178,0,.181,0,.182-.2,0-.326-.328-.49-.707-.351M48.7,56.353a2.531,2.531,0,0,0-.058.259.437.437,0,0,0,.173.018h.173l.027-.133c.015-.073.027-.142.027-.153a.6.6,0,0,0-.341.01M41.45,56.4c-.03.125-.365,1.764-.365,1.785s.076.023.175.023h.175l.015-.088c.008-.049.041-.208.072-.355s.056-.269.056-.273a1.675,1.675,0,0,1,.206-.021.669.669,0,0,0,.688-.72c0-.319-.107-.387-.628-.4l-.381-.008-.013.055m.584.3c.112.088.071.327-.078.452-.076.064-.331.1-.331.043,0-.029.092-.478.105-.514s.232-.037.3.019m-5.362.094a.389.389,0,0,0-.14.092c-.086.09-.115.09-.1,0l.01-.071h-.314l-.1.488c-.055.269-.119.576-.143.684-.049.226-.052.222.155.211l.138-.007.087-.418c.122-.587.144-.626.384-.652l.116-.012.03-.129c.052-.224.045-.235-.122-.187m2.071.018a.459.459,0,0,0-.126.083c-.047.057-.077.048-.06-.02s.014-.059-.149-.059h-.164l-.051.253c-.028.139-.113.552-.189.918l-.138.665h.339l.052-.253c.07-.339.065-.328.122-.256.23.293.618.019.752-.53.156-.64-.008-.978-.389-.8m1.069-.012a1.115,1.115,0,0,0-.53,1.15c.069.456.769.382.991-.105.321-.7.1-1.2-.461-1.045m3.331.013a.508.508,0,0,0-.139.094c-.063.071-.091.063-.073-.021l.016-.072-.16.007-.16.007-.135.647c-.17.813-.172.729.023.729h.161l.1-.464c.116-.551.142-.6.365-.614l.128-.011.026-.131c.048-.237.031-.256-.15-.173m.671-.023c-.337.073-.565.494-.565,1.042,0,.6.8.558,1.012-.059.247-.7.068-1.1-.448-.983m1.412.006a.594.594,0,0,0-.157.081c-.094.072-.106.071-.087,0l.015-.06-.16.007-.16.007-.136.647c-.171.813-.173.729.022.729h.161l.1-.488c.127-.616.151-.665.328-.665.133,0,.134.042.015.613-.059.285-.107.523-.107.529,0,.047.33.006.341-.042.007-.029.05-.238.1-.465.1-.5.095-.478.167-.565a.17.17,0,0,1,.245-.033,5.614,5.614,0,0,1-.182,1.064c-.014.053-.011.054.158.047l.172-.007.116-.569c.124-.6.128-.7.037-.782a.386.386,0,0,0-.492.06l-.092.083-.021-.055a.3.3,0,0,0-.379-.135m1.687,0c-.276.069-.412.247-.513.672-.12.5-.036.73.286.774a.616.616,0,0,0,.656-.477c0-.084-.279-.034-.326.059-.166.326-.393.2-.318-.179l.015-.074h.7l.026-.149c.087-.5-.107-.73-.522-.627m1.381,0a.506.506,0,0,0-.162.108l-.09.087.016-.087.016-.087h-.166a.637.637,0,0,0-.166.011c0,.013-.252,1.245-.271,1.324-.012.051-.007.053.159.053H47.8l.091-.441c.117-.569.161-.641.4-.641h.1l.028-.137c.048-.23.041-.24-.126-.191M49.5,56.8a1.041,1.041,0,0,0-.531,1.071c.022.488.684.524.932.051.116-.221.11-.24-.079-.231l-.156.007-.046.124c-.1.257-.326.248-.325-.014a2.577,2.577,0,0,1,.109-.54c.089-.285.353-.331.347-.06l0,.1h.317l.015-.078c.061-.327-.217-.533-.581-.431m1.218-.016c-.248.056-.435.23-.435.406,0,.1.269.068.322-.04.112-.228.387-.144.29.089-.03.072-.065.09-.329.165-.372.106-.568.413-.448.7.066.16.368.182.518.038.076-.073.089-.074.1-.006.007.048.022.054.166.06l.159.007v-.067c0-.037.042-.278.094-.535.113-.561.117-.642.034-.725a.6.6,0,0,0-.469-.095m-13.74.06a10.8,10.8,0,0,0-.216,1.188c.037.229.359.281.574.092l.081-.071-.008.069-.008.069.158.007c.148.007.159,0,.171-.047.02-.086.271-1.314.271-1.327a.637.637,0,0,0-.17,0l-.17.007-.077.376c-.042.207-.089.434-.1.5-.033.165-.122.26-.243.26-.153,0-.153,0,.074-1.088l.014-.065h-.168c-.114,0-.172.01-.178.03m11.482.635c-.075.366-.142.678-.148.694s.035.03.168.03a.739.739,0,0,0,.179-.011c0-.013.252-1.245.271-1.324.012-.051.007-.053-.16-.053H48.6l-.137.665m-8.441-.44c.213.15-.121,1.083-.337.941-.151-.1.01-.848.2-.948.072-.037.071-.037.134.007m3.973.024c.187.187-.129,1.046-.34.926-.164-.093-.007-.883.193-.963.074-.03.082-.028.148.037m3.118-.017a.432.432,0,0,1,.023.221l0,.088h-.353v-.067c0-.177.227-.341.334-.242m-8.287.049a1.208,1.208,0,0,1-.169.819c-.222.236-.314-.115-.161-.608.072-.231.256-.349.33-.211m12.013.478c-.007.029-.022.1-.033.153-.044.207-.2.331-.325.251-.137-.09-.024-.323.2-.4.179-.065.177-.065.163,0" transform="translate(-30.236 -44.354)"/>
            <path id="path0-2" data-name="path0" class="cls-5" d="M92.859,47.066,91.674,48.52A83.229,83.229,0,0,0,86.052,56.4c-.349.552-.644,1.015-.656,1.03s-.84.237-1.841.493c-3.956,1.013-10.723,3.211-11.137,3.616a23.632,23.632,0,0,0,2.405,1.818c2.02,1.428,3.629,2.58,5.334,3.819.162.118.151.163-.322,1.37-.683,1.743-1.554,4.1-2.219,6-.844,2.415-3.158,9.334-3.121,9.334.018,0,.415-.638.883-1.417A162.819,162.819,0,0,1,95,56.137c.245-.264.595-.648.776-.853l.331-.373-.373-.979c-2.916-7.658-2.684-7.106-2.879-6.866m9.858,8.427c-.552.016-1.867.071-2.922.12l-1.919.091-.6.587A170.227,170.227,0,0,0,79.466,78.118L78.6,79.38l1.7-1.49a179.737,179.737,0,0,1,29.984-21.4,8.4,8.4,0,0,0,1.433-.891c-.066-.068-7.372-.151-9-.1M97.744,66.277c-4.913,3.378-9.131,6.507-8.968,6.654.063.057.487.333.943.614,2.591,1.6,8.219,5.208,12.559,8.05.886.58,1.619,1.046,1.631,1.034s-.5-2.041-1.141-4.511-1.644-6.384-2.235-8.7c-.606-2.377-1.114-4.206-1.168-4.2s-.781.481-1.621,1.058" transform="translate(-76.236 -24.32)"/>
          </g>
        </g>
      </g>
    </g>
  </g>
</svg>
